<?xml version="1.0" encoding="UTF-8" standalone="no"?>
<!DOCTYPE svg PUBLIC "-//W3C//DTD SVG 1.1//EN"
 "http://www.w3.org/Graphics/SVG/1.1/DTD/svg11.dtd">
<!-- Generated by graphviz version 2.38.0 (20140413.2041)
 -->
<!-- Title: AudioEngine.h Pages: 1 -->
<svg width="229pt" height="252pt"
 viewBox="0.00 0.00 228.50 252.00" xmlns="http://www.w3.org/2000/svg" xmlns:xlink="http://www.w3.org/1999/xlink">
<g id="graph0" class="graph" transform="scale(1 1) rotate(0) translate(4 248)">
<title>AudioEngine.h</title>
<polygon fill="white" stroke="none" points="-4,4 -4,-248 224.5,-248 224.5,4 -4,4"/>
<!-- Node1 -->
<g id="node1" class="node"><title>Node1</title>
<polygon fill="#bfbfbf" stroke="black" points="67.5,-224.5 67.5,-243.5 152.5,-243.5 152.5,-224.5 67.5,-224.5"/>
<text text-anchor="middle" x="110" y="-231.5" font-family="Helvetica Neue" font-size="10.00">AudioEngine.h</text>
</g>
<!-- Node2 -->
<g id="node2" class="node"><title>Node2</title>
<g id="a_node2"><a xlink:href="_connections_8h.html" target="_top" xlink:title="Connections.h">
<polygon fill="white" stroke="black" points="10.5,-168.5 10.5,-187.5 95.5,-187.5 95.5,-168.5 10.5,-168.5"/>
<text text-anchor="middle" x="53" y="-175.5" font-family="Helvetica Neue" font-size="10.00">Connections.h</text>
</a>
</g>
</g>
<!-- Node1&#45;&gt;Node2 -->
<g id="edge1" class="edge"><title>Node1&#45;&gt;Node2</title>
<path fill="none" stroke="midnightblue" d="M100.842,-224.324C92.4985,-216.42 79.9676,-204.548 69.8231,-194.938"/>
<polygon fill="midnightblue" stroke="midnightblue" points="71.9913,-192.171 62.3247,-187.834 67.1771,-197.252 71.9913,-192.171"/>
</g>
<!-- Node6 -->
<g id="node6" class="node"><title>Node6</title>
<g id="a_node6"><a xlink:href="_module_processor_8h.html" target="_top" xlink:title="ModuleProcessor.h">
<polygon fill="white" stroke="black" points="113.5,-168.5 113.5,-187.5 220.5,-187.5 220.5,-168.5 113.5,-168.5"/>
<text text-anchor="middle" x="167" y="-175.5" font-family="Helvetica Neue" font-size="10.00">ModuleProcessor.h</text>
</a>
</g>
</g>
<!-- Node1&#45;&gt;Node6 -->
<g id="edge5" class="edge"><title>Node1&#45;&gt;Node6</title>
<path fill="none" stroke="midnightblue" d="M119.158,-224.324C127.501,-216.42 140.032,-204.548 150.177,-194.938"/>
<polygon fill="midnightblue" stroke="midnightblue" points="152.823,-197.252 157.675,-187.834 148.009,-192.171 152.823,-197.252"/>
</g>
<!-- Node3 -->
<g id="node3" class="node"><title>Node3</title>
<g id="a_node3"><a xlink:href="_phi_colours_8h.html" target="_top" xlink:title="PhiColours.h">
<polygon fill="white" stroke="black" points="0,-112.5 0,-131.5 76,-131.5 76,-112.5 0,-112.5"/>
<text text-anchor="middle" x="38" y="-119.5" font-family="Helvetica Neue" font-size="10.00">PhiColours.h</text>
</a>
</g>
</g>
<!-- Node2&#45;&gt;Node3 -->
<g id="edge2" class="edge"><title>Node2&#45;&gt;Node3</title>
<path fill="none" stroke="midnightblue" d="M50.5231,-168.083C48.5135,-160.849 45.6135,-150.409 43.1102,-141.397"/>
<polygon fill="midnightblue" stroke="midnightblue" points="46.4797,-140.449 40.4309,-131.751 39.7351,-142.323 46.4797,-140.449"/>
</g>
<!-- Node4 -->
<g id="node4" class="node"><title>Node4</title>
<g id="a_node4"><a xlink:href="_plug_8h.html" target="_top" xlink:title="Plug.h">
<polygon fill="white" stroke="black" points="112,-56.5 112,-75.5 158,-75.5 158,-56.5 112,-56.5"/>
<text text-anchor="middle" x="135" y="-63.5" font-family="Helvetica Neue" font-size="10.00">Plug.h</text>
</a>
</g>
</g>
<!-- Node2&#45;&gt;Node4 -->
<g id="edge3" class="edge"><title>Node2&#45;&gt;Node4</title>
<path fill="none" stroke="midnightblue" d="M59.4344,-168.368C73.0266,-150.135 104.864,-107.426 122.569,-83.6752"/>
<polygon fill="midnightblue" stroke="midnightblue" points="125.425,-85.7007 128.595,-75.5914 119.813,-81.5171 125.425,-85.7007"/>
</g>
<!-- Node5 -->
<g id="node5" class="node"><title>Node5</title>
<g id="a_node5"><a xlink:href="_plug_handler_8h.html" target="_top" xlink:title="PlugHandler.h">
<polygon fill="white" stroke="black" points="93.5,-0.5 93.5,-19.5 176.5,-19.5 176.5,-0.5 93.5,-0.5"/>
<text text-anchor="middle" x="135" y="-7.5" font-family="Helvetica Neue" font-size="10.00">PlugHandler.h</text>
</a>
</g>
</g>
<!-- Node4&#45;&gt;Node5 -->
<g id="edge4" class="edge"><title>Node4&#45;&gt;Node5</title>
<path fill="none" stroke="midnightblue" d="M135,-56.083C135,-49.0059 135,-38.8611 135,-29.9865"/>
<polygon fill="midnightblue" stroke="midnightblue" points="138.5,-29.751 135,-19.7511 131.5,-29.7511 138.5,-29.751"/>
</g>
<!-- Node7 -->
<g id="node7" class="node"><title>Node7</title>
<g id="a_node7"><a xlink:href="_module_u_i_8h.html" target="_top" xlink:title="ModuleUI.h">
<polygon fill="white" stroke="black" points="132,-112.5 132,-131.5 202,-131.5 202,-112.5 132,-112.5"/>
<text text-anchor="middle" x="167" y="-119.5" font-family="Helvetica Neue" font-size="10.00">ModuleUI.h</text>
</a>
</g>
</g>
<!-- Node6&#45;&gt;Node7 -->
<g id="edge6" class="edge"><title>Node6&#45;&gt;Node7</title>
<path fill="none" stroke="midnightblue" d="M167,-168.083C167,-161.006 167,-150.861 167,-141.986"/>
<polygon fill="midnightblue" stroke="midnightblue" points="170.5,-141.751 167,-131.751 163.5,-141.751 170.5,-141.751"/>
</g>
<!-- Node7&#45;&gt;Node4 -->
<g id="edge7" class="edge"><title>Node7&#45;&gt;Node4</title>
<path fill="none" stroke="midnightblue" d="M161.716,-112.083C157.289,-104.613 150.837,-93.7244 145.382,-84.5199"/>
<polygon fill="midnightblue" stroke="midnightblue" points="148.295,-82.5697 140.186,-75.7511 142.273,-86.1383 148.295,-82.5697"/>
</g>
</g>
</svg>
