<?xml version="1.0" encoding="UTF-8" standalone="no"?>
<!DOCTYPE svg PUBLIC "-//W3C//DTD SVG 1.1//EN"
 "http://www.w3.org/Graphics/SVG/1.1/DTD/svg11.dtd">
<!-- Generated by graphviz version 2.38.0 (20140413.2041)
 -->
<!-- Title: AudioEngine.h Pages: 1 -->
<svg width="271pt" height="196pt"
 viewBox="0.00 0.00 270.50 196.00" xmlns="http://www.w3.org/2000/svg" xmlns:xlink="http://www.w3.org/1999/xlink">
<g id="graph0" class="graph" transform="scale(1 1) rotate(0) translate(4 192)">
<title>AudioEngine.h</title>
<polygon fill="white" stroke="none" points="-4,4 -4,-192 266.5,-192 266.5,4 -4,4"/>
<!-- Node1 -->
<g id="node1" class="node"><title>Node1</title>
<polygon fill="#bfbfbf" stroke="black" points="59.5,-168.5 59.5,-187.5 144.5,-187.5 144.5,-168.5 59.5,-168.5"/>
<text text-anchor="middle" x="102" y="-175.5" font-family="Helvetica Neue" font-size="10.00">AudioEngine.h</text>
</g>
<!-- Node2 -->
<g id="node2" class="node"><title>Node2</title>
<g id="a_node2"><a xlink:href="_audio_engine_8cpp.html" target="_top" xlink:title="AudioEngine.cpp">
<polygon fill="white" stroke="black" points="0,-112.5 0,-131.5 96,-131.5 96,-112.5 0,-112.5"/>
<text text-anchor="middle" x="48" y="-119.5" font-family="Helvetica Neue" font-size="10.00">AudioEngine.cpp</text>
</a>
</g>
</g>
<!-- Node1&#45;&gt;Node2 -->
<g id="edge1" class="edge"><title>Node1&#45;&gt;Node2</title>
<path fill="none" stroke="midnightblue" d="M86.0024,-161.002C76.4329,-151.433 64.6389,-139.639 56.7511,-131.751"/>
<polygon fill="midnightblue" stroke="midnightblue" points="83.537,-163.487 93.083,-168.083 88.4868,-158.537 83.537,-163.487"/>
</g>
<!-- Node3 -->
<g id="node3" class="node"><title>Node3</title>
<g id="a_node3"><a xlink:href="_main_patcher_8h.html" target="_top" xlink:title="MainPatcher.h">
<polygon fill="white" stroke="black" points="114.5,-112.5 114.5,-131.5 197.5,-131.5 197.5,-112.5 114.5,-112.5"/>
<text text-anchor="middle" x="156" y="-119.5" font-family="Helvetica Neue" font-size="10.00">MainPatcher.h</text>
</a>
</g>
</g>
<!-- Node1&#45;&gt;Node3 -->
<g id="edge2" class="edge"><title>Node1&#45;&gt;Node3</title>
<path fill="none" stroke="midnightblue" d="M117.998,-161.002C127.567,-151.433 139.361,-139.639 147.249,-131.751"/>
<polygon fill="midnightblue" stroke="midnightblue" points="115.513,-158.537 110.917,-168.083 120.463,-163.487 115.513,-158.537"/>
</g>
<!-- Node4 -->
<g id="node4" class="node"><title>Node4</title>
<g id="a_node4"><a xlink:href="_main_component_8h.html" target="_top" xlink:title="MainComponent.h">
<polygon fill="white" stroke="black" points="45,-56.5 45,-75.5 149,-75.5 149,-56.5 45,-56.5"/>
<text text-anchor="middle" x="97" y="-63.5" font-family="Helvetica Neue" font-size="10.00">MainComponent.h</text>
</a>
</g>
</g>
<!-- Node3&#45;&gt;Node4 -->
<g id="edge3" class="edge"><title>Node3&#45;&gt;Node4</title>
<path fill="none" stroke="midnightblue" d="M139.105,-105.537C128.585,-95.9087 115.431,-83.8694 106.652,-75.8339"/>
<polygon fill="midnightblue" stroke="midnightblue" points="136.781,-108.154 146.521,-112.324 141.507,-102.99 136.781,-108.154"/>
</g>
<!-- Node7 -->
<g id="node7" class="node"><title>Node7</title>
<g id="a_node7"><a xlink:href="_main_patcher_8cpp.html" target="_top" xlink:title="MainPatcher.cpp">
<polygon fill="white" stroke="black" points="167.5,-56.5 167.5,-75.5 262.5,-75.5 262.5,-56.5 167.5,-56.5"/>
<text text-anchor="middle" x="215" y="-63.5" font-family="Helvetica Neue" font-size="10.00">MainPatcher.cpp</text>
</a>
</g>
</g>
<!-- Node3&#45;&gt;Node7 -->
<g id="edge6" class="edge"><title>Node3&#45;&gt;Node7</title>
<path fill="none" stroke="midnightblue" d="M172.895,-105.537C183.415,-95.9087 196.569,-83.8694 205.348,-75.8339"/>
<polygon fill="midnightblue" stroke="midnightblue" points="170.493,-102.99 165.479,-112.324 175.219,-108.154 170.493,-102.99"/>
</g>
<!-- Node5 -->
<g id="node5" class="node"><title>Node5</title>
<g id="a_node5"><a xlink:href="_main_8cpp.html" target="_top" xlink:title="Main.cpp">
<polygon fill="white" stroke="black" points="14.5,-0.5 14.5,-19.5 73.5,-19.5 73.5,-0.5 14.5,-0.5"/>
<text text-anchor="middle" x="44" y="-7.5" font-family="Helvetica Neue" font-size="10.00">Main.cpp</text>
</a>
</g>
</g>
<!-- Node4&#45;&gt;Node5 -->
<g id="edge4" class="edge"><title>Node4&#45;&gt;Node5</title>
<path fill="none" stroke="midnightblue" d="M81.0191,-48.7175C71.6775,-39.1997 60.2541,-27.5608 52.589,-19.7511"/>
<polygon fill="midnightblue" stroke="midnightblue" points="78.7455,-51.3978 88.2481,-56.083 83.7413,-46.4945 78.7455,-51.3978"/>
</g>
<!-- Node6 -->
<g id="node6" class="node"><title>Node6</title>
<g id="a_node6"><a xlink:href="_main_component_8cpp.html" target="_top" xlink:title="MainComponent.cpp">
<polygon fill="white" stroke="black" points="92,-0.5 92,-19.5 208,-19.5 208,-0.5 92,-0.5"/>
<text text-anchor="middle" x="150" y="-7.5" font-family="Helvetica Neue" font-size="10.00">MainComponent.cpp</text>
</a>
</g>
</g>
<!-- Node4&#45;&gt;Node6 -->
<g id="edge5" class="edge"><title>Node4&#45;&gt;Node6</title>
<path fill="none" stroke="midnightblue" d="M112.981,-48.7175C122.322,-39.1997 133.746,-27.5608 141.411,-19.7511"/>
<polygon fill="midnightblue" stroke="midnightblue" points="110.259,-46.4945 105.752,-56.083 115.254,-51.3978 110.259,-46.4945"/>
</g>
</g>
</svg>
