<?xml version="1.0" encoding="UTF-8" standalone="no"?>
<!DOCTYPE svg PUBLIC "-//W3C//DTD SVG 1.1//EN"
 "http://www.w3.org/Graphics/SVG/1.1/DTD/svg11.dtd">
<!-- Generated by graphviz version 2.38.0 (20140413.2041)
 -->
<!-- Title: Connections.cpp Pages: 1 -->
<svg width="167pt" height="196pt"
 viewBox="0.00 0.00 166.50 196.00" xmlns="http://www.w3.org/2000/svg" xmlns:xlink="http://www.w3.org/1999/xlink">
<g id="graph0" class="graph" transform="scale(1 1) rotate(0) translate(4 192)">
<title>Connections.cpp</title>
<polygon fill="white" stroke="none" points="-4,4 -4,-192 162.5,-192 162.5,4 -4,4"/>
<!-- Node1 -->
<g id="node1" class="node"><title>Node1</title>
<polygon fill="#bfbfbf" stroke="black" points="29,-168.5 29,-187.5 125,-187.5 125,-168.5 29,-168.5"/>
<text text-anchor="middle" x="77" y="-175.5" font-family="Helvetica Neue" font-size="10.00">Connections.cpp</text>
</g>
<!-- Node2 -->
<g id="node2" class="node"><title>Node2</title>
<g id="a_node2"><a xlink:href="_connections_8h.html" target="_top" xlink:title="Connections.h">
<polygon fill="white" stroke="black" points="34.5,-112.5 34.5,-131.5 119.5,-131.5 119.5,-112.5 34.5,-112.5"/>
<text text-anchor="middle" x="77" y="-119.5" font-family="Helvetica Neue" font-size="10.00">Connections.h</text>
</a>
</g>
</g>
<!-- Node1&#45;&gt;Node2 -->
<g id="edge1" class="edge"><title>Node1&#45;&gt;Node2</title>
<path fill="none" stroke="midnightblue" d="M77,-168.083C77,-161.006 77,-150.861 77,-141.986"/>
<polygon fill="midnightblue" stroke="midnightblue" points="80.5001,-141.751 77,-131.751 73.5001,-141.751 80.5001,-141.751"/>
</g>
<!-- Node3 -->
<g id="node3" class="node"><title>Node3</title>
<g id="a_node3"><a xlink:href="_phi_colours_8h.html" target="_top" xlink:title="PhiColours.h">
<polygon fill="white" stroke="black" points="0,-56.5 0,-75.5 76,-75.5 76,-56.5 0,-56.5"/>
<text text-anchor="middle" x="38" y="-63.5" font-family="Helvetica Neue" font-size="10.00">PhiColours.h</text>
</a>
</g>
</g>
<!-- Node2&#45;&gt;Node3 -->
<g id="edge2" class="edge"><title>Node2&#45;&gt;Node3</title>
<path fill="none" stroke="midnightblue" d="M70.5599,-112.083C65.0511,-104.455 56.9688,-93.2645 50.235,-83.9408"/>
<polygon fill="midnightblue" stroke="midnightblue" points="53.0126,-81.8087 44.3202,-75.7511 47.3378,-85.9071 53.0126,-81.8087"/>
</g>
<!-- Node4 -->
<g id="node4" class="node"><title>Node4</title>
<g id="a_node4"><a xlink:href="_plug_8h.html" target="_top" xlink:title="Plug.h">
<polygon fill="white" stroke="black" points="94,-56.5 94,-75.5 140,-75.5 140,-56.5 94,-56.5"/>
<text text-anchor="middle" x="117" y="-63.5" font-family="Helvetica Neue" font-size="10.00">Plug.h</text>
</a>
</g>
</g>
<!-- Node2&#45;&gt;Node4 -->
<g id="edge3" class="edge"><title>Node2&#45;&gt;Node4</title>
<path fill="none" stroke="midnightblue" d="M83.6052,-112.083C89.2552,-104.455 97.5448,-93.2645 104.451,-83.9408"/>
<polygon fill="midnightblue" stroke="midnightblue" points="107.378,-85.87 110.518,-75.7511 101.753,-81.7034 107.378,-85.87"/>
</g>
<!-- Node5 -->
<g id="node5" class="node"><title>Node5</title>
<g id="a_node5"><a xlink:href="_plug_handler_8h.html" target="_top" xlink:title="PlugHandler.h">
<polygon fill="white" stroke="black" points="75.5,-0.5 75.5,-19.5 158.5,-19.5 158.5,-0.5 75.5,-0.5"/>
<text text-anchor="middle" x="117" y="-7.5" font-family="Helvetica Neue" font-size="10.00">PlugHandler.h</text>
</a>
</g>
</g>
<!-- Node4&#45;&gt;Node5 -->
<g id="edge4" class="edge"><title>Node4&#45;&gt;Node5</title>
<path fill="none" stroke="midnightblue" d="M117,-56.083C117,-49.0059 117,-38.8611 117,-29.9865"/>
<polygon fill="midnightblue" stroke="midnightblue" points="120.5,-29.751 117,-19.7511 113.5,-29.7511 120.5,-29.751"/>
</g>
</g>
</svg>
