<?xml version="1.0" encoding="UTF-8" standalone="no"?>
<!DOCTYPE svg PUBLIC "-//W3C//DTD SVG 1.1//EN"
 "http://www.w3.org/Graphics/SVG/1.1/DTD/svg11.dtd">
<!-- Generated by graphviz version 2.38.0 (20140413.2041)
 -->
<!-- Title: Connections.h Pages: 1 -->
<svg width="288pt" height="252pt"
 viewBox="0.00 0.00 288.00 252.00" xmlns="http://www.w3.org/2000/svg" xmlns:xlink="http://www.w3.org/1999/xlink">
<g id="graph0" class="graph" transform="scale(1 1) rotate(0) translate(4 248)">
<title>Connections.h</title>
<polygon fill="white" stroke="none" points="-4,4 -4,-248 284,-248 284,4 -4,4"/>
<!-- Node1 -->
<g id="node1" class="node"><title>Node1</title>
<polygon fill="#bfbfbf" stroke="black" points="113.5,-224.5 113.5,-243.5 198.5,-243.5 198.5,-224.5 113.5,-224.5"/>
<text text-anchor="middle" x="156" y="-231.5" font-family="Helvetica Neue" font-size="10.00">Connections.h</text>
</g>
<!-- Node2 -->
<g id="node2" class="node"><title>Node2</title>
<g id="a_node2"><a xlink:href="_audio_engine_8h.html" target="_top" xlink:title="AudioEngine.h">
<polygon fill="white" stroke="black" points="42.5,-168.5 42.5,-187.5 127.5,-187.5 127.5,-168.5 42.5,-168.5"/>
<text text-anchor="middle" x="85" y="-175.5" font-family="Helvetica Neue" font-size="10.00">AudioEngine.h</text>
</a>
</g>
</g>
<!-- Node1&#45;&gt;Node2 -->
<g id="edge1" class="edge"><title>Node1&#45;&gt;Node2</title>
<path fill="none" stroke="midnightblue" d="M136.41,-218.101C123.632,-208.382 107.387,-196.027 96.6149,-187.834"/>
<polygon fill="midnightblue" stroke="midnightblue" points="134.514,-221.056 144.593,-224.324 138.752,-215.484 134.514,-221.056"/>
</g>
<!-- Node4 -->
<g id="node4" class="node"><title>Node4</title>
<g id="a_node4"><a xlink:href="_main_patcher_8h.html" target="_top" xlink:title="MainPatcher.h">
<polygon fill="white" stroke="black" points="114.5,-112.5 114.5,-131.5 197.5,-131.5 197.5,-112.5 114.5,-112.5"/>
<text text-anchor="middle" x="156" y="-119.5" font-family="Helvetica Neue" font-size="10.00">MainPatcher.h</text>
</a>
</g>
</g>
<!-- Node1&#45;&gt;Node4 -->
<g id="edge9" class="edge"><title>Node1&#45;&gt;Node4</title>
<path fill="none" stroke="midnightblue" d="M156,-214.348C156,-190.254 156,-149.308 156,-131.591"/>
<polygon fill="midnightblue" stroke="midnightblue" points="152.5,-214.368 156,-224.368 159.5,-214.369 152.5,-214.368"/>
</g>
<!-- Node9 -->
<g id="node9" class="node"><title>Node9</title>
<g id="a_node9"><a xlink:href="_connections_8cpp.html" target="_top" xlink:title="Connections.cpp">
<polygon fill="white" stroke="black" points="184,-168.5 184,-187.5 280,-187.5 280,-168.5 184,-168.5"/>
<text text-anchor="middle" x="232" y="-175.5" font-family="Helvetica Neue" font-size="10.00">Connections.cpp</text>
</a>
</g>
</g>
<!-- Node1&#45;&gt;Node9 -->
<g id="edge8" class="edge"><title>Node1&#45;&gt;Node9</title>
<path fill="none" stroke="midnightblue" d="M176.576,-218.38C190.312,-208.62 207.925,-196.106 219.567,-187.834"/>
<polygon fill="midnightblue" stroke="midnightblue" points="174.335,-215.679 168.211,-224.324 178.39,-221.385 174.335,-215.679"/>
</g>
<!-- Node3 -->
<g id="node3" class="node"><title>Node3</title>
<g id="a_node3"><a xlink:href="_audio_engine_8cpp.html" target="_top" xlink:title="AudioEngine.cpp">
<polygon fill="white" stroke="black" points="0,-112.5 0,-131.5 96,-131.5 96,-112.5 0,-112.5"/>
<text text-anchor="middle" x="48" y="-119.5" font-family="Helvetica Neue" font-size="10.00">AudioEngine.cpp</text>
</a>
</g>
</g>
<!-- Node2&#45;&gt;Node3 -->
<g id="edge2" class="edge"><title>Node2&#45;&gt;Node3</title>
<path fill="none" stroke="midnightblue" d="M73.0542,-159.566C66.6883,-150.275 59.1332,-139.248 53.9961,-131.751"/>
<polygon fill="midnightblue" stroke="midnightblue" points="70.3506,-161.812 78.8902,-168.083 76.1251,-157.855 70.3506,-161.812"/>
</g>
<!-- Node2&#45;&gt;Node4 -->
<g id="edge3" class="edge"><title>Node2&#45;&gt;Node4</title>
<path fill="none" stroke="midnightblue" d="M104.59,-162.101C117.368,-152.382 133.613,-140.027 144.385,-131.834"/>
<polygon fill="midnightblue" stroke="midnightblue" points="102.248,-159.484 96.4074,-168.324 106.486,-165.056 102.248,-159.484"/>
</g>
<!-- Node5 -->
<g id="node5" class="node"><title>Node5</title>
<g id="a_node5"><a xlink:href="_main_component_8h.html" target="_top" xlink:title="MainComponent.h">
<polygon fill="white" stroke="black" points="45,-56.5 45,-75.5 149,-75.5 149,-56.5 45,-56.5"/>
<text text-anchor="middle" x="97" y="-63.5" font-family="Helvetica Neue" font-size="10.00">MainComponent.h</text>
</a>
</g>
</g>
<!-- Node4&#45;&gt;Node5 -->
<g id="edge4" class="edge"><title>Node4&#45;&gt;Node5</title>
<path fill="none" stroke="midnightblue" d="M139.105,-105.537C128.585,-95.9087 115.431,-83.8694 106.652,-75.8339"/>
<polygon fill="midnightblue" stroke="midnightblue" points="136.781,-108.154 146.521,-112.324 141.507,-102.99 136.781,-108.154"/>
</g>
<!-- Node8 -->
<g id="node8" class="node"><title>Node8</title>
<g id="a_node8"><a xlink:href="_main_patcher_8cpp.html" target="_top" xlink:title="MainPatcher.cpp">
<polygon fill="white" stroke="black" points="167.5,-56.5 167.5,-75.5 262.5,-75.5 262.5,-56.5 167.5,-56.5"/>
<text text-anchor="middle" x="215" y="-63.5" font-family="Helvetica Neue" font-size="10.00">MainPatcher.cpp</text>
</a>
</g>
</g>
<!-- Node4&#45;&gt;Node8 -->
<g id="edge7" class="edge"><title>Node4&#45;&gt;Node8</title>
<path fill="none" stroke="midnightblue" d="M172.895,-105.537C183.415,-95.9087 196.569,-83.8694 205.348,-75.8339"/>
<polygon fill="midnightblue" stroke="midnightblue" points="170.493,-102.99 165.479,-112.324 175.219,-108.154 170.493,-102.99"/>
</g>
<!-- Node6 -->
<g id="node6" class="node"><title>Node6</title>
<g id="a_node6"><a xlink:href="_main_8cpp.html" target="_top" xlink:title="Main.cpp">
<polygon fill="white" stroke="black" points="14.5,-0.5 14.5,-19.5 73.5,-19.5 73.5,-0.5 14.5,-0.5"/>
<text text-anchor="middle" x="44" y="-7.5" font-family="Helvetica Neue" font-size="10.00">Main.cpp</text>
</a>
</g>
</g>
<!-- Node5&#45;&gt;Node6 -->
<g id="edge5" class="edge"><title>Node5&#45;&gt;Node6</title>
<path fill="none" stroke="midnightblue" d="M81.0191,-48.7175C71.6775,-39.1997 60.2541,-27.5608 52.589,-19.7511"/>
<polygon fill="midnightblue" stroke="midnightblue" points="78.7455,-51.3978 88.2481,-56.083 83.7413,-46.4945 78.7455,-51.3978"/>
</g>
<!-- Node7 -->
<g id="node7" class="node"><title>Node7</title>
<g id="a_node7"><a xlink:href="_main_component_8cpp.html" target="_top" xlink:title="MainComponent.cpp">
<polygon fill="white" stroke="black" points="92,-0.5 92,-19.5 208,-19.5 208,-0.5 92,-0.5"/>
<text text-anchor="middle" x="150" y="-7.5" font-family="Helvetica Neue" font-size="10.00">MainComponent.cpp</text>
</a>
</g>
</g>
<!-- Node5&#45;&gt;Node7 -->
<g id="edge6" class="edge"><title>Node5&#45;&gt;Node7</title>
<path fill="none" stroke="midnightblue" d="M112.981,-48.7175C122.322,-39.1997 133.746,-27.5608 141.411,-19.7511"/>
<polygon fill="midnightblue" stroke="midnightblue" points="110.259,-46.4945 105.752,-56.083 115.254,-51.3978 110.259,-46.4945"/>
</g>
</g>
</svg>
