<?xml version="1.0" encoding="UTF-8" standalone="no"?>
<!DOCTYPE svg PUBLIC "-//W3C//DTD SVG 1.1//EN"
 "http://www.w3.org/Graphics/SVG/1.1/DTD/svg11.dtd">
<!-- Generated by graphviz version 2.43.0 (0)
 -->
<!-- Title: Connections.h Pages: 1 -->
<svg width="270pt" height="302pt"
 viewBox="0.00 0.00 270.27 302.00" xmlns="http://www.w3.org/2000/svg" xmlns:xlink="http://www.w3.org/1999/xlink">
<g id="graph0" class="graph" transform="scale(1 1) rotate(0) translate(4 298)">
<title>Connections.h</title>
<!-- Node1 -->
<g id="Node000001" class="node">
<title>Node1</title>
<g id="a_Node000001"><a xlink:title=" ">
<polygon fill="#999999" stroke="#666666" points="113.27,-294 27.27,-294 27.27,-275 113.27,-275 113.27,-294"/>
<text text-anchor="middle" x="70.27" y="-282" font-family="Helvetica Neue" font-size="10.00">Connections.h</text>
</a>
</g>
</g>
<!-- Node2 -->
<g id="Node000002" class="node">
<title>Node2</title>
<g id="a_Node000002"><a xlink:href="_state_8h.html" target="_top" xlink:title=" ">
<polygon fill="white" stroke="#666666" points="187.27,-239 127.27,-239 127.27,-220 187.27,-220 187.27,-239"/>
<text text-anchor="middle" x="157.27" y="-227" font-family="Helvetica Neue" font-size="10.00">../State.h</text>
</a>
</g>
</g>
<!-- Node1&#45;&gt;Node2 -->
<g id="edge1_Node000001_Node000002" class="edge">
<title>Node1&#45;&gt;Node2</title>
<g id="a_edge1_Node000001_Node000002"><a xlink:title=" ">
<path fill="none" stroke="#63b8ff" d="M84.25,-274.98C97.74,-266.77 118.41,-254.18 134.31,-244.49"/>
<polygon fill="#63b8ff" stroke="#63b8ff" points="136.32,-247.36 143.04,-239.17 132.68,-241.38 136.32,-247.36"/>
</a>
</g>
</g>
<!-- Node5 -->
<g id="Node000005" class="node">
<title>Node5</title>
<g id="a_Node000005"><a xlink:href="_phi_colours_8h.html" target="_top" xlink:title=" ">
<polygon fill="white" stroke="#666666" points="86.77,-129 9.77,-129 9.77,-110 86.77,-110 86.77,-129"/>
<text text-anchor="middle" x="48.27" y="-117" font-family="Helvetica Neue" font-size="10.00">PhiColours.h</text>
</a>
</g>
</g>
<!-- Node1&#45;&gt;Node5 -->
<g id="edge11_Node000001_Node000005" class="edge">
<title>Node1&#45;&gt;Node5</title>
<g id="a_edge11_Node000001_Node000005"><a xlink:title=" ">
<path fill="none" stroke="#63b8ff" d="M61.63,-274.9C46.12,-258.78 14.07,-222.18 2.27,-184 -0.22,-175.93 -1.02,-172.77 2.27,-165 7.25,-153.25 17.02,-143.09 26.28,-135.45"/>
<polygon fill="#63b8ff" stroke="#63b8ff" points="28.67,-138.03 34.49,-129.18 24.42,-132.47 28.67,-138.03"/>
</a>
</g>
</g>
<!-- Node3 -->
<g id="Node000003" class="node">
<title>Node3</title>
<g id="a_Node000003"><a xlink:title=" ">
<polygon fill="#e0e0e0" stroke="#999999" points="262.27,-19 182.27,-19 182.27,0 262.27,0 262.27,-19"/>
<text text-anchor="middle" x="222.27" y="-7" font-family="Helvetica Neue" font-size="10.00">JuceHeader.h</text>
</a>
</g>
</g>
<!-- Node2&#45;&gt;Node3 -->
<g id="edge2_Node000002_Node000003" class="edge">
<title>Node2&#45;&gt;Node3</title>
<g id="a_edge2_Node000002_Node000003"><a xlink:title=" ">
<path fill="none" stroke="#63b8ff" d="M174.78,-219.92C189.24,-212.14 209.54,-199.53 223.27,-184 241.45,-163.45 244.87,-155.67 251.27,-129 259.88,-93.12 243.34,-51.19 231.89,-28.07"/>
<polygon fill="#63b8ff" stroke="#63b8ff" points="234.96,-26.38 227.25,-19.12 228.75,-29.6 234.96,-26.38"/>
</a>
</g>
</g>
<!-- Node4 -->
<g id="Node000004" class="node">
<title>Node4</title>
<g id="a_Node000004"><a xlink:href="_phi_theme_8h.html" target="_top" xlink:title=" ">
<polygon fill="white" stroke="#666666" points="97.27,-184 11.27,-184 11.27,-165 97.27,-165 97.27,-184"/>
<text text-anchor="middle" x="54.27" y="-172" font-family="Helvetica Neue" font-size="10.00">ui/PhiTheme.h</text>
</a>
</g>
</g>
<!-- Node2&#45;&gt;Node4 -->
<g id="edge3_Node000002_Node000004" class="edge">
<title>Node2&#45;&gt;Node4</title>
<g id="a_edge3_Node000002_Node000004"><a xlink:title=" ">
<path fill="none" stroke="#63b8ff" d="M140.72,-219.98C124.38,-211.57 99.14,-198.59 80.14,-188.81"/>
<polygon fill="#63b8ff" stroke="#63b8ff" points="81.61,-185.63 71.12,-184.17 78.41,-191.86 81.61,-185.63"/>
</a>
</g>
</g>
<!-- Node6 -->
<g id="Node000006" class="node">
<title>Node6</title>
<g id="a_Node000006"><a xlink:href="_module_u_i_8h.html" target="_top" xlink:title=" ">
<polygon fill="white" stroke="#666666" points="199.27,-184 115.27,-184 115.27,-165 199.27,-165 199.27,-184"/>
<text text-anchor="middle" x="157.27" y="-172" font-family="Helvetica Neue" font-size="10.00">ui/ModuleUI.h</text>
</a>
</g>
</g>
<!-- Node2&#45;&gt;Node6 -->
<g id="edge5_Node000002_Node000006" class="edge">
<title>Node2&#45;&gt;Node6</title>
<g id="a_edge5_Node000002_Node000006"><a xlink:title=" ">
<path fill="none" stroke="#63b8ff" d="M157.27,-219.75C157.27,-212.8 157.27,-202.85 157.27,-194.13"/>
<polygon fill="#63b8ff" stroke="#63b8ff" points="160.77,-194.09 157.27,-184.09 153.77,-194.09 160.77,-194.09"/>
</a>
</g>
</g>
<!-- Node7 -->
<g id="Node000007" class="node">
<title>Node7</title>
<g id="a_Node000007"><a xlink:href="_module_processor_8h.html" target="_top" xlink:title=" ">
<polygon fill="white" stroke="#666666" points="241.77,-129 104.77,-129 104.77,-110 241.77,-110 241.77,-129"/>
<text text-anchor="middle" x="173.27" y="-117" font-family="Helvetica Neue" font-size="10.00">../dsp/ModuleProcessor.h</text>
</a>
</g>
</g>
<!-- Node2&#45;&gt;Node7 -->
<g id="edge10_Node000002_Node000007" class="edge">
<title>Node2&#45;&gt;Node7</title>
<g id="a_edge10_Node000002_Node000007"><a xlink:title=" ">
<path fill="none" stroke="#63b8ff" d="M173,-219.88C185.15,-212.23 201.07,-199.83 208.27,-184 215.86,-167.3 203.47,-149.03 191.38,-136.39"/>
<polygon fill="#63b8ff" stroke="#63b8ff" points="193.69,-133.76 184.08,-129.32 188.82,-138.79 193.69,-133.76"/>
</a>
</g>
</g>
<!-- Node4&#45;&gt;Node5 -->
<g id="edge4_Node000004_Node000005" class="edge">
<title>Node4&#45;&gt;Node5</title>
<g id="a_edge4_Node000004_Node000005"><a xlink:title=" ">
<path fill="none" stroke="#63b8ff" d="M53.28,-164.75C52.49,-157.8 51.37,-147.85 50.38,-139.13"/>
<polygon fill="#63b8ff" stroke="#63b8ff" points="53.85,-138.63 49.24,-129.09 46.89,-139.42 53.85,-138.63"/>
</a>
</g>
</g>
<!-- Node6&#45;&gt;Node5 -->
<g id="edge6_Node000006_Node000005" class="edge">
<title>Node6&#45;&gt;Node5</title>
<g id="a_edge6_Node000006_Node000005"><a xlink:title=" ">
<path fill="none" stroke="#63b8ff" d="M139.76,-164.98C122.3,-156.5 95.26,-143.35 75.1,-133.54"/>
<polygon fill="#63b8ff" stroke="#63b8ff" points="76.63,-130.4 66.1,-129.17 73.57,-136.69 76.63,-130.4"/>
</a>
</g>
</g>
<!-- Node6&#45;&gt;Node7 -->
<g id="edge7_Node000006_Node000007" class="edge">
<title>Node6&#45;&gt;Node7</title>
<g id="a_edge7_Node000006_Node000007"><a xlink:title=" ">
<path fill="none" stroke="#63b8ff" d="M159.91,-164.75C162.03,-157.72 165.08,-147.62 167.73,-138.84"/>
<polygon fill="#63b8ff" stroke="#63b8ff" points="171.14,-139.67 170.68,-129.09 164.44,-137.65 171.14,-139.67"/>
</a>
</g>
</g>
<!-- Node8 -->
<g id="Node000008" class="node">
<title>Node8</title>
<g id="a_Node000008"><a xlink:href="_utils_8h.html" target="_top" xlink:title=" ">
<polygon fill="white" stroke="#666666" points="220.27,-74 172.27,-74 172.27,-55 220.27,-55 220.27,-74"/>
<text text-anchor="middle" x="196.27" y="-62" font-family="Helvetica Neue" font-size="10.00">Utils.h</text>
</a>
</g>
</g>
<!-- Node7&#45;&gt;Node8 -->
<g id="edge8_Node000007_Node000008" class="edge">
<title>Node7&#45;&gt;Node8</title>
<g id="a_edge8_Node000007_Node000008"><a xlink:title=" ">
<path fill="none" stroke="#63b8ff" d="M177.07,-109.75C180.18,-102.57 184.69,-92.18 188.56,-83.27"/>
<polygon fill="#63b8ff" stroke="#63b8ff" points="191.77,-84.66 192.54,-74.09 185.35,-81.87 191.77,-84.66"/>
</a>
</g>
</g>
<!-- Node8&#45;&gt;Node3 -->
<g id="edge9_Node000008_Node000003" class="edge">
<title>Node8&#45;&gt;Node3</title>
<g id="a_edge9_Node000008_Node000003"><a xlink:title=" ">
<path fill="none" stroke="#63b8ff" d="M200.56,-54.75C204.09,-47.57 209.18,-37.18 213.55,-28.27"/>
<polygon fill="#63b8ff" stroke="#63b8ff" points="216.8,-29.61 218.06,-19.09 210.51,-26.53 216.8,-29.61"/>
</a>
</g>
</g>
</g>
</svg>
