<?xml version="1.0" encoding="UTF-8" standalone="no"?>
<!DOCTYPE svg PUBLIC "-//W3C//DTD SVG 1.1//EN"
 "http://www.w3.org/Graphics/SVG/1.1/DTD/svg11.dtd">
<!-- Generated by graphviz version 2.43.0 (0)
 -->
<!-- Title: Connections.h Pages: 1 -->
<svg width="410pt" height="192pt"
 viewBox="0.00 0.00 409.50 192.00" xmlns="http://www.w3.org/2000/svg" xmlns:xlink="http://www.w3.org/1999/xlink">
<g id="graph0" class="graph" transform="scale(1 1) rotate(0) translate(4 188)">
<title>Connections.h</title>
<!-- Node1 -->
<g id="Node000001" class="node">
<title>Node1</title>
<g id="a_Node000001"><a xlink:title=" ">
<polygon fill="#999999" stroke="#666666" points="120.5,-184 34.5,-184 34.5,-165 120.5,-165 120.5,-184"/>
<text text-anchor="middle" x="77.5" y="-172" font-family="Helvetica Neue" font-size="10.00">Connections.h</text>
</a>
</g>
</g>
<!-- Node2 -->
<g id="Node000002" class="node">
<title>Node2</title>
<g id="a_Node000002"><a xlink:href="_connections_8cpp.html" target="_top" xlink:title=" ">
<polygon fill="white" stroke="#666666" points="97,-19 0,-19 0,0 97,0 97,-19"/>
<text text-anchor="middle" x="48.5" y="-7" font-family="Helvetica Neue" font-size="10.00">Connections.cpp</text>
</a>
</g>
</g>
<!-- Node1&#45;&gt;Node2 -->
<g id="edge1_Node000001_Node000002" class="edge">
<title>Node1&#45;&gt;Node2</title>
<g id="a_edge1_Node000001_Node000002"><a xlink:title=" ">
<path fill="none" stroke="#63b8ff" d="M74.18,-154.83C67.92,-119.67 54.62,-44.9 50.07,-19.31"/>
<polygon fill="#63b8ff" stroke="#63b8ff" points="70.74,-155.5 75.94,-164.74 77.64,-154.28 70.74,-155.5"/>
</a>
</g>
</g>
<!-- Node3 -->
<g id="Node000003" class="node">
<title>Node3</title>
<g id="a_Node000003"><a xlink:href="_patcher_8h.html" target="_top" xlink:title=" ">
<polygon fill="white" stroke="#666666" points="168,-129 107,-129 107,-110 168,-110 168,-129"/>
<text text-anchor="middle" x="137.5" y="-117" font-family="Helvetica Neue" font-size="10.00">Patcher.h</text>
</a>
</g>
</g>
<!-- Node1&#45;&gt;Node3 -->
<g id="edge2_Node000001_Node000003" class="edge">
<title>Node1&#45;&gt;Node3</title>
<g id="a_edge2_Node000001_Node000003"><a xlink:title=" ">
<path fill="none" stroke="#63b8ff" d="M94.68,-158.32C105.38,-148.87 118.76,-137.06 127.68,-129.17"/>
<polygon fill="#63b8ff" stroke="#63b8ff" points="92.32,-155.74 87.14,-164.98 96.95,-160.99 92.32,-155.74"/>
</a>
</g>
</g>
<!-- Node3&#45;&gt;Node2 -->
<g id="edge3_Node000003_Node000002" class="edge">
<title>Node3&#45;&gt;Node2</title>
<g id="a_edge3_Node000003_Node000002"><a xlink:title=" ">
<path fill="none" stroke="#63b8ff" d="M123.65,-101.69C104.43,-78.37 70.38,-37.05 55.64,-19.16"/>
<polygon fill="#63b8ff" stroke="#63b8ff" points="121.16,-104.17 130.22,-109.66 126.56,-99.72 121.16,-104.17"/>
</a>
</g>
</g>
<!-- Node4 -->
<g id="Node000004" class="node">
<title>Node4</title>
<g id="a_Node000004"><a xlink:href="_main_component_8h.html" target="_top" xlink:title=" ">
<polygon fill="white" stroke="#666666" points="220.5,-74 114.5,-74 114.5,-55 220.5,-55 220.5,-74"/>
<text text-anchor="middle" x="167.5" y="-62" font-family="Helvetica Neue" font-size="10.00">MainComponent.h</text>
</a>
</g>
</g>
<!-- Node3&#45;&gt;Node4 -->
<g id="edge4_Node000003_Node000004" class="edge">
<title>Node3&#45;&gt;Node4</title>
<g id="a_edge4_Node000003_Node000004"><a xlink:title=" ">
<path fill="none" stroke="#63b8ff" d="M147.51,-100.82C152.6,-91.82 158.56,-81.29 162.64,-74.09"/>
<polygon fill="#63b8ff" stroke="#63b8ff" points="144.33,-99.32 142.45,-109.75 150.43,-102.77 144.33,-99.32"/>
</a>
</g>
</g>
<!-- Node7 -->
<g id="Node000007" class="node">
<title>Node7</title>
<g id="a_Node000007"><a xlink:href="_patcher_8cpp.html" target="_top" xlink:title=" ">
<polygon fill="white" stroke="#666666" points="401.5,-19 329.5,-19 329.5,0 401.5,0 401.5,-19"/>
<text text-anchor="middle" x="365.5" y="-7" font-family="Helvetica Neue" font-size="10.00">Patcher.cpp</text>
</a>
</g>
</g>
<!-- Node3&#45;&gt;Node7 -->
<g id="edge9_Node000003_Node000007" class="edge">
<title>Node3&#45;&gt;Node7</title>
<g id="a_edge9_Node000003_Node000007"><a xlink:title=" ">
<path fill="none" stroke="#63b8ff" d="M165.1,-105.43C212.41,-83.02 307.71,-37.87 347.46,-19.05"/>
<polygon fill="#63b8ff" stroke="#63b8ff" points="163.31,-102.4 155.77,-109.84 166.31,-108.73 163.31,-102.4"/>
</a>
</g>
</g>
<!-- Node4&#45;&gt;Node2 -->
<g id="edge5_Node000004_Node000002" class="edge">
<title>Node4&#45;&gt;Node2</title>
<g id="a_edge5_Node000004_Node000002"><a xlink:title=" ">
<path fill="none" stroke="#63b8ff" d="M139.2,-50.9C117.22,-41.11 87.32,-27.79 67.97,-19.17"/>
<polygon fill="#63b8ff" stroke="#63b8ff" points="137.82,-54.11 148.38,-54.98 140.67,-47.72 137.82,-54.11"/>
</a>
</g>
</g>
<!-- Node5 -->
<g id="Node000005" class="node">
<title>Node5</title>
<g id="a_Node000005"><a xlink:href="_main_8cpp.html" target="_top" xlink:title=" ">
<polygon fill="white" stroke="#666666" points="176,-19 115,-19 115,0 176,0 176,-19"/>
<text text-anchor="middle" x="145.5" y="-7" font-family="Helvetica Neue" font-size="10.00">Main.cpp</text>
</a>
</g>
</g>
<!-- Node4&#45;&gt;Node5 -->
<g id="edge6_Node000004_Node000005" class="edge">
<title>Node4&#45;&gt;Node5</title>
<g id="a_edge6_Node000004_Node000005"><a xlink:title=" ">
<path fill="none" stroke="#63b8ff" d="M159.92,-45.24C156.24,-36.37 151.99,-26.14 149.07,-19.09"/>
<polygon fill="#63b8ff" stroke="#63b8ff" points="156.8,-46.85 163.87,-54.75 163.27,-44.17 156.8,-46.85"/>
</a>
</g>
</g>
<!-- Node6 -->
<g id="Node000006" class="node">
<title>Node6</title>
<g id="a_Node000006"><a xlink:href="_main_component_8cpp.html" target="_top" xlink:title=" ">
<polygon fill="white" stroke="#666666" points="311,-19 194,-19 194,0 311,0 311,-19"/>
<text text-anchor="middle" x="252.5" y="-7" font-family="Helvetica Neue" font-size="10.00">MainComponent.cpp</text>
</a>
</g>
</g>
<!-- Node4&#45;&gt;Node6 -->
<g id="edge7_Node000004_Node000006" class="edge">
<title>Node4&#45;&gt;Node6</title>
<g id="a_edge7_Node000004_Node000006"><a xlink:title=" ">
<path fill="none" stroke="#63b8ff" d="M190.07,-49.42C205.5,-39.81 225.45,-27.37 238.59,-19.17"/>
<polygon fill="#63b8ff" stroke="#63b8ff" points="187.79,-46.72 181.16,-54.98 191.49,-52.66 187.79,-46.72"/>
</a>
</g>
</g>
<!-- Node4&#45;&gt;Node7 -->
<g id="edge8_Node000004_Node000007" class="edge">
<title>Node4&#45;&gt;Node7</title>
<g id="a_edge8_Node000004_Node000007"><a xlink:title=" ">
<path fill="none" stroke="#63b8ff" d="M209.3,-52.31C246.35,-42.39 299.67,-28.12 333.44,-19.08"/>
<polygon fill="#63b8ff" stroke="#63b8ff" points="208.07,-49.02 199.31,-54.98 209.88,-55.78 208.07,-49.02"/>
</a>
</g>
</g>
</g>
</svg>
