<?xml version="1.0" encoding="UTF-8" standalone="no"?>
<!DOCTYPE svg PUBLIC "-//W3C//DTD SVG 1.1//EN"
 "http://www.w3.org/Graphics/SVG/1.1/DTD/svg11.dtd">
<!-- Generated by graphviz version 2.43.0 (0)
 -->
<!-- Title: Connections.cpp Pages: 1 -->
<svg width="1792pt" height="533pt"
 viewBox="0.00 0.00 1792.37 533.00" xmlns="http://www.w3.org/2000/svg" xmlns:xlink="http://www.w3.org/1999/xlink">
<g id="graph0" class="graph" transform="scale(1 1) rotate(0) translate(4 529)">
<title>Connections.cpp</title>
<!-- Node1 -->
<g id="Node000001" class="node">
<title>Node1</title>
<g id="a_Node000001"><a xlink:title=" ">
<polygon fill="#999999" stroke="#666666" points="1613,-525 1516,-525 1516,-506 1613,-506 1613,-525"/>
<text text-anchor="middle" x="1564.5" y="-513" font-family="Helvetica Neue" font-size="10.00">Connections.cpp</text>
</a>
</g>
</g>
<!-- Node2 -->
<g id="Node000002" class="node">
<title>Node2</title>
<g id="a_Node000002"><a xlink:href="_connections_8h.html" target="_top" xlink:title=" ">
<polygon fill="white" stroke="#666666" points="1717.5,-360 1631.5,-360 1631.5,-341 1717.5,-341 1717.5,-360"/>
<text text-anchor="middle" x="1674.5" y="-348" font-family="Helvetica Neue" font-size="10.00">Connections.h</text>
</a>
</g>
</g>
<!-- Node1&#45;&gt;Node2 -->
<g id="edge1_Node000001_Node000002" class="edge">
<title>Node1&#45;&gt;Node2</title>
<g id="a_edge1_Node000001_Node000002"><a xlink:title=" ">
<path fill="none" stroke="#63b8ff" d="M1580.71,-505.89C1594.33,-498.01 1613.58,-485.27 1626.5,-470 1651.74,-440.17 1664.97,-395.33 1670.76,-370.23"/>
<polygon fill="#63b8ff" stroke="#63b8ff" points="1674.24,-370.72 1672.92,-360.21 1667.4,-369.25 1674.24,-370.72"/>
</a>
</g>
</g>
<!-- Node10 -->
<g id="Node000010" class="node">
<title>Node10</title>
<g id="a_Node000010"><a xlink:href="_patcher_8h.html" target="_top" xlink:title=" ">
<polygon fill="white" stroke="#666666" points="1461,-415 1400,-415 1400,-396 1461,-396 1461,-415"/>
<text text-anchor="middle" x="1430.5" y="-403" font-family="Helvetica Neue" font-size="10.00">Patcher.h</text>
</a>
</g>
</g>
<!-- Node1&#45;&gt;Node10 -->
<g id="edge13_Node000001_Node000010" class="edge">
<title>Node1&#45;&gt;Node10</title>
<g id="a_edge13_Node000001_Node000010"><a xlink:title=" ">
<path fill="none" stroke="#63b8ff" d="M1551.88,-505.99C1539.15,-497.29 1519.08,-483.21 1502.5,-470 1482.88,-454.37 1461.45,-435.18 1447.12,-422.01"/>
<polygon fill="#63b8ff" stroke="#63b8ff" points="1449.28,-419.24 1439.56,-415.02 1444.53,-424.38 1449.28,-419.24"/>
</a>
</g>
</g>
<!-- Node37 -->
<g id="Node000037" class="node">
<title>Node37</title>
<g id="a_Node000037"><a xlink:href="_main_component_8h.html" target="_top" xlink:title=" ">
<polygon fill="white" stroke="#666666" points="1617.5,-470 1511.5,-470 1511.5,-451 1617.5,-451 1617.5,-470"/>
<text text-anchor="middle" x="1564.5" y="-458" font-family="Helvetica Neue" font-size="10.00">MainComponent.h</text>
</a>
</g>
</g>
<!-- Node1&#45;&gt;Node37 -->
<g id="edge74_Node000001_Node000037" class="edge">
<title>Node1&#45;&gt;Node37</title>
<g id="a_edge74_Node000001_Node000037"><a xlink:title=" ">
<path fill="none" stroke="#63b8ff" d="M1564.5,-505.75C1564.5,-498.8 1564.5,-488.85 1564.5,-480.13"/>
<polygon fill="#63b8ff" stroke="#63b8ff" points="1568,-480.09 1564.5,-470.09 1561,-480.09 1568,-480.09"/>
</a>
</g>
</g>
<!-- Node3 -->
<g id="Node000003" class="node">
<title>Node3</title>
<g id="a_Node000003"><a xlink:href="_state_8h.html" target="_top" xlink:title=" ">
<polygon fill="white" stroke="#666666" points="1577.5,-250 1517.5,-250 1517.5,-231 1577.5,-231 1577.5,-250"/>
<text text-anchor="middle" x="1547.5" y="-238" font-family="Helvetica Neue" font-size="10.00">../State.h</text>
</a>
</g>
</g>
<!-- Node2&#45;&gt;Node3 -->
<g id="edge2_Node000002_Node000003" class="edge">
<title>Node2&#45;&gt;Node3</title>
<g id="a_edge2_Node000002_Node000003"><a xlink:title=" ">
<path fill="none" stroke="#63b8ff" d="M1667.79,-340.59C1657.76,-327.63 1637.85,-303.24 1617.5,-286 1603.66,-274.28 1586.5,-263.32 1572.63,-255.21"/>
<polygon fill="#63b8ff" stroke="#63b8ff" points="1574.06,-252 1563.64,-250.08 1570.59,-258.07 1574.06,-252"/>
</a>
</g>
</g>
<!-- Node6 -->
<g id="Node000006" class="node">
<title>Node6</title>
<g id="a_Node000006"><a xlink:href="_phi_colours_8h.html" target="_top" xlink:title=" ">
<polygon fill="white" stroke="#666666" points="1598,-129 1521,-129 1521,-110 1598,-110 1598,-129"/>
<text text-anchor="middle" x="1559.5" y="-117" font-family="Helvetica Neue" font-size="10.00">PhiColours.h</text>
</a>
</g>
</g>
<!-- Node2&#45;&gt;Node6 -->
<g id="edge12_Node000002_Node000006" class="edge">
<title>Node2&#45;&gt;Node6</title>
<g id="a_edge12_Node000002_Node000006"><a xlink:title=" ">
<path fill="none" stroke="#63b8ff" d="M1717.53,-341.92C1753.08,-333.37 1795.58,-316.5 1781.5,-286 1744.21,-205.22 1644.81,-154.74 1592.59,-132.97"/>
<polygon fill="#63b8ff" stroke="#63b8ff" points="1593.7,-129.64 1583.11,-129.12 1591.06,-136.13 1593.7,-129.64"/>
</a>
</g>
</g>
<!-- Node4 -->
<g id="Node000004" class="node">
<title>Node4</title>
<g id="a_Node000004"><a xlink:title=" ">
<polygon fill="#e0e0e0" stroke="#999999" points="1324.5,-19 1244.5,-19 1244.5,0 1324.5,0 1324.5,-19"/>
<text text-anchor="middle" x="1284.5" y="-7" font-family="Helvetica Neue" font-size="10.00">JuceHeader.h</text>
</a>
</g>
</g>
<!-- Node3&#45;&gt;Node4 -->
<g id="edge3_Node000003_Node000004" class="edge">
<title>Node3&#45;&gt;Node4</title>
<g id="a_edge3_Node000003_Node000004"><a xlink:title=" ">
<path fill="none" stroke="#63b8ff" d="M1539.8,-230.99C1531.73,-222.06 1518.68,-207.58 1507.5,-195 1452.48,-133.09 1451.21,-104.08 1384.5,-55 1365.51,-41.03 1341.45,-30.15 1321.68,-22.65"/>
<polygon fill="#63b8ff" stroke="#63b8ff" points="1322.67,-19.28 1312.08,-19.13 1320.27,-25.86 1322.67,-19.28"/>
</a>
</g>
</g>
<!-- Node5 -->
<g id="Node000005" class="node">
<title>Node5</title>
<g id="a_Node000005"><a xlink:href="_phi_theme_8h.html" target="_top" xlink:title=" ">
<polygon fill="white" stroke="#666666" points="1602.5,-189.5 1516.5,-189.5 1516.5,-170.5 1602.5,-170.5 1602.5,-189.5"/>
<text text-anchor="middle" x="1559.5" y="-177.5" font-family="Helvetica Neue" font-size="10.00">ui/PhiTheme.h</text>
</a>
</g>
</g>
<!-- Node3&#45;&gt;Node5 -->
<g id="edge4_Node000003_Node000005" class="edge">
<title>Node3&#45;&gt;Node5</title>
<g id="a_edge4_Node000003_Node000005"><a xlink:title=" ">
<path fill="none" stroke="#63b8ff" d="M1549.27,-230.87C1550.95,-222.66 1553.54,-210.04 1555.69,-199.55"/>
<polygon fill="#63b8ff" stroke="#63b8ff" points="1559.14,-200.17 1557.72,-189.67 1552.28,-198.76 1559.14,-200.17"/>
</a>
</g>
</g>
<!-- Node7 -->
<g id="Node000007" class="node">
<title>Node7</title>
<g id="a_Node000007"><a xlink:href="_module_u_i_8h.html" target="_top" xlink:title=" ">
<polygon fill="white" stroke="#666666" points="853.5,-189.5 769.5,-189.5 769.5,-170.5 853.5,-170.5 853.5,-189.5"/>
<text text-anchor="middle" x="811.5" y="-177.5" font-family="Helvetica Neue" font-size="10.00">ui/ModuleUI.h</text>
</a>
</g>
</g>
<!-- Node3&#45;&gt;Node7 -->
<g id="edge6_Node000003_Node000007" class="edge">
<title>Node3&#45;&gt;Node7</title>
<g id="a_edge6_Node000003_Node000007"><a xlink:title=" ">
<path fill="none" stroke="#63b8ff" d="M1517.28,-237.1C1404.59,-228.14 1008.06,-196.62 864.17,-185.19"/>
<polygon fill="#63b8ff" stroke="#63b8ff" points="864.09,-181.67 853.85,-184.37 863.54,-188.65 864.09,-181.67"/>
</a>
</g>
</g>
<!-- Node8 -->
<g id="Node000008" class="node">
<title>Node8</title>
<g id="a_Node000008"><a xlink:href="_module_processor_8h.html" target="_top" xlink:title=" ">
<polygon fill="white" stroke="#666666" points="880,-129 743,-129 743,-110 880,-110 880,-129"/>
<text text-anchor="middle" x="811.5" y="-117" font-family="Helvetica Neue" font-size="10.00">../dsp/ModuleProcessor.h</text>
</a>
</g>
</g>
<!-- Node3&#45;&gt;Node8 -->
<g id="edge11_Node000003_Node000008" class="edge">
<title>Node3&#45;&gt;Node8</title>
<g id="a_edge11_Node000003_Node000008"><a xlink:title=" ">
<path fill="none" stroke="#63b8ff" d="M1517.31,-233.98C1447.2,-221.22 1267.89,-188.96 1117.5,-165 1037.53,-152.26 945.55,-139.08 883.49,-130.41"/>
<polygon fill="#63b8ff" stroke="#63b8ff" points="883.79,-126.92 873.41,-129 882.83,-133.85 883.79,-126.92"/>
</a>
</g>
</g>
<!-- Node5&#45;&gt;Node6 -->
<g id="edge5_Node000005_Node000006" class="edge">
<title>Node5&#45;&gt;Node6</title>
<g id="a_edge5_Node000005_Node000006"><a xlink:title=" ">
<path fill="none" stroke="#63b8ff" d="M1559.5,-170.37C1559.5,-162.25 1559.5,-149.81 1559.5,-139.39"/>
<polygon fill="#63b8ff" stroke="#63b8ff" points="1563,-139.17 1559.5,-129.17 1556,-139.17 1563,-139.17"/>
</a>
</g>
</g>
<!-- Node7&#45;&gt;Node6 -->
<g id="edge7_Node000007_Node000006" class="edge">
<title>Node7&#45;&gt;Node6</title>
<g id="a_edge7_Node000007_Node000006"><a xlink:title=" ">
<path fill="none" stroke="#63b8ff" d="M853.59,-175.71C982.67,-165.61 1372.53,-135.12 1510.48,-124.33"/>
<polygon fill="#63b8ff" stroke="#63b8ff" points="1511.04,-127.8 1520.74,-123.53 1510.5,-120.82 1511.04,-127.8"/>
</a>
</g>
</g>
<!-- Node7&#45;&gt;Node8 -->
<g id="edge8_Node000007_Node000008" class="edge">
<title>Node7&#45;&gt;Node8</title>
<g id="a_edge8_Node000007_Node000008"><a xlink:title=" ">
<path fill="none" stroke="#63b8ff" d="M811.5,-170.37C811.5,-162.25 811.5,-149.81 811.5,-139.39"/>
<polygon fill="#63b8ff" stroke="#63b8ff" points="815,-139.17 811.5,-129.17 808,-139.17 815,-139.17"/>
</a>
</g>
</g>
<!-- Node9 -->
<g id="Node000009" class="node">
<title>Node9</title>
<g id="a_Node000009"><a xlink:href="_utils_8h.html" target="_top" xlink:title=" ">
<polygon fill="white" stroke="#666666" points="1194.5,-74 1146.5,-74 1146.5,-55 1194.5,-55 1194.5,-74"/>
<text text-anchor="middle" x="1170.5" y="-62" font-family="Helvetica Neue" font-size="10.00">Utils.h</text>
</a>
</g>
</g>
<!-- Node8&#45;&gt;Node9 -->
<g id="edge9_Node000008_Node000009" class="edge">
<title>Node8&#45;&gt;Node9</title>
<g id="a_edge9_Node000008_Node000009"><a xlink:title=" ">
<path fill="none" stroke="#63b8ff" d="M869.18,-109.98C944.69,-98.84 1074.65,-79.65 1136.23,-70.56"/>
<polygon fill="#63b8ff" stroke="#63b8ff" points="1136.82,-74.01 1146.21,-69.09 1135.8,-67.08 1136.82,-74.01"/>
</a>
</g>
</g>
<!-- Node9&#45;&gt;Node4 -->
<g id="edge10_Node000009_Node000004" class="edge">
<title>Node9&#45;&gt;Node4</title>
<g id="a_edge10_Node000009_Node000004"><a xlink:title=" ">
<path fill="none" stroke="#63b8ff" d="M1188.82,-54.98C1207.16,-46.46 1235.61,-33.23 1256.73,-23.41"/>
<polygon fill="#63b8ff" stroke="#63b8ff" points="1258.26,-26.56 1265.85,-19.17 1255.31,-20.21 1258.26,-26.56"/>
</a>
</g>
</g>
<!-- Node10&#45;&gt;Node2 -->
<g id="edge25_Node000010_Node000002" class="edge">
<title>Node10&#45;&gt;Node2</title>
<g id="a_edge25_Node000010_Node000002"><a xlink:title=" ">
<path fill="none" stroke="#63b8ff" d="M1461.4,-397.79C1502.59,-388.84 1575.95,-372.91 1624.92,-362.27"/>
<polygon fill="#63b8ff" stroke="#63b8ff" points="1625.95,-365.63 1634.98,-360.09 1624.46,-358.79 1625.95,-365.63"/>
</a>
</g>
</g>
<!-- Node10&#45;&gt;Node3 -->
<g id="edge14_Node000010_Node000003" class="edge">
<title>Node10&#45;&gt;Node3</title>
<g id="a_edge14_Node000010_Node000003"><a xlink:title=" ">
<path fill="none" stroke="#63b8ff" d="M1436.79,-395.74C1455.44,-369.76 1510.66,-292.83 1535.34,-258.44"/>
<polygon fill="#63b8ff" stroke="#63b8ff" points="1538.19,-260.47 1541.18,-250.31 1532.5,-256.39 1538.19,-260.47"/>
</a>
</g>
</g>
<!-- Node11 -->
<g id="Node000011" class="node">
<title>Node11</title>
<g id="a_Node000011"><a xlink:href="_module_box_8h.html" target="_top" xlink:title=" ">
<polygon fill="white" stroke="#666666" points="1420.5,-360 1340.5,-360 1340.5,-341 1420.5,-341 1420.5,-360"/>
<text text-anchor="middle" x="1380.5" y="-348" font-family="Helvetica Neue" font-size="10.00">ModuleBox.h</text>
</a>
</g>
</g>
<!-- Node10&#45;&gt;Node11 -->
<g id="edge15_Node000010_Node000011" class="edge">
<title>Node10&#45;&gt;Node11</title>
<g id="a_edge15_Node000010_Node000011"><a xlink:title=" ">
<path fill="none" stroke="#63b8ff" d="M1422.24,-395.75C1415.04,-388.11 1404.39,-376.82 1395.65,-367.56"/>
<polygon fill="#63b8ff" stroke="#63b8ff" points="1398.01,-364.96 1388.6,-360.09 1392.92,-369.76 1398.01,-364.96"/>
</a>
</g>
</g>
<!-- Node16 -->
<g id="Node000016" class="node">
<title>Node16</title>
<g id="a_Node000016"><a xlink:href="_modules_8h.html" target="_top" xlink:title=" ">
<polygon fill="white" stroke="#666666" points="719,-360 598,-360 598,-341 719,-341 719,-360"/>
<text text-anchor="middle" x="658.5" y="-348" font-family="Helvetica Neue" font-size="10.00">../modules/Modules.h</text>
</a>
</g>
</g>
<!-- Node10&#45;&gt;Node16 -->
<g id="edge26_Node000010_Node000016" class="edge">
<title>Node10&#45;&gt;Node16</title>
<g id="a_edge26_Node000010_Node000016"><a xlink:title=" ">
<path fill="none" stroke="#63b8ff" d="M1399.76,-402.39C1286.7,-394.63 892.11,-367.54 729.44,-356.37"/>
<polygon fill="#63b8ff" stroke="#63b8ff" points="729.28,-352.85 719.06,-355.66 728.8,-359.83 729.28,-352.85"/>
</a>
</g>
</g>
<!-- Node11&#45;&gt;Node7 -->
<g id="edge20_Node000011_Node000007" class="edge">
<title>Node11&#45;&gt;Node7</title>
<g id="a_edge20_Node000011_Node000007"><a xlink:title=" ">
<path fill="none" stroke="#63b8ff" d="M1340.36,-340.96C1306.72,-333.25 1257.71,-320.71 1216.5,-305 1198.86,-298.27 1195.98,-293.13 1178.5,-286 1104.58,-255.84 1084.21,-253.1 1007.5,-231 956.59,-216.33 897.61,-201.59 857.76,-191.95"/>
<polygon fill="#63b8ff" stroke="#63b8ff" points="858.35,-188.49 847.8,-189.55 856.71,-195.3 858.35,-188.49"/>
</a>
</g>
</g>
<!-- Node12 -->
<g id="Node000012" class="node">
<title>Node12</title>
<g id="a_Node000012"><a xlink:href="_port_u_i_8h.html" target="_top" xlink:title=" ">
<polygon fill="white" stroke="#666666" points="1281.5,-305 1225.5,-305 1225.5,-286 1281.5,-286 1281.5,-305"/>
<text text-anchor="middle" x="1253.5" y="-293" font-family="Helvetica Neue" font-size="10.00">PortUI.h</text>
</a>
</g>
</g>
<!-- Node11&#45;&gt;Node12 -->
<g id="edge16_Node000011_Node000012" class="edge">
<title>Node11&#45;&gt;Node12</title>
<g id="a_edge16_Node000011_Node000012"><a xlink:title=" ">
<path fill="none" stroke="#63b8ff" d="M1360.1,-340.98C1339.48,-332.38 1307.39,-318.99 1283.81,-309.15"/>
<polygon fill="#63b8ff" stroke="#63b8ff" points="1284.85,-305.79 1274.28,-305.17 1282.16,-312.25 1284.85,-305.79"/>
</a>
</g>
</g>
<!-- Node14 -->
<g id="Node000014" class="node">
<title>Node14</title>
<g id="a_Node000014"><a xlink:href="_phi_look_and_feel_8h.html" target="_top" xlink:title=" ">
<polygon fill="white" stroke="#666666" points="1773,-305 1670,-305 1670,-286 1773,-286 1773,-305"/>
<text text-anchor="middle" x="1721.5" y="-293" font-family="Helvetica Neue" font-size="10.00">PhiLookAndFeel.h</text>
</a>
</g>
</g>
<!-- Node11&#45;&gt;Node14 -->
<g id="edge21_Node000011_Node000014" class="edge">
<title>Node11&#45;&gt;Node14</title>
<g id="a_edge21_Node000011_Node000014"><a xlink:title=" ">
<path fill="none" stroke="#63b8ff" d="M1420.62,-343.26C1479.69,-334.08 1590.54,-316.86 1659.94,-306.07"/>
<polygon fill="#63b8ff" stroke="#63b8ff" points="1660.53,-309.52 1669.87,-304.52 1659.45,-302.6 1660.53,-309.52"/>
</a>
</g>
</g>
<!-- Node15 -->
<g id="Node000015" class="node">
<title>Node15</title>
<g id="a_Node000015"><a xlink:href="_phi_toggle_button_8h.html" target="_top" xlink:title=" ">
<polygon fill="white" stroke="#666666" points="1461.5,-305 1299.5,-305 1299.5,-286 1461.5,-286 1461.5,-305"/>
<text text-anchor="middle" x="1380.5" y="-293" font-family="Helvetica Neue" font-size="10.00">component/PhiToggleButton.h</text>
</a>
</g>
</g>
<!-- Node11&#45;&gt;Node15 -->
<g id="edge24_Node000011_Node000015" class="edge">
<title>Node11&#45;&gt;Node15</title>
<g id="a_edge24_Node000011_Node000015"><a xlink:title=" ">
<path fill="none" stroke="#63b8ff" d="M1380.5,-340.75C1380.5,-333.8 1380.5,-323.85 1380.5,-315.13"/>
<polygon fill="#63b8ff" stroke="#63b8ff" points="1384,-315.09 1380.5,-305.09 1377,-315.09 1384,-315.09"/>
</a>
</g>
</g>
<!-- Node12&#45;&gt;Node3 -->
<g id="edge17_Node000012_Node000003" class="edge">
<title>Node12&#45;&gt;Node3</title>
<g id="a_edge17_Node000012_Node000003"><a xlink:title=" ">
<path fill="none" stroke="#63b8ff" d="M1281.75,-287.84C1284.7,-287.2 1287.66,-286.57 1290.5,-286 1366.92,-270.62 1456.77,-255.8 1507.43,-247.75"/>
<polygon fill="#63b8ff" stroke="#63b8ff" points="1508,-251.2 1517.33,-246.18 1506.91,-244.29 1508,-251.2"/>
</a>
</g>
</g>
<!-- Node13 -->
<g id="Node000013" class="node">
<title>Node13</title>
<g id="a_Node000013"><a xlink:href="_hover_popup_8h.html" target="_top" xlink:title=" ">
<polygon fill="white" stroke="#666666" points="1356,-74 1213,-74 1213,-55 1356,-55 1356,-74"/>
<text text-anchor="middle" x="1284.5" y="-62" font-family="Helvetica Neue" font-size="10.00">component/HoverPopup.h</text>
</a>
</g>
</g>
<!-- Node12&#45;&gt;Node13 -->
<g id="edge18_Node000012_Node000013" class="edge">
<title>Node12&#45;&gt;Node13</title>
<g id="a_edge18_Node000012_Node000013"><a xlink:title=" ">
<path fill="none" stroke="#63b8ff" d="M1254.68,-285.8C1259.21,-252.29 1275.62,-131.08 1281.97,-84.2"/>
<polygon fill="#63b8ff" stroke="#63b8ff" points="1285.45,-84.59 1283.32,-74.21 1278.51,-83.65 1285.45,-84.59"/>
</a>
</g>
</g>
<!-- Node13&#45;&gt;Node4 -->
<g id="edge19_Node000013_Node000004" class="edge">
<title>Node13&#45;&gt;Node4</title>
<g id="a_edge19_Node000013_Node000004"><a xlink:title=" ">
<path fill="none" stroke="#63b8ff" d="M1284.5,-54.75C1284.5,-47.8 1284.5,-37.85 1284.5,-29.13"/>
<polygon fill="#63b8ff" stroke="#63b8ff" points="1288,-29.09 1284.5,-19.09 1281,-29.09 1288,-29.09"/>
</a>
</g>
</g>
<!-- Node14&#45;&gt;Node5 -->
<g id="edge23_Node000014_Node000005" class="edge">
<title>Node14&#45;&gt;Node5</title>
<g id="a_edge23_Node000014_Node000005"><a xlink:title=" ">
<path fill="none" stroke="#63b8ff" d="M1709.32,-285.97C1681.76,-266.66 1614.35,-219.43 1580.14,-195.46"/>
<polygon fill="#63b8ff" stroke="#63b8ff" points="1582.02,-192.5 1571.82,-189.63 1578,-198.23 1582.02,-192.5"/>
</a>
</g>
</g>
<!-- Node14&#45;&gt;Node6 -->
<g id="edge22_Node000014_Node000006" class="edge">
<title>Node14&#45;&gt;Node6</title>
<g id="a_edge22_Node000014_Node000006"><a xlink:title=" ">
<path fill="none" stroke="#63b8ff" d="M1714.99,-285.92C1698.61,-264.55 1653.97,-207.63 1611.5,-165 1601.15,-154.61 1588.69,-143.89 1578.56,-135.58"/>
<polygon fill="#63b8ff" stroke="#63b8ff" points="1580.68,-132.79 1570.7,-129.22 1576.28,-138.23 1580.68,-132.79"/>
</a>
</g>
</g>
<!-- Node17 -->
<g id="Node000017" class="node">
<title>Node17</title>
<g id="a_Node000017"><a xlink:href="_gain_processor_8h.html" target="_top" xlink:title=" ">
<polygon fill="white" stroke="#666666" points="859.5,-305 739.5,-305 739.5,-286 859.5,-286 859.5,-305"/>
<text text-anchor="middle" x="799.5" y="-293" font-family="Helvetica Neue" font-size="10.00">Gain/GainProcessor.h</text>
</a>
</g>
</g>
<!-- Node16&#45;&gt;Node17 -->
<g id="edge27_Node000016_Node000017" class="edge">
<title>Node16&#45;&gt;Node17</title>
<g id="a_edge27_Node000016_Node000017"><a xlink:title=" ">
<path fill="none" stroke="#63b8ff" d="M681.15,-340.98C704.35,-332.27 740.62,-318.63 766.9,-308.75"/>
<polygon fill="#63b8ff" stroke="#63b8ff" points="768.3,-311.97 776.43,-305.17 765.84,-305.41 768.3,-311.97"/>
</a>
</g>
</g>
<!-- Node20 -->
<g id="Node000020" class="node">
<title>Node20</title>
<g id="a_Node000020"><a xlink:href="_impulse_processor_8h.html" target="_top" xlink:title=" ">
<polygon fill="white" stroke="#666666" points="284,-305 131,-305 131,-286 284,-286 284,-305"/>
<text text-anchor="middle" x="207.5" y="-293" font-family="Helvetica Neue" font-size="10.00">Impulse/ImpulseProcessor.h</text>
</a>
</g>
</g>
<!-- Node16&#45;&gt;Node20 -->
<g id="edge33_Node000016_Node000020" class="edge">
<title>Node16&#45;&gt;Node20</title>
<g id="a_edge33_Node000016_Node000020"><a xlink:title=" ">
<path fill="none" stroke="#63b8ff" d="M597.68,-342.35C518.27,-333.02 378.95,-316.65 290.06,-306.2"/>
<polygon fill="#63b8ff" stroke="#63b8ff" points="290.35,-302.71 280.01,-305.02 289.53,-309.66 290.35,-302.71"/>
</a>
</g>
</g>
<!-- Node23 -->
<g id="Node000023" class="node">
<title>Node23</title>
<g id="a_Node000023"><a xlink:href="_output_processor_8h.html" target="_top" xlink:title=" ">
<polygon fill="white" stroke="#666666" points="1019,-305 878,-305 878,-286 1019,-286 1019,-305"/>
<text text-anchor="middle" x="948.5" y="-293" font-family="Helvetica Neue" font-size="10.00">Output/OutputProcessor.h</text>
</a>
</g>
</g>
<!-- Node16&#45;&gt;Node23 -->
<g id="edge39_Node000016_Node000023" class="edge">
<title>Node16&#45;&gt;Node23</title>
<g id="a_edge39_Node000016_Node000023"><a xlink:title=" ">
<path fill="none" stroke="#63b8ff" d="M705.09,-340.98C755.89,-331.7 837.19,-316.84 891.69,-306.88"/>
<polygon fill="#63b8ff" stroke="#63b8ff" points="892.33,-310.32 901.54,-305.08 891.07,-303.44 892.33,-310.32"/>
</a>
</g>
</g>
<!-- Node25 -->
<g id="Node000025" class="node">
<title>Node25</title>
<g id="a_Node000025"><a xlink:href="_string_processor_8h.html" target="_top" xlink:title=" ">
<polygon fill="white" stroke="#666666" points="1169.5,-305 1037.5,-305 1037.5,-286 1169.5,-286 1169.5,-305"/>
<text text-anchor="middle" x="1103.5" y="-293" font-family="Helvetica Neue" font-size="10.00">String/StringProcessor.h</text>
</a>
</g>
</g>
<!-- Node16&#45;&gt;Node25 -->
<g id="edge43_Node000016_Node000025" class="edge">
<title>Node16&#45;&gt;Node25</title>
<g id="a_edge43_Node000016_Node000025"><a xlink:title=" ">
<path fill="none" stroke="#63b8ff" d="M719.44,-342.24C799.47,-332.71 939.99,-315.97 1027.05,-305.6"/>
<polygon fill="#63b8ff" stroke="#63b8ff" points="1027.62,-309.06 1037.14,-304.4 1026.79,-302.11 1027.62,-309.06"/>
</a>
</g>
</g>
<!-- Node28 -->
<g id="Node000028" class="node">
<title>Node28</title>
<g id="a_Node000028"><a xlink:href="_grit_processor_8h.html" target="_top" xlink:title=" ">
<polygon fill="white" stroke="#666666" points="413,-305 302,-305 302,-286 413,-286 413,-305"/>
<text text-anchor="middle" x="357.5" y="-293" font-family="Helvetica Neue" font-size="10.00">Grit/GritProcessor.h</text>
</a>
</g>
</g>
<!-- Node16&#45;&gt;Node28 -->
<g id="edge52_Node000016_Node000028" class="edge">
<title>Node16&#45;&gt;Node28</title>
<g id="a_edge52_Node000016_Node000028"><a xlink:title=" ">
<path fill="none" stroke="#63b8ff" d="M610.14,-340.98C557.31,-331.68 472.68,-316.78 416.11,-306.82"/>
<polygon fill="#63b8ff" stroke="#63b8ff" points="416.7,-303.37 406.24,-305.08 415.48,-310.26 416.7,-303.37"/>
</a>
</g>
</g>
<!-- Node30 -->
<g id="Node000030" class="node">
<title>Node30</title>
<g id="a_Node000030"><a xlink:href="_friction_processor_8h.html" target="_top" xlink:title=" ">
<polygon fill="white" stroke="#666666" points="578,-305 431,-305 431,-286 578,-286 578,-305"/>
<text text-anchor="middle" x="504.5" y="-293" font-family="Helvetica Neue" font-size="10.00">Friction/FrictionProcessor.h</text>
</a>
</g>
</g>
<!-- Node16&#45;&gt;Node30 -->
<g id="edge57_Node000016_Node000030" class="edge">
<title>Node16&#45;&gt;Node30</title>
<g id="a_edge57_Node000016_Node000030"><a xlink:title=" ">
<path fill="none" stroke="#63b8ff" d="M633.76,-340.98C608.13,-332.16 567.87,-318.31 539.09,-308.41"/>
<polygon fill="#63b8ff" stroke="#63b8ff" points="540.03,-305.03 529.44,-305.08 537.75,-311.65 540.03,-305.03"/>
</a>
</g>
</g>
<!-- Node32 -->
<g id="Node000032" class="node">
<title>Node32</title>
<g id="a_Node000032"><a xlink:href="_l_f_o_processor_8h.html" target="_top" xlink:title=" ">
<polygon fill="white" stroke="#666666" points="113,-305 0,-305 0,-286 113,-286 113,-305"/>
<text text-anchor="middle" x="56.5" y="-293" font-family="Helvetica Neue" font-size="10.00">LFO/LFOProcessor.h</text>
</a>
</g>
</g>
<!-- Node16&#45;&gt;Node32 -->
<g id="edge62_Node000016_Node000032" class="edge">
<title>Node16&#45;&gt;Node32</title>
<g id="a_edge62_Node000016_Node000032"><a xlink:title=" ">
<path fill="none" stroke="#63b8ff" d="M597.61,-345.4C499.79,-338.6 301.36,-323.95 123.28,-305.15"/>
<polygon fill="#63b8ff" stroke="#63b8ff" points="123.52,-301.65 113.2,-304.08 122.78,-308.61 123.52,-301.65"/>
</a>
</g>
</g>
<!-- Node35 -->
<g id="Node000035" class="node">
<title>Node35</title>
<g id="a_Node000035"><a xlink:href="_filter_processor_8h.html" target="_top" xlink:title=" ">
<polygon fill="white" stroke="#666666" points="721,-305 596,-305 596,-286 721,-286 721,-305"/>
<text text-anchor="middle" x="658.5" y="-293" font-family="Helvetica Neue" font-size="10.00">Filter/FilterProcessor.h</text>
</a>
</g>
</g>
<!-- Node16&#45;&gt;Node35 -->
<g id="edge69_Node000016_Node000035" class="edge">
<title>Node16&#45;&gt;Node35</title>
<g id="a_edge69_Node000016_Node000035"><a xlink:title=" ">
<path fill="none" stroke="#63b8ff" d="M658.5,-340.75C658.5,-333.8 658.5,-323.85 658.5,-315.13"/>
<polygon fill="#63b8ff" stroke="#63b8ff" points="662,-315.09 658.5,-305.09 655,-315.09 662,-315.09"/>
</a>
</g>
</g>
<!-- Node17&#45;&gt;Node8 -->
<g id="edge32_Node000017_Node000008" class="edge">
<title>Node17&#45;&gt;Node8</title>
<g id="a_edge32_Node000017_Node000008"><a xlink:title=" ">
<path fill="none" stroke="#63b8ff" d="M856.83,-285.99C915.04,-276.77 997.96,-261.79 1007.5,-250 1054.77,-191.54 932.35,-150.13 860.1,-131.52"/>
<polygon fill="#63b8ff" stroke="#63b8ff" points="860.81,-128.09 850.26,-129.05 859.11,-134.88 860.81,-128.09"/>
</a>
</g>
</g>
<!-- Node18 -->
<g id="Node000018" class="node">
<title>Node18</title>
<g id="a_Node000018"><a xlink:href="_gain_u_i_8h.html" target="_top" xlink:title=" ">
<polygon fill="white" stroke="#666666" points="829,-250 770,-250 770,-231 829,-231 829,-250"/>
<text text-anchor="middle" x="799.5" y="-238" font-family="Helvetica Neue" font-size="10.00">GainUI.h</text>
</a>
</g>
</g>
<!-- Node17&#45;&gt;Node18 -->
<g id="edge28_Node000017_Node000018" class="edge">
<title>Node17&#45;&gt;Node18</title>
<g id="a_edge28_Node000017_Node000018"><a xlink:title=" ">
<path fill="none" stroke="#63b8ff" d="M799.5,-285.75C799.5,-278.8 799.5,-268.85 799.5,-260.13"/>
<polygon fill="#63b8ff" stroke="#63b8ff" points="803,-260.09 799.5,-250.09 796,-260.09 803,-260.09"/>
</a>
</g>
</g>
<!-- Node18&#45;&gt;Node7 -->
<g id="edge29_Node000018_Node000007" class="edge">
<title>Node18&#45;&gt;Node7</title>
<g id="a_edge29_Node000018_Node000007"><a xlink:title=" ">
<path fill="none" stroke="#63b8ff" d="M801.27,-230.87C802.95,-222.66 805.54,-210.04 807.69,-199.55"/>
<polygon fill="#63b8ff" stroke="#63b8ff" points="811.14,-200.17 809.72,-189.67 804.28,-198.76 811.14,-200.17"/>
</a>
</g>
</g>
<!-- Node19 -->
<g id="Node000019" class="node">
<title>Node19</title>
<g id="a_Node000019"><a xlink:href="_phi_dial_8h.html" target="_top" xlink:title=" ">
<polygon fill="white" stroke="#666666" points="677,-195 576,-195 576,-165 677,-165 677,-195"/>
<text text-anchor="start" x="584" y="-183" font-family="Helvetica Neue" font-size="10.00">../../ui/component</text>
<text text-anchor="middle" x="626.5" y="-172" font-family="Helvetica Neue" font-size="10.00">/PhiDial.h</text>
</a>
</g>
</g>
<!-- Node18&#45;&gt;Node19 -->
<g id="edge30_Node000018_Node000019" class="edge">
<title>Node18&#45;&gt;Node19</title>
<g id="a_edge30_Node000018_Node000019"><a xlink:title=" ">
<path fill="none" stroke="#63b8ff" d="M774.34,-230.99C749.12,-222.46 709.56,-209.09 677.71,-198.32"/>
<polygon fill="#63b8ff" stroke="#63b8ff" points="678.69,-194.95 668.09,-195.06 676.44,-201.58 678.69,-194.95"/>
</a>
</g>
</g>
<!-- Node19&#45;&gt;Node4 -->
<g id="edge31_Node000019_Node000004" class="edge">
<title>Node19&#45;&gt;Node4</title>
<g id="a_edge31_Node000019_Node000004"><a xlink:title=" ">
<path fill="none" stroke="#63b8ff" d="M643.49,-164.98C663.67,-149.08 698.96,-123.63 733.5,-110 909.05,-40.76 1135.2,-19.31 1234.27,-12.99"/>
<polygon fill="#63b8ff" stroke="#63b8ff" points="1234.53,-16.48 1244.3,-12.38 1234.1,-9.5 1234.53,-16.48"/>
</a>
</g>
</g>
<!-- Node20&#45;&gt;Node8 -->
<g id="edge38_Node000020_Node000008" class="edge">
<title>Node20&#45;&gt;Node8</title>
<g id="a_edge38_Node000020_Node000008"><a xlink:title=" ">
<path fill="none" stroke="#63b8ff" d="M210.1,-285.92C217.88,-261.89 243.47,-193.81 291.5,-165 328.37,-142.88 596.42,-129.1 732.57,-123.45"/>
<polygon fill="#63b8ff" stroke="#63b8ff" points="733.09,-126.93 742.94,-123.03 732.8,-119.94 733.09,-126.93"/>
</a>
</g>
</g>
<!-- Node21 -->
<g id="Node000021" class="node">
<title>Node21</title>
<g id="a_Node000021"><a xlink:href="_impulse_u_i_8h.html" target="_top" xlink:title=" ">
<polygon fill="white" stroke="#666666" points="471,-250 396,-250 396,-231 471,-231 471,-250"/>
<text text-anchor="middle" x="433.5" y="-238" font-family="Helvetica Neue" font-size="10.00">ImpulseUI.h</text>
</a>
</g>
</g>
<!-- Node20&#45;&gt;Node21 -->
<g id="edge34_Node000020_Node000021" class="edge">
<title>Node20&#45;&gt;Node21</title>
<g id="a_edge34_Node000020_Node000021"><a xlink:title=" ">
<path fill="none" stroke="#63b8ff" d="M243.81,-285.98C282.74,-276.86 344.66,-262.33 387.1,-252.38"/>
<polygon fill="#63b8ff" stroke="#63b8ff" points="387.97,-255.77 396.9,-250.08 386.37,-248.96 387.97,-255.77"/>
</a>
</g>
</g>
<!-- Node21&#45;&gt;Node7 -->
<g id="edge35_Node000021_Node000007" class="edge">
<title>Node21&#45;&gt;Node7</title>
<g id="a_edge35_Node000021_Node000007"><a xlink:title=" ">
<path fill="none" stroke="#63b8ff" d="M471.19,-232.58C474.34,-232.04 477.47,-231.5 480.5,-231 578.87,-214.68 694.06,-197.78 759.34,-188.4"/>
<polygon fill="#63b8ff" stroke="#63b8ff" points="759.97,-191.85 769.38,-186.96 758.98,-184.92 759.97,-191.85"/>
</a>
</g>
</g>
<!-- Node21&#45;&gt;Node19 -->
<g id="edge36_Node000021_Node000019" class="edge">
<title>Node21&#45;&gt;Node19</title>
<g id="a_edge36_Node000021_Node000019"><a xlink:title=" ">
<path fill="none" stroke="#63b8ff" d="M461.56,-230.99C489.95,-222.39 534.6,-208.86 570.29,-198.04"/>
<polygon fill="#63b8ff" stroke="#63b8ff" points="571.55,-201.31 580.1,-195.06 569.51,-194.62 571.55,-201.31"/>
</a>
</g>
</g>
<!-- Node22 -->
<g id="Node000022" class="node">
<title>Node22</title>
<g id="a_Node000022"><a xlink:href="_phi_waveform_8h.html" target="_top" xlink:title=" ">
<polygon fill="white" stroke="#666666" points="454,-195 353,-195 353,-165 454,-165 454,-195"/>
<text text-anchor="start" x="361" y="-183" font-family="Helvetica Neue" font-size="10.00">../../ui/component</text>
<text text-anchor="middle" x="403.5" y="-172" font-family="Helvetica Neue" font-size="10.00">/PhiWaveform.h</text>
</a>
</g>
</g>
<!-- Node21&#45;&gt;Node22 -->
<g id="edge37_Node000021_Node000022" class="edge">
<title>Node21&#45;&gt;Node22</title>
<g id="a_edge37_Node000021_Node000022"><a xlink:title=" ">
<path fill="none" stroke="#63b8ff" d="M429.07,-230.87C425.46,-223.81 420.17,-213.5 415.34,-204.08"/>
<polygon fill="#63b8ff" stroke="#63b8ff" points="418.42,-202.42 410.74,-195.11 412.19,-205.61 418.42,-202.42"/>
</a>
</g>
</g>
<!-- Node23&#45;&gt;Node8 -->
<g id="edge42_Node000023_Node000008" class="edge">
<title>Node23&#45;&gt;Node8</title>
<g id="a_edge42_Node000023_Node000008"><a xlink:title=" ">
<path fill="none" stroke="#63b8ff" d="M978,-285.97C995.44,-279.24 1016.09,-267.93 1026.5,-250 1042.69,-222.12 1016.87,-181.18 997.5,-165 967.68,-140.1 926.27,-128.66 890.09,-123.59"/>
<polygon fill="#63b8ff" stroke="#63b8ff" points="890.39,-120.1 880.04,-122.32 889.52,-127.04 890.39,-120.1"/>
</a>
</g>
</g>
<!-- Node24 -->
<g id="Node000024" class="node">
<title>Node24</title>
<g id="a_Node000024"><a xlink:href="_output_u_i_8h.html" target="_top" xlink:title=" ">
<polygon fill="white" stroke="#666666" points="916,-250 847,-250 847,-231 916,-231 916,-250"/>
<text text-anchor="middle" x="881.5" y="-238" font-family="Helvetica Neue" font-size="10.00">OutputUI.h</text>
</a>
</g>
</g>
<!-- Node23&#45;&gt;Node24 -->
<g id="edge40_Node000023_Node000024" class="edge">
<title>Node23&#45;&gt;Node24</title>
<g id="a_edge40_Node000023_Node000024"><a xlink:title=" ">
<path fill="none" stroke="#63b8ff" d="M937.74,-285.98C927.73,-278.07 912.61,-266.11 900.57,-256.58"/>
<polygon fill="#63b8ff" stroke="#63b8ff" points="902.47,-253.63 892.46,-250.17 898.13,-259.12 902.47,-253.63"/>
</a>
</g>
</g>
<!-- Node24&#45;&gt;Node7 -->
<g id="edge41_Node000024_Node000007" class="edge">
<title>Node24&#45;&gt;Node7</title>
<g id="a_edge41_Node000024_Node000007"><a xlink:title=" ">
<path fill="none" stroke="#63b8ff" d="M871.17,-230.87C860.31,-221.8 843.01,-207.34 829.83,-196.32"/>
<polygon fill="#63b8ff" stroke="#63b8ff" points="831.79,-193.39 821.87,-189.67 827.3,-198.77 831.79,-193.39"/>
</a>
</g>
</g>
<!-- Node25&#45;&gt;Node8 -->
<g id="edge51_Node000025_Node000008" class="edge">
<title>Node25&#45;&gt;Node8</title>
<g id="a_edge51_Node000025_Node000008"><a xlink:title=" ">
<path fill="none" stroke="#63b8ff" d="M1100.86,-285.88C1093.18,-262.34 1068.49,-196.59 1023.5,-165 984.89,-137.89 933.22,-126.66 890.55,-122.26"/>
<polygon fill="#63b8ff" stroke="#63b8ff" points="890.75,-118.77 880.47,-121.33 890.11,-125.74 890.75,-118.77"/>
</a>
</g>
</g>
<!-- Node25&#45;&gt;Node9 -->
<g id="edge50_Node000025_Node000009" class="edge">
<title>Node25&#45;&gt;Node9</title>
<g id="a_edge50_Node000025_Node000009"><a xlink:title=" ">
<path fill="none" stroke="#63b8ff" d="M1106.04,-285.8C1115.87,-252.22 1151.46,-130.57 1165.12,-83.9"/>
<polygon fill="#63b8ff" stroke="#63b8ff" points="1168.5,-84.79 1167.95,-74.21 1161.79,-82.82 1168.5,-84.79"/>
</a>
</g>
</g>
<!-- Node26 -->
<g id="Node000026" class="node">
<title>Node26</title>
<g id="a_Node000026"><a xlink:href="_string_u_i_8h.html" target="_top" xlink:title=" ">
<polygon fill="white" stroke="#666666" points="999,-250 934,-250 934,-231 999,-231 999,-250"/>
<text text-anchor="middle" x="966.5" y="-238" font-family="Helvetica Neue" font-size="10.00">StringUI.h</text>
</a>
</g>
</g>
<!-- Node25&#45;&gt;Node26 -->
<g id="edge44_Node000025_Node000026" class="edge">
<title>Node25&#45;&gt;Node26</title>
<g id="a_edge44_Node000025_Node000026"><a xlink:title=" ">
<path fill="none" stroke="#63b8ff" d="M1081.49,-285.98C1059.05,-277.3 1024.02,-263.75 998.51,-253.88"/>
<polygon fill="#63b8ff" stroke="#63b8ff" points="999.5,-250.51 988.91,-250.17 996.98,-257.04 999.5,-250.51"/>
</a>
</g>
</g>
<!-- Node26&#45;&gt;Node7 -->
<g id="edge45_Node000026_Node000007" class="edge">
<title>Node26&#45;&gt;Node7</title>
<g id="a_edge45_Node000026_Node000007"><a xlink:title=" ">
<path fill="none" stroke="#63b8ff" d="M943.96,-230.99C917.56,-221.03 873.62,-204.45 843.65,-193.13"/>
<polygon fill="#63b8ff" stroke="#63b8ff" points="844.66,-189.77 834.07,-189.52 842.19,-196.32 844.66,-189.77"/>
</a>
</g>
</g>
<!-- Node26&#45;&gt;Node19 -->
<g id="edge46_Node000026_Node000019" class="edge">
<title>Node26&#45;&gt;Node19</title>
<g id="a_edge46_Node000026_Node000019"><a xlink:title=" ">
<path fill="none" stroke="#63b8ff" d="M933.96,-232.8C930.77,-232.18 927.57,-231.57 924.5,-231 842.58,-215.84 747.61,-200.25 687.32,-190.59"/>
<polygon fill="#63b8ff" stroke="#63b8ff" points="687.64,-187.1 677.21,-188.98 686.53,-194.01 687.64,-187.1"/>
</a>
</g>
</g>
<!-- Node27 -->
<g id="Node000027" class="node">
<title>Node27</title>
<g id="a_Node000027"><a xlink:href="_phi_slider_button_8h.html" target="_top" xlink:title=" ">
<polygon fill="white" stroke="#666666" points="1443.5,-195 1339.5,-195 1339.5,-165 1443.5,-165 1443.5,-195"/>
<text text-anchor="start" x="1347.5" y="-183" font-family="Helvetica Neue" font-size="10.00">../../ui/component</text>
<text text-anchor="middle" x="1391.5" y="-172" font-family="Helvetica Neue" font-size="10.00">/PhiSliderButton.h</text>
</a>
</g>
</g>
<!-- Node26&#45;&gt;Node27 -->
<g id="edge47_Node000026_Node000027" class="edge">
<title>Node26&#45;&gt;Node27</title>
<g id="a_edge47_Node000026_Node000027"><a xlink:title=" ">
<path fill="none" stroke="#63b8ff" d="M999.14,-235.01C1069.77,-225.28 1237.78,-202.16 1329.37,-189.55"/>
<polygon fill="#63b8ff" stroke="#63b8ff" points="1329.91,-193.01 1339.34,-188.18 1328.95,-186.08 1329.91,-193.01"/>
</a>
</g>
</g>
<!-- Node27&#45;&gt;Node4 -->
<g id="edge48_Node000027_Node000004" class="edge">
<title>Node27&#45;&gt;Node4</title>
<g id="a_edge48_Node000027_Node000004"><a xlink:title=" ">
<path fill="none" stroke="#63b8ff" d="M1392.02,-164.83C1392.21,-140.09 1389.33,-88.43 1364.5,-55 1353.75,-40.52 1336.82,-30.14 1321.29,-23.06"/>
<polygon fill="#63b8ff" stroke="#63b8ff" points="1322.45,-19.75 1311.87,-19.08 1319.72,-26.2 1322.45,-19.75"/>
</a>
</g>
</g>
<!-- Node27&#45;&gt;Node6 -->
<g id="edge49_Node000027_Node000006" class="edge">
<title>Node27&#45;&gt;Node6</title>
<g id="a_edge49_Node000027_Node000006"><a xlink:title=" ">
<path fill="none" stroke="#63b8ff" d="M1431.74,-164.99C1460.27,-155.05 1498.15,-141.86 1525.23,-132.43"/>
<polygon fill="#63b8ff" stroke="#63b8ff" points="1526.4,-135.73 1534.69,-129.14 1524.1,-129.12 1526.4,-135.73"/>
</a>
</g>
</g>
<!-- Node28&#45;&gt;Node8 -->
<g id="edge56_Node000028_Node000008" class="edge">
<title>Node28&#45;&gt;Node8</title>
<g id="a_edge56_Node000028_Node000008"><a xlink:title=" ">
<path fill="none" stroke="#63b8ff" d="M339.73,-285.96C326.49,-278.51 309.38,-266.33 301.5,-250 291.25,-228.76 287.69,-186.76 310.5,-165 340.36,-136.51 599.4,-125.83 732.8,-122.19"/>
<polygon fill="#63b8ff" stroke="#63b8ff" points="733.06,-125.69 742.97,-121.92 732.88,-118.69 733.06,-125.69"/>
</a>
</g>
</g>
<!-- Node29 -->
<g id="Node000029" class="node">
<title>Node29</title>
<g id="a_Node000029"><a xlink:href="_grit_u_i_8h.html" target="_top" xlink:title=" ">
<polygon fill="white" stroke="#666666" points="543.5,-250 489.5,-250 489.5,-231 543.5,-231 543.5,-250"/>
<text text-anchor="middle" x="516.5" y="-238" font-family="Helvetica Neue" font-size="10.00">GritUI.h</text>
</a>
</g>
</g>
<!-- Node28&#45;&gt;Node29 -->
<g id="edge53_Node000028_Node000029" class="edge">
<title>Node28&#45;&gt;Node29</title>
<g id="a_edge53_Node000028_Node000029"><a xlink:title=" ">
<path fill="none" stroke="#63b8ff" d="M383.05,-285.98C409.62,-277.13 451.44,-263.19 481.17,-253.28"/>
<polygon fill="#63b8ff" stroke="#63b8ff" points="482.37,-256.56 490.75,-250.08 480.16,-249.92 482.37,-256.56"/>
</a>
</g>
</g>
<!-- Node29&#45;&gt;Node7 -->
<g id="edge54_Node000029_Node000007" class="edge">
<title>Node29&#45;&gt;Node7</title>
<g id="a_edge54_Node000029_Node000007"><a xlink:title=" ">
<path fill="none" stroke="#63b8ff" d="M543.6,-232.98C546.6,-232.29 549.61,-231.62 552.5,-231 623.86,-215.69 706.75,-200.07 759.16,-190.45"/>
<polygon fill="#63b8ff" stroke="#63b8ff" points="760.02,-193.85 769.22,-188.61 758.76,-186.97 760.02,-193.85"/>
</a>
</g>
</g>
<!-- Node29&#45;&gt;Node19 -->
<g id="edge55_Node000029_Node000019" class="edge">
<title>Node29&#45;&gt;Node19</title>
<g id="a_edge55_Node000029_Node000019"><a xlink:title=" ">
<path fill="none" stroke="#63b8ff" d="M532.73,-230.87C548,-222.75 571.39,-210.31 590.98,-199.89"/>
<polygon fill="#63b8ff" stroke="#63b8ff" points="592.77,-202.9 599.96,-195.11 589.49,-196.72 592.77,-202.9"/>
</a>
</g>
</g>
<!-- Node30&#45;&gt;Node8 -->
<g id="edge61_Node000030_Node000008" class="edge">
<title>Node30&#45;&gt;Node8</title>
<g id="a_edge61_Node000030_Node000008"><a xlink:title=" ">
<path fill="none" stroke="#63b8ff" d="M430.75,-286.76C383.46,-280.1 328.24,-268.57 313.5,-250 292.92,-224.07 308.46,-189.99 343.5,-165 374.4,-142.96 607.5,-129.46 732.63,-123.72"/>
<polygon fill="#63b8ff" stroke="#63b8ff" points="733.09,-127.2 742.92,-123.25 732.78,-120.21 733.09,-127.2"/>
</a>
</g>
</g>
<!-- Node31 -->
<g id="Node000031" class="node">
<title>Node31</title>
<g id="a_Node000031"><a xlink:href="_friction_u_i_8h.html" target="_top" xlink:title=" ">
<polygon fill="white" stroke="#666666" points="633.5,-250 561.5,-250 561.5,-231 633.5,-231 633.5,-250"/>
<text text-anchor="middle" x="597.5" y="-238" font-family="Helvetica Neue" font-size="10.00">FrictionUI.h</text>
</a>
</g>
</g>
<!-- Node30&#45;&gt;Node31 -->
<g id="edge58_Node000030_Node000031" class="edge">
<title>Node30&#45;&gt;Node31</title>
<g id="a_edge58_Node000030_Node000031"><a xlink:title=" ">
<path fill="none" stroke="#63b8ff" d="M519.44,-285.98C534,-277.69 556.37,-264.94 573.43,-255.22"/>
<polygon fill="#63b8ff" stroke="#63b8ff" points="575.33,-258.16 582.29,-250.17 571.86,-252.08 575.33,-258.16"/>
</a>
</g>
</g>
<!-- Node31&#45;&gt;Node7 -->
<g id="edge59_Node000031_Node000007" class="edge">
<title>Node31&#45;&gt;Node7</title>
<g id="a_edge59_Node000031_Node000007"><a xlink:title=" ">
<path fill="none" stroke="#63b8ff" d="M628.62,-230.99C666.1,-220.75 729.18,-203.5 770.57,-192.19"/>
<polygon fill="#63b8ff" stroke="#63b8ff" points="771.62,-195.53 780.35,-189.52 769.78,-188.78 771.62,-195.53"/>
</a>
</g>
</g>
<!-- Node31&#45;&gt;Node19 -->
<g id="edge60_Node000031_Node000019" class="edge">
<title>Node31&#45;&gt;Node19</title>
<g id="a_edge60_Node000031_Node000019"><a xlink:title=" ">
<path fill="none" stroke="#63b8ff" d="M601.78,-230.87C605.28,-223.81 610.39,-213.5 615.06,-204.08"/>
<polygon fill="#63b8ff" stroke="#63b8ff" points="618.2,-205.63 619.5,-195.11 611.93,-202.52 618.2,-205.63"/>
</a>
</g>
</g>
<!-- Node32&#45;&gt;Node8 -->
<g id="edge68_Node000032_Node000008" class="edge">
<title>Node32&#45;&gt;Node8</title>
<g id="a_edge68_Node000032_Node000008"><a xlink:title=" ">
<path fill="none" stroke="#63b8ff" d="M56.72,-285.92C57.53,-272.48 61,-246.43 75.5,-231 133.55,-169.2 171.69,-183.21 254.5,-165 422.01,-128.16 623.81,-120.98 732.64,-120.06"/>
<polygon fill="#63b8ff" stroke="#63b8ff" points="732.91,-123.56 742.88,-119.99 732.86,-116.56 732.91,-123.56"/>
</a>
</g>
</g>
<!-- Node33 -->
<g id="Node000033" class="node">
<title>Node33</title>
<g id="a_Node000033"><a xlink:href="_l_f_o_8h.html" target="_top" xlink:title=" ">
<polygon fill="white" stroke="#666666" points="128.5,-250 84.5,-250 84.5,-231 128.5,-231 128.5,-250"/>
<text text-anchor="middle" x="106.5" y="-238" font-family="Helvetica Neue" font-size="10.00">LFO.h</text>
</a>
</g>
</g>
<!-- Node32&#45;&gt;Node33 -->
<g id="edge63_Node000032_Node000033" class="edge">
<title>Node32&#45;&gt;Node33</title>
<g id="a_edge63_Node000032_Node000033"><a xlink:title=" ">
<path fill="none" stroke="#63b8ff" d="M64.76,-285.75C71.96,-278.11 82.61,-266.82 91.35,-257.56"/>
<polygon fill="#63b8ff" stroke="#63b8ff" points="94.08,-259.76 98.4,-250.09 88.99,-254.96 94.08,-259.76"/>
</a>
</g>
</g>
<!-- Node34 -->
<g id="Node000034" class="node">
<title>Node34</title>
<g id="a_Node000034"><a xlink:href="_l_f_o_u_i_8h.html" target="_top" xlink:title=" ">
<polygon fill="white" stroke="#666666" points="378,-250 323,-250 323,-231 378,-231 378,-250"/>
<text text-anchor="middle" x="350.5" y="-238" font-family="Helvetica Neue" font-size="10.00">LFOUI.h</text>
</a>
</g>
</g>
<!-- Node32&#45;&gt;Node34 -->
<g id="edge64_Node000032_Node000034" class="edge">
<title>Node32&#45;&gt;Node34</title>
<g id="a_edge64_Node000032_Node000034"><a xlink:title=" ">
<path fill="none" stroke="#63b8ff" d="M103.74,-285.98C161.87,-275.51 259.41,-257.92 312.78,-248.3"/>
<polygon fill="#63b8ff" stroke="#63b8ff" points="313.62,-251.7 322.85,-246.49 312.38,-244.82 313.62,-251.7"/>
</a>
</g>
</g>
<!-- Node34&#45;&gt;Node7 -->
<g id="edge65_Node000034_Node000007" class="edge">
<title>Node34&#45;&gt;Node7</title>
<g id="a_edge65_Node000034_Node000007"><a xlink:title=" ">
<path fill="none" stroke="#63b8ff" d="M378.34,-232.59C381.09,-232.01 383.84,-231.47 386.5,-231 422.43,-224.67 653.51,-198.61 759.05,-186.83"/>
<polygon fill="#63b8ff" stroke="#63b8ff" points="759.62,-190.29 769.17,-185.7 758.84,-183.33 759.62,-190.29"/>
</a>
</g>
</g>
<!-- Node34&#45;&gt;Node19 -->
<g id="edge66_Node000034_Node000019" class="edge">
<title>Node34&#45;&gt;Node19</title>
<g id="a_edge66_Node000034_Node000019"><a xlink:title=" ">
<path fill="none" stroke="#63b8ff" d="M378,-232.93C380.87,-232.27 383.74,-231.61 386.5,-231 447.4,-217.47 517.24,-203.04 565.82,-193.18"/>
<polygon fill="#63b8ff" stroke="#63b8ff" points="566.74,-196.56 575.85,-191.15 565.35,-189.7 566.74,-196.56"/>
</a>
</g>
</g>
<!-- Node34&#45;&gt;Node22 -->
<g id="edge67_Node000034_Node000022" class="edge">
<title>Node34&#45;&gt;Node22</title>
<g id="a_edge67_Node000034_Node000022"><a xlink:title=" ">
<path fill="none" stroke="#63b8ff" d="M358.32,-230.87C365.05,-223.44 375.04,-212.42 383.91,-202.62"/>
<polygon fill="#63b8ff" stroke="#63b8ff" points="386.59,-204.88 390.71,-195.11 381.4,-200.18 386.59,-204.88"/>
</a>
</g>
</g>
<!-- Node35&#45;&gt;Node8 -->
<g id="edge73_Node000035_Node000008" class="edge">
<title>Node35&#45;&gt;Node8</title>
<g id="a_edge73_Node000035_Node000008"><a xlink:title=" ">
<path fill="none" stroke="#63b8ff" d="M675.36,-285.88C689.24,-278.07 708.67,-265.45 721.5,-250 748.05,-218.02 735.62,-198.29 760.5,-165 768.96,-153.68 780.74,-143.17 790.84,-135.21"/>
<polygon fill="#63b8ff" stroke="#63b8ff" points="792.96,-137.99 798.82,-129.16 788.74,-132.41 792.96,-137.99"/>
</a>
</g>
</g>
<!-- Node36 -->
<g id="Node000036" class="node">
<title>Node36</title>
<g id="a_Node000036"><a xlink:href="_filter_u_i_8h.html" target="_top" xlink:title=" ">
<polygon fill="white" stroke="#666666" points="713,-250 652,-250 652,-231 713,-231 713,-250"/>
<text text-anchor="middle" x="682.5" y="-238" font-family="Helvetica Neue" font-size="10.00">FilterUI.h</text>
</a>
</g>
</g>
<!-- Node35&#45;&gt;Node36 -->
<g id="edge70_Node000035_Node000036" class="edge">
<title>Node35&#45;&gt;Node36</title>
<g id="a_edge70_Node000035_Node000036"><a xlink:title=" ">
<path fill="none" stroke="#63b8ff" d="M662.46,-285.75C665.71,-278.57 670.42,-268.18 674.45,-259.27"/>
<polygon fill="#63b8ff" stroke="#63b8ff" points="677.67,-260.64 678.61,-250.09 671.3,-257.75 677.67,-260.64"/>
</a>
</g>
</g>
<!-- Node36&#45;&gt;Node7 -->
<g id="edge71_Node000036_Node000007" class="edge">
<title>Node36&#45;&gt;Node7</title>
<g id="a_edge71_Node000036_Node000007"><a xlink:title=" ">
<path fill="none" stroke="#63b8ff" d="M701.26,-230.99C722.85,-221.2 758.53,-205.02 783.43,-193.73"/>
<polygon fill="#63b8ff" stroke="#63b8ff" points="785.06,-196.83 792.72,-189.52 782.17,-190.46 785.06,-196.83"/>
</a>
</g>
</g>
<!-- Node36&#45;&gt;Node19 -->
<g id="edge72_Node000036_Node000019" class="edge">
<title>Node36&#45;&gt;Node19</title>
<g id="a_edge72_Node000036_Node000019"><a xlink:title=" ">
<path fill="none" stroke="#63b8ff" d="M674.24,-230.87C667.13,-223.44 656.57,-212.42 647.19,-202.62"/>
<polygon fill="#63b8ff" stroke="#63b8ff" points="649.45,-199.92 640.01,-195.11 644.4,-204.76 649.45,-199.92"/>
</a>
</g>
</g>
<!-- Node37&#45;&gt;Node3 -->
<g id="edge75_Node000037_Node000003" class="edge">
<title>Node37&#45;&gt;Node3</title>
<g id="a_edge75_Node000037_Node000003"><a xlink:title=" ">
<path fill="none" stroke="#63b8ff" d="M1582.27,-450.96C1595.51,-443.51 1612.62,-431.33 1620.5,-415 1624.17,-407.39 1622.35,-404.24 1620.5,-396 1608.53,-342.66 1575.97,-286.06 1558.66,-258.53"/>
<polygon fill="#63b8ff" stroke="#63b8ff" points="1561.58,-256.59 1553.24,-250.05 1555.68,-260.36 1561.58,-256.59"/>
</a>
</g>
</g>
<!-- Node37&#45;&gt;Node10 -->
<g id="edge78_Node000037_Node000010" class="edge">
<title>Node37&#45;&gt;Node10</title>
<g id="a_edge78_Node000037_Node000010"><a xlink:title=" ">
<path fill="none" stroke="#63b8ff" d="M1542.97,-450.98C1521.03,-442.3 1486.76,-428.75 1461.81,-418.88"/>
<polygon fill="#63b8ff" stroke="#63b8ff" points="1463.01,-415.59 1452.42,-415.17 1460.43,-422.1 1463.01,-415.59"/>
</a>
</g>
</g>
<!-- Node37&#45;&gt;Node14 -->
<g id="edge79_Node000037_Node000014" class="edge">
<title>Node37&#45;&gt;Node14</title>
<g id="a_edge79_Node000037_Node000014"><a xlink:title=" ">
<path fill="none" stroke="#63b8ff" d="M1596.85,-450.91C1636.37,-438.42 1701.09,-410.95 1726.5,-360 1733.44,-346.08 1731.25,-328.29 1727.86,-315.09"/>
<polygon fill="#63b8ff" stroke="#63b8ff" points="1731.14,-313.83 1724.91,-305.26 1724.43,-315.84 1731.14,-313.83"/>
</a>
</g>
</g>
<!-- Node37&#45;&gt;Node27 -->
<g id="edge80_Node000037_Node000027" class="edge">
<title>Node37&#45;&gt;Node27</title>
<g id="a_edge80_Node000037_Node000027"><a xlink:title=" ">
<path fill="none" stroke="#63b8ff" d="M1549.02,-450.86C1536.37,-443.05 1518.94,-430.43 1508.5,-415 1491.99,-390.6 1489.5,-380.96 1489.5,-351.5 1489.5,-351.5 1489.5,-351.5 1489.5,-294.5 1489.5,-253.8 1452.96,-220.48 1424.5,-200.71"/>
<polygon fill="#63b8ff" stroke="#63b8ff" points="1426.24,-197.66 1415.98,-195.01 1422.35,-203.48 1426.24,-197.66"/>
</a>
</g>
</g>
<!-- Node38 -->
<g id="Node000038" class="node">
<title>Node38</title>
<g id="a_Node000038"><a xlink:href="_file_manager_8h.html" target="_top" xlink:title=" ">
<polygon fill="white" stroke="#666666" points="1611.5,-415 1517.5,-415 1517.5,-396 1611.5,-396 1611.5,-415"/>
<text text-anchor="middle" x="1564.5" y="-403" font-family="Helvetica Neue" font-size="10.00">../FileManager.h</text>
</a>
</g>
</g>
<!-- Node37&#45;&gt;Node38 -->
<g id="edge76_Node000037_Node000038" class="edge">
<title>Node37&#45;&gt;Node38</title>
<g id="a_edge76_Node000037_Node000038"><a xlink:title=" ">
<path fill="none" stroke="#63b8ff" d="M1564.5,-450.75C1564.5,-443.8 1564.5,-433.85 1564.5,-425.13"/>
<polygon fill="#63b8ff" stroke="#63b8ff" points="1568,-425.09 1564.5,-415.09 1561,-425.09 1568,-425.09"/>
</a>
</g>
</g>
<!-- Node38&#45;&gt;Node3 -->
<g id="edge77_Node000038_Node000003" class="edge">
<title>Node38&#45;&gt;Node3</title>
<g id="a_edge77_Node000038_Node000003"><a xlink:title=" ">
<path fill="none" stroke="#63b8ff" d="M1563.59,-395.74C1560.93,-370.31 1553.19,-296.08 1549.5,-260.69"/>
<polygon fill="#63b8ff" stroke="#63b8ff" points="1552.94,-259.89 1548.42,-250.31 1545.97,-260.62 1552.94,-259.89"/>
</a>
</g>
</g>
</g>
</svg>
