<?xml version="1.0" encoding="UTF-8" standalone="no"?>
<!DOCTYPE svg PUBLIC "-//W3C//DTD SVG 1.1//EN"
 "http://www.w3.org/Graphics/SVG/1.1/DTD/svg11.dtd">
<!-- Generated by graphviz version 2.43.0 (0)
 -->
<!-- Title: FrictionProcessor.h Pages: 1 -->
<svg width="270pt" height="313pt"
 viewBox="0.00 0.00 270.00 313.00" xmlns="http://www.w3.org/2000/svg" xmlns:xlink="http://www.w3.org/1999/xlink">
<g id="graph0" class="graph" transform="scale(1 1) rotate(0) translate(4 309)">
<title>FrictionProcessor.h</title>
<!-- Node1 -->
<g id="Node000001" class="node">
<title>Node1</title>
<g id="a_Node000001"><a xlink:title=" ">
<polygon fill="#999999" stroke="#666666" points="190.5,-305 82.5,-305 82.5,-286 190.5,-286 190.5,-305"/>
<text text-anchor="middle" x="136.5" y="-293" font-family="Helvetica Neue" font-size="10.00">FrictionProcessor.h</text>
</a>
</g>
</g>
<!-- Node2 -->
<g id="Node000002" class="node">
<title>Node2</title>
<g id="a_Node000002"><a xlink:href="_friction_u_i_8h.html" target="_top" xlink:title=" ">
<polygon fill="white" stroke="#666666" points="133.5,-250 61.5,-250 61.5,-231 133.5,-231 133.5,-250"/>
<text text-anchor="middle" x="97.5" y="-238" font-family="Helvetica Neue" font-size="10.00">FrictionUI.h</text>
</a>
</g>
</g>
<!-- Node1&#45;&gt;Node2 -->
<g id="edge1_Node000001_Node000002" class="edge">
<title>Node1&#45;&gt;Node2</title>
<g id="a_edge1_Node000001_Node000002"><a xlink:title=" ">
<path fill="none" stroke="#63b8ff" d="M130.06,-285.75C124.61,-278.34 116.64,-267.5 109.94,-258.41"/>
<polygon fill="#63b8ff" stroke="#63b8ff" points="112.57,-256.07 103.82,-250.09 106.93,-260.22 112.57,-256.07"/>
</a>
</g>
</g>
<!-- Node5 -->
<g id="Node000005" class="node">
<title>Node5</title>
<g id="a_Node000005"><a xlink:href="_module_processor_8h.html" target="_top" xlink:title=" ">
<polygon fill="white" stroke="#666666" points="262,-140 125,-140 125,-121 262,-121 262,-140"/>
<text text-anchor="middle" x="193.5" y="-128" font-family="Helvetica Neue" font-size="10.00">../dsp/ModuleProcessor.h</text>
</a>
</g>
</g>
<!-- Node1&#45;&gt;Node5 -->
<g id="edge9_Node000001_Node000005" class="edge">
<title>Node1&#45;&gt;Node5</title>
<g id="a_edge9_Node000001_Node000005"><a xlink:title=" ">
<path fill="none" stroke="#63b8ff" d="M139.56,-285.74C148.53,-260.09 174.87,-184.78 187.11,-149.78"/>
<polygon fill="#63b8ff" stroke="#63b8ff" points="190.42,-150.9 190.42,-140.31 183.82,-148.59 190.42,-150.9"/>
</a>
</g>
</g>
<!-- Node3 -->
<g id="Node000003" class="node">
<title>Node3</title>
<g id="a_Node000003"><a xlink:href="_module_u_i_8h.html" target="_top" xlink:title=" ">
<polygon fill="white" stroke="#666666" points="148.5,-195 46.5,-195 46.5,-176 148.5,-176 148.5,-195"/>
<text text-anchor="middle" x="97.5" y="-183" font-family="Helvetica Neue" font-size="10.00">../../ui/ModuleUI.h</text>
</a>
</g>
</g>
<!-- Node2&#45;&gt;Node3 -->
<g id="edge2_Node000002_Node000003" class="edge">
<title>Node2&#45;&gt;Node3</title>
<g id="a_edge2_Node000002_Node000003"><a xlink:title=" ">
<path fill="none" stroke="#63b8ff" d="M97.5,-230.75C97.5,-223.8 97.5,-213.85 97.5,-205.13"/>
<polygon fill="#63b8ff" stroke="#63b8ff" points="101,-205.09 97.5,-195.09 94,-205.09 101,-205.09"/>
</a>
</g>
</g>
<!-- Node8 -->
<g id="Node000008" class="node">
<title>Node8</title>
<g id="a_Node000008"><a xlink:href="_phi_dial_8h.html" target="_top" xlink:title=" ">
<polygon fill="white" stroke="#666666" points="101,-85 0,-85 0,-55 101,-55 101,-85"/>
<text text-anchor="start" x="8" y="-73" font-family="Helvetica Neue" font-size="10.00">../../ui/component</text>
<text text-anchor="middle" x="50.5" y="-62" font-family="Helvetica Neue" font-size="10.00">/PhiDial.h</text>
</a>
</g>
</g>
<!-- Node2&#45;&gt;Node8 -->
<g id="edge7_Node000002_Node000008" class="edge">
<title>Node2&#45;&gt;Node8</title>
<g id="a_edge7_Node000002_Node000008"><a xlink:title=" ">
<path fill="none" stroke="#63b8ff" d="M80.67,-230.94C67.16,-223.26 48.67,-210.77 37.5,-195 22.71,-174.12 24.32,-165.3 20.5,-140 19.24,-131.65 18.25,-129.14 20.5,-121 23.13,-111.5 28.1,-102 33.25,-93.86"/>
<polygon fill="#63b8ff" stroke="#63b8ff" points="36.31,-95.58 39.02,-85.34 30.52,-91.65 36.31,-95.58"/>
</a>
</g>
</g>
<!-- Node4 -->
<g id="Node000004" class="node">
<title>Node4</title>
<g id="a_Node000004"><a xlink:href="_phi_colours_8h.html" target="_top" xlink:title=" ">
<polygon fill="white" stroke="#666666" points="107,-140 30,-140 30,-121 107,-121 107,-140"/>
<text text-anchor="middle" x="68.5" y="-128" font-family="Helvetica Neue" font-size="10.00">PhiColours.h</text>
</a>
</g>
</g>
<!-- Node3&#45;&gt;Node4 -->
<g id="edge3_Node000003_Node000004" class="edge">
<title>Node3&#45;&gt;Node4</title>
<g id="a_edge3_Node000003_Node000004"><a xlink:title=" ">
<path fill="none" stroke="#63b8ff" d="M92.71,-175.75C88.74,-168.49 82.97,-157.95 78.07,-148.98"/>
<polygon fill="#63b8ff" stroke="#63b8ff" points="81.07,-147.18 73.2,-140.09 74.93,-150.54 81.07,-147.18"/>
</a>
</g>
</g>
<!-- Node3&#45;&gt;Node5 -->
<g id="edge4_Node000003_Node000005" class="edge">
<title>Node3&#45;&gt;Node5</title>
<g id="a_edge4_Node000003_Node000005"><a xlink:title=" ">
<path fill="none" stroke="#63b8ff" d="M112.92,-175.98C127.95,-167.69 151.04,-154.94 168.66,-145.22"/>
<polygon fill="#63b8ff" stroke="#63b8ff" points="170.73,-148.07 177.8,-140.17 167.35,-141.94 170.73,-148.07"/>
</a>
</g>
</g>
<!-- Node6 -->
<g id="Node000006" class="node">
<title>Node6</title>
<g id="a_Node000006"><a xlink:href="_utils_8h.html" target="_top" xlink:title=" ">
<polygon fill="white" stroke="#666666" points="192.5,-79.5 144.5,-79.5 144.5,-60.5 192.5,-60.5 192.5,-79.5"/>
<text text-anchor="middle" x="168.5" y="-67.5" font-family="Helvetica Neue" font-size="10.00">Utils.h</text>
</a>
</g>
</g>
<!-- Node5&#45;&gt;Node6 -->
<g id="edge5_Node000005_Node000006" class="edge">
<title>Node5&#45;&gt;Node6</title>
<g id="a_edge5_Node000005_Node000006"><a xlink:title=" ">
<path fill="none" stroke="#63b8ff" d="M189.81,-120.87C186.23,-112.49 180.68,-99.51 176.15,-88.89"/>
<polygon fill="#63b8ff" stroke="#63b8ff" points="179.35,-87.49 172.2,-79.67 172.92,-90.24 179.35,-87.49"/>
</a>
</g>
</g>
<!-- Node7 -->
<g id="Node000007" class="node">
<title>Node7</title>
<g id="a_Node000007"><a xlink:title=" ">
<polygon fill="#e0e0e0" stroke="#999999" points="136.5,-19 56.5,-19 56.5,0 136.5,0 136.5,-19"/>
<text text-anchor="middle" x="96.5" y="-7" font-family="Helvetica Neue" font-size="10.00">JuceHeader.h</text>
</a>
</g>
</g>
<!-- Node6&#45;&gt;Node7 -->
<g id="edge6_Node000006_Node000007" class="edge">
<title>Node6&#45;&gt;Node7</title>
<g id="a_edge6_Node000006_Node000007"><a xlink:title=" ">
<path fill="none" stroke="#63b8ff" d="M157.88,-60.37C146.6,-51.21 128.58,-36.56 114.97,-25.51"/>
<polygon fill="#63b8ff" stroke="#63b8ff" points="117.14,-22.76 107.17,-19.17 112.72,-28.19 117.14,-22.76"/>
</a>
</g>
</g>
<!-- Node8&#45;&gt;Node7 -->
<g id="edge8_Node000008_Node000007" class="edge">
<title>Node8&#45;&gt;Node7</title>
<g id="a_edge8_Node000008_Node000007"><a xlink:title=" ">
<path fill="none" stroke="#63b8ff" d="M61.64,-54.84C68.18,-46.52 76.48,-35.96 83.34,-27.23"/>
<polygon fill="#63b8ff" stroke="#63b8ff" points="86.18,-29.29 89.61,-19.27 80.67,-24.96 86.18,-29.29"/>
</a>
</g>
</g>
</g>
</svg>
