<?xml version="1.0" encoding="UTF-8" standalone="no"?>
<!DOCTYPE svg PUBLIC "-//W3C//DTD SVG 1.1//EN"
 "http://www.w3.org/Graphics/SVG/1.1/DTD/svg11.dtd">
<!-- Generated by graphviz version 2.43.0 (0)
 -->
<!-- Title: GritUI.h Pages: 1 -->
<svg width="318pt" height="258pt"
 viewBox="0.00 0.00 318.00 258.00" xmlns="http://www.w3.org/2000/svg" xmlns:xlink="http://www.w3.org/1999/xlink">
<g id="graph0" class="graph" transform="scale(1 1) rotate(0) translate(4 254)">
<title>GritUI.h</title>
<!-- Node1 -->
<g id="Node000001" class="node">
<title>Node1</title>
<g id="a_Node000001"><a xlink:title=" ">
<polygon fill="#999999" stroke="#666666" points="238.5,-250 184.5,-250 184.5,-231 238.5,-231 238.5,-250"/>
<text text-anchor="middle" x="211.5" y="-238" font-family="Helvetica Neue" font-size="10.00">GritUI.h</text>
</a>
</g>
</g>
<!-- Node2 -->
<g id="Node000002" class="node">
<title>Node2</title>
<g id="a_Node000002"><a xlink:href="_module_u_i_8h.html" target="_top" xlink:title=" ">
<polygon fill="white" stroke="#666666" points="214.5,-195 112.5,-195 112.5,-176 214.5,-176 214.5,-195"/>
<text text-anchor="middle" x="163.5" y="-183" font-family="Helvetica Neue" font-size="10.00">../../ui/ModuleUI.h</text>
</a>
</g>
</g>
<!-- Node1&#45;&gt;Node2 -->
<g id="edge1_Node000001_Node000002" class="edge">
<title>Node1&#45;&gt;Node2</title>
<g id="a_edge1_Node000001_Node000002"><a xlink:title=" ">
<path fill="none" stroke="#63b8ff" d="M203.57,-230.75C196.65,-223.11 186.43,-211.82 178.05,-202.56"/>
<polygon fill="#63b8ff" stroke="#63b8ff" points="180.59,-200.15 171.28,-195.09 175.4,-204.85 180.59,-200.15"/>
</a>
</g>
</g>
<!-- Node7 -->
<g id="Node000007" class="node">
<title>Node7</title>
<g id="a_Node000007"><a xlink:href="_phi_dial_8h.html" target="_top" xlink:title=" ">
<polygon fill="white" stroke="#666666" points="310,-85 209,-85 209,-55 310,-55 310,-85"/>
<text text-anchor="start" x="217" y="-73" font-family="Helvetica Neue" font-size="10.00">../../ui/component</text>
<text text-anchor="middle" x="259.5" y="-62" font-family="Helvetica Neue" font-size="10.00">/PhiDial.h</text>
</a>
</g>
</g>
<!-- Node1&#45;&gt;Node7 -->
<g id="edge6_Node000001_Node000007" class="edge">
<title>Node1&#45;&gt;Node7</title>
<g id="a_edge6_Node000001_Node000007"><a xlink:title=" ">
<path fill="none" stroke="#63b8ff" d="M214.03,-230.99C219.11,-213.82 230.93,-173.76 240.5,-140 244.75,-125 249.4,-108.13 253.03,-94.83"/>
<polygon fill="#63b8ff" stroke="#63b8ff" points="256.45,-95.59 255.7,-85.03 249.7,-93.75 256.45,-95.59"/>
</a>
</g>
</g>
<!-- Node3 -->
<g id="Node000003" class="node">
<title>Node3</title>
<g id="a_Node000003"><a xlink:href="_phi_colours_8h.html" target="_top" xlink:title=" ">
<polygon fill="white" stroke="#666666" points="77,-140 0,-140 0,-121 77,-121 77,-140"/>
<text text-anchor="middle" x="38.5" y="-128" font-family="Helvetica Neue" font-size="10.00">PhiColours.h</text>
</a>
</g>
</g>
<!-- Node2&#45;&gt;Node3 -->
<g id="edge2_Node000002_Node000003" class="edge">
<title>Node2&#45;&gt;Node3</title>
<g id="a_edge2_Node000002_Node000003"><a xlink:title=" ">
<path fill="none" stroke="#63b8ff" d="M143.42,-175.98C123.13,-167.38 91.54,-153.99 68.33,-144.15"/>
<polygon fill="#63b8ff" stroke="#63b8ff" points="69.52,-140.85 58.95,-140.17 66.79,-147.3 69.52,-140.85"/>
</a>
</g>
</g>
<!-- Node4 -->
<g id="Node000004" class="node">
<title>Node4</title>
<g id="a_Node000004"><a xlink:href="_module_processor_8h.html" target="_top" xlink:title=" ">
<polygon fill="white" stroke="#666666" points="232,-140 95,-140 95,-121 232,-121 232,-140"/>
<text text-anchor="middle" x="163.5" y="-128" font-family="Helvetica Neue" font-size="10.00">../dsp/ModuleProcessor.h</text>
</a>
</g>
</g>
<!-- Node2&#45;&gt;Node4 -->
<g id="edge3_Node000002_Node000004" class="edge">
<title>Node2&#45;&gt;Node4</title>
<g id="a_edge3_Node000002_Node000004"><a xlink:title=" ">
<path fill="none" stroke="#63b8ff" d="M163.5,-175.75C163.5,-168.8 163.5,-158.85 163.5,-150.13"/>
<polygon fill="#63b8ff" stroke="#63b8ff" points="167,-150.09 163.5,-140.09 160,-150.09 167,-150.09"/>
</a>
</g>
</g>
<!-- Node5 -->
<g id="Node000005" class="node">
<title>Node5</title>
<g id="a_Node000005"><a xlink:href="_utils_8h.html" target="_top" xlink:title=" ">
<polygon fill="white" stroke="#666666" points="189.5,-79.5 141.5,-79.5 141.5,-60.5 189.5,-60.5 189.5,-79.5"/>
<text text-anchor="middle" x="165.5" y="-67.5" font-family="Helvetica Neue" font-size="10.00">Utils.h</text>
</a>
</g>
</g>
<!-- Node4&#45;&gt;Node5 -->
<g id="edge4_Node000004_Node000005" class="edge">
<title>Node4&#45;&gt;Node5</title>
<g id="a_edge4_Node000004_Node000005"><a xlink:title=" ">
<path fill="none" stroke="#63b8ff" d="M163.8,-120.87C164.07,-112.75 164.5,-100.31 164.85,-89.89"/>
<polygon fill="#63b8ff" stroke="#63b8ff" points="168.36,-89.78 165.2,-79.67 161.36,-89.54 168.36,-89.78"/>
</a>
</g>
</g>
<!-- Node6 -->
<g id="Node000006" class="node">
<title>Node6</title>
<g id="a_Node000006"><a xlink:title=" ">
<polygon fill="#e0e0e0" stroke="#999999" points="251.5,-19 171.5,-19 171.5,0 251.5,0 251.5,-19"/>
<text text-anchor="middle" x="211.5" y="-7" font-family="Helvetica Neue" font-size="10.00">JuceHeader.h</text>
</a>
</g>
</g>
<!-- Node5&#45;&gt;Node6 -->
<g id="edge5_Node000005_Node000006" class="edge">
<title>Node5&#45;&gt;Node6</title>
<g id="a_edge5_Node000005_Node000006"><a xlink:title=" ">
<path fill="none" stroke="#63b8ff" d="M172.29,-60.37C179.15,-51.64 189.93,-37.93 198.45,-27.09"/>
<polygon fill="#63b8ff" stroke="#63b8ff" points="201.25,-29.19 204.68,-19.17 195.75,-24.86 201.25,-29.19"/>
</a>
</g>
</g>
<!-- Node7&#45;&gt;Node6 -->
<g id="edge7_Node000007_Node000006" class="edge">
<title>Node7&#45;&gt;Node6</title>
<g id="a_edge7_Node000007_Node000006"><a xlink:title=" ">
<path fill="none" stroke="#63b8ff" d="M247.88,-54.84C241.06,-46.52 232.39,-35.96 225.23,-27.23"/>
<polygon fill="#63b8ff" stroke="#63b8ff" points="227.74,-24.78 218.69,-19.27 222.33,-29.22 227.74,-24.78"/>
</a>
</g>
</g>
</g>
</svg>
