<?xml version="1.0" encoding="UTF-8" standalone="no"?>
<!DOCTYPE svg PUBLIC "-//W3C//DTD SVG 1.1//EN"
 "http://www.w3.org/Graphics/SVG/1.1/DTD/svg11.dtd">
<!-- Generated by graphviz version 2.38.0 (20140413.2041)
 -->
<!-- Title: ImpulseProcessor.h Pages: 1 -->
<svg width="298pt" height="308pt"
 viewBox="0.00 0.00 298.00 308.00" xmlns="http://www.w3.org/2000/svg" xmlns:xlink="http://www.w3.org/1999/xlink">
<g id="graph0" class="graph" transform="scale(1 1) rotate(0) translate(4 304)">
<title>ImpulseProcessor.h</title>
<polygon fill="white" stroke="none" points="-4,4 -4,-304 294,-304 294,4 -4,4"/>
<!-- Node1 -->
<g id="node1" class="node"><title>Node1</title>
<polygon fill="#bfbfbf" stroke="black" points="138.5,-280.5 138.5,-299.5 248.5,-299.5 248.5,-280.5 138.5,-280.5"/>
<text text-anchor="middle" x="193.5" y="-287.5" font-family="Helvetica Neue" font-size="10.00">ImpulseProcessor.h</text>
</g>
<!-- Node2 -->
<g id="node2" class="node"><title>Node2</title>
<g id="a_node2"><a xlink:href="_modules_8h.html" target="_top" xlink:title="Modules.h">
<polygon fill="white" stroke="black" points="161,-224.5 161,-243.5 226,-243.5 226,-224.5 161,-224.5"/>
<text text-anchor="middle" x="193.5" y="-231.5" font-family="Helvetica Neue" font-size="10.00">Modules.h</text>
</a>
</g>
</g>
<!-- Node1&#45;&gt;Node2 -->
<g id="edge1" class="edge"><title>Node1&#45;&gt;Node2</title>
<path fill="none" stroke="midnightblue" d="M193.5,-269.805C193.5,-260.91 193.5,-250.78 193.5,-243.751"/>
<polygon fill="midnightblue" stroke="midnightblue" points="190,-270.083 193.5,-280.083 197,-270.083 190,-270.083"/>
</g>
<!-- Node3 -->
<g id="node3" class="node"><title>Node3</title>
<g id="a_node3"><a xlink:href="_module_box_8h.html" target="_top" xlink:title="ModuleBox.h">
<polygon fill="white" stroke="black" points="154.5,-168.5 154.5,-187.5 232.5,-187.5 232.5,-168.5 154.5,-168.5"/>
<text text-anchor="middle" x="193.5" y="-175.5" font-family="Helvetica Neue" font-size="10.00">ModuleBox.h</text>
</a>
</g>
</g>
<!-- Node2&#45;&gt;Node3 -->
<g id="edge2" class="edge"><title>Node2&#45;&gt;Node3</title>
<path fill="none" stroke="midnightblue" d="M193.5,-213.805C193.5,-204.91 193.5,-194.78 193.5,-187.751"/>
<polygon fill="midnightblue" stroke="midnightblue" points="190,-214.083 193.5,-224.083 197,-214.083 190,-214.083"/>
</g>
<!-- Node4 -->
<g id="node4" class="node"><title>Node4</title>
<g id="a_node4"><a xlink:href="_main_patcher_8h.html" target="_top" xlink:title="MainPatcher.h">
<polygon fill="white" stroke="black" points="100,-112.5 100,-131.5 183,-131.5 183,-112.5 100,-112.5"/>
<text text-anchor="middle" x="141.5" y="-119.5" font-family="Helvetica Neue" font-size="10.00">MainPatcher.h</text>
</a>
</g>
</g>
<!-- Node3&#45;&gt;Node4 -->
<g id="edge3" class="edge"><title>Node3&#45;&gt;Node4</title>
<path fill="none" stroke="midnightblue" d="M177.821,-160.718C168.655,-151.2 157.447,-139.561 149.927,-131.751"/>
<polygon fill="midnightblue" stroke="midnightblue" points="175.456,-163.308 184.913,-168.083 180.498,-158.452 175.456,-163.308"/>
</g>
<!-- Node9 -->
<g id="node9" class="node"><title>Node9</title>
<g id="a_node9"><a xlink:href="_module_box_8cpp.html" target="_top" xlink:title="ModuleBox.cpp">
<polygon fill="white" stroke="black" points="201,-112.5 201,-131.5 290,-131.5 290,-112.5 201,-112.5"/>
<text text-anchor="middle" x="245.5" y="-119.5" font-family="Helvetica Neue" font-size="10.00">ModuleBox.cpp</text>
</a>
</g>
</g>
<!-- Node3&#45;&gt;Node9 -->
<g id="edge8" class="edge"><title>Node3&#45;&gt;Node9</title>
<path fill="none" stroke="midnightblue" d="M209.179,-160.718C218.345,-151.2 229.553,-139.561 237.073,-131.751"/>
<polygon fill="midnightblue" stroke="midnightblue" points="206.502,-158.452 202.087,-168.083 211.544,-163.308 206.502,-158.452"/>
</g>
<!-- Node5 -->
<g id="node5" class="node"><title>Node5</title>
<g id="a_node5"><a xlink:href="_main_component_8h.html" target="_top" xlink:title="MainComponent.h">
<polygon fill="white" stroke="black" points="30.5,-56.5 30.5,-75.5 134.5,-75.5 134.5,-56.5 30.5,-56.5"/>
<text text-anchor="middle" x="82.5" y="-63.5" font-family="Helvetica Neue" font-size="10.00">MainComponent.h</text>
</a>
</g>
</g>
<!-- Node4&#45;&gt;Node5 -->
<g id="edge4" class="edge"><title>Node4&#45;&gt;Node5</title>
<path fill="none" stroke="midnightblue" d="M124.605,-105.537C114.085,-95.9087 100.931,-83.8694 92.1519,-75.8339"/>
<polygon fill="midnightblue" stroke="midnightblue" points="122.281,-108.154 132.021,-112.324 127.007,-102.99 122.281,-108.154"/>
</g>
<!-- Node8 -->
<g id="node8" class="node"><title>Node8</title>
<g id="a_node8"><a xlink:href="_main_patcher_8cpp.html" target="_top" xlink:title="MainPatcher.cpp">
<polygon fill="white" stroke="black" points="153,-56.5 153,-75.5 248,-75.5 248,-56.5 153,-56.5"/>
<text text-anchor="middle" x="200.5" y="-63.5" font-family="Helvetica Neue" font-size="10.00">MainPatcher.cpp</text>
</a>
</g>
</g>
<!-- Node4&#45;&gt;Node8 -->
<g id="edge7" class="edge"><title>Node4&#45;&gt;Node8</title>
<path fill="none" stroke="midnightblue" d="M158.395,-105.537C168.915,-95.9087 182.069,-83.8694 190.848,-75.8339"/>
<polygon fill="midnightblue" stroke="midnightblue" points="155.993,-102.99 150.979,-112.324 160.719,-108.154 155.993,-102.99"/>
</g>
<!-- Node6 -->
<g id="node6" class="node"><title>Node6</title>
<g id="a_node6"><a xlink:href="_main_8cpp.html" target="_top" xlink:title="Main.cpp">
<polygon fill="white" stroke="black" points="0,-0.5 0,-19.5 59,-19.5 59,-0.5 0,-0.5"/>
<text text-anchor="middle" x="29.5" y="-7.5" font-family="Helvetica Neue" font-size="10.00">Main.cpp</text>
</a>
</g>
</g>
<!-- Node5&#45;&gt;Node6 -->
<g id="edge5" class="edge"><title>Node5&#45;&gt;Node6</title>
<path fill="none" stroke="midnightblue" d="M66.5191,-48.7175C57.1775,-39.1997 45.7541,-27.5608 38.089,-19.7511"/>
<polygon fill="midnightblue" stroke="midnightblue" points="64.2455,-51.3978 73.7481,-56.083 69.2413,-46.4945 64.2455,-51.3978"/>
</g>
<!-- Node7 -->
<g id="node7" class="node"><title>Node7</title>
<g id="a_node7"><a xlink:href="_main_component_8cpp.html" target="_top" xlink:title="MainComponent.cpp">
<polygon fill="white" stroke="black" points="77.5,-0.5 77.5,-19.5 193.5,-19.5 193.5,-0.5 77.5,-0.5"/>
<text text-anchor="middle" x="135.5" y="-7.5" font-family="Helvetica Neue" font-size="10.00">MainComponent.cpp</text>
</a>
</g>
</g>
<!-- Node5&#45;&gt;Node7 -->
<g id="edge6" class="edge"><title>Node5&#45;&gt;Node7</title>
<path fill="none" stroke="midnightblue" d="M98.4809,-48.7175C107.822,-39.1997 119.246,-27.5608 126.911,-19.7511"/>
<polygon fill="midnightblue" stroke="midnightblue" points="95.7587,-46.4945 91.2519,-56.083 100.754,-51.3978 95.7587,-46.4945"/>
</g>
</g>
</svg>
