<?xml version="1.0" encoding="UTF-8" standalone="no"?>
<!DOCTYPE svg PUBLIC "-//W3C//DTD SVG 1.1//EN"
 "http://www.w3.org/Graphics/SVG/1.1/DTD/svg11.dtd">
<!-- Generated by graphviz version 2.43.0 (0)
 -->
<!-- Title: LFOUI.h Pages: 1 -->
<svg width="398pt" height="269pt"
 viewBox="0.00 0.00 398.00 269.00" xmlns="http://www.w3.org/2000/svg" xmlns:xlink="http://www.w3.org/1999/xlink">
<g id="graph0" class="graph" transform="scale(1 1) rotate(0) translate(4 265)">
<title>LFOUI.h</title>
<!-- Node1 -->
<g id="Node000001" class="node">
<title>Node1</title>
<g id="a_Node000001"><a xlink:title=" ">
<polygon fill="#999999" stroke="#666666" points="288,-261 233,-261 233,-242 288,-242 288,-261"/>
<text text-anchor="middle" x="260.5" y="-249" font-family="Helvetica Neue" font-size="10.00">LFOUI.h</text>
</a>
</g>
</g>
<!-- Node2 -->
<g id="Node000002" class="node">
<title>Node2</title>
<g id="a_Node000002"><a xlink:href="_module_u_i_8h.html" target="_top" xlink:title=" ">
<polygon fill="white" stroke="#666666" points="214.5,-200.5 112.5,-200.5 112.5,-181.5 214.5,-181.5 214.5,-200.5"/>
<text text-anchor="middle" x="163.5" y="-188.5" font-family="Helvetica Neue" font-size="10.00">../../ui/ModuleUI.h</text>
</a>
</g>
</g>
<!-- Node1&#45;&gt;Node2 -->
<g id="edge1_Node000001_Node000002" class="edge">
<title>Node1&#45;&gt;Node2</title>
<g id="a_edge1_Node000001_Node000002"><a xlink:title=" ">
<path fill="none" stroke="#63b8ff" d="M246.19,-241.87C230.5,-232.41 205.1,-217.09 186.59,-205.92"/>
<polygon fill="#63b8ff" stroke="#63b8ff" points="188.24,-202.83 177.87,-200.67 184.63,-208.83 188.24,-202.83"/>
</a>
</g>
</g>
<!-- Node7 -->
<g id="Node000007" class="node">
<title>Node7</title>
<g id="a_Node000007"><a xlink:href="_phi_dial_8h.html" target="_top" xlink:title=" ">
<polygon fill="white" stroke="#666666" points="310,-85 209,-85 209,-55 310,-55 310,-85"/>
<text text-anchor="start" x="217" y="-73" font-family="Helvetica Neue" font-size="10.00">../../ui/component</text>
<text text-anchor="middle" x="259.5" y="-62" font-family="Helvetica Neue" font-size="10.00">/PhiDial.h</text>
</a>
</g>
</g>
<!-- Node1&#45;&gt;Node7 -->
<g id="edge6_Node000001_Node000007" class="edge">
<title>Node1&#45;&gt;Node7</title>
<g id="a_edge6_Node000001_Node000007"><a xlink:title=" ">
<path fill="none" stroke="#63b8ff" d="M260.45,-241.84C260.31,-215.54 259.86,-135.9 259.64,-95.33"/>
<polygon fill="#63b8ff" stroke="#63b8ff" points="263.13,-95.2 259.58,-85.22 256.14,-95.24 263.13,-95.2"/>
</a>
</g>
</g>
<!-- Node8 -->
<g id="Node000008" class="node">
<title>Node8</title>
<g id="a_Node000008"><a xlink:href="_phi_waveform_8h.html" target="_top" xlink:title=" ">
<polygon fill="white" stroke="#666666" points="390,-206 289,-206 289,-176 390,-176 390,-206"/>
<text text-anchor="start" x="297" y="-194" font-family="Helvetica Neue" font-size="10.00">../../ui/component</text>
<text text-anchor="middle" x="339.5" y="-183" font-family="Helvetica Neue" font-size="10.00">/PhiWaveform.h</text>
</a>
</g>
</g>
<!-- Node1&#45;&gt;Node8 -->
<g id="edge8_Node000001_Node000008" class="edge">
<title>Node1&#45;&gt;Node8</title>
<g id="a_edge8_Node000001_Node000008"><a xlink:title=" ">
<path fill="none" stroke="#63b8ff" d="M272.16,-241.87C282.68,-234.08 298.56,-222.32 312.26,-212.17"/>
<polygon fill="#63b8ff" stroke="#63b8ff" points="314.49,-214.88 320.44,-206.11 310.32,-209.25 314.49,-214.88"/>
</a>
</g>
</g>
<!-- Node3 -->
<g id="Node000003" class="node">
<title>Node3</title>
<g id="a_Node000003"><a xlink:href="_phi_colours_8h.html" target="_top" xlink:title=" ">
<polygon fill="white" stroke="#666666" points="77,-140 0,-140 0,-121 77,-121 77,-140"/>
<text text-anchor="middle" x="38.5" y="-128" font-family="Helvetica Neue" font-size="10.00">PhiColours.h</text>
</a>
</g>
</g>
<!-- Node2&#45;&gt;Node3 -->
<g id="edge2_Node000002_Node000003" class="edge">
<title>Node2&#45;&gt;Node3</title>
<g id="a_edge2_Node000002_Node000003"><a xlink:title=" ">
<path fill="none" stroke="#63b8ff" d="M145.32,-181.49C124.49,-171.75 90.13,-155.66 66.02,-144.38"/>
<polygon fill="#63b8ff" stroke="#63b8ff" points="67.24,-141.09 56.7,-140.02 64.27,-147.43 67.24,-141.09"/>
</a>
</g>
</g>
<!-- Node4 -->
<g id="Node000004" class="node">
<title>Node4</title>
<g id="a_Node000004"><a xlink:href="_module_processor_8h.html" target="_top" xlink:title=" ">
<polygon fill="white" stroke="#666666" points="232,-140 95,-140 95,-121 232,-121 232,-140"/>
<text text-anchor="middle" x="163.5" y="-128" font-family="Helvetica Neue" font-size="10.00">../dsp/ModuleProcessor.h</text>
</a>
</g>
</g>
<!-- Node2&#45;&gt;Node4 -->
<g id="edge3_Node000002_Node000004" class="edge">
<title>Node2&#45;&gt;Node4</title>
<g id="a_edge3_Node000002_Node000004"><a xlink:title=" ">
<path fill="none" stroke="#63b8ff" d="M163.5,-181.37C163.5,-173.25 163.5,-160.81 163.5,-150.39"/>
<polygon fill="#63b8ff" stroke="#63b8ff" points="167,-150.17 163.5,-140.17 160,-150.17 167,-150.17"/>
</a>
</g>
</g>
<!-- Node5 -->
<g id="Node000005" class="node">
<title>Node5</title>
<g id="a_Node000005"><a xlink:href="_utils_8h.html" target="_top" xlink:title=" ">
<polygon fill="white" stroke="#666666" points="189.5,-79.5 141.5,-79.5 141.5,-60.5 189.5,-60.5 189.5,-79.5"/>
<text text-anchor="middle" x="165.5" y="-67.5" font-family="Helvetica Neue" font-size="10.00">Utils.h</text>
</a>
</g>
</g>
<!-- Node4&#45;&gt;Node5 -->
<g id="edge4_Node000004_Node000005" class="edge">
<title>Node4&#45;&gt;Node5</title>
<g id="a_edge4_Node000004_Node000005"><a xlink:title=" ">
<path fill="none" stroke="#63b8ff" d="M163.8,-120.87C164.07,-112.75 164.5,-100.31 164.85,-89.89"/>
<polygon fill="#63b8ff" stroke="#63b8ff" points="168.36,-89.78 165.2,-79.67 161.36,-89.54 168.36,-89.78"/>
</a>
</g>
</g>
<!-- Node6 -->
<g id="Node000006" class="node">
<title>Node6</title>
<g id="a_Node000006"><a xlink:title=" ">
<polygon fill="#e0e0e0" stroke="#999999" points="251.5,-19 171.5,-19 171.5,0 251.5,0 251.5,-19"/>
<text text-anchor="middle" x="211.5" y="-7" font-family="Helvetica Neue" font-size="10.00">JuceHeader.h</text>
</a>
</g>
</g>
<!-- Node5&#45;&gt;Node6 -->
<g id="edge5_Node000005_Node000006" class="edge">
<title>Node5&#45;&gt;Node6</title>
<g id="a_edge5_Node000005_Node000006"><a xlink:title=" ">
<path fill="none" stroke="#63b8ff" d="M172.29,-60.37C179.15,-51.64 189.93,-37.93 198.45,-27.09"/>
<polygon fill="#63b8ff" stroke="#63b8ff" points="201.25,-29.19 204.68,-19.17 195.75,-24.86 201.25,-29.19"/>
</a>
</g>
</g>
<!-- Node7&#45;&gt;Node6 -->
<g id="edge7_Node000007_Node000006" class="edge">
<title>Node7&#45;&gt;Node6</title>
<g id="a_edge7_Node000007_Node000006"><a xlink:title=" ">
<path fill="none" stroke="#63b8ff" d="M247.88,-54.84C241.06,-46.52 232.39,-35.96 225.23,-27.23"/>
<polygon fill="#63b8ff" stroke="#63b8ff" points="227.74,-24.78 218.69,-19.27 222.33,-29.22 227.74,-24.78"/>
</a>
</g>
</g>
</g>
</svg>
