<?xml version="1.0" encoding="UTF-8" standalone="no"?>
<!DOCTYPE svg PUBLIC "-//W3C//DTD SVG 1.1//EN"
 "http://www.w3.org/Graphics/SVG/1.1/DTD/svg11.dtd">
<!-- Generated by graphviz version 2.43.0 (0)
 -->
<!-- Title: LFOProcessor.h Pages: 1 -->
<svg width="312pt" height="324pt"
 viewBox="0.00 0.00 312.00 324.00" xmlns="http://www.w3.org/2000/svg" xmlns:xlink="http://www.w3.org/1999/xlink">
<g id="graph0" class="graph" transform="scale(1 1) rotate(0) translate(4 320)">
<title>LFOProcessor.h</title>
<!-- Node1 -->
<g id="Node000001" class="node">
<title>Node1</title>
<g id="a_Node000001"><a xlink:title=" ">
<polygon fill="#999999" stroke="#666666" points="182,-316 91,-316 91,-297 182,-297 182,-316"/>
<text text-anchor="middle" x="136.5" y="-304" font-family="Helvetica Neue" font-size="10.00">LFOProcessor.h</text>
</a>
</g>
</g>
<!-- Node2 -->
<g id="Node000002" class="node">
<title>Node2</title>
<g id="a_Node000002"><a xlink:href="_l_f_o_8h.html" target="_top" xlink:title=" ">
<polygon fill="white" stroke="#666666" points="90.5,-261 46.5,-261 46.5,-242 90.5,-242 90.5,-261"/>
<text text-anchor="middle" x="68.5" y="-249" font-family="Helvetica Neue" font-size="10.00">LFO.h</text>
</a>
</g>
</g>
<!-- Node1&#45;&gt;Node2 -->
<g id="edge1_Node000001_Node000002" class="edge">
<title>Node1&#45;&gt;Node2</title>
<g id="a_edge1_Node000001_Node000002"><a xlink:title=" ">
<path fill="none" stroke="#63b8ff" d="M125.57,-296.98C115.42,-289.07 100.08,-277.11 87.85,-267.58"/>
<polygon fill="#63b8ff" stroke="#63b8ff" points="89.66,-264.56 79.62,-261.17 85.36,-270.08 89.66,-264.56"/>
</a>
</g>
</g>
<!-- Node3 -->
<g id="Node000003" class="node">
<title>Node3</title>
<g id="a_Node000003"><a xlink:href="_l_f_o_u_i_8h.html" target="_top" xlink:title=" ">
<polygon fill="white" stroke="#666666" points="164,-261 109,-261 109,-242 164,-242 164,-261"/>
<text text-anchor="middle" x="136.5" y="-249" font-family="Helvetica Neue" font-size="10.00">LFOUI.h</text>
</a>
</g>
</g>
<!-- Node1&#45;&gt;Node3 -->
<g id="edge2_Node000001_Node000003" class="edge">
<title>Node1&#45;&gt;Node3</title>
<g id="a_edge2_Node000001_Node000003"><a xlink:title=" ">
<path fill="none" stroke="#63b8ff" d="M136.5,-296.75C136.5,-289.8 136.5,-279.85 136.5,-271.13"/>
<polygon fill="#63b8ff" stroke="#63b8ff" points="140,-271.09 136.5,-261.09 133,-271.09 140,-271.09"/>
</a>
</g>
</g>
<!-- Node6 -->
<g id="Node000006" class="node">
<title>Node6</title>
<g id="a_Node000006"><a xlink:href="_module_processor_8h.html" target="_top" xlink:title=" ">
<polygon fill="white" stroke="#666666" points="304,-140 167,-140 167,-121 304,-121 304,-140"/>
<text text-anchor="middle" x="235.5" y="-128" font-family="Helvetica Neue" font-size="10.00">../dsp/ModuleProcessor.h</text>
</a>
</g>
</g>
<!-- Node1&#45;&gt;Node6 -->
<g id="edge11_Node000001_Node000006" class="edge">
<title>Node1&#45;&gt;Node6</title>
<g id="a_edge11_Node000001_Node000006"><a xlink:title=" ">
<path fill="none" stroke="#63b8ff" d="M155.07,-296.78C183.17,-282.41 235.44,-250.82 256.5,-206 265.3,-187.27 255.91,-164.11 247.03,-148.63"/>
<polygon fill="#63b8ff" stroke="#63b8ff" points="249.98,-146.74 241.74,-140.09 244.03,-150.43 249.98,-146.74"/>
</a>
</g>
</g>
<!-- Node4 -->
<g id="Node000004" class="node">
<title>Node4</title>
<g id="a_Node000004"><a xlink:href="_module_u_i_8h.html" target="_top" xlink:title=" ">
<polygon fill="white" stroke="#666666" points="247.5,-200.5 145.5,-200.5 145.5,-181.5 247.5,-181.5 247.5,-200.5"/>
<text text-anchor="middle" x="196.5" y="-188.5" font-family="Helvetica Neue" font-size="10.00">../../ui/ModuleUI.h</text>
</a>
</g>
</g>
<!-- Node3&#45;&gt;Node4 -->
<g id="edge3_Node000003_Node000004" class="edge">
<title>Node3&#45;&gt;Node4</title>
<g id="a_edge3_Node000003_Node000004"><a xlink:title=" ">
<path fill="none" stroke="#63b8ff" d="M145.35,-241.87C154.48,-232.97 168.92,-218.89 180.14,-207.95"/>
<polygon fill="#63b8ff" stroke="#63b8ff" points="182.89,-210.15 187.61,-200.67 178.01,-205.14 182.89,-210.15"/>
</a>
</g>
</g>
<!-- Node9 -->
<g id="Node000009" class="node">
<title>Node9</title>
<g id="a_Node000009"><a xlink:href="_phi_dial_8h.html" target="_top" xlink:title=" ">
<polygon fill="white" stroke="#666666" points="101,-85 0,-85 0,-55 101,-55 101,-85"/>
<text text-anchor="start" x="8" y="-73" font-family="Helvetica Neue" font-size="10.00">../../ui/component</text>
<text text-anchor="middle" x="50.5" y="-62" font-family="Helvetica Neue" font-size="10.00">/PhiDial.h</text>
</a>
</g>
</g>
<!-- Node3&#45;&gt;Node9 -->
<g id="edge8_Node000003_Node000009" class="edge">
<title>Node3&#45;&gt;Node9</title>
<g id="a_edge8_Node000003_Node000009"><a xlink:title=" ">
<path fill="none" stroke="#63b8ff" d="M108.9,-244.13C76.96,-236.13 27.32,-221.55 16.5,-206 -7.29,-171.81 16.36,-122.47 34.36,-93.87"/>
<polygon fill="#63b8ff" stroke="#63b8ff" points="37.38,-95.64 39.94,-85.36 31.53,-91.81 37.38,-95.64"/>
</a>
</g>
</g>
<!-- Node10 -->
<g id="Node000010" class="node">
<title>Node10</title>
<g id="a_Node000010"><a xlink:href="_phi_waveform_8h.html" target="_top" xlink:title=" ">
<polygon fill="white" stroke="#666666" points="127,-206 26,-206 26,-176 127,-176 127,-206"/>
<text text-anchor="start" x="34" y="-194" font-family="Helvetica Neue" font-size="10.00">../../ui/component</text>
<text text-anchor="middle" x="76.5" y="-183" font-family="Helvetica Neue" font-size="10.00">/PhiWaveform.h</text>
</a>
</g>
</g>
<!-- Node3&#45;&gt;Node10 -->
<g id="edge10_Node000003_Node000010" class="edge">
<title>Node3&#45;&gt;Node10</title>
<g id="a_edge10_Node000003_Node000010"><a xlink:title=" ">
<path fill="none" stroke="#63b8ff" d="M127.65,-241.87C119.96,-234.37 108.5,-223.2 98.37,-213.33"/>
<polygon fill="#63b8ff" stroke="#63b8ff" points="100.58,-210.59 90.98,-206.11 95.69,-215.6 100.58,-210.59"/>
</a>
</g>
</g>
<!-- Node5 -->
<g id="Node000005" class="node">
<title>Node5</title>
<g id="a_Node000005"><a xlink:href="_phi_colours_8h.html" target="_top" xlink:title=" ">
<polygon fill="white" stroke="#666666" points="149,-140 72,-140 72,-121 149,-121 149,-140"/>
<text text-anchor="middle" x="110.5" y="-128" font-family="Helvetica Neue" font-size="10.00">PhiColours.h</text>
</a>
</g>
</g>
<!-- Node4&#45;&gt;Node5 -->
<g id="edge4_Node000004_Node000005" class="edge">
<title>Node4&#45;&gt;Node5</title>
<g id="a_edge4_Node000004_Node000005"><a xlink:title=" ">
<path fill="none" stroke="#63b8ff" d="M183.81,-181.37C170.09,-172.04 148,-157.01 131.65,-145.88"/>
<polygon fill="#63b8ff" stroke="#63b8ff" points="133.48,-142.9 123.24,-140.17 129.54,-148.69 133.48,-142.9"/>
</a>
</g>
</g>
<!-- Node4&#45;&gt;Node6 -->
<g id="edge5_Node000004_Node000006" class="edge">
<title>Node4&#45;&gt;Node6</title>
<g id="a_edge5_Node000004_Node000006"><a xlink:title=" ">
<path fill="none" stroke="#63b8ff" d="M202.25,-181.37C207.96,-172.81 216.85,-159.47 224.01,-148.74"/>
<polygon fill="#63b8ff" stroke="#63b8ff" points="227.09,-150.43 229.72,-140.17 221.26,-146.55 227.09,-150.43"/>
</a>
</g>
</g>
<!-- Node7 -->
<g id="Node000007" class="node">
<title>Node7</title>
<g id="a_Node000007"><a xlink:href="_utils_8h.html" target="_top" xlink:title=" ">
<polygon fill="white" stroke="#666666" points="193.5,-79.5 145.5,-79.5 145.5,-60.5 193.5,-60.5 193.5,-79.5"/>
<text text-anchor="middle" x="169.5" y="-67.5" font-family="Helvetica Neue" font-size="10.00">Utils.h</text>
</a>
</g>
</g>
<!-- Node6&#45;&gt;Node7 -->
<g id="edge6_Node000006_Node000007" class="edge">
<title>Node6&#45;&gt;Node7</title>
<g id="a_edge6_Node000006_Node000007"><a xlink:title=" ">
<path fill="none" stroke="#63b8ff" d="M225.76,-120.87C215.53,-111.8 199.21,-97.34 186.78,-86.32"/>
<polygon fill="#63b8ff" stroke="#63b8ff" points="189.08,-83.68 179.28,-79.67 184.44,-88.92 189.08,-83.68"/>
</a>
</g>
</g>
<!-- Node8 -->
<g id="Node000008" class="node">
<title>Node8</title>
<g id="a_Node000008"><a xlink:title=" ">
<polygon fill="#e0e0e0" stroke="#999999" points="136.5,-19 56.5,-19 56.5,0 136.5,0 136.5,-19"/>
<text text-anchor="middle" x="96.5" y="-7" font-family="Helvetica Neue" font-size="10.00">JuceHeader.h</text>
</a>
</g>
</g>
<!-- Node7&#45;&gt;Node8 -->
<g id="edge7_Node000007_Node000008" class="edge">
<title>Node7&#45;&gt;Node8</title>
<g id="a_edge7_Node000007_Node000008"><a xlink:title=" ">
<path fill="none" stroke="#63b8ff" d="M158.73,-60.37C147.3,-51.21 129.02,-36.56 115.22,-25.51"/>
<polygon fill="#63b8ff" stroke="#63b8ff" points="117.31,-22.69 107.32,-19.17 112.93,-28.15 117.31,-22.69"/>
</a>
</g>
</g>
<!-- Node9&#45;&gt;Node8 -->
<g id="edge9_Node000009_Node000008" class="edge">
<title>Node9&#45;&gt;Node8</title>
<g id="a_edge9_Node000009_Node000008"><a xlink:title=" ">
<path fill="none" stroke="#63b8ff" d="M61.64,-54.84C68.18,-46.52 76.48,-35.96 83.34,-27.23"/>
<polygon fill="#63b8ff" stroke="#63b8ff" points="86.18,-29.29 89.61,-19.27 80.67,-24.96 86.18,-29.29"/>
</a>
</g>
</g>
</g>
</svg>
