<?xml version="1.0" encoding="UTF-8" standalone="no"?>
<!DOCTYPE svg PUBLIC "-//W3C//DTD SVG 1.1//EN"
 "http://www.w3.org/Graphics/SVG/1.1/DTD/svg11.dtd">
<!-- Generated by graphviz version 2.38.0 (20140413.2041)
 -->
<!-- Title: MainComponent.cpp Pages: 1 -->
<svg width="843pt" height="588pt"
 viewBox="0.00 0.00 843.06 588.00" xmlns="http://www.w3.org/2000/svg" xmlns:xlink="http://www.w3.org/1999/xlink">
<g id="graph0" class="graph" transform="scale(1 1) rotate(0) translate(4 584)">
<title>MainComponent.cpp</title>
<polygon fill="white" stroke="none" points="-4,4 -4,-584 839.061,-584 839.061,4 -4,4"/>
<!-- Node1 -->
<g id="node1" class="node"><title>Node1</title>
<polygon fill="#bfbfbf" stroke="black" points="642,-560.5 642,-579.5 758,-579.5 758,-560.5 642,-560.5"/>
<text text-anchor="middle" x="700" y="-567.5" font-family="Helvetica Neue" font-size="10.00">MainComponent.cpp</text>
</g>
<!-- Node2 -->
<g id="node2" class="node"><title>Node2</title>
<g id="a_node2"><a xlink:href="_main_component_8h.html" target="_top" xlink:title="MainComponent.h">
<polygon fill="white" stroke="black" points="648,-504.5 648,-523.5 752,-523.5 752,-504.5 648,-504.5"/>
<text text-anchor="middle" x="700" y="-511.5" font-family="Helvetica Neue" font-size="10.00">MainComponent.h</text>
</a>
</g>
</g>
<!-- Node1&#45;&gt;Node2 -->
<g id="edge1" class="edge"><title>Node1&#45;&gt;Node2</title>
<path fill="none" stroke="midnightblue" d="M700,-560.083C700,-553.006 700,-542.861 700,-533.986"/>
<polygon fill="midnightblue" stroke="midnightblue" points="703.5,-533.751 700,-523.751 696.5,-533.751 703.5,-533.751"/>
</g>
<!-- Node3 -->
<g id="node3" class="node"><title>Node3</title>
<g id="a_node3"><a xlink:href="_phi_colours_8h.html" target="_top" xlink:title="PhiColours.h">
<polygon fill="white" stroke="black" points="699,-280.5 699,-299.5 775,-299.5 775,-280.5 699,-280.5"/>
<text text-anchor="middle" x="737" y="-287.5" font-family="Helvetica Neue" font-size="10.00">PhiColours.h</text>
</a>
</g>
</g>
<!-- Node2&#45;&gt;Node3 -->
<g id="edge2" class="edge"><title>Node2&#45;&gt;Node3</title>
<path fill="none" stroke="midnightblue" d="M711.768,-504.442C739.78,-483.199 809.736,-424.776 832,-356 834.738,-347.543 836.753,-343.511 832,-336 821.46,-319.345 802.905,-308.734 784.974,-302.031"/>
<polygon fill="midnightblue" stroke="midnightblue" points="785.726,-298.59 775.131,-298.696 783.479,-305.22 785.726,-298.59"/>
</g>
<!-- Node4 -->
<g id="node4" class="node"><title>Node4</title>
<g id="a_node4"><a xlink:href="_main_patcher_8h.html" target="_top" xlink:title="MainPatcher.h">
<polygon fill="white" stroke="black" points="658.5,-448.5 658.5,-467.5 741.5,-467.5 741.5,-448.5 658.5,-448.5"/>
<text text-anchor="middle" x="700" y="-455.5" font-family="Helvetica Neue" font-size="10.00">MainPatcher.h</text>
</a>
</g>
</g>
<!-- Node2&#45;&gt;Node4 -->
<g id="edge3" class="edge"><title>Node2&#45;&gt;Node4</title>
<path fill="none" stroke="midnightblue" d="M700,-504.083C700,-497.006 700,-486.861 700,-477.986"/>
<polygon fill="midnightblue" stroke="midnightblue" points="703.5,-477.751 700,-467.751 696.5,-477.751 703.5,-477.751"/>
</g>
<!-- Node20 -->
<g id="node20" class="node"><title>Node20</title>
<g id="a_node20"><a xlink:href="_phi_slider_button_8h.html" target="_top" xlink:title="../../ui/PhiSliderButton.h">
<polygon fill="white" stroke="black" points="0,-168.5 0,-187.5 128,-187.5 128,-168.5 0,-168.5"/>
<text text-anchor="middle" x="64" y="-175.5" font-family="Helvetica Neue" font-size="10.00">../../ui/PhiSliderButton.h</text>
</a>
</g>
</g>
<!-- Node2&#45;&gt;Node20 -->
<g id="edge34" class="edge"><title>Node2&#45;&gt;Node20</title>
<path fill="none" stroke="midnightblue" d="M647.822,-510.095C488.161,-500.517 17,-466.843 17,-403 17,-403 17,-403 17,-289 17,-253.702 37.7184,-216.786 51.6436,-195.96"/>
<polygon fill="midnightblue" stroke="midnightblue" points="54.63,-197.796 57.4649,-187.587 48.8826,-193.8 54.63,-197.796"/>
</g>
<!-- Node5 -->
<g id="node5" class="node"><title>Node5</title>
<g id="a_node5"><a xlink:href="_module_box_8h.html" target="_top" xlink:title="ModuleBox.h">
<polygon fill="white" stroke="black" points="550,-392.5 550,-411.5 628,-411.5 628,-392.5 550,-392.5"/>
<text text-anchor="middle" x="589" y="-399.5" font-family="Helvetica Neue" font-size="10.00">ModuleBox.h</text>
</a>
</g>
</g>
<!-- Node4&#45;&gt;Node5 -->
<g id="edge4" class="edge"><title>Node4&#45;&gt;Node5</title>
<path fill="none" stroke="midnightblue" d="M682.166,-448.324C664.284,-439.625 636.525,-426.12 615.954,-416.113"/>
<polygon fill="midnightblue" stroke="midnightblue" points="617.313,-412.882 606.79,-411.655 614.251,-419.177 617.313,-412.882"/>
</g>
<!-- Node23 -->
<g id="node23" class="node"><title>Node23</title>
<g id="a_node23"><a xlink:href="_connections_8h.html" target="_top" xlink:title="Connections.h">
<polygon fill="white" stroke="black" points="737.5,-336.5 737.5,-355.5 822.5,-355.5 822.5,-336.5 737.5,-336.5"/>
<text text-anchor="middle" x="780" y="-343.5" font-family="Helvetica Neue" font-size="10.00">Connections.h</text>
</a>
</g>
</g>
<!-- Node4&#45;&gt;Node23 -->
<g id="edge28" class="edge"><title>Node4&#45;&gt;Node23</title>
<path fill="none" stroke="midnightblue" d="M713.014,-448.326C724.526,-440.105 741.137,-426.834 752,-412 762.426,-397.764 769.966,-379.045 774.577,-365.353"/>
<polygon fill="midnightblue" stroke="midnightblue" points="777.973,-366.221 777.646,-355.631 771.298,-364.113 777.973,-366.221"/>
</g>
<!-- Node24 -->
<g id="node24" class="node"><title>Node24</title>
<g id="a_node24"><a xlink:href="_audio_engine_8h.html" target="_top" xlink:title="AudioEngine.h">
<polygon fill="white" stroke="black" points="657.5,-392.5 657.5,-411.5 742.5,-411.5 742.5,-392.5 657.5,-392.5"/>
<text text-anchor="middle" x="700" y="-399.5" font-family="Helvetica Neue" font-size="10.00">AudioEngine.h</text>
</a>
</g>
</g>
<!-- Node4&#45;&gt;Node24 -->
<g id="edge31" class="edge"><title>Node4&#45;&gt;Node24</title>
<path fill="none" stroke="midnightblue" d="M700,-448.083C700,-441.006 700,-430.861 700,-421.986"/>
<polygon fill="midnightblue" stroke="midnightblue" points="703.5,-421.751 700,-411.751 696.5,-421.751 703.5,-421.751"/>
</g>
<!-- Node5&#45;&gt;Node3 -->
<g id="edge5" class="edge"><title>Node5&#45;&gt;Node3</title>
<path fill="none" stroke="midnightblue" d="M601.162,-392.489C613.913,-383.526 634.49,-368.943 652,-356 674.899,-339.074 700.849,-319.114 717.987,-305.821"/>
<polygon fill="midnightblue" stroke="midnightblue" points="720.335,-308.429 726.084,-299.529 716.04,-302.902 720.335,-308.429"/>
</g>
<!-- Node6 -->
<g id="node6" class="node"><title>Node6</title>
<g id="a_node6"><a xlink:href="_modules_8h.html" target="_top" xlink:title="modules/Modules.h">
<polygon fill="white" stroke="black" points="353,-336.5 353,-355.5 463,-355.5 463,-336.5 353,-336.5"/>
<text text-anchor="middle" x="408" y="-343.5" font-family="Helvetica Neue" font-size="10.00">modules/Modules.h</text>
</a>
</g>
</g>
<!-- Node5&#45;&gt;Node6 -->
<g id="edge6" class="edge"><title>Node5&#45;&gt;Node6</title>
<path fill="none" stroke="midnightblue" d="M560.32,-392.444C529.473,-383.241 480.272,-368.562 446.171,-358.388"/>
<polygon fill="midnightblue" stroke="midnightblue" points="447.129,-355.021 436.546,-355.516 445.128,-361.729 447.129,-355.021"/>
</g>
<!-- Node22 -->
<g id="node22" class="node"><title>Node22</title>
<g id="a_node22"><a xlink:href="_phi_toggle_button_8h.html" target="_top" xlink:title="ui/PhiToggleButton.h">
<polygon fill="white" stroke="black" points="529.5,-336.5 529.5,-355.5 642.5,-355.5 642.5,-336.5 529.5,-336.5"/>
<text text-anchor="middle" x="586" y="-343.5" font-family="Helvetica Neue" font-size="10.00">ui/PhiToggleButton.h</text>
</a>
</g>
</g>
<!-- Node5&#45;&gt;Node22 -->
<g id="edge27" class="edge"><title>Node5&#45;&gt;Node22</title>
<path fill="none" stroke="midnightblue" d="M588.505,-392.083C588.111,-385.006 587.548,-374.861 587.055,-365.986"/>
<polygon fill="midnightblue" stroke="midnightblue" points="590.536,-365.542 586.486,-355.751 583.546,-365.93 590.536,-365.542"/>
</g>
<!-- Node7 -->
<g id="node7" class="node"><title>Node7</title>
<g id="a_node7"><a xlink:href="_gain_processor_8h.html" target="_top" xlink:title="Gain/GainProcessor.h">
<polygon fill="white" stroke="black" points="195.5,-280.5 195.5,-299.5 314.5,-299.5 314.5,-280.5 195.5,-280.5"/>
<text text-anchor="middle" x="255" y="-287.5" font-family="Helvetica Neue" font-size="10.00">Gain/GainProcessor.h</text>
</a>
</g>
</g>
<!-- Node6&#45;&gt;Node7 -->
<g id="edge7" class="edge"><title>Node6&#45;&gt;Node7</title>
<path fill="none" stroke="midnightblue" d="M383.757,-336.444C358.129,-327.399 317.515,-313.064 288.762,-302.916"/>
<polygon fill="midnightblue" stroke="midnightblue" points="289.725,-299.544 279.13,-299.516 287.395,-306.145 289.725,-299.544"/>
</g>
<!-- Node14 -->
<g id="node14" class="node"><title>Node14</title>
<g id="a_node14"><a xlink:href="_impulse_processor_8h.html" target="_top" xlink:title="Impulse/ImpulseProcessor.h">
<polygon fill="white" stroke="black" points="333,-280.5 333,-299.5 483,-299.5 483,-280.5 333,-280.5"/>
<text text-anchor="middle" x="408" y="-287.5" font-family="Helvetica Neue" font-size="10.00">Impulse/ImpulseProcessor.h</text>
</a>
</g>
</g>
<!-- Node6&#45;&gt;Node14 -->
<g id="edge14" class="edge"><title>Node6&#45;&gt;Node14</title>
<path fill="none" stroke="midnightblue" d="M408,-336.083C408,-329.006 408,-318.861 408,-309.986"/>
<polygon fill="midnightblue" stroke="midnightblue" points="411.5,-309.751 408,-299.751 404.5,-309.751 411.5,-309.751"/>
</g>
<!-- Node16 -->
<g id="node16" class="node"><title>Node16</title>
<g id="a_node16"><a xlink:href="_output_processor_8h.html" target="_top" xlink:title="Output/OutputProcessor.h">
<polygon fill="white" stroke="black" points="501.5,-280.5 501.5,-299.5 642.5,-299.5 642.5,-280.5 501.5,-280.5"/>
<text text-anchor="middle" x="572" y="-287.5" font-family="Helvetica Neue" font-size="10.00">Output/OutputProcessor.h</text>
</a>
</g>
</g>
<!-- Node6&#45;&gt;Node16 -->
<g id="edge18" class="edge"><title>Node6&#45;&gt;Node16</title>
<path fill="none" stroke="midnightblue" d="M433.986,-336.444C461.696,-327.32 505.752,-312.813 536.616,-302.651"/>
<polygon fill="midnightblue" stroke="midnightblue" points="537.732,-305.968 546.135,-299.516 535.542,-299.32 537.732,-305.968"/>
</g>
<!-- Node18 -->
<g id="node18" class="node"><title>Node18</title>
<g id="a_node18"><a xlink:href="_string_processor_8h.html" target="_top" xlink:title="String/StringProcessor.h">
<polygon fill="white" stroke="black" points="45,-280.5 45,-299.5 177,-299.5 177,-280.5 45,-280.5"/>
<text text-anchor="middle" x="111" y="-287.5" font-family="Helvetica Neue" font-size="10.00">String/StringProcessor.h</text>
</a>
</g>
</g>
<!-- Node6&#45;&gt;Node18 -->
<g id="edge21" class="edge"><title>Node6&#45;&gt;Node18</title>
<path fill="none" stroke="midnightblue" d="M360.939,-336.444C308.585,-326.925 224.01,-311.547 167.96,-301.356"/>
<polygon fill="midnightblue" stroke="midnightblue" points="168.305,-297.862 157.84,-299.516 167.053,-304.749 168.305,-297.862"/>
</g>
<!-- Node8 -->
<g id="node8" class="node"><title>Node8</title>
<g id="a_node8"><a xlink:href="_gain_u_i_8h.html" target="_top" xlink:title="GainUI.h">
<polygon fill="white" stroke="black" points="280.5,-224.5 280.5,-243.5 337.5,-243.5 337.5,-224.5 280.5,-224.5"/>
<text text-anchor="middle" x="309" y="-231.5" font-family="Helvetica Neue" font-size="10.00">GainUI.h</text>
</a>
</g>
</g>
<!-- Node7&#45;&gt;Node8 -->
<g id="edge8" class="edge"><title>Node7&#45;&gt;Node8</title>
<path fill="none" stroke="midnightblue" d="M263.917,-280.083C271.78,-272.22 283.431,-260.569 292.919,-251.081"/>
<polygon fill="midnightblue" stroke="midnightblue" points="295.653,-253.297 300.249,-243.751 290.703,-248.347 295.653,-253.297"/>
</g>
<!-- Node9 -->
<g id="node9" class="node"><title>Node9</title>
<g id="a_node9"><a xlink:href="_module_processor_8h.html" target="_top" xlink:title="../../ModuleProcessor.h">
<polygon fill="white" stroke="black" points="421.5,-168.5 421.5,-187.5 546.5,-187.5 546.5,-168.5 421.5,-168.5"/>
<text text-anchor="middle" x="484" y="-175.5" font-family="Helvetica Neue" font-size="10.00">../../ModuleProcessor.h</text>
</a>
</g>
</g>
<!-- Node8&#45;&gt;Node9 -->
<g id="edge9" class="edge"><title>Node8&#45;&gt;Node9</title>
<path fill="none" stroke="midnightblue" d="M336.729,-224.444C366.426,-215.28 413.716,-200.688 446.669,-190.519"/>
<polygon fill="midnightblue" stroke="midnightblue" points="447.877,-193.809 456.4,-187.516 445.813,-187.121 447.877,-193.809"/>
</g>
<!-- Node13 -->
<g id="node13" class="node"><title>Node13</title>
<g id="a_node13"><a xlink:href="_phi_dial_8h.html" target="_top" xlink:title="../../ui/PhiDial.h">
<polygon fill="white" stroke="black" points="265.5,-168.5 265.5,-187.5 352.5,-187.5 352.5,-168.5 265.5,-168.5"/>
<text text-anchor="middle" x="309" y="-175.5" font-family="Helvetica Neue" font-size="10.00">../../ui/PhiDial.h</text>
</a>
</g>
</g>
<!-- Node8&#45;&gt;Node13 -->
<g id="edge13" class="edge"><title>Node8&#45;&gt;Node13</title>
<path fill="none" stroke="midnightblue" d="M309,-224.083C309,-217.006 309,-206.861 309,-197.986"/>
<polygon fill="midnightblue" stroke="midnightblue" points="312.5,-197.751 309,-187.751 305.5,-197.751 312.5,-197.751"/>
</g>
<!-- Node10 -->
<g id="node10" class="node"><title>Node10</title>
<g id="a_node10"><a xlink:href="_module_u_i_8h.html" target="_top" xlink:title="ModuleUI.h">
<polygon fill="white" stroke="black" points="577,-112.5 577,-131.5 647,-131.5 647,-112.5 577,-112.5"/>
<text text-anchor="middle" x="612" y="-119.5" font-family="Helvetica Neue" font-size="10.00">ModuleUI.h</text>
</a>
</g>
</g>
<!-- Node9&#45;&gt;Node10 -->
<g id="edge10" class="edge"><title>Node9&#45;&gt;Node10</title>
<path fill="none" stroke="midnightblue" d="M504.282,-168.444C525.347,-159.557 558.517,-145.563 582.486,-135.451"/>
<polygon fill="midnightblue" stroke="midnightblue" points="583.96,-138.628 591.813,-131.516 581.239,-132.179 583.96,-138.628"/>
</g>
<!-- Node11 -->
<g id="node11" class="node"><title>Node11</title>
<g id="a_node11"><a xlink:href="_plug_8h.html" target="_top" xlink:title="Plug.h">
<polygon fill="white" stroke="black" points="684,-56.5 684,-75.5 730,-75.5 730,-56.5 684,-56.5"/>
<text text-anchor="middle" x="707" y="-63.5" font-family="Helvetica Neue" font-size="10.00">Plug.h</text>
</a>
</g>
</g>
<!-- Node10&#45;&gt;Node11 -->
<g id="edge11" class="edge"><title>Node10&#45;&gt;Node11</title>
<path fill="none" stroke="midnightblue" d="M627.263,-112.324C642.221,-103.822 665.255,-90.7288 682.727,-80.7975"/>
<polygon fill="midnightblue" stroke="midnightblue" points="684.81,-83.639 691.774,-75.6545 681.351,-77.5534 684.81,-83.639"/>
</g>
<!-- Node12 -->
<g id="node12" class="node"><title>Node12</title>
<g id="a_node12"><a xlink:href="_plug_handler_8h.html" target="_top" xlink:title="PlugHandler.h">
<polygon fill="white" stroke="black" points="665.5,-0.5 665.5,-19.5 748.5,-19.5 748.5,-0.5 665.5,-0.5"/>
<text text-anchor="middle" x="707" y="-7.5" font-family="Helvetica Neue" font-size="10.00">PlugHandler.h</text>
</a>
</g>
</g>
<!-- Node11&#45;&gt;Node12 -->
<g id="edge12" class="edge"><title>Node11&#45;&gt;Node12</title>
<path fill="none" stroke="midnightblue" d="M707,-56.083C707,-49.0059 707,-38.8611 707,-29.9865"/>
<polygon fill="midnightblue" stroke="midnightblue" points="710.5,-29.751 707,-19.7511 703.5,-29.7511 710.5,-29.751"/>
</g>
<!-- Node15 -->
<g id="node15" class="node"><title>Node15</title>
<g id="a_node15"><a xlink:href="_impulse_u_i_8h.html" target="_top" xlink:title="ImpulseUI.h">
<polygon fill="white" stroke="black" points="371.5,-224.5 371.5,-243.5 444.5,-243.5 444.5,-224.5 371.5,-224.5"/>
<text text-anchor="middle" x="408" y="-231.5" font-family="Helvetica Neue" font-size="10.00">ImpulseUI.h</text>
</a>
</g>
</g>
<!-- Node14&#45;&gt;Node15 -->
<g id="edge15" class="edge"><title>Node14&#45;&gt;Node15</title>
<path fill="none" stroke="midnightblue" d="M408,-280.083C408,-273.006 408,-262.861 408,-253.986"/>
<polygon fill="midnightblue" stroke="midnightblue" points="411.5,-253.751 408,-243.751 404.5,-253.751 411.5,-253.751"/>
</g>
<!-- Node15&#45;&gt;Node9 -->
<g id="edge16" class="edge"><title>Node15&#45;&gt;Node9</title>
<path fill="none" stroke="midnightblue" d="M420.211,-224.324C431.776,-216.107 449.375,-203.602 463.161,-193.807"/>
<polygon fill="midnightblue" stroke="midnightblue" points="465.443,-196.479 471.567,-187.834 461.388,-190.773 465.443,-196.479"/>
</g>
<!-- Node15&#45;&gt;Node13 -->
<g id="edge17" class="edge"><title>Node15&#45;&gt;Node13</title>
<path fill="none" stroke="midnightblue" d="M392.094,-224.324C376.362,-215.743 352.058,-202.486 333.791,-192.522"/>
<polygon fill="midnightblue" stroke="midnightblue" points="335.322,-189.37 324.867,-187.655 331.97,-195.516 335.322,-189.37"/>
</g>
<!-- Node17 -->
<g id="node17" class="node"><title>Node17</title>
<g id="a_node17"><a xlink:href="_output_u_i_8h.html" target="_top" xlink:title="OutputUI.h">
<polygon fill="white" stroke="black" points="501,-224.5 501,-243.5 569,-243.5 569,-224.5 501,-224.5"/>
<text text-anchor="middle" x="535" y="-231.5" font-family="Helvetica Neue" font-size="10.00">OutputUI.h</text>
</a>
</g>
</g>
<!-- Node16&#45;&gt;Node17 -->
<g id="edge19" class="edge"><title>Node16&#45;&gt;Node17</title>
<path fill="none" stroke="midnightblue" d="M565.89,-280.083C560.718,-272.534 553.154,-261.495 546.806,-252.23"/>
<polygon fill="midnightblue" stroke="midnightblue" points="549.536,-250.022 540.996,-243.751 543.761,-253.979 549.536,-250.022"/>
</g>
<!-- Node17&#45;&gt;Node9 -->
<g id="edge20" class="edge"><title>Node17&#45;&gt;Node9</title>
<path fill="none" stroke="midnightblue" d="M526.578,-224.083C519.152,-216.22 508.148,-204.569 499.188,-195.081"/>
<polygon fill="midnightblue" stroke="midnightblue" points="501.676,-192.618 492.265,-187.751 496.587,-197.424 501.676,-192.618"/>
</g>
<!-- Node19 -->
<g id="node19" class="node"><title>Node19</title>
<g id="a_node19"><a xlink:href="_string_u_i_8h.html" target="_top" xlink:title="StringUI.h">
<polygon fill="white" stroke="black" points="79,-224.5 79,-243.5 143,-243.5 143,-224.5 79,-224.5"/>
<text text-anchor="middle" x="111" y="-231.5" font-family="Helvetica Neue" font-size="10.00">StringUI.h</text>
</a>
</g>
</g>
<!-- Node18&#45;&gt;Node19 -->
<g id="edge22" class="edge"><title>Node18&#45;&gt;Node19</title>
<path fill="none" stroke="midnightblue" d="M111,-280.083C111,-273.006 111,-262.861 111,-253.986"/>
<polygon fill="midnightblue" stroke="midnightblue" points="114.5,-253.751 111,-243.751 107.5,-253.751 114.5,-253.751"/>
</g>
<!-- Node21 -->
<g id="node21" class="node"><title>Node21</title>
<g id="a_node21"><a xlink:href="_d_s_p_utils_8h.html" target="_top" xlink:title="../../DSPUtils.h">
<polygon fill="white" stroke="black" points="161.5,-224.5 161.5,-243.5 246.5,-243.5 246.5,-224.5 161.5,-224.5"/>
<text text-anchor="middle" x="204" y="-231.5" font-family="Helvetica Neue" font-size="10.00">../../DSPUtils.h</text>
</a>
</g>
</g>
<!-- Node18&#45;&gt;Node21 -->
<g id="edge26" class="edge"><title>Node18&#45;&gt;Node21</title>
<path fill="none" stroke="midnightblue" d="M125.942,-280.324C140.585,-271.822 163.134,-258.729 180.238,-248.797"/>
<polygon fill="midnightblue" stroke="midnightblue" points="182.205,-251.703 189.095,-243.655 178.69,-245.649 182.205,-251.703"/>
</g>
<!-- Node19&#45;&gt;Node9 -->
<g id="edge23" class="edge"><title>Node19&#45;&gt;Node9</title>
<path fill="none" stroke="midnightblue" d="M143.18,-225.677C146.155,-225.078 149.13,-224.509 152,-224 240.797,-208.263 343.811,-195.082 411.252,-187.133"/>
<polygon fill="midnightblue" stroke="midnightblue" points="411.825,-190.59 421.35,-185.951 411.011,-183.638 411.825,-190.59"/>
</g>
<!-- Node19&#45;&gt;Node13 -->
<g id="edge24" class="edge"><title>Node19&#45;&gt;Node13</title>
<path fill="none" stroke="midnightblue" d="M142.374,-224.444C176.263,-215.201 230.403,-200.436 267.724,-190.257"/>
<polygon fill="midnightblue" stroke="midnightblue" points="269.046,-193.524 277.773,-187.516 267.205,-186.771 269.046,-193.524"/>
</g>
<!-- Node19&#45;&gt;Node20 -->
<g id="edge25" class="edge"><title>Node19&#45;&gt;Node20</title>
<path fill="none" stroke="midnightblue" d="M103.239,-224.083C96.4632,-216.298 86.4568,-204.801 78.2449,-195.367"/>
<polygon fill="midnightblue" stroke="midnightblue" points="80.822,-192.996 71.6167,-187.751 75.5419,-197.592 80.822,-192.996"/>
</g>
<!-- Node23&#45;&gt;Node3 -->
<g id="edge29" class="edge"><title>Node23&#45;&gt;Node3</title>
<path fill="none" stroke="midnightblue" d="M772.899,-336.083C766.763,-328.377 757.73,-317.033 750.261,-307.653"/>
<polygon fill="midnightblue" stroke="midnightblue" points="752.936,-305.394 743.968,-299.751 747.46,-309.754 752.936,-305.394"/>
</g>
<!-- Node23&#45;&gt;Node11 -->
<g id="edge30" class="edge"><title>Node23&#45;&gt;Node11</title>
<path fill="none" stroke="midnightblue" d="M783.102,-336.289C789.38,-317.856 803,-273.435 803,-235 803,-235 803,-235 803,-177 803,-133.543 759.943,-98.9573 731.5,-80.851"/>
<polygon fill="midnightblue" stroke="midnightblue" points="733.209,-77.7936 722.852,-75.5611 729.557,-83.765 733.209,-77.7936"/>
</g>
<!-- Node24&#45;&gt;Node9 -->
<g id="edge33" class="edge"><title>Node24&#45;&gt;Node9</title>
<path fill="none" stroke="midnightblue" d="M698.251,-392.284C693.683,-371.203 679.776,-316.513 652,-280 617.955,-235.245 557.869,-206.187 519.542,-191.208"/>
<polygon fill="midnightblue" stroke="midnightblue" points="520.414,-187.796 509.822,-187.529 517.935,-194.343 520.414,-187.796"/>
</g>
<!-- Node24&#45;&gt;Node23 -->
<g id="edge32" class="edge"><title>Node24&#45;&gt;Node23</title>
<path fill="none" stroke="midnightblue" d="M712.853,-392.324C725.216,-383.979 744.13,-371.212 758.737,-361.352"/>
<polygon fill="midnightblue" stroke="midnightblue" points="760.848,-364.15 767.179,-355.655 756.932,-358.348 760.848,-364.15"/>
</g>
</g>
</svg>
