<?xml version="1.0" encoding="UTF-8" standalone="no"?>
<!DOCTYPE svg PUBLIC "-//W3C//DTD SVG 1.1//EN"
 "http://www.w3.org/Graphics/SVG/1.1/DTD/svg11.dtd">
<!-- Generated by graphviz version 2.38.0 (20140413.2041)
 -->
<!-- Title: MainPatcher.h Pages: 1 -->
<svg width="256pt" height="140pt"
 viewBox="0.00 0.00 256.00 140.00" xmlns="http://www.w3.org/2000/svg" xmlns:xlink="http://www.w3.org/1999/xlink">
<g id="graph0" class="graph" transform="scale(1 1) rotate(0) translate(4 136)">
<title>MainPatcher.h</title>
<polygon fill="white" stroke="none" points="-4,4 -4,-136 252,-136 252,4 -4,4"/>
<!-- Node1 -->
<g id="node1" class="node"><title>Node1</title>
<polygon fill="#bfbfbf" stroke="black" points="100,-112.5 100,-131.5 183,-131.5 183,-112.5 100,-112.5"/>
<text text-anchor="middle" x="141.5" y="-119.5" font-family="Helvetica Neue" font-size="10.00">MainPatcher.h</text>
</g>
<!-- Node2 -->
<g id="node2" class="node"><title>Node2</title>
<g id="a_node2"><a xlink:href="_main_component_8h.html" target="_top" xlink:title="MainComponent.h">
<polygon fill="white" stroke="black" points="30.5,-56.5 30.5,-75.5 134.5,-75.5 134.5,-56.5 30.5,-56.5"/>
<text text-anchor="middle" x="82.5" y="-63.5" font-family="Helvetica Neue" font-size="10.00">MainComponent.h</text>
</a>
</g>
</g>
<!-- Node1&#45;&gt;Node2 -->
<g id="edge1" class="edge"><title>Node1&#45;&gt;Node2</title>
<path fill="none" stroke="midnightblue" d="M124.605,-105.537C114.085,-95.9087 100.931,-83.8694 92.1519,-75.8339"/>
<polygon fill="midnightblue" stroke="midnightblue" points="122.281,-108.154 132.021,-112.324 127.007,-102.99 122.281,-108.154"/>
</g>
<!-- Node5 -->
<g id="node5" class="node"><title>Node5</title>
<g id="a_node5"><a xlink:href="_main_patcher_8cpp.html" target="_top" xlink:title="MainPatcher.cpp">
<polygon fill="white" stroke="black" points="153,-56.5 153,-75.5 248,-75.5 248,-56.5 153,-56.5"/>
<text text-anchor="middle" x="200.5" y="-63.5" font-family="Helvetica Neue" font-size="10.00">MainPatcher.cpp</text>
</a>
</g>
</g>
<!-- Node1&#45;&gt;Node5 -->
<g id="edge4" class="edge"><title>Node1&#45;&gt;Node5</title>
<path fill="none" stroke="midnightblue" d="M158.395,-105.537C168.915,-95.9087 182.069,-83.8694 190.848,-75.8339"/>
<polygon fill="midnightblue" stroke="midnightblue" points="155.993,-102.99 150.979,-112.324 160.719,-108.154 155.993,-102.99"/>
</g>
<!-- Node3 -->
<g id="node3" class="node"><title>Node3</title>
<g id="a_node3"><a xlink:href="_main_8cpp.html" target="_top" xlink:title="Main.cpp">
<polygon fill="white" stroke="black" points="0,-0.5 0,-19.5 59,-19.5 59,-0.5 0,-0.5"/>
<text text-anchor="middle" x="29.5" y="-7.5" font-family="Helvetica Neue" font-size="10.00">Main.cpp</text>
</a>
</g>
</g>
<!-- Node2&#45;&gt;Node3 -->
<g id="edge2" class="edge"><title>Node2&#45;&gt;Node3</title>
<path fill="none" stroke="midnightblue" d="M66.5191,-48.7175C57.1775,-39.1997 45.7541,-27.5608 38.089,-19.7511"/>
<polygon fill="midnightblue" stroke="midnightblue" points="64.2455,-51.3978 73.7481,-56.083 69.2413,-46.4945 64.2455,-51.3978"/>
</g>
<!-- Node4 -->
<g id="node4" class="node"><title>Node4</title>
<g id="a_node4"><a xlink:href="_main_component_8cpp.html" target="_top" xlink:title="MainComponent.cpp">
<polygon fill="white" stroke="black" points="77.5,-0.5 77.5,-19.5 193.5,-19.5 193.5,-0.5 77.5,-0.5"/>
<text text-anchor="middle" x="135.5" y="-7.5" font-family="Helvetica Neue" font-size="10.00">MainComponent.cpp</text>
</a>
</g>
</g>
<!-- Node2&#45;&gt;Node4 -->
<g id="edge3" class="edge"><title>Node2&#45;&gt;Node4</title>
<path fill="none" stroke="midnightblue" d="M98.4809,-48.7175C107.822,-39.1997 119.246,-27.5608 126.911,-19.7511"/>
<polygon fill="midnightblue" stroke="midnightblue" points="95.7587,-46.4945 91.2519,-56.083 100.754,-51.3978 95.7587,-46.4945"/>
</g>
</g>
</svg>
