<?xml version="1.0" encoding="UTF-8" standalone="no"?>
<!DOCTYPE svg PUBLIC "-//W3C//DTD SVG 1.1//EN"
 "http://www.w3.org/Graphics/SVG/1.1/DTD/svg11.dtd">
<!-- Generated by graphviz version 2.38.0 (20140413.2041)
 -->
<!-- Title: MainPatcher.h Pages: 1 -->
<svg width="841pt" height="476pt"
 viewBox="0.00 0.00 841.00 476.00" xmlns="http://www.w3.org/2000/svg" xmlns:xlink="http://www.w3.org/1999/xlink">
<g id="graph0" class="graph" transform="scale(1 1) rotate(0) translate(4 472)">
<title>MainPatcher.h</title>
<polygon fill="white" stroke="none" points="-4,4 -4,-472 837,-472 837,4 -4,4"/>
<!-- Node1 -->
<g id="node1" class="node"><title>Node1</title>
<polygon fill="#bfbfbf" stroke="black" points="72,-448.5 72,-467.5 155,-467.5 155,-448.5 72,-448.5"/>
<text text-anchor="middle" x="113.5" y="-455.5" font-family="Helvetica Neue" font-size="10.00">MainPatcher.h</text>
</g>
<!-- Node2 -->
<g id="node2" class="node"><title>Node2</title>
<g id="a_node2"><a xlink:href="_module_box_8h.html" target="_top" xlink:title="ModuleBox.h">
<polygon fill="white" stroke="black" points="296.5,-392.5 296.5,-411.5 374.5,-411.5 374.5,-392.5 296.5,-392.5"/>
<text text-anchor="middle" x="335.5" y="-399.5" font-family="Helvetica Neue" font-size="10.00">ModuleBox.h</text>
</a>
</g>
</g>
<!-- Node1&#45;&gt;Node2 -->
<g id="edge1" class="edge"><title>Node1&#45;&gt;Node2</title>
<path fill="none" stroke="midnightblue" d="M148.677,-448.444C187.079,-439.102 248.676,-424.119 290.555,-413.933"/>
<polygon fill="midnightblue" stroke="midnightblue" points="291.599,-417.281 300.488,-411.516 289.944,-410.479 291.599,-417.281"/>
</g>
<!-- Node21 -->
<g id="node21" class="node"><title>Node21</title>
<g id="a_node21"><a xlink:href="_connections_8h.html" target="_top" xlink:title="Connections.h">
<polygon fill="white" stroke="black" points="0,-336.5 0,-355.5 85,-355.5 85,-336.5 0,-336.5"/>
<text text-anchor="middle" x="42.5" y="-343.5" font-family="Helvetica Neue" font-size="10.00">Connections.h</text>
</a>
</g>
</g>
<!-- Node1&#45;&gt;Node21 -->
<g id="edge25" class="edge"><title>Node1&#45;&gt;Node21</title>
<path fill="none" stroke="midnightblue" d="M99.5822,-448.314C87.7999,-440.27 71.3066,-427.269 61.5,-412 52.4662,-397.934 47.6062,-379.441 45.0704,-365.778"/>
<polygon fill="midnightblue" stroke="midnightblue" points="48.4842,-364.961 43.4464,-355.641 41.5723,-366.068 48.4842,-364.961"/>
</g>
<!-- Node22 -->
<g id="node22" class="node"><title>Node22</title>
<g id="a_node22"><a xlink:href="_audio_engine_8h.html" target="_top" xlink:title="AudioEngine.h">
<polygon fill="white" stroke="black" points="71,-392.5 71,-411.5 156,-411.5 156,-392.5 71,-392.5"/>
<text text-anchor="middle" x="113.5" y="-399.5" font-family="Helvetica Neue" font-size="10.00">AudioEngine.h</text>
</a>
</g>
</g>
<!-- Node1&#45;&gt;Node22 -->
<g id="edge28" class="edge"><title>Node1&#45;&gt;Node22</title>
<path fill="none" stroke="midnightblue" d="M113.5,-448.083C113.5,-441.006 113.5,-430.861 113.5,-421.986"/>
<polygon fill="midnightblue" stroke="midnightblue" points="117,-421.751 113.5,-411.751 110,-421.751 117,-421.751"/>
</g>
<!-- Node3 -->
<g id="node3" class="node"><title>Node3</title>
<g id="a_node3"><a xlink:href="_phi_colours_8h.html" target="_top" xlink:title="PhiColours.h">
<polygon fill="white" stroke="black" points="141.5,-280.5 141.5,-299.5 217.5,-299.5 217.5,-280.5 141.5,-280.5"/>
<text text-anchor="middle" x="179.5" y="-287.5" font-family="Helvetica Neue" font-size="10.00">PhiColours.h</text>
</a>
</g>
</g>
<!-- Node2&#45;&gt;Node3 -->
<g id="edge2" class="edge"><title>Node2&#45;&gt;Node3</title>
<path fill="none" stroke="midnightblue" d="M323.259,-392.368C296.603,-373.573 233.062,-328.768 200.111,-305.533"/>
<polygon fill="midnightblue" stroke="midnightblue" points="201.874,-302.494 191.684,-299.591 197.84,-308.215 201.874,-302.494"/>
</g>
<!-- Node4 -->
<g id="node4" class="node"><title>Node4</title>
<g id="a_node4"><a xlink:href="_modules_8h.html" target="_top" xlink:title="modules/Modules.h">
<polygon fill="white" stroke="black" points="323.5,-336.5 323.5,-355.5 433.5,-355.5 433.5,-336.5 323.5,-336.5"/>
<text text-anchor="middle" x="378.5" y="-343.5" font-family="Helvetica Neue" font-size="10.00">modules/Modules.h</text>
</a>
</g>
</g>
<!-- Node2&#45;&gt;Node4 -->
<g id="edge3" class="edge"><title>Node2&#45;&gt;Node4</title>
<path fill="none" stroke="midnightblue" d="M342.601,-392.083C348.737,-384.377 357.77,-373.033 365.239,-363.653"/>
<polygon fill="midnightblue" stroke="midnightblue" points="368.04,-365.754 371.532,-355.751 362.564,-361.394 368.04,-365.754"/>
</g>
<!-- Node20 -->
<g id="node20" class="node"><title>Node20</title>
<g id="a_node20"><a xlink:href="_phi_toggle_button_8h.html" target="_top" xlink:title="ui/PhiToggleButton.h">
<polygon fill="white" stroke="black" points="452,-336.5 452,-355.5 565,-355.5 565,-336.5 452,-336.5"/>
<text text-anchor="middle" x="508.5" y="-343.5" font-family="Helvetica Neue" font-size="10.00">ui/PhiToggleButton.h</text>
</a>
</g>
</g>
<!-- Node2&#45;&gt;Node20 -->
<g id="edge24" class="edge"><title>Node2&#45;&gt;Node20</title>
<path fill="none" stroke="midnightblue" d="M362.912,-392.444C392.269,-383.28 439.019,-368.688 471.596,-358.519"/>
<polygon fill="midnightblue" stroke="midnightblue" points="472.713,-361.837 481.216,-355.516 470.627,-355.155 472.713,-361.837"/>
</g>
<!-- Node5 -->
<g id="node5" class="node"><title>Node5</title>
<g id="a_node5"><a xlink:href="_gain_processor_8h.html" target="_top" xlink:title="Gain/GainProcessor.h">
<polygon fill="white" stroke="black" points="714,-280.5 714,-299.5 833,-299.5 833,-280.5 714,-280.5"/>
<text text-anchor="middle" x="773.5" y="-287.5" font-family="Helvetica Neue" font-size="10.00">Gain/GainProcessor.h</text>
</a>
</g>
</g>
<!-- Node4&#45;&gt;Node5 -->
<g id="edge4" class="edge"><title>Node4&#45;&gt;Node5</title>
<path fill="none" stroke="midnightblue" d="M433.656,-337.227C436.647,-336.811 439.61,-336.4 442.5,-336 532.796,-323.513 636.992,-309.396 703.979,-300.357"/>
<polygon fill="midnightblue" stroke="midnightblue" points="704.551,-303.812 713.994,-299.006 703.616,-296.875 704.551,-303.812"/>
</g>
<!-- Node12 -->
<g id="node12" class="node"><title>Node12</title>
<g id="a_node12"><a xlink:href="_impulse_processor_8h.html" target="_top" xlink:title="Impulse/ImpulseProcessor.h">
<polygon fill="white" stroke="black" points="545.5,-280.5 545.5,-299.5 695.5,-299.5 695.5,-280.5 545.5,-280.5"/>
<text text-anchor="middle" x="620.5" y="-287.5" font-family="Helvetica Neue" font-size="10.00">Impulse/ImpulseProcessor.h</text>
</a>
</g>
</g>
<!-- Node4&#45;&gt;Node12 -->
<g id="edge11" class="edge"><title>Node4&#45;&gt;Node12</title>
<path fill="none" stroke="midnightblue" d="M416.846,-336.444C458.973,-327.043 526.706,-311.929 572.372,-301.739"/>
<polygon fill="midnightblue" stroke="midnightblue" points="573.336,-305.11 582.334,-299.516 571.812,-298.278 573.336,-305.11"/>
</g>
<!-- Node14 -->
<g id="node14" class="node"><title>Node14</title>
<g id="a_node14"><a xlink:href="_output_processor_8h.html" target="_top" xlink:title="Output/OutputProcessor.h">
<polygon fill="white" stroke="black" points="386,-280.5 386,-299.5 527,-299.5 527,-280.5 386,-280.5"/>
<text text-anchor="middle" x="456.5" y="-287.5" font-family="Helvetica Neue" font-size="10.00">Output/OutputProcessor.h</text>
</a>
</g>
</g>
<!-- Node4&#45;&gt;Node14 -->
<g id="edge15" class="edge"><title>Node4&#45;&gt;Node14</title>
<path fill="none" stroke="midnightblue" d="M391.032,-336.324C403.086,-327.979 421.527,-315.212 435.769,-305.352"/>
<polygon fill="midnightblue" stroke="midnightblue" points="437.769,-308.224 443.999,-299.655 433.785,-302.469 437.769,-308.224"/>
</g>
<!-- Node16 -->
<g id="node16" class="node"><title>Node16</title>
<g id="a_node16"><a xlink:href="_string_processor_8h.html" target="_top" xlink:title="String/StringProcessor.h">
<polygon fill="white" stroke="black" points="235.5,-280.5 235.5,-299.5 367.5,-299.5 367.5,-280.5 235.5,-280.5"/>
<text text-anchor="middle" x="301.5" y="-287.5" font-family="Helvetica Neue" font-size="10.00">String/StringProcessor.h</text>
</a>
</g>
</g>
<!-- Node4&#45;&gt;Node16 -->
<g id="edge18" class="edge"><title>Node4&#45;&gt;Node16</title>
<path fill="none" stroke="midnightblue" d="M366.129,-336.324C354.342,-328.058 336.368,-315.453 322.364,-305.632"/>
<polygon fill="midnightblue" stroke="midnightblue" points="324.038,-302.531 313.841,-299.655 320.018,-308.262 324.038,-302.531"/>
</g>
<!-- Node6 -->
<g id="node6" class="node"><title>Node6</title>
<g id="a_node6"><a xlink:href="_gain_u_i_8h.html" target="_top" xlink:title="GainUI.h">
<polygon fill="white" stroke="black" points="600,-224.5 600,-243.5 657,-243.5 657,-224.5 600,-224.5"/>
<text text-anchor="middle" x="628.5" y="-231.5" font-family="Helvetica Neue" font-size="10.00">GainUI.h</text>
</a>
</g>
</g>
<!-- Node5&#45;&gt;Node6 -->
<g id="edge5" class="edge"><title>Node5&#45;&gt;Node6</title>
<path fill="none" stroke="midnightblue" d="M750.524,-280.444C726.343,-271.438 688.082,-257.189 660.854,-247.049"/>
<polygon fill="midnightblue" stroke="midnightblue" points="661.961,-243.727 651.368,-243.516 659.518,-250.286 661.961,-243.727"/>
</g>
<!-- Node7 -->
<g id="node7" class="node"><title>Node7</title>
<g id="a_node7"><a xlink:href="_module_processor_8h.html" target="_top" xlink:title="../../ModuleProcessor.h">
<polygon fill="white" stroke="black" points="355,-168.5 355,-187.5 480,-187.5 480,-168.5 355,-168.5"/>
<text text-anchor="middle" x="417.5" y="-175.5" font-family="Helvetica Neue" font-size="10.00">../../ModuleProcessor.h</text>
</a>
</g>
</g>
<!-- Node6&#45;&gt;Node7 -->
<g id="edge6" class="edge"><title>Node6&#45;&gt;Node7</title>
<path fill="none" stroke="midnightblue" d="M599.604,-225.605C563.735,-216.425 502.235,-200.686 460.742,-190.067"/>
<polygon fill="midnightblue" stroke="midnightblue" points="461.467,-186.64 450.912,-187.551 459.732,-193.421 461.467,-186.64"/>
</g>
<!-- Node11 -->
<g id="node11" class="node"><title>Node11</title>
<g id="a_node11"><a xlink:href="_phi_dial_8h.html" target="_top" xlink:title="../../ui/PhiDial.h">
<polygon fill="white" stroke="black" points="502,-168.5 502,-187.5 589,-187.5 589,-168.5 502,-168.5"/>
<text text-anchor="middle" x="545.5" y="-175.5" font-family="Helvetica Neue" font-size="10.00">../../ui/PhiDial.h</text>
</a>
</g>
</g>
<!-- Node6&#45;&gt;Node11 -->
<g id="edge10" class="edge"><title>Node6&#45;&gt;Node11</title>
<path fill="none" stroke="midnightblue" d="M615.165,-224.324C602.338,-215.979 582.715,-203.212 567.56,-193.352"/>
<polygon fill="midnightblue" stroke="midnightblue" points="569.093,-190.174 558.802,-187.655 565.276,-196.042 569.093,-190.174"/>
</g>
<!-- Node8 -->
<g id="node8" class="node"><title>Node8</title>
<g id="a_node8"><a xlink:href="_module_u_i_8h.html" target="_top" xlink:title="ModuleUI.h">
<polygon fill="white" stroke="black" points="234.5,-112.5 234.5,-131.5 304.5,-131.5 304.5,-112.5 234.5,-112.5"/>
<text text-anchor="middle" x="269.5" y="-119.5" font-family="Helvetica Neue" font-size="10.00">ModuleUI.h</text>
</a>
</g>
</g>
<!-- Node7&#45;&gt;Node8 -->
<g id="edge7" class="edge"><title>Node7&#45;&gt;Node8</title>
<path fill="none" stroke="midnightblue" d="M394.049,-168.444C369.367,-159.438 330.315,-145.189 302.523,-135.049"/>
<polygon fill="midnightblue" stroke="midnightblue" points="303.435,-131.656 292.841,-131.516 301.036,-138.232 303.435,-131.656"/>
</g>
<!-- Node9 -->
<g id="node9" class="node"><title>Node9</title>
<g id="a_node9"><a xlink:href="_plug_8h.html" target="_top" xlink:title="Plug.h">
<polygon fill="white" stroke="black" points="141.5,-56.5 141.5,-75.5 187.5,-75.5 187.5,-56.5 141.5,-56.5"/>
<text text-anchor="middle" x="164.5" y="-63.5" font-family="Helvetica Neue" font-size="10.00">Plug.h</text>
</a>
</g>
</g>
<!-- Node8&#45;&gt;Node9 -->
<g id="edge8" class="edge"><title>Node8&#45;&gt;Node9</title>
<path fill="none" stroke="midnightblue" d="M252.63,-112.324C235.791,-103.664 209.693,-90.2424 190.262,-80.249"/>
<polygon fill="midnightblue" stroke="midnightblue" points="191.822,-77.1155 181.328,-75.6545 188.62,-83.3405 191.822,-77.1155"/>
</g>
<!-- Node10 -->
<g id="node10" class="node"><title>Node10</title>
<g id="a_node10"><a xlink:href="_plug_handler_8h.html" target="_top" xlink:title="PlugHandler.h">
<polygon fill="white" stroke="black" points="123,-0.5 123,-19.5 206,-19.5 206,-0.5 123,-0.5"/>
<text text-anchor="middle" x="164.5" y="-7.5" font-family="Helvetica Neue" font-size="10.00">PlugHandler.h</text>
</a>
</g>
</g>
<!-- Node9&#45;&gt;Node10 -->
<g id="edge9" class="edge"><title>Node9&#45;&gt;Node10</title>
<path fill="none" stroke="midnightblue" d="M164.5,-56.083C164.5,-49.0059 164.5,-38.8611 164.5,-29.9865"/>
<polygon fill="midnightblue" stroke="midnightblue" points="168,-29.751 164.5,-19.7511 161,-29.7511 168,-29.751"/>
</g>
<!-- Node13 -->
<g id="node13" class="node"><title>Node13</title>
<g id="a_node13"><a xlink:href="_impulse_u_i_8h.html" target="_top" xlink:title="ImpulseUI.h">
<polygon fill="white" stroke="black" points="509,-224.5 509,-243.5 582,-243.5 582,-224.5 509,-224.5"/>
<text text-anchor="middle" x="545.5" y="-231.5" font-family="Helvetica Neue" font-size="10.00">ImpulseUI.h</text>
</a>
</g>
</g>
<!-- Node12&#45;&gt;Node13 -->
<g id="edge12" class="edge"><title>Node12&#45;&gt;Node13</title>
<path fill="none" stroke="midnightblue" d="M608.45,-280.324C597.037,-272.107 579.669,-259.602 566.065,-249.807"/>
<polygon fill="midnightblue" stroke="midnightblue" points="567.93,-246.837 557.769,-243.834 563.84,-252.517 567.93,-246.837"/>
</g>
<!-- Node13&#45;&gt;Node7 -->
<g id="edge13" class="edge"><title>Node13&#45;&gt;Node7</title>
<path fill="none" stroke="midnightblue" d="M525.218,-224.444C504.153,-215.557 470.983,-201.563 447.014,-191.451"/>
<polygon fill="midnightblue" stroke="midnightblue" points="448.261,-188.179 437.687,-187.516 445.54,-194.628 448.261,-188.179"/>
</g>
<!-- Node13&#45;&gt;Node11 -->
<g id="edge14" class="edge"><title>Node13&#45;&gt;Node11</title>
<path fill="none" stroke="midnightblue" d="M545.5,-224.083C545.5,-217.006 545.5,-206.861 545.5,-197.986"/>
<polygon fill="midnightblue" stroke="midnightblue" points="549,-197.751 545.5,-187.751 542,-197.751 549,-197.751"/>
</g>
<!-- Node15 -->
<g id="node15" class="node"><title>Node15</title>
<g id="a_node15"><a xlink:href="_output_u_i_8h.html" target="_top" xlink:title="OutputUI.h">
<polygon fill="white" stroke="black" points="422.5,-224.5 422.5,-243.5 490.5,-243.5 490.5,-224.5 422.5,-224.5"/>
<text text-anchor="middle" x="456.5" y="-231.5" font-family="Helvetica Neue" font-size="10.00">OutputUI.h</text>
</a>
</g>
</g>
<!-- Node14&#45;&gt;Node15 -->
<g id="edge16" class="edge"><title>Node14&#45;&gt;Node15</title>
<path fill="none" stroke="midnightblue" d="M456.5,-280.083C456.5,-273.006 456.5,-262.861 456.5,-253.986"/>
<polygon fill="midnightblue" stroke="midnightblue" points="460,-253.751 456.5,-243.751 453,-253.751 460,-253.751"/>
</g>
<!-- Node15&#45;&gt;Node7 -->
<g id="edge17" class="edge"><title>Node15&#45;&gt;Node7</title>
<path fill="none" stroke="midnightblue" d="M450.06,-224.083C444.551,-216.455 436.469,-205.264 429.735,-195.941"/>
<polygon fill="midnightblue" stroke="midnightblue" points="432.513,-193.809 423.82,-187.751 426.838,-197.907 432.513,-193.809"/>
</g>
<!-- Node17 -->
<g id="node17" class="node"><title>Node17</title>
<g id="a_node17"><a xlink:href="_string_u_i_8h.html" target="_top" xlink:title="StringUI.h">
<polygon fill="white" stroke="black" points="236.5,-224.5 236.5,-243.5 300.5,-243.5 300.5,-224.5 236.5,-224.5"/>
<text text-anchor="middle" x="268.5" y="-231.5" font-family="Helvetica Neue" font-size="10.00">StringUI.h</text>
</a>
</g>
</g>
<!-- Node16&#45;&gt;Node17 -->
<g id="edge19" class="edge"><title>Node16&#45;&gt;Node17</title>
<path fill="none" stroke="midnightblue" d="M296.051,-280.083C291.486,-272.613 284.832,-261.724 279.207,-252.52"/>
<polygon fill="midnightblue" stroke="midnightblue" points="282.049,-250.459 273.848,-243.751 276.076,-254.109 282.049,-250.459"/>
</g>
<!-- Node19 -->
<g id="node19" class="node"><title>Node19</title>
<g id="a_node19"><a xlink:href="_d_s_p_utils_8h.html" target="_top" xlink:title="../../DSPUtils.h">
<polygon fill="white" stroke="black" points="319,-224.5 319,-243.5 404,-243.5 404,-224.5 319,-224.5"/>
<text text-anchor="middle" x="361.5" y="-231.5" font-family="Helvetica Neue" font-size="10.00">../../DSPUtils.h</text>
</a>
</g>
</g>
<!-- Node16&#45;&gt;Node19 -->
<g id="edge23" class="edge"><title>Node16&#45;&gt;Node19</title>
<path fill="none" stroke="midnightblue" d="M311.14,-280.324C320.01,-272.341 333.375,-260.313 344.108,-250.653"/>
<polygon fill="midnightblue" stroke="midnightblue" points="346.593,-253.125 351.685,-243.834 341.91,-247.922 346.593,-253.125"/>
</g>
<!-- Node17&#45;&gt;Node7 -->
<g id="edge20" class="edge"><title>Node17&#45;&gt;Node7</title>
<path fill="none" stroke="midnightblue" d="M292.109,-224.444C316.958,-215.438 356.274,-201.189 384.254,-191.049"/>
<polygon fill="midnightblue" stroke="midnightblue" points="385.792,-194.214 394.001,-187.516 383.407,-187.633 385.792,-194.214"/>
</g>
<!-- Node17&#45;&gt;Node11 -->
<g id="edge21" class="edge"><title>Node17&#45;&gt;Node11</title>
<path fill="none" stroke="midnightblue" d="M300.711,-225.841C303.68,-225.208 306.644,-224.586 309.5,-224 372.061,-211.172 444.207,-197.591 492.094,-188.748"/>
<polygon fill="midnightblue" stroke="midnightblue" points="492.732,-192.189 501.932,-186.934 491.463,-185.305 492.732,-192.189"/>
</g>
<!-- Node18 -->
<g id="node18" class="node"><title>Node18</title>
<g id="a_node18"><a xlink:href="_phi_slider_button_8h.html" target="_top" xlink:title="../../ui/PhiSliderButton.h">
<polygon fill="white" stroke="black" points="204.5,-168.5 204.5,-187.5 332.5,-187.5 332.5,-168.5 204.5,-168.5"/>
<text text-anchor="middle" x="268.5" y="-175.5" font-family="Helvetica Neue" font-size="10.00">../../ui/PhiSliderButton.h</text>
</a>
</g>
</g>
<!-- Node17&#45;&gt;Node18 -->
<g id="edge22" class="edge"><title>Node17&#45;&gt;Node18</title>
<path fill="none" stroke="midnightblue" d="M268.5,-224.083C268.5,-217.006 268.5,-206.861 268.5,-197.986"/>
<polygon fill="midnightblue" stroke="midnightblue" points="272,-197.751 268.5,-187.751 265,-197.751 272,-197.751"/>
</g>
<!-- Node21&#45;&gt;Node3 -->
<g id="edge26" class="edge"><title>Node21&#45;&gt;Node3</title>
<path fill="none" stroke="midnightblue" d="M64.2081,-336.444C86.8548,-327.517 122.572,-313.439 148.252,-303.317"/>
<polygon fill="midnightblue" stroke="midnightblue" points="149.874,-306.44 157.894,-299.516 147.307,-299.927 149.874,-306.44"/>
</g>
<!-- Node21&#45;&gt;Node9 -->
<g id="edge27" class="edge"><title>Node21&#45;&gt;Node9</title>
<path fill="none" stroke="midnightblue" d="M44.7927,-336.231C49.433,-317.687 59.5,-273.068 59.5,-235 59.5,-235 59.5,-235 59.5,-177 59.5,-132.02 106.007,-98.1886 137.118,-80.5896"/>
<polygon fill="midnightblue" stroke="midnightblue" points="139.091,-83.5011 146.21,-75.6546 135.752,-77.3489 139.091,-83.5011"/>
</g>
<!-- Node22&#45;&gt;Node7 -->
<g id="edge30" class="edge"><title>Node22&#45;&gt;Node7</title>
<path fill="none" stroke="midnightblue" d="M112.515,-392.492C110.529,-371.411 108.115,-315.877 132.5,-280 160.051,-239.465 182.032,-242.298 227.5,-224 267.599,-207.863 314.891,-196.637 352.261,-189.433"/>
<polygon fill="midnightblue" stroke="midnightblue" points="353.341,-192.792 362.524,-187.507 352.05,-185.912 353.341,-192.792"/>
</g>
<!-- Node22&#45;&gt;Node21 -->
<g id="edge29" class="edge"><title>Node22&#45;&gt;Node21</title>
<path fill="none" stroke="midnightblue" d="M102.093,-392.324C91.3912,-384.185 75.1593,-371.839 62.3372,-362.087"/>
<polygon fill="midnightblue" stroke="midnightblue" points="64.1932,-359.102 54.1149,-355.834 59.9556,-364.673 64.1932,-359.102"/>
</g>
</g>
</svg>
