<?xml version="1.0" encoding="UTF-8" standalone="no"?>
<!DOCTYPE svg PUBLIC "-//W3C//DTD SVG 1.1//EN"
 "http://www.w3.org/Graphics/SVG/1.1/DTD/svg11.dtd">
<!-- Generated by graphviz version 2.43.0 (0)
 -->
<!-- Title: MainComponent.h Pages: 1 -->
<svg width="410pt" height="82pt"
 viewBox="0.00 0.00 409.50 82.00" xmlns="http://www.w3.org/2000/svg" xmlns:xlink="http://www.w3.org/1999/xlink">
<g id="graph0" class="graph" transform="scale(1 1) rotate(0) translate(4 78)">
<title>MainComponent.h</title>
<!-- Node1 -->
<g id="Node000001" class="node">
<title>Node1</title>
<g id="a_Node000001"><a xlink:title=" ">
<polygon fill="#999999" stroke="#666666" points="251.5,-74 145.5,-74 145.5,-55 251.5,-55 251.5,-74"/>
<text text-anchor="middle" x="198.5" y="-62" font-family="Helvetica Neue" font-size="10.00">MainComponent.h</text>
</a>
</g>
</g>
<!-- Node2 -->
<g id="Node000002" class="node">
<title>Node2</title>
<g id="a_Node000002"><a xlink:href="_connections_8cpp.html" target="_top" xlink:title=" ">
<polygon fill="white" stroke="#666666" points="97,-19 0,-19 0,0 97,0 97,-19"/>
<text text-anchor="middle" x="48.5" y="-7" font-family="Helvetica Neue" font-size="10.00">Connections.cpp</text>
</a>
</g>
</g>
<!-- Node1&#45;&gt;Node2 -->
<g id="edge1_Node000001_Node000002" class="edge">
<title>Node1&#45;&gt;Node2</title>
<g id="a_edge1_Node000001_Node000002"><a xlink:title=" ">
<path fill="none" stroke="#63b8ff" d="M164.68,-51.55C136.82,-41.71 97.99,-27.98 73.04,-19.17"/>
<polygon fill="#63b8ff" stroke="#63b8ff" points="163.81,-54.95 174.4,-54.98 166.14,-48.35 163.81,-54.95"/>
</a>
</g>
</g>
<!-- Node3 -->
<g id="Node000003" class="node">
<title>Node3</title>
<g id="a_Node000003"><a xlink:href="_main_8cpp.html" target="_top" xlink:title=" ">
<polygon fill="white" stroke="#666666" points="176,-19 115,-19 115,0 176,0 176,-19"/>
<text text-anchor="middle" x="145.5" y="-7" font-family="Helvetica Neue" font-size="10.00">Main.cpp</text>
</a>
</g>
</g>
<!-- Node1&#45;&gt;Node3 -->
<g id="edge2_Node000001_Node000003" class="edge">
<title>Node1&#45;&gt;Node3</title>
<g id="a_edge2_Node000001_Node000003"><a xlink:title=" ">
<path fill="none" stroke="#63b8ff" d="M182.52,-47.52C173.18,-38.18 161.75,-26.75 154.09,-19.09"/>
<polygon fill="#63b8ff" stroke="#63b8ff" points="180.2,-50.15 189.75,-54.75 185.15,-45.2 180.2,-50.15"/>
</a>
</g>
</g>
<!-- Node4 -->
<g id="Node000004" class="node">
<title>Node4</title>
<g id="a_Node000004"><a xlink:href="_main_component_8cpp.html" target="_top" xlink:title=" ">
<polygon fill="white" stroke="#666666" points="311,-19 194,-19 194,0 311,0 311,-19"/>
<text text-anchor="middle" x="252.5" y="-7" font-family="Helvetica Neue" font-size="10.00">MainComponent.cpp</text>
</a>
</g>
</g>
<!-- Node1&#45;&gt;Node4 -->
<g id="edge3_Node000001_Node000004" class="edge">
<title>Node1&#45;&gt;Node4</title>
<g id="a_edge3_Node000001_Node000004"><a xlink:title=" ">
<path fill="none" stroke="#63b8ff" d="M214.78,-47.52C224.3,-38.18 235.94,-26.75 243.75,-19.09"/>
<polygon fill="#63b8ff" stroke="#63b8ff" points="212.1,-45.25 207.42,-54.75 217.01,-50.24 212.1,-45.25"/>
</a>
</g>
</g>
<!-- Node5 -->
<g id="Node000005" class="node">
<title>Node5</title>
<g id="a_Node000005"><a xlink:href="_patcher_8cpp.html" target="_top" xlink:title=" ">
<polygon fill="white" stroke="#666666" points="401.5,-19 329.5,-19 329.5,0 401.5,0 401.5,-19"/>
<text text-anchor="middle" x="365.5" y="-7" font-family="Helvetica Neue" font-size="10.00">Patcher.cpp</text>
</a>
</g>
</g>
<!-- Node1&#45;&gt;Node5 -->
<g id="edge4_Node000001_Node000005" class="edge">
<title>Node1&#45;&gt;Node5</title>
<g id="a_edge4_Node000001_Node000005"><a xlink:title=" ">
<path fill="none" stroke="#63b8ff" d="M234.96,-51.93C266.16,-42.03 310.34,-28.01 338.46,-19.08"/>
<polygon fill="#63b8ff" stroke="#63b8ff" points="233.8,-48.62 225.33,-54.98 235.92,-55.3 233.8,-48.62"/>
</a>
</g>
</g>
</g>
</svg>
