<?xml version="1.0" encoding="UTF-8" standalone="no"?>
<!DOCTYPE svg PUBLIC "-//W3C//DTD SVG 1.1//EN"
 "http://www.w3.org/Graphics/SVG/1.1/DTD/svg11.dtd">
<!-- Generated by graphviz version 2.43.0 (0)
 -->
<!-- Title: MainComponent.h Pages: 1 -->
<svg width="1844pt" height="478pt"
 viewBox="0.00 0.00 1843.50 478.00" xmlns="http://www.w3.org/2000/svg" xmlns:xlink="http://www.w3.org/1999/xlink">
<g id="graph0" class="graph" transform="scale(1 1) rotate(0) translate(4 474)">
<title>MainComponent.h</title>
<!-- Node1 -->
<g id="Node000001" class="node">
<title>Node1</title>
<g id="a_Node000001"><a xlink:title=" ">
<polygon fill="#999999" stroke="#666666" points="1761,-470 1655,-470 1655,-451 1761,-451 1761,-470"/>
<text text-anchor="middle" x="1708" y="-458" font-family="Helvetica Neue" font-size="10.00">MainComponent.h</text>
</a>
</g>
</g>
<!-- Node2 -->
<g id="Node000002" class="node">
<title>Node2</title>
<g id="a_Node000002"><a xlink:href="_state_8h.html" target="_top" xlink:title=" ">
<polygon fill="white" stroke="#666666" points="1520,-250 1460,-250 1460,-231 1520,-231 1520,-250"/>
<text text-anchor="middle" x="1490" y="-238" font-family="Helvetica Neue" font-size="10.00">../State.h</text>
</a>
</g>
</g>
<!-- Node1&#45;&gt;Node2 -->
<g id="edge1_Node000001_Node000002" class="edge">
<title>Node1&#45;&gt;Node2</title>
<g id="a_edge1_Node000001_Node000002"><a xlink:title=" ">
<path fill="none" stroke="#63b8ff" d="M1707.87,-450.8C1706.94,-422.6 1700.11,-332.82 1651,-286 1618.52,-255.04 1566.49,-245.25 1530.41,-242.35"/>
<polygon fill="#63b8ff" stroke="#63b8ff" points="1530.43,-238.84 1520.22,-241.67 1529.97,-245.83 1530.43,-238.84"/>
</a>
</g>
</g>
<!-- Node9 -->
<g id="Node000009" class="node">
<title>Node9</title>
<g id="a_Node000009"><a xlink:href="_file_manager_8h.html" target="_top" xlink:title=" ">
<polygon fill="white" stroke="#666666" points="1656,-415 1562,-415 1562,-396 1656,-396 1656,-415"/>
<text text-anchor="middle" x="1609" y="-403" font-family="Helvetica Neue" font-size="10.00">../FileManager.h</text>
</a>
</g>
</g>
<!-- Node1&#45;&gt;Node9 -->
<g id="edge11_Node000001_Node000009" class="edge">
<title>Node1&#45;&gt;Node9</title>
<g id="a_edge11_Node000001_Node000009"><a xlink:title=" ">
<path fill="none" stroke="#63b8ff" d="M1692.09,-450.98C1676.45,-442.61 1652.34,-429.7 1634.12,-419.95"/>
<polygon fill="#63b8ff" stroke="#63b8ff" points="1635.66,-416.8 1625.2,-415.17 1632.36,-422.98 1635.66,-416.8"/>
</a>
</g>
</g>
<!-- Node10 -->
<g id="Node000010" class="node">
<title>Node10</title>
<g id="a_Node000010"><a xlink:href="_patcher_8h.html" target="_top" xlink:title=" ">
<polygon fill="white" stroke="#666666" points="1520.5,-415 1459.5,-415 1459.5,-396 1520.5,-396 1520.5,-415"/>
<text text-anchor="middle" x="1490" y="-403" font-family="Helvetica Neue" font-size="10.00">Patcher.h</text>
</a>
</g>
</g>
<!-- Node1&#45;&gt;Node10 -->
<g id="edge13_Node000001_Node000010" class="edge">
<title>Node1&#45;&gt;Node10</title>
<g id="a_edge13_Node000001_Node000010"><a xlink:title=" ">
<path fill="none" stroke="#63b8ff" d="M1672.97,-450.98C1634.14,-441.54 1571.59,-426.34 1530.63,-416.38"/>
<polygon fill="#63b8ff" stroke="#63b8ff" points="1531.25,-412.93 1520.71,-413.97 1529.6,-419.73 1531.25,-412.93"/>
</a>
</g>
</g>
<!-- Node14 -->
<g id="Node000014" class="node">
<title>Node14</title>
<g id="a_Node000014"><a xlink:href="_phi_look_and_feel_8h.html" target="_top" xlink:title=" ">
<polygon fill="white" stroke="#666666" points="1835.5,-250 1732.5,-250 1732.5,-231 1835.5,-231 1835.5,-250"/>
<text text-anchor="middle" x="1784" y="-238" font-family="Helvetica Neue" font-size="10.00">PhiLookAndFeel.h</text>
</a>
</g>
</g>
<!-- Node1&#45;&gt;Node14 -->
<g id="edge76_Node000001_Node000014" class="edge">
<title>Node1&#45;&gt;Node14</title>
<g id="a_edge76_Node000001_Node000014"><a xlink:title=" ">
<path fill="none" stroke="#63b8ff" d="M1722.97,-450.97C1735.07,-443.23 1751.45,-430.64 1760,-415 1787.66,-364.4 1787.51,-293.56 1785.57,-260.23"/>
<polygon fill="#63b8ff" stroke="#63b8ff" points="1789.05,-259.83 1784.86,-250.1 1782.07,-260.32 1789.05,-259.83"/>
</a>
</g>
</g>
<!-- Node28 -->
<g id="Node000028" class="node">
<title>Node28</title>
<g id="a_Node000028"><a xlink:href="_phi_slider_button_8h.html" target="_top" xlink:title=" ">
<polygon fill="white" stroke="#666666" points="1516,-195 1412,-195 1412,-165 1516,-165 1516,-195"/>
<text text-anchor="start" x="1420" y="-183" font-family="Helvetica Neue" font-size="10.00">../../ui/component</text>
<text text-anchor="middle" x="1464" y="-172" font-family="Helvetica Neue" font-size="10.00">/PhiSliderButton.h</text>
</a>
</g>
</g>
<!-- Node1&#45;&gt;Node28 -->
<g id="edge77_Node000001_Node000028" class="edge">
<title>Node1&#45;&gt;Node28</title>
<g id="a_edge77_Node000001_Node000028"><a xlink:title=" ">
<path fill="none" stroke="#63b8ff" d="M1710.86,-450.9C1714.57,-438.72 1720.3,-415.73 1718,-396 1711.88,-343.53 1711.48,-322.19 1673,-286 1628.54,-244.19 1564.24,-215.28 1518.72,-198.53"/>
<polygon fill="#63b8ff" stroke="#63b8ff" points="1519.9,-195.24 1509.31,-195.14 1517.53,-201.82 1519.9,-195.24"/>
</a>
</g>
</g>
<!-- Node3 -->
<g id="Node000003" class="node">
<title>Node3</title>
<g id="a_Node000003"><a xlink:title=" ">
<polygon fill="#e0e0e0" stroke="#999999" points="1294,-19 1214,-19 1214,0 1294,0 1294,-19"/>
<text text-anchor="middle" x="1254" y="-7" font-family="Helvetica Neue" font-size="10.00">JuceHeader.h</text>
</a>
</g>
</g>
<!-- Node2&#45;&gt;Node3 -->
<g id="edge2_Node000002_Node000003" class="edge">
<title>Node2&#45;&gt;Node3</title>
<g id="a_edge2_Node000002_Node000003"><a xlink:title=" ">
<path fill="none" stroke="#63b8ff" d="M1463.27,-230.94C1444.48,-223.81 1419.79,-212.04 1403,-195 1354.32,-145.59 1381.82,-105.26 1334,-55 1320.94,-41.27 1302.68,-30.68 1286.91,-23.27"/>
<polygon fill="#63b8ff" stroke="#63b8ff" points="1288.04,-19.95 1277.48,-19.08 1285.19,-26.34 1288.04,-19.95"/>
</a>
</g>
</g>
<!-- Node4 -->
<g id="Node000004" class="node">
<title>Node4</title>
<g id="a_Node000004"><a xlink:href="_phi_theme_8h.html" target="_top" xlink:title=" ">
<polygon fill="white" stroke="#666666" points="1687,-189.5 1601,-189.5 1601,-170.5 1687,-170.5 1687,-189.5"/>
<text text-anchor="middle" x="1644" y="-177.5" font-family="Helvetica Neue" font-size="10.00">ui/PhiTheme.h</text>
</a>
</g>
</g>
<!-- Node2&#45;&gt;Node4 -->
<g id="edge3_Node000002_Node000004" class="edge">
<title>Node2&#45;&gt;Node4</title>
<g id="a_edge3_Node000002_Node000004"><a xlink:title=" ">
<path fill="none" stroke="#63b8ff" d="M1512.39,-230.99C1538.62,-221.03 1582.28,-204.45 1612.06,-193.13"/>
<polygon fill="#63b8ff" stroke="#63b8ff" points="1613.47,-196.34 1621.58,-189.52 1610.99,-189.8 1613.47,-196.34"/>
</a>
</g>
</g>
<!-- Node6 -->
<g id="Node000006" class="node">
<title>Node6</title>
<g id="a_Node000006"><a xlink:href="_module_u_i_8h.html" target="_top" xlink:title=" ">
<polygon fill="white" stroke="#666666" points="980,-189.5 896,-189.5 896,-170.5 980,-170.5 980,-189.5"/>
<text text-anchor="middle" x="938" y="-177.5" font-family="Helvetica Neue" font-size="10.00">ui/ModuleUI.h</text>
</a>
</g>
</g>
<!-- Node2&#45;&gt;Node6 -->
<g id="edge5_Node000002_Node000006" class="edge">
<title>Node2&#45;&gt;Node6</title>
<g id="a_edge5_Node000002_Node000006"><a xlink:title=" ">
<path fill="none" stroke="#63b8ff" d="M1459.93,-236.31C1370.26,-226.81 1103.93,-198.58 990.31,-186.54"/>
<polygon fill="#63b8ff" stroke="#63b8ff" points="990.44,-183.04 980.12,-185.46 989.7,-190 990.44,-183.04"/>
</a>
</g>
</g>
<!-- Node7 -->
<g id="Node000007" class="node">
<title>Node7</title>
<g id="a_Node000007"><a xlink:href="_module_processor_8h.html" target="_top" xlink:title=" ">
<polygon fill="white" stroke="#666666" points="476.5,-129 339.5,-129 339.5,-110 476.5,-110 476.5,-129"/>
<text text-anchor="middle" x="408" y="-117" font-family="Helvetica Neue" font-size="10.00">../dsp/ModuleProcessor.h</text>
</a>
</g>
</g>
<!-- Node2&#45;&gt;Node7 -->
<g id="edge10_Node000002_Node000007" class="edge">
<title>Node2&#45;&gt;Node7</title>
<g id="a_edge10_Node000002_Node000007"><a xlink:title=" ">
<path fill="none" stroke="#63b8ff" d="M1459.88,-234.26C1382.16,-220.89 1168.36,-185.18 989,-165 809.87,-144.85 598.62,-131.19 486.75,-124.75"/>
<polygon fill="#63b8ff" stroke="#63b8ff" points="486.75,-121.24 476.57,-124.17 486.35,-128.23 486.75,-121.24"/>
</a>
</g>
</g>
<!-- Node5 -->
<g id="Node000005" class="node">
<title>Node5</title>
<g id="a_Node000005"><a xlink:href="_phi_colours_8h.html" target="_top" xlink:title=" ">
<polygon fill="white" stroke="#666666" points="1611.5,-129 1534.5,-129 1534.5,-110 1611.5,-110 1611.5,-129"/>
<text text-anchor="middle" x="1573" y="-117" font-family="Helvetica Neue" font-size="10.00">PhiColours.h</text>
</a>
</g>
</g>
<!-- Node4&#45;&gt;Node5 -->
<g id="edge4_Node000004_Node000005" class="edge">
<title>Node4&#45;&gt;Node5</title>
<g id="a_edge4_Node000004_Node000005"><a xlink:title=" ">
<path fill="none" stroke="#63b8ff" d="M1633.52,-170.37C1622.51,-161.3 1604.96,-146.84 1591.59,-135.82"/>
<polygon fill="#63b8ff" stroke="#63b8ff" points="1593.46,-132.83 1583.52,-129.17 1589.01,-138.23 1593.46,-132.83"/>
</a>
</g>
</g>
<!-- Node6&#45;&gt;Node5 -->
<g id="edge6_Node000006_Node000005" class="edge">
<title>Node6&#45;&gt;Node5</title>
<g id="a_edge6_Node000006_Node000005"><a xlink:title=" ">
<path fill="none" stroke="#63b8ff" d="M980.16,-175.12C1093.34,-164.69 1403.43,-136.12 1524.07,-125.01"/>
<polygon fill="#63b8ff" stroke="#63b8ff" points="1524.49,-128.48 1534.13,-124.08 1523.85,-121.51 1524.49,-128.48"/>
</a>
</g>
</g>
<!-- Node6&#45;&gt;Node7 -->
<g id="edge7_Node000006_Node000007" class="edge">
<title>Node6&#45;&gt;Node7</title>
<g id="a_edge7_Node000006_Node000007"><a xlink:title=" ">
<path fill="none" stroke="#63b8ff" d="M902.6,-170.46C893.33,-168.44 883.33,-166.46 874,-165 738.76,-143.83 579.75,-131.25 486.8,-125.13"/>
<polygon fill="#63b8ff" stroke="#63b8ff" points="486.83,-121.62 476.62,-124.46 486.38,-128.61 486.83,-121.62"/>
</a>
</g>
</g>
<!-- Node8 -->
<g id="Node000008" class="node">
<title>Node8</title>
<g id="a_Node000008"><a xlink:href="_utils_8h.html" target="_top" xlink:title=" ">
<polygon fill="white" stroke="#666666" points="432,-74 384,-74 384,-55 432,-55 432,-74"/>
<text text-anchor="middle" x="408" y="-62" font-family="Helvetica Neue" font-size="10.00">Utils.h</text>
</a>
</g>
</g>
<!-- Node7&#45;&gt;Node8 -->
<g id="edge8_Node000007_Node000008" class="edge">
<title>Node7&#45;&gt;Node8</title>
<g id="a_edge8_Node000007_Node000008"><a xlink:title=" ">
<path fill="none" stroke="#63b8ff" d="M408,-109.75C408,-102.8 408,-92.85 408,-84.13"/>
<polygon fill="#63b8ff" stroke="#63b8ff" points="411.5,-84.09 408,-74.09 404.5,-84.09 411.5,-84.09"/>
</a>
</g>
</g>
<!-- Node8&#45;&gt;Node3 -->
<g id="edge9_Node000008_Node000003" class="edge">
<title>Node8&#45;&gt;Node3</title>
<g id="a_edge9_Node000008_Node000003"><a xlink:title=" ">
<path fill="none" stroke="#63b8ff" d="M432.41,-61.97C548.25,-54.71 1043.68,-23.68 1203.84,-13.64"/>
<polygon fill="#63b8ff" stroke="#63b8ff" points="1204.14,-17.13 1213.9,-13.01 1203.7,-10.14 1204.14,-17.13"/>
</a>
</g>
</g>
<!-- Node9&#45;&gt;Node2 -->
<g id="edge12_Node000009_Node000002" class="edge">
<title>Node9&#45;&gt;Node2</title>
<g id="a_edge12_Node000009_Node000002"><a xlink:title=" ">
<path fill="none" stroke="#63b8ff" d="M1602.6,-395.74C1583.63,-369.76 1527.47,-292.83 1502.37,-258.44"/>
<polygon fill="#63b8ff" stroke="#63b8ff" points="1505.15,-256.32 1496.43,-250.31 1499.5,-260.45 1505.15,-256.32"/>
</a>
</g>
</g>
<!-- Node10&#45;&gt;Node2 -->
<g id="edge14_Node000010_Node000002" class="edge">
<title>Node10&#45;&gt;Node2</title>
<g id="a_edge14_Node000010_Node000002"><a xlink:title=" ">
<path fill="none" stroke="#63b8ff" d="M1490,-395.74C1490,-370.31 1490,-296.08 1490,-260.69"/>
<polygon fill="#63b8ff" stroke="#63b8ff" points="1493.5,-260.31 1490,-250.31 1486.5,-260.31 1493.5,-260.31"/>
</a>
</g>
</g>
<!-- Node11 -->
<g id="Node000011" class="node">
<title>Node11</title>
<g id="a_Node000011"><a xlink:href="_module_box_8h.html" target="_top" xlink:title=" ">
<polygon fill="white" stroke="#666666" points="1421,-360 1341,-360 1341,-341 1421,-341 1421,-360"/>
<text text-anchor="middle" x="1381" y="-348" font-family="Helvetica Neue" font-size="10.00">ModuleBox.h</text>
</a>
</g>
</g>
<!-- Node10&#45;&gt;Node11 -->
<g id="edge15_Node000010_Node000011" class="edge">
<title>Node10&#45;&gt;Node11</title>
<g id="a_edge15_Node000010_Node000011"><a xlink:title=" ">
<path fill="none" stroke="#63b8ff" d="M1472.49,-395.98C1455.03,-387.5 1427.99,-374.35 1407.83,-364.54"/>
<polygon fill="#63b8ff" stroke="#63b8ff" points="1409.36,-361.4 1398.83,-360.17 1406.29,-367.69 1409.36,-361.4"/>
</a>
</g>
</g>
<!-- Node16 -->
<g id="Node000016" class="node">
<title>Node16</title>
<g id="a_Node000016"><a xlink:href="_connections_8h.html" target="_top" xlink:title=" ">
<polygon fill="white" stroke="#666666" points="1642,-305 1556,-305 1556,-286 1642,-286 1642,-305"/>
<text text-anchor="middle" x="1599" y="-293" font-family="Helvetica Neue" font-size="10.00">Connections.h</text>
</a>
</g>
</g>
<!-- Node10&#45;&gt;Node16 -->
<g id="edge25_Node000010_Node000016" class="edge">
<title>Node10&#45;&gt;Node16</title>
<g id="a_edge25_Node000010_Node000016"><a xlink:title=" ">
<path fill="none" stroke="#63b8ff" d="M1498.92,-395.66C1517.29,-377.46 1559.59,-335.55 1582.88,-312.47"/>
<polygon fill="#63b8ff" stroke="#63b8ff" points="1585.62,-314.68 1590.26,-305.16 1580.69,-309.71 1585.62,-314.68"/>
</a>
</g>
</g>
<!-- Node17 -->
<g id="Node000017" class="node">
<title>Node17</title>
<g id="a_Node000017"><a xlink:href="_modules_8h.html" target="_top" xlink:title=" ">
<polygon fill="white" stroke="#666666" points="707.5,-360 586.5,-360 586.5,-341 707.5,-341 707.5,-360"/>
<text text-anchor="middle" x="647" y="-348" font-family="Helvetica Neue" font-size="10.00">../modules/Modules.h</text>
</a>
</g>
</g>
<!-- Node10&#45;&gt;Node17 -->
<g id="edge28_Node000010_Node000017" class="edge">
<title>Node10&#45;&gt;Node17</title>
<g id="a_edge28_Node000010_Node000017"><a xlink:title=" ">
<path fill="none" stroke="#63b8ff" d="M1459.5,-402.58C1338.74,-394.99 892.23,-366.92 717.63,-355.94"/>
<polygon fill="#63b8ff" stroke="#63b8ff" points="717.72,-352.44 707.52,-355.31 717.28,-359.43 717.72,-352.44"/>
</a>
</g>
</g>
<!-- Node11&#45;&gt;Node6 -->
<g id="edge20_Node000011_Node000006" class="edge">
<title>Node11&#45;&gt;Node6</title>
<g id="a_edge20_Node000011_Node000006"><a xlink:title=" ">
<path fill="none" stroke="#63b8ff" d="M1340.88,-347.5C1304.94,-343.8 1252.57,-333.5 1217,-305 1187.98,-281.76 1207.7,-253.37 1178,-231 1149,-209.15 1052.04,-194.22 990.59,-186.68"/>
<polygon fill="#63b8ff" stroke="#63b8ff" points="990.65,-183.17 980.31,-185.45 989.82,-190.12 990.65,-183.17"/>
</a>
</g>
</g>
<!-- Node12 -->
<g id="Node000012" class="node">
<title>Node12</title>
<g id="a_Node000012"><a xlink:href="_port_u_i_8h.html" target="_top" xlink:title=" ">
<polygon fill="white" stroke="#666666" points="1282,-305 1226,-305 1226,-286 1282,-286 1282,-305"/>
<text text-anchor="middle" x="1254" y="-293" font-family="Helvetica Neue" font-size="10.00">PortUI.h</text>
</a>
</g>
</g>
<!-- Node11&#45;&gt;Node12 -->
<g id="edge16_Node000011_Node000012" class="edge">
<title>Node11&#45;&gt;Node12</title>
<g id="a_edge16_Node000011_Node000012"><a xlink:title=" ">
<path fill="none" stroke="#63b8ff" d="M1360.6,-340.98C1339.98,-332.38 1307.89,-318.99 1284.31,-309.15"/>
<polygon fill="#63b8ff" stroke="#63b8ff" points="1285.35,-305.79 1274.78,-305.17 1282.66,-312.25 1285.35,-305.79"/>
</a>
</g>
</g>
<!-- Node11&#45;&gt;Node14 -->
<g id="edge21_Node000011_Node000014" class="edge">
<title>Node11&#45;&gt;Node14</title>
<g id="a_edge21_Node000011_Node000014"><a xlink:title=" ">
<path fill="none" stroke="#63b8ff" d="M1421.16,-346.44C1474.64,-341.56 1571.68,-329.92 1651,-305 1691.22,-292.36 1734.76,-269.69 1760.69,-255.13"/>
<polygon fill="#63b8ff" stroke="#63b8ff" points="1762.45,-258.16 1769.4,-250.17 1758.98,-252.08 1762.45,-258.16"/>
</a>
</g>
</g>
<!-- Node15 -->
<g id="Node000015" class="node">
<title>Node15</title>
<g id="a_Node000015"><a xlink:href="_phi_toggle_button_8h.html" target="_top" xlink:title=" ">
<polygon fill="white" stroke="#666666" points="1462,-305 1300,-305 1300,-286 1462,-286 1462,-305"/>
<text text-anchor="middle" x="1381" y="-293" font-family="Helvetica Neue" font-size="10.00">component/PhiToggleButton.h</text>
</a>
</g>
</g>
<!-- Node11&#45;&gt;Node15 -->
<g id="edge24_Node000011_Node000015" class="edge">
<title>Node11&#45;&gt;Node15</title>
<g id="a_edge24_Node000011_Node000015"><a xlink:title=" ">
<path fill="none" stroke="#63b8ff" d="M1381,-340.75C1381,-333.8 1381,-323.85 1381,-315.13"/>
<polygon fill="#63b8ff" stroke="#63b8ff" points="1384.5,-315.09 1381,-305.09 1377.5,-315.09 1384.5,-315.09"/>
</a>
</g>
</g>
<!-- Node12&#45;&gt;Node2 -->
<g id="edge17_Node000012_Node000002" class="edge">
<title>Node12&#45;&gt;Node2</title>
<g id="a_edge17_Node000012_Node000002"><a xlink:title=" ">
<path fill="none" stroke="#63b8ff" d="M1282.28,-287.99C1285.22,-287.31 1288.17,-286.64 1291,-286 1346.11,-273.51 1409.85,-259.3 1450.04,-250.36"/>
<polygon fill="#63b8ff" stroke="#63b8ff" points="1450.98,-253.74 1459.98,-248.16 1449.46,-246.91 1450.98,-253.74"/>
</a>
</g>
</g>
<!-- Node13 -->
<g id="Node000013" class="node">
<title>Node13</title>
<g id="a_Node000013"><a xlink:href="_hover_popup_8h.html" target="_top" xlink:title=" ">
<polygon fill="white" stroke="#666666" points="1325.5,-74 1182.5,-74 1182.5,-55 1325.5,-55 1325.5,-74"/>
<text text-anchor="middle" x="1254" y="-62" font-family="Helvetica Neue" font-size="10.00">component/HoverPopup.h</text>
</a>
</g>
</g>
<!-- Node12&#45;&gt;Node13 -->
<g id="edge18_Node000012_Node000013" class="edge">
<title>Node12&#45;&gt;Node13</title>
<g id="a_edge18_Node000012_Node000013"><a xlink:title=" ">
<path fill="none" stroke="#63b8ff" d="M1254,-285.8C1254,-252.36 1254,-131.59 1254,-84.49"/>
<polygon fill="#63b8ff" stroke="#63b8ff" points="1257.5,-84.21 1254,-74.21 1250.5,-84.21 1257.5,-84.21"/>
</a>
</g>
</g>
<!-- Node13&#45;&gt;Node3 -->
<g id="edge19_Node000013_Node000003" class="edge">
<title>Node13&#45;&gt;Node3</title>
<g id="a_edge19_Node000013_Node000003"><a xlink:title=" ">
<path fill="none" stroke="#63b8ff" d="M1254,-54.75C1254,-47.8 1254,-37.85 1254,-29.13"/>
<polygon fill="#63b8ff" stroke="#63b8ff" points="1257.5,-29.09 1254,-19.09 1250.5,-29.09 1257.5,-29.09"/>
</a>
</g>
</g>
<!-- Node14&#45;&gt;Node4 -->
<g id="edge23_Node000014_Node000004" class="edge">
<title>Node14&#45;&gt;Node4</title>
<g id="a_edge23_Node000014_Node000004"><a xlink:title=" ">
<path fill="none" stroke="#63b8ff" d="M1763.64,-230.99C1740,-221.12 1700.8,-204.73 1673.75,-193.43"/>
<polygon fill="#63b8ff" stroke="#63b8ff" points="1674.96,-190.14 1664.38,-189.52 1672.26,-196.6 1674.96,-190.14"/>
</a>
</g>
</g>
<!-- Node14&#45;&gt;Node5 -->
<g id="edge22_Node000014_Node000005" class="edge">
<title>Node14&#45;&gt;Node5</title>
<g id="a_edge22_Node000014_Node000005"><a xlink:title=" ">
<path fill="none" stroke="#63b8ff" d="M1776.03,-231C1761.45,-215.86 1728.91,-184.06 1696,-165 1670.95,-150.5 1640.36,-139.41 1615.95,-131.92"/>
<polygon fill="#63b8ff" stroke="#63b8ff" points="1616.83,-128.53 1606.25,-129.04 1614.84,-135.24 1616.83,-128.53"/>
</a>
</g>
</g>
<!-- Node16&#45;&gt;Node2 -->
<g id="edge26_Node000016_Node000002" class="edge">
<title>Node16&#45;&gt;Node2</title>
<g id="a_edge26_Node000016_Node000002"><a xlink:title=" ">
<path fill="none" stroke="#63b8ff" d="M1581.49,-285.98C1564.03,-277.5 1536.99,-264.35 1516.83,-254.54"/>
<polygon fill="#63b8ff" stroke="#63b8ff" points="1518.36,-251.4 1507.83,-250.17 1515.29,-257.69 1518.36,-251.4"/>
</a>
</g>
</g>
<!-- Node16&#45;&gt;Node5 -->
<g id="edge27_Node000016_Node000005" class="edge">
<title>Node16&#45;&gt;Node5</title>
<g id="a_edge27_Node000016_Node000005"><a xlink:title=" ">
<path fill="none" stroke="#63b8ff" d="M1597.67,-285.63C1593.62,-258.52 1581.34,-176.32 1575.78,-139.13"/>
<polygon fill="#63b8ff" stroke="#63b8ff" points="1579.23,-138.52 1574.29,-129.14 1572.31,-139.55 1579.23,-138.52"/>
</a>
</g>
</g>
<!-- Node18 -->
<g id="Node000018" class="node">
<title>Node18</title>
<g id="a_Node000018"><a xlink:href="_gain_processor_8h.html" target="_top" xlink:title=" ">
<polygon fill="white" stroke="#666666" points="573,-305 453,-305 453,-286 573,-286 573,-305"/>
<text text-anchor="middle" x="513" y="-293" font-family="Helvetica Neue" font-size="10.00">Gain/GainProcessor.h</text>
</a>
</g>
</g>
<!-- Node17&#45;&gt;Node18 -->
<g id="edge29_Node000017_Node000018" class="edge">
<title>Node17&#45;&gt;Node18</title>
<g id="a_edge29_Node000017_Node000018"><a xlink:title=" ">
<path fill="none" stroke="#63b8ff" d="M625.47,-340.98C603.53,-332.3 569.26,-318.75 544.31,-308.88"/>
<polygon fill="#63b8ff" stroke="#63b8ff" points="545.51,-305.59 534.92,-305.17 542.93,-312.1 545.51,-305.59"/>
</a>
</g>
</g>
<!-- Node21 -->
<g id="Node000021" class="node">
<title>Node21</title>
<g id="a_Node000021"><a xlink:href="_impulse_processor_8h.html" target="_top" xlink:title=" ">
<polygon fill="white" stroke="#666666" points="434.5,-305 281.5,-305 281.5,-286 434.5,-286 434.5,-305"/>
<text text-anchor="middle" x="358" y="-293" font-family="Helvetica Neue" font-size="10.00">Impulse/ImpulseProcessor.h</text>
</a>
</g>
</g>
<!-- Node17&#45;&gt;Node21 -->
<g id="edge35_Node000017_Node000021" class="edge">
<title>Node17&#45;&gt;Node21</title>
<g id="a_edge35_Node000017_Node000021"><a xlink:title=" ">
<path fill="none" stroke="#63b8ff" d="M600.57,-340.98C550.05,-331.72 469.26,-316.9 414.95,-306.94"/>
<polygon fill="#63b8ff" stroke="#63b8ff" points="415.26,-303.44 404.8,-305.08 414,-310.33 415.26,-303.44"/>
</a>
</g>
</g>
<!-- Node24 -->
<g id="Node000024" class="node">
<title>Node24</title>
<g id="a_Node000024"><a xlink:href="_output_processor_8h.html" target="_top" xlink:title=" ">
<polygon fill="white" stroke="#666666" points="1169.5,-305 1028.5,-305 1028.5,-286 1169.5,-286 1169.5,-305"/>
<text text-anchor="middle" x="1099" y="-293" font-family="Helvetica Neue" font-size="10.00">Output/OutputProcessor.h</text>
</a>
</g>
</g>
<!-- Node17&#45;&gt;Node24 -->
<g id="edge41_Node000017_Node000024" class="edge">
<title>Node17&#45;&gt;Node24</title>
<g id="a_edge41_Node000017_Node000024"><a xlink:title=" ">
<path fill="none" stroke="#63b8ff" d="M707.96,-342.35C788.12,-332.95 929.21,-316.41 1018.2,-305.97"/>
<polygon fill="#63b8ff" stroke="#63b8ff" points="1018.72,-309.44 1028.25,-304.8 1017.91,-302.48 1018.72,-309.44"/>
</a>
</g>
</g>
<!-- Node26 -->
<g id="Node000026" class="node">
<title>Node26</title>
<g id="a_Node000026"><a xlink:href="_string_processor_8h.html" target="_top" xlink:title=" ">
<polygon fill="white" stroke="#666666" points="132,-305 0,-305 0,-286 132,-286 132,-305"/>
<text text-anchor="middle" x="66" y="-293" font-family="Helvetica Neue" font-size="10.00">String/StringProcessor.h</text>
</a>
</g>
</g>
<!-- Node17&#45;&gt;Node26 -->
<g id="edge45_Node000017_Node000026" class="edge">
<title>Node17&#45;&gt;Node26</title>
<g id="a_edge45_Node000017_Node000026"><a xlink:title=" ">
<path fill="none" stroke="#63b8ff" d="M586.2,-344.65C493.09,-337.11 309.31,-321.8 142.69,-305.15"/>
<polygon fill="#63b8ff" stroke="#63b8ff" points="142.54,-301.62 132.24,-304.1 141.84,-308.58 142.54,-301.62"/>
</a>
</g>
</g>
<!-- Node29 -->
<g id="Node000029" class="node">
<title>Node29</title>
<g id="a_Node000029"><a xlink:href="_grit_processor_8h.html" target="_top" xlink:title=" ">
<polygon fill="white" stroke="#666666" points="702.5,-305 591.5,-305 591.5,-286 702.5,-286 702.5,-305"/>
<text text-anchor="middle" x="647" y="-293" font-family="Helvetica Neue" font-size="10.00">Grit/GritProcessor.h</text>
</a>
</g>
</g>
<!-- Node17&#45;&gt;Node29 -->
<g id="edge54_Node000017_Node000029" class="edge">
<title>Node17&#45;&gt;Node29</title>
<g id="a_edge54_Node000017_Node000029"><a xlink:title=" ">
<path fill="none" stroke="#63b8ff" d="M647,-340.75C647,-333.8 647,-323.85 647,-315.13"/>
<polygon fill="#63b8ff" stroke="#63b8ff" points="650.5,-315.09 647,-305.09 643.5,-315.09 650.5,-315.09"/>
</a>
</g>
</g>
<!-- Node31 -->
<g id="Node000031" class="node">
<title>Node31</title>
<g id="a_Node000031"><a xlink:href="_friction_processor_8h.html" target="_top" xlink:title=" ">
<polygon fill="white" stroke="#666666" points="1010.5,-305 863.5,-305 863.5,-286 1010.5,-286 1010.5,-305"/>
<text text-anchor="middle" x="937" y="-293" font-family="Helvetica Neue" font-size="10.00">Friction/FrictionProcessor.h</text>
</a>
</g>
</g>
<!-- Node17&#45;&gt;Node31 -->
<g id="edge59_Node000017_Node000031" class="edge">
<title>Node17&#45;&gt;Node31</title>
<g id="a_edge59_Node000017_Node000031"><a xlink:title=" ">
<path fill="none" stroke="#63b8ff" d="M693.59,-340.98C744.39,-331.7 825.69,-316.84 880.19,-306.88"/>
<polygon fill="#63b8ff" stroke="#63b8ff" points="880.83,-310.32 890.04,-305.08 879.57,-303.44 880.83,-310.32"/>
</a>
</g>
</g>
<!-- Node33 -->
<g id="Node000033" class="node">
<title>Node33</title>
<g id="a_Node000033"><a xlink:href="_l_f_o_processor_8h.html" target="_top" xlink:title=" ">
<polygon fill="white" stroke="#666666" points="263.5,-305 150.5,-305 150.5,-286 263.5,-286 263.5,-305"/>
<text text-anchor="middle" x="207" y="-293" font-family="Helvetica Neue" font-size="10.00">LFO/LFOProcessor.h</text>
</a>
</g>
</g>
<!-- Node17&#45;&gt;Node33 -->
<g id="edge64_Node000017_Node000033" class="edge">
<title>Node17&#45;&gt;Node33</title>
<g id="a_edge64_Node000017_Node000033"><a xlink:title=" ">
<path fill="none" stroke="#63b8ff" d="M586.24,-342.52C514.16,-334.18 390.04,-319.66 273.85,-305.22"/>
<polygon fill="#63b8ff" stroke="#63b8ff" points="274.07,-301.72 263.72,-303.96 273.21,-308.67 274.07,-301.72"/>
</a>
</g>
</g>
<!-- Node36 -->
<g id="Node000036" class="node">
<title>Node36</title>
<g id="a_Node000036"><a xlink:href="_filter_processor_8h.html" target="_top" xlink:title=" ">
<polygon fill="white" stroke="#666666" points="845.5,-305 720.5,-305 720.5,-286 845.5,-286 845.5,-305"/>
<text text-anchor="middle" x="783" y="-293" font-family="Helvetica Neue" font-size="10.00">Filter/FilterProcessor.h</text>
</a>
</g>
</g>
<!-- Node17&#45;&gt;Node36 -->
<g id="edge71_Node000017_Node000036" class="edge">
<title>Node17&#45;&gt;Node36</title>
<g id="a_edge71_Node000017_Node000036"><a xlink:title=" ">
<path fill="none" stroke="#63b8ff" d="M668.85,-340.98C691.12,-332.3 725.9,-318.75 751.22,-308.88"/>
<polygon fill="#63b8ff" stroke="#63b8ff" points="752.71,-312.06 760.75,-305.17 750.16,-305.54 752.71,-312.06"/>
</a>
</g>
</g>
<!-- Node18&#45;&gt;Node7 -->
<g id="edge34_Node000018_Node000007" class="edge">
<title>Node18&#45;&gt;Node7</title>
<g id="a_edge34_Node000018_Node000007"><a xlink:title=" ">
<path fill="none" stroke="#63b8ff" d="M468.04,-285.94C432.19,-278.09 386.19,-265.36 375,-250 352.76,-219.46 363.15,-200.87 375,-165 378.46,-154.54 385.43,-144.53 392.08,-136.66"/>
<polygon fill="#63b8ff" stroke="#63b8ff" points="394.86,-138.8 398.98,-129.04 389.67,-134.1 394.86,-138.8"/>
</a>
</g>
</g>
<!-- Node19 -->
<g id="Node000019" class="node">
<title>Node19</title>
<g id="a_Node000019"><a xlink:href="_gain_u_i_8h.html" target="_top" xlink:title=" ">
<polygon fill="white" stroke="#666666" points="756.5,-250 697.5,-250 697.5,-231 756.5,-231 756.5,-250"/>
<text text-anchor="middle" x="727" y="-238" font-family="Helvetica Neue" font-size="10.00">GainUI.h</text>
</a>
</g>
</g>
<!-- Node18&#45;&gt;Node19 -->
<g id="edge30_Node000018_Node000019" class="edge">
<title>Node18&#45;&gt;Node19</title>
<g id="a_edge30_Node000018_Node000019"><a xlink:title=" ">
<path fill="none" stroke="#63b8ff" d="M547.38,-285.98C585.61,-276.52 647.26,-261.25 687.46,-251.29"/>
<polygon fill="#63b8ff" stroke="#63b8ff" points="688.32,-254.68 697.19,-248.88 686.64,-247.89 688.32,-254.68"/>
</a>
</g>
</g>
<!-- Node19&#45;&gt;Node6 -->
<g id="edge31_Node000019_Node000006" class="edge">
<title>Node19&#45;&gt;Node6</title>
<g id="a_edge31_Node000019_Node000006"><a xlink:title=" ">
<path fill="none" stroke="#63b8ff" d="M756.78,-231.24C793.62,-221.03 856.48,-203.6 897.63,-192.19"/>
<polygon fill="#63b8ff" stroke="#63b8ff" points="898.64,-195.54 907.34,-189.5 896.77,-188.8 898.64,-195.54"/>
</a>
</g>
</g>
<!-- Node20 -->
<g id="Node000020" class="node">
<title>Node20</title>
<g id="a_Node000020"><a xlink:href="_phi_dial_8h.html" target="_top" xlink:title=" ">
<polygon fill="white" stroke="#666666" points="865.5,-195 764.5,-195 764.5,-165 865.5,-165 865.5,-195"/>
<text text-anchor="start" x="772.5" y="-183" font-family="Helvetica Neue" font-size="10.00">../../ui/component</text>
<text text-anchor="middle" x="815" y="-172" font-family="Helvetica Neue" font-size="10.00">/PhiDial.h</text>
</a>
</g>
</g>
<!-- Node19&#45;&gt;Node20 -->
<g id="edge32_Node000019_Node000020" class="edge">
<title>Node19&#45;&gt;Node20</title>
<g id="a_edge32_Node000019_Node000020"><a xlink:title=" ">
<path fill="none" stroke="#63b8ff" d="M739.98,-230.87C751.81,-223 769.73,-211.09 785.09,-200.89"/>
<polygon fill="#63b8ff" stroke="#63b8ff" points="787.38,-203.57 793.77,-195.11 783.5,-197.74 787.38,-203.57"/>
</a>
</g>
</g>
<!-- Node20&#45;&gt;Node3 -->
<g id="edge33_Node000020_Node000003" class="edge">
<title>Node20&#45;&gt;Node3</title>
<g id="a_edge33_Node000020_Node000003"><a xlink:title=" ">
<path fill="none" stroke="#63b8ff" d="M851.67,-164.92C936.06,-132.53 1142.81,-53.18 1222.22,-22.7"/>
<polygon fill="#63b8ff" stroke="#63b8ff" points="1223.61,-25.91 1231.69,-19.06 1221.1,-19.38 1223.61,-25.91"/>
</a>
</g>
</g>
<!-- Node21&#45;&gt;Node7 -->
<g id="edge40_Node000021_Node000007" class="edge">
<title>Node21&#45;&gt;Node7</title>
<g id="a_edge40_Node000021_Node000007"><a xlink:title=" ">
<path fill="none" stroke="#63b8ff" d="M352.42,-285.72C347.26,-277.03 339.95,-263.17 337,-250 328.74,-213.14 318.71,-198.05 337,-165 344.84,-150.83 359.29,-140.57 373.11,-133.5"/>
<polygon fill="#63b8ff" stroke="#63b8ff" points="374.92,-136.52 382.49,-129.1 371.95,-130.18 374.92,-136.52"/>
</a>
</g>
</g>
<!-- Node22 -->
<g id="Node000022" class="node">
<title>Node22</title>
<g id="a_Node000022"><a xlink:href="_impulse_u_i_8h.html" target="_top" xlink:title=" ">
<polygon fill="white" stroke="#666666" points="679.5,-250 604.5,-250 604.5,-231 679.5,-231 679.5,-250"/>
<text text-anchor="middle" x="642" y="-238" font-family="Helvetica Neue" font-size="10.00">ImpulseUI.h</text>
</a>
</g>
</g>
<!-- Node21&#45;&gt;Node22 -->
<g id="edge36_Node000021_Node000022" class="edge">
<title>Node21&#45;&gt;Node22</title>
<g id="a_edge36_Node000021_Node000022"><a xlink:title=" ">
<path fill="none" stroke="#63b8ff" d="M403.63,-285.98C455.92,-276.23 541.23,-260.31 594.35,-250.39"/>
<polygon fill="#63b8ff" stroke="#63b8ff" points="595.02,-253.83 604.21,-248.55 593.73,-246.95 595.02,-253.83"/>
</a>
</g>
</g>
<!-- Node22&#45;&gt;Node6 -->
<g id="edge37_Node000022_Node000006" class="edge">
<title>Node22&#45;&gt;Node6</title>
<g id="a_edge37_Node000022_Node000006"><a xlink:title=" ">
<path fill="none" stroke="#63b8ff" d="M679.78,-232.38C735.6,-221.83 837.44,-202.5 874,-195 879.09,-193.95 884.41,-192.84 889.7,-191.7"/>
<polygon fill="#63b8ff" stroke="#63b8ff" points="890.76,-195.06 899.79,-189.53 889.28,-188.22 890.76,-195.06"/>
</a>
</g>
</g>
<!-- Node22&#45;&gt;Node20 -->
<g id="edge38_Node000022_Node000020" class="edge">
<title>Node22&#45;&gt;Node20</title>
<g id="a_edge38_Node000022_Node000020"><a xlink:title=" ">
<path fill="none" stroke="#63b8ff" d="M667.16,-230.99C692.38,-222.46 731.94,-209.09 763.79,-198.32"/>
<polygon fill="#63b8ff" stroke="#63b8ff" points="765.06,-201.58 773.41,-195.06 762.81,-194.95 765.06,-201.58"/>
</a>
</g>
</g>
<!-- Node23 -->
<g id="Node000023" class="node">
<title>Node23</title>
<g id="a_Node000023"><a xlink:href="_phi_waveform_8h.html" target="_top" xlink:title=" ">
<polygon fill="white" stroke="#666666" points="662.5,-195 561.5,-195 561.5,-165 662.5,-165 662.5,-195"/>
<text text-anchor="start" x="569.5" y="-183" font-family="Helvetica Neue" font-size="10.00">../../ui/component</text>
<text text-anchor="middle" x="612" y="-172" font-family="Helvetica Neue" font-size="10.00">/PhiWaveform.h</text>
</a>
</g>
</g>
<!-- Node22&#45;&gt;Node23 -->
<g id="edge39_Node000022_Node000023" class="edge">
<title>Node22&#45;&gt;Node23</title>
<g id="a_edge39_Node000022_Node000023"><a xlink:title=" ">
<path fill="none" stroke="#63b8ff" d="M637.57,-230.87C633.96,-223.81 628.67,-213.5 623.84,-204.08"/>
<polygon fill="#63b8ff" stroke="#63b8ff" points="626.92,-202.42 619.24,-195.11 620.69,-205.61 626.92,-202.42"/>
</a>
</g>
</g>
<!-- Node24&#45;&gt;Node7 -->
<g id="edge44_Node000024_Node000007" class="edge">
<title>Node24&#45;&gt;Node7</title>
<g id="a_edge44_Node000024_Node000007"><a xlink:title=" ">
<path fill="none" stroke="#63b8ff" d="M1028.34,-286.86C1025.19,-286.56 1022.06,-286.27 1019,-286 908.71,-276.15 620.19,-301.2 522,-250 478.85,-227.5 485.68,-201.05 453,-165 443.96,-155.03 433.27,-144.41 424.57,-136.05"/>
<polygon fill="#63b8ff" stroke="#63b8ff" points="426.91,-133.44 417.26,-129.09 422.09,-138.51 426.91,-133.44"/>
</a>
</g>
</g>
<!-- Node25 -->
<g id="Node000025" class="node">
<title>Node25</title>
<g id="a_Node000025"><a xlink:href="_output_u_i_8h.html" target="_top" xlink:title=" ">
<polygon fill="white" stroke="#666666" points="1169.5,-250 1100.5,-250 1100.5,-231 1169.5,-231 1169.5,-250"/>
<text text-anchor="middle" x="1135" y="-238" font-family="Helvetica Neue" font-size="10.00">OutputUI.h</text>
</a>
</g>
</g>
<!-- Node24&#45;&gt;Node25 -->
<g id="edge42_Node000024_Node000025" class="edge">
<title>Node24&#45;&gt;Node25</title>
<g id="a_edge42_Node000024_Node000025"><a xlink:title=" ">
<path fill="none" stroke="#63b8ff" d="M1104.94,-285.75C1109.98,-278.34 1117.34,-267.5 1123.51,-258.41"/>
<polygon fill="#63b8ff" stroke="#63b8ff" points="1126.44,-260.33 1129.17,-250.09 1120.65,-256.39 1126.44,-260.33"/>
</a>
</g>
</g>
<!-- Node25&#45;&gt;Node6 -->
<g id="edge43_Node000025_Node000006" class="edge">
<title>Node25&#45;&gt;Node6</title>
<g id="a_edge43_Node000025_Node000006"><a xlink:title=" ">
<path fill="none" stroke="#63b8ff" d="M1106.35,-230.99C1072.07,-220.81 1014.52,-203.72 976.4,-192.4"/>
<polygon fill="#63b8ff" stroke="#63b8ff" points="977.26,-189.01 966.68,-189.52 975.27,-195.72 977.26,-189.01"/>
</a>
</g>
</g>
<!-- Node26&#45;&gt;Node7 -->
<g id="edge53_Node000026_Node000007" class="edge">
<title>Node26&#45;&gt;Node7</title>
<g id="a_edge53_Node000026_Node000007"><a xlink:title=" ">
<path fill="none" stroke="#63b8ff" d="M76.67,-285.68C104.9,-262.74 184.54,-200.56 260,-165 291.37,-150.22 328.8,-139.02 358.16,-131.55"/>
<polygon fill="#63b8ff" stroke="#63b8ff" points="359.32,-134.87 368.19,-129.07 357.64,-128.07 359.32,-134.87"/>
</a>
</g>
</g>
<!-- Node26&#45;&gt;Node8 -->
<g id="edge52_Node000026_Node000008" class="edge">
<title>Node26&#45;&gt;Node8</title>
<g id="a_edge52_Node000026_Node000008"><a xlink:title=" ">
<path fill="none" stroke="#63b8ff" d="M72.65,-285.84C82.56,-273.18 102.05,-249.17 121,-231 155.02,-198.38 164.14,-190.15 204,-165 262.34,-128.19 336.29,-95.2 377.22,-78.01"/>
<polygon fill="#63b8ff" stroke="#63b8ff" points="378.75,-81.16 386.64,-74.09 376.06,-74.7 378.75,-81.16"/>
</a>
</g>
</g>
<!-- Node27 -->
<g id="Node000027" class="node">
<title>Node27</title>
<g id="a_Node000027"><a xlink:href="_string_u_i_8h.html" target="_top" xlink:title=" ">
<polygon fill="white" stroke="#666666" points="1082.5,-250 1017.5,-250 1017.5,-231 1082.5,-231 1082.5,-250"/>
<text text-anchor="middle" x="1050" y="-238" font-family="Helvetica Neue" font-size="10.00">StringUI.h</text>
</a>
</g>
</g>
<!-- Node26&#45;&gt;Node27 -->
<g id="edge46_Node000026_Node000027" class="edge">
<title>Node26&#45;&gt;Node27</title>
<g id="a_edge46_Node000026_Node000027"><a xlink:title=" ">
<path fill="none" stroke="#63b8ff" d="M132.23,-286.73C135.19,-286.47 138.13,-286.22 141,-286 522.23,-256.52 623.41,-295.71 1007.08,-249.88"/>
<polygon fill="#63b8ff" stroke="#63b8ff" points="1007.56,-253.35 1017.07,-248.68 1006.72,-246.4 1007.56,-253.35"/>
</a>
</g>
</g>
<!-- Node27&#45;&gt;Node6 -->
<g id="edge47_Node000027_Node000006" class="edge">
<title>Node27&#45;&gt;Node6</title>
<g id="a_edge47_Node000027_Node000006"><a xlink:title=" ">
<path fill="none" stroke="#63b8ff" d="M1033.47,-230.87C1015.03,-221.23 984.96,-205.53 963.49,-194.31"/>
<polygon fill="#63b8ff" stroke="#63b8ff" points="965.08,-191.19 954.59,-189.67 961.84,-197.4 965.08,-191.19"/>
</a>
</g>
</g>
<!-- Node27&#45;&gt;Node20 -->
<g id="edge48_Node000027_Node000020" class="edge">
<title>Node27&#45;&gt;Node20</title>
<g id="a_edge48_Node000027_Node000020"><a xlink:title=" ">
<path fill="none" stroke="#63b8ff" d="M1017.32,-231.37C980.86,-222.29 921.06,-207.4 875.91,-196.16"/>
<polygon fill="#63b8ff" stroke="#63b8ff" points="876.48,-192.7 865.93,-193.68 874.79,-199.49 876.48,-192.7"/>
</a>
</g>
</g>
<!-- Node27&#45;&gt;Node28 -->
<g id="edge49_Node000027_Node000028" class="edge">
<title>Node27&#45;&gt;Node28</title>
<g id="a_edge49_Node000027_Node000028"><a xlink:title=" ">
<path fill="none" stroke="#63b8ff" d="M1082.63,-232.52C1085.46,-231.98 1088.28,-231.46 1091,-231 1199.88,-212.44 1327.61,-196.59 1401.82,-187.96"/>
<polygon fill="#63b8ff" stroke="#63b8ff" points="1402.4,-191.42 1411.93,-186.79 1401.59,-184.47 1402.4,-191.42"/>
</a>
</g>
</g>
<!-- Node28&#45;&gt;Node3 -->
<g id="edge50_Node000028_Node000003" class="edge">
<title>Node28&#45;&gt;Node3</title>
<g id="a_edge50_Node000028_Node000003"><a xlink:title=" ">
<path fill="none" stroke="#63b8ff" d="M1458.48,-164.92C1447.76,-139.36 1421.73,-85.2 1383,-55 1360.16,-37.19 1329.71,-26.24 1304.13,-19.66"/>
<polygon fill="#63b8ff" stroke="#63b8ff" points="1304.77,-16.22 1294.23,-17.27 1303.12,-23.02 1304.77,-16.22"/>
</a>
</g>
</g>
<!-- Node28&#45;&gt;Node5 -->
<g id="edge51_Node000028_Node000005" class="edge">
<title>Node28&#45;&gt;Node5</title>
<g id="a_edge51_Node000028_Node000005"><a xlink:title=" ">
<path fill="none" stroke="#63b8ff" d="M1490.11,-164.99C1507.64,-155.58 1530.62,-143.24 1547.94,-133.95"/>
<polygon fill="#63b8ff" stroke="#63b8ff" points="1549.75,-136.95 1556.9,-129.14 1546.44,-130.78 1549.75,-136.95"/>
</a>
</g>
</g>
<!-- Node29&#45;&gt;Node7 -->
<g id="edge58_Node000029_Node000007" class="edge">
<title>Node29&#45;&gt;Node7</title>
<g id="a_edge58_Node000029_Node000007"><a xlink:title=" ">
<path fill="none" stroke="#63b8ff" d="M593.03,-285.97C525.78,-275.08 418.89,-256.85 413,-250 386.3,-218.98 395.02,-166.64 402.31,-138.96"/>
<polygon fill="#63b8ff" stroke="#63b8ff" points="405.76,-139.61 405.14,-129.04 399.03,-137.69 405.76,-139.61"/>
</a>
</g>
</g>
<!-- Node30 -->
<g id="Node000030" class="node">
<title>Node30</title>
<g id="a_Node000030"><a xlink:href="_grit_u_i_8h.html" target="_top" xlink:title=" ">
<polygon fill="white" stroke="#666666" points="829,-250 775,-250 775,-231 829,-231 829,-250"/>
<text text-anchor="middle" x="802" y="-238" font-family="Helvetica Neue" font-size="10.00">GritUI.h</text>
</a>
</g>
</g>
<!-- Node29&#45;&gt;Node30 -->
<g id="edge55_Node000029_Node000030" class="edge">
<title>Node29&#45;&gt;Node30</title>
<g id="a_edge55_Node000029_Node000030"><a xlink:title=" ">
<path fill="none" stroke="#63b8ff" d="M671.9,-285.98C697.7,-277.16 738.22,-263.31 767.18,-253.41"/>
<polygon fill="#63b8ff" stroke="#63b8ff" points="768.57,-256.63 776.9,-250.08 766.31,-250.01 768.57,-256.63"/>
</a>
</g>
</g>
<!-- Node30&#45;&gt;Node6 -->
<g id="edge56_Node000030_Node000006" class="edge">
<title>Node30&#45;&gt;Node6</title>
<g id="a_edge56_Node000030_Node000006"><a xlink:title=" ">
<path fill="none" stroke="#63b8ff" d="M821.78,-230.99C844.64,-221.16 882.49,-204.88 908.76,-193.58"/>
<polygon fill="#63b8ff" stroke="#63b8ff" points="910.4,-196.68 918.2,-189.52 907.63,-190.25 910.4,-196.68"/>
</a>
</g>
</g>
<!-- Node30&#45;&gt;Node20 -->
<g id="edge57_Node000030_Node000020" class="edge">
<title>Node30&#45;&gt;Node20</title>
<g id="a_edge57_Node000030_Node000020"><a xlink:title=" ">
<path fill="none" stroke="#63b8ff" d="M803.92,-230.87C805.44,-224.03 807.64,-214.14 809.67,-204.97"/>
<polygon fill="#63b8ff" stroke="#63b8ff" points="813.11,-205.64 811.86,-195.11 806.28,-204.12 813.11,-205.64"/>
</a>
</g>
</g>
<!-- Node31&#45;&gt;Node7 -->
<g id="edge63_Node000031_Node000007" class="edge">
<title>Node31&#45;&gt;Node7</title>
<g id="a_edge63_Node000031_Node000007"><a xlink:title=" ">
<path fill="none" stroke="#63b8ff" d="M863.24,-286.93C860.12,-286.62 857.03,-286.3 854,-286 772.9,-277.85 558.27,-292.95 489,-250 467.44,-236.63 432.87,-170.93 416.78,-138.57"/>
<polygon fill="#63b8ff" stroke="#63b8ff" points="419.79,-136.78 412.24,-129.35 413.51,-139.87 419.79,-136.78"/>
</a>
</g>
</g>
<!-- Node32 -->
<g id="Node000032" class="node">
<title>Node32</title>
<g id="a_Node000032"><a xlink:href="_friction_u_i_8h.html" target="_top" xlink:title=" ">
<polygon fill="white" stroke="#666666" points="999,-250 927,-250 927,-231 999,-231 999,-250"/>
<text text-anchor="middle" x="963" y="-238" font-family="Helvetica Neue" font-size="10.00">FrictionUI.h</text>
</a>
</g>
</g>
<!-- Node31&#45;&gt;Node32 -->
<g id="edge60_Node000031_Node000032" class="edge">
<title>Node31&#45;&gt;Node32</title>
<g id="a_edge60_Node000031_Node000032"><a xlink:title=" ">
<path fill="none" stroke="#63b8ff" d="M941.29,-285.75C944.81,-278.57 949.91,-268.18 954.28,-259.27"/>
<polygon fill="#63b8ff" stroke="#63b8ff" points="957.52,-260.61 958.79,-250.09 951.24,-257.53 957.52,-260.61"/>
</a>
</g>
</g>
<!-- Node32&#45;&gt;Node6 -->
<g id="edge61_Node000032_Node000006" class="edge">
<title>Node32&#45;&gt;Node6</title>
<g id="a_edge61_Node000032_Node000006"><a xlink:title=" ">
<path fill="none" stroke="#63b8ff" d="M959.31,-230.87C955.73,-222.49 950.18,-209.51 945.65,-198.89"/>
<polygon fill="#63b8ff" stroke="#63b8ff" points="948.85,-197.49 941.7,-189.67 942.42,-200.24 948.85,-197.49"/>
</a>
</g>
</g>
<!-- Node32&#45;&gt;Node20 -->
<g id="edge62_Node000032_Node000020" class="edge">
<title>Node32&#45;&gt;Node20</title>
<g id="a_edge62_Node000032_Node000020"><a xlink:title=" ">
<path fill="none" stroke="#63b8ff" d="M941.48,-230.99C920.27,-222.61 887.22,-209.55 860.22,-198.87"/>
<polygon fill="#63b8ff" stroke="#63b8ff" points="861.17,-195.49 850.58,-195.06 858.59,-202 861.17,-195.49"/>
</a>
</g>
</g>
<!-- Node33&#45;&gt;Node7 -->
<g id="edge70_Node000033_Node000007" class="edge">
<title>Node33&#45;&gt;Node7</title>
<g id="a_edge70_Node000033_Node000007"><a xlink:title=" ">
<path fill="none" stroke="#63b8ff" d="M207.74,-285.89C209.24,-272.86 213.63,-247.9 226,-231 263,-180.47 330.74,-148.43 372.32,-132.53"/>
<polygon fill="#63b8ff" stroke="#63b8ff" points="373.63,-135.78 381.79,-129.02 371.2,-129.21 373.63,-135.78"/>
</a>
</g>
</g>
<!-- Node34 -->
<g id="Node000034" class="node">
<title>Node34</title>
<g id="a_Node000034"><a xlink:href="_l_f_o_8h.html" target="_top" xlink:title=" ">
<polygon fill="white" stroke="#666666" points="279,-250 235,-250 235,-231 279,-231 279,-250"/>
<text text-anchor="middle" x="257" y="-238" font-family="Helvetica Neue" font-size="10.00">LFO.h</text>
</a>
</g>
</g>
<!-- Node33&#45;&gt;Node34 -->
<g id="edge65_Node000033_Node000034" class="edge">
<title>Node33&#45;&gt;Node34</title>
<g id="a_edge65_Node000033_Node000034"><a xlink:title=" ">
<path fill="none" stroke="#63b8ff" d="M215.26,-285.75C222.46,-278.11 233.11,-266.82 241.85,-257.56"/>
<polygon fill="#63b8ff" stroke="#63b8ff" points="244.58,-259.76 248.9,-250.09 239.49,-254.96 244.58,-259.76"/>
</a>
</g>
</g>
<!-- Node35 -->
<g id="Node000035" class="node">
<title>Node35</title>
<g id="a_Node000035"><a xlink:href="_l_f_o_u_i_8h.html" target="_top" xlink:title=" ">
<polygon fill="white" stroke="#666666" points="586.5,-250 531.5,-250 531.5,-231 586.5,-231 586.5,-250"/>
<text text-anchor="middle" x="559" y="-238" font-family="Helvetica Neue" font-size="10.00">LFOUI.h</text>
</a>
</g>
</g>
<!-- Node33&#45;&gt;Node35 -->
<g id="edge66_Node000033_Node000035" class="edge">
<title>Node33&#45;&gt;Node35</title>
<g id="a_edge66_Node000033_Node000035"><a xlink:title=" ">
<path fill="none" stroke="#63b8ff" d="M263.55,-285.98C335.94,-275.09 459.35,-256.5 521.25,-247.18"/>
<polygon fill="#63b8ff" stroke="#63b8ff" points="521.99,-250.61 531.36,-245.66 520.95,-243.69 521.99,-250.61"/>
</a>
</g>
</g>
<!-- Node35&#45;&gt;Node6 -->
<g id="edge67_Node000035_Node000006" class="edge">
<title>Node35&#45;&gt;Node6</title>
<g id="a_edge67_Node000035_Node000006"><a xlink:title=" ">
<path fill="none" stroke="#63b8ff" d="M586.85,-232.62C589.59,-232.04 592.35,-231.48 595,-231 718.01,-208.6 750.81,-216.38 874,-195 879.74,-194 885.75,-192.84 891.69,-191.63"/>
<polygon fill="#63b8ff" stroke="#63b8ff" points="892.49,-195.04 901.56,-189.55 891.05,-188.19 892.49,-195.04"/>
</a>
</g>
</g>
<!-- Node35&#45;&gt;Node20 -->
<g id="edge68_Node000035_Node000020" class="edge">
<title>Node35&#45;&gt;Node20</title>
<g id="a_edge68_Node000035_Node000020"><a xlink:title=" ">
<path fill="none" stroke="#63b8ff" d="M586.51,-232.98C589.38,-232.31 592.25,-231.64 595,-231 648.81,-218.53 710.09,-204.63 754.29,-194.65"/>
<polygon fill="#63b8ff" stroke="#63b8ff" points="755.31,-198.01 764.29,-192.4 753.77,-191.18 755.31,-198.01"/>
</a>
</g>
</g>
<!-- Node35&#45;&gt;Node23 -->
<g id="edge69_Node000035_Node000023" class="edge">
<title>Node35&#45;&gt;Node23</title>
<g id="a_edge69_Node000035_Node000023"><a xlink:title=" ">
<path fill="none" stroke="#63b8ff" d="M566.82,-230.87C573.55,-223.44 583.54,-212.42 592.41,-202.62"/>
<polygon fill="#63b8ff" stroke="#63b8ff" points="595.09,-204.88 599.21,-195.11 589.9,-200.18 595.09,-204.88"/>
</a>
</g>
</g>
<!-- Node36&#45;&gt;Node7 -->
<g id="edge75_Node000036_Node000007" class="edge">
<title>Node36&#45;&gt;Node7</title>
<g id="a_edge75_Node000036_Node000007"><a xlink:title=" ">
<path fill="none" stroke="#63b8ff" d="M720.21,-286.93C625.41,-275.39 456.15,-254.27 451,-250 417.65,-222.38 410,-168.17 408.36,-139.43"/>
<polygon fill="#63b8ff" stroke="#63b8ff" points="411.84,-139 407.97,-129.14 404.85,-139.26 411.84,-139"/>
</a>
</g>
</g>
<!-- Node37 -->
<g id="Node000037" class="node">
<title>Node37</title>
<g id="a_Node000037"><a xlink:href="_filter_u_i_8h.html" target="_top" xlink:title=" ">
<polygon fill="white" stroke="#666666" points="908.5,-250 847.5,-250 847.5,-231 908.5,-231 908.5,-250"/>
<text text-anchor="middle" x="878" y="-238" font-family="Helvetica Neue" font-size="10.00">FilterUI.h</text>
</a>
</g>
</g>
<!-- Node36&#45;&gt;Node37 -->
<g id="edge72_Node000036_Node000037" class="edge">
<title>Node36&#45;&gt;Node37</title>
<g id="a_edge72_Node000036_Node000037"><a xlink:title=" ">
<path fill="none" stroke="#63b8ff" d="M798.26,-285.98C813.13,-277.69 835.98,-264.94 853.42,-255.22"/>
<polygon fill="#63b8ff" stroke="#63b8ff" points="855.43,-258.1 862.46,-250.17 852.02,-251.99 855.43,-258.1"/>
</a>
</g>
</g>
<!-- Node37&#45;&gt;Node6 -->
<g id="edge73_Node000037_Node000006" class="edge">
<title>Node37&#45;&gt;Node6</title>
<g id="a_edge73_Node000037_Node000006"><a xlink:title=" ">
<path fill="none" stroke="#63b8ff" d="M886.85,-230.87C895.98,-221.97 910.42,-207.89 921.64,-196.95"/>
<polygon fill="#63b8ff" stroke="#63b8ff" points="924.39,-199.15 929.11,-189.67 919.51,-194.14 924.39,-199.15"/>
</a>
</g>
</g>
<!-- Node37&#45;&gt;Node20 -->
<g id="edge74_Node000037_Node000020" class="edge">
<title>Node37&#45;&gt;Node20</title>
<g id="a_edge74_Node000037_Node000020"><a xlink:title=" ">
<path fill="none" stroke="#63b8ff" d="M868.7,-230.87C860.55,-223.3 848.36,-211.98 837.66,-202.04"/>
<polygon fill="#63b8ff" stroke="#63b8ff" points="839.91,-199.35 830.2,-195.11 835.15,-204.48 839.91,-199.35"/>
</a>
</g>
</g>
</g>
</svg>
