<?xml version="1.0" encoding="UTF-8" standalone="no"?>
<!DOCTYPE svg PUBLIC "-//W3C//DTD SVG 1.1//EN"
 "http://www.w3.org/Graphics/SVG/1.1/DTD/svg11.dtd">
<!-- Generated by graphviz version 2.43.0 (0)
 -->
<!-- Title: ModuleBox.cpp Pages: 1 -->
<svg width="516pt" height="412pt"
 viewBox="0.00 0.00 515.50 412.00" xmlns="http://www.w3.org/2000/svg" xmlns:xlink="http://www.w3.org/1999/xlink">
<g id="graph0" class="graph" transform="scale(1 1) rotate(0) translate(4 408)">
<title>ModuleBox.cpp</title>
<!-- Node1 -->
<g id="Node000001" class="node">
<title>Node1</title>
<g id="a_Node000001"><a xlink:title=" ">
<polygon fill="#999999" stroke="#666666" points="344.5,-404 252.5,-404 252.5,-385 344.5,-385 344.5,-404"/>
<text text-anchor="middle" x="298.5" y="-392" font-family="Helvetica Neue" font-size="10.00">ModuleBox.cpp</text>
</a>
</g>
</g>
<!-- Node2 -->
<g id="Node000002" class="node">
<title>Node2</title>
<g id="a_Node000002"><a xlink:href="_module_box_8h.html" target="_top" xlink:title=" ">
<polygon fill="white" stroke="#666666" points="338.5,-349 258.5,-349 258.5,-330 338.5,-330 338.5,-349"/>
<text text-anchor="middle" x="298.5" y="-337" font-family="Helvetica Neue" font-size="10.00">ModuleBox.h</text>
</a>
</g>
</g>
<!-- Node1&#45;&gt;Node2 -->
<g id="edge1_Node000001_Node000002" class="edge">
<title>Node1&#45;&gt;Node2</title>
<g id="a_edge1_Node000001_Node000002"><a xlink:title=" ">
<path fill="none" stroke="#63b8ff" d="M298.5,-384.75C298.5,-377.8 298.5,-367.85 298.5,-359.13"/>
<polygon fill="#63b8ff" stroke="#63b8ff" points="302,-359.09 298.5,-349.09 295,-359.09 302,-359.09"/>
</a>
</g>
</g>
<!-- Node3 -->
<g id="Node000003" class="node">
<title>Node3</title>
<g id="a_Node000003"><a xlink:href="_port_u_i_8h.html" target="_top" xlink:title=" ">
<polygon fill="white" stroke="#666666" points="243.5,-294 187.5,-294 187.5,-275 243.5,-275 243.5,-294"/>
<text text-anchor="middle" x="215.5" y="-282" font-family="Helvetica Neue" font-size="10.00">PortUI.h</text>
</a>
</g>
</g>
<!-- Node2&#45;&gt;Node3 -->
<g id="edge2_Node000002_Node000003" class="edge">
<title>Node2&#45;&gt;Node3</title>
<g id="a_edge2_Node000002_Node000003"><a xlink:title=" ">
<path fill="none" stroke="#63b8ff" d="M285.16,-329.98C272.41,-321.84 252.95,-309.41 237.83,-299.76"/>
<polygon fill="#63b8ff" stroke="#63b8ff" points="239.39,-296.6 229.08,-294.17 235.62,-302.5 239.39,-296.6"/>
</a>
</g>
</g>
<!-- Node8 -->
<g id="Node000008" class="node">
<title>Node8</title>
<g id="a_Node000008"><a xlink:href="_module_u_i_8h.html" target="_top" xlink:title=" ">
<polygon fill="white" stroke="#666666" points="321.5,-184 237.5,-184 237.5,-165 321.5,-165 321.5,-184"/>
<text text-anchor="middle" x="279.5" y="-172" font-family="Helvetica Neue" font-size="10.00">ui/ModuleUI.h</text>
</a>
</g>
</g>
<!-- Node2&#45;&gt;Node8 -->
<g id="edge15_Node000002_Node000008" class="edge">
<title>Node2&#45;&gt;Node8</title>
<g id="a_edge15_Node000002_Node000008"><a xlink:title=" ">
<path fill="none" stroke="#63b8ff" d="M297.48,-329.74C294.51,-304.31 285.86,-230.08 281.74,-194.69"/>
<polygon fill="#63b8ff" stroke="#63b8ff" points="285.16,-193.83 280.53,-184.31 278.21,-194.64 285.16,-193.83"/>
</a>
</g>
</g>
<!-- Node12 -->
<g id="Node000012" class="node">
<title>Node12</title>
<g id="a_Node000012"><a xlink:href="_phi_look_and_feel_8h.html" target="_top" xlink:title=" ">
<polygon fill="white" stroke="#666666" points="434,-239 331,-239 331,-220 434,-220 434,-239"/>
<text text-anchor="middle" x="382.5" y="-227" font-family="Helvetica Neue" font-size="10.00">PhiLookAndFeel.h</text>
</a>
</g>
</g>
<!-- Node2&#45;&gt;Node12 -->
<g id="edge16_Node000002_Node000012" class="edge">
<title>Node2&#45;&gt;Node12</title>
<g id="a_edge16_Node000002_Node000012"><a xlink:title=" ">
<path fill="none" stroke="#63b8ff" d="M302.76,-329.82C309.18,-317.15 322.13,-293.12 336.5,-275 344.85,-264.47 355.58,-253.95 364.58,-245.79"/>
<polygon fill="#63b8ff" stroke="#63b8ff" points="367.06,-248.27 372.23,-239.02 362.42,-243.03 367.06,-248.27"/>
</a>
</g>
</g>
<!-- Node13 -->
<g id="Node000013" class="node">
<title>Node13</title>
<g id="a_Node000013"><a xlink:href="_phi_toggle_button_8h.html" target="_top" xlink:title=" ">
<polygon fill="white" stroke="#666666" points="507.5,-294 345.5,-294 345.5,-275 507.5,-275 507.5,-294"/>
<text text-anchor="middle" x="426.5" y="-282" font-family="Helvetica Neue" font-size="10.00">component/PhiToggleButton.h</text>
</a>
</g>
</g>
<!-- Node2&#45;&gt;Node13 -->
<g id="edge19_Node000002_Node000013" class="edge">
<title>Node2&#45;&gt;Node13</title>
<g id="a_edge19_Node000002_Node000013"><a xlink:title=" ">
<path fill="none" stroke="#63b8ff" d="M319.07,-329.98C339.93,-321.34 372.47,-307.87 396.27,-298.02"/>
<polygon fill="#63b8ff" stroke="#63b8ff" points="397.66,-301.23 405.56,-294.17 394.98,-294.76 397.66,-301.23"/>
</a>
</g>
</g>
<!-- Node4 -->
<g id="Node000004" class="node">
<title>Node4</title>
<g id="a_Node000004"><a xlink:href="_state_8h.html" target="_top" xlink:title=" ">
<polygon fill="white" stroke="#666666" points="245.5,-239 185.5,-239 185.5,-220 245.5,-220 245.5,-239"/>
<text text-anchor="middle" x="215.5" y="-227" font-family="Helvetica Neue" font-size="10.00">../State.h</text>
</a>
</g>
</g>
<!-- Node3&#45;&gt;Node4 -->
<g id="edge3_Node000003_Node000004" class="edge">
<title>Node3&#45;&gt;Node4</title>
<g id="a_edge3_Node000003_Node000004"><a xlink:title=" ">
<path fill="none" stroke="#63b8ff" d="M215.5,-274.75C215.5,-267.8 215.5,-257.85 215.5,-249.13"/>
<polygon fill="#63b8ff" stroke="#63b8ff" points="219,-249.09 215.5,-239.09 212,-249.09 219,-249.09"/>
</a>
</g>
</g>
<!-- Node11 -->
<g id="Node000011" class="node">
<title>Node11</title>
<g id="a_Node000011"><a xlink:href="_hover_popup_8h.html" target="_top" xlink:title=" ">
<polygon fill="white" stroke="#666666" points="143,-74 0,-74 0,-55 143,-55 143,-74"/>
<text text-anchor="middle" x="71.5" y="-62" font-family="Helvetica Neue" font-size="10.00">component/HoverPopup.h</text>
</a>
</g>
</g>
<!-- Node3&#45;&gt;Node11 -->
<g id="edge13_Node000003_Node000011" class="edge">
<title>Node3&#45;&gt;Node11</title>
<g id="a_edge13_Node000003_Node000011"><a xlink:title=" ">
<path fill="none" stroke="#63b8ff" d="M206.95,-274.69C198.7,-265.98 186.09,-252.1 176.5,-239 136.9,-184.91 98.13,-115.31 80.85,-83.19"/>
<polygon fill="#63b8ff" stroke="#63b8ff" points="83.82,-81.32 76.02,-74.14 77.65,-84.61 83.82,-81.32"/>
</a>
</g>
</g>
<!-- Node5 -->
<g id="Node000005" class="node">
<title>Node5</title>
<g id="a_Node000005"><a xlink:title=" ">
<polygon fill="#e0e0e0" stroke="#999999" points="211.5,-19 131.5,-19 131.5,0 211.5,0 211.5,-19"/>
<text text-anchor="middle" x="171.5" y="-7" font-family="Helvetica Neue" font-size="10.00">JuceHeader.h</text>
</a>
</g>
</g>
<!-- Node4&#45;&gt;Node5 -->
<g id="edge4_Node000004_Node000005" class="edge">
<title>Node4&#45;&gt;Node5</title>
<g id="a_edge4_Node000004_Node000005"><a xlink:title=" ">
<path fill="none" stroke="#63b8ff" d="M213.18,-219.76C208.63,-202.5 198.41,-162.77 191.5,-129 184.31,-93.87 177.76,-52.5 174.23,-29.1"/>
<polygon fill="#63b8ff" stroke="#63b8ff" points="177.68,-28.54 172.75,-19.16 170.76,-29.57 177.68,-28.54"/>
</a>
</g>
</g>
<!-- Node6 -->
<g id="Node000006" class="node">
<title>Node6</title>
<g id="a_Node000006"><a xlink:href="_phi_theme_8h.html" target="_top" xlink:title=" ">
<polygon fill="white" stroke="#666666" points="425.5,-184 339.5,-184 339.5,-165 425.5,-165 425.5,-184"/>
<text text-anchor="middle" x="382.5" y="-172" font-family="Helvetica Neue" font-size="10.00">ui/PhiTheme.h</text>
</a>
</g>
</g>
<!-- Node4&#45;&gt;Node6 -->
<g id="edge5_Node000004_Node000006" class="edge">
<title>Node4&#45;&gt;Node6</title>
<g id="a_edge5_Node000004_Node000006"><a xlink:title=" ">
<path fill="none" stroke="#63b8ff" d="M242.33,-219.98C270.37,-211.09 314.55,-197.07 345.8,-187.15"/>
<polygon fill="#63b8ff" stroke="#63b8ff" points="346.99,-190.44 355.46,-184.08 344.87,-183.77 346.99,-190.44"/>
</a>
</g>
</g>
<!-- Node4&#45;&gt;Node8 -->
<g id="edge7_Node000004_Node000008" class="edge">
<title>Node4&#45;&gt;Node8</title>
<g id="a_edge7_Node000004_Node000008"><a xlink:title=" ">
<path fill="none" stroke="#63b8ff" d="M225.78,-219.98C235.34,-212.07 249.78,-200.11 261.28,-190.58"/>
<polygon fill="#63b8ff" stroke="#63b8ff" points="263.56,-193.24 269.03,-184.17 259.1,-187.85 263.56,-193.24"/>
</a>
</g>
</g>
<!-- Node9 -->
<g id="Node000009" class="node">
<title>Node9</title>
<g id="a_Node000009"><a xlink:href="_module_processor_8h.html" target="_top" xlink:title=" ">
<polygon fill="white" stroke="#666666" points="337,-129 200,-129 200,-110 337,-110 337,-129"/>
<text text-anchor="middle" x="268.5" y="-117" font-family="Helvetica Neue" font-size="10.00">../dsp/ModuleProcessor.h</text>
</a>
</g>
</g>
<!-- Node4&#45;&gt;Node9 -->
<g id="edge12_Node000004_Node000009" class="edge">
<title>Node4&#45;&gt;Node9</title>
<g id="a_edge12_Node000004_Node000009"><a xlink:title=" ">
<path fill="none" stroke="#63b8ff" d="M215.85,-219.82C216.66,-207.13 219.38,-183.09 228.5,-165 233.9,-154.29 242.57,-144.18 250.46,-136.32"/>
<polygon fill="#63b8ff" stroke="#63b8ff" points="253.07,-138.67 257.94,-129.26 248.27,-133.58 253.07,-138.67"/>
</a>
</g>
</g>
<!-- Node7 -->
<g id="Node000007" class="node">
<title>Node7</title>
<g id="a_Node000007"><a xlink:href="_phi_colours_8h.html" target="_top" xlink:title=" ">
<polygon fill="white" stroke="#666666" points="432,-129 355,-129 355,-110 432,-110 432,-129"/>
<text text-anchor="middle" x="393.5" y="-117" font-family="Helvetica Neue" font-size="10.00">PhiColours.h</text>
</a>
</g>
</g>
<!-- Node6&#45;&gt;Node7 -->
<g id="edge6_Node000006_Node000007" class="edge">
<title>Node6&#45;&gt;Node7</title>
<g id="a_edge6_Node000006_Node000007"><a xlink:title=" ">
<path fill="none" stroke="#63b8ff" d="M384.32,-164.75C385.76,-157.8 387.82,-147.85 389.63,-139.13"/>
<polygon fill="#63b8ff" stroke="#63b8ff" points="393.11,-139.59 391.72,-129.09 386.26,-138.17 393.11,-139.59"/>
</a>
</g>
</g>
<!-- Node8&#45;&gt;Node7 -->
<g id="edge8_Node000008_Node000007" class="edge">
<title>Node8&#45;&gt;Node7</title>
<g id="a_edge8_Node000008_Node000007"><a xlink:title=" ">
<path fill="none" stroke="#63b8ff" d="M297.82,-164.98C316.16,-156.46 344.61,-143.23 365.73,-133.41"/>
<polygon fill="#63b8ff" stroke="#63b8ff" points="367.26,-136.56 374.85,-129.17 364.31,-130.21 367.26,-136.56"/>
</a>
</g>
</g>
<!-- Node8&#45;&gt;Node9 -->
<g id="edge9_Node000008_Node000009" class="edge">
<title>Node8&#45;&gt;Node9</title>
<g id="a_edge9_Node000008_Node000009"><a xlink:title=" ">
<path fill="none" stroke="#63b8ff" d="M277.68,-164.75C276.24,-157.8 274.18,-147.85 272.37,-139.13"/>
<polygon fill="#63b8ff" stroke="#63b8ff" points="275.74,-138.17 270.28,-129.09 268.89,-139.59 275.74,-138.17"/>
</a>
</g>
</g>
<!-- Node10 -->
<g id="Node000010" class="node">
<title>Node10</title>
<g id="a_Node000010"><a xlink:href="_utils_8h.html" target="_top" xlink:title=" ">
<polygon fill="white" stroke="#666666" points="270.5,-74 222.5,-74 222.5,-55 270.5,-55 270.5,-74"/>
<text text-anchor="middle" x="246.5" y="-62" font-family="Helvetica Neue" font-size="10.00">Utils.h</text>
</a>
</g>
</g>
<!-- Node9&#45;&gt;Node10 -->
<g id="edge10_Node000009_Node000010" class="edge">
<title>Node9&#45;&gt;Node10</title>
<g id="a_edge10_Node000009_Node000010"><a xlink:title=" ">
<path fill="none" stroke="#63b8ff" d="M264.87,-109.75C261.92,-102.65 257.67,-92.4 253.99,-83.56"/>
<polygon fill="#63b8ff" stroke="#63b8ff" points="257.13,-81.98 250.07,-74.09 250.67,-84.67 257.13,-81.98"/>
</a>
</g>
</g>
<!-- Node10&#45;&gt;Node5 -->
<g id="edge11_Node000010_Node000005" class="edge">
<title>Node10&#45;&gt;Node5</title>
<g id="a_edge11_Node000010_Node000005"><a xlink:title=" ">
<path fill="none" stroke="#63b8ff" d="M234.45,-54.98C223.04,-46.92 205.67,-34.65 192.07,-25.03"/>
<polygon fill="#63b8ff" stroke="#63b8ff" points="193.96,-22.08 183.77,-19.17 189.92,-27.8 193.96,-22.08"/>
</a>
</g>
</g>
<!-- Node11&#45;&gt;Node5 -->
<g id="edge14_Node000011_Node000005" class="edge">
<title>Node11&#45;&gt;Node5</title>
<g id="a_edge14_Node000011_Node000005"><a xlink:title=" ">
<path fill="none" stroke="#63b8ff" d="M87.57,-54.98C103.36,-46.61 127.72,-33.7 146.13,-23.95"/>
<polygon fill="#63b8ff" stroke="#63b8ff" points="147.94,-26.95 155.14,-19.17 144.67,-20.76 147.94,-26.95"/>
</a>
</g>
</g>
<!-- Node12&#45;&gt;Node6 -->
<g id="edge18_Node000012_Node000006" class="edge">
<title>Node12&#45;&gt;Node6</title>
<g id="a_edge18_Node000012_Node000006"><a xlink:title=" ">
<path fill="none" stroke="#63b8ff" d="M382.5,-219.75C382.5,-212.8 382.5,-202.85 382.5,-194.13"/>
<polygon fill="#63b8ff" stroke="#63b8ff" points="386,-194.09 382.5,-184.09 379,-194.09 386,-194.09"/>
</a>
</g>
</g>
<!-- Node12&#45;&gt;Node7 -->
<g id="edge17_Node000012_Node000007" class="edge">
<title>Node12&#45;&gt;Node7</title>
<g id="a_edge17_Node000012_Node000007"><a xlink:title=" ">
<path fill="none" stroke="#63b8ff" d="M398.53,-219.95C410.91,-212.35 427.15,-199.97 434.5,-184 442.57,-166.46 427.83,-148.11 413.82,-135.67"/>
<polygon fill="#63b8ff" stroke="#63b8ff" points="415.78,-132.75 405.84,-129.08 411.32,-138.15 415.78,-132.75"/>
</a>
</g>
</g>
</g>
</svg>
