<?xml version="1.0" encoding="UTF-8" standalone="no"?>
<!DOCTYPE svg PUBLIC "-//W3C//DTD SVG 1.1//EN"
 "http://www.w3.org/Graphics/SVG/1.1/DTD/svg11.dtd">
<!-- Generated by graphviz version 2.43.0 (0)
 -->
<!-- Title: Modules.h Pages: 1 -->
<svg width="1178pt" height="368pt"
 viewBox="0.00 0.00 1177.50 368.00" xmlns="http://www.w3.org/2000/svg" xmlns:xlink="http://www.w3.org/1999/xlink">
<g id="graph0" class="graph" transform="scale(1 1) rotate(0) translate(4 364)">
<title>Modules.h</title>
<!-- Node1 -->
<g id="Node000001" class="node">
<title>Node1</title>
<g id="a_Node000001"><a xlink:title=" ">
<polygon fill="#999999" stroke="#666666" points="649,-360 582,-360 582,-341 649,-341 649,-360"/>
<text text-anchor="middle" x="615.5" y="-348" font-family="Helvetica Neue" font-size="10.00">Modules.h</text>
</a>
</g>
</g>
<!-- Node2 -->
<g id="Node000002" class="node">
<title>Node2</title>
<g id="a_Node000002"><a xlink:href="_gain_processor_8h.html" target="_top" xlink:title=" ">
<polygon fill="white" stroke="#666666" points="450.5,-305 330.5,-305 330.5,-286 450.5,-286 450.5,-305"/>
<text text-anchor="middle" x="390.5" y="-293" font-family="Helvetica Neue" font-size="10.00">Gain/GainProcessor.h</text>
</a>
</g>
</g>
<!-- Node1&#45;&gt;Node2 -->
<g id="edge1_Node000001_Node000002" class="edge">
<title>Node1&#45;&gt;Node2</title>
<g id="a_edge1_Node000001_Node000002"><a xlink:title=" ">
<path fill="none" stroke="#63b8ff" d="M581.82,-341.57C543.23,-332.48 479.78,-317.53 436.62,-307.36"/>
<polygon fill="#63b8ff" stroke="#63b8ff" points="437.19,-303.9 426.65,-305.02 435.59,-310.72 437.19,-303.9"/>
</a>
</g>
</g>
<!-- Node10 -->
<g id="Node000010" class="node">
<title>Node10</title>
<g id="a_Node000010"><a xlink:href="_impulse_processor_8h.html" target="_top" xlink:title=" ">
<polygon fill="white" stroke="#666666" points="153,-305 0,-305 0,-286 153,-286 153,-305"/>
<text text-anchor="middle" x="76.5" y="-293" font-family="Helvetica Neue" font-size="10.00">Impulse/ImpulseProcessor.h</text>
</a>
</g>
</g>
<!-- Node1&#45;&gt;Node10 -->
<g id="edge11_Node000001_Node000010" class="edge">
<title>Node1&#45;&gt;Node10</title>
<g id="a_edge11_Node000001_Node000010"><a xlink:title=" ">
<path fill="none" stroke="#63b8ff" d="M581.89,-346.23C508.16,-339.05 326.39,-321.31 163.61,-305.21"/>
<polygon fill="#63b8ff" stroke="#63b8ff" points="163.71,-301.7 153.41,-304.2 163.02,-308.67 163.71,-301.7"/>
</a>
</g>
</g>
<!-- Node13 -->
<g id="Node000013" class="node">
<title>Node13</title>
<g id="a_Node000013"><a xlink:href="_output_processor_8h.html" target="_top" xlink:title=" ">
<polygon fill="white" stroke="#666666" points="312,-305 171,-305 171,-286 312,-286 312,-305"/>
<text text-anchor="middle" x="241.5" y="-293" font-family="Helvetica Neue" font-size="10.00">Output/OutputProcessor.h</text>
</a>
</g>
</g>
<!-- Node1&#45;&gt;Node13 -->
<g id="edge17_Node000001_Node000013" class="edge">
<title>Node1&#45;&gt;Node13</title>
<g id="a_edge17_Node000001_Node000013"><a xlink:title=" ">
<path fill="none" stroke="#63b8ff" d="M581.98,-344.75C521.37,-336.16 392.38,-317.88 311.72,-306.45"/>
<polygon fill="#63b8ff" stroke="#63b8ff" points="312.03,-302.96 301.64,-305.02 311.05,-309.89 312.03,-302.96"/>
</a>
</g>
</g>
<!-- Node15 -->
<g id="Node000015" class="node">
<title>Node15</title>
<g id="a_Node000015"><a xlink:href="_string_processor_8h.html" target="_top" xlink:title=" ">
<polygon fill="white" stroke="#666666" points="1169.5,-305 1037.5,-305 1037.5,-286 1169.5,-286 1169.5,-305"/>
<text text-anchor="middle" x="1103.5" y="-293" font-family="Helvetica Neue" font-size="10.00">String/StringProcessor.h</text>
</a>
</g>
</g>
<!-- Node1&#45;&gt;Node15 -->
<g id="edge21_Node000001_Node000015" class="edge">
<title>Node1&#45;&gt;Node15</title>
<g id="a_edge21_Node000001_Node000015"><a xlink:title=" ">
<path fill="none" stroke="#63b8ff" d="M649.23,-345.93C718.11,-338.62 880.15,-321.37 1027.14,-305.15"/>
<polygon fill="#63b8ff" stroke="#63b8ff" points="1027.69,-308.61 1037.25,-304.03 1026.92,-301.65 1027.69,-308.61"/>
</a>
</g>
</g>
<!-- Node18 -->
<g id="Node000018" class="node">
<title>Node18</title>
<g id="a_Node000018"><a xlink:href="_grit_processor_8h.html" target="_top" xlink:title=" ">
<polygon fill="white" stroke="#666666" points="745,-305 634,-305 634,-286 745,-286 745,-305"/>
<text text-anchor="middle" x="689.5" y="-293" font-family="Helvetica Neue" font-size="10.00">Grit/GritProcessor.h</text>
</a>
</g>
</g>
<!-- Node1&#45;&gt;Node18 -->
<g id="edge30_Node000001_Node000018" class="edge">
<title>Node1&#45;&gt;Node18</title>
<g id="a_edge30_Node000001_Node000018"><a xlink:title=" ">
<path fill="none" stroke="#63b8ff" d="M627.39,-340.98C638.65,-332.92 655.79,-320.65 669.21,-311.03"/>
<polygon fill="#63b8ff" stroke="#63b8ff" points="671.3,-313.84 677.39,-305.17 667.23,-308.15 671.3,-313.84"/>
</a>
</g>
</g>
<!-- Node20 -->
<g id="Node000020" class="node">
<title>Node20</title>
<g id="a_Node000020"><a xlink:href="_friction_processor_8h.html" target="_top" xlink:title=" ">
<polygon fill="white" stroke="#666666" points="616,-305 469,-305 469,-286 616,-286 616,-305"/>
<text text-anchor="middle" x="542.5" y="-293" font-family="Helvetica Neue" font-size="10.00">Friction/FrictionProcessor.h</text>
</a>
</g>
</g>
<!-- Node1&#45;&gt;Node20 -->
<g id="edge35_Node000001_Node000020" class="edge">
<title>Node1&#45;&gt;Node20</title>
<g id="a_edge35_Node000001_Node000020"><a xlink:title=" ">
<path fill="none" stroke="#63b8ff" d="M603.77,-340.98C592.77,-333 576.08,-320.88 562.9,-311.31"/>
<polygon fill="#63b8ff" stroke="#63b8ff" points="564.59,-308.21 554.44,-305.17 560.48,-313.88 564.59,-308.21"/>
</a>
</g>
</g>
<!-- Node22 -->
<g id="Node000022" class="node">
<title>Node22</title>
<g id="a_Node000022"><a xlink:href="_l_f_o_processor_8h.html" target="_top" xlink:title=" ">
<polygon fill="white" stroke="#666666" points="1019,-305 906,-305 906,-286 1019,-286 1019,-305"/>
<text text-anchor="middle" x="962.5" y="-293" font-family="Helvetica Neue" font-size="10.00">LFO/LFOProcessor.h</text>
</a>
</g>
</g>
<!-- Node1&#45;&gt;Node22 -->
<g id="edge40_Node000001_Node000022" class="edge">
<title>Node1&#45;&gt;Node22</title>
<g id="a_edge40_Node000001_Node000022"><a xlink:title=" ">
<path fill="none" stroke="#63b8ff" d="M649.09,-344.37C706.11,-335.66 822.82,-317.83 896.61,-306.56"/>
<polygon fill="#63b8ff" stroke="#63b8ff" points="897.37,-309.99 906.73,-305.02 896.31,-303.07 897.37,-309.99"/>
</a>
</g>
</g>
<!-- Node25 -->
<g id="Node000025" class="node">
<title>Node25</title>
<g id="a_Node000025"><a xlink:href="_filter_processor_8h.html" target="_top" xlink:title=" ">
<polygon fill="white" stroke="#666666" points="888,-305 763,-305 763,-286 888,-286 888,-305"/>
<text text-anchor="middle" x="825.5" y="-293" font-family="Helvetica Neue" font-size="10.00">Filter/FilterProcessor.h</text>
</a>
</g>
</g>
<!-- Node1&#45;&gt;Node25 -->
<g id="edge47_Node000001_Node000025" class="edge">
<title>Node1&#45;&gt;Node25</title>
<g id="a_edge47_Node000001_Node000025"><a xlink:title=" ">
<path fill="none" stroke="#63b8ff" d="M649.24,-340.98C685.18,-331.91 742.22,-317.52 781.63,-307.57"/>
<polygon fill="#63b8ff" stroke="#63b8ff" points="782.66,-310.92 791.5,-305.08 780.94,-304.14 782.66,-310.92"/>
</a>
</g>
</g>
<!-- Node3 -->
<g id="Node000003" class="node">
<title>Node3</title>
<g id="a_Node000003"><a xlink:href="_gain_u_i_8h.html" target="_top" xlink:title=" ">
<polygon fill="white" stroke="#666666" points="560,-250 501,-250 501,-231 560,-231 560,-250"/>
<text text-anchor="middle" x="530.5" y="-238" font-family="Helvetica Neue" font-size="10.00">GainUI.h</text>
</a>
</g>
</g>
<!-- Node2&#45;&gt;Node3 -->
<g id="edge2_Node000002_Node000003" class="edge">
<title>Node2&#45;&gt;Node3</title>
<g id="a_edge2_Node000002_Node000003"><a xlink:title=" ">
<path fill="none" stroke="#63b8ff" d="M412.99,-285.98C436.02,-277.27 472.04,-263.63 498.13,-253.75"/>
<polygon fill="#63b8ff" stroke="#63b8ff" points="499.48,-256.98 507.6,-250.17 497.01,-250.44 499.48,-256.98"/>
</a>
</g>
</g>
<!-- Node6 -->
<g id="Node000006" class="node">
<title>Node6</title>
<g id="a_Node000006"><a xlink:href="_module_processor_8h.html" target="_top" xlink:title=" ">
<polygon fill="white" stroke="#666666" points="667,-129 530,-129 530,-110 667,-110 667,-129"/>
<text text-anchor="middle" x="598.5" y="-117" font-family="Helvetica Neue" font-size="10.00">../dsp/ModuleProcessor.h</text>
</a>
</g>
</g>
<!-- Node2&#45;&gt;Node6 -->
<g id="edge10_Node000002_Node000006" class="edge">
<title>Node2&#45;&gt;Node6</title>
<g id="a_edge10_Node000002_Node000006"><a xlink:title=" ">
<path fill="none" stroke="#63b8ff" d="M334.18,-285.95C294.01,-278.56 244.97,-266.47 232.5,-250 212.02,-222.96 231.79,-188.64 264.5,-165 304.08,-136.39 434.1,-126.17 519.76,-122.52"/>
<polygon fill="#63b8ff" stroke="#63b8ff" points="520.13,-126.01 529.98,-122.11 519.84,-119.02 520.13,-126.01"/>
</a>
</g>
</g>
<!-- Node4 -->
<g id="Node000004" class="node">
<title>Node4</title>
<g id="a_Node000004"><a xlink:href="_module_u_i_8h.html" target="_top" xlink:title=" ">
<polygon fill="white" stroke="#666666" points="637.5,-189.5 535.5,-189.5 535.5,-170.5 637.5,-170.5 637.5,-189.5"/>
<text text-anchor="middle" x="586.5" y="-177.5" font-family="Helvetica Neue" font-size="10.00">../../ui/ModuleUI.h</text>
</a>
</g>
</g>
<!-- Node3&#45;&gt;Node4 -->
<g id="edge3_Node000003_Node000004" class="edge">
<title>Node3&#45;&gt;Node4</title>
<g id="a_edge3_Node000003_Node000004"><a xlink:title=" ">
<path fill="none" stroke="#63b8ff" d="M538.76,-230.87C547.28,-221.97 560.76,-207.89 571.23,-196.95"/>
<polygon fill="#63b8ff" stroke="#63b8ff" points="573.82,-199.31 578.2,-189.67 568.76,-194.47 573.82,-199.31"/>
</a>
</g>
</g>
<!-- Node9 -->
<g id="Node000009" class="node">
<title>Node9</title>
<g id="a_Node000009"><a xlink:href="_phi_dial_8h.html" target="_top" xlink:title=" ">
<polygon fill="white" stroke="#666666" points="757,-195 656,-195 656,-165 757,-165 757,-195"/>
<text text-anchor="start" x="664" y="-183" font-family="Helvetica Neue" font-size="10.00">../../ui/component</text>
<text text-anchor="middle" x="706.5" y="-172" font-family="Helvetica Neue" font-size="10.00">/PhiDial.h</text>
</a>
</g>
</g>
<!-- Node3&#45;&gt;Node9 -->
<g id="edge8_Node000003_Node000009" class="edge">
<title>Node3&#45;&gt;Node9</title>
<g id="a_edge8_Node000003_Node000009"><a xlink:title=" ">
<path fill="none" stroke="#63b8ff" d="M556.09,-230.99C581.75,-222.46 622,-209.09 654.41,-198.32"/>
<polygon fill="#63b8ff" stroke="#63b8ff" points="655.8,-201.54 664.19,-195.06 653.59,-194.9 655.8,-201.54"/>
</a>
</g>
</g>
<!-- Node5 -->
<g id="Node000005" class="node">
<title>Node5</title>
<g id="a_Node000005"><a xlink:href="_phi_colours_8h.html" target="_top" xlink:title=" ">
<polygon fill="white" stroke="#666666" points="818,-129 741,-129 741,-110 818,-110 818,-129"/>
<text text-anchor="middle" x="779.5" y="-117" font-family="Helvetica Neue" font-size="10.00">PhiColours.h</text>
</a>
</g>
</g>
<!-- Node4&#45;&gt;Node5 -->
<g id="edge4_Node000004_Node000005" class="edge">
<title>Node4&#45;&gt;Node5</title>
<g id="a_edge4_Node000004_Node000005"><a xlink:title=" ">
<path fill="none" stroke="#63b8ff" d="M614.56,-170.49C648.01,-160.36 704.06,-143.37 741.4,-132.05"/>
<polygon fill="#63b8ff" stroke="#63b8ff" points="742.85,-135.27 751.4,-129.02 740.82,-128.57 742.85,-135.27"/>
</a>
</g>
</g>
<!-- Node4&#45;&gt;Node6 -->
<g id="edge5_Node000004_Node000006" class="edge">
<title>Node4&#45;&gt;Node6</title>
<g id="a_edge5_Node000004_Node000006"><a xlink:title=" ">
<path fill="none" stroke="#63b8ff" d="M588.27,-170.37C589.95,-162.16 592.54,-149.54 594.69,-139.05"/>
<polygon fill="#63b8ff" stroke="#63b8ff" points="598.14,-139.67 596.72,-129.17 591.28,-138.26 598.14,-139.67"/>
</a>
</g>
</g>
<!-- Node7 -->
<g id="Node000007" class="node">
<title>Node7</title>
<g id="a_Node000007"><a xlink:href="_utils_8h.html" target="_top" xlink:title=" ">
<polygon fill="white" stroke="#666666" points="1002.5,-74 954.5,-74 954.5,-55 1002.5,-55 1002.5,-74"/>
<text text-anchor="middle" x="978.5" y="-62" font-family="Helvetica Neue" font-size="10.00">Utils.h</text>
</a>
</g>
</g>
<!-- Node6&#45;&gt;Node7 -->
<g id="edge6_Node000006_Node000007" class="edge">
<title>Node6&#45;&gt;Node7</title>
<g id="a_edge6_Node000006_Node000007"><a xlink:title=" ">
<path fill="none" stroke="#63b8ff" d="M659.55,-109.98C740.24,-98.73 879.67,-79.28 944.07,-70.3"/>
<polygon fill="#63b8ff" stroke="#63b8ff" points="944.68,-73.75 954.1,-68.9 943.71,-66.82 944.68,-73.75"/>
</a>
</g>
</g>
<!-- Node8 -->
<g id="Node000008" class="node">
<title>Node8</title>
<g id="a_Node000008"><a xlink:title=" ">
<polygon fill="#e0e0e0" stroke="#999999" points="966.5,-19 886.5,-19 886.5,0 966.5,0 966.5,-19"/>
<text text-anchor="middle" x="926.5" y="-7" font-family="Helvetica Neue" font-size="10.00">JuceHeader.h</text>
</a>
</g>
</g>
<!-- Node7&#45;&gt;Node8 -->
<g id="edge7_Node000007_Node000008" class="edge">
<title>Node7&#45;&gt;Node8</title>
<g id="a_edge7_Node000007_Node000008"><a xlink:title=" ">
<path fill="none" stroke="#63b8ff" d="M969.91,-54.75C962.34,-47.03 951.12,-35.6 941.99,-26.28"/>
<polygon fill="#63b8ff" stroke="#63b8ff" points="944.43,-23.78 934.93,-19.09 939.43,-28.68 944.43,-23.78"/>
</a>
</g>
</g>
<!-- Node9&#45;&gt;Node8 -->
<g id="edge9_Node000009_Node000008" class="edge">
<title>Node9&#45;&gt;Node8</title>
<g id="a_edge9_Node000009_Node000008"><a xlink:title=" ">
<path fill="none" stroke="#63b8ff" d="M755.23,-164.91C778.48,-156.74 805.88,-144.87 827.5,-129 866.59,-100.3 899.87,-52.99 916.03,-27.7"/>
<polygon fill="#63b8ff" stroke="#63b8ff" points="919.03,-29.51 921.36,-19.18 913.09,-25.8 919.03,-29.51"/>
</a>
</g>
</g>
<!-- Node10&#45;&gt;Node6 -->
<g id="edge16_Node000010_Node000006" class="edge">
<title>Node10&#45;&gt;Node6</title>
<g id="a_edge16_Node000010_Node000006"><a xlink:title=" ">
<path fill="none" stroke="#63b8ff" d="M82.75,-285.94C100.79,-261.94 155.77,-193.95 219.5,-165 271.37,-141.44 424.6,-129.45 519.59,-124.12"/>
<polygon fill="#63b8ff" stroke="#63b8ff" points="519.94,-127.61 529.73,-123.56 519.56,-120.62 519.94,-127.61"/>
</a>
</g>
</g>
<!-- Node11 -->
<g id="Node000011" class="node">
<title>Node11</title>
<g id="a_Node000011"><a xlink:href="_impulse_u_i_8h.html" target="_top" xlink:title=" ">
<polygon fill="white" stroke="#666666" points="323,-250 248,-250 248,-231 323,-231 323,-250"/>
<text text-anchor="middle" x="285.5" y="-238" font-family="Helvetica Neue" font-size="10.00">ImpulseUI.h</text>
</a>
</g>
</g>
<!-- Node10&#45;&gt;Node11 -->
<g id="edge12_Node000010_Node000011" class="edge">
<title>Node10&#45;&gt;Node11</title>
<g id="a_edge12_Node000010_Node000011"><a xlink:title=" ">
<path fill="none" stroke="#63b8ff" d="M110.08,-285.98C145.85,-276.91 202.62,-262.52 241.84,-252.57"/>
<polygon fill="#63b8ff" stroke="#63b8ff" points="242.82,-255.93 251.66,-250.08 241.1,-249.15 242.82,-255.93"/>
</a>
</g>
</g>
<!-- Node11&#45;&gt;Node4 -->
<g id="edge13_Node000011_Node000004" class="edge">
<title>Node11&#45;&gt;Node4</title>
<g id="a_edge13_Node000011_Node000004"><a xlink:title=" ">
<path fill="none" stroke="#63b8ff" d="M323.01,-232.21C375.75,-221.96 472.11,-203.23 532.54,-191.49"/>
<polygon fill="#63b8ff" stroke="#63b8ff" points="533.5,-194.87 542.65,-189.52 532.16,-187.99 533.5,-194.87"/>
</a>
</g>
</g>
<!-- Node11&#45;&gt;Node9 -->
<g id="edge14_Node000011_Node000009" class="edge">
<title>Node11&#45;&gt;Node9</title>
<g id="a_edge14_Node000011_Node000009"><a xlink:title=" ">
<path fill="none" stroke="#63b8ff" d="M323.17,-232.46C326.33,-231.94 329.46,-231.45 332.5,-231 468.21,-210.97 506.32,-218.62 645.64,-195.01"/>
<polygon fill="#63b8ff" stroke="#63b8ff" points="646.58,-198.4 655.84,-193.25 645.4,-191.5 646.58,-198.4"/>
</a>
</g>
</g>
<!-- Node12 -->
<g id="Node000012" class="node">
<title>Node12</title>
<g id="a_Node000012"><a xlink:href="_phi_waveform_8h.html" target="_top" xlink:title=" ">
<polygon fill="white" stroke="#666666" points="439,-195 338,-195 338,-165 439,-165 439,-195"/>
<text text-anchor="start" x="346" y="-183" font-family="Helvetica Neue" font-size="10.00">../../ui/component</text>
<text text-anchor="middle" x="388.5" y="-172" font-family="Helvetica Neue" font-size="10.00">/PhiWaveform.h</text>
</a>
</g>
</g>
<!-- Node11&#45;&gt;Node12 -->
<g id="edge15_Node000011_Node000012" class="edge">
<title>Node11&#45;&gt;Node12</title>
<g id="a_edge15_Node000011_Node000012"><a xlink:title=" ">
<path fill="none" stroke="#63b8ff" d="M300.7,-230.87C314.8,-222.86 336.3,-210.65 354.49,-200.31"/>
<polygon fill="#63b8ff" stroke="#63b8ff" points="356.68,-203.1 363.65,-195.11 353.22,-197.01 356.68,-203.1"/>
</a>
</g>
</g>
<!-- Node13&#45;&gt;Node6 -->
<g id="edge20_Node000013_Node000006" class="edge">
<title>Node13&#45;&gt;Node6</title>
<g id="a_edge20_Node000013_Node000006"><a xlink:title=" ">
<path fill="none" stroke="#63b8ff" d="M236.18,-285.68C231.27,-276.97 224.31,-263.09 221.5,-250 215.89,-223.83 226.39,-169.96 231.5,-165 251.79,-145.31 418,-131.64 519.66,-125.04"/>
<polygon fill="#63b8ff" stroke="#63b8ff" points="520.14,-128.51 529.9,-124.38 519.69,-121.53 520.14,-128.51"/>
</a>
</g>
</g>
<!-- Node14 -->
<g id="Node000014" class="node">
<title>Node14</title>
<g id="a_Node000014"><a xlink:href="_output_u_i_8h.html" target="_top" xlink:title=" ">
<polygon fill="white" stroke="#666666" points="410,-250 341,-250 341,-231 410,-231 410,-250"/>
<text text-anchor="middle" x="375.5" y="-238" font-family="Helvetica Neue" font-size="10.00">OutputUI.h</text>
</a>
</g>
</g>
<!-- Node13&#45;&gt;Node14 -->
<g id="edge18_Node000013_Node000014" class="edge">
<title>Node13&#45;&gt;Node14</title>
<g id="a_edge18_Node000013_Node000014"><a xlink:title=" ">
<path fill="none" stroke="#63b8ff" d="M263.03,-285.98C284.97,-277.3 319.24,-263.75 344.19,-253.88"/>
<polygon fill="#63b8ff" stroke="#63b8ff" points="345.57,-257.1 353.58,-250.17 342.99,-250.59 345.57,-257.1"/>
</a>
</g>
</g>
<!-- Node14&#45;&gt;Node4 -->
<g id="edge19_Node000014_Node000004" class="edge">
<title>Node14&#45;&gt;Node4</title>
<g id="a_edge19_Node000014_Node000004"><a xlink:title=" ">
<path fill="none" stroke="#63b8ff" d="M406.18,-230.99C443.06,-220.77 505.07,-203.58 545.89,-192.26"/>
<polygon fill="#63b8ff" stroke="#63b8ff" points="547.08,-195.56 555.78,-189.52 545.21,-188.82 547.08,-195.56"/>
</a>
</g>
</g>
<!-- Node15&#45;&gt;Node6 -->
<g id="edge29_Node000015_Node000006" class="edge">
<title>Node15&#45;&gt;Node6</title>
<g id="a_edge29_Node000015_Node000006"><a xlink:title=" ">
<path fill="none" stroke="#63b8ff" d="M1101.45,-285.73C1097.8,-272.04 1088.87,-245.64 1071.5,-231 1052.31,-214.83 879.91,-170.82 855.5,-165 793.66,-150.26 722.36,-138.3 670.56,-130.51"/>
<polygon fill="#63b8ff" stroke="#63b8ff" points="670.88,-127.02 660.48,-129.01 669.85,-133.94 670.88,-127.02"/>
</a>
</g>
</g>
<!-- Node15&#45;&gt;Node7 -->
<g id="edge28_Node000015_Node000007" class="edge">
<title>Node15&#45;&gt;Node7</title>
<g id="a_edge28_Node000015_Node000007"><a xlink:title=" ">
<path fill="none" stroke="#63b8ff" d="M1105.58,-285.74C1110.26,-263.96 1119.74,-206.18 1099.5,-165 1079.59,-124.47 1034.61,-94.66 1005.45,-78.71"/>
<polygon fill="#63b8ff" stroke="#63b8ff" points="1007.07,-75.61 996.59,-74.03 1003.79,-81.8 1007.07,-75.61"/>
</a>
</g>
</g>
<!-- Node16 -->
<g id="Node000016" class="node">
<title>Node16</title>
<g id="a_Node000016"><a xlink:href="_string_u_i_8h.html" target="_top" xlink:title=" ">
<polygon fill="white" stroke="#666666" points="1062,-250 997,-250 997,-231 1062,-231 1062,-250"/>
<text text-anchor="middle" x="1029.5" y="-238" font-family="Helvetica Neue" font-size="10.00">StringUI.h</text>
</a>
</g>
</g>
<!-- Node15&#45;&gt;Node16 -->
<g id="edge22_Node000015_Node000016" class="edge">
<title>Node15&#45;&gt;Node16</title>
<g id="a_edge22_Node000015_Node000016"><a xlink:title=" ">
<path fill="none" stroke="#63b8ff" d="M1091.61,-285.98C1080.35,-277.92 1063.21,-265.65 1049.79,-256.03"/>
<polygon fill="#63b8ff" stroke="#63b8ff" points="1051.77,-253.15 1041.61,-250.17 1047.7,-258.84 1051.77,-253.15"/>
</a>
</g>
</g>
<!-- Node16&#45;&gt;Node4 -->
<g id="edge23_Node000016_Node000004" class="edge">
<title>Node16&#45;&gt;Node4</title>
<g id="a_edge23_Node000016_Node000004"><a xlink:title=" ">
<path fill="none" stroke="#63b8ff" d="M996.99,-232.61C993.79,-232.02 990.59,-231.47 987.5,-231 837.31,-207.9 797.38,-220.04 647.5,-195 641.94,-194.07 636.13,-192.94 630.4,-191.74"/>
<polygon fill="#63b8ff" stroke="#63b8ff" points="630.75,-188.23 620.23,-189.5 629.25,-195.07 630.75,-188.23"/>
</a>
</g>
</g>
<!-- Node16&#45;&gt;Node9 -->
<g id="edge24_Node000016_Node000009" class="edge">
<title>Node16&#45;&gt;Node9</title>
<g id="a_edge24_Node000016_Node000009"><a xlink:title=" ">
<path fill="none" stroke="#63b8ff" d="M996.96,-232.83C993.76,-232.2 990.57,-231.58 987.5,-231 911.61,-216.57 823.95,-201.17 766.99,-191.34"/>
<polygon fill="#63b8ff" stroke="#63b8ff" points="767.52,-187.88 757.07,-189.63 766.33,-194.78 767.52,-187.88"/>
</a>
</g>
</g>
<!-- Node17 -->
<g id="Node000017" class="node">
<title>Node17</title>
<g id="a_Node000017"><a xlink:href="_phi_slider_button_8h.html" target="_top" xlink:title=" ">
<polygon fill="white" stroke="#666666" points="1090.5,-195 986.5,-195 986.5,-165 1090.5,-165 1090.5,-195"/>
<text text-anchor="start" x="994.5" y="-183" font-family="Helvetica Neue" font-size="10.00">../../ui/component</text>
<text text-anchor="middle" x="1038.5" y="-172" font-family="Helvetica Neue" font-size="10.00">/PhiSliderButton.h</text>
</a>
</g>
</g>
<!-- Node16&#45;&gt;Node17 -->
<g id="edge25_Node000016_Node000017" class="edge">
<title>Node16&#45;&gt;Node17</title>
<g id="a_edge25_Node000016_Node000017"><a xlink:title=" ">
<path fill="none" stroke="#63b8ff" d="M1030.83,-230.87C1031.87,-224.11 1033.37,-214.35 1034.77,-205.26"/>
<polygon fill="#63b8ff" stroke="#63b8ff" points="1038.27,-205.53 1036.33,-195.11 1031.35,-204.47 1038.27,-205.53"/>
</a>
</g>
</g>
<!-- Node17&#45;&gt;Node5 -->
<g id="edge27_Node000017_Node000005" class="edge">
<title>Node17&#45;&gt;Node5</title>
<g id="a_edge27_Node000017_Node000005"><a xlink:title=" ">
<path fill="none" stroke="#63b8ff" d="M986.4,-167.23C939.84,-156.72 872.21,-141.44 827.08,-131.25"/>
<polygon fill="#63b8ff" stroke="#63b8ff" points="827.78,-127.82 817.25,-129.03 826.23,-134.64 827.78,-127.82"/>
</a>
</g>
</g>
<!-- Node17&#45;&gt;Node8 -->
<g id="edge26_Node000017_Node000008" class="edge">
<title>Node17&#45;&gt;Node8</title>
<g id="a_edge26_Node000017_Node000008"><a xlink:title=" ">
<path fill="none" stroke="#63b8ff" d="M1022.33,-164.98C1001.66,-146.23 966.1,-111.02 945.5,-74 937.71,-60 932.77,-42.45 929.89,-29.35"/>
<polygon fill="#63b8ff" stroke="#63b8ff" points="933.25,-28.3 927.87,-19.18 926.39,-29.67 933.25,-28.3"/>
</a>
</g>
</g>
<!-- Node18&#45;&gt;Node6 -->
<g id="edge34_Node000018_Node000006" class="edge">
<title>Node18&#45;&gt;Node6</title>
<g id="a_edge34_Node000018_Node000006"><a xlink:title=" ">
<path fill="none" stroke="#63b8ff" d="M745.33,-287.46C782.04,-279.73 821.6,-263.74 811.5,-231 801.04,-197.07 795.48,-185.5 766.5,-165 740.5,-146.61 707.37,-135.81 677.42,-129.48"/>
<polygon fill="#63b8ff" stroke="#63b8ff" points="677.89,-126.01 667.4,-127.5 676.53,-132.88 677.89,-126.01"/>
</a>
</g>
</g>
<!-- Node19 -->
<g id="Node000019" class="node">
<title>Node19</title>
<g id="a_Node000019"><a xlink:href="_grit_u_i_8h.html" target="_top" xlink:title=" ">
<polygon fill="white" stroke="#666666" points="722.5,-250 668.5,-250 668.5,-231 722.5,-231 722.5,-250"/>
<text text-anchor="middle" x="695.5" y="-238" font-family="Helvetica Neue" font-size="10.00">GritUI.h</text>
</a>
</g>
</g>
<!-- Node18&#45;&gt;Node19 -->
<g id="edge31_Node000018_Node000019" class="edge">
<title>Node18&#45;&gt;Node19</title>
<g id="a_edge31_Node000018_Node000019"><a xlink:title=" ">
<path fill="none" stroke="#63b8ff" d="M690.49,-285.75C691.28,-278.8 692.4,-268.85 693.39,-260.13"/>
<polygon fill="#63b8ff" stroke="#63b8ff" points="696.88,-260.42 694.53,-250.09 689.92,-259.63 696.88,-260.42"/>
</a>
</g>
</g>
<!-- Node19&#45;&gt;Node4 -->
<g id="edge32_Node000019_Node000004" class="edge">
<title>Node19&#45;&gt;Node4</title>
<g id="a_edge32_Node000019_Node000004"><a xlink:title=" ">
<path fill="none" stroke="#63b8ff" d="M679.42,-230.87C661.55,-221.28 632.46,-205.67 611.59,-194.47"/>
<polygon fill="#63b8ff" stroke="#63b8ff" points="613.12,-191.31 602.65,-189.67 609.81,-197.48 613.12,-191.31"/>
</a>
</g>
</g>
<!-- Node19&#45;&gt;Node9 -->
<g id="edge33_Node000019_Node000009" class="edge">
<title>Node19&#45;&gt;Node9</title>
<g id="a_edge33_Node000019_Node000009"><a xlink:title=" ">
<path fill="none" stroke="#63b8ff" d="M697.12,-230.87C698.41,-224.03 700.27,-214.14 701.99,-204.97"/>
<polygon fill="#63b8ff" stroke="#63b8ff" points="705.44,-205.59 703.85,-195.11 698.56,-204.3 705.44,-205.59"/>
</a>
</g>
</g>
<!-- Node20&#45;&gt;Node6 -->
<g id="edge39_Node000020_Node000006" class="edge">
<title>Node20&#45;&gt;Node6</title>
<g id="a_edge39_Node000020_Node000006"><a xlink:title=" ">
<path fill="none" stroke="#63b8ff" d="M468.83,-286.11C381.57,-275.81 246.98,-258.66 239.5,-250 233.98,-243.61 235.68,-238.53 239.5,-231 261.92,-186.75 283.78,-184.24 329.5,-165 390.29,-139.42 464.59,-128.5 519.69,-123.86"/>
<polygon fill="#63b8ff" stroke="#63b8ff" points="520.05,-127.35 529.74,-123.07 519.5,-120.37 520.05,-127.35"/>
</a>
</g>
</g>
<!-- Node21 -->
<g id="Node000021" class="node">
<title>Node21</title>
<g id="a_Node000021"><a xlink:href="_friction_u_i_8h.html" target="_top" xlink:title=" ">
<polygon fill="white" stroke="#666666" points="650.5,-250 578.5,-250 578.5,-231 650.5,-231 650.5,-250"/>
<text text-anchor="middle" x="614.5" y="-238" font-family="Helvetica Neue" font-size="10.00">FrictionUI.h</text>
</a>
</g>
</g>
<!-- Node20&#45;&gt;Node21 -->
<g id="edge36_Node000020_Node000021" class="edge">
<title>Node20&#45;&gt;Node21</title>
<g id="a_edge36_Node000020_Node000021"><a xlink:title=" ">
<path fill="none" stroke="#63b8ff" d="M554.07,-285.98C564.92,-278 581.38,-265.88 594.38,-256.31"/>
<polygon fill="#63b8ff" stroke="#63b8ff" points="596.74,-258.92 602.72,-250.17 592.59,-253.28 596.74,-258.92"/>
</a>
</g>
</g>
<!-- Node21&#45;&gt;Node4 -->
<g id="edge37_Node000021_Node000004" class="edge">
<title>Node21&#45;&gt;Node4</title>
<g id="a_edge37_Node000021_Node000004"><a xlink:title=" ">
<path fill="none" stroke="#63b8ff" d="M610.37,-230.87C606.36,-222.49 600.15,-209.51 595.06,-198.89"/>
<polygon fill="#63b8ff" stroke="#63b8ff" points="598.12,-197.18 590.65,-189.67 591.81,-200.2 598.12,-197.18"/>
</a>
</g>
</g>
<!-- Node21&#45;&gt;Node9 -->
<g id="edge38_Node000021_Node000009" class="edge">
<title>Node21&#45;&gt;Node9</title>
<g id="a_edge38_Node000021_Node000009"><a xlink:title=" ">
<path fill="none" stroke="#63b8ff" d="M628.07,-230.87C640.56,-222.93 659.52,-210.87 675.68,-200.6"/>
<polygon fill="#63b8ff" stroke="#63b8ff" points="677.74,-203.43 684.3,-195.11 673.99,-197.53 677.74,-203.43"/>
</a>
</g>
</g>
<!-- Node22&#45;&gt;Node6 -->
<g id="edge46_Node000022_Node000006" class="edge">
<title>Node22&#45;&gt;Node6</title>
<g id="a_edge46_Node000022_Node000006"><a xlink:title=" ">
<path fill="none" stroke="#63b8ff" d="M955.86,-285.86C937.23,-262.26 881.7,-196.38 819.5,-165 775.41,-142.75 721.1,-131.63 677.35,-126.06"/>
<polygon fill="#63b8ff" stroke="#63b8ff" points="677.67,-122.58 667.33,-124.86 676.84,-129.53 677.67,-122.58"/>
</a>
</g>
</g>
<!-- Node23 -->
<g id="Node000023" class="node">
<title>Node23</title>
<g id="a_Node000023"><a xlink:href="_l_f_o_8h.html" target="_top" xlink:title=" ">
<polygon fill="white" stroke="#666666" points="978.5,-250 934.5,-250 934.5,-231 978.5,-231 978.5,-250"/>
<text text-anchor="middle" x="956.5" y="-238" font-family="Helvetica Neue" font-size="10.00">LFO.h</text>
</a>
</g>
</g>
<!-- Node22&#45;&gt;Node23 -->
<g id="edge41_Node000022_Node000023" class="edge">
<title>Node22&#45;&gt;Node23</title>
<g id="a_edge41_Node000022_Node000023"><a xlink:title=" ">
<path fill="none" stroke="#63b8ff" d="M961.51,-285.75C960.72,-278.8 959.6,-268.85 958.61,-260.13"/>
<polygon fill="#63b8ff" stroke="#63b8ff" points="962.08,-259.63 957.47,-250.09 955.12,-260.42 962.08,-259.63"/>
</a>
</g>
</g>
<!-- Node24 -->
<g id="Node000024" class="node">
<title>Node24</title>
<g id="a_Node000024"><a xlink:href="_l_f_o_u_i_8h.html" target="_top" xlink:title=" ">
<polygon fill="white" stroke="#666666" points="483,-250 428,-250 428,-231 483,-231 483,-250"/>
<text text-anchor="middle" x="455.5" y="-238" font-family="Helvetica Neue" font-size="10.00">LFOUI.h</text>
</a>
</g>
</g>
<!-- Node22&#45;&gt;Node24 -->
<g id="edge42_Node000022_Node000024" class="edge">
<title>Node22&#45;&gt;Node24</title>
<g id="a_edge42_Node000022_Node000024"><a xlink:title=" ">
<path fill="none" stroke="#63b8ff" d="M905.8,-286.94C902.99,-286.61 900.22,-286.3 897.5,-286 721.11,-266.64 672.72,-277.87 493.34,-249.9"/>
<polygon fill="#63b8ff" stroke="#63b8ff" points="493.72,-246.42 483.3,-248.32 492.63,-253.33 493.72,-246.42"/>
</a>
</g>
</g>
<!-- Node24&#45;&gt;Node4 -->
<g id="edge43_Node000024_Node000004" class="edge">
<title>Node24&#45;&gt;Node4</title>
<g id="a_edge43_Node000024_Node000004"><a xlink:title=" ">
<path fill="none" stroke="#63b8ff" d="M474.55,-230.99C496.47,-221.2 532.71,-205.02 558,-193.73"/>
<polygon fill="#63b8ff" stroke="#63b8ff" points="559.72,-196.79 567.43,-189.52 556.87,-190.4 559.72,-196.79"/>
</a>
</g>
</g>
<!-- Node24&#45;&gt;Node9 -->
<g id="edge44_Node000024_Node000009" class="edge">
<title>Node24&#45;&gt;Node9</title>
<g id="a_edge44_Node000024_Node000009"><a xlink:title=" ">
<path fill="none" stroke="#63b8ff" d="M483.02,-233.09C518.32,-224.87 581.72,-210.1 645.88,-195.14"/>
<polygon fill="#63b8ff" stroke="#63b8ff" points="646.82,-198.52 655.76,-192.84 645.23,-191.7 646.82,-198.52"/>
</a>
</g>
</g>
<!-- Node24&#45;&gt;Node12 -->
<g id="edge45_Node000024_Node000012" class="edge">
<title>Node24&#45;&gt;Node12</title>
<g id="a_edge45_Node000024_Node000012"><a xlink:title=" ">
<path fill="none" stroke="#63b8ff" d="M445.61,-230.87C436.86,-223.22 423.73,-211.76 412.26,-201.75"/>
<polygon fill="#63b8ff" stroke="#63b8ff" points="414.5,-199.06 404.67,-195.11 409.9,-204.33 414.5,-199.06"/>
</a>
</g>
</g>
<!-- Node25&#45;&gt;Node6 -->
<g id="edge51_Node000025_Node000006" class="edge">
<title>Node25&#45;&gt;Node6</title>
<g id="a_edge51_Node000025_Node000006"><a xlink:title=" ">
<path fill="none" stroke="#63b8ff" d="M826.66,-285.74C829.27,-261.85 832.73,-195.3 795.5,-165 776.87,-149.84 721.76,-138.16 674.55,-130.58"/>
<polygon fill="#63b8ff" stroke="#63b8ff" points="675.03,-127.11 664.61,-129.02 673.95,-134.03 675.03,-127.11"/>
</a>
</g>
</g>
<!-- Node26 -->
<g id="Node000026" class="node">
<title>Node26</title>
<g id="a_Node000026"><a xlink:href="_filter_u_i_8h.html" target="_top" xlink:title=" ">
<polygon fill="white" stroke="#666666" points="802,-250 741,-250 741,-231 802,-231 802,-250"/>
<text text-anchor="middle" x="771.5" y="-238" font-family="Helvetica Neue" font-size="10.00">FilterUI.h</text>
</a>
</g>
</g>
<!-- Node25&#45;&gt;Node26 -->
<g id="edge48_Node000025_Node000026" class="edge">
<title>Node25&#45;&gt;Node26</title>
<g id="a_edge48_Node000025_Node000026"><a xlink:title=" ">
<path fill="none" stroke="#63b8ff" d="M816.58,-285.75C808.72,-278.03 797.07,-266.6 787.58,-257.28"/>
<polygon fill="#63b8ff" stroke="#63b8ff" points="789.84,-254.6 780.25,-250.09 784.94,-259.59 789.84,-254.6"/>
</a>
</g>
</g>
<!-- Node26&#45;&gt;Node4 -->
<g id="edge49_Node000026_Node000004" class="edge">
<title>Node26&#45;&gt;Node4</title>
<g id="a_edge49_Node000026_Node000004"><a xlink:title=" ">
<path fill="none" stroke="#63b8ff" d="M744.6,-230.99C712.54,-220.86 658.82,-203.87 623.02,-192.55"/>
<polygon fill="#63b8ff" stroke="#63b8ff" points="624.02,-189.19 613.43,-189.52 621.91,-195.87 624.02,-189.19"/>
</a>
</g>
</g>
<!-- Node26&#45;&gt;Node9 -->
<g id="edge50_Node000026_Node000009" class="edge">
<title>Node26&#45;&gt;Node9</title>
<g id="a_edge50_Node000026_Node000009"><a xlink:title=" ">
<path fill="none" stroke="#63b8ff" d="M761.91,-230.87C753.5,-223.3 740.92,-211.98 729.87,-202.04"/>
<polygon fill="#63b8ff" stroke="#63b8ff" points="731.96,-199.2 722.18,-195.11 727.27,-204.41 731.96,-199.2"/>
</a>
</g>
</g>
</g>
</svg>
