<?xml version="1.0" encoding="UTF-8" standalone="no"?>
<!DOCTYPE svg PUBLIC "-//W3C//DTD SVG 1.1//EN"
 "http://www.w3.org/Graphics/SVG/1.1/DTD/svg11.dtd">
<!-- Generated by graphviz version 2.43.0 (0)
 -->
<!-- Title: ModuleProcessor.h Pages: 1 -->
<svg width="1529pt" height="412pt"
 viewBox="0.00 0.00 1528.50 412.00" xmlns="http://www.w3.org/2000/svg" xmlns:xlink="http://www.w3.org/1999/xlink">
<g id="graph0" class="graph" transform="scale(1 1) rotate(0) translate(4 408)">
<title>ModuleProcessor.h</title>
<!-- Node1 -->
<g id="Node000001" class="node">
<title>Node1</title>
<g id="a_Node000001"><a xlink:title=" ">
<polygon fill="#999999" stroke="#666666" points="566.5,-404 458.5,-404 458.5,-385 566.5,-385 566.5,-404"/>
<text text-anchor="middle" x="512.5" y="-392" font-family="Helvetica Neue" font-size="10.00">ModuleProcessor.h</text>
</a>
</g>
</g>
<!-- Node2 -->
<g id="Node000002" class="node">
<title>Node2</title>
<g id="a_Node000002"><a xlink:href="_filter_processor_8h.html" target="_top" xlink:title=" ">
<polygon fill="white" stroke="#666666" points="678,-239 581,-239 581,-220 678,-220 678,-239"/>
<text text-anchor="middle" x="629.5" y="-227" font-family="Helvetica Neue" font-size="10.00">FilterProcessor.h</text>
</a>
</g>
</g>
<!-- Node1&#45;&gt;Node2 -->
<g id="edge1_Node000001_Node000002" class="edge">
<title>Node1&#45;&gt;Node2</title>
<g id="a_edge1_Node000001_Node000002"><a xlink:title=" ">
<path fill="none" stroke="#63b8ff" d="M550.1,-381.48C587.38,-367.27 642.22,-339.59 665.5,-294 675.64,-274.14 654.82,-251.57 640.82,-239.41"/>
<polygon fill="#63b8ff" stroke="#63b8ff" points="548.74,-378.25 540.55,-384.97 551.15,-384.82 548.74,-378.25"/>
</a>
</g>
</g>
<!-- Node11 -->
<g id="Node000011" class="node">
<title>Node11</title>
<g id="a_Node000011"><a xlink:href="_friction_processor_8h.html" target="_top" xlink:title=" ">
<polygon fill="white" stroke="#666666" points="439.5,-239 331.5,-239 331.5,-220 439.5,-220 439.5,-239"/>
<text text-anchor="middle" x="385.5" y="-227" font-family="Helvetica Neue" font-size="10.00">FrictionProcessor.h</text>
</a>
</g>
</g>
<!-- Node1&#45;&gt;Node11 -->
<g id="edge12_Node000001_Node000011" class="edge">
<title>Node1&#45;&gt;Node11</title>
<g id="a_edge12_Node000001_Node000011"><a xlink:title=" ">
<path fill="none" stroke="#63b8ff" d="M479.33,-380.92C445.22,-365.97 394.02,-337.46 371.5,-294 362.15,-275.96 372.87,-251.89 380.06,-239.2"/>
<polygon fill="#63b8ff" stroke="#63b8ff" points="478.31,-384.28 488.88,-384.95 481.03,-377.83 478.31,-384.28"/>
</a>
</g>
</g>
<!-- Node12 -->
<g id="Node000012" class="node">
<title>Node12</title>
<g id="a_Node000012"><a xlink:href="_gain_processor_8h.html" target="_top" xlink:title=" ">
<polygon fill="white" stroke="#666666" points="313,-239 218,-239 218,-220 313,-220 313,-239"/>
<text text-anchor="middle" x="265.5" y="-227" font-family="Helvetica Neue" font-size="10.00">GainProcessor.h</text>
</a>
</g>
</g>
<!-- Node1&#45;&gt;Node12 -->
<g id="edge14_Node000001_Node000012" class="edge">
<title>Node1&#45;&gt;Node12</title>
<g id="a_edge14_Node000001_Node000012"><a xlink:title=" ">
<path fill="none" stroke="#63b8ff" d="M448.42,-388.55C387.32,-380.02 298.46,-356.87 255.5,-294 244.04,-277.23 253.93,-252.21 260.6,-239.15"/>
<polygon fill="#63b8ff" stroke="#63b8ff" points="447.98,-392.02 458.35,-389.84 448.88,-385.08 447.98,-392.02"/>
</a>
</g>
</g>
<!-- Node13 -->
<g id="Node000013" class="node">
<title>Node13</title>
<g id="a_Node000013"><a xlink:href="_grit_processor_8h.html" target="_top" xlink:title=" ">
<polygon fill="white" stroke="#666666" points="199.5,-239 109.5,-239 109.5,-220 199.5,-220 199.5,-239"/>
<text text-anchor="middle" x="154.5" y="-227" font-family="Helvetica Neue" font-size="10.00">GritProcessor.h</text>
</a>
</g>
</g>
<!-- Node1&#45;&gt;Node13 -->
<g id="edge16_Node000001_Node000013" class="edge">
<title>Node1&#45;&gt;Node13</title>
<g id="a_edge16_Node000001_Node000013"><a xlink:title=" ">
<path fill="none" stroke="#63b8ff" d="M448.07,-385.96C352.2,-373.21 179.61,-343.79 145.5,-294 134.05,-277.28 143.43,-252.24 149.81,-239.16"/>
<polygon fill="#63b8ff" stroke="#63b8ff" points="447.86,-389.47 458.23,-387.29 448.77,-382.53 447.86,-389.47"/>
</a>
</g>
</g>
<!-- Node14 -->
<g id="Node000014" class="node">
<title>Node14</title>
<g id="a_Node000014"><a xlink:href="_impulse_processor_8h.html" target="_top" xlink:title=" ">
<polygon fill="white" stroke="#666666" points="807,-239 696,-239 696,-220 807,-220 807,-239"/>
<text text-anchor="middle" x="751.5" y="-227" font-family="Helvetica Neue" font-size="10.00">ImpulseProcessor.h</text>
</a>
</g>
</g>
<!-- Node1&#45;&gt;Node14 -->
<g id="edge18_Node000001_Node000014" class="edge">
<title>Node1&#45;&gt;Node14</title>
<g id="a_edge18_Node000001_Node000014"><a xlink:title=" ">
<path fill="none" stroke="#63b8ff" d="M576.81,-391.38C644.4,-385.3 747.68,-364.24 797.5,-294 811.52,-274.24 783.8,-251.26 765.61,-239.09"/>
<polygon fill="#63b8ff" stroke="#63b8ff" points="576.38,-387.91 566.7,-392.2 576.95,-394.88 576.38,-387.91"/>
</a>
</g>
</g>
<!-- Node15 -->
<g id="Node000015" class="node">
<title>Node15</title>
<g id="a_Node000015"><a xlink:href="_l_f_o_processor_8h.html" target="_top" xlink:title=" ">
<polygon fill="white" stroke="#666666" points="91,-239 0,-239 0,-220 91,-220 91,-239"/>
<text text-anchor="middle" x="45.5" y="-227" font-family="Helvetica Neue" font-size="10.00">LFOProcessor.h</text>
</a>
</g>
</g>
<!-- Node1&#45;&gt;Node15 -->
<g id="edge20_Node000001_Node000015" class="edge">
<title>Node1&#45;&gt;Node15</title>
<g id="a_edge20_Node000001_Node000015"><a xlink:title=" ">
<path fill="none" stroke="#63b8ff" d="M448.23,-390.46C329.03,-383.25 81.39,-360.45 33.5,-294 21.56,-277.43 32.66,-252.33 40.08,-239.2"/>
<polygon fill="#63b8ff" stroke="#63b8ff" points="448.13,-393.96 458.32,-391.05 448.54,-386.97 448.13,-393.96"/>
</a>
</g>
</g>
<!-- Node16 -->
<g id="Node000016" class="node">
<title>Node16</title>
<g id="a_Node000016"><a xlink:href="_module_u_i_8h.html" target="_top" xlink:title=" ">
<polygon fill="white" stroke="#666666" points="580.5,-349 508.5,-349 508.5,-330 580.5,-330 580.5,-349"/>
<text text-anchor="middle" x="544.5" y="-337" font-family="Helvetica Neue" font-size="10.00">ModuleUI.h</text>
</a>
</g>
</g>
<!-- Node1&#45;&gt;Node16 -->
<g id="edge22_Node000001_Node000016" class="edge">
<title>Node1&#45;&gt;Node16</title>
<g id="a_edge22_Node000001_Node000016"><a xlink:title=" ">
<path fill="none" stroke="#63b8ff" d="M523,-376.1C528.47,-367.04 534.92,-356.37 539.31,-349.09"/>
<polygon fill="#63b8ff" stroke="#63b8ff" points="519.96,-374.38 517.78,-384.75 525.95,-378 519.96,-374.38"/>
</a>
</g>
</g>
<!-- Node26 -->
<g id="Node000026" class="node">
<title>Node26</title>
<g id="a_Node000026"><a xlink:href="_output_processor_8h.html" target="_top" xlink:title=" ">
<polygon fill="white" stroke="#666666" points="563,-239 458,-239 458,-220 563,-220 563,-239"/>
<text text-anchor="middle" x="510.5" y="-227" font-family="Helvetica Neue" font-size="10.00">OutputProcessor.h</text>
</a>
</g>
</g>
<!-- Node1&#45;&gt;Node26 -->
<g id="edge61_Node000001_Node000026" class="edge">
<title>Node1&#45;&gt;Node26</title>
<g id="a_edge61_Node000001_Node000026"><a xlink:title=" ">
<path fill="none" stroke="#63b8ff" d="M505.86,-375.14C503.33,-367.21 500.75,-357.76 499.5,-349 494.84,-316.44 495.52,-307.65 499.5,-275 501.04,-262.36 504.95,-248.14 507.67,-239.25"/>
<polygon fill="#63b8ff" stroke="#63b8ff" points="502.62,-376.46 509.16,-384.8 509.24,-374.2 502.62,-376.46"/>
</a>
</g>
</g>
<!-- Node27 -->
<g id="Node000027" class="node">
<title>Node27</title>
<g id="a_Node000027"><a xlink:href="_state_8h.html" target="_top" xlink:title=" ">
<polygon fill="white" stroke="#666666" points="1128,-294 1077,-294 1077,-275 1128,-275 1128,-294"/>
<text text-anchor="middle" x="1102.5" y="-282" font-family="Helvetica Neue" font-size="10.00">State.h</text>
</a>
</g>
</g>
<!-- Node1&#45;&gt;Node27 -->
<g id="edge62_Node000001_Node000027" class="edge">
<title>Node1&#45;&gt;Node27</title>
<g id="a_edge62_Node000001_Node000027"><a xlink:title=" ">
<path fill="none" stroke="#63b8ff" d="M576.93,-393.05C663.78,-391.08 822.62,-382.66 953.5,-349 1004.15,-335.97 1059.86,-308.35 1086.53,-294.22"/>
<polygon fill="#63b8ff" stroke="#63b8ff" points="576.63,-389.55 566.7,-393.26 576.77,-396.55 576.63,-389.55"/>
</a>
</g>
</g>
<!-- Node35 -->
<g id="Node000035" class="node">
<title>Node35</title>
<g id="a_Node000035"><a xlink:href="_string_processor_8h.html" target="_top" xlink:title=" ">
<polygon fill="white" stroke="#666666" points="926,-239 825,-239 825,-220 926,-220 926,-239"/>
<text text-anchor="middle" x="875.5" y="-227" font-family="Helvetica Neue" font-size="10.00">StringProcessor.h</text>
</a>
</g>
</g>
<!-- Node1&#45;&gt;Node35 -->
<g id="edge63_Node000001_Node000035" class="edge">
<title>Node1&#45;&gt;Node35</title>
<g id="a_edge63_Node000001_Node000035"><a xlink:title=" ">
<path fill="none" stroke="#63b8ff" d="M576.68,-387.82C681.13,-377.05 880.26,-349.56 919.5,-294 933.27,-274.5 906.62,-251.42 889.1,-239.16"/>
<polygon fill="#63b8ff" stroke="#63b8ff" points="576.16,-384.36 566.56,-388.84 576.87,-391.32 576.16,-384.36"/>
</a>
</g>
</g>
<!-- Node3 -->
<g id="Node000003" class="node">
<title>Node3</title>
<g id="a_Node000003"><a xlink:href="_modules_8h.html" target="_top" xlink:title=" ">
<polygon fill="white" stroke="#666666" points="604,-184 537,-184 537,-165 604,-165 604,-184"/>
<text text-anchor="middle" x="570.5" y="-172" font-family="Helvetica Neue" font-size="10.00">Modules.h</text>
</a>
</g>
</g>
<!-- Node2&#45;&gt;Node3 -->
<g id="edge2_Node000002_Node000003" class="edge">
<title>Node2&#45;&gt;Node3</title>
<g id="a_edge2_Node000002_Node000003"><a xlink:title=" ">
<path fill="none" stroke="#63b8ff" d="M612.3,-213.04C601.83,-203.64 588.85,-191.98 580.15,-184.17"/>
<polygon fill="#63b8ff" stroke="#63b8ff" points="610.24,-215.91 620.02,-219.98 614.92,-210.7 610.24,-215.91"/>
</a>
</g>
</g>
<!-- Node4 -->
<g id="Node000004" class="node">
<title>Node4</title>
<g id="a_Node000004"><a xlink:href="_patcher_8h.html" target="_top" xlink:title=" ">
<polygon fill="white" stroke="#666666" points="1096,-129 1035,-129 1035,-110 1096,-110 1096,-129"/>
<text text-anchor="middle" x="1065.5" y="-117" font-family="Helvetica Neue" font-size="10.00">Patcher.h</text>
</a>
</g>
</g>
<!-- Node3&#45;&gt;Node4 -->
<g id="edge3_Node000003_Node000004" class="edge">
<title>Node3&#45;&gt;Node4</title>
<g id="a_edge3_Node000003_Node000004"><a xlink:title=" ">
<path fill="none" stroke="#63b8ff" d="M614.34,-168.81C712.89,-158.25 949.93,-132.87 1034.7,-123.8"/>
<polygon fill="#63b8ff" stroke="#63b8ff" points="613.7,-165.35 604.13,-169.9 614.45,-172.31 613.7,-165.35"/>
</a>
</g>
</g>
<!-- Node10 -->
<g id="Node000010" class="node">
<title>Node10</title>
<g id="a_Node000010"><a xlink:href="_state_8cpp.html" target="_top" xlink:title=" ">
<polygon fill="white" stroke="#666666" points="779.5,-129 717.5,-129 717.5,-110 779.5,-110 779.5,-129"/>
<text text-anchor="middle" x="748.5" y="-117" font-family="Helvetica Neue" font-size="10.00">State.cpp</text>
</a>
</g>
</g>
<!-- Node3&#45;&gt;Node10 -->
<g id="edge11_Node000003_Node000010" class="edge">
<title>Node3&#45;&gt;Node10</title>
<g id="a_edge11_Node000003_Node000010"><a xlink:title=" ">
<path fill="none" stroke="#63b8ff" d="M608.94,-162.06C642.2,-152.15 689.58,-138.04 719.68,-129.08"/>
<polygon fill="#63b8ff" stroke="#63b8ff" points="607.68,-158.78 599.1,-164.98 609.68,-165.49 607.68,-158.78"/>
</a>
</g>
</g>
<!-- Node5 -->
<g id="Node000005" class="node">
<title>Node5</title>
<g id="a_Node000005"><a xlink:href="_connections_8cpp.html" target="_top" xlink:title=" ">
<polygon fill="white" stroke="#666666" points="1087,-19 990,-19 990,0 1087,0 1087,-19"/>
<text text-anchor="middle" x="1038.5" y="-7" font-family="Helvetica Neue" font-size="10.00">Connections.cpp</text>
</a>
</g>
</g>
<!-- Node4&#45;&gt;Node5 -->
<g id="edge4_Node000004_Node000005" class="edge">
<title>Node4&#45;&gt;Node5</title>
<g id="a_edge4_Node000004_Node000005"><a xlink:title=" ">
<path fill="none" stroke="#63b8ff" d="M1060.83,-99.8C1054.93,-76.2 1045.02,-36.58 1040.66,-19.16"/>
<polygon fill="#63b8ff" stroke="#63b8ff" points="1057.47,-100.81 1063.29,-109.66 1064.26,-99.11 1057.47,-100.81"/>
</a>
</g>
</g>
<!-- Node6 -->
<g id="Node000006" class="node">
<title>Node6</title>
<g id="a_Node000006"><a xlink:href="_main_component_8h.html" target="_top" xlink:title=" ">
<polygon fill="white" stroke="#666666" points="1300.5,-74 1194.5,-74 1194.5,-55 1300.5,-55 1300.5,-74"/>
<text text-anchor="middle" x="1247.5" y="-62" font-family="Helvetica Neue" font-size="10.00">MainComponent.h</text>
</a>
</g>
</g>
<!-- Node4&#45;&gt;Node6 -->
<g id="edge5_Node000004_Node000006" class="edge">
<title>Node4&#45;&gt;Node6</title>
<g id="a_edge5_Node000004_Node000006"><a xlink:title=" ">
<path fill="none" stroke="#63b8ff" d="M1104.36,-107.18C1138.4,-97.27 1187.12,-83.08 1218.03,-74.08"/>
<polygon fill="#63b8ff" stroke="#63b8ff" points="1103.36,-103.83 1094.74,-109.98 1105.32,-110.55 1103.36,-103.83"/>
</a>
</g>
</g>
<!-- Node9 -->
<g id="Node000009" class="node">
<title>Node9</title>
<g id="a_Node000009"><a xlink:href="_patcher_8cpp.html" target="_top" xlink:title=" ">
<polygon fill="white" stroke="#666666" points="1177.5,-19 1105.5,-19 1105.5,0 1177.5,0 1177.5,-19"/>
<text text-anchor="middle" x="1141.5" y="-7" font-family="Helvetica Neue" font-size="10.00">Patcher.cpp</text>
</a>
</g>
</g>
<!-- Node4&#45;&gt;Node9 -->
<g id="edge10_Node000004_Node000009" class="edge">
<title>Node4&#45;&gt;Node9</title>
<g id="a_edge10_Node000004_Node000009"><a xlink:title=" ">
<path fill="none" stroke="#63b8ff" d="M1077.55,-101.38C1094,-78.01 1122.87,-36.97 1135.41,-19.16"/>
<polygon fill="#63b8ff" stroke="#63b8ff" points="1074.61,-99.47 1071.72,-109.66 1080.34,-103.5 1074.61,-99.47"/>
</a>
</g>
</g>
<!-- Node6&#45;&gt;Node5 -->
<g id="edge6_Node000006_Node000005" class="edge">
<title>Node6&#45;&gt;Node5</title>
<g id="a_edge6_Node000006_Node000005"><a xlink:title=" ">
<path fill="none" stroke="#63b8ff" d="M1204.13,-52.5C1164.99,-42.58 1108.22,-28.18 1072.34,-19.08"/>
<polygon fill="#63b8ff" stroke="#63b8ff" points="1203.37,-55.92 1213.92,-54.98 1205.09,-49.13 1203.37,-55.92"/>
</a>
</g>
</g>
<!-- Node7 -->
<g id="Node000007" class="node">
<title>Node7</title>
<g id="a_Node000007"><a xlink:href="_main_8cpp.html" target="_top" xlink:title=" ">
<polygon fill="white" stroke="#666666" points="1406,-19 1345,-19 1345,0 1406,0 1406,-19"/>
<text text-anchor="middle" x="1375.5" y="-7" font-family="Helvetica Neue" font-size="10.00">Main.cpp</text>
</a>
</g>
</g>
<!-- Node6&#45;&gt;Node7 -->
<g id="edge7_Node000006_Node000007" class="edge">
<title>Node6&#45;&gt;Node7</title>
<g id="a_edge7_Node000006_Node000007"><a xlink:title=" ">
<path fill="none" stroke="#63b8ff" d="M1277.62,-51.03C1301.29,-41.23 1333.65,-27.83 1354.56,-19.17"/>
<polygon fill="#63b8ff" stroke="#63b8ff" points="1275.97,-47.93 1268.07,-54.98 1278.64,-54.39 1275.97,-47.93"/>
</a>
</g>
</g>
<!-- Node8 -->
<g id="Node000008" class="node">
<title>Node8</title>
<g id="a_Node000008"><a xlink:href="_main_component_8cpp.html" target="_top" xlink:title=" ">
<polygon fill="white" stroke="#666666" points="1313,-19 1196,-19 1196,0 1313,0 1313,-19"/>
<text text-anchor="middle" x="1254.5" y="-7" font-family="Helvetica Neue" font-size="10.00">MainComponent.cpp</text>
</a>
</g>
</g>
<!-- Node6&#45;&gt;Node8 -->
<g id="edge8_Node000006_Node000008" class="edge">
<title>Node6&#45;&gt;Node8</title>
<g id="a_edge8_Node000006_Node000008"><a xlink:title=" ">
<path fill="none" stroke="#63b8ff" d="M1249.99,-44.66C1251.14,-35.93 1252.45,-25.99 1253.37,-19.09"/>
<polygon fill="#63b8ff" stroke="#63b8ff" points="1246.5,-44.38 1248.66,-54.75 1253.44,-45.29 1246.5,-44.38"/>
</a>
</g>
</g>
<!-- Node6&#45;&gt;Node9 -->
<g id="edge9_Node000006_Node000009" class="edge">
<title>Node6&#45;&gt;Node9</title>
<g id="a_edge9_Node000006_Node000009"><a xlink:title=" ">
<path fill="none" stroke="#63b8ff" d="M1221.5,-50.5C1202,-40.75 1175.85,-27.68 1158.84,-19.17"/>
<polygon fill="#63b8ff" stroke="#63b8ff" points="1219.96,-53.64 1230.47,-54.98 1223.09,-47.38 1219.96,-53.64"/>
</a>
</g>
</g>
<!-- Node11&#45;&gt;Node3 -->
<g id="edge13_Node000011_Node000003" class="edge">
<title>Node11&#45;&gt;Node3</title>
<g id="a_edge13_Node000011_Node000003"><a xlink:title=" ">
<path fill="none" stroke="#63b8ff" d="M425,-217.18C459.6,-207.27 509.13,-193.08 540.54,-184.08"/>
<polygon fill="#63b8ff" stroke="#63b8ff" points="423.87,-213.87 415.22,-219.98 425.8,-220.6 423.87,-213.87"/>
</a>
</g>
</g>
<!-- Node12&#45;&gt;Node3 -->
<g id="edge15_Node000012_Node000003" class="edge">
<title>Node12&#45;&gt;Node3</title>
<g id="a_edge15_Node000012_Node000003"><a xlink:title=" ">
<path fill="none" stroke="#63b8ff" d="M323.35,-218.45C386.47,-207.48 485.38,-190.29 536.84,-181.35"/>
<polygon fill="#63b8ff" stroke="#63b8ff" points="322.41,-215.06 313.16,-220.22 323.61,-221.95 322.41,-215.06"/>
</a>
</g>
</g>
<!-- Node13&#45;&gt;Node3 -->
<g id="edge17_Node000013_Node000003" class="edge">
<title>Node13&#45;&gt;Node3</title>
<g id="a_edge17_Node000013_Node000003"><a xlink:title=" ">
<path fill="none" stroke="#63b8ff" d="M209.82,-219.86C336.41,-202.26 474.02,-186.34 536.51,-179.29"/>
<polygon fill="#63b8ff" stroke="#63b8ff" points="208.98,-216.44 199.56,-221.29 209.95,-223.37 208.98,-216.44"/>
</a>
</g>
</g>
<!-- Node14&#45;&gt;Node3 -->
<g id="edge19_Node000014_Node000003" class="edge">
<title>Node14&#45;&gt;Node3</title>
<g id="a_edge19_Node000014_Node000003"><a xlink:title=" ">
<path fill="none" stroke="#63b8ff" d="M712.42,-217.06C678.59,-207.15 630.42,-193.04 599.81,-184.08"/>
<polygon fill="#63b8ff" stroke="#63b8ff" points="711.84,-220.53 722.42,-219.98 713.81,-213.82 711.84,-220.53"/>
</a>
</g>
</g>
<!-- Node15&#45;&gt;Node3 -->
<g id="edge21_Node000015_Node000003" class="edge">
<title>Node15&#45;&gt;Node3</title>
<g id="a_edge21_Node000015_Node000003"><a xlink:title=" ">
<path fill="none" stroke="#63b8ff" d="M101.22,-219.99C271.18,-199.08 461.02,-183.78 536.8,-178"/>
<polygon fill="#63b8ff" stroke="#63b8ff" points="100.58,-216.54 91.09,-221.24 101.44,-223.49 100.58,-216.54"/>
</a>
</g>
</g>
<!-- Node17 -->
<g id="Node000017" class="node">
<title>Node17</title>
<g id="a_Node000017"><a xlink:href="_filter_u_i_8h.html" target="_top" xlink:title=" ">
<polygon fill="white" stroke="#666666" points="657,-294 596,-294 596,-275 657,-275 657,-294"/>
<text text-anchor="middle" x="626.5" y="-282" font-family="Helvetica Neue" font-size="10.00">FilterUI.h</text>
</a>
</g>
</g>
<!-- Node16&#45;&gt;Node17 -->
<g id="edge23_Node000016_Node000017" class="edge">
<title>Node16&#45;&gt;Node17</title>
<g id="a_edge23_Node000016_Node000017"><a xlink:title=" ">
<path fill="none" stroke="#63b8ff" d="M566.28,-324.42C581.16,-314.81 600.41,-302.37 613.09,-294.17"/>
<polygon fill="#63b8ff" stroke="#63b8ff" points="564.17,-321.62 557.67,-329.98 567.97,-327.5 564.17,-321.62"/>
</a>
</g>
</g>
<!-- Node18 -->
<g id="Node000018" class="node">
<title>Node18</title>
<g id="a_Node000018"><a xlink:href="_friction_u_i_8h.html" target="_top" xlink:title=" ">
<polygon fill="white" stroke="#666666" points="452.5,-294 380.5,-294 380.5,-275 452.5,-275 452.5,-294"/>
<text text-anchor="middle" x="416.5" y="-282" font-family="Helvetica Neue" font-size="10.00">FrictionUI.h</text>
</a>
</g>
</g>
<!-- Node16&#45;&gt;Node18 -->
<g id="edge25_Node000016_Node000018" class="edge">
<title>Node16&#45;&gt;Node18</title>
<g id="a_edge25_Node000016_Node000018"><a xlink:title=" ">
<path fill="none" stroke="#63b8ff" d="M514.38,-326.03C490.71,-316.23 458.35,-302.83 437.44,-294.17"/>
<polygon fill="#63b8ff" stroke="#63b8ff" points="513.36,-329.39 523.93,-329.98 516.03,-322.93 513.36,-329.39"/>
</a>
</g>
</g>
<!-- Node19 -->
<g id="Node000019" class="node">
<title>Node19</title>
<g id="a_Node000019"><a xlink:href="_gain_u_i_8h.html" target="_top" xlink:title=" ">
<polygon fill="white" stroke="#666666" points="324,-294 265,-294 265,-275 324,-275 324,-294"/>
<text text-anchor="middle" x="294.5" y="-282" font-family="Helvetica Neue" font-size="10.00">GainUI.h</text>
</a>
</g>
</g>
<!-- Node16&#45;&gt;Node19 -->
<g id="edge27_Node000016_Node000019" class="edge">
<title>Node16&#45;&gt;Node19</title>
<g id="a_edge27_Node000016_Node000019"><a xlink:title=" ">
<path fill="none" stroke="#63b8ff" d="M498.36,-328.72C447.57,-317.95 367.43,-300.96 324.31,-291.82"/>
<polygon fill="#63b8ff" stroke="#63b8ff" points="497.91,-332.2 508.41,-330.85 499.36,-325.35 497.91,-332.2"/>
</a>
</g>
</g>
<!-- Node20 -->
<g id="Node000020" class="node">
<title>Node20</title>
<g id="a_Node000020"><a xlink:href="_grit_u_i_8h.html" target="_top" xlink:title=" ">
<polygon fill="white" stroke="#666666" points="208.5,-294 154.5,-294 154.5,-275 208.5,-275 208.5,-294"/>
<text text-anchor="middle" x="181.5" y="-282" font-family="Helvetica Neue" font-size="10.00">GritUI.h</text>
</a>
</g>
</g>
<!-- Node16&#45;&gt;Node20 -->
<g id="edge29_Node000016_Node000020" class="edge">
<title>Node16&#45;&gt;Node20</title>
<g id="a_edge29_Node000016_Node000020"><a xlink:title=" ">
<path fill="none" stroke="#63b8ff" d="M498.05,-331.72C421.36,-320.52 270.58,-298.51 208.84,-289.49"/>
<polygon fill="#63b8ff" stroke="#63b8ff" points="497.97,-335.24 508.37,-333.22 498.98,-328.32 497.97,-335.24"/>
</a>
</g>
</g>
<!-- Node21 -->
<g id="Node000021" class="node">
<title>Node21</title>
<g id="a_Node000021"><a xlink:href="_impulse_u_i_8h.html" target="_top" xlink:title=" ">
<polygon fill="white" stroke="#666666" points="789,-294 714,-294 714,-275 789,-275 789,-294"/>
<text text-anchor="middle" x="751.5" y="-282" font-family="Helvetica Neue" font-size="10.00">ImpulseUI.h</text>
</a>
</g>
</g>
<!-- Node16&#45;&gt;Node21 -->
<g id="edge31_Node000016_Node000021" class="edge">
<title>Node16&#45;&gt;Node21</title>
<g id="a_edge31_Node000016_Node000021"><a xlink:title=" ">
<path fill="none" stroke="#63b8ff" d="M587.71,-327.44C626.46,-317.52 682.53,-303.16 717.98,-294.08"/>
<polygon fill="#63b8ff" stroke="#63b8ff" points="586.58,-324.11 577.76,-329.98 588.31,-330.89 586.58,-324.11"/>
</a>
</g>
</g>
<!-- Node22 -->
<g id="Node000022" class="node">
<title>Node22</title>
<g id="a_Node000022"><a xlink:href="_l_f_o_u_i_8h.html" target="_top" xlink:title=" ">
<polygon fill="white" stroke="#666666" points="98,-294 43,-294 43,-275 98,-275 98,-294"/>
<text text-anchor="middle" x="70.5" y="-282" font-family="Helvetica Neue" font-size="10.00">LFOUI.h</text>
</a>
</g>
</g>
<!-- Node16&#45;&gt;Node22 -->
<g id="edge33_Node000016_Node000022" class="edge">
<title>Node16&#45;&gt;Node22</title>
<g id="a_edge33_Node000016_Node000022"><a xlink:title=" ">
<path fill="none" stroke="#63b8ff" d="M498.5,-333.4C424.24,-325.15 273.34,-308.37 145.5,-294 129.87,-292.24 112.42,-290.27 98.28,-288.66"/>
<polygon fill="#63b8ff" stroke="#63b8ff" points="498.14,-336.88 508.46,-334.5 498.91,-329.92 498.14,-336.88"/>
</a>
</g>
</g>
<!-- Node23 -->
<g id="Node000023" class="node">
<title>Node23</title>
<g id="a_Node000023"><a xlink:href="_module_box_8h.html" target="_top" xlink:title=" ">
<polygon fill="white" stroke="#666666" points="1176.5,-184 1096.5,-184 1096.5,-165 1176.5,-165 1176.5,-184"/>
<text text-anchor="middle" x="1136.5" y="-172" font-family="Helvetica Neue" font-size="10.00">ModuleBox.h</text>
</a>
</g>
</g>
<!-- Node16&#45;&gt;Node23 -->
<g id="edge35_Node000016_Node000023" class="edge">
<title>Node16&#45;&gt;Node23</title>
<g id="a_edge35_Node000016_Node000023"><a xlink:title=" ">
<path fill="none" stroke="#63b8ff" d="M590.71,-338.61C662.69,-337.55 805.2,-330.48 919.5,-294 1003.74,-267.11 1092.92,-206.77 1124.54,-184.22"/>
<polygon fill="#63b8ff" stroke="#63b8ff" points="590.57,-335.11 580.61,-338.72 590.65,-342.11 590.57,-335.11"/>
</a>
</g>
</g>
<!-- Node25 -->
<g id="Node000025" class="node">
<title>Node25</title>
<g id="a_Node000025"><a xlink:href="_output_u_i_8h.html" target="_top" xlink:title=" ">
<polygon fill="white" stroke="#666666" points="578,-294 509,-294 509,-275 578,-275 578,-294"/>
<text text-anchor="middle" x="543.5" y="-282" font-family="Helvetica Neue" font-size="10.00">OutputUI.h</text>
</a>
</g>
</g>
<!-- Node16&#45;&gt;Node25 -->
<g id="edge38_Node000016_Node000025" class="edge">
<title>Node16&#45;&gt;Node25</title>
<g id="a_edge38_Node000016_Node000025"><a xlink:title=" ">
<path fill="none" stroke="#63b8ff" d="M544.14,-319.66C543.98,-310.93 543.79,-300.99 543.66,-294.09"/>
<polygon fill="#63b8ff" stroke="#63b8ff" points="540.65,-319.82 544.33,-329.75 547.65,-319.68 540.65,-319.82"/>
</a>
</g>
</g>
<!-- Node16&#45;&gt;Node27 -->
<g id="edge41_Node000016_Node000027" class="edge">
<title>Node16&#45;&gt;Node27</title>
<g id="a_edge41_Node000016_Node000027"><a xlink:title=" ">
<path fill="none" stroke="#63b8ff" d="M590.72,-334.11C703.43,-323.4 989.58,-296.23 1076.85,-287.94"/>
<polygon fill="#63b8ff" stroke="#63b8ff" points="590.31,-330.63 580.68,-335.06 590.97,-337.6 590.31,-330.63"/>
</a>
</g>
</g>
<!-- Node34 -->
<g id="Node000034" class="node">
<title>Node34</title>
<g id="a_Node000034"><a xlink:href="_string_u_i_8h.html" target="_top" xlink:title=" ">
<polygon fill="white" stroke="#666666" points="911,-294 846,-294 846,-275 911,-275 911,-294"/>
<text text-anchor="middle" x="878.5" y="-282" font-family="Helvetica Neue" font-size="10.00">StringUI.h</text>
</a>
</g>
</g>
<!-- Node16&#45;&gt;Node34 -->
<g id="edge58_Node000016_Node000034" class="edge">
<title>Node16&#45;&gt;Node34</title>
<g id="a_edge58_Node000016_Node000034"><a xlink:title=" ">
<path fill="none" stroke="#63b8ff" d="M590.62,-331.18C659.03,-320.33 785.73,-300.22 845.57,-290.73"/>
<polygon fill="#63b8ff" stroke="#63b8ff" points="589.89,-327.75 580.56,-332.78 590.99,-334.67 589.89,-327.75"/>
</a>
</g>
</g>
<!-- Node17&#45;&gt;Node2 -->
<g id="edge24_Node000017_Node000002" class="edge">
<title>Node17&#45;&gt;Node2</title>
<g id="a_edge24_Node000017_Node000002"><a xlink:title=" ">
<path fill="none" stroke="#63b8ff" d="M627.57,-264.66C628.06,-255.93 628.62,-245.99 629.01,-239.09"/>
<polygon fill="#63b8ff" stroke="#63b8ff" points="624.07,-264.57 627,-274.75 631.06,-264.96 624.07,-264.57"/>
</a>
</g>
</g>
<!-- Node18&#45;&gt;Node11 -->
<g id="edge26_Node000018_Node000011" class="edge">
<title>Node18&#45;&gt;Node11</title>
<g id="a_edge26_Node000018_Node000011"><a xlink:title=" ">
<path fill="none" stroke="#63b8ff" d="M406.32,-266.1C401.03,-257.04 394.78,-246.37 390.52,-239.09"/>
<polygon fill="#63b8ff" stroke="#63b8ff" points="403.31,-267.88 411.38,-274.75 409.35,-264.35 403.31,-267.88"/>
</a>
</g>
</g>
<!-- Node19&#45;&gt;Node12 -->
<g id="edge28_Node000019_Node000012" class="edge">
<title>Node19&#45;&gt;Node12</title>
<g id="a_edge28_Node000019_Node000012"><a xlink:title=" ">
<path fill="none" stroke="#63b8ff" d="M284.82,-265.82C279.9,-256.82 274.14,-246.29 270.2,-239.09"/>
<polygon fill="#63b8ff" stroke="#63b8ff" points="281.84,-267.66 289.71,-274.75 287.98,-264.3 281.84,-267.66"/>
</a>
</g>
</g>
<!-- Node20&#45;&gt;Node13 -->
<g id="edge30_Node000020_Node000013" class="edge">
<title>Node20&#45;&gt;Node13</title>
<g id="a_edge30_Node000020_Node000013"><a xlink:title=" ">
<path fill="none" stroke="#63b8ff" d="M172.49,-265.82C167.91,-256.82 162.55,-246.29 158.88,-239.09"/>
<polygon fill="#63b8ff" stroke="#63b8ff" points="169.38,-267.43 177.04,-274.75 175.62,-264.25 169.38,-267.43"/>
</a>
</g>
</g>
<!-- Node21&#45;&gt;Node14 -->
<g id="edge32_Node000021_Node000014" class="edge">
<title>Node21&#45;&gt;Node14</title>
<g id="a_edge32_Node000021_Node000014"><a xlink:title=" ">
<path fill="none" stroke="#63b8ff" d="M751.5,-264.66C751.5,-255.93 751.5,-245.99 751.5,-239.09"/>
<polygon fill="#63b8ff" stroke="#63b8ff" points="748,-264.75 751.5,-274.75 755,-264.75 748,-264.75"/>
</a>
</g>
</g>
<!-- Node22&#45;&gt;Node15 -->
<g id="edge34_Node000022_Node000015" class="edge">
<title>Node22&#45;&gt;Node15</title>
<g id="a_edge34_Node000022_Node000015"><a xlink:title=" ">
<path fill="none" stroke="#63b8ff" d="M62.02,-265.53C57.81,-256.6 52.91,-246.22 49.55,-239.09"/>
<polygon fill="#63b8ff" stroke="#63b8ff" points="58.94,-267.2 66.37,-274.75 65.27,-264.21 58.94,-267.2"/>
</a>
</g>
</g>
<!-- Node23&#45;&gt;Node4 -->
<g id="edge37_Node000023_Node000004" class="edge">
<title>Node23&#45;&gt;Node4</title>
<g id="a_edge37_Node000023_Node000004"><a xlink:title=" ">
<path fill="none" stroke="#63b8ff" d="M1116.91,-158.88C1104.13,-149.34 1087.89,-137.21 1077.11,-129.17"/>
<polygon fill="#63b8ff" stroke="#63b8ff" points="1114.99,-161.81 1125.09,-164.98 1119.17,-156.2 1114.99,-161.81"/>
</a>
</g>
</g>
<!-- Node24 -->
<g id="Node000024" class="node">
<title>Node24</title>
<g id="a_Node000024"><a xlink:href="_module_box_8cpp.html" target="_top" xlink:title=" ">
<polygon fill="white" stroke="#666666" points="1206.5,-129 1114.5,-129 1114.5,-110 1206.5,-110 1206.5,-129"/>
<text text-anchor="middle" x="1160.5" y="-117" font-family="Helvetica Neue" font-size="10.00">ModuleBox.cpp</text>
</a>
</g>
</g>
<!-- Node23&#45;&gt;Node24 -->
<g id="edge36_Node000023_Node000024" class="edge">
<title>Node23&#45;&gt;Node24</title>
<g id="a_edge36_Node000023_Node000024"><a xlink:title=" ">
<path fill="none" stroke="#63b8ff" d="M1144.64,-155.53C1148.68,-146.6 1153.38,-136.22 1156.61,-129.09"/>
<polygon fill="#63b8ff" stroke="#63b8ff" points="1141.4,-154.19 1140.46,-164.75 1147.78,-157.08 1141.4,-154.19"/>
</a>
</g>
</g>
<!-- Node25&#45;&gt;Node26 -->
<g id="edge39_Node000025_Node000026" class="edge">
<title>Node25&#45;&gt;Node26</title>
<g id="a_edge39_Node000025_Node000026"><a xlink:title=" ">
<path fill="none" stroke="#63b8ff" d="M532.67,-266.1C527.03,-257.04 520.38,-246.37 515.85,-239.09"/>
<polygon fill="#63b8ff" stroke="#63b8ff" points="529.79,-268.11 538.05,-274.75 535.74,-264.41 529.79,-268.11"/>
</a>
</g>
</g>
<!-- Node26&#45;&gt;Node3 -->
<g id="edge40_Node000026_Node000003" class="edge">
<title>Node26&#45;&gt;Node3</title>
<g id="a_edge40_Node000026_Node000003"><a xlink:title=" ">
<path fill="none" stroke="#63b8ff" d="M527.68,-213.32C538.38,-203.87 551.76,-192.06 560.68,-184.17"/>
<polygon fill="#63b8ff" stroke="#63b8ff" points="525.32,-210.74 520.14,-219.98 529.95,-215.99 525.32,-210.74"/>
</a>
</g>
</g>
<!-- Node27&#45;&gt;Node4 -->
<g id="edge53_Node000027_Node000004" class="edge">
<title>Node27&#45;&gt;Node4</title>
<g id="a_edge53_Node000027_Node000004"><a xlink:title=" ">
<path fill="none" stroke="#63b8ff" d="M1098.26,-264.83C1090.28,-229.67 1073.31,-154.9 1067.5,-129.31"/>
<polygon fill="#63b8ff" stroke="#63b8ff" points="1094.88,-265.76 1100.51,-274.74 1101.71,-264.21 1094.88,-265.76"/>
</a>
</g>
</g>
<!-- Node27&#45;&gt;Node6 -->
<g id="edge52_Node000027_Node000006" class="edge">
<title>Node27&#45;&gt;Node6</title>
<g id="a_edge52_Node000027_Node000006"><a xlink:title=" ">
<path fill="none" stroke="#63b8ff" d="M1137.9,-274.01C1178.23,-261.1 1242.18,-233.68 1270.5,-184 1291.46,-147.22 1265.02,-94.7 1252.94,-74.18"/>
<polygon fill="#63b8ff" stroke="#63b8ff" points="1136.73,-270.71 1128.2,-276.99 1138.78,-277.4 1136.73,-270.71"/>
</a>
</g>
</g>
<!-- Node27&#45;&gt;Node7 -->
<g id="edge51_Node000027_Node000007" class="edge">
<title>Node27&#45;&gt;Node7</title>
<g id="a_edge51_Node000027_Node000007"><a xlink:title=" ">
<path fill="none" stroke="#63b8ff" d="M1138.25,-281.34C1214.21,-276.35 1389.17,-262.59 1443.5,-239 1484.19,-221.33 1520.5,-219.86 1520.5,-175.5 1520.5,-175.5 1520.5,-175.5 1520.5,-118.5 1520.5,-62 1448.81,-31.56 1406.25,-18.47"/>
<polygon fill="#63b8ff" stroke="#63b8ff" points="1137.97,-277.85 1128.21,-281.99 1138.42,-284.84 1137.97,-277.85"/>
</a>
</g>
</g>
<!-- Node27&#45;&gt;Node10 -->
<g id="edge57_Node000027_Node000010" class="edge">
<title>Node27&#45;&gt;Node10</title>
<g id="a_edge57_Node000027_Node000010"><a xlink:title=" ">
<path fill="none" stroke="#63b8ff" d="M1074.53,-270.62C1005.01,-238.61 825.78,-156.09 767.28,-129.15"/>
<polygon fill="#63b8ff" stroke="#63b8ff" points="1073.42,-273.96 1083.97,-274.97 1076.35,-267.6 1073.42,-273.96"/>
</a>
</g>
</g>
<!-- Node28 -->
<g id="Node000028" class="node">
<title>Node28</title>
<g id="a_Node000028"><a xlink:href="_audio_engine_8h.html" target="_top" xlink:title=" ">
<polygon fill="white" stroke="#666666" points="1404.5,-239 1318.5,-239 1318.5,-220 1404.5,-220 1404.5,-239"/>
<text text-anchor="middle" x="1361.5" y="-227" font-family="Helvetica Neue" font-size="10.00">AudioEngine.h</text>
</a>
</g>
</g>
<!-- Node27&#45;&gt;Node28 -->
<g id="edge42_Node000027_Node000028" class="edge">
<title>Node27&#45;&gt;Node28</title>
<g id="a_edge42_Node000027_Node000028"><a xlink:title=" ">
<path fill="none" stroke="#63b8ff" d="M1138.11,-276.21C1185.54,-266.51 1269.3,-249.37 1319.68,-239.06"/>
<polygon fill="#63b8ff" stroke="#63b8ff" points="1137.38,-272.79 1128.28,-278.22 1138.78,-279.65 1137.38,-272.79"/>
</a>
</g>
</g>
<!-- Node30 -->
<g id="Node000030" class="node">
<title>Node30</title>
<g id="a_Node000030"><a xlink:href="_connections_8h.html" target="_top" xlink:title=" ">
<polygon fill="white" stroke="#666666" points="1040.5,-184 954.5,-184 954.5,-165 1040.5,-165 1040.5,-184"/>
<text text-anchor="middle" x="997.5" y="-172" font-family="Helvetica Neue" font-size="10.00">Connections.h</text>
</a>
</g>
</g>
<!-- Node27&#45;&gt;Node30 -->
<g id="edge45_Node000027_Node000030" class="edge">
<title>Node27&#45;&gt;Node30</title>
<g id="a_edge45_Node000027_Node000030"><a xlink:title=" ">
<path fill="none" stroke="#63b8ff" d="M1085.2,-268.17C1075.91,-259.75 1064.36,-249.02 1054.5,-239 1036,-220.2 1015.67,-196.85 1005,-184.36"/>
<polygon fill="#63b8ff" stroke="#63b8ff" points="1082.91,-270.81 1092.69,-274.89 1087.59,-265.6 1082.91,-270.81"/>
</a>
</g>
</g>
<!-- Node31 -->
<g id="Node000031" class="node">
<title>Node31</title>
<g id="a_Node000031"><a xlink:href="_file_manager_8h.html" target="_top" xlink:title=" ">
<polygon fill="white" stroke="#666666" points="1442,-129 1357,-129 1357,-110 1442,-110 1442,-129"/>
<text text-anchor="middle" x="1399.5" y="-117" font-family="Helvetica Neue" font-size="10.00">FileManager.h</text>
</a>
</g>
</g>
<!-- Node27&#45;&gt;Node31 -->
<g id="edge48_Node000027_Node000031" class="edge">
<title>Node27&#45;&gt;Node31</title>
<g id="a_edge48_Node000027_Node000031"><a xlink:title=" ">
<path fill="none" stroke="#63b8ff" d="M1138.54,-281.4C1209.92,-276.75 1366.4,-263.97 1413.5,-239 1448.57,-220.41 1481.89,-200.18 1463.5,-165 1454.66,-148.09 1436.14,-136.31 1421.29,-129.13"/>
<polygon fill="#63b8ff" stroke="#63b8ff" points="1138.01,-277.93 1128.25,-282.05 1138.45,-284.91 1138.01,-277.93"/>
</a>
</g>
</g>
<!-- Node32 -->
<g id="Node000032" class="node">
<title>Node32</title>
<g id="a_Node000032"><a xlink:href="_port_u_i_8h.html" target="_top" xlink:title=" ">
<polygon fill="white" stroke="#666666" points="1164.5,-239 1108.5,-239 1108.5,-220 1164.5,-220 1164.5,-239"/>
<text text-anchor="middle" x="1136.5" y="-227" font-family="Helvetica Neue" font-size="10.00">PortUI.h</text>
</a>
</g>
</g>
<!-- Node27&#45;&gt;Node32 -->
<g id="edge54_Node000027_Node000032" class="edge">
<title>Node27&#45;&gt;Node32</title>
<g id="a_edge54_Node000027_Node000032"><a xlink:title=" ">
<path fill="none" stroke="#63b8ff" d="M1113.66,-266.1C1119.47,-257.04 1126.32,-246.37 1130.99,-239.09"/>
<polygon fill="#63b8ff" stroke="#63b8ff" points="1110.57,-264.44 1108.11,-274.75 1116.46,-268.22 1110.57,-264.44"/>
</a>
</g>
</g>
<!-- Node28&#45;&gt;Node7 -->
<g id="edge44_Node000028_Node000007" class="edge">
<title>Node28&#45;&gt;Node7</title>
<g id="a_edge44_Node000028_Node000007"><a xlink:title=" ">
<path fill="none" stroke="#63b8ff" d="M1354.35,-210.18C1351.63,-202.26 1348.85,-192.81 1347.5,-184 1342.51,-151.49 1343,-142.58 1347.5,-110 1352.26,-75.51 1365.89,-36.15 1372.21,-19.11"/>
<polygon fill="#63b8ff" stroke="#63b8ff" points="1351.16,-211.65 1357.9,-219.82 1357.73,-209.23 1351.16,-211.65"/>
</a>
</g>
</g>
<!-- Node29 -->
<g id="Node000029" class="node">
<title>Node29</title>
<g id="a_Node000029"><a xlink:href="_audio_engine_8cpp.html" target="_top" xlink:title=" ">
<polygon fill="white" stroke="#666666" points="1454.5,-184 1356.5,-184 1356.5,-165 1454.5,-165 1454.5,-184"/>
<text text-anchor="middle" x="1405.5" y="-172" font-family="Helvetica Neue" font-size="10.00">AudioEngine.cpp</text>
</a>
</g>
</g>
<!-- Node28&#45;&gt;Node29 -->
<g id="edge43_Node000028_Node000029" class="edge">
<title>Node28&#45;&gt;Node29</title>
<g id="a_edge43_Node000028_Node000029"><a xlink:title=" ">
<path fill="none" stroke="#63b8ff" d="M1375.23,-211.96C1382.9,-202.72 1392.13,-191.6 1398.37,-184.09"/>
<polygon fill="#63b8ff" stroke="#63b8ff" points="1372.46,-209.82 1368.77,-219.75 1377.85,-214.29 1372.46,-209.82"/>
</a>
</g>
</g>
<!-- Node30&#45;&gt;Node4 -->
<g id="edge47_Node000030_Node000004" class="edge">
<title>Node30&#45;&gt;Node4</title>
<g id="a_edge47_Node000030_Node000004"><a xlink:title=" ">
<path fill="none" stroke="#63b8ff" d="M1016.62,-158.6C1028.8,-149.11 1044.16,-137.13 1054.38,-129.17"/>
<polygon fill="#63b8ff" stroke="#63b8ff" points="1014.16,-156.08 1008.43,-164.98 1018.46,-161.6 1014.16,-156.08"/>
</a>
</g>
</g>
<!-- Node30&#45;&gt;Node5 -->
<g id="edge46_Node000030_Node000005" class="edge">
<title>Node30&#45;&gt;Node5</title>
<g id="a_edge46_Node000030_Node000005"><a xlink:title=" ">
<path fill="none" stroke="#63b8ff" d="M1002.2,-154.83C1011.04,-119.67 1029.85,-44.9 1036.28,-19.31"/>
<polygon fill="#63b8ff" stroke="#63b8ff" points="998.75,-154.18 999.7,-164.74 1005.54,-155.89 998.75,-154.18"/>
</a>
</g>
</g>
<!-- Node31&#45;&gt;Node6 -->
<g id="edge50_Node000031_Node000006" class="edge">
<title>Node31&#45;&gt;Node6</title>
<g id="a_edge50_Node000031_Node000006"><a xlink:title=" ">
<path fill="none" stroke="#63b8ff" d="M1365.57,-106.67C1337.23,-96.79 1297.48,-82.93 1272.11,-74.08"/>
<polygon fill="#63b8ff" stroke="#63b8ff" points="1364.48,-110 1375.08,-109.98 1366.79,-103.39 1364.48,-110"/>
</a>
</g>
</g>
<!-- Node31&#45;&gt;Node7 -->
<g id="edge49_Node000031_Node000007" class="edge">
<title>Node31&#45;&gt;Node7</title>
<g id="a_edge49_Node000031_Node000007"><a xlink:title=" ">
<path fill="none" stroke="#63b8ff" d="M1395.35,-99.8C1390.1,-76.2 1381.29,-36.58 1377.42,-19.16"/>
<polygon fill="#63b8ff" stroke="#63b8ff" points="1391.95,-100.66 1397.54,-109.66 1398.78,-99.14 1391.95,-100.66"/>
</a>
</g>
</g>
<!-- Node32&#45;&gt;Node23 -->
<g id="edge55_Node000032_Node000023" class="edge">
<title>Node32&#45;&gt;Node23</title>
<g id="a_edge55_Node000032_Node000023"><a xlink:title=" ">
<path fill="none" stroke="#63b8ff" d="M1136.5,-209.66C1136.5,-200.93 1136.5,-190.99 1136.5,-184.09"/>
<polygon fill="#63b8ff" stroke="#63b8ff" points="1133,-209.75 1136.5,-219.75 1140,-209.75 1133,-209.75"/>
</a>
</g>
</g>
<!-- Node33 -->
<g id="Node000033" class="node">
<title>Node33</title>
<g id="a_Node000033"><a xlink:href="_port_u_i_8cpp.html" target="_top" xlink:title=" ">
<polygon fill="white" stroke="#666666" points="1262,-184 1195,-184 1195,-165 1262,-165 1262,-184"/>
<text text-anchor="middle" x="1228.5" y="-172" font-family="Helvetica Neue" font-size="10.00">PortUI.cpp</text>
</a>
</g>
</g>
<!-- Node32&#45;&gt;Node33 -->
<g id="edge56_Node000032_Node000033" class="edge">
<title>Node32&#45;&gt;Node33</title>
<g id="a_edge56_Node000032_Node000033"><a xlink:title=" ">
<path fill="none" stroke="#63b8ff" d="M1159.99,-214.97C1176.81,-205.28 1198.95,-192.52 1213.45,-184.17"/>
<polygon fill="#63b8ff" stroke="#63b8ff" points="1158.2,-211.96 1151.28,-219.98 1161.69,-218.03 1158.2,-211.96"/>
</a>
</g>
</g>
<!-- Node34&#45;&gt;Node35 -->
<g id="edge59_Node000034_Node000035" class="edge">
<title>Node34&#45;&gt;Node35</title>
<g id="a_edge59_Node000034_Node000035"><a xlink:title=" ">
<path fill="none" stroke="#63b8ff" d="M877.43,-264.66C876.94,-255.93 876.38,-245.99 875.99,-239.09"/>
<polygon fill="#63b8ff" stroke="#63b8ff" points="873.94,-264.96 878,-274.75 880.93,-264.57 873.94,-264.96"/>
</a>
</g>
</g>
<!-- Node35&#45;&gt;Node3 -->
<g id="edge60_Node000035_Node000003" class="edge">
<title>Node35&#45;&gt;Node3</title>
<g id="a_edge60_Node000035_Node000003"><a xlink:title=" ">
<path fill="none" stroke="#63b8ff" d="M816.29,-218.21C753.16,-207.24 655.4,-190.25 604.27,-181.37"/>
<polygon fill="#63b8ff" stroke="#63b8ff" points="816.04,-221.72 826.5,-219.98 817.24,-214.82 816.04,-221.72"/>
</a>
</g>
</g>
</g>
</svg>
