<?xml version="1.0" encoding="UTF-8" standalone="no"?>
<!DOCTYPE svg PUBLIC "-//W3C//DTD SVG 1.1//EN"
 "http://www.w3.org/Graphics/SVG/1.1/DTD/svg11.dtd">
<!-- Generated by graphviz version 2.38.0 (20140413.2041)
 -->
<!-- Title: ModuleUI.h Pages: 1 -->
<svg width="632pt" height="476pt"
 viewBox="0.00 0.00 631.50 476.00" xmlns="http://www.w3.org/2000/svg" xmlns:xlink="http://www.w3.org/1999/xlink">
<g id="graph0" class="graph" transform="scale(1 1) rotate(0) translate(4 472)">
<title>ModuleUI.h</title>
<polygon fill="white" stroke="none" points="-4,4 -4,-472 627.5,-472 627.5,4 -4,4"/>
<!-- Node1 -->
<g id="node1" class="node"><title>Node1</title>
<polygon fill="#bfbfbf" stroke="black" points="437,-448.5 437,-467.5 507,-467.5 507,-448.5 437,-448.5"/>
<text text-anchor="middle" x="472" y="-455.5" font-family="Helvetica Neue" font-size="10.00">ModuleUI.h</text>
</g>
<!-- Node2 -->
<g id="node2" class="node"><title>Node2</title>
<g id="a_node2"><a xlink:href="_module_processor_8h.html" target="_top" xlink:title="ModuleProcessor.h">
<polygon fill="white" stroke="black" points="354.5,-392.5 354.5,-411.5 461.5,-411.5 461.5,-392.5 354.5,-392.5"/>
<text text-anchor="middle" x="408" y="-399.5" font-family="Helvetica Neue" font-size="10.00">ModuleProcessor.h</text>
</a>
</g>
</g>
<!-- Node1&#45;&gt;Node2 -->
<g id="edge1" class="edge"><title>Node1&#45;&gt;Node2</title>
<path fill="none" stroke="midnightblue" d="M454.009,-441.82C442.542,-432.145 428.087,-419.948 418.47,-411.834"/>
<polygon fill="midnightblue" stroke="midnightblue" points="451.817,-444.55 461.717,-448.324 456.331,-439.2 451.817,-444.55"/>
</g>
<!-- Node21 -->
<g id="node21" class="node"><title>Node21</title>
<g id="a_node21"><a xlink:href="_module_u_i_8cpp.html" target="_top" xlink:title="ModuleUI.cpp">
<polygon fill="white" stroke="black" points="542.5,-336.5 542.5,-355.5 623.5,-355.5 623.5,-336.5 542.5,-336.5"/>
<text text-anchor="middle" x="583" y="-343.5" font-family="Helvetica Neue" font-size="10.00">ModuleUI.cpp</text>
</a>
</g>
</g>
<!-- Node1&#45;&gt;Node21 -->
<g id="edge25" class="edge"><title>Node1&#45;&gt;Node21</title>
<path fill="none" stroke="midnightblue" d="M487.938,-441.205C511.731,-417.627 555.725,-374.029 574.33,-355.591"/>
<polygon fill="midnightblue" stroke="midnightblue" points="485.349,-438.843 480.71,-448.368 490.277,-443.816 485.349,-438.843"/>
</g>
<!-- Node3 -->
<g id="node3" class="node"><title>Node3</title>
<g id="a_node3"><a xlink:href="_audio_engine_8h.html" target="_top" xlink:title="AudioEngine.h">
<polygon fill="white" stroke="black" points="81.5,-336.5 81.5,-355.5 166.5,-355.5 166.5,-336.5 81.5,-336.5"/>
<text text-anchor="middle" x="124" y="-343.5" font-family="Helvetica Neue" font-size="10.00">AudioEngine.h</text>
</a>
</g>
</g>
<!-- Node2&#45;&gt;Node3 -->
<g id="edge2" class="edge"><title>Node2&#45;&gt;Node3</title>
<path fill="none" stroke="midnightblue" d="M352.851,-390.514C298.504,-380.18 216.601,-364.607 166.931,-355.163"/>
<polygon fill="midnightblue" stroke="midnightblue" points="352.522,-394.014 362.999,-392.444 353.829,-387.137 352.522,-394.014"/>
</g>
<!-- Node10 -->
<g id="node10" class="node"><title>Node10</title>
<g id="a_node10"><a xlink:href="_gain_u_i_8h.html" target="_top" xlink:title="GainUI.h">
<polygon fill="white" stroke="black" points="196.5,-336.5 196.5,-355.5 253.5,-355.5 253.5,-336.5 196.5,-336.5"/>
<text text-anchor="middle" x="225" y="-343.5" font-family="Helvetica Neue" font-size="10.00">GainUI.h</text>
</a>
</g>
</g>
<!-- Node2&#45;&gt;Node10 -->
<g id="edge9" class="edge"><title>Node2&#45;&gt;Node10</title>
<path fill="none" stroke="midnightblue" d="M369.227,-389.559C334.595,-379.34 284.664,-364.606 253.56,-355.428"/>
<polygon fill="midnightblue" stroke="midnightblue" points="368.421,-392.97 379.003,-392.444 370.403,-386.256 368.421,-392.97"/>
</g>
<!-- Node15 -->
<g id="node15" class="node"><title>Node15</title>
<g id="a_node15"><a xlink:href="_impulse_u_i_8h.html" target="_top" xlink:title="ImpulseUI.h">
<polygon fill="white" stroke="black" points="282.5,-336.5 282.5,-355.5 355.5,-355.5 355.5,-336.5 282.5,-336.5"/>
<text text-anchor="middle" x="319" y="-343.5" font-family="Helvetica Neue" font-size="10.00">ImpulseUI.h</text>
</a>
</g>
</g>
<!-- Node2&#45;&gt;Node15 -->
<g id="edge15" class="edge"><title>Node2&#45;&gt;Node15</title>
<path fill="none" stroke="midnightblue" d="M384.762,-386.901C368.442,-376.999 347.135,-364.071 333.264,-355.655"/>
<polygon fill="midnightblue" stroke="midnightblue" points="383.336,-390.129 393.701,-392.324 386.967,-384.144 383.336,-390.129"/>
</g>
<!-- Node17 -->
<g id="node17" class="node"><title>Node17</title>
<g id="a_node17"><a xlink:href="_output_u_i_8h.html" target="_top" xlink:title="OutputUI.h">
<polygon fill="white" stroke="black" points="374,-336.5 374,-355.5 442,-355.5 442,-336.5 374,-336.5"/>
<text text-anchor="middle" x="408" y="-343.5" font-family="Helvetica Neue" font-size="10.00">OutputUI.h</text>
</a>
</g>
</g>
<!-- Node2&#45;&gt;Node17 -->
<g id="edge18" class="edge"><title>Node2&#45;&gt;Node17</title>
<path fill="none" stroke="midnightblue" d="M408,-381.805C408,-372.91 408,-362.78 408,-355.751"/>
<polygon fill="midnightblue" stroke="midnightblue" points="404.5,-382.083 408,-392.083 411.5,-382.083 404.5,-382.083"/>
</g>
<!-- Node19 -->
<g id="node19" class="node"><title>Node19</title>
<g id="a_node19"><a xlink:href="_string_u_i_8h.html" target="_top" xlink:title="StringUI.h">
<polygon fill="white" stroke="black" points="460,-336.5 460,-355.5 524,-355.5 524,-336.5 460,-336.5"/>
<text text-anchor="middle" x="492" y="-343.5" font-family="Helvetica Neue" font-size="10.00">StringUI.h</text>
</a>
</g>
</g>
<!-- Node2&#45;&gt;Node19 -->
<g id="edge21" class="edge"><title>Node2&#45;&gt;Node19</title>
<path fill="none" stroke="midnightblue" d="M429.932,-386.901C445.335,-376.999 465.446,-364.071 478.537,-355.655"/>
<polygon fill="midnightblue" stroke="midnightblue" points="428.015,-383.972 421.496,-392.324 431.801,-389.86 428.015,-383.972"/>
</g>
<!-- Node2&#45;&gt;Node21 -->
<g id="edge24" class="edge"><title>Node2&#45;&gt;Node21</title>
<path fill="none" stroke="midnightblue" d="M445.475,-389.436C478.47,-379.255 525.756,-364.664 555.4,-355.516"/>
<polygon fill="midnightblue" stroke="midnightblue" points="444.253,-386.151 435.729,-392.444 446.317,-392.839 444.253,-386.151"/>
</g>
<!-- Node4 -->
<g id="node4" class="node"><title>Node4</title>
<g id="a_node4"><a xlink:href="_audio_engine_8cpp.html" target="_top" xlink:title="AudioEngine.cpp">
<polygon fill="white" stroke="black" points="0,-280.5 0,-299.5 96,-299.5 96,-280.5 0,-280.5"/>
<text text-anchor="middle" x="48" y="-287.5" font-family="Helvetica Neue" font-size="10.00">AudioEngine.cpp</text>
</a>
</g>
</g>
<!-- Node3&#45;&gt;Node4 -->
<g id="edge3" class="edge"><title>Node3&#45;&gt;Node4</title>
<path fill="none" stroke="midnightblue" d="M103.424,-330.38C89.688,-320.62 72.0747,-308.106 60.4329,-299.834"/>
<polygon fill="midnightblue" stroke="midnightblue" points="101.61,-333.385 111.789,-336.324 105.665,-327.679 101.61,-333.385"/>
</g>
<!-- Node5 -->
<g id="node5" class="node"><title>Node5</title>
<g id="a_node5"><a xlink:href="_main_patcher_8h.html" target="_top" xlink:title="MainPatcher.h">
<polygon fill="white" stroke="black" points="127.5,-112.5 127.5,-131.5 210.5,-131.5 210.5,-112.5 127.5,-112.5"/>
<text text-anchor="middle" x="169" y="-119.5" font-family="Helvetica Neue" font-size="10.00">MainPatcher.h</text>
</a>
</g>
</g>
<!-- Node3&#45;&gt;Node5 -->
<g id="edge4" class="edge"><title>Node3&#45;&gt;Node5</title>
<path fill="none" stroke="midnightblue" d="M127.791,-326.295C137.045,-280.644 160.516,-164.854 167.199,-131.884"/>
<polygon fill="midnightblue" stroke="midnightblue" points="124.321,-325.801 125.764,-336.297 131.181,-327.192 124.321,-325.801"/>
</g>
<!-- Node6 -->
<g id="node6" class="node"><title>Node6</title>
<g id="a_node6"><a xlink:href="_main_component_8h.html" target="_top" xlink:title="MainComponent.h">
<polygon fill="white" stroke="black" points="58,-56.5 58,-75.5 162,-75.5 162,-56.5 58,-56.5"/>
<text text-anchor="middle" x="110" y="-63.5" font-family="Helvetica Neue" font-size="10.00">MainComponent.h</text>
</a>
</g>
</g>
<!-- Node5&#45;&gt;Node6 -->
<g id="edge5" class="edge"><title>Node5&#45;&gt;Node6</title>
<path fill="none" stroke="midnightblue" d="M152.105,-105.537C141.585,-95.9087 128.431,-83.8694 119.652,-75.8339"/>
<polygon fill="midnightblue" stroke="midnightblue" points="149.781,-108.154 159.521,-112.324 154.507,-102.99 149.781,-108.154"/>
</g>
<!-- Node9 -->
<g id="node9" class="node"><title>Node9</title>
<g id="a_node9"><a xlink:href="_main_patcher_8cpp.html" target="_top" xlink:title="MainPatcher.cpp">
<polygon fill="white" stroke="black" points="180.5,-56.5 180.5,-75.5 275.5,-75.5 275.5,-56.5 180.5,-56.5"/>
<text text-anchor="middle" x="228" y="-63.5" font-family="Helvetica Neue" font-size="10.00">MainPatcher.cpp</text>
</a>
</g>
</g>
<!-- Node5&#45;&gt;Node9 -->
<g id="edge8" class="edge"><title>Node5&#45;&gt;Node9</title>
<path fill="none" stroke="midnightblue" d="M185.895,-105.537C196.415,-95.9087 209.569,-83.8694 218.348,-75.8339"/>
<polygon fill="midnightblue" stroke="midnightblue" points="183.493,-102.99 178.479,-112.324 188.219,-108.154 183.493,-102.99"/>
</g>
<!-- Node7 -->
<g id="node7" class="node"><title>Node7</title>
<g id="a_node7"><a xlink:href="_main_8cpp.html" target="_top" xlink:title="Main.cpp">
<polygon fill="white" stroke="black" points="27.5,-0.5 27.5,-19.5 86.5,-19.5 86.5,-0.5 27.5,-0.5"/>
<text text-anchor="middle" x="57" y="-7.5" font-family="Helvetica Neue" font-size="10.00">Main.cpp</text>
</a>
</g>
</g>
<!-- Node6&#45;&gt;Node7 -->
<g id="edge6" class="edge"><title>Node6&#45;&gt;Node7</title>
<path fill="none" stroke="midnightblue" d="M94.0191,-48.7175C84.6775,-39.1997 73.2541,-27.5608 65.589,-19.7511"/>
<polygon fill="midnightblue" stroke="midnightblue" points="91.7455,-51.3978 101.248,-56.083 96.7413,-46.4945 91.7455,-51.3978"/>
</g>
<!-- Node8 -->
<g id="node8" class="node"><title>Node8</title>
<g id="a_node8"><a xlink:href="_main_component_8cpp.html" target="_top" xlink:title="MainComponent.cpp">
<polygon fill="white" stroke="black" points="105,-0.5 105,-19.5 221,-19.5 221,-0.5 105,-0.5"/>
<text text-anchor="middle" x="163" y="-7.5" font-family="Helvetica Neue" font-size="10.00">MainComponent.cpp</text>
</a>
</g>
</g>
<!-- Node6&#45;&gt;Node8 -->
<g id="edge7" class="edge"><title>Node6&#45;&gt;Node8</title>
<path fill="none" stroke="midnightblue" d="M125.981,-48.7175C135.322,-39.1997 146.746,-27.5608 154.411,-19.7511"/>
<polygon fill="midnightblue" stroke="midnightblue" points="123.259,-46.4945 118.752,-56.083 128.254,-51.3978 123.259,-46.4945"/>
</g>
<!-- Node11 -->
<g id="node11" class="node"><title>Node11</title>
<g id="a_node11"><a xlink:href="_gain_processor_8h.html" target="_top" xlink:title="GainProcessor.h">
<polygon fill="white" stroke="black" points="152,-280.5 152,-299.5 246,-299.5 246,-280.5 152,-280.5"/>
<text text-anchor="middle" x="199" y="-287.5" font-family="Helvetica Neue" font-size="10.00">GainProcessor.h</text>
</a>
</g>
</g>
<!-- Node10&#45;&gt;Node11 -->
<g id="edge10" class="edge"><title>Node10&#45;&gt;Node11</title>
<path fill="none" stroke="midnightblue" d="M216.325,-326.983C211.912,-317.817 206.748,-307.092 203.213,-299.751"/>
<polygon fill="midnightblue" stroke="midnightblue" points="213.215,-328.591 220.707,-336.083 219.522,-325.555 213.215,-328.591"/>
</g>
<!-- Node12 -->
<g id="node12" class="node"><title>Node12</title>
<g id="a_node12"><a xlink:href="_modules_8h.html" target="_top" xlink:title="Modules.h">
<polygon fill="white" stroke="black" points="286.5,-224.5 286.5,-243.5 351.5,-243.5 351.5,-224.5 286.5,-224.5"/>
<text text-anchor="middle" x="319" y="-231.5" font-family="Helvetica Neue" font-size="10.00">Modules.h</text>
</a>
</g>
</g>
<!-- Node11&#45;&gt;Node12 -->
<g id="edge11" class="edge"><title>Node11&#45;&gt;Node12</title>
<path fill="none" stroke="midnightblue" d="M227.373,-276.232C249.82,-266.131 280.535,-252.309 300.075,-243.516"/>
<polygon fill="midnightblue" stroke="midnightblue" points="225.697,-273.148 218.014,-280.444 228.57,-279.532 225.697,-273.148"/>
</g>
<!-- Node13 -->
<g id="node13" class="node"><title>Node13</title>
<g id="a_node13"><a xlink:href="_module_box_8h.html" target="_top" xlink:title="ModuleBox.h">
<polygon fill="white" stroke="black" points="257,-168.5 257,-187.5 335,-187.5 335,-168.5 257,-168.5"/>
<text text-anchor="middle" x="296" y="-175.5" font-family="Helvetica Neue" font-size="10.00">ModuleBox.h</text>
</a>
</g>
</g>
<!-- Node12&#45;&gt;Node13 -->
<g id="edge12" class="edge"><title>Node12&#45;&gt;Node13</title>
<path fill="none" stroke="midnightblue" d="M311.201,-214.69C307.325,-205.589 302.821,-195.014 299.727,-187.751"/>
<polygon fill="midnightblue" stroke="midnightblue" points="308.063,-216.254 315.202,-224.083 314.503,-213.511 308.063,-216.254"/>
</g>
<!-- Node13&#45;&gt;Node5 -->
<g id="edge13" class="edge"><title>Node13&#45;&gt;Node5</title>
<path fill="none" stroke="midnightblue" d="M266.609,-164.503C242.8,-154.38 209.894,-140.388 189.029,-131.516"/>
<polygon fill="midnightblue" stroke="midnightblue" points="265.304,-167.751 275.876,-168.444 268.043,-161.31 265.304,-167.751"/>
</g>
<!-- Node14 -->
<g id="node14" class="node"><title>Node14</title>
<g id="a_node14"><a xlink:href="_module_box_8cpp.html" target="_top" xlink:title="ModuleBox.cpp">
<polygon fill="white" stroke="black" points="251.5,-112.5 251.5,-131.5 340.5,-131.5 340.5,-112.5 251.5,-112.5"/>
<text text-anchor="middle" x="296" y="-119.5" font-family="Helvetica Neue" font-size="10.00">ModuleBox.cpp</text>
</a>
</g>
</g>
<!-- Node13&#45;&gt;Node14 -->
<g id="edge14" class="edge"><title>Node13&#45;&gt;Node14</title>
<path fill="none" stroke="midnightblue" d="M296,-157.805C296,-148.91 296,-138.78 296,-131.751"/>
<polygon fill="midnightblue" stroke="midnightblue" points="292.5,-158.083 296,-168.083 299.5,-158.083 292.5,-158.083"/>
</g>
<!-- Node16 -->
<g id="node16" class="node"><title>Node16</title>
<g id="a_node16"><a xlink:href="_impulse_processor_8h.html" target="_top" xlink:title="ImpulseProcessor.h">
<polygon fill="white" stroke="black" points="264,-280.5 264,-299.5 374,-299.5 374,-280.5 264,-280.5"/>
<text text-anchor="middle" x="319" y="-287.5" font-family="Helvetica Neue" font-size="10.00">ImpulseProcessor.h</text>
</a>
</g>
</g>
<!-- Node15&#45;&gt;Node16 -->
<g id="edge16" class="edge"><title>Node15&#45;&gt;Node16</title>
<path fill="none" stroke="midnightblue" d="M319,-325.805C319,-316.91 319,-306.78 319,-299.751"/>
<polygon fill="midnightblue" stroke="midnightblue" points="315.5,-326.083 319,-336.083 322.5,-326.083 315.5,-326.083"/>
</g>
<!-- Node16&#45;&gt;Node12 -->
<g id="edge17" class="edge"><title>Node16&#45;&gt;Node12</title>
<path fill="none" stroke="midnightblue" d="M319,-269.805C319,-260.91 319,-250.78 319,-243.751"/>
<polygon fill="midnightblue" stroke="midnightblue" points="315.5,-270.083 319,-280.083 322.5,-270.083 315.5,-270.083"/>
</g>
<!-- Node18 -->
<g id="node18" class="node"><title>Node18</title>
<g id="a_node18"><a xlink:href="_output_processor_8h.html" target="_top" xlink:title="OutputProcessor.h">
<polygon fill="white" stroke="black" points="392.5,-280.5 392.5,-299.5 497.5,-299.5 497.5,-280.5 392.5,-280.5"/>
<text text-anchor="middle" x="445" y="-287.5" font-family="Helvetica Neue" font-size="10.00">OutputProcessor.h</text>
</a>
</g>
</g>
<!-- Node17&#45;&gt;Node18 -->
<g id="edge19" class="edge"><title>Node17&#45;&gt;Node18</title>
<path fill="none" stroke="midnightblue" d="M419.946,-327.566C426.312,-318.275 433.867,-307.248 439.004,-299.751"/>
<polygon fill="midnightblue" stroke="midnightblue" points="416.875,-325.855 414.11,-336.083 422.649,-329.812 416.875,-325.855"/>
</g>
<!-- Node18&#45;&gt;Node12 -->
<g id="edge20" class="edge"><title>Node18&#45;&gt;Node12</title>
<path fill="none" stroke="midnightblue" d="M415.84,-276.503C392.219,-266.38 359.572,-252.388 338.872,-243.516"/>
<polygon fill="midnightblue" stroke="midnightblue" points="414.465,-279.721 425.035,-280.444 417.222,-273.287 414.465,-279.721"/>
</g>
<!-- Node20 -->
<g id="node20" class="node"><title>Node20</title>
<g id="a_node20"><a xlink:href="_string_processor_8h.html" target="_top" xlink:title="StringProcessor.h">
<polygon fill="white" stroke="black" points="515.5,-280.5 515.5,-299.5 616.5,-299.5 616.5,-280.5 515.5,-280.5"/>
<text text-anchor="middle" x="566" y="-287.5" font-family="Helvetica Neue" font-size="10.00">StringProcessor.h</text>
</a>
</g>
</g>
<!-- Node19&#45;&gt;Node20 -->
<g id="edge22" class="edge"><title>Node19&#45;&gt;Node20</title>
<path fill="none" stroke="midnightblue" d="M512.034,-330.38C525.409,-320.62 542.559,-308.106 553.894,-299.834"/>
<polygon fill="midnightblue" stroke="midnightblue" points="509.904,-327.602 503.889,-336.324 514.03,-333.257 509.904,-327.602"/>
</g>
<!-- Node20&#45;&gt;Node12 -->
<g id="edge23" class="edge"><title>Node20&#45;&gt;Node12</title>
<path fill="none" stroke="midnightblue" d="M516.796,-278.243C467.761,-267.523 393.857,-251.365 351.644,-242.137"/>
<polygon fill="midnightblue" stroke="midnightblue" points="516.345,-281.727 526.862,-280.444 517.84,-274.888 516.345,-281.727"/>
</g>
</g>
</svg>
