<?xml version="1.0" encoding="UTF-8" standalone="no"?>
<!DOCTYPE svg PUBLIC "-//W3C//DTD SVG 1.1//EN"
 "http://www.w3.org/Graphics/SVG/1.1/DTD/svg11.dtd">
<!-- Generated by graphviz version 2.38.0 (20140413.2041)
 -->
<!-- Title: ModuleBox.cpp Pages: 1 -->
<svg width="605pt" height="476pt"
 viewBox="0.00 0.00 605.00 476.00" xmlns="http://www.w3.org/2000/svg" xmlns:xlink="http://www.w3.org/1999/xlink">
<g id="graph0" class="graph" transform="scale(1 1) rotate(0) translate(4 472)">
<title>ModuleBox.cpp</title>
<polygon fill="white" stroke="none" points="-4,4 -4,-472 601,-472 601,4 -4,4"/>
<!-- Node1 -->
<g id="node1" class="node"><title>Node1</title>
<polygon fill="#bfbfbf" stroke="black" points="257.5,-448.5 257.5,-467.5 346.5,-467.5 346.5,-448.5 257.5,-448.5"/>
<text text-anchor="middle" x="302" y="-455.5" font-family="Helvetica Neue" font-size="10.00">ModuleBox.cpp</text>
</g>
<!-- Node2 -->
<g id="node2" class="node"><title>Node2</title>
<g id="a_node2"><a xlink:href="_module_box_8h.html" target="_top" xlink:title="ModuleBox.h">
<polygon fill="white" stroke="black" points="263,-392.5 263,-411.5 341,-411.5 341,-392.5 263,-392.5"/>
<text text-anchor="middle" x="302" y="-399.5" font-family="Helvetica Neue" font-size="10.00">ModuleBox.h</text>
</a>
</g>
</g>
<!-- Node1&#45;&gt;Node2 -->
<g id="edge1" class="edge"><title>Node1&#45;&gt;Node2</title>
<path fill="none" stroke="midnightblue" d="M302,-448.083C302,-441.006 302,-430.861 302,-421.986"/>
<polygon fill="midnightblue" stroke="midnightblue" points="305.5,-421.751 302,-411.751 298.5,-421.751 305.5,-421.751"/>
</g>
<!-- Node3 -->
<g id="node3" class="node"><title>Node3</title>
<g id="a_node3"><a xlink:href="_phi_colours_8h.html" target="_top" xlink:title="PhiColours.h">
<polygon fill="white" stroke="black" points="153,-336.5 153,-355.5 229,-355.5 229,-336.5 153,-336.5"/>
<text text-anchor="middle" x="191" y="-343.5" font-family="Helvetica Neue" font-size="10.00">PhiColours.h</text>
</a>
</g>
</g>
<!-- Node2&#45;&gt;Node3 -->
<g id="edge2" class="edge"><title>Node2&#45;&gt;Node3</title>
<path fill="none" stroke="midnightblue" d="M284.166,-392.324C266.284,-383.625 238.525,-370.12 217.954,-360.113"/>
<polygon fill="midnightblue" stroke="midnightblue" points="219.313,-356.882 208.79,-355.655 216.251,-363.177 219.313,-356.882"/>
</g>
<!-- Node4 -->
<g id="node4" class="node"><title>Node4</title>
<g id="a_node4"><a xlink:href="_modules_8h.html" target="_top" xlink:title="modules/Modules.h">
<polygon fill="white" stroke="black" points="247,-336.5 247,-355.5 357,-355.5 357,-336.5 247,-336.5"/>
<text text-anchor="middle" x="302" y="-343.5" font-family="Helvetica Neue" font-size="10.00">modules/Modules.h</text>
</a>
</g>
</g>
<!-- Node2&#45;&gt;Node4 -->
<g id="edge3" class="edge"><title>Node2&#45;&gt;Node4</title>
<path fill="none" stroke="midnightblue" d="M302,-392.083C302,-385.006 302,-374.861 302,-365.986"/>
<polygon fill="midnightblue" stroke="midnightblue" points="305.5,-365.751 302,-355.751 298.5,-365.751 305.5,-365.751"/>
</g>
<!-- Node20 -->
<g id="node20" class="node"><title>Node20</title>
<g id="a_node20"><a xlink:href="_phi_toggle_button_8h.html" target="_top" xlink:title="ui/PhiToggleButton.h">
<polygon fill="white" stroke="black" points="375.5,-336.5 375.5,-355.5 488.5,-355.5 488.5,-336.5 375.5,-336.5"/>
<text text-anchor="middle" x="432" y="-343.5" font-family="Helvetica Neue" font-size="10.00">ui/PhiToggleButton.h</text>
</a>
</g>
</g>
<!-- Node2&#45;&gt;Node20 -->
<g id="edge24" class="edge"><title>Node2&#45;&gt;Node20</title>
<path fill="none" stroke="midnightblue" d="M322.599,-392.444C343.993,-383.557 377.681,-369.563 402.024,-359.451"/>
<polygon fill="midnightblue" stroke="midnightblue" points="403.605,-362.585 411.497,-355.516 400.92,-356.12 403.605,-362.585"/>
</g>
<!-- Node5 -->
<g id="node5" class="node"><title>Node5</title>
<g id="a_node5"><a xlink:href="_gain_processor_8h.html" target="_top" xlink:title="Gain/GainProcessor.h">
<polygon fill="white" stroke="black" points="168.5,-280.5 168.5,-299.5 287.5,-299.5 287.5,-280.5 168.5,-280.5"/>
<text text-anchor="middle" x="228" y="-287.5" font-family="Helvetica Neue" font-size="10.00">Gain/GainProcessor.h</text>
</a>
</g>
</g>
<!-- Node4&#45;&gt;Node5 -->
<g id="edge4" class="edge"><title>Node4&#45;&gt;Node5</title>
<path fill="none" stroke="midnightblue" d="M290.111,-336.324C278.85,-328.107 261.713,-315.602 248.291,-305.807"/>
<polygon fill="midnightblue" stroke="midnightblue" points="250.247,-302.901 240.106,-299.834 246.12,-308.556 250.247,-302.901"/>
</g>
<!-- Node12 -->
<g id="node12" class="node"><title>Node12</title>
<g id="a_node12"><a xlink:href="_impulse_processor_8h.html" target="_top" xlink:title="Impulse/ImpulseProcessor.h">
<polygon fill="white" stroke="black" points="0,-280.5 0,-299.5 150,-299.5 150,-280.5 0,-280.5"/>
<text text-anchor="middle" x="75" y="-287.5" font-family="Helvetica Neue" font-size="10.00">Impulse/ImpulseProcessor.h</text>
</a>
</g>
</g>
<!-- Node4&#45;&gt;Node12 -->
<g id="edge11" class="edge"><title>Node4&#45;&gt;Node12</title>
<path fill="none" stroke="midnightblue" d="M266.031,-336.444C226.681,-327.083 163.513,-312.056 120.686,-301.868"/>
<polygon fill="midnightblue" stroke="midnightblue" points="121.339,-298.426 110.801,-299.516 119.719,-305.236 121.339,-298.426"/>
</g>
<!-- Node14 -->
<g id="node14" class="node"><title>Node14</title>
<g id="a_node14"><a xlink:href="_output_processor_8h.html" target="_top" xlink:title="Output/OutputProcessor.h">
<polygon fill="white" stroke="black" points="305.5,-280.5 305.5,-299.5 446.5,-299.5 446.5,-280.5 305.5,-280.5"/>
<text text-anchor="middle" x="376" y="-287.5" font-family="Helvetica Neue" font-size="10.00">Output/OutputProcessor.h</text>
</a>
</g>
</g>
<!-- Node4&#45;&gt;Node14 -->
<g id="edge15" class="edge"><title>Node4&#45;&gt;Node14</title>
<path fill="none" stroke="midnightblue" d="M313.889,-336.324C325.15,-328.107 342.287,-315.602 355.709,-305.807"/>
<polygon fill="midnightblue" stroke="midnightblue" points="357.88,-308.556 363.894,-299.834 353.753,-302.901 357.88,-308.556"/>
</g>
<!-- Node16 -->
<g id="node16" class="node"><title>Node16</title>
<g id="a_node16"><a xlink:href="_string_processor_8h.html" target="_top" xlink:title="String/StringProcessor.h">
<polygon fill="white" stroke="black" points="465,-280.5 465,-299.5 597,-299.5 597,-280.5 465,-280.5"/>
<text text-anchor="middle" x="531" y="-287.5" font-family="Helvetica Neue" font-size="10.00">String/StringProcessor.h</text>
</a>
</g>
</g>
<!-- Node4&#45;&gt;Node16 -->
<g id="edge18" class="edge"><title>Node4&#45;&gt;Node16</title>
<path fill="none" stroke="midnightblue" d="M338.286,-336.444C377.983,-327.083 441.707,-312.056 484.912,-301.868"/>
<polygon fill="midnightblue" stroke="midnightblue" points="485.954,-305.218 494.884,-299.516 484.348,-298.405 485.954,-305.218"/>
</g>
<!-- Node6 -->
<g id="node6" class="node"><title>Node6</title>
<g id="a_node6"><a xlink:href="_gain_u_i_8h.html" target="_top" xlink:title="GainUI.h">
<polygon fill="white" stroke="black" points="216.5,-224.5 216.5,-243.5 273.5,-243.5 273.5,-224.5 216.5,-224.5"/>
<text text-anchor="middle" x="245" y="-231.5" font-family="Helvetica Neue" font-size="10.00">GainUI.h</text>
</a>
</g>
</g>
<!-- Node5&#45;&gt;Node6 -->
<g id="edge5" class="edge"><title>Node5&#45;&gt;Node6</title>
<path fill="none" stroke="midnightblue" d="M230.807,-280.083C233.085,-272.849 236.371,-262.409 239.208,-253.397"/>
<polygon fill="midnightblue" stroke="midnightblue" points="242.581,-254.341 242.245,-243.751 235.904,-252.239 242.581,-254.341"/>
</g>
<!-- Node7 -->
<g id="node7" class="node"><title>Node7</title>
<g id="a_node7"><a xlink:href="_module_processor_8h.html" target="_top" xlink:title="../../ModuleProcessor.h">
<polygon fill="white" stroke="black" points="280.5,-168.5 280.5,-187.5 405.5,-187.5 405.5,-168.5 280.5,-168.5"/>
<text text-anchor="middle" x="343" y="-175.5" font-family="Helvetica Neue" font-size="10.00">../../ModuleProcessor.h</text>
</a>
</g>
</g>
<!-- Node6&#45;&gt;Node7 -->
<g id="edge6" class="edge"><title>Node6&#45;&gt;Node7</title>
<path fill="none" stroke="midnightblue" d="M260.745,-224.324C276.319,-215.743 300.377,-202.486 318.459,-192.522"/>
<polygon fill="midnightblue" stroke="midnightblue" points="320.224,-195.546 327.294,-187.655 316.846,-189.415 320.224,-195.546"/>
</g>
<!-- Node11 -->
<g id="node11" class="node"><title>Node11</title>
<g id="a_node11"><a xlink:href="_phi_dial_8h.html" target="_top" xlink:title="../../ui/PhiDial.h">
<polygon fill="white" stroke="black" points="175.5,-168.5 175.5,-187.5 262.5,-187.5 262.5,-168.5 175.5,-168.5"/>
<text text-anchor="middle" x="219" y="-175.5" font-family="Helvetica Neue" font-size="10.00">../../ui/PhiDial.h</text>
</a>
</g>
</g>
<!-- Node6&#45;&gt;Node11 -->
<g id="edge10" class="edge"><title>Node6&#45;&gt;Node11</title>
<path fill="none" stroke="midnightblue" d="M240.707,-224.083C237.148,-216.691 231.978,-205.953 227.576,-196.811"/>
<polygon fill="midnightblue" stroke="midnightblue" points="230.705,-195.243 223.213,-187.751 224.398,-198.279 230.705,-195.243"/>
</g>
<!-- Node8 -->
<g id="node8" class="node"><title>Node8</title>
<g id="a_node8"><a xlink:href="_module_u_i_8h.html" target="_top" xlink:title="ModuleUI.h">
<polygon fill="white" stroke="black" points="308,-112.5 308,-131.5 378,-131.5 378,-112.5 308,-112.5"/>
<text text-anchor="middle" x="343" y="-119.5" font-family="Helvetica Neue" font-size="10.00">ModuleUI.h</text>
</a>
</g>
</g>
<!-- Node7&#45;&gt;Node8 -->
<g id="edge7" class="edge"><title>Node7&#45;&gt;Node8</title>
<path fill="none" stroke="midnightblue" d="M343,-168.083C343,-161.006 343,-150.861 343,-141.986"/>
<polygon fill="midnightblue" stroke="midnightblue" points="346.5,-141.751 343,-131.751 339.5,-141.751 346.5,-141.751"/>
</g>
<!-- Node9 -->
<g id="node9" class="node"><title>Node9</title>
<g id="a_node9"><a xlink:href="_plug_8h.html" target="_top" xlink:title="Plug.h">
<polygon fill="white" stroke="black" points="320,-56.5 320,-75.5 366,-75.5 366,-56.5 320,-56.5"/>
<text text-anchor="middle" x="343" y="-63.5" font-family="Helvetica Neue" font-size="10.00">Plug.h</text>
</a>
</g>
</g>
<!-- Node8&#45;&gt;Node9 -->
<g id="edge8" class="edge"><title>Node8&#45;&gt;Node9</title>
<path fill="none" stroke="midnightblue" d="M343,-112.083C343,-105.006 343,-94.8611 343,-85.9865"/>
<polygon fill="midnightblue" stroke="midnightblue" points="346.5,-85.751 343,-75.7511 339.5,-85.7511 346.5,-85.751"/>
</g>
<!-- Node10 -->
<g id="node10" class="node"><title>Node10</title>
<g id="a_node10"><a xlink:href="_plug_handler_8h.html" target="_top" xlink:title="PlugHandler.h">
<polygon fill="white" stroke="black" points="301.5,-0.5 301.5,-19.5 384.5,-19.5 384.5,-0.5 301.5,-0.5"/>
<text text-anchor="middle" x="343" y="-7.5" font-family="Helvetica Neue" font-size="10.00">PlugHandler.h</text>
</a>
</g>
</g>
<!-- Node9&#45;&gt;Node10 -->
<g id="edge9" class="edge"><title>Node9&#45;&gt;Node10</title>
<path fill="none" stroke="midnightblue" d="M343,-56.083C343,-49.0059 343,-38.8611 343,-29.9865"/>
<polygon fill="midnightblue" stroke="midnightblue" points="346.5,-29.751 343,-19.7511 339.5,-29.7511 346.5,-29.751"/>
</g>
<!-- Node13 -->
<g id="node13" class="node"><title>Node13</title>
<g id="a_node13"><a xlink:href="_impulse_u_i_8h.html" target="_top" xlink:title="ImpulseUI.h">
<polygon fill="white" stroke="black" points="125.5,-224.5 125.5,-243.5 198.5,-243.5 198.5,-224.5 125.5,-224.5"/>
<text text-anchor="middle" x="162" y="-231.5" font-family="Helvetica Neue" font-size="10.00">ImpulseUI.h</text>
</a>
</g>
</g>
<!-- Node12&#45;&gt;Node13 -->
<g id="edge12" class="edge"><title>Node12&#45;&gt;Node13</title>
<path fill="none" stroke="midnightblue" d="M88.9781,-280.324C102.55,-271.9 123.38,-258.971 139.325,-249.074"/>
<polygon fill="midnightblue" stroke="midnightblue" points="141.406,-251.902 148.057,-243.655 137.714,-245.954 141.406,-251.902"/>
</g>
<!-- Node13&#45;&gt;Node7 -->
<g id="edge13" class="edge"><title>Node13&#45;&gt;Node7</title>
<path fill="none" stroke="midnightblue" d="M190.68,-224.444C221.527,-215.241 270.728,-200.562 304.829,-190.388"/>
<polygon fill="midnightblue" stroke="midnightblue" points="305.872,-193.729 314.454,-187.516 303.871,-187.021 305.872,-193.729"/>
</g>
<!-- Node13&#45;&gt;Node11 -->
<g id="edge14" class="edge"><title>Node13&#45;&gt;Node11</title>
<path fill="none" stroke="midnightblue" d="M171.158,-224.324C179.501,-216.42 192.032,-204.548 202.177,-194.938"/>
<polygon fill="midnightblue" stroke="midnightblue" points="204.823,-197.252 209.675,-187.834 200.009,-192.171 204.823,-197.252"/>
</g>
<!-- Node15 -->
<g id="node15" class="node"><title>Node15</title>
<g id="a_node15"><a xlink:href="_output_u_i_8h.html" target="_top" xlink:title="OutputUI.h">
<polygon fill="white" stroke="black" points="309,-224.5 309,-243.5 377,-243.5 377,-224.5 309,-224.5"/>
<text text-anchor="middle" x="343" y="-231.5" font-family="Helvetica Neue" font-size="10.00">OutputUI.h</text>
</a>
</g>
</g>
<!-- Node14&#45;&gt;Node15 -->
<g id="edge16" class="edge"><title>Node14&#45;&gt;Node15</title>
<path fill="none" stroke="midnightblue" d="M370.551,-280.083C365.986,-272.613 359.332,-261.724 353.707,-252.52"/>
<polygon fill="midnightblue" stroke="midnightblue" points="356.549,-250.459 348.348,-243.751 350.576,-254.109 356.549,-250.459"/>
</g>
<!-- Node15&#45;&gt;Node7 -->
<g id="edge17" class="edge"><title>Node15&#45;&gt;Node7</title>
<path fill="none" stroke="midnightblue" d="M343,-224.083C343,-217.006 343,-206.861 343,-197.986"/>
<polygon fill="midnightblue" stroke="midnightblue" points="346.5,-197.751 343,-187.751 339.5,-197.751 346.5,-197.751"/>
</g>
<!-- Node17 -->
<g id="node17" class="node"><title>Node17</title>
<g id="a_node17"><a xlink:href="_string_u_i_8h.html" target="_top" xlink:title="StringUI.h">
<polygon fill="white" stroke="black" points="499,-224.5 499,-243.5 563,-243.5 563,-224.5 499,-224.5"/>
<text text-anchor="middle" x="531" y="-231.5" font-family="Helvetica Neue" font-size="10.00">StringUI.h</text>
</a>
</g>
</g>
<!-- Node16&#45;&gt;Node17 -->
<g id="edge19" class="edge"><title>Node16&#45;&gt;Node17</title>
<path fill="none" stroke="midnightblue" d="M531,-280.083C531,-273.006 531,-262.861 531,-253.986"/>
<polygon fill="midnightblue" stroke="midnightblue" points="534.5,-253.751 531,-243.751 527.5,-253.751 534.5,-253.751"/>
</g>
<!-- Node19 -->
<g id="node19" class="node"><title>Node19</title>
<g id="a_node19"><a xlink:href="_d_s_p_utils_8h.html" target="_top" xlink:title="../../DSPUtils.h">
<polygon fill="white" stroke="black" points="395.5,-224.5 395.5,-243.5 480.5,-243.5 480.5,-224.5 395.5,-224.5"/>
<text text-anchor="middle" x="438" y="-231.5" font-family="Helvetica Neue" font-size="10.00">../../DSPUtils.h</text>
</a>
</g>
</g>
<!-- Node16&#45;&gt;Node19 -->
<g id="edge23" class="edge"><title>Node16&#45;&gt;Node19</title>
<path fill="none" stroke="midnightblue" d="M516.058,-280.324C501.415,-271.822 478.866,-258.729 461.762,-248.797"/>
<polygon fill="midnightblue" stroke="midnightblue" points="463.31,-245.649 452.905,-243.655 459.795,-251.703 463.31,-245.649"/>
</g>
<!-- Node17&#45;&gt;Node7 -->
<g id="edge20" class="edge"><title>Node17&#45;&gt;Node7</title>
<path fill="none" stroke="midnightblue" d="M501.211,-224.444C469.171,-215.241 418.067,-200.562 382.647,-190.388"/>
<polygon fill="midnightblue" stroke="midnightblue" points="383.227,-186.913 372.65,-187.516 381.295,-193.641 383.227,-186.913"/>
</g>
<!-- Node17&#45;&gt;Node11 -->
<g id="edge21" class="edge"><title>Node17&#45;&gt;Node11</title>
<path fill="none" stroke="midnightblue" d="M498.928,-225.964C495.58,-225.278 492.224,-224.611 489,-224 395.627,-206.296 369.492,-204.477 272.608,-188.256"/>
<polygon fill="midnightblue" stroke="midnightblue" points="273.131,-184.795 262.689,-186.587 271.969,-191.698 273.131,-184.795"/>
</g>
<!-- Node18 -->
<g id="node18" class="node"><title>Node18</title>
<g id="a_node18"><a xlink:href="_phi_slider_button_8h.html" target="_top" xlink:title="../../ui/PhiSliderButton.h">
<polygon fill="white" stroke="black" points="467,-168.5 467,-187.5 595,-187.5 595,-168.5 467,-168.5"/>
<text text-anchor="middle" x="531" y="-175.5" font-family="Helvetica Neue" font-size="10.00">../../ui/PhiSliderButton.h</text>
</a>
</g>
</g>
<!-- Node17&#45;&gt;Node18 -->
<g id="edge22" class="edge"><title>Node17&#45;&gt;Node18</title>
<path fill="none" stroke="midnightblue" d="M531,-224.083C531,-217.006 531,-206.861 531,-197.986"/>
<polygon fill="midnightblue" stroke="midnightblue" points="534.5,-197.751 531,-187.751 527.5,-197.751 534.5,-197.751"/>
</g>
</g>
</svg>
