<?xml version="1.0" encoding="UTF-8" standalone="no"?>
<!DOCTYPE svg PUBLIC "-//W3C//DTD SVG 1.1//EN"
 "http://www.w3.org/Graphics/SVG/1.1/DTD/svg11.dtd">
<!-- Generated by graphviz version 2.38.0 (20140413.2041)
 -->
<!-- Title: ModuleUI.cpp Pages: 1 -->
<svg width="144pt" height="252pt"
 viewBox="0.00 0.00 144.00 252.00" xmlns="http://www.w3.org/2000/svg" xmlns:xlink="http://www.w3.org/1999/xlink">
<g id="graph0" class="graph" transform="scale(1 1) rotate(0) translate(4 248)">
<title>ModuleUI.cpp</title>
<polygon fill="white" stroke="none" points="-4,4 -4,-248 140,-248 140,4 -4,4"/>
<!-- Node1 -->
<g id="node1" class="node"><title>Node1</title>
<polygon fill="#bfbfbf" stroke="black" points="1,-224.5 1,-243.5 82,-243.5 82,-224.5 1,-224.5"/>
<text text-anchor="middle" x="41.5" y="-231.5" font-family="Helvetica Neue" font-size="10.00">ModuleUI.cpp</text>
</g>
<!-- Node2 -->
<g id="node2" class="node"><title>Node2</title>
<g id="a_node2"><a xlink:href="_module_u_i_8h.html" target="_top" xlink:title="ModuleUI.h">
<polygon fill="white" stroke="black" points="6.5,-112.5 6.5,-131.5 76.5,-131.5 76.5,-112.5 6.5,-112.5"/>
<text text-anchor="middle" x="41.5" y="-119.5" font-family="Helvetica Neue" font-size="10.00">ModuleUI.h</text>
</a>
</g>
</g>
<!-- Node1&#45;&gt;Node2 -->
<g id="edge1" class="edge"><title>Node1&#45;&gt;Node2</title>
<path fill="none" stroke="midnightblue" d="M36.1159,-224.443C30.9438,-215.678 23.4876,-201.467 20.5,-188 16.8568,-171.578 23.6978,-153.399 30.5235,-140.452"/>
<polygon fill="midnightblue" stroke="midnightblue" points="33.6133,-142.1 35.5661,-131.686 27.5457,-138.609 33.6133,-142.1"/>
</g>
<!-- Node5 -->
<g id="node5" class="node"><title>Node5</title>
<g id="a_node5"><a xlink:href="_module_processor_8h.html" target="_top" xlink:title="ModuleProcessor.h">
<polygon fill="white" stroke="black" points="29,-168.5 29,-187.5 136,-187.5 136,-168.5 29,-168.5"/>
<text text-anchor="middle" x="82.5" y="-175.5" font-family="Helvetica Neue" font-size="10.00">ModuleProcessor.h</text>
</a>
</g>
</g>
<!-- Node1&#45;&gt;Node5 -->
<g id="edge4" class="edge"><title>Node1&#45;&gt;Node5</title>
<path fill="none" stroke="midnightblue" d="M48.2703,-224.083C54.0616,-216.455 62.5585,-205.264 69.6375,-195.941"/>
<polygon fill="midnightblue" stroke="midnightblue" points="72.5961,-197.832 75.8557,-187.751 67.021,-193.599 72.5961,-197.832"/>
</g>
<!-- Node3 -->
<g id="node3" class="node"><title>Node3</title>
<g id="a_node3"><a xlink:href="_plug_8h.html" target="_top" xlink:title="Plug.h">
<polygon fill="white" stroke="black" points="18.5,-56.5 18.5,-75.5 64.5,-75.5 64.5,-56.5 18.5,-56.5"/>
<text text-anchor="middle" x="41.5" y="-63.5" font-family="Helvetica Neue" font-size="10.00">Plug.h</text>
</a>
</g>
</g>
<!-- Node2&#45;&gt;Node3 -->
<g id="edge2" class="edge"><title>Node2&#45;&gt;Node3</title>
<path fill="none" stroke="midnightblue" d="M41.5,-112.083C41.5,-105.006 41.5,-94.8611 41.5,-85.9865"/>
<polygon fill="midnightblue" stroke="midnightblue" points="45.0001,-85.751 41.5,-75.7511 38.0001,-85.7511 45.0001,-85.751"/>
</g>
<!-- Node4 -->
<g id="node4" class="node"><title>Node4</title>
<g id="a_node4"><a xlink:href="_plug_handler_8h.html" target="_top" xlink:title="PlugHandler.h">
<polygon fill="white" stroke="black" points="0,-0.5 0,-19.5 83,-19.5 83,-0.5 0,-0.5"/>
<text text-anchor="middle" x="41.5" y="-7.5" font-family="Helvetica Neue" font-size="10.00">PlugHandler.h</text>
</a>
</g>
</g>
<!-- Node3&#45;&gt;Node4 -->
<g id="edge3" class="edge"><title>Node3&#45;&gt;Node4</title>
<path fill="none" stroke="midnightblue" d="M41.5,-56.083C41.5,-49.0059 41.5,-38.8611 41.5,-29.9865"/>
<polygon fill="midnightblue" stroke="midnightblue" points="45.0001,-29.751 41.5,-19.7511 38.0001,-29.7511 45.0001,-29.751"/>
</g>
<!-- Node5&#45;&gt;Node2 -->
<g id="edge5" class="edge"><title>Node5&#45;&gt;Node2</title>
<path fill="none" stroke="midnightblue" d="M75.7297,-168.083C69.9384,-160.455 61.4415,-149.264 54.3625,-139.941"/>
<polygon fill="midnightblue" stroke="midnightblue" points="56.979,-137.599 48.1443,-131.751 51.4039,-141.832 56.979,-137.599"/>
</g>
</g>
</svg>
