<?xml version="1.0" encoding="UTF-8" standalone="no"?>
<!DOCTYPE svg PUBLIC "-//W3C//DTD SVG 1.1//EN"
 "http://www.w3.org/Graphics/SVG/1.1/DTD/svg11.dtd">
<!-- Generated by graphviz version 2.43.0 (0)
 -->
<!-- Title: ModuleUI.h Pages: 1 -->
<svg width="1561pt" height="357pt"
 viewBox="0.00 0.00 1560.50 357.00" xmlns="http://www.w3.org/2000/svg" xmlns:xlink="http://www.w3.org/1999/xlink">
<g id="graph0" class="graph" transform="scale(1 1) rotate(0) translate(4 353)">
<title>ModuleUI.h</title>
<!-- Node1 -->
<g id="Node000001" class="node">
<title>Node1</title>
<g id="a_Node000001"><a xlink:title=" ">
<polygon fill="#999999" stroke="#666666" points="617.5,-349 545.5,-349 545.5,-330 617.5,-330 617.5,-349"/>
<text text-anchor="middle" x="581.5" y="-337" font-family="Helvetica Neue" font-size="10.00">ModuleUI.h</text>
</a>
</g>
</g>
<!-- Node2 -->
<g id="Node000002" class="node">
<title>Node2</title>
<g id="a_Node000002"><a xlink:href="_filter_u_i_8h.html" target="_top" xlink:title=" ">
<polygon fill="white" stroke="#666666" points="763,-294 702,-294 702,-275 763,-275 763,-294"/>
<text text-anchor="middle" x="732.5" y="-282" font-family="Helvetica Neue" font-size="10.00">FilterUI.h</text>
</a>
</g>
</g>
<!-- Node1&#45;&gt;Node2 -->
<g id="edge1_Node000001_Node000002" class="edge">
<title>Node1&#45;&gt;Node2</title>
<g id="a_edge1_Node000001_Node000002"><a xlink:title=" ">
<path fill="none" stroke="#63b8ff" d="M615.55,-326.55C643.59,-316.71 682.68,-302.98 707.8,-294.17"/>
<polygon fill="#63b8ff" stroke="#63b8ff" points="614.04,-323.37 605.76,-329.98 616.36,-329.98 614.04,-323.37"/>
</a>
</g>
</g>
<!-- Node12 -->
<g id="Node000012" class="node">
<title>Node12</title>
<g id="a_Node000012"><a xlink:href="_friction_u_i_8h.html" target="_top" xlink:title=" ">
<polygon fill="white" stroke="#666666" points="889.5,-294 817.5,-294 817.5,-275 889.5,-275 889.5,-294"/>
<text text-anchor="middle" x="853.5" y="-282" font-family="Helvetica Neue" font-size="10.00">FrictionUI.h</text>
</a>
</g>
</g>
<!-- Node1&#45;&gt;Node12 -->
<g id="edge13_Node000001_Node000012" class="edge">
<title>Node1&#45;&gt;Node12</title>
<g id="a_edge13_Node000001_Node000012"><a xlink:title=" ">
<path fill="none" stroke="#63b8ff" d="M627.53,-329.53C681.05,-319.1 768.28,-302.11 817.23,-292.57"/>
<polygon fill="#63b8ff" stroke="#63b8ff" points="626.77,-326.11 617.62,-331.46 628.1,-332.98 626.77,-326.11"/>
</a>
</g>
</g>
<!-- Node14 -->
<g id="Node000014" class="node">
<title>Node14</title>
<g id="a_Node000014"><a xlink:href="_gain_u_i_8h.html" target="_top" xlink:title=" ">
<polygon fill="white" stroke="#666666" points="80,-294 21,-294 21,-275 80,-275 80,-294"/>
<text text-anchor="middle" x="50.5" y="-282" font-family="Helvetica Neue" font-size="10.00">GainUI.h</text>
</a>
</g>
</g>
<!-- Node1&#45;&gt;Node14 -->
<g id="edge16_Node000001_Node000014" class="edge">
<title>Node1&#45;&gt;Node14</title>
<g id="a_edge16_Node000001_Node000014"><a xlink:title=" ">
<path fill="none" stroke="#63b8ff" d="M535.3,-333.89C428.8,-323.26 168.4,-297.27 80.24,-288.47"/>
<polygon fill="#63b8ff" stroke="#63b8ff" points="535.12,-337.39 545.42,-334.9 535.82,-330.42 535.12,-337.39"/>
</a>
</g>
</g>
<!-- Node16 -->
<g id="Node000016" class="node">
<title>Node16</title>
<g id="a_Node000016"><a xlink:href="_grit_u_i_8h.html" target="_top" xlink:title=" ">
<polygon fill="white" stroke="#666666" points="242.5,-294 188.5,-294 188.5,-275 242.5,-275 242.5,-294"/>
<text text-anchor="middle" x="215.5" y="-282" font-family="Helvetica Neue" font-size="10.00">GritUI.h</text>
</a>
</g>
</g>
<!-- Node1&#45;&gt;Node16 -->
<g id="edge19_Node000001_Node000016" class="edge">
<title>Node1&#45;&gt;Node16</title>
<g id="a_edge19_Node000001_Node000016"><a xlink:title=" ">
<path fill="none" stroke="#63b8ff" d="M535.48,-331.84C458.23,-320.65 304.85,-298.44 242.65,-289.43"/>
<polygon fill="#63b8ff" stroke="#63b8ff" points="535.01,-335.3 545.4,-333.27 536.01,-328.38 535.01,-335.3"/>
</a>
</g>
</g>
<!-- Node18 -->
<g id="Node000018" class="node">
<title>Node18</title>
<g id="a_Node000018"><a xlink:href="_impulse_u_i_8h.html" target="_top" xlink:title=" ">
<polygon fill="white" stroke="#666666" points="381,-294 306,-294 306,-275 381,-275 381,-294"/>
<text text-anchor="middle" x="343.5" y="-282" font-family="Helvetica Neue" font-size="10.00">ImpulseUI.h</text>
</a>
</g>
</g>
<!-- Node1&#45;&gt;Node18 -->
<g id="edge22_Node000001_Node000018" class="edge">
<title>Node1&#45;&gt;Node18</title>
<g id="a_edge22_Node000001_Node000018"><a xlink:title=" ">
<path fill="none" stroke="#63b8ff" d="M535.57,-328.27C490.64,-318.27 423.03,-303.21 381.17,-293.89"/>
<polygon fill="#63b8ff" stroke="#63b8ff" points="534.83,-331.69 545.35,-330.45 536.35,-324.86 534.83,-331.69"/>
</a>
</g>
</g>
<!-- Node20 -->
<g id="Node000020" class="node">
<title>Node20</title>
<g id="a_Node000020"><a xlink:href="_l_f_o_u_i_8h.html" target="_top" xlink:title=" ">
<polygon fill="white" stroke="#666666" points="476,-294 421,-294 421,-275 476,-275 476,-294"/>
<text text-anchor="middle" x="448.5" y="-282" font-family="Helvetica Neue" font-size="10.00">LFOUI.h</text>
</a>
</g>
</g>
<!-- Node1&#45;&gt;Node20 -->
<g id="edge25_Node000001_Node000020" class="edge">
<title>Node1&#45;&gt;Node20</title>
<g id="a_edge25_Node000001_Node000020"><a xlink:title=" ">
<path fill="none" stroke="#63b8ff" d="M550.53,-326.16C525.91,-316.35 492.09,-302.87 470.26,-294.17"/>
<polygon fill="#63b8ff" stroke="#63b8ff" points="549.55,-329.53 560.13,-329.98 552.14,-323.03 549.55,-329.53"/>
</a>
</g>
</g>
<!-- Node22 -->
<g id="Node000022" class="node">
<title>Node22</title>
<g id="a_Node000022"><a xlink:href="_module_box_8h.html" target="_top" xlink:title=" ">
<polygon fill="white" stroke="#666666" points="1175.5,-184 1095.5,-184 1095.5,-165 1175.5,-165 1175.5,-184"/>
<text text-anchor="middle" x="1135.5" y="-172" font-family="Helvetica Neue" font-size="10.00">ModuleBox.h</text>
</a>
</g>
</g>
<!-- Node1&#45;&gt;Node22 -->
<g id="edge28_Node000001_Node000022" class="edge">
<title>Node1&#45;&gt;Node22</title>
<g id="a_edge28_Node000001_Node000022"><a xlink:title=" ">
<path fill="none" stroke="#63b8ff" d="M627.84,-336.68C690.52,-333.17 805.19,-323.02 898.5,-294 988.99,-265.85 1087.31,-206.27 1122.26,-184.07"/>
<polygon fill="#63b8ff" stroke="#63b8ff" points="627.3,-333.2 617.5,-337.22 627.67,-340.19 627.3,-333.2"/>
</a>
</g>
</g>
<!-- Node24 -->
<g id="Node000024" class="node">
<title>Node24</title>
<g id="a_Node000024"><a xlink:href="_output_u_i_8h.html" target="_top" xlink:title=" ">
<polygon fill="white" stroke="#666666" points="574,-294 505,-294 505,-275 574,-275 574,-294"/>
<text text-anchor="middle" x="539.5" y="-282" font-family="Helvetica Neue" font-size="10.00">OutputUI.h</text>
</a>
</g>
</g>
<!-- Node1&#45;&gt;Node24 -->
<g id="edge31_Node000001_Node000024" class="edge">
<title>Node1&#45;&gt;Node24</title>
<g id="a_edge31_Node000001_Node000024"><a xlink:title=" ">
<path fill="none" stroke="#63b8ff" d="M568.17,-321.67C560.89,-312.5 552.2,-301.52 546.31,-294.09"/>
<polygon fill="#63b8ff" stroke="#63b8ff" points="565.61,-324.08 574.56,-329.75 571.1,-319.74 565.61,-324.08"/>
</a>
</g>
</g>
<!-- Node26 -->
<g id="Node000026" class="node">
<title>Node26</title>
<g id="a_Node000026"><a xlink:href="_state_8h.html" target="_top" xlink:title=" ">
<polygon fill="white" stroke="#666666" points="1207,-294 1156,-294 1156,-275 1207,-275 1207,-294"/>
<text text-anchor="middle" x="1181.5" y="-282" font-family="Helvetica Neue" font-size="10.00">State.h</text>
</a>
</g>
</g>
<!-- Node1&#45;&gt;Node26 -->
<g id="edge34_Node000001_Node000026" class="edge">
<title>Node1&#45;&gt;Node26</title>
<g id="a_edge34_Node000001_Node000026"><a xlink:title=" ">
<path fill="none" stroke="#63b8ff" d="M627.97,-334.39C747.68,-323.82 1063.64,-295.91 1155.88,-287.76"/>
<polygon fill="#63b8ff" stroke="#63b8ff" points="627.33,-330.94 617.68,-335.3 627.95,-337.91 627.33,-330.94"/>
</a>
</g>
</g>
<!-- Node33 -->
<g id="Node000033" class="node">
<title>Node33</title>
<g id="a_Node000033"><a xlink:href="_string_u_i_8h.html" target="_top" xlink:title=" ">
<polygon fill="white" stroke="#666666" points="663,-294 598,-294 598,-275 663,-275 663,-294"/>
<text text-anchor="middle" x="630.5" y="-282" font-family="Helvetica Neue" font-size="10.00">StringUI.h</text>
</a>
</g>
</g>
<!-- Node1&#45;&gt;Node33 -->
<g id="edge51_Node000001_Node000033" class="edge">
<title>Node1&#45;&gt;Node33</title>
<g id="a_edge51_Node000001_Node000033"><a xlink:title=" ">
<path fill="none" stroke="#63b8ff" d="M596.53,-322.24C605.12,-312.95 615.54,-301.68 622.56,-294.09"/>
<polygon fill="#63b8ff" stroke="#63b8ff" points="593.81,-320.03 589.59,-329.75 598.95,-324.78 593.81,-320.03"/>
</a>
</g>
</g>
<!-- Node3 -->
<g id="Node000003" class="node">
<title>Node3</title>
<g id="a_Node000003"><a xlink:href="_filter_processor_8h.html" target="_top" xlink:title=" ">
<polygon fill="white" stroke="#666666" points="799,-239 702,-239 702,-220 799,-220 799,-239"/>
<text text-anchor="middle" x="750.5" y="-227" font-family="Helvetica Neue" font-size="10.00">FilterProcessor.h</text>
</a>
</g>
</g>
<!-- Node2&#45;&gt;Node3 -->
<g id="edge2_Node000002_Node000003" class="edge">
<title>Node2&#45;&gt;Node3</title>
<g id="a_edge2_Node000002_Node000003"><a xlink:title=" ">
<path fill="none" stroke="#63b8ff" d="M738.7,-265.24C741.71,-256.37 745.19,-246.14 747.58,-239.09"/>
<polygon fill="#63b8ff" stroke="#63b8ff" points="735.37,-264.15 735.47,-274.75 742,-266.4 735.37,-264.15"/>
</a>
</g>
</g>
<!-- Node4 -->
<g id="Node000004" class="node">
<title>Node4</title>
<g id="a_Node000004"><a xlink:href="_modules_8h.html" target="_top" xlink:title=" ">
<polygon fill="white" stroke="#666666" points="607,-184 540,-184 540,-165 607,-165 607,-184"/>
<text text-anchor="middle" x="573.5" y="-172" font-family="Helvetica Neue" font-size="10.00">Modules.h</text>
</a>
</g>
</g>
<!-- Node3&#45;&gt;Node4 -->
<g id="edge3_Node000003_Node000004" class="edge">
<title>Node3&#45;&gt;Node4</title>
<g id="a_edge3_Node000003_Node000004"><a xlink:title=" ">
<path fill="none" stroke="#63b8ff" d="M712.28,-217.06C679.2,-207.15 632.09,-193.04 602.16,-184.08"/>
<polygon fill="#63b8ff" stroke="#63b8ff" points="711.48,-220.47 722.06,-219.98 713.49,-213.76 711.48,-220.47"/>
</a>
</g>
</g>
<!-- Node5 -->
<g id="Node000005" class="node">
<title>Node5</title>
<g id="a_Node000005"><a xlink:href="_patcher_8h.html" target="_top" xlink:title=" ">
<polygon fill="white" stroke="#666666" points="1095,-129 1034,-129 1034,-110 1095,-110 1095,-129"/>
<text text-anchor="middle" x="1064.5" y="-117" font-family="Helvetica Neue" font-size="10.00">Patcher.h</text>
</a>
</g>
</g>
<!-- Node4&#45;&gt;Node5 -->
<g id="edge4_Node000004_Node000005" class="edge">
<title>Node4&#45;&gt;Node5</title>
<g id="a_edge4_Node000004_Node000005"><a xlink:title=" ">
<path fill="none" stroke="#63b8ff" d="M617.39,-168.76C715.3,-158.19 949.52,-132.91 1033.71,-123.82"/>
<polygon fill="#63b8ff" stroke="#63b8ff" points="616.82,-165.3 607.25,-169.86 617.57,-172.26 616.82,-165.3"/>
</a>
</g>
</g>
<!-- Node11 -->
<g id="Node000011" class="node">
<title>Node11</title>
<g id="a_Node000011"><a xlink:href="_state_8cpp.html" target="_top" xlink:title=" ">
<polygon fill="white" stroke="#666666" points="780.5,-129 718.5,-129 718.5,-110 780.5,-110 780.5,-129"/>
<text text-anchor="middle" x="749.5" y="-117" font-family="Helvetica Neue" font-size="10.00">State.cpp</text>
</a>
</g>
</g>
<!-- Node4&#45;&gt;Node11 -->
<g id="edge12_Node000004_Node000011" class="edge">
<title>Node4&#45;&gt;Node11</title>
<g id="a_edge12_Node000004_Node000011"><a xlink:title=" ">
<path fill="none" stroke="#63b8ff" d="M611.5,-162.06C644.4,-152.15 691.24,-138.04 721,-129.08"/>
<polygon fill="#63b8ff" stroke="#63b8ff" points="610.34,-158.75 601.78,-164.98 612.36,-165.45 610.34,-158.75"/>
</a>
</g>
</g>
<!-- Node6 -->
<g id="Node000006" class="node">
<title>Node6</title>
<g id="a_Node000006"><a xlink:href="_connections_8cpp.html" target="_top" xlink:title=" ">
<polygon fill="white" stroke="#666666" points="1093,-19 996,-19 996,0 1093,0 1093,-19"/>
<text text-anchor="middle" x="1044.5" y="-7" font-family="Helvetica Neue" font-size="10.00">Connections.cpp</text>
</a>
</g>
</g>
<!-- Node5&#45;&gt;Node6 -->
<g id="edge5_Node000005_Node000006" class="edge">
<title>Node5&#45;&gt;Node6</title>
<g id="a_edge5_Node000005_Node000006"><a xlink:title=" ">
<path fill="none" stroke="#63b8ff" d="M1061.04,-99.8C1056.67,-76.2 1049.33,-36.58 1046.1,-19.16"/>
<polygon fill="#63b8ff" stroke="#63b8ff" points="1057.6,-100.47 1062.86,-109.66 1064.48,-99.19 1057.6,-100.47"/>
</a>
</g>
</g>
<!-- Node7 -->
<g id="Node000007" class="node">
<title>Node7</title>
<g id="a_Node000007"><a xlink:href="_main_component_8h.html" target="_top" xlink:title=" ">
<polygon fill="white" stroke="#666666" points="1309.5,-74 1203.5,-74 1203.5,-55 1309.5,-55 1309.5,-74"/>
<text text-anchor="middle" x="1256.5" y="-62" font-family="Helvetica Neue" font-size="10.00">MainComponent.h</text>
</a>
</g>
</g>
<!-- Node5&#45;&gt;Node7 -->
<g id="edge6_Node000005_Node000007" class="edge">
<title>Node5&#45;&gt;Node7</title>
<g id="a_edge6_Node000005_Node000007"><a xlink:title=" ">
<path fill="none" stroke="#63b8ff" d="M1105.03,-107.31C1140.96,-97.39 1192.66,-83.12 1225.41,-74.08"/>
<polygon fill="#63b8ff" stroke="#63b8ff" points="1104.06,-103.95 1095.35,-109.98 1105.92,-110.7 1104.06,-103.95"/>
</a>
</g>
</g>
<!-- Node10 -->
<g id="Node000010" class="node">
<title>Node10</title>
<g id="a_Node000010"><a xlink:href="_patcher_8cpp.html" target="_top" xlink:title=" ">
<polygon fill="white" stroke="#666666" points="1183.5,-19 1111.5,-19 1111.5,0 1183.5,0 1183.5,-19"/>
<text text-anchor="middle" x="1147.5" y="-7" font-family="Helvetica Neue" font-size="10.00">Patcher.cpp</text>
</a>
</g>
</g>
<!-- Node5&#45;&gt;Node10 -->
<g id="edge11_Node000005_Node000010" class="edge">
<title>Node5&#45;&gt;Node10</title>
<g id="a_edge11_Node000005_Node000010"><a xlink:title=" ">
<path fill="none" stroke="#63b8ff" d="M1077.42,-101.69C1095.34,-78.37 1127.1,-37.05 1140.85,-19.16"/>
<polygon fill="#63b8ff" stroke="#63b8ff" points="1074.61,-99.6 1071.29,-109.66 1080.16,-103.87 1074.61,-99.6"/>
</a>
</g>
</g>
<!-- Node7&#45;&gt;Node6 -->
<g id="edge7_Node000007_Node000006" class="edge">
<title>Node7&#45;&gt;Node6</title>
<g id="a_edge7_Node000007_Node000006"><a xlink:title=" ">
<path fill="none" stroke="#63b8ff" d="M1212.5,-52.5C1172.81,-42.58 1115.22,-28.18 1078.83,-19.08"/>
<polygon fill="#63b8ff" stroke="#63b8ff" points="1211.89,-55.95 1222.44,-54.98 1213.59,-49.16 1211.89,-55.95"/>
</a>
</g>
</g>
<!-- Node8 -->
<g id="Node000008" class="node">
<title>Node8</title>
<g id="a_Node000008"><a xlink:href="_main_8cpp.html" target="_top" xlink:title=" ">
<polygon fill="white" stroke="#666666" points="1414,-19 1353,-19 1353,0 1414,0 1414,-19"/>
<text text-anchor="middle" x="1383.5" y="-7" font-family="Helvetica Neue" font-size="10.00">Main.cpp</text>
</a>
</g>
</g>
<!-- Node7&#45;&gt;Node8 -->
<g id="edge8_Node000007_Node000008" class="edge">
<title>Node7&#45;&gt;Node8</title>
<g id="a_edge8_Node000007_Node000008"><a xlink:title=" ">
<path fill="none" stroke="#63b8ff" d="M1286.38,-51.03C1309.87,-41.23 1341.97,-27.83 1362.72,-19.17"/>
<polygon fill="#63b8ff" stroke="#63b8ff" points="1284.79,-47.9 1276.9,-54.98 1287.48,-54.36 1284.79,-47.9"/>
</a>
</g>
</g>
<!-- Node9 -->
<g id="Node000009" class="node">
<title>Node9</title>
<g id="a_Node000009"><a xlink:href="_main_component_8cpp.html" target="_top" xlink:title=" ">
<polygon fill="white" stroke="#666666" points="1319,-19 1202,-19 1202,0 1319,0 1319,-19"/>
<text text-anchor="middle" x="1260.5" y="-7" font-family="Helvetica Neue" font-size="10.00">MainComponent.cpp</text>
</a>
</g>
</g>
<!-- Node7&#45;&gt;Node9 -->
<g id="edge9_Node000007_Node000009" class="edge">
<title>Node7&#45;&gt;Node9</title>
<g id="a_edge9_Node000007_Node000009"><a xlink:title=" ">
<path fill="none" stroke="#63b8ff" d="M1257.92,-44.66C1258.58,-35.93 1259.33,-25.99 1259.85,-19.09"/>
<polygon fill="#63b8ff" stroke="#63b8ff" points="1254.42,-44.51 1257.16,-54.75 1261.4,-45.04 1254.42,-44.51"/>
</a>
</g>
</g>
<!-- Node7&#45;&gt;Node10 -->
<g id="edge10_Node000007_Node000010" class="edge">
<title>Node7&#45;&gt;Node10</title>
<g id="a_edge10_Node000007_Node000010"><a xlink:title=" ">
<path fill="none" stroke="#63b8ff" d="M1229.77,-50.5C1209.71,-40.75 1182.82,-27.68 1165.33,-19.17"/>
<polygon fill="#63b8ff" stroke="#63b8ff" points="1228.46,-53.76 1238.99,-54.98 1231.52,-47.46 1228.46,-53.76"/>
</a>
</g>
</g>
<!-- Node13 -->
<g id="Node000013" class="node">
<title>Node13</title>
<g id="a_Node000013"><a xlink:href="_friction_processor_8h.html" target="_top" xlink:title=" ">
<polygon fill="white" stroke="#666666" points="925.5,-239 817.5,-239 817.5,-220 925.5,-220 925.5,-239"/>
<text text-anchor="middle" x="871.5" y="-227" font-family="Helvetica Neue" font-size="10.00">FrictionProcessor.h</text>
</a>
</g>
</g>
<!-- Node12&#45;&gt;Node13 -->
<g id="edge14_Node000012_Node000013" class="edge">
<title>Node12&#45;&gt;Node13</title>
<g id="a_edge14_Node000012_Node000013"><a xlink:title=" ">
<path fill="none" stroke="#63b8ff" d="M859.7,-265.24C862.71,-256.37 866.19,-246.14 868.58,-239.09"/>
<polygon fill="#63b8ff" stroke="#63b8ff" points="856.37,-264.15 856.47,-274.75 863,-266.4 856.37,-264.15"/>
</a>
</g>
</g>
<!-- Node13&#45;&gt;Node4 -->
<g id="edge15_Node000013_Node000004" class="edge">
<title>Node13&#45;&gt;Node4</title>
<g id="a_edge15_Node000013_Node000004"><a xlink:title=" ">
<path fill="none" stroke="#63b8ff" d="M813.7,-218.22C752.38,-207.31 657.56,-190.45 607.36,-181.52"/>
<polygon fill="#63b8ff" stroke="#63b8ff" points="813.16,-221.68 823.62,-219.98 814.39,-214.79 813.16,-221.68"/>
</a>
</g>
</g>
<!-- Node15 -->
<g id="Node000015" class="node">
<title>Node15</title>
<g id="a_Node000015"><a xlink:href="_gain_processor_8h.html" target="_top" xlink:title=" ">
<polygon fill="white" stroke="#666666" points="95,-239 0,-239 0,-220 95,-220 95,-239"/>
<text text-anchor="middle" x="47.5" y="-227" font-family="Helvetica Neue" font-size="10.00">GainProcessor.h</text>
</a>
</g>
</g>
<!-- Node14&#45;&gt;Node15 -->
<g id="edge17_Node000014_Node000015" class="edge">
<title>Node14&#45;&gt;Node15</title>
<g id="a_edge17_Node000014_Node000015"><a xlink:title=" ">
<path fill="none" stroke="#63b8ff" d="M49.43,-264.66C48.94,-255.93 48.38,-245.99 47.99,-239.09"/>
<polygon fill="#63b8ff" stroke="#63b8ff" points="45.94,-264.96 50,-274.75 52.93,-264.57 45.94,-264.96"/>
</a>
</g>
</g>
<!-- Node15&#45;&gt;Node4 -->
<g id="edge18_Node000015_Node000004" class="edge">
<title>Node15&#45;&gt;Node4</title>
<g id="a_edge18_Node000015_Node000004"><a xlink:title=" ">
<path fill="none" stroke="#63b8ff" d="M105.18,-219.99C274.87,-199.53 464.28,-183.98 539.88,-178.07"/>
<polygon fill="#63b8ff" stroke="#63b8ff" points="104.57,-216.53 95.06,-221.21 105.41,-223.48 104.57,-216.53"/>
</a>
</g>
</g>
<!-- Node17 -->
<g id="Node000017" class="node">
<title>Node17</title>
<g id="a_Node000017"><a xlink:href="_grit_processor_8h.html" target="_top" xlink:title=" ">
<polygon fill="white" stroke="#666666" points="203.5,-239 113.5,-239 113.5,-220 203.5,-220 203.5,-239"/>
<text text-anchor="middle" x="158.5" y="-227" font-family="Helvetica Neue" font-size="10.00">GritProcessor.h</text>
</a>
</g>
</g>
<!-- Node16&#45;&gt;Node17 -->
<g id="edge20_Node000016_Node000017" class="edge">
<title>Node16&#45;&gt;Node17</title>
<g id="a_edge20_Node000016_Node000017"><a xlink:title=" ">
<path fill="none" stroke="#63b8ff" d="M198.88,-268.04C188.77,-258.64 176.22,-246.98 167.82,-239.17"/>
<polygon fill="#63b8ff" stroke="#63b8ff" points="196.64,-270.74 206.34,-274.98 201.4,-265.61 196.64,-270.74"/>
</a>
</g>
</g>
<!-- Node17&#45;&gt;Node4 -->
<g id="edge21_Node000017_Node000004" class="edge">
<title>Node17&#45;&gt;Node4</title>
<g id="a_edge21_Node000017_Node000004"><a xlink:title=" ">
<path fill="none" stroke="#63b8ff" d="M213.19,-220.04C213.3,-220.03 213.4,-220.01 213.5,-220 333.26,-203.35 475.88,-186.64 539.71,-179.33"/>
<polygon fill="#63b8ff" stroke="#63b8ff" points="212.91,-216.55 203.51,-221.43 213.9,-223.48 212.91,-216.55"/>
</a>
</g>
</g>
<!-- Node19 -->
<g id="Node000019" class="node">
<title>Node19</title>
<g id="a_Node000019"><a xlink:href="_impulse_processor_8h.html" target="_top" xlink:title=" ">
<polygon fill="white" stroke="#666666" points="333,-239 222,-239 222,-220 333,-220 333,-239"/>
<text text-anchor="middle" x="277.5" y="-227" font-family="Helvetica Neue" font-size="10.00">ImpulseProcessor.h</text>
</a>
</g>
</g>
<!-- Node18&#45;&gt;Node19 -->
<g id="edge23_Node000018_Node000019" class="edge">
<title>Node18&#45;&gt;Node19</title>
<g id="a_edge23_Node000018_Node000019"><a xlink:title=" ">
<path fill="none" stroke="#63b8ff" d="M324.95,-268.6C313.12,-259.11 298.21,-247.13 288.3,-239.17"/>
<polygon fill="#63b8ff" stroke="#63b8ff" points="322.91,-271.45 332.9,-274.98 327.29,-265.99 322.91,-271.45"/>
</a>
</g>
</g>
<!-- Node19&#45;&gt;Node4 -->
<g id="edge24_Node000019_Node000004" class="edge">
<title>Node19&#45;&gt;Node4</title>
<g id="a_edge24_Node000019_Node000004"><a xlink:title=" ">
<path fill="none" stroke="#63b8ff" d="M334.91,-218.22C395.82,-207.31 490.01,-190.45 539.87,-181.52"/>
<polygon fill="#63b8ff" stroke="#63b8ff" points="334.28,-214.78 325.06,-219.98 335.52,-221.67 334.28,-214.78"/>
</a>
</g>
</g>
<!-- Node21 -->
<g id="Node000021" class="node">
<title>Node21</title>
<g id="a_Node000021"><a xlink:href="_l_f_o_processor_8h.html" target="_top" xlink:title=" ">
<polygon fill="white" stroke="#666666" points="442,-239 351,-239 351,-220 442,-220 442,-239"/>
<text text-anchor="middle" x="396.5" y="-227" font-family="Helvetica Neue" font-size="10.00">LFOProcessor.h</text>
</a>
</g>
</g>
<!-- Node20&#45;&gt;Node21 -->
<g id="edge26_Node000020_Node000021" class="edge">
<title>Node20&#45;&gt;Node21</title>
<g id="a_edge26_Node000020_Node000021"><a xlink:title=" ">
<path fill="none" stroke="#63b8ff" d="M432.82,-267.52C423.66,-258.18 412.45,-246.75 404.93,-239.09"/>
<polygon fill="#63b8ff" stroke="#63b8ff" points="430.41,-270.06 439.91,-274.75 435.41,-265.16 430.41,-270.06"/>
</a>
</g>
</g>
<!-- Node21&#45;&gt;Node4 -->
<g id="edge27_Node000021_Node000004" class="edge">
<title>Node21&#45;&gt;Node4</title>
<g id="a_edge27_Node000021_Node000004"><a xlink:title=" ">
<path fill="none" stroke="#63b8ff" d="M434.72,-217.06C467.8,-207.15 514.91,-193.04 544.84,-184.08"/>
<polygon fill="#63b8ff" stroke="#63b8ff" points="433.51,-213.76 424.94,-219.98 435.52,-220.47 433.51,-213.76"/>
</a>
</g>
</g>
<!-- Node22&#45;&gt;Node5 -->
<g id="edge30_Node000022_Node000005" class="edge">
<title>Node22&#45;&gt;Node5</title>
<g id="a_edge30_Node000022_Node000005"><a xlink:title=" ">
<path fill="none" stroke="#63b8ff" d="M1115.91,-158.88C1103.13,-149.34 1086.89,-137.21 1076.11,-129.17"/>
<polygon fill="#63b8ff" stroke="#63b8ff" points="1113.99,-161.81 1124.09,-164.98 1118.17,-156.2 1113.99,-161.81"/>
</a>
</g>
</g>
<!-- Node23 -->
<g id="Node000023" class="node">
<title>Node23</title>
<g id="a_Node000023"><a xlink:href="_module_box_8cpp.html" target="_top" xlink:title=" ">
<polygon fill="white" stroke="#666666" points="1205.5,-129 1113.5,-129 1113.5,-110 1205.5,-110 1205.5,-129"/>
<text text-anchor="middle" x="1159.5" y="-117" font-family="Helvetica Neue" font-size="10.00">ModuleBox.cpp</text>
</a>
</g>
</g>
<!-- Node22&#45;&gt;Node23 -->
<g id="edge29_Node000022_Node000023" class="edge">
<title>Node22&#45;&gt;Node23</title>
<g id="a_edge29_Node000022_Node000023"><a xlink:title=" ">
<path fill="none" stroke="#63b8ff" d="M1143.64,-155.53C1147.68,-146.6 1152.38,-136.22 1155.61,-129.09"/>
<polygon fill="#63b8ff" stroke="#63b8ff" points="1140.4,-154.19 1139.46,-164.75 1146.78,-157.08 1140.4,-154.19"/>
</a>
</g>
</g>
<!-- Node25 -->
<g id="Node000025" class="node">
<title>Node25</title>
<g id="a_Node000025"><a xlink:href="_output_processor_8h.html" target="_top" xlink:title=" ">
<polygon fill="white" stroke="#666666" points="565,-239 460,-239 460,-220 565,-220 565,-239"/>
<text text-anchor="middle" x="512.5" y="-227" font-family="Helvetica Neue" font-size="10.00">OutputProcessor.h</text>
</a>
</g>
</g>
<!-- Node24&#45;&gt;Node25 -->
<g id="edge32_Node000024_Node000025" class="edge">
<title>Node24&#45;&gt;Node25</title>
<g id="a_edge32_Node000024_Node000025"><a xlink:title=" ">
<path fill="none" stroke="#63b8ff" d="M530.49,-265.82C525.91,-256.82 520.55,-246.29 516.88,-239.09"/>
<polygon fill="#63b8ff" stroke="#63b8ff" points="527.38,-267.43 535.04,-274.75 533.62,-264.25 527.38,-267.43"/>
</a>
</g>
</g>
<!-- Node25&#45;&gt;Node4 -->
<g id="edge33_Node000025_Node000004" class="edge">
<title>Node25&#45;&gt;Node4</title>
<g id="a_edge33_Node000025_Node000004"><a xlink:title=" ">
<path fill="none" stroke="#63b8ff" d="M529.97,-213.32C540.84,-203.87 554.44,-192.06 563.52,-184.17"/>
<polygon fill="#63b8ff" stroke="#63b8ff" points="527.55,-210.78 522.3,-219.98 532.15,-216.07 527.55,-210.78"/>
</a>
</g>
</g>
<!-- Node26&#45;&gt;Node5 -->
<g id="edge46_Node000026_Node000005" class="edge">
<title>Node26&#45;&gt;Node5</title>
<g id="a_edge46_Node000026_Node000005"><a xlink:title=" ">
<path fill="none" stroke="#63b8ff" d="M1162.85,-268.37C1141.67,-250.3 1107.37,-218.2 1086.5,-184 1075.56,-166.07 1069.13,-141.96 1066.27,-129.23"/>
<polygon fill="#63b8ff" stroke="#63b8ff" points="1160.61,-271.06 1170.53,-274.79 1165.1,-265.69 1160.61,-271.06"/>
</a>
</g>
</g>
<!-- Node26&#45;&gt;Node7 -->
<g id="edge45_Node000026_Node000007" class="edge">
<title>Node26&#45;&gt;Node7</title>
<g id="a_edge45_Node000026_Node000007"><a xlink:title=" ">
<path fill="none" stroke="#63b8ff" d="M1201.69,-268.57C1223.44,-251.1 1256.77,-219.93 1270.5,-184 1285.36,-145.1 1268.25,-94.23 1260.22,-74.17"/>
<polygon fill="#63b8ff" stroke="#63b8ff" points="1199.45,-265.88 1193.71,-274.78 1203.75,-271.4 1199.45,-265.88"/>
</a>
</g>
</g>
<!-- Node26&#45;&gt;Node8 -->
<g id="edge44_Node000026_Node000008" class="edge">
<title>Node26&#45;&gt;Node8</title>
<g id="a_edge44_Node000026_Node000008"><a xlink:title=" ">
<path fill="none" stroke="#63b8ff" d="M1217.04,-280.78C1309.88,-272.7 1552.5,-244.94 1552.5,-175.5 1552.5,-175.5 1552.5,-175.5 1552.5,-118.5 1552.5,-53.56 1462.81,-25.92 1414.1,-15.7"/>
<polygon fill="#63b8ff" stroke="#63b8ff" points="1216.67,-277.3 1207,-281.63 1217.26,-284.27 1216.67,-277.3"/>
</a>
</g>
</g>
<!-- Node26&#45;&gt;Node11 -->
<g id="edge50_Node000026_Node000011" class="edge">
<title>Node26&#45;&gt;Node11</title>
<g id="a_edge50_Node000026_Node000011"><a xlink:title=" ">
<path fill="none" stroke="#63b8ff" d="M1145.81,-274.51C1114.34,-266.27 1067.42,-253.22 1027.5,-239 927.17,-203.27 811.15,-149.69 767.41,-129.04"/>
<polygon fill="#63b8ff" stroke="#63b8ff" points="1145.3,-277.99 1155.86,-277.11 1147.05,-271.21 1145.3,-277.99"/>
</a>
</g>
</g>
<!-- Node27 -->
<g id="Node000027" class="node">
<title>Node27</title>
<g id="a_Node000027"><a xlink:href="_audio_engine_8h.html" target="_top" xlink:title=" ">
<polygon fill="white" stroke="#666666" points="1441.5,-239 1355.5,-239 1355.5,-220 1441.5,-220 1441.5,-239"/>
<text text-anchor="middle" x="1398.5" y="-227" font-family="Helvetica Neue" font-size="10.00">AudioEngine.h</text>
</a>
</g>
</g>
<!-- Node26&#45;&gt;Node27 -->
<g id="edge35_Node000026_Node000027" class="edge">
<title>Node26&#45;&gt;Node27</title>
<g id="a_edge35_Node000026_Node000027"><a xlink:title=" ">
<path fill="none" stroke="#63b8ff" d="M1217.21,-274.78C1257.7,-264.89 1323.27,-248.87 1363.47,-239.05"/>
<polygon fill="#63b8ff" stroke="#63b8ff" points="1216.13,-271.44 1207.24,-277.21 1217.79,-278.24 1216.13,-271.44"/>
</a>
</g>
</g>
<!-- Node29 -->
<g id="Node000029" class="node">
<title>Node29</title>
<g id="a_Node000029"><a xlink:href="_connections_8h.html" target="_top" xlink:title=" ">
<polygon fill="white" stroke="#666666" points="1039.5,-184 953.5,-184 953.5,-165 1039.5,-165 1039.5,-184"/>
<text text-anchor="middle" x="996.5" y="-172" font-family="Helvetica Neue" font-size="10.00">Connections.h</text>
</a>
</g>
</g>
<!-- Node26&#45;&gt;Node29 -->
<g id="edge38_Node000026_Node000029" class="edge">
<title>Node26&#45;&gt;Node29</title>
<g id="a_edge38_Node000026_Node000029"><a xlink:title=" ">
<path fill="none" stroke="#63b8ff" d="M1146.18,-276.31C1119.19,-269.66 1081.9,-257.89 1053.5,-239 1030.8,-223.9 1011.29,-197.7 1002.1,-184.16"/>
<polygon fill="#63b8ff" stroke="#63b8ff" points="1145.45,-279.73 1155.99,-278.61 1147.05,-272.92 1145.45,-279.73"/>
</a>
</g>
</g>
<!-- Node30 -->
<g id="Node000030" class="node">
<title>Node30</title>
<g id="a_Node000030"><a xlink:href="_file_manager_8h.html" target="_top" xlink:title=" ">
<polygon fill="white" stroke="#666666" points="1370,-129 1285,-129 1285,-110 1370,-110 1370,-129"/>
<text text-anchor="middle" x="1327.5" y="-117" font-family="Helvetica Neue" font-size="10.00">FileManager.h</text>
</a>
</g>
</g>
<!-- Node26&#45;&gt;Node30 -->
<g id="edge41_Node000026_Node000030" class="edge">
<title>Node26&#45;&gt;Node30</title>
<g id="a_edge41_Node000026_Node000030"><a xlink:title=" ">
<path fill="none" stroke="#63b8ff" d="M1217.15,-279.85C1244.77,-275.1 1281.86,-264.16 1303.5,-239 1331.43,-206.54 1330.09,-150.56 1328.39,-129.16"/>
<polygon fill="#63b8ff" stroke="#63b8ff" points="1216.44,-276.42 1207.08,-281.39 1217.5,-283.34 1216.44,-276.42"/>
</a>
</g>
</g>
<!-- Node31 -->
<g id="Node000031" class="node">
<title>Node31</title>
<g id="a_Node000031"><a xlink:href="_port_u_i_8h.html" target="_top" xlink:title=" ">
<polygon fill="white" stroke="#666666" points="1209.5,-239 1153.5,-239 1153.5,-220 1209.5,-220 1209.5,-239"/>
<text text-anchor="middle" x="1181.5" y="-227" font-family="Helvetica Neue" font-size="10.00">PortUI.h</text>
</a>
</g>
</g>
<!-- Node26&#45;&gt;Node31 -->
<g id="edge47_Node000026_Node000031" class="edge">
<title>Node26&#45;&gt;Node31</title>
<g id="a_edge47_Node000026_Node000031"><a xlink:title=" ">
<path fill="none" stroke="#63b8ff" d="M1181.5,-264.66C1181.5,-255.93 1181.5,-245.99 1181.5,-239.09"/>
<polygon fill="#63b8ff" stroke="#63b8ff" points="1178,-264.75 1181.5,-274.75 1185,-264.75 1178,-264.75"/>
</a>
</g>
</g>
<!-- Node27&#45;&gt;Node8 -->
<g id="edge37_Node000027_Node000008" class="edge">
<title>Node27&#45;&gt;Node8</title>
<g id="a_edge37_Node000027_Node000008"><a xlink:title=" ">
<path fill="none" stroke="#63b8ff" d="M1397.22,-209.85C1394.12,-164.82 1386.32,-51.53 1384.1,-19.22"/>
<polygon fill="#63b8ff" stroke="#63b8ff" points="1393.73,-210.22 1397.91,-219.95 1400.72,-209.74 1393.73,-210.22"/>
</a>
</g>
</g>
<!-- Node28 -->
<g id="Node000028" class="node">
<title>Node28</title>
<g id="a_Node000028"><a xlink:href="_audio_engine_8cpp.html" target="_top" xlink:title=" ">
<polygon fill="white" stroke="#666666" points="1524.5,-184 1426.5,-184 1426.5,-165 1524.5,-165 1524.5,-184"/>
<text text-anchor="middle" x="1475.5" y="-172" font-family="Helvetica Neue" font-size="10.00">AudioEngine.cpp</text>
</a>
</g>
</g>
<!-- Node27&#45;&gt;Node28 -->
<g id="edge36_Node000027_Node000028" class="edge">
<title>Node27&#45;&gt;Node28</title>
<g id="a_edge36_Node000027_Node000028"><a xlink:title=" ">
<path fill="none" stroke="#63b8ff" d="M1419.35,-214.15C1433.26,-204.57 1451.11,-192.29 1462.9,-184.17"/>
<polygon fill="#63b8ff" stroke="#63b8ff" points="1417.12,-211.43 1410.87,-219.98 1421.09,-217.2 1417.12,-211.43"/>
</a>
</g>
</g>
<!-- Node29&#45;&gt;Node5 -->
<g id="edge40_Node000029_Node000005" class="edge">
<title>Node29&#45;&gt;Node5</title>
<g id="a_edge40_Node000029_Node000005"><a xlink:title=" ">
<path fill="none" stroke="#63b8ff" d="M1015.62,-158.6C1027.8,-149.11 1043.16,-137.13 1053.38,-129.17"/>
<polygon fill="#63b8ff" stroke="#63b8ff" points="1013.16,-156.08 1007.43,-164.98 1017.46,-161.6 1013.16,-156.08"/>
</a>
</g>
</g>
<!-- Node29&#45;&gt;Node6 -->
<g id="edge39_Node000029_Node000006" class="edge">
<title>Node29&#45;&gt;Node6</title>
<g id="a_edge39_Node000029_Node000006"><a xlink:title=" ">
<path fill="none" stroke="#63b8ff" d="M1002,-154.83C1012.35,-119.67 1034.37,-44.9 1041.91,-19.31"/>
<polygon fill="#63b8ff" stroke="#63b8ff" points="998.55,-154.15 999.08,-164.74 1005.26,-156.13 998.55,-154.15"/>
</a>
</g>
</g>
<!-- Node30&#45;&gt;Node7 -->
<g id="edge43_Node000030_Node000007" class="edge">
<title>Node30&#45;&gt;Node7</title>
<g id="a_edge43_Node000030_Node000007"><a xlink:title=" ">
<path fill="none" stroke="#63b8ff" d="M1307.91,-103.88C1295.13,-94.34 1278.89,-82.21 1268.11,-74.17"/>
<polygon fill="#63b8ff" stroke="#63b8ff" points="1305.99,-106.81 1316.09,-109.98 1310.17,-101.2 1305.99,-106.81"/>
</a>
</g>
</g>
<!-- Node30&#45;&gt;Node8 -->
<g id="edge42_Node000030_Node000008" class="edge">
<title>Node30&#45;&gt;Node8</title>
<g id="a_edge42_Node000030_Node000008"><a xlink:title=" ">
<path fill="none" stroke="#63b8ff" d="M1336.7,-100.76C1348.87,-77.28 1369.86,-36.81 1379.01,-19.16"/>
<polygon fill="#63b8ff" stroke="#63b8ff" points="1333.58,-99.17 1332.08,-109.66 1339.79,-102.4 1333.58,-99.17"/>
</a>
</g>
</g>
<!-- Node31&#45;&gt;Node22 -->
<g id="edge48_Node000031_Node000022" class="edge">
<title>Node31&#45;&gt;Node22</title>
<g id="a_edge48_Node000031_Node000022"><a xlink:title=" ">
<path fill="none" stroke="#63b8ff" d="M1167.14,-211.96C1159.13,-202.72 1149.47,-191.6 1142.95,-184.09"/>
<polygon fill="#63b8ff" stroke="#63b8ff" points="1164.71,-214.49 1173.9,-219.75 1169.99,-209.9 1164.71,-214.49"/>
</a>
</g>
</g>
<!-- Node32 -->
<g id="Node000032" class="node">
<title>Node32</title>
<g id="a_Node000032"><a xlink:href="_port_u_i_8cpp.html" target="_top" xlink:title=" ">
<polygon fill="white" stroke="#666666" points="1261,-184 1194,-184 1194,-165 1261,-165 1261,-184"/>
<text text-anchor="middle" x="1227.5" y="-172" font-family="Helvetica Neue" font-size="10.00">PortUI.cpp</text>
</a>
</g>
</g>
<!-- Node31&#45;&gt;Node32 -->
<g id="edge49_Node000031_Node000032" class="edge">
<title>Node31&#45;&gt;Node32</title>
<g id="a_edge49_Node000031_Node000032"><a xlink:title=" ">
<path fill="none" stroke="#63b8ff" d="M1195.86,-211.96C1203.87,-202.72 1213.53,-191.6 1220.05,-184.09"/>
<polygon fill="#63b8ff" stroke="#63b8ff" points="1193.01,-209.9 1189.1,-219.75 1198.29,-214.49 1193.01,-209.9"/>
</a>
</g>
</g>
<!-- Node34 -->
<g id="Node000034" class="node">
<title>Node34</title>
<g id="a_Node000034"><a xlink:href="_string_processor_8h.html" target="_top" xlink:title=" ">
<polygon fill="white" stroke="#666666" points="684,-239 583,-239 583,-220 684,-220 684,-239"/>
<text text-anchor="middle" x="633.5" y="-227" font-family="Helvetica Neue" font-size="10.00">StringProcessor.h</text>
</a>
</g>
</g>
<!-- Node33&#45;&gt;Node34 -->
<g id="edge52_Node000033_Node000034" class="edge">
<title>Node33&#45;&gt;Node34</title>
<g id="a_edge52_Node000033_Node000034"><a xlink:title=" ">
<path fill="none" stroke="#63b8ff" d="M631.57,-264.66C632.06,-255.93 632.62,-245.99 633.01,-239.09"/>
<polygon fill="#63b8ff" stroke="#63b8ff" points="628.07,-264.57 631,-274.75 635.06,-264.96 628.07,-264.57"/>
</a>
</g>
</g>
<!-- Node34&#45;&gt;Node4 -->
<g id="edge53_Node000034_Node000004" class="edge">
<title>Node34&#45;&gt;Node4</title>
<g id="a_edge53_Node000034_Node000004"><a xlink:title=" ">
<path fill="none" stroke="#63b8ff" d="M616.32,-213.32C605.62,-203.87 592.24,-192.06 583.32,-184.17"/>
<polygon fill="#63b8ff" stroke="#63b8ff" points="614.05,-215.99 623.86,-219.98 618.68,-210.74 614.05,-215.99"/>
</a>
</g>
</g>
</g>
</svg>
