<?xml version="1.0" encoding="UTF-8" standalone="no"?>
<!DOCTYPE svg PUBLIC "-//W3C//DTD SVG 1.1//EN"
 "http://www.w3.org/Graphics/SVG/1.1/DTD/svg11.dtd">
<!-- Generated by graphviz version 2.38.0 (20140413.2041)
 -->
<!-- Title: OutputUI.h Pages: 1 -->
<svg width="133pt" height="252pt"
 viewBox="0.00 0.00 133.00 252.00" xmlns="http://www.w3.org/2000/svg" xmlns:xlink="http://www.w3.org/1999/xlink">
<g id="graph0" class="graph" transform="scale(1 1) rotate(0) translate(4 248)">
<title>OutputUI.h</title>
<polygon fill="white" stroke="none" points="-4,4 -4,-248 129,-248 129,4 -4,4"/>
<!-- Node1 -->
<g id="node1" class="node"><title>Node1</title>
<polygon fill="#bfbfbf" stroke="black" points="28.5,-224.5 28.5,-243.5 96.5,-243.5 96.5,-224.5 28.5,-224.5"/>
<text text-anchor="middle" x="62.5" y="-231.5" font-family="Helvetica Neue" font-size="10.00">OutputUI.h</text>
</g>
<!-- Node2 -->
<g id="node2" class="node"><title>Node2</title>
<g id="a_node2"><a xlink:href="_module_processor_8h.html" target="_top" xlink:title="../../ModuleProcessor.h">
<polygon fill="white" stroke="black" points="-7.10543e-15,-168.5 -7.10543e-15,-187.5 125,-187.5 125,-168.5 -7.10543e-15,-168.5"/>
<text text-anchor="middle" x="62.5" y="-175.5" font-family="Helvetica Neue" font-size="10.00">../../ModuleProcessor.h</text>
</a>
</g>
</g>
<!-- Node1&#45;&gt;Node2 -->
<g id="edge1" class="edge"><title>Node1&#45;&gt;Node2</title>
<path fill="none" stroke="midnightblue" d="M62.5,-224.083C62.5,-217.006 62.5,-206.861 62.5,-197.986"/>
<polygon fill="midnightblue" stroke="midnightblue" points="66.0001,-197.751 62.5,-187.751 59.0001,-197.751 66.0001,-197.751"/>
</g>
<!-- Node3 -->
<g id="node3" class="node"><title>Node3</title>
<g id="a_node3"><a xlink:href="_module_u_i_8h.html" target="_top" xlink:title="ModuleUI.h">
<polygon fill="white" stroke="black" points="27.5,-112.5 27.5,-131.5 97.5,-131.5 97.5,-112.5 27.5,-112.5"/>
<text text-anchor="middle" x="62.5" y="-119.5" font-family="Helvetica Neue" font-size="10.00">ModuleUI.h</text>
</a>
</g>
</g>
<!-- Node2&#45;&gt;Node3 -->
<g id="edge2" class="edge"><title>Node2&#45;&gt;Node3</title>
<path fill="none" stroke="midnightblue" d="M62.5,-168.083C62.5,-161.006 62.5,-150.861 62.5,-141.986"/>
<polygon fill="midnightblue" stroke="midnightblue" points="66.0001,-141.751 62.5,-131.751 59.0001,-141.751 66.0001,-141.751"/>
</g>
<!-- Node4 -->
<g id="node4" class="node"><title>Node4</title>
<g id="a_node4"><a xlink:href="_plug_8h.html" target="_top" xlink:title="Plug.h">
<polygon fill="white" stroke="black" points="39.5,-56.5 39.5,-75.5 85.5,-75.5 85.5,-56.5 39.5,-56.5"/>
<text text-anchor="middle" x="62.5" y="-63.5" font-family="Helvetica Neue" font-size="10.00">Plug.h</text>
</a>
</g>
</g>
<!-- Node3&#45;&gt;Node4 -->
<g id="edge3" class="edge"><title>Node3&#45;&gt;Node4</title>
<path fill="none" stroke="midnightblue" d="M62.5,-112.083C62.5,-105.006 62.5,-94.8611 62.5,-85.9865"/>
<polygon fill="midnightblue" stroke="midnightblue" points="66.0001,-85.751 62.5,-75.7511 59.0001,-85.7511 66.0001,-85.751"/>
</g>
<!-- Node5 -->
<g id="node5" class="node"><title>Node5</title>
<g id="a_node5"><a xlink:href="_plug_handler_8h.html" target="_top" xlink:title="PlugHandler.h">
<polygon fill="white" stroke="black" points="21,-0.5 21,-19.5 104,-19.5 104,-0.5 21,-0.5"/>
<text text-anchor="middle" x="62.5" y="-7.5" font-family="Helvetica Neue" font-size="10.00">PlugHandler.h</text>
</a>
</g>
</g>
<!-- Node4&#45;&gt;Node5 -->
<g id="edge4" class="edge"><title>Node4&#45;&gt;Node5</title>
<path fill="none" stroke="midnightblue" d="M62.5,-56.083C62.5,-49.0059 62.5,-38.8611 62.5,-29.9865"/>
<polygon fill="midnightblue" stroke="midnightblue" points="66.0001,-29.751 62.5,-19.7511 59.0001,-29.7511 66.0001,-29.751"/>
</g>
</g>
</svg>
