<?xml version="1.0" encoding="UTF-8" standalone="no"?>
<!DOCTYPE svg PUBLIC "-//W3C//DTD SVG 1.1//EN"
 "http://www.w3.org/Graphics/SVG/1.1/DTD/svg11.dtd">
<!-- Generated by graphviz version 2.43.0 (0)
 -->
<!-- Title: Patcher.cpp Pages: 1 -->
<svg width="1858pt" height="533pt"
 viewBox="0.00 0.00 1858.00 533.00" xmlns="http://www.w3.org/2000/svg" xmlns:xlink="http://www.w3.org/1999/xlink">
<g id="graph0" class="graph" transform="scale(1 1) rotate(0) translate(4 529)">
<title>Patcher.cpp</title>
<!-- Node1 -->
<g id="Node000001" class="node">
<title>Node1</title>
<g id="a_Node000001"><a xlink:title=" ">
<polygon fill="#999999" stroke="#666666" points="1619.5,-525 1547.5,-525 1547.5,-506 1619.5,-506 1619.5,-525"/>
<text text-anchor="middle" x="1583.5" y="-513" font-family="Helvetica Neue" font-size="10.00">Patcher.cpp</text>
</a>
</g>
</g>
<!-- Node2 -->
<g id="Node000002" class="node">
<title>Node2</title>
<g id="a_Node000002"><a xlink:href="_patcher_8h.html" target="_top" xlink:title=" ">
<polygon fill="white" stroke="#666666" points="1524,-415 1463,-415 1463,-396 1524,-396 1524,-415"/>
<text text-anchor="middle" x="1493.5" y="-403" font-family="Helvetica Neue" font-size="10.00">Patcher.h</text>
</a>
</g>
</g>
<!-- Node1&#45;&gt;Node2 -->
<g id="edge1_Node000001_Node000002" class="edge">
<title>Node1&#45;&gt;Node2</title>
<g id="a_edge1_Node000001_Node000002"><a xlink:title=" ">
<path fill="none" stroke="#63b8ff" d="M1576.13,-505.66C1561.1,-487.61 1526.65,-446.28 1507.31,-423.08"/>
<polygon fill="#63b8ff" stroke="#63b8ff" points="1509.81,-420.6 1500.72,-415.16 1504.43,-425.08 1509.81,-420.6"/>
</a>
</g>
</g>
<!-- Node37 -->
<g id="Node000037" class="node">
<title>Node37</title>
<g id="a_Node000037"><a xlink:href="_main_component_8h.html" target="_top" xlink:title=" ">
<polygon fill="white" stroke="#666666" points="1684.5,-470 1578.5,-470 1578.5,-451 1684.5,-451 1684.5,-470"/>
<text text-anchor="middle" x="1631.5" y="-458" font-family="Helvetica Neue" font-size="10.00">MainComponent.h</text>
</a>
</g>
</g>
<!-- Node1&#45;&gt;Node37 -->
<g id="edge73_Node000001_Node000037" class="edge">
<title>Node1&#45;&gt;Node37</title>
<g id="a_edge73_Node000001_Node000037"><a xlink:title=" ">
<path fill="none" stroke="#63b8ff" d="M1591.43,-505.75C1598.35,-498.11 1608.57,-486.82 1616.95,-477.56"/>
<polygon fill="#63b8ff" stroke="#63b8ff" points="1619.6,-479.85 1623.72,-470.09 1614.41,-475.15 1619.6,-479.85"/>
</a>
</g>
</g>
<!-- Node3 -->
<g id="Node000003" class="node">
<title>Node3</title>
<g id="a_Node000003"><a xlink:href="_state_8h.html" target="_top" xlink:title=" ">
<polygon fill="white" stroke="#666666" points="1520.5,-250 1460.5,-250 1460.5,-231 1520.5,-231 1520.5,-250"/>
<text text-anchor="middle" x="1490.5" y="-238" font-family="Helvetica Neue" font-size="10.00">../State.h</text>
</a>
</g>
</g>
<!-- Node2&#45;&gt;Node3 -->
<g id="edge2_Node000002_Node000003" class="edge">
<title>Node2&#45;&gt;Node3</title>
<g id="a_edge2_Node000002_Node000003"><a xlink:title=" ">
<path fill="none" stroke="#63b8ff" d="M1493.34,-395.74C1492.87,-370.31 1491.5,-296.08 1490.85,-260.69"/>
<polygon fill="#63b8ff" stroke="#63b8ff" points="1494.35,-260.24 1490.66,-250.31 1487.35,-260.37 1494.35,-260.24"/>
</a>
</g>
</g>
<!-- Node10 -->
<g id="Node000010" class="node">
<title>Node10</title>
<g id="a_Node000010"><a xlink:href="_module_box_8h.html" target="_top" xlink:title=" ">
<polygon fill="white" stroke="#666666" points="1462.5,-360 1382.5,-360 1382.5,-341 1462.5,-341 1462.5,-360"/>
<text text-anchor="middle" x="1422.5" y="-348" font-family="Helvetica Neue" font-size="10.00">ModuleBox.h</text>
</a>
</g>
</g>
<!-- Node2&#45;&gt;Node10 -->
<g id="edge12_Node000002_Node000010" class="edge">
<title>Node2&#45;&gt;Node10</title>
<g id="a_edge12_Node000002_Node000010"><a xlink:title=" ">
<path fill="none" stroke="#63b8ff" d="M1482.09,-395.98C1471.39,-388 1455.16,-375.88 1442.34,-366.31"/>
<polygon fill="#63b8ff" stroke="#63b8ff" points="1444.22,-363.35 1434.11,-360.17 1440.03,-368.96 1444.22,-363.35"/>
</a>
</g>
</g>
<!-- Node15 -->
<g id="Node000015" class="node">
<title>Node15</title>
<g id="a_Node000015"><a xlink:href="_connections_8h.html" target="_top" xlink:title=" ">
<polygon fill="white" stroke="#666666" points="1642.5,-305 1556.5,-305 1556.5,-286 1642.5,-286 1642.5,-305"/>
<text text-anchor="middle" x="1599.5" y="-293" font-family="Helvetica Neue" font-size="10.00">Connections.h</text>
</a>
</g>
</g>
<!-- Node2&#45;&gt;Node15 -->
<g id="edge22_Node000002_Node000015" class="edge">
<title>Node2&#45;&gt;Node15</title>
<g id="a_edge22_Node000002_Node000015"><a xlink:title=" ">
<path fill="none" stroke="#63b8ff" d="M1502.17,-395.66C1520.04,-377.46 1561.18,-335.55 1583.83,-312.47"/>
<polygon fill="#63b8ff" stroke="#63b8ff" points="1586.5,-314.75 1591,-305.16 1581.5,-309.84 1586.5,-314.75"/>
</a>
</g>
</g>
<!-- Node16 -->
<g id="Node000016" class="node">
<title>Node16</title>
<g id="a_Node000016"><a xlink:href="_modules_8h.html" target="_top" xlink:title=" ">
<polygon fill="white" stroke="#666666" points="741,-360 620,-360 620,-341 741,-341 741,-360"/>
<text text-anchor="middle" x="680.5" y="-348" font-family="Helvetica Neue" font-size="10.00">../modules/Modules.h</text>
</a>
</g>
</g>
<!-- Node2&#45;&gt;Node16 -->
<g id="edge25_Node000002_Node000016" class="edge">
<title>Node2&#45;&gt;Node16</title>
<g id="a_edge25_Node000002_Node000016"><a xlink:title=" ">
<path fill="none" stroke="#63b8ff" d="M1462.62,-402.49C1344.66,-394.8 920.62,-367.15 751.18,-356.11"/>
<polygon fill="#63b8ff" stroke="#63b8ff" points="751.33,-352.61 741.12,-355.45 750.87,-359.6 751.33,-352.61"/>
</a>
</g>
</g>
<!-- Node4 -->
<g id="Node000004" class="node">
<title>Node4</title>
<g id="a_Node000004"><a xlink:title=" ">
<polygon fill="#e0e0e0" stroke="#999999" points="1394.5,-19 1314.5,-19 1314.5,0 1394.5,0 1394.5,-19"/>
<text text-anchor="middle" x="1354.5" y="-7" font-family="Helvetica Neue" font-size="10.00">JuceHeader.h</text>
</a>
</g>
</g>
<!-- Node3&#45;&gt;Node4 -->
<g id="edge3_Node000003_Node000004" class="edge">
<title>Node3&#45;&gt;Node4</title>
<g id="a_edge3_Node000003_Node000004"><a xlink:title=" ">
<path fill="none" stroke="#63b8ff" d="M1486.87,-230.72C1483.25,-221.81 1477.64,-207.57 1473.5,-195 1453.29,-133.65 1474.48,-105.73 1434.5,-55 1423.18,-40.63 1405.86,-30.19 1390.23,-23.04"/>
<polygon fill="#63b8ff" stroke="#63b8ff" points="1391.36,-19.72 1380.79,-19.02 1388.61,-26.16 1391.36,-19.72"/>
</a>
</g>
</g>
<!-- Node5 -->
<g id="Node000005" class="node">
<title>Node5</title>
<g id="a_Node000005"><a xlink:href="_phi_theme_8h.html" target="_top" xlink:title=" ">
<polygon fill="white" stroke="#666666" points="1690.5,-189.5 1604.5,-189.5 1604.5,-170.5 1690.5,-170.5 1690.5,-189.5"/>
<text text-anchor="middle" x="1647.5" y="-177.5" font-family="Helvetica Neue" font-size="10.00">ui/PhiTheme.h</text>
</a>
</g>
</g>
<!-- Node3&#45;&gt;Node5 -->
<g id="edge4_Node000003_Node000005" class="edge">
<title>Node3&#45;&gt;Node5</title>
<g id="a_edge4_Node000003_Node000005"><a xlink:title=" ">
<path fill="none" stroke="#63b8ff" d="M1513.33,-230.99C1540.07,-221.03 1584.58,-204.45 1614.94,-193.13"/>
<polygon fill="#63b8ff" stroke="#63b8ff" points="1616.49,-196.29 1624.64,-189.52 1614.05,-189.73 1616.49,-196.29"/>
</a>
</g>
</g>
<!-- Node7 -->
<g id="Node000007" class="node">
<title>Node7</title>
<g id="a_Node000007"><a xlink:href="_module_u_i_8h.html" target="_top" xlink:title=" ">
<polygon fill="white" stroke="#666666" points="1167.5,-189.5 1083.5,-189.5 1083.5,-170.5 1167.5,-170.5 1167.5,-189.5"/>
<text text-anchor="middle" x="1125.5" y="-177.5" font-family="Helvetica Neue" font-size="10.00">ui/ModuleUI.h</text>
</a>
</g>
</g>
<!-- Node3&#45;&gt;Node7 -->
<g id="edge6_Node000003_Node000007" class="edge">
<title>Node3&#45;&gt;Node7</title>
<g id="a_edge6_Node000003_Node000007"><a xlink:title=" ">
<path fill="none" stroke="#63b8ff" d="M1460.32,-234.66C1398.12,-224.69 1255.03,-201.76 1177.58,-189.35"/>
<polygon fill="#63b8ff" stroke="#63b8ff" points="1177.98,-185.87 1167.55,-187.74 1176.87,-192.78 1177.98,-185.87"/>
</a>
</g>
</g>
<!-- Node8 -->
<g id="Node000008" class="node">
<title>Node8</title>
<g id="a_Node000008"><a xlink:href="_module_processor_8h.html" target="_top" xlink:title=" ">
<polygon fill="white" stroke="#666666" points="642,-129 505,-129 505,-110 642,-110 642,-129"/>
<text text-anchor="middle" x="573.5" y="-117" font-family="Helvetica Neue" font-size="10.00">../dsp/ModuleProcessor.h</text>
</a>
</g>
</g>
<!-- Node3&#45;&gt;Node8 -->
<g id="edge11_Node000003_Node000008" class="edge">
<title>Node3&#45;&gt;Node8</title>
<g id="a_edge11_Node000003_Node000008"><a xlink:title=" ">
<path fill="none" stroke="#63b8ff" d="M1461.37,-230.94C1406.28,-215.12 1282.81,-181.43 1176.5,-165 989.95,-136.17 767.95,-125.89 652.35,-122.32"/>
<polygon fill="#63b8ff" stroke="#63b8ff" points="652.28,-118.81 642.18,-122.01 652.07,-125.81 652.28,-118.81"/>
</a>
</g>
</g>
<!-- Node6 -->
<g id="Node000006" class="node">
<title>Node6</title>
<g id="a_Node000006"><a xlink:href="_phi_colours_8h.html" target="_top" xlink:title=" ">
<polygon fill="white" stroke="#666666" points="1686,-129 1609,-129 1609,-110 1686,-110 1686,-129"/>
<text text-anchor="middle" x="1647.5" y="-117" font-family="Helvetica Neue" font-size="10.00">PhiColours.h</text>
</a>
</g>
</g>
<!-- Node5&#45;&gt;Node6 -->
<g id="edge5_Node000005_Node000006" class="edge">
<title>Node5&#45;&gt;Node6</title>
<g id="a_edge5_Node000005_Node000006"><a xlink:title=" ">
<path fill="none" stroke="#63b8ff" d="M1647.5,-170.37C1647.5,-162.25 1647.5,-149.81 1647.5,-139.39"/>
<polygon fill="#63b8ff" stroke="#63b8ff" points="1651,-139.17 1647.5,-129.17 1644,-139.17 1651,-139.17"/>
</a>
</g>
</g>
<!-- Node7&#45;&gt;Node6 -->
<g id="edge7_Node000007_Node000006" class="edge">
<title>Node7&#45;&gt;Node6</title>
<g id="a_edge7_Node000007_Node000006"><a xlink:title=" ">
<path fill="none" stroke="#63b8ff" d="M1167.78,-174.26C1263.63,-163.52 1497.04,-137.36 1598.77,-125.96"/>
<polygon fill="#63b8ff" stroke="#63b8ff" points="1599.22,-129.43 1608.77,-124.84 1598.44,-122.48 1599.22,-129.43"/>
</a>
</g>
</g>
<!-- Node7&#45;&gt;Node8 -->
<g id="edge8_Node000007_Node000008" class="edge">
<title>Node7&#45;&gt;Node8</title>
<g id="a_edge8_Node000007_Node000008"><a xlink:title=" ">
<path fill="none" stroke="#63b8ff" d="M1085.25,-170.44C1074.94,-168.45 1063.84,-166.48 1053.5,-165 912.82,-144.85 747.57,-131.85 652.25,-125.38"/>
<polygon fill="#63b8ff" stroke="#63b8ff" points="652.32,-121.88 642.11,-124.7 651.85,-128.87 652.32,-121.88"/>
</a>
</g>
</g>
<!-- Node9 -->
<g id="Node000009" class="node">
<title>Node9</title>
<g id="a_Node000009"><a xlink:href="_utils_8h.html" target="_top" xlink:title=" ">
<polygon fill="white" stroke="#666666" points="597.5,-74 549.5,-74 549.5,-55 597.5,-55 597.5,-74"/>
<text text-anchor="middle" x="573.5" y="-62" font-family="Helvetica Neue" font-size="10.00">Utils.h</text>
</a>
</g>
</g>
<!-- Node8&#45;&gt;Node9 -->
<g id="edge9_Node000008_Node000009" class="edge">
<title>Node8&#45;&gt;Node9</title>
<g id="a_edge9_Node000008_Node000009"><a xlink:title=" ">
<path fill="none" stroke="#63b8ff" d="M573.5,-109.75C573.5,-102.8 573.5,-92.85 573.5,-84.13"/>
<polygon fill="#63b8ff" stroke="#63b8ff" points="577,-84.09 573.5,-74.09 570,-84.09 577,-84.09"/>
</a>
</g>
</g>
<!-- Node9&#45;&gt;Node4 -->
<g id="edge10_Node000009_Node000004" class="edge">
<title>Node9&#45;&gt;Node4</title>
<g id="a_edge10_Node000009_Node000004"><a xlink:title=" ">
<path fill="none" stroke="#63b8ff" d="M597.73,-61.86C706.73,-54.46 1152.85,-24.18 1304.09,-13.92"/>
<polygon fill="#63b8ff" stroke="#63b8ff" points="1304.72,-17.39 1314.46,-13.22 1304.24,-10.4 1304.72,-17.39"/>
</a>
</g>
</g>
<!-- Node10&#45;&gt;Node7 -->
<g id="edge17_Node000010_Node000007" class="edge">
<title>Node10&#45;&gt;Node7</title>
<g id="a_edge17_Node000010_Node000007"><a xlink:title=" ">
<path fill="none" stroke="#63b8ff" d="M1417.26,-340.85C1401.41,-314.79 1354.35,-238.35 1343.5,-231 1279.19,-187.46 1247.78,-214.1 1172.5,-195 1169.28,-194.18 1165.95,-193.29 1162.62,-192.36"/>
<polygon fill="#63b8ff" stroke="#63b8ff" points="1163.31,-188.92 1152.73,-189.52 1161.38,-195.65 1163.31,-188.92"/>
</a>
</g>
</g>
<!-- Node11 -->
<g id="Node000011" class="node">
<title>Node11</title>
<g id="a_Node000011"><a xlink:href="_port_u_i_8h.html" target="_top" xlink:title=" ">
<polygon fill="white" stroke="#666666" points="1462.5,-305 1406.5,-305 1406.5,-286 1462.5,-286 1462.5,-305"/>
<text text-anchor="middle" x="1434.5" y="-293" font-family="Helvetica Neue" font-size="10.00">PortUI.h</text>
</a>
</g>
</g>
<!-- Node10&#45;&gt;Node11 -->
<g id="edge13_Node000010_Node000011" class="edge">
<title>Node10&#45;&gt;Node11</title>
<g id="a_edge13_Node000010_Node000011"><a xlink:title=" ">
<path fill="none" stroke="#63b8ff" d="M1424.48,-340.75C1426.07,-333.72 1428.36,-323.62 1430.35,-314.84"/>
<polygon fill="#63b8ff" stroke="#63b8ff" points="1433.76,-315.62 1432.56,-305.09 1426.93,-314.07 1433.76,-315.62"/>
</a>
</g>
</g>
<!-- Node13 -->
<g id="Node000013" class="node">
<title>Node13</title>
<g id="a_Node000013"><a xlink:href="_phi_look_and_feel_8h.html" target="_top" xlink:title=" ">
<polygon fill="white" stroke="#666666" points="1850,-250 1747,-250 1747,-231 1850,-231 1850,-250"/>
<text text-anchor="middle" x="1798.5" y="-238" font-family="Helvetica Neue" font-size="10.00">PhiLookAndFeel.h</text>
</a>
</g>
</g>
<!-- Node10&#45;&gt;Node13 -->
<g id="edge18_Node000010_Node000013" class="edge">
<title>Node10&#45;&gt;Node13</title>
<g id="a_edge18_Node000010_Node000013"><a xlink:title=" ">
<path fill="none" stroke="#63b8ff" d="M1462.86,-344.35C1509.12,-337.83 1586.88,-324.98 1651.5,-305 1695.41,-291.43 1743.91,-268.9 1772.76,-254.65"/>
<polygon fill="#63b8ff" stroke="#63b8ff" points="1774.37,-257.76 1781.75,-250.16 1771.24,-251.49 1774.37,-257.76"/>
</a>
</g>
</g>
<!-- Node14 -->
<g id="Node000014" class="node">
<title>Node14</title>
<g id="a_Node000014"><a xlink:href="_phi_toggle_button_8h.html" target="_top" xlink:title=" ">
<polygon fill="white" stroke="#666666" points="1350.5,-305 1188.5,-305 1188.5,-286 1350.5,-286 1350.5,-305"/>
<text text-anchor="middle" x="1269.5" y="-293" font-family="Helvetica Neue" font-size="10.00">component/PhiToggleButton.h</text>
</a>
</g>
</g>
<!-- Node10&#45;&gt;Node14 -->
<g id="edge21_Node000010_Node000014" class="edge">
<title>Node10&#45;&gt;Node14</title>
<g id="a_edge21_Node000010_Node000014"><a xlink:title=" ">
<path fill="none" stroke="#63b8ff" d="M1397.92,-340.98C1372.45,-332.16 1332.46,-318.31 1303.87,-308.41"/>
<polygon fill="#63b8ff" stroke="#63b8ff" points="1304.87,-305.05 1294.27,-305.08 1302.58,-311.66 1304.87,-305.05"/>
</a>
</g>
</g>
<!-- Node11&#45;&gt;Node3 -->
<g id="edge14_Node000011_Node000003" class="edge">
<title>Node11&#45;&gt;Node3</title>
<g id="a_edge14_Node000011_Node000003"><a xlink:title=" ">
<path fill="none" stroke="#63b8ff" d="M1443.5,-285.98C1451.69,-278.23 1464.01,-266.58 1473.97,-257.14"/>
<polygon fill="#63b8ff" stroke="#63b8ff" points="1476.48,-259.59 1481.34,-250.17 1471.67,-254.5 1476.48,-259.59"/>
</a>
</g>
</g>
<!-- Node12 -->
<g id="Node000012" class="node">
<title>Node12</title>
<g id="a_Node000012"><a xlink:href="_hover_popup_8h.html" target="_top" xlink:title=" ">
<polygon fill="white" stroke="#666666" points="1426,-74 1283,-74 1283,-55 1426,-55 1426,-74"/>
<text text-anchor="middle" x="1354.5" y="-62" font-family="Helvetica Neue" font-size="10.00">component/HoverPopup.h</text>
</a>
</g>
</g>
<!-- Node11&#45;&gt;Node12 -->
<g id="edge15_Node000011_Node000012" class="edge">
<title>Node11&#45;&gt;Node12</title>
<g id="a_edge15_Node000011_Node000012"><a xlink:title=" ">
<path fill="none" stroke="#63b8ff" d="M1431.46,-285.8C1419.73,-252.22 1377.23,-130.57 1360.93,-83.9"/>
<polygon fill="#63b8ff" stroke="#63b8ff" points="1364.14,-82.49 1357.54,-74.21 1357.54,-84.8 1364.14,-82.49"/>
</a>
</g>
</g>
<!-- Node12&#45;&gt;Node4 -->
<g id="edge16_Node000012_Node000004" class="edge">
<title>Node12&#45;&gt;Node4</title>
<g id="a_edge16_Node000012_Node000004"><a xlink:title=" ">
<path fill="none" stroke="#63b8ff" d="M1354.5,-54.75C1354.5,-47.8 1354.5,-37.85 1354.5,-29.13"/>
<polygon fill="#63b8ff" stroke="#63b8ff" points="1358,-29.09 1354.5,-19.09 1351,-29.09 1358,-29.09"/>
</a>
</g>
</g>
<!-- Node13&#45;&gt;Node5 -->
<g id="edge20_Node000013_Node000005" class="edge">
<title>Node13&#45;&gt;Node5</title>
<g id="a_edge20_Node000013_Node000005"><a xlink:title=" ">
<path fill="none" stroke="#63b8ff" d="M1776.54,-230.99C1750.82,-221.03 1708.02,-204.45 1678.82,-193.13"/>
<polygon fill="#63b8ff" stroke="#63b8ff" points="1680.07,-189.87 1669.48,-189.52 1677.54,-196.39 1680.07,-189.87"/>
</a>
</g>
</g>
<!-- Node13&#45;&gt;Node6 -->
<g id="edge19_Node000013_Node000006" class="edge">
<title>Node13&#45;&gt;Node6</title>
<g id="a_edge19_Node000013_Node000006"><a xlink:title=" ">
<path fill="none" stroke="#63b8ff" d="M1792.42,-230.76C1781.68,-215.81 1758.08,-185.02 1732.5,-165 1716.05,-152.13 1695.32,-141.19 1678.46,-133.38"/>
<polygon fill="#63b8ff" stroke="#63b8ff" points="1679.59,-130.05 1669.03,-129.15 1676.72,-136.44 1679.59,-130.05"/>
</a>
</g>
</g>
<!-- Node15&#45;&gt;Node3 -->
<g id="edge23_Node000015_Node000003" class="edge">
<title>Node15&#45;&gt;Node3</title>
<g id="a_edge23_Node000015_Node000003"><a xlink:title=" ">
<path fill="none" stroke="#63b8ff" d="M1581.99,-285.98C1564.53,-277.5 1537.49,-264.35 1517.33,-254.54"/>
<polygon fill="#63b8ff" stroke="#63b8ff" points="1518.86,-251.4 1508.33,-250.17 1515.79,-257.69 1518.86,-251.4"/>
</a>
</g>
</g>
<!-- Node15&#45;&gt;Node6 -->
<g id="edge24_Node000015_Node000006" class="edge">
<title>Node15&#45;&gt;Node6</title>
<g id="a_edge24_Node000015_Node000006"><a xlink:title=" ">
<path fill="none" stroke="#63b8ff" d="M1613.55,-285.93C1636.67,-270.89 1681.92,-237.29 1699.5,-195 1704.62,-182.69 1705.08,-177.11 1699.5,-165 1693.75,-152.52 1682.59,-142.24 1672.08,-134.71"/>
<polygon fill="#63b8ff" stroke="#63b8ff" points="1673.8,-131.65 1663.53,-129.05 1669.93,-137.49 1673.8,-131.65"/>
</a>
</g>
</g>
<!-- Node17 -->
<g id="Node000017" class="node">
<title>Node17</title>
<g id="a_Node000017"><a xlink:href="_gain_processor_8h.html" target="_top" xlink:title=" ">
<polygon fill="white" stroke="#666666" points="1010.5,-305 890.5,-305 890.5,-286 1010.5,-286 1010.5,-305"/>
<text text-anchor="middle" x="950.5" y="-293" font-family="Helvetica Neue" font-size="10.00">Gain/GainProcessor.h</text>
</a>
</g>
</g>
<!-- Node16&#45;&gt;Node17 -->
<g id="edge26_Node000016_Node000017" class="edge">
<title>Node16&#45;&gt;Node17</title>
<g id="a_edge26_Node000016_Node000017"><a xlink:title=" ">
<path fill="none" stroke="#63b8ff" d="M723.88,-340.98C770.88,-331.76 845.93,-317.03 896.66,-307.07"/>
<polygon fill="#63b8ff" stroke="#63b8ff" points="897.64,-310.44 906.78,-305.08 896.29,-303.57 897.64,-310.44"/>
</a>
</g>
</g>
<!-- Node20 -->
<g id="Node000020" class="node">
<title>Node20</title>
<g id="a_Node000020"><a xlink:href="_impulse_processor_8h.html" target="_top" xlink:title=" ">
<polygon fill="white" stroke="#666666" points="435,-305 282,-305 282,-286 435,-286 435,-305"/>
<text text-anchor="middle" x="358.5" y="-293" font-family="Helvetica Neue" font-size="10.00">Impulse/ImpulseProcessor.h</text>
</a>
</g>
</g>
<!-- Node16&#45;&gt;Node20 -->
<g id="edge32_Node000016_Node000020" class="edge">
<title>Node16&#45;&gt;Node20</title>
<g id="a_edge32_Node000016_Node000020"><a xlink:title=" ">
<path fill="none" stroke="#63b8ff" d="M628.77,-340.98C572.05,-331.65 481.07,-316.67 420.56,-306.71"/>
<polygon fill="#63b8ff" stroke="#63b8ff" points="420.81,-303.21 410.37,-305.04 419.67,-310.12 420.81,-303.21"/>
</a>
</g>
</g>
<!-- Node23 -->
<g id="Node000023" class="node">
<title>Node23</title>
<g id="a_Node000023"><a xlink:href="_output_processor_8h.html" target="_top" xlink:title=" ">
<polygon fill="white" stroke="#666666" points="1170,-305 1029,-305 1029,-286 1170,-286 1170,-305"/>
<text text-anchor="middle" x="1099.5" y="-293" font-family="Helvetica Neue" font-size="10.00">Output/OutputProcessor.h</text>
</a>
</g>
</g>
<!-- Node16&#45;&gt;Node23 -->
<g id="edge38_Node000016_Node000023" class="edge">
<title>Node16&#45;&gt;Node23</title>
<g id="a_edge38_Node000016_Node000023"><a xlink:title=" ">
<path fill="none" stroke="#63b8ff" d="M741.43,-341.79C815.65,-332.4 941.13,-316.53 1022.12,-306.29"/>
<polygon fill="#63b8ff" stroke="#63b8ff" points="1022.77,-309.73 1032.25,-305.01 1021.89,-302.79 1022.77,-309.73"/>
</a>
</g>
</g>
<!-- Node25 -->
<g id="Node000025" class="node">
<title>Node25</title>
<g id="a_Node000025"><a xlink:href="_string_processor_8h.html" target="_top" xlink:title=" ">
<polygon fill="white" stroke="#666666" points="263.5,-305 131.5,-305 131.5,-286 263.5,-286 263.5,-305"/>
<text text-anchor="middle" x="197.5" y="-293" font-family="Helvetica Neue" font-size="10.00">String/StringProcessor.h</text>
</a>
</g>
</g>
<!-- Node16&#45;&gt;Node25 -->
<g id="edge42_Node000016_Node000025" class="edge">
<title>Node16&#45;&gt;Node25</title>
<g id="a_edge42_Node000016_Node000025"><a xlink:title=" ">
<path fill="none" stroke="#63b8ff" d="M619.66,-342.95C541.95,-334.55 403,-319.49 273.83,-305.14"/>
<polygon fill="#63b8ff" stroke="#63b8ff" points="274.08,-301.65 263.75,-304.02 273.3,-308.61 274.08,-301.65"/>
</a>
</g>
</g>
<!-- Node28 -->
<g id="Node000028" class="node">
<title>Node28</title>
<g id="a_Node000028"><a xlink:href="_grit_processor_8h.html" target="_top" xlink:title=" ">
<polygon fill="white" stroke="#666666" points="872,-305 761,-305 761,-286 872,-286 872,-305"/>
<text text-anchor="middle" x="816.5" y="-293" font-family="Helvetica Neue" font-size="10.00">Grit/GritProcessor.h</text>
</a>
</g>
</g>
<!-- Node16&#45;&gt;Node28 -->
<g id="edge51_Node000016_Node000028" class="edge">
<title>Node16&#45;&gt;Node28</title>
<g id="a_edge51_Node000016_Node000028"><a xlink:title=" ">
<path fill="none" stroke="#63b8ff" d="M702.35,-340.98C724.62,-332.3 759.4,-318.75 784.72,-308.88"/>
<polygon fill="#63b8ff" stroke="#63b8ff" points="786.21,-312.06 794.25,-305.17 783.66,-305.54 786.21,-312.06"/>
</a>
</g>
</g>
<!-- Node30 -->
<g id="Node000030" class="node">
<title>Node30</title>
<g id="a_Node000030"><a xlink:href="_friction_processor_8h.html" target="_top" xlink:title=" ">
<polygon fill="white" stroke="#666666" points="600,-305 453,-305 453,-286 600,-286 600,-305"/>
<text text-anchor="middle" x="526.5" y="-293" font-family="Helvetica Neue" font-size="10.00">Friction/FrictionProcessor.h</text>
</a>
</g>
</g>
<!-- Node16&#45;&gt;Node30 -->
<g id="edge56_Node000016_Node000030" class="edge">
<title>Node16&#45;&gt;Node30</title>
<g id="a_edge56_Node000016_Node000030"><a xlink:title=" ">
<path fill="none" stroke="#63b8ff" d="M655.76,-340.98C630.13,-332.16 589.87,-318.31 561.09,-308.41"/>
<polygon fill="#63b8ff" stroke="#63b8ff" points="562.03,-305.03 551.44,-305.08 559.75,-311.65 562.03,-305.03"/>
</a>
</g>
</g>
<!-- Node32 -->
<g id="Node000032" class="node">
<title>Node32</title>
<g id="a_Node000032"><a xlink:href="_l_f_o_processor_8h.html" target="_top" xlink:title=" ">
<polygon fill="white" stroke="#666666" points="113,-305 0,-305 0,-286 113,-286 113,-305"/>
<text text-anchor="middle" x="56.5" y="-293" font-family="Helvetica Neue" font-size="10.00">LFO/LFOProcessor.h</text>
</a>
</g>
</g>
<!-- Node16&#45;&gt;Node32 -->
<g id="edge61_Node000016_Node000032" class="edge">
<title>Node16&#45;&gt;Node32</title>
<g id="a_edge61_Node000016_Node000032"><a xlink:title=" ">
<path fill="none" stroke="#63b8ff" d="M619.72,-345.62C518.91,-338.98 310.5,-324.34 123.05,-305"/>
<polygon fill="#63b8ff" stroke="#63b8ff" points="123.31,-301.51 113,-303.96 122.59,-308.47 123.31,-301.51"/>
</a>
</g>
</g>
<!-- Node35 -->
<g id="Node000035" class="node">
<title>Node35</title>
<g id="a_Node000035"><a xlink:href="_filter_processor_8h.html" target="_top" xlink:title=" ">
<polygon fill="white" stroke="#666666" points="743,-305 618,-305 618,-286 743,-286 743,-305"/>
<text text-anchor="middle" x="680.5" y="-293" font-family="Helvetica Neue" font-size="10.00">Filter/FilterProcessor.h</text>
</a>
</g>
</g>
<!-- Node16&#45;&gt;Node35 -->
<g id="edge68_Node000016_Node000035" class="edge">
<title>Node16&#45;&gt;Node35</title>
<g id="a_edge68_Node000016_Node000035"><a xlink:title=" ">
<path fill="none" stroke="#63b8ff" d="M680.5,-340.75C680.5,-333.8 680.5,-323.85 680.5,-315.13"/>
<polygon fill="#63b8ff" stroke="#63b8ff" points="684,-315.09 680.5,-305.09 677,-315.09 684,-315.09"/>
</a>
</g>
</g>
<!-- Node17&#45;&gt;Node8 -->
<g id="edge31_Node000017_Node000008" class="edge">
<title>Node17&#45;&gt;Node8</title>
<g id="a_edge31_Node000017_Node000008"><a xlink:title=" ">
<path fill="none" stroke="#63b8ff" d="M890.31,-286.76C806.64,-275.81 664.27,-256.42 654.5,-250 617.29,-225.56 625.13,-202.73 601.5,-165 595.86,-155.99 589.56,-145.97 584.36,-137.73"/>
<polygon fill="#63b8ff" stroke="#63b8ff" points="587.17,-135.62 578.88,-129.02 581.25,-139.35 587.17,-135.62"/>
</a>
</g>
</g>
<!-- Node18 -->
<g id="Node000018" class="node">
<title>Node18</title>
<g id="a_Node000018"><a xlink:href="_gain_u_i_8h.html" target="_top" xlink:title=" ">
<polygon fill="white" stroke="#666666" points="1165,-250 1106,-250 1106,-231 1165,-231 1165,-250"/>
<text text-anchor="middle" x="1135.5" y="-238" font-family="Helvetica Neue" font-size="10.00">GainUI.h</text>
</a>
</g>
</g>
<!-- Node17&#45;&gt;Node18 -->
<g id="edge27_Node000017_Node000018" class="edge">
<title>Node17&#45;&gt;Node18</title>
<g id="a_edge27_Node000017_Node000018"><a xlink:title=" ">
<path fill="none" stroke="#63b8ff" d="M980.22,-285.98C1011.64,-276.98 1061.36,-262.74 1096.05,-252.8"/>
<polygon fill="#63b8ff" stroke="#63b8ff" points="1097.2,-256.11 1105.85,-249.99 1095.27,-249.38 1097.2,-256.11"/>
</a>
</g>
</g>
<!-- Node18&#45;&gt;Node7 -->
<g id="edge28_Node000018_Node000007" class="edge">
<title>Node18&#45;&gt;Node7</title>
<g id="a_edge28_Node000018_Node000007"><a xlink:title=" ">
<path fill="none" stroke="#63b8ff" d="M1134.02,-230.87C1132.62,-222.66 1130.46,-210.04 1128.67,-199.55"/>
<polygon fill="#63b8ff" stroke="#63b8ff" points="1132.12,-198.93 1126.98,-189.67 1125.22,-200.11 1132.12,-198.93"/>
</a>
</g>
</g>
<!-- Node19 -->
<g id="Node000019" class="node">
<title>Node19</title>
<g id="a_Node000019"><a xlink:href="_phi_dial_8h.html" target="_top" xlink:title=" ">
<polygon fill="white" stroke="#666666" points="1045,-195 944,-195 944,-165 1045,-165 1045,-195"/>
<text text-anchor="start" x="952" y="-183" font-family="Helvetica Neue" font-size="10.00">../../ui/component</text>
<text text-anchor="middle" x="994.5" y="-172" font-family="Helvetica Neue" font-size="10.00">/PhiDial.h</text>
</a>
</g>
</g>
<!-- Node18&#45;&gt;Node19 -->
<g id="edge29_Node000018_Node000019" class="edge">
<title>Node18&#45;&gt;Node19</title>
<g id="a_edge29_Node000018_Node000019"><a xlink:title=" ">
<path fill="none" stroke="#63b8ff" d="M1115,-230.99C1094.88,-222.65 1063.58,-209.66 1037.92,-199.02"/>
<polygon fill="#63b8ff" stroke="#63b8ff" points="1038.98,-195.66 1028.4,-195.06 1036.29,-202.13 1038.98,-195.66"/>
</a>
</g>
</g>
<!-- Node19&#45;&gt;Node4 -->
<g id="edge30_Node000019_Node000004" class="edge">
<title>Node19&#45;&gt;Node4</title>
<g id="a_edge30_Node000019_Node000004"><a xlink:title=" ">
<path fill="none" stroke="#63b8ff" d="M1024.57,-164.92C1093.21,-132.8 1260.56,-54.47 1326.83,-23.45"/>
<polygon fill="#63b8ff" stroke="#63b8ff" points="1328.63,-26.47 1336.21,-19.06 1325.67,-20.13 1328.63,-26.47"/>
</a>
</g>
</g>
<!-- Node20&#45;&gt;Node8 -->
<g id="edge37_Node000020_Node000008" class="edge">
<title>Node20&#45;&gt;Node8</title>
<g id="a_edge37_Node000020_Node000008"><a xlink:title=" ">
<path fill="none" stroke="#63b8ff" d="M369.16,-285.87C403.48,-258.1 511.36,-170.79 554.95,-135.51"/>
<polygon fill="#63b8ff" stroke="#63b8ff" points="557.2,-138.19 562.77,-129.18 552.8,-132.75 557.2,-138.19"/>
</a>
</g>
</g>
<!-- Node21 -->
<g id="Node000021" class="node">
<title>Node21</title>
<g id="a_Node000021"><a xlink:href="_impulse_u_i_8h.html" target="_top" xlink:title=" ">
<polygon fill="white" stroke="#666666" points="845,-250 770,-250 770,-231 845,-231 845,-250"/>
<text text-anchor="middle" x="807.5" y="-238" font-family="Helvetica Neue" font-size="10.00">ImpulseUI.h</text>
</a>
</g>
</g>
<!-- Node20&#45;&gt;Node21 -->
<g id="edge33_Node000020_Node000021" class="edge">
<title>Node20&#45;&gt;Node21</title>
<g id="a_edge33_Node000020_Node000021"><a xlink:title=" ">
<path fill="none" stroke="#63b8ff" d="M435.09,-286.66C529.27,-276.91 684.84,-260.43 759.8,-249.98"/>
<polygon fill="#63b8ff" stroke="#63b8ff" points="760.42,-253.43 769.83,-248.55 759.43,-246.5 760.42,-253.43"/>
</a>
</g>
</g>
<!-- Node21&#45;&gt;Node7 -->
<g id="edge34_Node000021_Node000007" class="edge">
<title>Node21&#45;&gt;Node7</title>
<g id="a_edge34_Node000021_Node000007"><a xlink:title=" ">
<path fill="none" stroke="#63b8ff" d="M845.19,-232.69C913.49,-220.34 1050.94,-195.48 1053.5,-195 1059.82,-193.81 1066.46,-192.55 1073.03,-191.29"/>
<polygon fill="#63b8ff" stroke="#63b8ff" points="1074.1,-194.64 1083.26,-189.31 1072.78,-187.77 1074.1,-194.64"/>
</a>
</g>
</g>
<!-- Node21&#45;&gt;Node19 -->
<g id="edge35_Node000021_Node000019" class="edge">
<title>Node21&#45;&gt;Node19</title>
<g id="a_edge35_Node000021_Node000019"><a xlink:title=" ">
<path fill="none" stroke="#63b8ff" d="M834.69,-230.99C862.07,-222.43 905.09,-208.97 939.6,-198.18"/>
<polygon fill="#63b8ff" stroke="#63b8ff" points="941.04,-201.39 949.54,-195.06 938.95,-194.71 941.04,-201.39"/>
</a>
</g>
</g>
<!-- Node22 -->
<g id="Node000022" class="node">
<title>Node22</title>
<g id="a_Node000022"><a xlink:href="_phi_waveform_8h.html" target="_top" xlink:title=" ">
<polygon fill="white" stroke="#666666" points="828,-195 727,-195 727,-165 828,-165 828,-195"/>
<text text-anchor="start" x="735" y="-183" font-family="Helvetica Neue" font-size="10.00">../../ui/component</text>
<text text-anchor="middle" x="777.5" y="-172" font-family="Helvetica Neue" font-size="10.00">/PhiWaveform.h</text>
</a>
</g>
</g>
<!-- Node21&#45;&gt;Node22 -->
<g id="edge36_Node000021_Node000022" class="edge">
<title>Node21&#45;&gt;Node22</title>
<g id="a_edge36_Node000021_Node000022"><a xlink:title=" ">
<path fill="none" stroke="#63b8ff" d="M803.07,-230.87C799.46,-223.81 794.17,-213.5 789.34,-204.08"/>
<polygon fill="#63b8ff" stroke="#63b8ff" points="792.42,-202.42 784.74,-195.11 786.19,-205.61 792.42,-202.42"/>
</a>
</g>
</g>
<!-- Node23&#45;&gt;Node8 -->
<g id="edge41_Node000023_Node000008" class="edge">
<title>Node23&#45;&gt;Node8</title>
<g id="a_edge41_Node000023_Node000008"><a xlink:title=" ">
<path fill="none" stroke="#63b8ff" d="M1028.87,-286.96C911.36,-274.4 688.42,-250.52 687.5,-250 646.38,-226.65 655.54,-199.78 623.5,-165 613.88,-154.56 602.05,-143.94 592.31,-135.7"/>
<polygon fill="#63b8ff" stroke="#63b8ff" points="594.33,-132.83 584.4,-129.13 589.86,-138.22 594.33,-132.83"/>
</a>
</g>
</g>
<!-- Node24 -->
<g id="Node000024" class="node">
<title>Node24</title>
<g id="a_Node000024"><a xlink:href="_output_u_i_8h.html" target="_top" xlink:title=" ">
<polygon fill="white" stroke="#666666" points="1335,-250 1266,-250 1266,-231 1335,-231 1335,-250"/>
<text text-anchor="middle" x="1300.5" y="-238" font-family="Helvetica Neue" font-size="10.00">OutputUI.h</text>
</a>
</g>
</g>
<!-- Node23&#45;&gt;Node24 -->
<g id="edge39_Node000023_Node000024" class="edge">
<title>Node23&#45;&gt;Node24</title>
<g id="a_edge39_Node000023_Node000024"><a xlink:title=" ">
<path fill="none" stroke="#63b8ff" d="M1131.79,-285.98C1166.12,-276.93 1220.56,-262.58 1258.27,-252.64"/>
<polygon fill="#63b8ff" stroke="#63b8ff" points="1259.18,-256.02 1267.95,-250.08 1257.39,-249.25 1259.18,-256.02"/>
</a>
</g>
</g>
<!-- Node24&#45;&gt;Node7 -->
<g id="edge40_Node000024_Node000007" class="edge">
<title>Node24&#45;&gt;Node7</title>
<g id="a_edge40_Node000024_Node000007"><a xlink:title=" ">
<path fill="none" stroke="#63b8ff" d="M1275.05,-230.99C1244.86,-220.9 1194.34,-204.01 1160.48,-192.69"/>
<polygon fill="#63b8ff" stroke="#63b8ff" points="1161.57,-189.37 1150.98,-189.52 1159.35,-196.01 1161.57,-189.37"/>
</a>
</g>
</g>
<!-- Node25&#45;&gt;Node8 -->
<g id="edge50_Node000025_Node000008" class="edge">
<title>Node25&#45;&gt;Node8</title>
<g id="a_edge50_Node000025_Node000008"><a xlink:title=" ">
<path fill="none" stroke="#63b8ff" d="M215.89,-285.99C276.85,-257.78 472.54,-167.22 545.62,-133.4"/>
<polygon fill="#63b8ff" stroke="#63b8ff" points="547.1,-136.58 554.7,-129.2 544.16,-130.22 547.1,-136.58"/>
</a>
</g>
</g>
<!-- Node25&#45;&gt;Node9 -->
<g id="edge49_Node000025_Node000009" class="edge">
<title>Node25&#45;&gt;Node9</title>
<g id="a_edge49_Node000025_Node000009"><a xlink:title=" ">
<path fill="none" stroke="#63b8ff" d="M210.57,-285.98C229.45,-273.69 265.5,-250.36 296.5,-231 384.29,-176.16 406.32,-162.54 495.5,-110 513.41,-99.45 533.82,-87.82 549.27,-79.09"/>
<polygon fill="#63b8ff" stroke="#63b8ff" points="551.19,-82.03 558.18,-74.07 547.75,-75.93 551.19,-82.03"/>
</a>
</g>
</g>
<!-- Node26 -->
<g id="Node000026" class="node">
<title>Node26</title>
<g id="a_Node000026"><a xlink:href="_string_u_i_8h.html" target="_top" xlink:title=" ">
<polygon fill="white" stroke="#666666" points="1248,-250 1183,-250 1183,-231 1248,-231 1248,-250"/>
<text text-anchor="middle" x="1215.5" y="-238" font-family="Helvetica Neue" font-size="10.00">StringUI.h</text>
</a>
</g>
</g>
<!-- Node25&#45;&gt;Node26 -->
<g id="edge43_Node000025_Node000026" class="edge">
<title>Node25&#45;&gt;Node26</title>
<g id="a_edge43_Node000025_Node000026"><a xlink:title=" ">
<path fill="none" stroke="#63b8ff" d="M263.73,-286.73C266.69,-286.47 269.63,-286.22 272.5,-286 668.78,-255.67 773.87,-297.2 1172.49,-249.89"/>
<polygon fill="#63b8ff" stroke="#63b8ff" points="1173.05,-253.35 1182.57,-248.68 1172.22,-246.4 1173.05,-253.35"/>
</a>
</g>
</g>
<!-- Node26&#45;&gt;Node7 -->
<g id="edge44_Node000026_Node000007" class="edge">
<title>Node26&#45;&gt;Node7</title>
<g id="a_edge44_Node000026_Node000007"><a xlink:title=" ">
<path fill="none" stroke="#63b8ff" d="M1202.22,-230.87C1187.86,-221.54 1164.74,-206.51 1147.63,-195.38"/>
<polygon fill="#63b8ff" stroke="#63b8ff" points="1149.13,-192.18 1138.83,-189.67 1145.31,-198.05 1149.13,-192.18"/>
</a>
</g>
</g>
<!-- Node26&#45;&gt;Node19 -->
<g id="edge45_Node000026_Node000019" class="edge">
<title>Node26&#45;&gt;Node19</title>
<g id="a_edge45_Node000026_Node000019"><a xlink:title=" ">
<path fill="none" stroke="#63b8ff" d="M1183.36,-230.99C1149.78,-222.1 1096.31,-207.95 1054.82,-196.97"/>
<polygon fill="#63b8ff" stroke="#63b8ff" points="1055.65,-193.57 1045.09,-194.39 1053.86,-200.33 1055.65,-193.57"/>
</a>
</g>
</g>
<!-- Node27 -->
<g id="Node000027" class="node">
<title>Node27</title>
<g id="a_Node000027"><a xlink:href="_phi_slider_button_8h.html" target="_top" xlink:title=" ">
<polygon fill="white" stroke="#666666" points="1586.5,-195 1482.5,-195 1482.5,-165 1586.5,-165 1586.5,-195"/>
<text text-anchor="start" x="1490.5" y="-183" font-family="Helvetica Neue" font-size="10.00">../../ui/component</text>
<text text-anchor="middle" x="1534.5" y="-172" font-family="Helvetica Neue" font-size="10.00">/PhiSliderButton.h</text>
</a>
</g>
</g>
<!-- Node26&#45;&gt;Node27 -->
<g id="edge46_Node000026_Node000027" class="edge">
<title>Node26&#45;&gt;Node27</title>
<g id="a_edge46_Node000026_Node000027"><a xlink:title=" ">
<path fill="none" stroke="#63b8ff" d="M1248.16,-232.65C1250.98,-232.08 1253.79,-231.52 1256.5,-231 1330.49,-216.68 1415.83,-201.53 1472.23,-191.71"/>
<polygon fill="#63b8ff" stroke="#63b8ff" points="1473.17,-195.1 1482.42,-189.94 1471.97,-188.21 1473.17,-195.1"/>
</a>
</g>
</g>
<!-- Node27&#45;&gt;Node4 -->
<g id="edge47_Node000027_Node000004" class="edge">
<title>Node27&#45;&gt;Node4</title>
<g id="a_edge47_Node000027_Node000004"><a xlink:title=" ">
<path fill="none" stroke="#63b8ff" d="M1530.51,-164.66C1522.71,-139.18 1503.12,-85.79 1468.5,-55 1450.47,-38.96 1425.99,-28.39 1404.34,-21.6"/>
<polygon fill="#63b8ff" stroke="#63b8ff" points="1405.2,-18.21 1394.62,-18.74 1403.22,-24.92 1405.2,-18.21"/>
</a>
</g>
</g>
<!-- Node27&#45;&gt;Node6 -->
<g id="edge48_Node000027_Node000006" class="edge">
<title>Node27&#45;&gt;Node6</title>
<g id="a_edge48_Node000027_Node000006"><a xlink:title=" ">
<path fill="none" stroke="#63b8ff" d="M1561.57,-164.99C1579.75,-155.58 1603.57,-143.24 1621.52,-133.95"/>
<polygon fill="#63b8ff" stroke="#63b8ff" points="1623.54,-136.84 1630.81,-129.14 1620.32,-130.63 1623.54,-136.84"/>
</a>
</g>
</g>
<!-- Node28&#45;&gt;Node8 -->
<g id="edge55_Node000028_Node000008" class="edge">
<title>Node28&#45;&gt;Node8</title>
<g id="a_edge55_Node000028_Node000008"><a xlink:title=" ">
<path fill="none" stroke="#63b8ff" d="M766.27,-285.98C710.75,-276.14 627.62,-260.04 616.5,-250 599.83,-234.94 584.26,-171.13 577.31,-139.06"/>
<polygon fill="#63b8ff" stroke="#63b8ff" points="580.71,-138.23 575.22,-129.17 573.86,-139.68 580.71,-138.23"/>
</a>
</g>
</g>
<!-- Node29 -->
<g id="Node000029" class="node">
<title>Node29</title>
<g id="a_Node000029"><a xlink:href="_grit_u_i_8h.html" target="_top" xlink:title=" ">
<polygon fill="white" stroke="#666666" points="1087.5,-250 1033.5,-250 1033.5,-231 1087.5,-231 1087.5,-250"/>
<text text-anchor="middle" x="1060.5" y="-238" font-family="Helvetica Neue" font-size="10.00">GritUI.h</text>
</a>
</g>
</g>
<!-- Node28&#45;&gt;Node29 -->
<g id="edge52_Node000028_Node000029" class="edge">
<title>Node28&#45;&gt;Node29</title>
<g id="a_edge52_Node000028_Node000029"><a xlink:title=" ">
<path fill="none" stroke="#63b8ff" d="M856.99,-285.97C898.75,-277.13 965.73,-262.84 1023.5,-250 1023.6,-249.98 1023.7,-249.96 1023.8,-249.93"/>
<polygon fill="#63b8ff" stroke="#63b8ff" points="1024.45,-253.38 1033.43,-247.76 1022.91,-246.55 1024.45,-253.38"/>
</a>
</g>
</g>
<!-- Node29&#45;&gt;Node7 -->
<g id="edge53_Node000029_Node000007" class="edge">
<title>Node29&#45;&gt;Node7</title>
<g id="a_edge53_Node000029_Node000007"><a xlink:title=" ">
<path fill="none" stroke="#63b8ff" d="M1070.09,-230.87C1080.08,-221.88 1095.93,-207.61 1108.13,-196.64"/>
<polygon fill="#63b8ff" stroke="#63b8ff" points="1110.78,-198.96 1115.87,-189.67 1106.1,-193.76 1110.78,-198.96"/>
</a>
</g>
</g>
<!-- Node29&#45;&gt;Node19 -->
<g id="edge54_Node000029_Node000019" class="edge">
<title>Node29&#45;&gt;Node19</title>
<g id="a_edge54_Node000029_Node000019"><a xlink:title=" ">
<path fill="none" stroke="#63b8ff" d="M1050.76,-230.87C1042.14,-223.22 1029.2,-211.76 1017.91,-201.75"/>
<polygon fill="#63b8ff" stroke="#63b8ff" points="1020.23,-199.13 1010.42,-195.11 1015.59,-204.37 1020.23,-199.13"/>
</a>
</g>
</g>
<!-- Node30&#45;&gt;Node8 -->
<g id="edge60_Node000030_Node000008" class="edge">
<title>Node30&#45;&gt;Node8</title>
<g id="a_edge60_Node000030_Node000008"><a xlink:title=" ">
<path fill="none" stroke="#63b8ff" d="M525.92,-285.96C524.78,-264.69 523.69,-207.96 540.5,-165 544.51,-154.74 551.54,-144.75 558.09,-136.84"/>
<polygon fill="#63b8ff" stroke="#63b8ff" points="560.86,-138.99 564.83,-129.17 555.6,-134.37 560.86,-138.99"/>
</a>
</g>
</g>
<!-- Node31 -->
<g id="Node000031" class="node">
<title>Node31</title>
<g id="a_Node000031"><a xlink:href="_friction_u_i_8h.html" target="_top" xlink:title=" ">
<polygon fill="white" stroke="#666666" points="935.5,-250 863.5,-250 863.5,-231 935.5,-231 935.5,-250"/>
<text text-anchor="middle" x="899.5" y="-238" font-family="Helvetica Neue" font-size="10.00">FrictionUI.h</text>
</a>
</g>
</g>
<!-- Node30&#45;&gt;Node31 -->
<g id="edge57_Node000030_Node000031" class="edge">
<title>Node30&#45;&gt;Node31</title>
<g id="a_edge57_Node000030_Node000031"><a xlink:title=" ">
<path fill="none" stroke="#63b8ff" d="M596.17,-285.99C662.47,-277.67 764.97,-264.2 853.5,-250 853.6,-249.98 853.7,-249.97 853.8,-249.95"/>
<polygon fill="#63b8ff" stroke="#63b8ff" points="854.09,-253.45 863.37,-248.34 852.93,-246.55 854.09,-253.45"/>
</a>
</g>
</g>
<!-- Node31&#45;&gt;Node7 -->
<g id="edge58_Node000031_Node000007" class="edge">
<title>Node31&#45;&gt;Node7</title>
<g id="a_edge58_Node000031_Node000007"><a xlink:title=" ">
<path fill="none" stroke="#63b8ff" d="M932.36,-230.99C972.11,-220.7 1039.13,-203.36 1082.83,-192.04"/>
<polygon fill="#63b8ff" stroke="#63b8ff" points="1083.79,-195.41 1092.6,-189.52 1082.04,-188.63 1083.79,-195.41"/>
</a>
</g>
</g>
<!-- Node31&#45;&gt;Node19 -->
<g id="edge59_Node000031_Node000019" class="edge">
<title>Node31&#45;&gt;Node19</title>
<g id="a_edge59_Node000031_Node000019"><a xlink:title=" ">
<path fill="none" stroke="#63b8ff" d="M913.52,-230.87C926.41,-222.93 945.99,-210.87 962.67,-200.6"/>
<polygon fill="#63b8ff" stroke="#63b8ff" points="964.9,-203.34 971.58,-195.11 961.23,-197.38 964.9,-203.34"/>
</a>
</g>
</g>
<!-- Node32&#45;&gt;Node8 -->
<g id="edge67_Node000032_Node000008" class="edge">
<title>Node32&#45;&gt;Node8</title>
<g id="a_edge67_Node000032_Node000008"><a xlink:title=" ">
<path fill="none" stroke="#63b8ff" d="M78.51,-285.89C134.26,-264.23 285.78,-206.23 414.5,-165 453.3,-152.57 498.02,-140.23 530.13,-131.71"/>
<polygon fill="#63b8ff" stroke="#63b8ff" points="531.32,-135.01 540.09,-129.08 529.53,-128.25 531.32,-135.01"/>
</a>
</g>
</g>
<!-- Node33 -->
<g id="Node000033" class="node">
<title>Node33</title>
<g id="a_Node000033"><a xlink:href="_l_f_o_8h.html" target="_top" xlink:title=" ">
<polygon fill="white" stroke="#666666" points="78.5,-250 34.5,-250 34.5,-231 78.5,-231 78.5,-250"/>
<text text-anchor="middle" x="56.5" y="-238" font-family="Helvetica Neue" font-size="10.00">LFO.h</text>
</a>
</g>
</g>
<!-- Node32&#45;&gt;Node33 -->
<g id="edge62_Node000032_Node000033" class="edge">
<title>Node32&#45;&gt;Node33</title>
<g id="a_edge62_Node000032_Node000033"><a xlink:title=" ">
<path fill="none" stroke="#63b8ff" d="M56.5,-285.75C56.5,-278.8 56.5,-268.85 56.5,-260.13"/>
<polygon fill="#63b8ff" stroke="#63b8ff" points="60,-260.09 56.5,-250.09 53,-260.09 60,-260.09"/>
</a>
</g>
</g>
<!-- Node34 -->
<g id="Node000034" class="node">
<title>Node34</title>
<g id="a_Node000034"><a xlink:href="_l_f_o_u_i_8h.html" target="_top" xlink:title=" ">
<polygon fill="white" stroke="#666666" points="752,-250 697,-250 697,-231 752,-231 752,-250"/>
<text text-anchor="middle" x="724.5" y="-238" font-family="Helvetica Neue" font-size="10.00">LFOUI.h</text>
</a>
</g>
</g>
<!-- Node32&#45;&gt;Node34 -->
<g id="edge63_Node000032_Node000034" class="edge">
<title>Node32&#45;&gt;Node34</title>
<g id="a_edge63_Node000032_Node000034"><a xlink:title=" ">
<path fill="none" stroke="#63b8ff" d="M113,-287.02C116.21,-286.66 119.4,-286.31 122.5,-286 335.34,-264.44 591.52,-248.97 686.59,-243.59"/>
<polygon fill="#63b8ff" stroke="#63b8ff" points="687.06,-247.06 696.85,-243.01 686.67,-240.08 687.06,-247.06"/>
</a>
</g>
</g>
<!-- Node34&#45;&gt;Node7 -->
<g id="edge64_Node000034_Node000007" class="edge">
<title>Node34&#45;&gt;Node7</title>
<g id="a_edge64_Node000034_Node000007"><a xlink:title=" ">
<path fill="none" stroke="#63b8ff" d="M752.35,-232.61C755.09,-232.02 757.84,-231.48 760.5,-231 889.65,-207.89 923.92,-215.53 1053.5,-195 1060.18,-193.94 1067.18,-192.72 1074.09,-191.45"/>
<polygon fill="#63b8ff" stroke="#63b8ff" points="1074.91,-194.86 1084.09,-189.57 1073.61,-187.98 1074.91,-194.86"/>
</a>
</g>
</g>
<!-- Node34&#45;&gt;Node19 -->
<g id="edge65_Node000034_Node000019" class="edge">
<title>Node34&#45;&gt;Node19</title>
<g id="a_edge65_Node000034_Node000019"><a xlink:title=" ">
<path fill="none" stroke="#63b8ff" d="M752,-232.94C754.87,-232.28 757.74,-231.62 760.5,-231 819.22,-217.8 886.41,-203.52 933.69,-193.62"/>
<polygon fill="#63b8ff" stroke="#63b8ff" points="934.69,-196.99 943.76,-191.51 933.26,-190.14 934.69,-196.99"/>
</a>
</g>
</g>
<!-- Node34&#45;&gt;Node22 -->
<g id="edge66_Node000034_Node000022" class="edge">
<title>Node34&#45;&gt;Node22</title>
<g id="a_edge66_Node000034_Node000022"><a xlink:title=" ">
<path fill="none" stroke="#63b8ff" d="M732.32,-230.87C739.05,-223.44 749.04,-212.42 757.91,-202.62"/>
<polygon fill="#63b8ff" stroke="#63b8ff" points="760.59,-204.88 764.71,-195.11 755.4,-200.18 760.59,-204.88"/>
</a>
</g>
</g>
<!-- Node35&#45;&gt;Node8 -->
<g id="edge72_Node000035_Node000008" class="edge">
<title>Node35&#45;&gt;Node8</title>
<g id="a_edge72_Node000035_Node000008"><a xlink:title=" ">
<path fill="none" stroke="#63b8ff" d="M634.48,-285.98C613.84,-279.66 591.3,-268.75 578.5,-250 555.63,-216.51 562.49,-165.98 568.55,-139.01"/>
<polygon fill="#63b8ff" stroke="#63b8ff" points="572.02,-139.56 571.01,-129.01 565.22,-137.88 572.02,-139.56"/>
</a>
</g>
</g>
<!-- Node36 -->
<g id="Node000036" class="node">
<title>Node36</title>
<g id="a_Node000036"><a xlink:href="_filter_u_i_8h.html" target="_top" xlink:title=" ">
<polygon fill="white" stroke="#666666" points="1015,-250 954,-250 954,-231 1015,-231 1015,-250"/>
<text text-anchor="middle" x="984.5" y="-238" font-family="Helvetica Neue" font-size="10.00">FilterUI.h</text>
</a>
</g>
</g>
<!-- Node35&#45;&gt;Node36 -->
<g id="edge69_Node000035_Node000036" class="edge">
<title>Node35&#45;&gt;Node36</title>
<g id="a_edge69_Node000035_Node000036"><a xlink:title=" ">
<path fill="none" stroke="#63b8ff" d="M735.23,-285.97C786.51,-277.82 865.55,-264.86 943.9,-250.04"/>
<polygon fill="#63b8ff" stroke="#63b8ff" points="944.78,-253.44 953.95,-248.13 943.47,-246.56 944.78,-253.44"/>
</a>
</g>
</g>
<!-- Node36&#45;&gt;Node7 -->
<g id="edge70_Node000036_Node000007" class="edge">
<title>Node36&#45;&gt;Node7</title>
<g id="a_edge70_Node000036_Node000007"><a xlink:title=" ">
<path fill="none" stroke="#63b8ff" d="M1005,-230.99C1028.81,-221.12 1068.29,-204.73 1095.54,-193.43"/>
<polygon fill="#63b8ff" stroke="#63b8ff" points="1097.08,-196.58 1104.97,-189.52 1094.39,-190.12 1097.08,-196.58"/>
</a>
</g>
</g>
<!-- Node36&#45;&gt;Node19 -->
<g id="edge71_Node000036_Node000019" class="edge">
<title>Node36&#45;&gt;Node19</title>
<g id="a_edge71_Node000036_Node000019"><a xlink:title=" ">
<path fill="none" stroke="#63b8ff" d="M985.98,-230.87C987.13,-224.11 988.8,-214.35 990.35,-205.26"/>
<polygon fill="#63b8ff" stroke="#63b8ff" points="993.85,-205.56 992.09,-195.11 986.95,-204.38 993.85,-205.56"/>
</a>
</g>
</g>
<!-- Node37&#45;&gt;Node2 -->
<g id="edge77_Node000037_Node000002" class="edge">
<title>Node37&#45;&gt;Node2</title>
<g id="a_edge77_Node000037_Node000002"><a xlink:title=" ">
<path fill="none" stroke="#63b8ff" d="M1609.33,-450.98C1586.73,-442.3 1551.44,-428.75 1525.75,-418.88"/>
<polygon fill="#63b8ff" stroke="#63b8ff" points="1526.67,-415.49 1516.08,-415.17 1524.16,-422.02 1526.67,-415.49"/>
</a>
</g>
</g>
<!-- Node37&#45;&gt;Node3 -->
<g id="edge74_Node000037_Node000003" class="edge">
<title>Node37&#45;&gt;Node3</title>
<g id="a_edge74_Node000037_Node000003"><a xlink:title=" ">
<path fill="none" stroke="#63b8ff" d="M1636.31,-450.81C1650.79,-423.37 1690.61,-337.39 1651.5,-286 1636.94,-266.87 1573.69,-253.85 1530.93,-247.05"/>
<polygon fill="#63b8ff" stroke="#63b8ff" points="1531.23,-243.56 1520.82,-245.5 1530.17,-250.48 1531.23,-243.56"/>
</a>
</g>
</g>
<!-- Node37&#45;&gt;Node13 -->
<g id="edge78_Node000037_Node000013" class="edge">
<title>Node37&#45;&gt;Node13</title>
<g id="a_edge78_Node000037_Node000013"><a xlink:title=" ">
<path fill="none" stroke="#63b8ff" d="M1661.4,-450.87C1680.94,-443.91 1705.82,-432.39 1722.5,-415 1766.06,-369.58 1786.96,-295.11 1794.74,-260.41"/>
<polygon fill="#63b8ff" stroke="#63b8ff" points="1798.24,-260.77 1796.89,-250.26 1791.39,-259.32 1798.24,-260.77"/>
</a>
</g>
</g>
<!-- Node37&#45;&gt;Node27 -->
<g id="edge79_Node000037_Node000027" class="edge">
<title>Node37&#45;&gt;Node27</title>
<g id="a_edge79_Node000037_Node000027"><a xlink:title=" ">
<path fill="none" stroke="#63b8ff" d="M1641.4,-450.98C1650.38,-442.7 1663.28,-429.31 1670.5,-415 1696.32,-363.81 1701.15,-334.45 1670.5,-286 1646.33,-247.8 1603.12,-218.03 1571.88,-200.1"/>
<polygon fill="#63b8ff" stroke="#63b8ff" points="1573.45,-196.96 1563.01,-195.14 1570.03,-203.07 1573.45,-196.96"/>
</a>
</g>
</g>
<!-- Node38 -->
<g id="Node000038" class="node">
<title>Node38</title>
<g id="a_Node000038"><a xlink:href="_file_manager_8h.html" target="_top" xlink:title=" ">
<polygon fill="white" stroke="#666666" points="1640.5,-415 1546.5,-415 1546.5,-396 1640.5,-396 1640.5,-415"/>
<text text-anchor="middle" x="1593.5" y="-403" font-family="Helvetica Neue" font-size="10.00">../FileManager.h</text>
</a>
</g>
</g>
<!-- Node37&#45;&gt;Node38 -->
<g id="edge75_Node000037_Node000038" class="edge">
<title>Node37&#45;&gt;Node38</title>
<g id="a_edge75_Node000037_Node000038"><a xlink:title=" ">
<path fill="none" stroke="#63b8ff" d="M1625.23,-450.75C1619.91,-443.34 1612.14,-432.5 1605.62,-423.41"/>
<polygon fill="#63b8ff" stroke="#63b8ff" points="1608.33,-421.18 1599.66,-415.09 1602.64,-425.26 1608.33,-421.18"/>
</a>
</g>
</g>
<!-- Node38&#45;&gt;Node3 -->
<g id="edge76_Node000038_Node000003" class="edge">
<title>Node38&#45;&gt;Node3</title>
<g id="a_edge76_Node000038_Node000003"><a xlink:title=" ">
<path fill="none" stroke="#63b8ff" d="M1587.96,-395.74C1571.62,-369.87 1523.35,-293.48 1501.48,-258.88"/>
<polygon fill="#63b8ff" stroke="#63b8ff" points="1504.37,-256.89 1496.07,-250.31 1498.45,-260.63 1504.37,-256.89"/>
</a>
</g>
</g>
</g>
</svg>
