<?xml version="1.0" encoding="UTF-8" standalone="no"?>
<!DOCTYPE svg PUBLIC "-//W3C//DTD SVG 1.1//EN"
 "http://www.w3.org/Graphics/SVG/1.1/DTD/svg11.dtd">
<!-- Generated by graphviz version 2.43.0 (0)
 -->
<!-- Title: Patcher.h Pages: 1 -->
<svg width="1650pt" height="423pt"
 viewBox="0.00 0.00 1649.50 423.00" xmlns="http://www.w3.org/2000/svg" xmlns:xlink="http://www.w3.org/1999/xlink">
<g id="graph0" class="graph" transform="scale(1 1) rotate(0) translate(4 419)">
<title>Patcher.h</title>
<!-- Node1 -->
<g id="Node000001" class="node">
<title>Node1</title>
<g id="a_Node000001"><a xlink:title=" ">
<polygon fill="#999999" stroke="#666666" points="381.5,-415 320.5,-415 320.5,-396 381.5,-396 381.5,-415"/>
<text text-anchor="middle" x="351" y="-403" font-family="Helvetica Neue" font-size="10.00">Patcher.h</text>
</a>
</g>
</g>
<!-- Node2 -->
<g id="Node000002" class="node">
<title>Node2</title>
<g id="a_Node000002"><a xlink:href="_state_8h.html" target="_top" xlink:title=" ">
<polygon fill="white" stroke="#666666" points="375,-250 315,-250 315,-231 375,-231 375,-250"/>
<text text-anchor="middle" x="345" y="-238" font-family="Helvetica Neue" font-size="10.00">../State.h</text>
</a>
</g>
</g>
<!-- Node1&#45;&gt;Node2 -->
<g id="edge1_Node000001_Node000002" class="edge">
<title>Node1&#45;&gt;Node2</title>
<g id="a_edge1_Node000001_Node000002"><a xlink:title=" ">
<path fill="none" stroke="#63b8ff" d="M357.69,-395.71C371.98,-375.81 402.88,-325.96 387,-286 382.48,-274.63 373.53,-264.48 365.04,-256.76"/>
<polygon fill="#63b8ff" stroke="#63b8ff" points="367.11,-253.92 357.21,-250.14 362.59,-259.27 367.11,-253.92"/>
</a>
</g>
</g>
<!-- Node9 -->
<g id="Node000009" class="node">
<title>Node9</title>
<g id="a_Node000009"><a xlink:href="_module_box_8h.html" target="_top" xlink:title=" ">
<polygon fill="white" stroke="#666666" points="337,-360 257,-360 257,-341 337,-341 337,-360"/>
<text text-anchor="middle" x="297" y="-348" font-family="Helvetica Neue" font-size="10.00">ModuleBox.h</text>
</a>
</g>
</g>
<!-- Node1&#45;&gt;Node9 -->
<g id="edge11_Node000001_Node000009" class="edge">
<title>Node1&#45;&gt;Node9</title>
<g id="a_edge11_Node000001_Node000009"><a xlink:title=" ">
<path fill="none" stroke="#63b8ff" d="M342.08,-395.75C334.22,-388.03 322.57,-376.6 313.08,-367.28"/>
<polygon fill="#63b8ff" stroke="#63b8ff" points="315.34,-364.6 305.75,-360.09 310.44,-369.59 315.34,-364.6"/>
</a>
</g>
</g>
<!-- Node14 -->
<g id="Node000014" class="node">
<title>Node14</title>
<g id="a_Node000014"><a xlink:href="_connections_8h.html" target="_top" xlink:title=" ">
<polygon fill="white" stroke="#666666" points="86,-305 0,-305 0,-286 86,-286 86,-305"/>
<text text-anchor="middle" x="43" y="-293" font-family="Helvetica Neue" font-size="10.00">Connections.h</text>
</a>
</g>
</g>
<!-- Node1&#45;&gt;Node14 -->
<g id="edge21_Node000001_Node000014" class="edge">
<title>Node1&#45;&gt;Node14</title>
<g id="a_edge21_Node000001_Node000014"><a xlink:title=" ">
<path fill="none" stroke="#63b8ff" d="M326.57,-395.94C271.99,-376.79 139.99,-330.51 77.24,-308.51"/>
<polygon fill="#63b8ff" stroke="#63b8ff" points="78.02,-305.07 67.43,-305.07 75.71,-311.68 78.02,-305.07"/>
</a>
</g>
</g>
<!-- Node15 -->
<g id="Node000015" class="node">
<title>Node15</title>
<g id="a_Node000015"><a xlink:href="_modules_8h.html" target="_top" xlink:title=" ">
<polygon fill="white" stroke="#666666" points="1083.5,-360 962.5,-360 962.5,-341 1083.5,-341 1083.5,-360"/>
<text text-anchor="middle" x="1023" y="-348" font-family="Helvetica Neue" font-size="10.00">../modules/Modules.h</text>
</a>
</g>
</g>
<!-- Node1&#45;&gt;Node15 -->
<g id="edge24_Node000001_Node000015" class="edge">
<title>Node1&#45;&gt;Node15</title>
<g id="a_edge24_Node000001_Node000015"><a xlink:title=" ">
<path fill="none" stroke="#63b8ff" d="M381.62,-402.08C482.73,-394.11 807.73,-368.48 952.4,-357.07"/>
<polygon fill="#63b8ff" stroke="#63b8ff" points="952.8,-360.55 962.5,-356.27 952.25,-353.57 952.8,-360.55"/>
</a>
</g>
</g>
<!-- Node3 -->
<g id="Node000003" class="node">
<title>Node3</title>
<g id="a_Node000003"><a xlink:title=" ">
<polygon fill="#e0e0e0" stroke="#999999" points="465,-19 385,-19 385,0 465,0 465,-19"/>
<text text-anchor="middle" x="425" y="-7" font-family="Helvetica Neue" font-size="10.00">JuceHeader.h</text>
</a>
</g>
</g>
<!-- Node2&#45;&gt;Node3 -->
<g id="edge2_Node000002_Node000003" class="edge">
<title>Node2&#45;&gt;Node3</title>
<g id="a_edge2_Node000002_Node000003"><a xlink:title=" ">
<path fill="none" stroke="#63b8ff" d="M346.87,-230.68C349.93,-216.63 356.44,-188.37 364,-165 380.29,-114.64 404.58,-57.07 417.02,-28.52"/>
<polygon fill="#63b8ff" stroke="#63b8ff" points="420.35,-29.64 421.17,-19.07 413.95,-26.82 420.35,-29.64"/>
</a>
</g>
</g>
<!-- Node4 -->
<g id="Node000004" class="node">
<title>Node4</title>
<g id="a_Node000004"><a xlink:href="_phi_theme_8h.html" target="_top" xlink:title=" ">
<polygon fill="white" stroke="#666666" points="317,-189.5 231,-189.5 231,-170.5 317,-170.5 317,-189.5"/>
<text text-anchor="middle" x="274" y="-177.5" font-family="Helvetica Neue" font-size="10.00">ui/PhiTheme.h</text>
</a>
</g>
</g>
<!-- Node2&#45;&gt;Node4 -->
<g id="edge3_Node000002_Node000004" class="edge">
<title>Node2&#45;&gt;Node4</title>
<g id="a_edge3_Node000002_Node000004"><a xlink:title=" ">
<path fill="none" stroke="#63b8ff" d="M334.52,-230.87C323.51,-221.8 305.96,-207.34 292.59,-196.32"/>
<polygon fill="#63b8ff" stroke="#63b8ff" points="294.46,-193.33 284.52,-189.67 290.01,-198.73 294.46,-193.33"/>
</a>
</g>
</g>
<!-- Node6 -->
<g id="Node000006" class="node">
<title>Node6</title>
<g id="a_Node000006"><a xlink:href="_module_u_i_8h.html" target="_top" xlink:title=" ">
<polygon fill="white" stroke="#666666" points="941,-189.5 857,-189.5 857,-170.5 941,-170.5 941,-189.5"/>
<text text-anchor="middle" x="899" y="-177.5" font-family="Helvetica Neue" font-size="10.00">ui/ModuleUI.h</text>
</a>
</g>
</g>
<!-- Node2&#45;&gt;Node6 -->
<g id="edge5_Node000002_Node000006" class="edge">
<title>Node2&#45;&gt;Node6</title>
<g id="a_edge5_Node000002_Node000006"><a xlink:title=" ">
<path fill="none" stroke="#63b8ff" d="M375.18,-236.31C465.17,-226.81 732.47,-198.58 846.5,-186.54"/>
<polygon fill="#63b8ff" stroke="#63b8ff" points="847.15,-189.99 856.72,-185.46 846.41,-183.03 847.15,-189.99"/>
</a>
</g>
</g>
<!-- Node7 -->
<g id="Node000007" class="node">
<title>Node7</title>
<g id="a_Node000007"><a xlink:href="_module_processor_8h.html" target="_top" xlink:title=" ">
<polygon fill="white" stroke="#666666" points="897.5,-129 760.5,-129 760.5,-110 897.5,-110 897.5,-129"/>
<text text-anchor="middle" x="829" y="-117" font-family="Helvetica Neue" font-size="10.00">../dsp/ModuleProcessor.h</text>
</a>
</g>
</g>
<!-- Node2&#45;&gt;Node7 -->
<g id="edge10_Node000002_Node000007" class="edge">
<title>Node2&#45;&gt;Node7</title>
<g id="a_edge10_Node000002_Node000007"><a xlink:title=" ">
<path fill="none" stroke="#63b8ff" d="M373.49,-230.96C402.07,-222.28 447.27,-208.28 486,-195 522.32,-182.55 529.92,-174.92 567,-165 627.71,-148.75 698,-137.2 750.48,-129.94"/>
<polygon fill="#63b8ff" stroke="#63b8ff" points="750.96,-133.41 760.39,-128.59 750.01,-126.47 750.96,-133.41"/>
</a>
</g>
</g>
<!-- Node5 -->
<g id="Node000005" class="node">
<title>Node5</title>
<g id="a_Node000005"><a xlink:href="_phi_colours_8h.html" target="_top" xlink:title=" ">
<polygon fill="white" stroke="#666666" points="312.5,-129 235.5,-129 235.5,-110 312.5,-110 312.5,-129"/>
<text text-anchor="middle" x="274" y="-117" font-family="Helvetica Neue" font-size="10.00">PhiColours.h</text>
</a>
</g>
</g>
<!-- Node4&#45;&gt;Node5 -->
<g id="edge4_Node000004_Node000005" class="edge">
<title>Node4&#45;&gt;Node5</title>
<g id="a_edge4_Node000004_Node000005"><a xlink:title=" ">
<path fill="none" stroke="#63b8ff" d="M274,-170.37C274,-162.25 274,-149.81 274,-139.39"/>
<polygon fill="#63b8ff" stroke="#63b8ff" points="277.5,-139.17 274,-129.17 270.5,-139.17 277.5,-139.17"/>
</a>
</g>
</g>
<!-- Node6&#45;&gt;Node5 -->
<g id="edge6_Node000006_Node000005" class="edge">
<title>Node6&#45;&gt;Node5</title>
<g id="a_edge6_Node000006_Node000005"><a xlink:title=" ">
<path fill="none" stroke="#63b8ff" d="M856.53,-175.03C744.65,-164.55 442.25,-136.25 323.16,-125.1"/>
<polygon fill="#63b8ff" stroke="#63b8ff" points="323.17,-121.59 312.88,-124.14 322.52,-128.56 323.17,-121.59"/>
</a>
</g>
</g>
<!-- Node6&#45;&gt;Node7 -->
<g id="edge7_Node000006_Node000007" class="edge">
<title>Node6&#45;&gt;Node7</title>
<g id="a_edge7_Node000006_Node000007"><a xlink:title=" ">
<path fill="none" stroke="#63b8ff" d="M888.67,-170.37C877.81,-161.3 860.51,-146.84 847.33,-135.82"/>
<polygon fill="#63b8ff" stroke="#63b8ff" points="849.29,-132.89 839.37,-129.17 844.8,-138.27 849.29,-132.89"/>
</a>
</g>
</g>
<!-- Node8 -->
<g id="Node000008" class="node">
<title>Node8</title>
<g id="a_Node000008"><a xlink:href="_utils_8h.html" target="_top" xlink:title=" ">
<polygon fill="white" stroke="#666666" points="529,-74 481,-74 481,-55 529,-55 529,-74"/>
<text text-anchor="middle" x="505" y="-62" font-family="Helvetica Neue" font-size="10.00">Utils.h</text>
</a>
</g>
</g>
<!-- Node7&#45;&gt;Node8 -->
<g id="edge8_Node000007_Node000008" class="edge">
<title>Node7&#45;&gt;Node8</title>
<g id="a_edge8_Node000007_Node000008"><a xlink:title=" ">
<path fill="none" stroke="#63b8ff" d="M776.94,-109.98C710.09,-99.05 595.93,-80.38 539.16,-71.09"/>
<polygon fill="#63b8ff" stroke="#63b8ff" points="539.68,-67.63 529.25,-69.47 538.55,-74.53 539.68,-67.63"/>
</a>
</g>
</g>
<!-- Node8&#45;&gt;Node3 -->
<g id="edge9_Node000008_Node000003" class="edge">
<title>Node8&#45;&gt;Node3</title>
<g id="a_edge9_Node000008_Node000003"><a xlink:title=" ">
<path fill="none" stroke="#63b8ff" d="M492.15,-54.98C479.86,-46.84 461.09,-34.41 446.52,-24.76"/>
<polygon fill="#63b8ff" stroke="#63b8ff" points="448.36,-21.78 438.09,-19.17 444.49,-27.61 448.36,-21.78"/>
</a>
</g>
</g>
<!-- Node9&#45;&gt;Node6 -->
<g id="edge16_Node000009_Node000006" class="edge">
<title>Node9&#45;&gt;Node6</title>
<g id="a_edge16_Node000009_Node000006"><a xlink:title=" ">
<path fill="none" stroke="#63b8ff" d="M314.67,-340.83C365.42,-316.07 511.2,-245.82 562,-231 660.23,-202.34 779.59,-189.58 846.67,-184.32"/>
<polygon fill="#63b8ff" stroke="#63b8ff" points="847.27,-187.79 856.97,-183.54 846.74,-180.81 847.27,-187.79"/>
</a>
</g>
</g>
<!-- Node10 -->
<g id="Node000010" class="node">
<title>Node10</title>
<g id="a_Node000010"><a xlink:href="_port_u_i_8h.html" target="_top" xlink:title=" ">
<polygon fill="white" stroke="#666666" points="198,-305 142,-305 142,-286 198,-286 198,-305"/>
<text text-anchor="middle" x="170" y="-293" font-family="Helvetica Neue" font-size="10.00">PortUI.h</text>
</a>
</g>
</g>
<!-- Node9&#45;&gt;Node10 -->
<g id="edge12_Node000009_Node000010" class="edge">
<title>Node9&#45;&gt;Node10</title>
<g id="a_edge12_Node000009_Node000010"><a xlink:title=" ">
<path fill="none" stroke="#63b8ff" d="M276.6,-340.98C255.98,-332.38 223.89,-318.99 200.31,-309.15"/>
<polygon fill="#63b8ff" stroke="#63b8ff" points="201.35,-305.79 190.78,-305.17 198.66,-312.25 201.35,-305.79"/>
</a>
</g>
</g>
<!-- Node12 -->
<g id="Node000012" class="node">
<title>Node12</title>
<g id="a_Node000012"><a xlink:href="_phi_look_and_feel_8h.html" target="_top" xlink:title=" ">
<polygon fill="white" stroke="#666666" points="296.5,-250 193.5,-250 193.5,-231 296.5,-231 296.5,-250"/>
<text text-anchor="middle" x="245" y="-238" font-family="Helvetica Neue" font-size="10.00">PhiLookAndFeel.h</text>
</a>
</g>
</g>
<!-- Node9&#45;&gt;Node12 -->
<g id="edge17_Node000009_Node000012" class="edge">
<title>Node9&#45;&gt;Node12</title>
<g id="a_edge17_Node000009_Node000012"><a xlink:title=" ">
<path fill="none" stroke="#63b8ff" d="M256.74,-344.2C213.2,-337.54 147.97,-324.57 133,-305 113.37,-279.33 151.63,-262.4 188.66,-252.53"/>
<polygon fill="#63b8ff" stroke="#63b8ff" points="189.67,-255.88 198.52,-250.05 187.97,-249.09 189.67,-255.88"/>
</a>
</g>
</g>
<!-- Node13 -->
<g id="Node000013" class="node">
<title>Node13</title>
<g id="a_Node000013"><a xlink:href="_phi_toggle_button_8h.html" target="_top" xlink:title=" ">
<polygon fill="white" stroke="#666666" points="378,-305 216,-305 216,-286 378,-286 378,-305"/>
<text text-anchor="middle" x="297" y="-293" font-family="Helvetica Neue" font-size="10.00">component/PhiToggleButton.h</text>
</a>
</g>
</g>
<!-- Node9&#45;&gt;Node13 -->
<g id="edge20_Node000009_Node000013" class="edge">
<title>Node9&#45;&gt;Node13</title>
<g id="a_edge20_Node000009_Node000013"><a xlink:title=" ">
<path fill="none" stroke="#63b8ff" d="M297,-340.75C297,-333.8 297,-323.85 297,-315.13"/>
<polygon fill="#63b8ff" stroke="#63b8ff" points="300.5,-315.09 297,-305.09 293.5,-315.09 300.5,-315.09"/>
</a>
</g>
</g>
<!-- Node10&#45;&gt;Node2 -->
<g id="edge13_Node000010_Node000002" class="edge">
<title>Node10&#45;&gt;Node2</title>
<g id="a_edge13_Node000010_Node000002"><a xlink:title=" ">
<path fill="none" stroke="#63b8ff" d="M198.12,-285.98C227.62,-277.05 274.19,-262.94 306.97,-253.02"/>
<polygon fill="#63b8ff" stroke="#63b8ff" points="308.11,-256.33 316.66,-250.08 306.08,-249.63 308.11,-256.33"/>
</a>
</g>
</g>
<!-- Node11 -->
<g id="Node000011" class="node">
<title>Node11</title>
<g id="a_Node000011"><a xlink:href="_hover_popup_8h.html" target="_top" xlink:title=" ">
<polygon fill="white" stroke="#666666" points="276.5,-74 133.5,-74 133.5,-55 276.5,-55 276.5,-74"/>
<text text-anchor="middle" x="205" y="-62" font-family="Helvetica Neue" font-size="10.00">component/HoverPopup.h</text>
</a>
</g>
</g>
<!-- Node10&#45;&gt;Node11 -->
<g id="edge14_Node000010_Node000011" class="edge">
<title>Node10&#45;&gt;Node11</title>
<g id="a_edge14_Node000010_Node000011"><a xlink:title=" ">
<path fill="none" stroke="#63b8ff" d="M171.33,-285.8C176.45,-252.29 194.98,-131.08 202.14,-84.2"/>
<polygon fill="#63b8ff" stroke="#63b8ff" points="205.62,-84.62 203.67,-74.21 198.7,-83.56 205.62,-84.62"/>
</a>
</g>
</g>
<!-- Node11&#45;&gt;Node3 -->
<g id="edge15_Node000011_Node000003" class="edge">
<title>Node11&#45;&gt;Node3</title>
<g id="a_edge15_Node000011_Node000003"><a xlink:title=" ">
<path fill="none" stroke="#63b8ff" d="M240.35,-54.98C278.16,-45.87 338.26,-31.4 379.57,-21.45"/>
<polygon fill="#63b8ff" stroke="#63b8ff" points="380.47,-24.83 389.38,-19.08 378.83,-18.02 380.47,-24.83"/>
</a>
</g>
</g>
<!-- Node12&#45;&gt;Node4 -->
<g id="edge19_Node000012_Node000004" class="edge">
<title>Node12&#45;&gt;Node4</title>
<g id="a_edge19_Node000012_Node000004"><a xlink:title=" ">
<path fill="none" stroke="#63b8ff" d="M249.28,-230.87C253.43,-222.49 259.87,-209.51 265.13,-198.89"/>
<polygon fill="#63b8ff" stroke="#63b8ff" points="268.4,-200.18 269.7,-189.67 262.13,-197.07 268.4,-200.18"/>
</a>
</g>
</g>
<!-- Node12&#45;&gt;Node5 -->
<g id="edge18_Node000012_Node000005" class="edge">
<title>Node12&#45;&gt;Node5</title>
<g id="a_edge18_Node000012_Node000005"><a xlink:title=" ">
<path fill="none" stroke="#63b8ff" d="M238.42,-230.97C228.38,-216.84 211.47,-187.87 222,-165 227.75,-152.52 238.91,-142.24 249.42,-134.71"/>
<polygon fill="#63b8ff" stroke="#63b8ff" points="251.57,-137.49 257.97,-129.05 247.7,-131.65 251.57,-137.49"/>
</a>
</g>
</g>
<!-- Node14&#45;&gt;Node2 -->
<g id="edge22_Node000014_Node000002" class="edge">
<title>Node14&#45;&gt;Node2</title>
<g id="a_edge22_Node000014_Node000002"><a xlink:title=" ">
<path fill="none" stroke="#63b8ff" d="M86.21,-287.72C138.23,-279.43 228.19,-264.68 305,-250 305.1,-249.98 305.2,-249.96 305.3,-249.94"/>
<polygon fill="#63b8ff" stroke="#63b8ff" points="305.76,-253.42 314.89,-248.04 304.4,-246.55 305.76,-253.42"/>
</a>
</g>
</g>
<!-- Node14&#45;&gt;Node5 -->
<g id="edge23_Node000014_Node000005" class="edge">
<title>Node14&#45;&gt;Node5</title>
<g id="a_edge23_Node000014_Node000005"><a xlink:title=" ">
<path fill="none" stroke="#63b8ff" d="M54.46,-285.87C91.4,-258.04 207.72,-170.43 254.36,-135.29"/>
<polygon fill="#63b8ff" stroke="#63b8ff" points="256.59,-137.99 262.48,-129.18 252.38,-132.4 256.59,-137.99"/>
</a>
</g>
</g>
<!-- Node16 -->
<g id="Node000016" class="node">
<title>Node16</title>
<g id="a_Node000016"><a xlink:href="_gain_processor_8h.html" target="_top" xlink:title=" ">
<polygon fill="white" stroke="#666666" points="1381,-305 1261,-305 1261,-286 1381,-286 1381,-305"/>
<text text-anchor="middle" x="1321" y="-293" font-family="Helvetica Neue" font-size="10.00">Gain/GainProcessor.h</text>
</a>
</g>
</g>
<!-- Node15&#45;&gt;Node16 -->
<g id="edge25_Node000015_Node000016" class="edge">
<title>Node15&#45;&gt;Node16</title>
<g id="a_edge25_Node000015_Node000016"><a xlink:title=" ">
<path fill="none" stroke="#63b8ff" d="M1070.88,-340.98C1123.08,-331.7 1206.62,-316.84 1262.62,-306.88"/>
<polygon fill="#63b8ff" stroke="#63b8ff" points="1263.51,-310.28 1272.75,-305.08 1262.29,-303.39 1263.51,-310.28"/>
</a>
</g>
</g>
<!-- Node19 -->
<g id="Node000019" class="node">
<title>Node19</title>
<g id="a_Node000019"><a xlink:href="_impulse_processor_8h.html" target="_top" xlink:title=" ">
<polygon fill="white" stroke="#666666" points="1099.5,-305 946.5,-305 946.5,-286 1099.5,-286 1099.5,-305"/>
<text text-anchor="middle" x="1023" y="-293" font-family="Helvetica Neue" font-size="10.00">Impulse/ImpulseProcessor.h</text>
</a>
</g>
</g>
<!-- Node15&#45;&gt;Node19 -->
<g id="edge31_Node000015_Node000019" class="edge">
<title>Node15&#45;&gt;Node19</title>
<g id="a_edge31_Node000015_Node000019"><a xlink:title=" ">
<path fill="none" stroke="#63b8ff" d="M1023,-340.75C1023,-333.8 1023,-323.85 1023,-315.13"/>
<polygon fill="#63b8ff" stroke="#63b8ff" points="1026.5,-315.09 1023,-305.09 1019.5,-315.09 1026.5,-315.09"/>
</a>
</g>
</g>
<!-- Node22 -->
<g id="Node000022" class="node">
<title>Node22</title>
<g id="a_Node000022"><a xlink:href="_output_processor_8h.html" target="_top" xlink:title=" ">
<polygon fill="white" stroke="#666666" points="763.5,-305 622.5,-305 622.5,-286 763.5,-286 763.5,-305"/>
<text text-anchor="middle" x="693" y="-293" font-family="Helvetica Neue" font-size="10.00">Output/OutputProcessor.h</text>
</a>
</g>
</g>
<!-- Node15&#45;&gt;Node22 -->
<g id="edge37_Node000015_Node000022" class="edge">
<title>Node15&#45;&gt;Node22</title>
<g id="a_edge37_Node000015_Node000022"><a xlink:title=" ">
<path fill="none" stroke="#63b8ff" d="M969.98,-340.98C911.73,-331.63 818.23,-316.61 756.22,-306.65"/>
<polygon fill="#63b8ff" stroke="#63b8ff" points="756.59,-303.17 746.16,-305.04 755.48,-310.08 756.59,-303.17"/>
</a>
</g>
</g>
<!-- Node24 -->
<g id="Node000024" class="node">
<title>Node24</title>
<g id="a_Node000024"><a xlink:href="_string_processor_8h.html" target="_top" xlink:title=" ">
<polygon fill="white" stroke="#666666" points="604,-305 472,-305 472,-286 604,-286 604,-305"/>
<text text-anchor="middle" x="538" y="-293" font-family="Helvetica Neue" font-size="10.00">String/StringProcessor.h</text>
</a>
</g>
</g>
<!-- Node15&#45;&gt;Node24 -->
<g id="edge41_Node000015_Node000024" class="edge">
<title>Node15&#45;&gt;Node24</title>
<g id="a_edge41_Node000015_Node000024"><a xlink:title=" ">
<path fill="none" stroke="#63b8ff" d="M962.21,-342.99C884.18,-334.62 744.33,-319.55 614.39,-305.15"/>
<polygon fill="#63b8ff" stroke="#63b8ff" points="614.58,-301.65 604.25,-304.03 613.8,-308.61 614.58,-301.65"/>
</a>
</g>
</g>
<!-- Node27 -->
<g id="Node000027" class="node">
<title>Node27</title>
<g id="a_Node000027"><a xlink:href="_grit_processor_8h.html" target="_top" xlink:title=" ">
<polygon fill="white" stroke="#666666" points="1510.5,-305 1399.5,-305 1399.5,-286 1510.5,-286 1510.5,-305"/>
<text text-anchor="middle" x="1455" y="-293" font-family="Helvetica Neue" font-size="10.00">Grit/GritProcessor.h</text>
</a>
</g>
</g>
<!-- Node15&#45;&gt;Node27 -->
<g id="edge50_Node000015_Node000027" class="edge">
<title>Node15&#45;&gt;Node27</title>
<g id="a_edge50_Node000015_Node000027"><a xlink:title=" ">
<path fill="none" stroke="#63b8ff" d="M1083.74,-342.31C1154.48,-333.9 1275.15,-319.43 1389.37,-305.07"/>
<polygon fill="#63b8ff" stroke="#63b8ff" points="1389.85,-308.54 1399.34,-303.81 1388.98,-301.59 1389.85,-308.54"/>
</a>
</g>
</g>
<!-- Node29 -->
<g id="Node000029" class="node">
<title>Node29</title>
<g id="a_Node000029"><a xlink:href="_friction_processor_8h.html" target="_top" xlink:title=" ">
<polygon fill="white" stroke="#666666" points="928.5,-305 781.5,-305 781.5,-286 928.5,-286 928.5,-305"/>
<text text-anchor="middle" x="855" y="-293" font-family="Helvetica Neue" font-size="10.00">Friction/FrictionProcessor.h</text>
</a>
</g>
</g>
<!-- Node15&#45;&gt;Node29 -->
<g id="edge55_Node000015_Node000029" class="edge">
<title>Node15&#45;&gt;Node29</title>
<g id="a_edge55_Node000015_Node000029"><a xlink:title=" ">
<path fill="none" stroke="#63b8ff" d="M996.01,-340.98C967.8,-332.09 923.36,-318.07 891.92,-308.15"/>
<polygon fill="#63b8ff" stroke="#63b8ff" points="892.79,-304.75 882.2,-305.08 890.69,-311.43 892.79,-304.75"/>
</a>
</g>
</g>
<!-- Node31 -->
<g id="Node000031" class="node">
<title>Node31</title>
<g id="a_Node000031"><a xlink:href="_l_f_o_processor_8h.html" target="_top" xlink:title=" ">
<polygon fill="white" stroke="#666666" points="1641.5,-305 1528.5,-305 1528.5,-286 1641.5,-286 1641.5,-305"/>
<text text-anchor="middle" x="1585" y="-293" font-family="Helvetica Neue" font-size="10.00">LFO/LFOProcessor.h</text>
</a>
</g>
</g>
<!-- Node15&#45;&gt;Node31 -->
<g id="edge60_Node000015_Node000031" class="edge">
<title>Node15&#45;&gt;Node31</title>
<g id="a_edge60_Node000015_Node000031"><a xlink:title=" ">
<path fill="none" stroke="#63b8ff" d="M1083.52,-344.88C1175.26,-337.7 1355.27,-322.93 1518.09,-305.17"/>
<polygon fill="#63b8ff" stroke="#63b8ff" points="1518.74,-308.62 1528.3,-304.05 1517.97,-301.66 1518.74,-308.62"/>
</a>
</g>
</g>
<!-- Node34 -->
<g id="Node000034" class="node">
<title>Node34</title>
<g id="a_Node000034"><a xlink:href="_filter_processor_8h.html" target="_top" xlink:title=" ">
<polygon fill="white" stroke="#666666" points="1242.5,-305 1117.5,-305 1117.5,-286 1242.5,-286 1242.5,-305"/>
<text text-anchor="middle" x="1180" y="-293" font-family="Helvetica Neue" font-size="10.00">Filter/FilterProcessor.h</text>
</a>
</g>
</g>
<!-- Node15&#45;&gt;Node34 -->
<g id="edge67_Node000015_Node000034" class="edge">
<title>Node15&#45;&gt;Node34</title>
<g id="a_edge67_Node000015_Node000034"><a xlink:title=" ">
<path fill="none" stroke="#63b8ff" d="M1048.22,-340.98C1074.36,-332.16 1115.4,-318.31 1144.73,-308.41"/>
<polygon fill="#63b8ff" stroke="#63b8ff" points="1146.22,-311.6 1154.58,-305.08 1143.98,-304.96 1146.22,-311.6"/>
</a>
</g>
</g>
<!-- Node16&#45;&gt;Node7 -->
<g id="edge30_Node000016_Node000007" class="edge">
<title>Node16&#45;&gt;Node7</title>
<g id="a_edge30_Node000016_Node000007"><a xlink:title=" ">
<path fill="none" stroke="#63b8ff" d="M1329.21,-285.8C1336.54,-277.38 1346.75,-263.9 1351,-250 1359.68,-221.58 1335.72,-168.07 1332,-165 1300.04,-138.66 1041.23,-126.96 907.86,-122.64"/>
<polygon fill="#63b8ff" stroke="#63b8ff" points="907.8,-119.13 897.7,-122.32 907.58,-126.13 907.8,-119.13"/>
</a>
</g>
</g>
<!-- Node17 -->
<g id="Node000017" class="node">
<title>Node17</title>
<g id="a_Node000017"><a xlink:href="_gain_u_i_8h.html" target="_top" xlink:title=" ">
<polygon fill="white" stroke="#666666" points="1085.5,-250 1026.5,-250 1026.5,-231 1085.5,-231 1085.5,-250"/>
<text text-anchor="middle" x="1056" y="-238" font-family="Helvetica Neue" font-size="10.00">GainUI.h</text>
</a>
</g>
</g>
<!-- Node16&#45;&gt;Node17 -->
<g id="edge26_Node000016_Node000017" class="edge">
<title>Node16&#45;&gt;Node17</title>
<g id="a_edge26_Node000016_Node000017"><a xlink:title=" ">
<path fill="none" stroke="#63b8ff" d="M1276.35,-285.98C1232.86,-277.63 1164.62,-264.35 1095.93,-250.16"/>
<polygon fill="#63b8ff" stroke="#63b8ff" points="1096.3,-246.66 1085.8,-248.06 1094.88,-253.52 1096.3,-246.66"/>
</a>
</g>
</g>
<!-- Node17&#45;&gt;Node6 -->
<g id="edge27_Node000017_Node000006" class="edge">
<title>Node17&#45;&gt;Node6</title>
<g id="a_edge27_Node000017_Node000006"><a xlink:title=" ">
<path fill="none" stroke="#63b8ff" d="M1033.17,-230.99C1006.43,-221.03 961.92,-204.45 931.56,-193.13"/>
<polygon fill="#63b8ff" stroke="#63b8ff" points="932.45,-189.73 921.86,-189.52 930.01,-196.29 932.45,-189.73"/>
</a>
</g>
</g>
<!-- Node18 -->
<g id="Node000018" class="node">
<title>Node18</title>
<g id="a_Node000018"><a xlink:href="_phi_dial_8h.html" target="_top" xlink:title=" ">
<polygon fill="white" stroke="#666666" points="1083.5,-195 982.5,-195 982.5,-165 1083.5,-165 1083.5,-195"/>
<text text-anchor="start" x="990.5" y="-183" font-family="Helvetica Neue" font-size="10.00">../../ui/component</text>
<text text-anchor="middle" x="1033" y="-172" font-family="Helvetica Neue" font-size="10.00">/PhiDial.h</text>
</a>
</g>
</g>
<!-- Node17&#45;&gt;Node18 -->
<g id="edge28_Node000017_Node000018" class="edge">
<title>Node17&#45;&gt;Node18</title>
<g id="a_edge28_Node000017_Node000018"><a xlink:title=" ">
<path fill="none" stroke="#63b8ff" d="M1052.61,-230.87C1049.89,-223.96 1045.95,-213.93 1042.31,-204.67"/>
<polygon fill="#63b8ff" stroke="#63b8ff" points="1045.47,-203.14 1038.55,-195.11 1038.95,-205.7 1045.47,-203.14"/>
</a>
</g>
</g>
<!-- Node18&#45;&gt;Node3 -->
<g id="edge29_Node000018_Node000003" class="edge">
<title>Node18&#45;&gt;Node3</title>
<g id="a_edge29_Node000018_Node000003"><a xlink:title=" ">
<path fill="none" stroke="#63b8ff" d="M1012.08,-164.99C987.8,-149.36 946.09,-124.37 907,-110 755.22,-54.2 564.43,-26.52 475.25,-15.89"/>
<polygon fill="#63b8ff" stroke="#63b8ff" points="475.49,-12.39 465.15,-14.7 474.67,-19.34 475.49,-12.39"/>
</a>
</g>
</g>
<!-- Node19&#45;&gt;Node7 -->
<g id="edge36_Node000019_Node000007" class="edge">
<title>Node19&#45;&gt;Node7</title>
<g id="a_edge36_Node000019_Node000007"><a xlink:title=" ">
<path fill="none" stroke="#63b8ff" d="M960.04,-285.95C916.23,-278.66 863.06,-266.7 848,-250 820.32,-219.3 822.38,-166.83 825.9,-139.04"/>
<polygon fill="#63b8ff" stroke="#63b8ff" points="829.37,-139.48 827.36,-129.08 822.45,-138.46 829.37,-139.48"/>
</a>
</g>
</g>
<!-- Node20 -->
<g id="Node000020" class="node">
<title>Node20</title>
<g id="a_Node000020"><a xlink:href="_impulse_u_i_8h.html" target="_top" xlink:title=" ">
<polygon fill="white" stroke="#666666" points="1251.5,-250 1176.5,-250 1176.5,-231 1251.5,-231 1251.5,-250"/>
<text text-anchor="middle" x="1214" y="-238" font-family="Helvetica Neue" font-size="10.00">ImpulseUI.h</text>
</a>
</g>
</g>
<!-- Node19&#45;&gt;Node20 -->
<g id="edge32_Node000019_Node000020" class="edge">
<title>Node19&#45;&gt;Node20</title>
<g id="a_edge32_Node000019_Node000020"><a xlink:title=" ">
<path fill="none" stroke="#63b8ff" d="M1053.69,-285.98C1086.17,-276.97 1137.6,-262.7 1173.41,-252.76"/>
<polygon fill="#63b8ff" stroke="#63b8ff" points="1174.37,-256.13 1183.07,-250.08 1172.5,-249.38 1174.37,-256.13"/>
</a>
</g>
</g>
<!-- Node20&#45;&gt;Node6 -->
<g id="edge33_Node000020_Node000006" class="edge">
<title>Node20&#45;&gt;Node6</title>
<g id="a_edge33_Node000020_Node000006"><a xlink:title=" ">
<path fill="none" stroke="#63b8ff" d="M1176.17,-232.5C1128.88,-223.75 1045.45,-208.29 974,-195 966.58,-193.62 958.74,-192.16 951.04,-190.72"/>
<polygon fill="#63b8ff" stroke="#63b8ff" points="951.52,-187.25 941.05,-188.86 950.23,-194.13 951.52,-187.25"/>
</a>
</g>
</g>
<!-- Node20&#45;&gt;Node18 -->
<g id="edge34_Node000020_Node000018" class="edge">
<title>Node20&#45;&gt;Node18</title>
<g id="a_edge34_Node000020_Node000018"><a xlink:title=" ">
<path fill="none" stroke="#63b8ff" d="M1187.68,-230.99C1161.18,-222.43 1119.54,-208.97 1086.14,-198.18"/>
<polygon fill="#63b8ff" stroke="#63b8ff" points="1087.11,-194.81 1076.52,-195.06 1084.95,-201.47 1087.11,-194.81"/>
</a>
</g>
</g>
<!-- Node21 -->
<g id="Node000021" class="node">
<title>Node21</title>
<g id="a_Node000021"><a xlink:href="_phi_waveform_8h.html" target="_top" xlink:title=" ">
<polygon fill="white" stroke="#666666" points="1294.5,-195 1193.5,-195 1193.5,-165 1294.5,-165 1294.5,-195"/>
<text text-anchor="start" x="1201.5" y="-183" font-family="Helvetica Neue" font-size="10.00">../../ui/component</text>
<text text-anchor="middle" x="1244" y="-172" font-family="Helvetica Neue" font-size="10.00">/PhiWaveform.h</text>
</a>
</g>
</g>
<!-- Node20&#45;&gt;Node21 -->
<g id="edge35_Node000020_Node000021" class="edge">
<title>Node20&#45;&gt;Node21</title>
<g id="a_edge35_Node000020_Node000021"><a xlink:title=" ">
<path fill="none" stroke="#63b8ff" d="M1218.43,-230.87C1222.04,-223.81 1227.33,-213.5 1232.16,-204.08"/>
<polygon fill="#63b8ff" stroke="#63b8ff" points="1235.31,-205.61 1236.76,-195.11 1229.08,-202.42 1235.31,-205.61"/>
</a>
</g>
</g>
<!-- Node22&#45;&gt;Node7 -->
<g id="edge40_Node000022_Node000007" class="edge">
<title>Node22&#45;&gt;Node7</title>
<g id="a_edge40_Node000022_Node000007"><a xlink:title=" ">
<path fill="none" stroke="#63b8ff" d="M692.56,-285.77C691.91,-263.05 693.23,-201.35 724,-165 737.46,-149.1 757.59,-138.75 776.64,-132.08"/>
<polygon fill="#63b8ff" stroke="#63b8ff" points="777.73,-135.41 786.17,-129 775.57,-128.75 777.73,-135.41"/>
</a>
</g>
</g>
<!-- Node23 -->
<g id="Node000023" class="node">
<title>Node23</title>
<g id="a_Node000023"><a xlink:href="_output_u_i_8h.html" target="_top" xlink:title=" ">
<polygon fill="white" stroke="#666666" points="800.5,-250 731.5,-250 731.5,-231 800.5,-231 800.5,-250"/>
<text text-anchor="middle" x="766" y="-238" font-family="Helvetica Neue" font-size="10.00">OutputUI.h</text>
</a>
</g>
</g>
<!-- Node22&#45;&gt;Node23 -->
<g id="edge38_Node000022_Node000023" class="edge">
<title>Node22&#45;&gt;Node23</title>
<g id="a_edge38_Node000022_Node000023"><a xlink:title=" ">
<path fill="none" stroke="#63b8ff" d="M704.73,-285.98C715.73,-278 732.42,-265.88 745.6,-256.31"/>
<polygon fill="#63b8ff" stroke="#63b8ff" points="748.02,-258.88 754.06,-250.17 743.91,-253.21 748.02,-258.88"/>
</a>
</g>
</g>
<!-- Node23&#45;&gt;Node6 -->
<g id="edge39_Node000023_Node000006" class="edge">
<title>Node23&#45;&gt;Node6</title>
<g id="a_edge39_Node000023_Node000006"><a xlink:title=" ">
<path fill="none" stroke="#63b8ff" d="M785.34,-230.99C807.7,-221.16 844.71,-204.88 870.4,-193.58"/>
<polygon fill="#63b8ff" stroke="#63b8ff" points="871.89,-196.75 879.64,-189.52 869.07,-190.34 871.89,-196.75"/>
</a>
</g>
</g>
<!-- Node24&#45;&gt;Node7 -->
<g id="edge49_Node000024_Node000007" class="edge">
<title>Node24&#45;&gt;Node7</title>
<g id="a_edge49_Node000024_Node000007"><a xlink:title=" ">
<path fill="none" stroke="#63b8ff" d="M539.2,-285.59C541.43,-272.18 547.4,-246.72 562,-231 616.01,-172.85 705.22,-144.37 765.51,-131.1"/>
<polygon fill="#63b8ff" stroke="#63b8ff" points="766.24,-134.52 775.3,-129.02 764.79,-127.68 766.24,-134.52"/>
</a>
</g>
</g>
<!-- Node24&#45;&gt;Node8 -->
<g id="edge48_Node000024_Node000008" class="edge">
<title>Node24&#45;&gt;Node8</title>
<g id="a_edge48_Node000024_Node000008"><a xlink:title=" ">
<path fill="none" stroke="#63b8ff" d="M536.75,-285.8C531.92,-252.29 514.45,-131.08 507.69,-84.2"/>
<polygon fill="#63b8ff" stroke="#63b8ff" points="511.15,-83.6 506.25,-74.21 504.22,-84.6 511.15,-83.6"/>
</a>
</g>
</g>
<!-- Node25 -->
<g id="Node000025" class="node">
<title>Node25</title>
<g id="a_Node000025"><a xlink:href="_string_u_i_8h.html" target="_top" xlink:title=" ">
<polygon fill="white" stroke="#666666" points="636.5,-250 571.5,-250 571.5,-231 636.5,-231 636.5,-250"/>
<text text-anchor="middle" x="604" y="-238" font-family="Helvetica Neue" font-size="10.00">StringUI.h</text>
</a>
</g>
</g>
<!-- Node24&#45;&gt;Node25 -->
<g id="edge42_Node000024_Node000025" class="edge">
<title>Node24&#45;&gt;Node25</title>
<g id="a_edge42_Node000024_Node000025"><a xlink:title=" ">
<path fill="none" stroke="#63b8ff" d="M548.6,-285.98C558.46,-278.07 573.35,-266.11 585.22,-256.58"/>
<polygon fill="#63b8ff" stroke="#63b8ff" points="587.6,-259.16 593.2,-250.17 583.21,-253.7 587.6,-259.16"/>
</a>
</g>
</g>
<!-- Node25&#45;&gt;Node6 -->
<g id="edge43_Node000025_Node000006" class="edge">
<title>Node25&#45;&gt;Node6</title>
<g id="a_edge43_Node000025_Node000006"><a xlink:title=" ">
<path fill="none" stroke="#63b8ff" d="M636.7,-233.02C687.47,-222.95 785.72,-203.46 846.5,-191.41"/>
<polygon fill="#63b8ff" stroke="#63b8ff" points="847.53,-194.77 856.66,-189.4 846.17,-187.91 847.53,-194.77"/>
</a>
</g>
</g>
<!-- Node25&#45;&gt;Node18 -->
<g id="edge44_Node000025_Node000018" class="edge">
<title>Node25&#45;&gt;Node18</title>
<g id="a_edge44_Node000025_Node000018"><a xlink:title=" ">
<path fill="none" stroke="#63b8ff" d="M636.98,-235.7C698.58,-228.49 835.28,-212.05 950,-195 957.16,-193.94 964.65,-192.76 972.08,-191.56"/>
<polygon fill="#63b8ff" stroke="#63b8ff" points="972.83,-194.98 982.13,-189.9 971.7,-188.07 972.83,-194.98"/>
</a>
</g>
</g>
<!-- Node26 -->
<g id="Node000026" class="node">
<title>Node26</title>
<g id="a_Node000026"><a xlink:href="_phi_slider_button_8h.html" target="_top" xlink:title=" ">
<polygon fill="white" stroke="#666666" points="477,-195 373,-195 373,-165 477,-165 477,-195"/>
<text text-anchor="start" x="381" y="-183" font-family="Helvetica Neue" font-size="10.00">../../ui/component</text>
<text text-anchor="middle" x="425" y="-172" font-family="Helvetica Neue" font-size="10.00">/PhiSliderButton.h</text>
</a>
</g>
</g>
<!-- Node25&#45;&gt;Node26 -->
<g id="edge45_Node000025_Node000026" class="edge">
<title>Node25&#45;&gt;Node26</title>
<g id="a_edge45_Node000025_Node000026"><a xlink:title=" ">
<path fill="none" stroke="#63b8ff" d="M577.97,-230.99C551.76,-222.43 510.59,-208.97 477.56,-198.18"/>
<polygon fill="#63b8ff" stroke="#63b8ff" points="478.63,-194.84 468.03,-195.06 476.45,-201.5 478.63,-194.84"/>
</a>
</g>
</g>
<!-- Node26&#45;&gt;Node3 -->
<g id="edge46_Node000026_Node000003" class="edge">
<title>Node26&#45;&gt;Node3</title>
<g id="a_edge46_Node000026_Node000003"><a xlink:title=" ">
<path fill="none" stroke="#63b8ff" d="M425,-164.92C425,-134.65 425,-63.35 425,-29.27"/>
<polygon fill="#63b8ff" stroke="#63b8ff" points="428.5,-29.25 425,-19.25 421.5,-29.25 428.5,-29.25"/>
</a>
</g>
</g>
<!-- Node26&#45;&gt;Node5 -->
<g id="edge47_Node000026_Node000005" class="edge">
<title>Node26&#45;&gt;Node5</title>
<g id="a_edge47_Node000026_Node000005"><a xlink:title=" ">
<path fill="none" stroke="#63b8ff" d="M388.83,-164.99C363.53,-155.18 330.04,-142.21 305.76,-132.81"/>
<polygon fill="#63b8ff" stroke="#63b8ff" points="306.89,-129.49 296.3,-129.14 304.36,-136.02 306.89,-129.49"/>
</a>
</g>
</g>
<!-- Node27&#45;&gt;Node7 -->
<g id="edge54_Node000027_Node000007" class="edge">
<title>Node27&#45;&gt;Node7</title>
<g id="a_edge54_Node000027_Node000007"><a xlink:title=" ">
<path fill="none" stroke="#63b8ff" d="M1451.21,-285.88C1440.08,-261.73 1404.92,-193.36 1352,-165 1277.22,-124.93 1034.52,-119.61 907.75,-119.68"/>
<polygon fill="#63b8ff" stroke="#63b8ff" points="907.7,-116.18 897.71,-119.7 907.71,-123.18 907.7,-116.18"/>
</a>
</g>
</g>
<!-- Node28 -->
<g id="Node000028" class="node">
<title>Node28</title>
<g id="a_Node000028"><a xlink:href="_grit_u_i_8h.html" target="_top" xlink:title=" ">
<polygon fill="white" stroke="#666666" points="1158,-250 1104,-250 1104,-231 1158,-231 1158,-250"/>
<text text-anchor="middle" x="1131" y="-238" font-family="Helvetica Neue" font-size="10.00">GritUI.h</text>
</a>
</g>
</g>
<!-- Node27&#45;&gt;Node28 -->
<g id="edge51_Node000027_Node000028" class="edge">
<title>Node27&#45;&gt;Node28</title>
<g id="a_edge51_Node000027_Node000028"><a xlink:title=" ">
<path fill="none" stroke="#63b8ff" d="M1399.24,-287.07C1341.26,-279.05 1247.97,-265.36 1168,-250 1167.9,-249.98 1167.8,-249.96 1167.7,-249.94"/>
<polygon fill="#63b8ff" stroke="#63b8ff" points="1168.53,-246.54 1158.03,-247.95 1167.12,-253.4 1168.53,-246.54"/>
</a>
</g>
</g>
<!-- Node28&#45;&gt;Node6 -->
<g id="edge52_Node000028_Node000006" class="edge">
<title>Node28&#45;&gt;Node6</title>
<g id="a_edge52_Node000028_Node000006"><a xlink:title=" ">
<path fill="none" stroke="#63b8ff" d="M1103.93,-232.67C1064.4,-222.71 990.43,-204.05 943.01,-192.1"/>
<polygon fill="#63b8ff" stroke="#63b8ff" points="943.57,-188.63 933.02,-189.58 941.86,-195.42 943.57,-188.63"/>
</a>
</g>
</g>
<!-- Node28&#45;&gt;Node18 -->
<g id="edge53_Node000028_Node000018" class="edge">
<title>Node28&#45;&gt;Node18</title>
<g id="a_edge53_Node000028_Node000018"><a xlink:title=" ">
<path fill="none" stroke="#63b8ff" d="M1116.54,-230.87C1103.12,-222.86 1082.67,-210.65 1065.36,-200.31"/>
<polygon fill="#63b8ff" stroke="#63b8ff" points="1067.03,-197.23 1056.64,-195.11 1063.44,-203.25 1067.03,-197.23"/>
</a>
</g>
</g>
<!-- Node29&#45;&gt;Node7 -->
<g id="edge59_Node000029_Node000007" class="edge">
<title>Node29&#45;&gt;Node7</title>
<g id="a_edge59_Node000029_Node000007"><a xlink:title=" ">
<path fill="none" stroke="#63b8ff" d="M781.48,-286.7C758.7,-280.43 735.94,-269.37 722,-250 690.15,-205.75 761.87,-157.07 802.89,-134.03"/>
<polygon fill="#63b8ff" stroke="#63b8ff" points="804.76,-136.99 811.85,-129.12 801.4,-130.85 804.76,-136.99"/>
</a>
</g>
</g>
<!-- Node30 -->
<g id="Node000030" class="node">
<title>Node30</title>
<g id="a_Node000030"><a xlink:href="_friction_u_i_8h.html" target="_top" xlink:title=" ">
<polygon fill="white" stroke="#666666" points="929,-250 857,-250 857,-231 929,-231 929,-250"/>
<text text-anchor="middle" x="893" y="-238" font-family="Helvetica Neue" font-size="10.00">FrictionUI.h</text>
</a>
</g>
</g>
<!-- Node29&#45;&gt;Node30 -->
<g id="edge56_Node000029_Node000030" class="edge">
<title>Node29&#45;&gt;Node30</title>
<g id="a_edge56_Node000029_Node000030"><a xlink:title=" ">
<path fill="none" stroke="#63b8ff" d="M861.27,-285.75C866.59,-278.34 874.36,-267.5 880.88,-258.41"/>
<polygon fill="#63b8ff" stroke="#63b8ff" points="883.86,-260.26 886.84,-250.09 878.17,-256.18 883.86,-260.26"/>
</a>
</g>
</g>
<!-- Node30&#45;&gt;Node6 -->
<g id="edge57_Node000030_Node000006" class="edge">
<title>Node30&#45;&gt;Node6</title>
<g id="a_edge57_Node000030_Node000006"><a xlink:title=" ">
<path fill="none" stroke="#63b8ff" d="M893.89,-230.87C894.72,-222.75 895.99,-210.31 897.06,-199.89"/>
<polygon fill="#63b8ff" stroke="#63b8ff" points="900.57,-199.97 898.11,-189.67 893.61,-199.26 900.57,-199.97"/>
</a>
</g>
</g>
<!-- Node30&#45;&gt;Node18 -->
<g id="edge58_Node000030_Node000018" class="edge">
<title>Node30&#45;&gt;Node18</title>
<g id="a_edge58_Node000030_Node000018"><a xlink:title=" ">
<path fill="none" stroke="#63b8ff" d="M913.36,-230.99C933.33,-222.65 964.41,-209.66 989.89,-199.02"/>
<polygon fill="#63b8ff" stroke="#63b8ff" points="991.46,-202.15 999.34,-195.06 988.77,-195.69 991.46,-202.15"/>
</a>
</g>
</g>
<!-- Node31&#45;&gt;Node7 -->
<g id="edge66_Node000031_Node000007" class="edge">
<title>Node31&#45;&gt;Node7</title>
<g id="a_edge66_Node000031_Node000007"><a xlink:title=" ">
<path fill="none" stroke="#63b8ff" d="M1575.47,-285.82C1548.15,-261.52 1466.18,-192.8 1384,-165 1297.99,-135.91 1039.36,-125.55 907.76,-122.1"/>
<polygon fill="#63b8ff" stroke="#63b8ff" points="907.82,-118.6 897.74,-121.84 907.64,-125.59 907.82,-118.6"/>
</a>
</g>
</g>
<!-- Node32 -->
<g id="Node000032" class="node">
<title>Node32</title>
<g id="a_Node000032"><a xlink:href="_l_f_o_8h.html" target="_top" xlink:title=" ">
<polygon fill="white" stroke="#666666" points="1607,-250 1563,-250 1563,-231 1607,-231 1607,-250"/>
<text text-anchor="middle" x="1585" y="-238" font-family="Helvetica Neue" font-size="10.00">LFO.h</text>
</a>
</g>
</g>
<!-- Node31&#45;&gt;Node32 -->
<g id="edge61_Node000031_Node000032" class="edge">
<title>Node31&#45;&gt;Node32</title>
<g id="a_edge61_Node000031_Node000032"><a xlink:title=" ">
<path fill="none" stroke="#63b8ff" d="M1585,-285.75C1585,-278.8 1585,-268.85 1585,-260.13"/>
<polygon fill="#63b8ff" stroke="#63b8ff" points="1588.5,-260.09 1585,-250.09 1581.5,-260.09 1588.5,-260.09"/>
</a>
</g>
</g>
<!-- Node33 -->
<g id="Node000033" class="node">
<title>Node33</title>
<g id="a_Node000033"><a xlink:href="_l_f_o_u_i_8h.html" target="_top" xlink:title=" ">
<polygon fill="white" stroke="#666666" points="1324.5,-250 1269.5,-250 1269.5,-231 1324.5,-231 1324.5,-250"/>
<text text-anchor="middle" x="1297" y="-238" font-family="Helvetica Neue" font-size="10.00">LFOUI.h</text>
</a>
</g>
</g>
<!-- Node31&#45;&gt;Node33 -->
<g id="edge62_Node000031_Node000033" class="edge">
<title>Node31&#45;&gt;Node33</title>
<g id="a_edge62_Node000031_Node000033"><a xlink:title=" ">
<path fill="none" stroke="#63b8ff" d="M1538.73,-285.98C1482.08,-275.56 1387.23,-258.11 1334.77,-248.45"/>
<polygon fill="#63b8ff" stroke="#63b8ff" points="1335.34,-245 1324.87,-246.63 1334.07,-251.88 1335.34,-245"/>
</a>
</g>
</g>
<!-- Node33&#45;&gt;Node6 -->
<g id="edge63_Node000033_Node000006" class="edge">
<title>Node33&#45;&gt;Node6</title>
<g id="a_edge63_Node000033_Node000006"><a xlink:title=" ">
<path fill="none" stroke="#63b8ff" d="M1269.15,-232.61C1266.41,-232.03 1263.65,-231.48 1261,-231 1134.48,-208.2 1101.02,-214.8 974,-195 966.63,-193.85 958.87,-192.53 951.25,-191.17"/>
<polygon fill="#63b8ff" stroke="#63b8ff" points="951.83,-187.72 941.36,-189.37 950.57,-194.6 951.83,-187.72"/>
</a>
</g>
</g>
<!-- Node33&#45;&gt;Node18 -->
<g id="edge64_Node000033_Node000018" class="edge">
<title>Node33&#45;&gt;Node18</title>
<g id="a_edge64_Node000033_Node000018"><a xlink:title=" ">
<path fill="none" stroke="#63b8ff" d="M1269.49,-232.96C1266.63,-232.29 1263.76,-231.63 1261,-231 1204.31,-218.09 1139.55,-203.95 1093.57,-194.01"/>
<polygon fill="#63b8ff" stroke="#63b8ff" points="1094.28,-190.58 1083.76,-191.89 1092.8,-197.42 1094.28,-190.58"/>
</a>
</g>
</g>
<!-- Node33&#45;&gt;Node21 -->
<g id="edge65_Node000033_Node000021" class="edge">
<title>Node33&#45;&gt;Node21</title>
<g id="a_edge65_Node000033_Node000021"><a xlink:title=" ">
<path fill="none" stroke="#63b8ff" d="M1289.18,-230.87C1282.45,-223.44 1272.46,-212.42 1263.59,-202.62"/>
<polygon fill="#63b8ff" stroke="#63b8ff" points="1266.1,-200.18 1256.79,-195.11 1260.91,-204.88 1266.1,-200.18"/>
</a>
</g>
</g>
<!-- Node34&#45;&gt;Node7 -->
<g id="edge71_Node000034_Node000007" class="edge">
<title>Node34&#45;&gt;Node7</title>
<g id="a_edge71_Node000034_Node000007"><a xlink:title=" ">
<path fill="none" stroke="#63b8ff" d="M1233.7,-285.98C1273.09,-278.51 1321.75,-266.29 1334,-250 1353.88,-223.56 1336.36,-188.04 1304,-165 1272.51,-142.58 1034.33,-129.19 907.67,-123.59"/>
<polygon fill="#63b8ff" stroke="#63b8ff" points="907.77,-120.09 897.63,-123.15 907.47,-127.08 907.77,-120.09"/>
</a>
</g>
</g>
<!-- Node35 -->
<g id="Node000035" class="node">
<title>Node35</title>
<g id="a_Node000035"><a xlink:href="_filter_u_i_8h.html" target="_top" xlink:title=" ">
<polygon fill="white" stroke="#666666" points="1008.5,-250 947.5,-250 947.5,-231 1008.5,-231 1008.5,-250"/>
<text text-anchor="middle" x="978" y="-238" font-family="Helvetica Neue" font-size="10.00">FilterUI.h</text>
</a>
</g>
</g>
<!-- Node34&#45;&gt;Node35 -->
<g id="edge68_Node000034_Node000035" class="edge">
<title>Node34&#45;&gt;Node35</title>
<g id="a_edge68_Node000034_Node000035"><a xlink:title=" ">
<path fill="none" stroke="#63b8ff" d="M1147.55,-285.98C1112.43,-276.77 1056.38,-262.07 1018.43,-252.11"/>
<polygon fill="#63b8ff" stroke="#63b8ff" points="1019.28,-248.71 1008.72,-249.56 1017.5,-255.48 1019.28,-248.71"/>
</a>
</g>
</g>
<!-- Node35&#45;&gt;Node6 -->
<g id="edge69_Node000035_Node000006" class="edge">
<title>Node35&#45;&gt;Node6</title>
<g id="a_edge69_Node000035_Node000006"><a xlink:title=" ">
<path fill="none" stroke="#63b8ff" d="M966.34,-230.87C953.86,-221.62 933.82,-206.78 918.84,-195.69"/>
<polygon fill="#63b8ff" stroke="#63b8ff" points="920.82,-192.81 910.7,-189.67 916.66,-198.43 920.82,-192.81"/>
</a>
</g>
</g>
<!-- Node35&#45;&gt;Node18 -->
<g id="edge70_Node000035_Node000018" class="edge">
<title>Node35&#45;&gt;Node18</title>
<g id="a_edge70_Node000035_Node000018"><a xlink:title=" ">
<path fill="none" stroke="#63b8ff" d="M986.12,-230.87C993.09,-223.44 1003.46,-212.42 1012.68,-202.62"/>
<polygon fill="#63b8ff" stroke="#63b8ff" points="1015.43,-204.8 1019.73,-195.11 1010.33,-200 1015.43,-204.8"/>
</a>
</g>
</g>
</g>
</svg>
