<?xml version="1.0" encoding="UTF-8" standalone="no"?>
<!DOCTYPE svg PUBLIC "-//W3C//DTD SVG 1.1//EN"
 "http://www.w3.org/Graphics/SVG/1.1/DTD/svg11.dtd">
<!-- Generated by graphviz version 2.38.0 (20140413.2041)
 -->
<!-- Title: PhiSliderButton.h Pages: 1 -->
<svg width="371pt" height="420pt"
 viewBox="0.00 0.00 370.50 420.00" xmlns="http://www.w3.org/2000/svg" xmlns:xlink="http://www.w3.org/1999/xlink">
<g id="graph0" class="graph" transform="scale(1 1) rotate(0) translate(4 416)">
<title>PhiSliderButton.h</title>
<polygon fill="white" stroke="none" points="-4,4 -4,-416 366.5,-416 366.5,4 -4,4"/>
<!-- Node1 -->
<g id="node1" class="node"><title>Node1</title>
<polygon fill="#bfbfbf" stroke="black" points="175,-392.5 175,-411.5 274,-411.5 274,-392.5 175,-392.5"/>
<text text-anchor="middle" x="224.5" y="-399.5" font-family="Helvetica Neue" font-size="10.00">PhiSliderButton.h</text>
</g>
<!-- Node2 -->
<g id="node2" class="node"><title>Node2</title>
<g id="a_node2"><a xlink:href="_string_u_i_8h.html" target="_top" xlink:title="StringUI.h">
<polygon fill="white" stroke="black" points="123.5,-336.5 123.5,-355.5 187.5,-355.5 187.5,-336.5 123.5,-336.5"/>
<text text-anchor="middle" x="155.5" y="-343.5" font-family="Helvetica Neue" font-size="10.00">StringUI.h</text>
</a>
</g>
</g>
<!-- Node1&#45;&gt;Node2 -->
<g id="edge1" class="edge"><title>Node1&#45;&gt;Node2</title>
<path fill="none" stroke="midnightblue" d="M205.462,-386.101C193.044,-376.382 177.257,-364.027 166.788,-355.834"/>
<polygon fill="midnightblue" stroke="midnightblue" points="203.382,-388.917 213.414,-392.324 207.696,-383.405 203.382,-388.917"/>
</g>
<!-- Node7 -->
<g id="node7" class="node"><title>Node7</title>
<g id="a_node7"><a xlink:href="_main_component_8h.html" target="_top" xlink:title="MainComponent.h">
<polygon fill="white" stroke="black" points="142.5,-56.5 142.5,-75.5 246.5,-75.5 246.5,-56.5 142.5,-56.5"/>
<text text-anchor="middle" x="194.5" y="-63.5" font-family="Helvetica Neue" font-size="10.00">MainComponent.h</text>
</a>
</g>
</g>
<!-- Node1&#45;&gt;Node7 -->
<g id="edge11" class="edge"><title>Node1&#45;&gt;Node7</title>
<path fill="none" stroke="midnightblue" d="M224.5,-382.251C224.5,-360.357 224.5,-323.052 224.5,-291 224.5,-291 224.5,-291 224.5,-177 224.5,-138.004 206.735,-93.8859 198.546,-75.6212"/>
<polygon fill="midnightblue" stroke="midnightblue" points="221,-382.442 224.5,-392.442 228,-382.442 221,-382.442"/>
</g>
<!-- Node12 -->
<g id="node12" class="node"><title>Node12</title>
<g id="a_node12"><a xlink:href="_phi_slider_button_8cpp.html" target="_top" xlink:title="PhiSliderButton.cpp">
<polygon fill="white" stroke="black" points="252.5,-336.5 252.5,-355.5 362.5,-355.5 362.5,-336.5 252.5,-336.5"/>
<text text-anchor="middle" x="307.5" y="-343.5" font-family="Helvetica Neue" font-size="10.00">PhiSliderButton.cpp</text>
</a>
</g>
</g>
<!-- Node1&#45;&gt;Node12 -->
<g id="edge12" class="edge"><title>Node1&#45;&gt;Node12</title>
<path fill="none" stroke="midnightblue" d="M246.599,-386.622C261.762,-376.757 281.383,-363.992 294.198,-355.655"/>
<polygon fill="midnightblue" stroke="midnightblue" points="244.309,-383.937 237.835,-392.324 248.126,-389.804 244.309,-383.937"/>
</g>
<!-- Node3 -->
<g id="node3" class="node"><title>Node3</title>
<g id="a_node3"><a xlink:href="_string_processor_8h.html" target="_top" xlink:title="StringProcessor.h">
<polygon fill="white" stroke="black" points="95,-280.5 95,-299.5 196,-299.5 196,-280.5 95,-280.5"/>
<text text-anchor="middle" x="145.5" y="-287.5" font-family="Helvetica Neue" font-size="10.00">StringProcessor.h</text>
</a>
</g>
</g>
<!-- Node2&#45;&gt;Node3 -->
<g id="edge2" class="edge"><title>Node2&#45;&gt;Node3</title>
<path fill="none" stroke="midnightblue" d="M152,-326.101C150.34,-317.136 148.437,-306.858 147.121,-299.751"/>
<polygon fill="midnightblue" stroke="midnightblue" points="148.586,-326.888 153.849,-336.083 155.469,-325.613 148.586,-326.888"/>
</g>
<!-- Node4 -->
<g id="node4" class="node"><title>Node4</title>
<g id="a_node4"><a xlink:href="_modules_8h.html" target="_top" xlink:title="Modules.h">
<polygon fill="white" stroke="black" points="113,-224.5 113,-243.5 178,-243.5 178,-224.5 113,-224.5"/>
<text text-anchor="middle" x="145.5" y="-231.5" font-family="Helvetica Neue" font-size="10.00">Modules.h</text>
</a>
</g>
</g>
<!-- Node3&#45;&gt;Node4 -->
<g id="edge3" class="edge"><title>Node3&#45;&gt;Node4</title>
<path fill="none" stroke="midnightblue" d="M145.5,-269.805C145.5,-260.91 145.5,-250.78 145.5,-243.751"/>
<polygon fill="midnightblue" stroke="midnightblue" points="142,-270.083 145.5,-280.083 149,-270.083 142,-270.083"/>
</g>
<!-- Node5 -->
<g id="node5" class="node"><title>Node5</title>
<g id="a_node5"><a xlink:href="_module_box_8h.html" target="_top" xlink:title="ModuleBox.h">
<polygon fill="white" stroke="black" points="106.5,-168.5 106.5,-187.5 184.5,-187.5 184.5,-168.5 106.5,-168.5"/>
<text text-anchor="middle" x="145.5" y="-175.5" font-family="Helvetica Neue" font-size="10.00">ModuleBox.h</text>
</a>
</g>
</g>
<!-- Node4&#45;&gt;Node5 -->
<g id="edge4" class="edge"><title>Node4&#45;&gt;Node5</title>
<path fill="none" stroke="midnightblue" d="M145.5,-213.805C145.5,-204.91 145.5,-194.78 145.5,-187.751"/>
<polygon fill="midnightblue" stroke="midnightblue" points="142,-214.083 145.5,-224.083 149,-214.083 142,-214.083"/>
</g>
<!-- Node6 -->
<g id="node6" class="node"><title>Node6</title>
<g id="a_node6"><a xlink:href="_main_patcher_8h.html" target="_top" xlink:title="MainPatcher.h">
<polygon fill="white" stroke="black" points="6,-112.5 6,-131.5 89,-131.5 89,-112.5 6,-112.5"/>
<text text-anchor="middle" x="47.5" y="-119.5" font-family="Helvetica Neue" font-size="10.00">MainPatcher.h</text>
</a>
</g>
</g>
<!-- Node5&#45;&gt;Node6 -->
<g id="edge5" class="edge"><title>Node5&#45;&gt;Node6</title>
<path fill="none" stroke="midnightblue" d="M120.914,-163.453C102.822,-153.483 78.7654,-140.228 63.2063,-131.655"/>
<polygon fill="midnightblue" stroke="midnightblue" points="119.307,-166.563 129.755,-168.324 122.685,-160.432 119.307,-166.563"/>
</g>
<!-- Node11 -->
<g id="node11" class="node"><title>Node11</title>
<g id="a_node11"><a xlink:href="_module_box_8cpp.html" target="_top" xlink:title="ModuleBox.cpp">
<polygon fill="white" stroke="black" points="107,-112.5 107,-131.5 196,-131.5 196,-112.5 107,-112.5"/>
<text text-anchor="middle" x="151.5" y="-119.5" font-family="Helvetica Neue" font-size="10.00">ModuleBox.cpp</text>
</a>
</g>
</g>
<!-- Node5&#45;&gt;Node11 -->
<g id="edge10" class="edge"><title>Node5&#45;&gt;Node11</title>
<path fill="none" stroke="midnightblue" d="M147.6,-158.101C148.596,-149.136 149.738,-138.858 150.528,-131.751"/>
<polygon fill="midnightblue" stroke="midnightblue" points="144.117,-157.758 146.491,-168.083 151.074,-158.531 144.117,-157.758"/>
</g>
<!-- Node6&#45;&gt;Node7 -->
<g id="edge6" class="edge"><title>Node6&#45;&gt;Node7</title>
<path fill="none" stroke="midnightblue" d="M80.423,-108.906C108.06,-98.7536 146.844,-84.5063 171.316,-75.5164"/>
<polygon fill="midnightblue" stroke="midnightblue" points="78.9724,-105.71 70.7926,-112.444 81.3862,-112.281 78.9724,-105.71"/>
</g>
<!-- Node10 -->
<g id="node10" class="node"><title>Node10</title>
<g id="a_node10"><a xlink:href="_main_patcher_8cpp.html" target="_top" xlink:title="MainPatcher.cpp">
<polygon fill="white" stroke="black" points="0,-56.5 0,-75.5 95,-75.5 95,-56.5 0,-56.5"/>
<text text-anchor="middle" x="47.5" y="-63.5" font-family="Helvetica Neue" font-size="10.00">MainPatcher.cpp</text>
</a>
</g>
</g>
<!-- Node6&#45;&gt;Node10 -->
<g id="edge9" class="edge"><title>Node6&#45;&gt;Node10</title>
<path fill="none" stroke="midnightblue" d="M47.5,-101.805C47.5,-92.9102 47.5,-82.7798 47.5,-75.7511"/>
<polygon fill="midnightblue" stroke="midnightblue" points="44.0001,-102.083 47.5,-112.083 51.0001,-102.083 44.0001,-102.083"/>
</g>
<!-- Node8 -->
<g id="node8" class="node"><title>Node8</title>
<g id="a_node8"><a xlink:href="_main_8cpp.html" target="_top" xlink:title="Main.cpp">
<polygon fill="white" stroke="black" points="112,-0.5 112,-19.5 171,-19.5 171,-0.5 112,-0.5"/>
<text text-anchor="middle" x="141.5" y="-7.5" font-family="Helvetica Neue" font-size="10.00">Main.cpp</text>
</a>
</g>
</g>
<!-- Node7&#45;&gt;Node8 -->
<g id="edge7" class="edge"><title>Node7&#45;&gt;Node8</title>
<path fill="none" stroke="midnightblue" d="M178.519,-48.7175C169.178,-39.1997 157.754,-27.5608 150.089,-19.7511"/>
<polygon fill="midnightblue" stroke="midnightblue" points="176.246,-51.3978 185.748,-56.083 181.241,-46.4945 176.246,-51.3978"/>
</g>
<!-- Node9 -->
<g id="node9" class="node"><title>Node9</title>
<g id="a_node9"><a xlink:href="_main_component_8cpp.html" target="_top" xlink:title="MainComponent.cpp">
<polygon fill="white" stroke="black" points="189.5,-0.5 189.5,-19.5 305.5,-19.5 305.5,-0.5 189.5,-0.5"/>
<text text-anchor="middle" x="247.5" y="-7.5" font-family="Helvetica Neue" font-size="10.00">MainComponent.cpp</text>
</a>
</g>
</g>
<!-- Node7&#45;&gt;Node9 -->
<g id="edge8" class="edge"><title>Node7&#45;&gt;Node9</title>
<path fill="none" stroke="midnightblue" d="M210.481,-48.7175C219.822,-39.1997 231.246,-27.5608 238.911,-19.7511"/>
<polygon fill="midnightblue" stroke="midnightblue" points="207.759,-46.4945 203.252,-56.083 212.754,-51.3978 207.759,-46.4945"/>
</g>
</g>
</svg>
