<?xml version="1.0" encoding="UTF-8" standalone="no"?>
<!DOCTYPE svg PUBLIC "-//W3C//DTD SVG 1.1//EN"
 "http://www.w3.org/Graphics/SVG/1.1/DTD/svg11.dtd">
<!-- Generated by graphviz version 2.43.0 (0)
 -->
<!-- Title: PhiLookAndFeel.h Pages: 1 -->
<svg width="410pt" height="247pt"
 viewBox="0.00 0.00 410.00 247.00" xmlns="http://www.w3.org/2000/svg" xmlns:xlink="http://www.w3.org/1999/xlink">
<g id="graph0" class="graph" transform="scale(1 1) rotate(0) translate(4 243)">
<title>PhiLookAndFeel.h</title>
<!-- Node1 -->
<g id="Node000001" class="node">
<title>Node1</title>
<g id="a_Node000001"><a xlink:title=" ">
<polygon fill="#999999" stroke="#666666" points="221,-239 118,-239 118,-220 221,-220 221,-239"/>
<text text-anchor="middle" x="169.5" y="-227" font-family="Helvetica Neue" font-size="10.00">PhiLookAndFeel.h</text>
</a>
</g>
</g>
<!-- Node2 -->
<g id="Node000002" class="node">
<title>Node2</title>
<g id="a_Node000002"><a xlink:href="_main_component_8h.html" target="_top" xlink:title=" ">
<polygon fill="white" stroke="#666666" points="220.5,-74 114.5,-74 114.5,-55 220.5,-55 220.5,-74"/>
<text text-anchor="middle" x="167.5" y="-62" font-family="Helvetica Neue" font-size="10.00">MainComponent.h</text>
</a>
</g>
</g>
<!-- Node1&#45;&gt;Node2 -->
<g id="edge1_Node000001_Node000002" class="edge">
<title>Node1&#45;&gt;Node2</title>
<g id="a_edge1_Node000001_Node000002"><a xlink:title=" ">
<path fill="none" stroke="#63b8ff" d="M163.06,-210.25C155.67,-186.95 145.33,-145.39 151.5,-110 153.76,-97.06 159.44,-82.91 163.39,-74.12"/>
<polygon fill="#63b8ff" stroke="#63b8ff" points="159.78,-211.48 166.27,-219.86 166.42,-209.26 159.78,-211.48"/>
</a>
</g>
</g>
<!-- Node7 -->
<g id="Node000007" class="node">
<title>Node7</title>
<g id="a_Node000007"><a xlink:href="_module_box_8h.html" target="_top" xlink:title=" ">
<polygon fill="white" stroke="#666666" points="246.5,-184 166.5,-184 166.5,-165 246.5,-165 246.5,-184"/>
<text text-anchor="middle" x="206.5" y="-172" font-family="Helvetica Neue" font-size="10.00">ModuleBox.h</text>
</a>
</g>
</g>
<!-- Node1&#45;&gt;Node7 -->
<g id="edge6_Node000001_Node000007" class="edge">
<title>Node1&#45;&gt;Node7</title>
<g id="a_edge6_Node000001_Node000007"><a xlink:title=" ">
<path fill="none" stroke="#63b8ff" d="M181.45,-211.39C187.81,-202.27 195.37,-191.45 200.5,-184.09"/>
<polygon fill="#63b8ff" stroke="#63b8ff" points="178.46,-209.55 175.61,-219.75 184.2,-213.55 178.46,-209.55"/>
</a>
</g>
</g>
<!-- Node3 -->
<g id="Node000003" class="node">
<title>Node3</title>
<g id="a_Node000003"><a xlink:href="_connections_8cpp.html" target="_top" xlink:title=" ">
<polygon fill="white" stroke="#666666" points="402,-19 305,-19 305,0 402,0 402,-19"/>
<text text-anchor="middle" x="353.5" y="-7" font-family="Helvetica Neue" font-size="10.00">Connections.cpp</text>
</a>
</g>
</g>
<!-- Node2&#45;&gt;Node3 -->
<g id="edge2_Node000002_Node000003" class="edge">
<title>Node2&#45;&gt;Node3</title>
<g id="a_edge2_Node000002_Node000003"><a xlink:title=" ">
<path fill="none" stroke="#63b8ff" d="M207.21,-52.18C242,-42.27 291.79,-28.08 323.38,-19.08"/>
<polygon fill="#63b8ff" stroke="#63b8ff" points="206.04,-48.88 197.38,-54.98 207.96,-55.61 206.04,-48.88"/>
</a>
</g>
</g>
<!-- Node4 -->
<g id="Node000004" class="node">
<title>Node4</title>
<g id="a_Node000004"><a xlink:href="_main_8cpp.html" target="_top" xlink:title=" ">
<polygon fill="white" stroke="#666666" points="196,-19 135,-19 135,0 196,0 196,-19"/>
<text text-anchor="middle" x="165.5" y="-7" font-family="Helvetica Neue" font-size="10.00">Main.cpp</text>
</a>
</g>
</g>
<!-- Node2&#45;&gt;Node4 -->
<g id="edge3_Node000002_Node000004" class="edge">
<title>Node2&#45;&gt;Node4</title>
<g id="a_edge3_Node000002_Node000004"><a xlink:title=" ">
<path fill="none" stroke="#63b8ff" d="M166.79,-44.66C166.46,-35.93 166.08,-25.99 165.82,-19.09"/>
<polygon fill="#63b8ff" stroke="#63b8ff" points="163.3,-44.89 167.17,-54.75 170.29,-44.62 163.3,-44.89"/>
</a>
</g>
</g>
<!-- Node5 -->
<g id="Node000005" class="node">
<title>Node5</title>
<g id="a_Node000005"><a xlink:href="_main_component_8cpp.html" target="_top" xlink:title=" ">
<polygon fill="white" stroke="#666666" points="117,-19 0,-19 0,0 117,0 117,-19"/>
<text text-anchor="middle" x="58.5" y="-7" font-family="Helvetica Neue" font-size="10.00">MainComponent.cpp</text>
</a>
</g>
</g>
<!-- Node2&#45;&gt;Node5 -->
<g id="edge4_Node000002_Node000005" class="edge">
<title>Node2&#45;&gt;Node5</title>
<g id="a_edge4_Node000002_Node000005"><a xlink:title=" ">
<path fill="none" stroke="#63b8ff" d="M140.77,-50.5C120.71,-40.75 93.82,-27.68 76.33,-19.17"/>
<polygon fill="#63b8ff" stroke="#63b8ff" points="139.46,-53.76 149.99,-54.98 142.52,-47.46 139.46,-53.76"/>
</a>
</g>
</g>
<!-- Node6 -->
<g id="Node000006" class="node">
<title>Node6</title>
<g id="a_Node000006"><a xlink:href="_patcher_8cpp.html" target="_top" xlink:title=" ">
<polygon fill="white" stroke="#666666" points="286.5,-19 214.5,-19 214.5,0 286.5,0 286.5,-19"/>
<text text-anchor="middle" x="250.5" y="-7" font-family="Helvetica Neue" font-size="10.00">Patcher.cpp</text>
</a>
</g>
</g>
<!-- Node2&#45;&gt;Node6 -->
<g id="edge5_Node000002_Node000006" class="edge">
<title>Node2&#45;&gt;Node6</title>
<g id="a_edge5_Node000002_Node000006"><a xlink:title=" ">
<path fill="none" stroke="#63b8ff" d="M189.54,-49.42C204.61,-39.81 224.09,-27.37 236.92,-19.17"/>
<polygon fill="#63b8ff" stroke="#63b8ff" points="187.38,-46.65 180.84,-54.98 191.15,-52.55 187.38,-46.65"/>
</a>
</g>
</g>
<!-- Node8 -->
<g id="Node000008" class="node">
<title>Node8</title>
<g id="a_Node000008"><a xlink:href="_module_box_8cpp.html" target="_top" xlink:title=" ">
<polygon fill="white" stroke="#666666" points="252.5,-129 160.5,-129 160.5,-110 252.5,-110 252.5,-129"/>
<text text-anchor="middle" x="206.5" y="-117" font-family="Helvetica Neue" font-size="10.00">ModuleBox.cpp</text>
</a>
</g>
</g>
<!-- Node7&#45;&gt;Node8 -->
<g id="edge7_Node000007_Node000008" class="edge">
<title>Node7&#45;&gt;Node8</title>
<g id="a_edge7_Node000007_Node000008"><a xlink:title=" ">
<path fill="none" stroke="#63b8ff" d="M206.5,-154.66C206.5,-145.93 206.5,-135.99 206.5,-129.09"/>
<polygon fill="#63b8ff" stroke="#63b8ff" points="203,-154.75 206.5,-164.75 210,-154.75 203,-154.75"/>
</a>
</g>
</g>
<!-- Node9 -->
<g id="Node000009" class="node">
<title>Node9</title>
<g id="a_Node000009"><a xlink:href="_patcher_8h.html" target="_top" xlink:title=" ">
<polygon fill="white" stroke="#666666" points="332,-129 271,-129 271,-110 332,-110 332,-129"/>
<text text-anchor="middle" x="301.5" y="-117" font-family="Helvetica Neue" font-size="10.00">Patcher.h</text>
</a>
</g>
</g>
<!-- Node7&#45;&gt;Node9 -->
<g id="edge8_Node000007_Node000009" class="edge">
<title>Node7&#45;&gt;Node9</title>
<g id="a_edge8_Node000007_Node000009"><a xlink:title=" ">
<path fill="none" stroke="#63b8ff" d="M230.76,-159.97C248.13,-150.28 270.99,-137.52 285.96,-129.17"/>
<polygon fill="#63b8ff" stroke="#63b8ff" points="228.79,-157.06 221.76,-164.98 232.2,-163.17 228.79,-157.06"/>
</a>
</g>
</g>
<!-- Node9&#45;&gt;Node2 -->
<g id="edge10_Node000009_Node000002" class="edge">
<title>Node9&#45;&gt;Node2</title>
<g id="a_edge10_Node000009_Node000002"><a xlink:title=" ">
<path fill="none" stroke="#63b8ff" d="M270.63,-106.29C245.8,-96.47 211.51,-82.91 189.42,-74.17"/>
<polygon fill="#63b8ff" stroke="#63b8ff" points="269.38,-109.56 279.97,-109.98 271.96,-103.05 269.38,-109.56"/>
</a>
</g>
</g>
<!-- Node9&#45;&gt;Node3 -->
<g id="edge9_Node000009_Node000003" class="edge">
<title>Node9&#45;&gt;Node3</title>
<g id="a_edge9_Node000009_Node000003"><a xlink:title=" ">
<path fill="none" stroke="#63b8ff" d="M310.19,-100.44C321.52,-76.92 340.87,-36.73 349.33,-19.16"/>
<polygon fill="#63b8ff" stroke="#63b8ff" points="306.94,-99.13 305.76,-109.66 313.25,-102.17 306.94,-99.13"/>
</a>
</g>
</g>
<!-- Node9&#45;&gt;Node6 -->
<g id="edge11_Node000009_Node000006" class="edge">
<title>Node9&#45;&gt;Node6</title>
<g id="a_edge11_Node000009_Node000006"><a xlink:title=" ">
<path fill="none" stroke="#63b8ff" d="M292.97,-100.44C281.87,-76.92 262.89,-36.73 254.59,-19.16"/>
<polygon fill="#63b8ff" stroke="#63b8ff" points="289.89,-102.11 297.33,-109.66 296.22,-99.12 289.89,-102.11"/>
</a>
</g>
</g>
</g>
</svg>
