<?xml version="1.0" encoding="UTF-8" standalone="no"?>
<!DOCTYPE svg PUBLIC "-//W3C//DTD SVG 1.1//EN"
 "http://www.w3.org/Graphics/SVG/1.1/DTD/svg11.dtd">
<!-- Generated by graphviz version 2.43.0 (0)
 -->
<!-- Title: PhiColours.h Pages: 1 -->
<svg width="1673pt" height="412pt"
 viewBox="0.00 0.00 1673.31 412.00" xmlns="http://www.w3.org/2000/svg" xmlns:xlink="http://www.w3.org/1999/xlink">
<g id="graph0" class="graph" transform="scale(1 1) rotate(0) translate(4 408)">
<title>PhiColours.h</title>
<!-- Node1 -->
<g id="Node000001" class="node">
<title>Node1</title>
<g id="a_Node000001"><a xlink:title=" ">
<polygon fill="#999999" stroke="#666666" points="1145.81,-404 1068.81,-404 1068.81,-385 1145.81,-385 1145.81,-404"/>
<text text-anchor="middle" x="1107.31" y="-392" font-family="Helvetica Neue" font-size="10.00">PhiColours.h</text>
</a>
</g>
</g>
<!-- Node2 -->
<g id="Node000002" class="node">
<title>Node2</title>
<g id="a_Node000002"><a xlink:href="_connections_8h.html" target="_top" xlink:title=" ">
<polygon fill="white" stroke="#666666" points="686.31,-184 600.31,-184 600.31,-165 686.31,-165 686.31,-184"/>
<text text-anchor="middle" x="643.31" y="-172" font-family="Helvetica Neue" font-size="10.00">Connections.h</text>
</a>
</g>
</g>
<!-- Node1&#45;&gt;Node2 -->
<g id="edge1_Node000001_Node000002" class="edge">
<title>Node1&#45;&gt;Node2</title>
<g id="a_edge1_Node000001_Node000002"><a xlink:title=" ">
<path fill="none" stroke="#63b8ff" d="M1058.43,-389.08C970.4,-381.13 779.42,-363.83 618.31,-349 341.81,-323.55 60.03,-510.82 3.31,-239 1.59,-230.73 -2.45,-226.17 3.31,-220 43.91,-176.48 462.89,-174.61 600.09,-175.18"/>
<polygon fill="#63b8ff" stroke="#63b8ff" points="1058.37,-392.59 1068.64,-390.01 1059,-385.62 1058.37,-392.59"/>
</a>
</g>
</g>
<!-- Node9 -->
<g id="Node000009" class="node">
<title>Node9</title>
<g id="a_Node000009"><a xlink:href="_module_u_i_8h.html" target="_top" xlink:title=" ">
<polygon fill="white" stroke="#666666" points="699.31,-349 627.31,-349 627.31,-330 699.31,-330 699.31,-349"/>
<text text-anchor="middle" x="663.31" y="-337" font-family="Helvetica Neue" font-size="10.00">ModuleUI.h</text>
</a>
</g>
</g>
<!-- Node1&#45;&gt;Node9 -->
<g id="edge11_Node000001_Node000009" class="edge">
<title>Node1&#45;&gt;Node9</title>
<g id="a_edge11_Node000001_Node000009"><a xlink:title=" ">
<path fill="none" stroke="#63b8ff" d="M1058.49,-387.67C968.56,-376.94 778.7,-354.27 699.35,-344.8"/>
<polygon fill="#63b8ff" stroke="#63b8ff" points="1058.34,-391.18 1068.69,-388.89 1059.17,-384.23 1058.34,-391.18"/>
</a>
</g>
</g>
<!-- Node33 -->
<g id="Node000033" class="node">
<title>Node33</title>
<g id="a_Node000033"><a xlink:href="_port_u_i_8cpp.html" target="_top" xlink:title=" ">
<polygon fill="white" stroke="#666666" points="1028.81,-184 961.81,-184 961.81,-165 1028.81,-165 1028.81,-184"/>
<text text-anchor="middle" x="995.31" y="-172" font-family="Helvetica Neue" font-size="10.00">PortUI.cpp</text>
</a>
</g>
</g>
<!-- Node1&#45;&gt;Node33 -->
<g id="edge67_Node000001_Node000033" class="edge">
<title>Node1&#45;&gt;Node33</title>
<g id="a_edge67_Node000001_Node000033"><a xlink:title=" ">
<path fill="none" stroke="#63b8ff" d="M1088.69,-378.39C1079.78,-370.4 1069.5,-359.98 1062.31,-349 1024.81,-291.73 1003.47,-210.33 997.25,-184.04"/>
<polygon fill="#63b8ff" stroke="#63b8ff" points="1086.51,-381.13 1096.37,-385 1091.08,-375.82 1086.51,-381.13"/>
</a>
</g>
</g>
<!-- Node36 -->
<g id="Node000036" class="node">
<title>Node36</title>
<g id="a_Node000036"><a xlink:href="_phi_dial_8cpp.html" target="_top" xlink:title=" ">
<polygon fill="white" stroke="#666666" points="1142.81,-349 1071.81,-349 1071.81,-330 1142.81,-330 1142.81,-349"/>
<text text-anchor="middle" x="1107.31" y="-337" font-family="Helvetica Neue" font-size="10.00">PhiDial.cpp</text>
</a>
</g>
</g>
<!-- Node1&#45;&gt;Node36 -->
<g id="edge56_Node000001_Node000036" class="edge">
<title>Node1&#45;&gt;Node36</title>
<g id="a_edge56_Node000001_Node000036"><a xlink:title=" ">
<path fill="none" stroke="#63b8ff" d="M1107.31,-374.66C1107.31,-365.93 1107.31,-355.99 1107.31,-349.09"/>
<polygon fill="#63b8ff" stroke="#63b8ff" points="1103.81,-374.75 1107.31,-384.75 1110.81,-374.75 1103.81,-374.75"/>
</a>
</g>
</g>
<!-- Node37 -->
<g id="Node000037" class="node">
<title>Node37</title>
<g id="a_Node000037"><a xlink:href="_phi_look_and_feel_8h.html" target="_top" xlink:title=" ">
<polygon fill="white" stroke="#666666" points="1333.81,-294 1230.81,-294 1230.81,-275 1333.81,-275 1333.81,-294"/>
<text text-anchor="middle" x="1282.31" y="-282" font-family="Helvetica Neue" font-size="10.00">PhiLookAndFeel.h</text>
</a>
</g>
</g>
<!-- Node1&#45;&gt;Node37 -->
<g id="edge57_Node000001_Node000037" class="edge">
<title>Node1&#45;&gt;Node37</title>
<g id="a_edge57_Node000001_Node000037"><a xlink:title=" ">
<path fill="none" stroke="#63b8ff" d="M1156,-386.44C1184.18,-380.35 1218.97,-369.2 1244.31,-349 1262.8,-334.27 1274.34,-307.91 1279.37,-294.25"/>
<polygon fill="#63b8ff" stroke="#63b8ff" points="1155.06,-383.06 1145.95,-388.46 1156.44,-389.92 1155.06,-383.06"/>
</a>
</g>
</g>
<!-- Node38 -->
<g id="Node000038" class="node">
<title>Node38</title>
<g id="a_Node000038"><a xlink:href="_phi_slider_button_8h.html" target="_top" xlink:title=" ">
<polygon fill="white" stroke="#666666" points="1489.81,-349 1388.81,-349 1388.81,-330 1489.81,-330 1489.81,-349"/>
<text text-anchor="middle" x="1439.31" y="-337" font-family="Helvetica Neue" font-size="10.00">PhiSliderButton.h</text>
</a>
</g>
</g>
<!-- Node1&#45;&gt;Node38 -->
<g id="edge60_Node000001_Node000038" class="edge">
<title>Node1&#45;&gt;Node38</title>
<g id="a_edge60_Node000001_Node000038"><a xlink:title=" ">
<path fill="none" stroke="#63b8ff" d="M1156.01,-385.73C1218.25,-375.79 1325.48,-358.67 1388.65,-348.59"/>
<polygon fill="#63b8ff" stroke="#63b8ff" points="1155.37,-382.28 1146.05,-387.32 1156.47,-389.2 1155.37,-382.28"/>
</a>
</g>
</g>
<!-- Node40 -->
<g id="Node000040" class="node">
<title>Node40</title>
<g id="a_Node000040"><a xlink:href="_phi_theme_8h.html" target="_top" xlink:title=" ">
<polygon fill="white" stroke="#666666" points="1235.31,-349 1161.31,-349 1161.31,-330 1235.31,-330 1235.31,-349"/>
<text text-anchor="middle" x="1198.31" y="-337" font-family="Helvetica Neue" font-size="10.00">PhiTheme.h</text>
</a>
</g>
</g>
<!-- Node1&#45;&gt;Node40 -->
<g id="edge64_Node000001_Node000040" class="edge">
<title>Node1&#45;&gt;Node40</title>
<g id="a_edge64_Node000001_Node000040"><a xlink:title=" ">
<path fill="none" stroke="#63b8ff" d="M1131.01,-379.7C1147.59,-370.04 1169.22,-357.44 1183.42,-349.17"/>
<polygon fill="#63b8ff" stroke="#63b8ff" points="1128.81,-376.93 1121.93,-384.98 1132.33,-382.98 1128.81,-376.93"/>
</a>
</g>
</g>
<!-- Node3 -->
<g id="Node000003" class="node">
<title>Node3</title>
<g id="a_Node000003"><a xlink:href="_connections_8cpp.html" target="_top" xlink:title=" ">
<polygon fill="white" stroke="#666666" points="1094.81,-19 997.81,-19 997.81,0 1094.81,0 1094.81,-19"/>
<text text-anchor="middle" x="1046.31" y="-7" font-family="Helvetica Neue" font-size="10.00">Connections.cpp</text>
</a>
</g>
</g>
<!-- Node2&#45;&gt;Node3 -->
<g id="edge2_Node000002_Node000003" class="edge">
<title>Node2&#45;&gt;Node3</title>
<g id="a_edge2_Node000002_Node000003"><a xlink:title=" ">
<path fill="none" stroke="#63b8ff" d="M673.7,-161.21C751.78,-129.63 957.92,-46.25 1024.93,-19.15"/>
<polygon fill="#63b8ff" stroke="#63b8ff" points="672.37,-157.97 664.41,-164.97 674.99,-164.46 672.37,-157.97"/>
</a>
</g>
</g>
<!-- Node4 -->
<g id="Node000004" class="node">
<title>Node4</title>
<g id="a_Node000004"><a xlink:href="_patcher_8h.html" target="_top" xlink:title=" ">
<polygon fill="white" stroke="#666666" points="1076.81,-129 1015.81,-129 1015.81,-110 1076.81,-110 1076.81,-129"/>
<text text-anchor="middle" x="1046.31" y="-117" font-family="Helvetica Neue" font-size="10.00">Patcher.h</text>
</a>
</g>
</g>
<!-- Node2&#45;&gt;Node4 -->
<g id="edge3_Node000002_Node000004" class="edge">
<title>Node2&#45;&gt;Node4</title>
<g id="a_edge3_Node000002_Node000004"><a xlink:title=" ">
<path fill="none" stroke="#63b8ff" d="M696.51,-164.87C820.94,-146.97 956.34,-130.88 1015.74,-124"/>
<polygon fill="#63b8ff" stroke="#63b8ff" points="695.82,-161.44 686.42,-166.33 696.82,-168.36 695.82,-161.44"/>
</a>
</g>
</g>
<!-- Node4&#45;&gt;Node3 -->
<g id="edge4_Node000004_Node000003" class="edge">
<title>Node4&#45;&gt;Node3</title>
<g id="a_edge4_Node000004_Node000003"><a xlink:title=" ">
<path fill="none" stroke="#63b8ff" d="M1046.31,-99.48C1046.31,-75.84 1046.31,-36.5 1046.31,-19.16"/>
<polygon fill="#63b8ff" stroke="#63b8ff" points="1042.81,-99.66 1046.31,-109.66 1049.81,-99.66 1042.81,-99.66"/>
</a>
</g>
</g>
<!-- Node5 -->
<g id="Node000005" class="node">
<title>Node5</title>
<g id="a_Node000005"><a xlink:href="_main_component_8h.html" target="_top" xlink:title=" ">
<polygon fill="white" stroke="#666666" points="1403.31,-74 1297.31,-74 1297.31,-55 1403.31,-55 1403.31,-74"/>
<text text-anchor="middle" x="1350.31" y="-62" font-family="Helvetica Neue" font-size="10.00">MainComponent.h</text>
</a>
</g>
</g>
<!-- Node4&#45;&gt;Node5 -->
<g id="edge5_Node000004_Node000005" class="edge">
<title>Node4&#45;&gt;Node5</title>
<g id="a_edge5_Node000004_Node000005"><a xlink:title=" ">
<path fill="none" stroke="#63b8ff" d="M1086.99,-109.94C1166.02,-95 1245.89,-81.92 1297.1,-73.79"/>
<polygon fill="#63b8ff" stroke="#63b8ff" points="1086.03,-106.56 1076.86,-111.87 1087.34,-113.44 1086.03,-106.56"/>
</a>
</g>
</g>
<!-- Node8 -->
<g id="Node000008" class="node">
<title>Node8</title>
<g id="a_Node000008"><a xlink:href="_patcher_8cpp.html" target="_top" xlink:title=" ">
<polygon fill="white" stroke="#666666" points="1257.31,-19 1185.31,-19 1185.31,0 1257.31,0 1257.31,-19"/>
<text text-anchor="middle" x="1221.31" y="-7" font-family="Helvetica Neue" font-size="10.00">Patcher.cpp</text>
</a>
</g>
</g>
<!-- Node4&#45;&gt;Node8 -->
<g id="edge10_Node000004_Node000008" class="edge">
<title>Node4&#45;&gt;Node8</title>
<g id="a_edge10_Node000004_Node000008"><a xlink:title=" ">
<path fill="none" stroke="#63b8ff" d="M1068.86,-104.59C1105.51,-81.97 1176.95,-37.88 1207.22,-19.2"/>
<polygon fill="#63b8ff" stroke="#63b8ff" points="1067.01,-101.61 1060.34,-109.84 1070.68,-107.57 1067.01,-101.61"/>
</a>
</g>
</g>
<!-- Node5&#45;&gt;Node3 -->
<g id="edge6_Node000005_Node000003" class="edge">
<title>Node5&#45;&gt;Node3</title>
<g id="a_edge6_Node000005_Node000003"><a xlink:title=" ">
<path fill="none" stroke="#63b8ff" d="M1291.49,-53.25C1234.32,-43.28 1148.5,-28.32 1095.03,-18.99"/>
<polygon fill="#63b8ff" stroke="#63b8ff" points="1291.02,-56.72 1301.47,-54.98 1292.22,-49.82 1291.02,-56.72"/>
</a>
</g>
</g>
<!-- Node6 -->
<g id="Node000006" class="node">
<title>Node6</title>
<g id="a_Node000006"><a xlink:href="_main_8cpp.html" target="_top" xlink:title=" ">
<polygon fill="white" stroke="#666666" points="1536.81,-19 1475.81,-19 1475.81,0 1536.81,0 1536.81,-19"/>
<text text-anchor="middle" x="1506.31" y="-7" font-family="Helvetica Neue" font-size="10.00">Main.cpp</text>
</a>
</g>
</g>
<!-- Node5&#45;&gt;Node6 -->
<g id="edge7_Node000005_Node000006" class="edge">
<title>Node5&#45;&gt;Node6</title>
<g id="a_edge7_Node000005_Node000006"><a xlink:title=" ">
<path fill="none" stroke="#63b8ff" d="M1385.13,-51.67C1414.22,-41.79 1455.01,-27.93 1481.05,-19.08"/>
<polygon fill="#63b8ff" stroke="#63b8ff" points="1383.72,-48.45 1375.38,-54.98 1385.97,-55.08 1383.72,-48.45"/>
</a>
</g>
</g>
<!-- Node7 -->
<g id="Node000007" class="node">
<title>Node7</title>
<g id="a_Node000007"><a xlink:href="_main_component_8cpp.html" target="_top" xlink:title=" ">
<polygon fill="white" stroke="#666666" points="1408.81,-19 1291.81,-19 1291.81,0 1408.81,0 1408.81,-19"/>
<text text-anchor="middle" x="1350.31" y="-7" font-family="Helvetica Neue" font-size="10.00">MainComponent.cpp</text>
</a>
</g>
</g>
<!-- Node5&#45;&gt;Node7 -->
<g id="edge8_Node000005_Node000007" class="edge">
<title>Node5&#45;&gt;Node7</title>
<g id="a_edge8_Node000005_Node000007"><a xlink:title=" ">
<path fill="none" stroke="#63b8ff" d="M1350.31,-44.66C1350.31,-35.93 1350.31,-25.99 1350.31,-19.09"/>
<polygon fill="#63b8ff" stroke="#63b8ff" points="1346.81,-44.75 1350.31,-54.75 1353.81,-44.75 1346.81,-44.75"/>
</a>
</g>
</g>
<!-- Node5&#45;&gt;Node8 -->
<g id="edge9_Node000005_Node000008" class="edge">
<title>Node5&#45;&gt;Node8</title>
<g id="a_edge9_Node000005_Node000008"><a xlink:title=" ">
<path fill="none" stroke="#63b8ff" d="M1320.28,-51.16C1296.39,-41.35 1263.59,-27.87 1242.41,-19.17"/>
<polygon fill="#63b8ff" stroke="#63b8ff" points="1319.01,-54.42 1329.59,-54.98 1321.67,-47.95 1319.01,-54.42"/>
</a>
</g>
</g>
<!-- Node10 -->
<g id="Node000010" class="node">
<title>Node10</title>
<g id="a_Node000010"><a xlink:href="_filter_u_i_8h.html" target="_top" xlink:title=" ">
<polygon fill="white" stroke="#666666" points="507.81,-294 446.81,-294 446.81,-275 507.81,-275 507.81,-294"/>
<text text-anchor="middle" x="477.31" y="-282" font-family="Helvetica Neue" font-size="10.00">FilterUI.h</text>
</a>
</g>
</g>
<!-- Node9&#45;&gt;Node10 -->
<g id="edge12_Node000009_Node000010" class="edge">
<title>Node9&#45;&gt;Node10</title>
<g id="a_edge12_Node000009_Node000010"><a xlink:title=" ">
<path fill="none" stroke="#63b8ff" d="M623.6,-327.18C588.81,-317.27 539.02,-303.08 507.43,-294.08"/>
<polygon fill="#63b8ff" stroke="#63b8ff" points="622.85,-330.61 633.43,-329.98 624.77,-323.88 622.85,-330.61"/>
</a>
</g>
</g>
<!-- Node14 -->
<g id="Node000014" class="node">
<title>Node14</title>
<g id="a_Node000014"><a xlink:href="_friction_u_i_8h.html" target="_top" xlink:title=" ">
<polygon fill="white" stroke="#666666" points="609.31,-294 537.31,-294 537.31,-275 609.31,-275 609.31,-294"/>
<text text-anchor="middle" x="573.31" y="-282" font-family="Helvetica Neue" font-size="10.00">FrictionUI.h</text>
</a>
</g>
</g>
<!-- Node9&#45;&gt;Node14 -->
<g id="edge17_Node000009_Node000014" class="edge">
<title>Node9&#45;&gt;Node14</title>
<g id="a_edge17_Node000009_Node000014"><a xlink:title=" ">
<path fill="none" stroke="#63b8ff" d="M639.87,-324.7C623.48,-315.04 602.08,-302.44 588.03,-294.17"/>
<polygon fill="#63b8ff" stroke="#63b8ff" points="638.46,-327.93 648.85,-329.98 642.01,-321.89 638.46,-327.93"/>
</a>
</g>
</g>
<!-- Node16 -->
<g id="Node000016" class="node">
<title>Node16</title>
<g id="a_Node000016"><a xlink:href="_gain_u_i_8h.html" target="_top" xlink:title=" ">
<polygon fill="white" stroke="#666666" points="692.81,-294 633.81,-294 633.81,-275 692.81,-275 692.81,-294"/>
<text text-anchor="middle" x="663.31" y="-282" font-family="Helvetica Neue" font-size="10.00">GainUI.h</text>
</a>
</g>
</g>
<!-- Node9&#45;&gt;Node16 -->
<g id="edge20_Node000009_Node000016" class="edge">
<title>Node9&#45;&gt;Node16</title>
<g id="a_edge20_Node000009_Node000016"><a xlink:title=" ">
<path fill="none" stroke="#63b8ff" d="M663.31,-319.66C663.31,-310.93 663.31,-300.99 663.31,-294.09"/>
<polygon fill="#63b8ff" stroke="#63b8ff" points="659.81,-319.75 663.31,-329.75 666.81,-319.75 659.81,-319.75"/>
</a>
</g>
</g>
<!-- Node18 -->
<g id="Node000018" class="node">
<title>Node18</title>
<g id="a_Node000018"><a xlink:href="_grit_u_i_8h.html" target="_top" xlink:title=" ">
<polygon fill="white" stroke="#666666" points="802.31,-294 748.31,-294 748.31,-275 802.31,-275 802.31,-294"/>
<text text-anchor="middle" x="775.31" y="-282" font-family="Helvetica Neue" font-size="10.00">GritUI.h</text>
</a>
</g>
</g>
<!-- Node9&#45;&gt;Node18 -->
<g id="edge23_Node000009_Node000018" class="edge">
<title>Node9&#45;&gt;Node18</title>
<g id="a_edge23_Node000009_Node000018"><a xlink:title=" ">
<path fill="none" stroke="#63b8ff" d="M690.5,-325.63C711.13,-315.87 738.93,-302.71 756.99,-294.17"/>
<polygon fill="#63b8ff" stroke="#63b8ff" points="688.85,-322.54 681.31,-329.98 691.84,-328.87 688.85,-322.54"/>
</a>
</g>
</g>
<!-- Node20 -->
<g id="Node000020" class="node">
<title>Node20</title>
<g id="a_Node000020"><a xlink:href="_impulse_u_i_8h.html" target="_top" xlink:title=" ">
<polygon fill="white" stroke="#666666" points="111.81,-294 36.81,-294 36.81,-275 111.81,-275 111.81,-294"/>
<text text-anchor="middle" x="74.31" y="-282" font-family="Helvetica Neue" font-size="10.00">ImpulseUI.h</text>
</a>
</g>
</g>
<!-- Node9&#45;&gt;Node20 -->
<g id="edge26_Node000009_Node000020" class="edge">
<title>Node9&#45;&gt;Node20</title>
<g id="a_edge26_Node000009_Node000020"><a xlink:title=" ">
<path fill="none" stroke="#63b8ff" d="M616.83,-334.32C503.65,-324.13 215.42,-298.2 111.98,-288.89"/>
<polygon fill="#63b8ff" stroke="#63b8ff" points="616.64,-337.81 626.91,-335.22 617.27,-330.84 616.64,-337.81"/>
</a>
</g>
</g>
<!-- Node22 -->
<g id="Node000022" class="node">
<title>Node22</title>
<g id="a_Node000022"><a xlink:href="_l_f_o_u_i_8h.html" target="_top" xlink:title=" ">
<polygon fill="white" stroke="#666666" points="274.81,-294 219.81,-294 219.81,-275 274.81,-275 274.81,-294"/>
<text text-anchor="middle" x="247.31" y="-282" font-family="Helvetica Neue" font-size="10.00">LFOUI.h</text>
</a>
</g>
</g>
<!-- Node9&#45;&gt;Node22 -->
<g id="edge29_Node000009_Node000022" class="edge">
<title>Node9&#45;&gt;Node22</title>
<g id="a_edge29_Node000009_Node000022"><a xlink:title=" ">
<path fill="none" stroke="#63b8ff" d="M617.03,-332.6C530.15,-321.53 345.09,-297.96 275,-289.03"/>
<polygon fill="#63b8ff" stroke="#63b8ff" points="616.76,-336.1 627.12,-333.89 617.64,-329.15 616.76,-336.1"/>
</a>
</g>
</g>
<!-- Node24 -->
<g id="Node000024" class="node">
<title>Node24</title>
<g id="a_Node000024"><a xlink:href="_module_box_8h.html" target="_top" xlink:title=" ">
<polygon fill="white" stroke="#666666" points="1127.31,-184 1047.31,-184 1047.31,-165 1127.31,-165 1127.31,-184"/>
<text text-anchor="middle" x="1087.31" y="-172" font-family="Helvetica Neue" font-size="10.00">ModuleBox.h</text>
</a>
</g>
</g>
<!-- Node9&#45;&gt;Node24 -->
<g id="edge32_Node000009_Node000024" class="edge">
<title>Node9&#45;&gt;Node24</title>
<g id="a_edge32_Node000009_Node000024"><a xlink:title=" ">
<path fill="none" stroke="#63b8ff" d="M709.47,-328.3C773.28,-313.31 891.22,-282.32 985.31,-239 1019.99,-223.03 1057.21,-197.45 1075.62,-184.15"/>
<polygon fill="#63b8ff" stroke="#63b8ff" points="708.65,-324.9 699.71,-330.57 710.24,-331.72 708.65,-324.9"/>
</a>
</g>
</g>
<!-- Node26 -->
<g id="Node000026" class="node">
<title>Node26</title>
<g id="a_Node000026"><a xlink:href="_output_u_i_8h.html" target="_top" xlink:title=" ">
<polygon fill="white" stroke="#666666" points="406.81,-294 337.81,-294 337.81,-275 406.81,-275 406.81,-294"/>
<text text-anchor="middle" x="372.31" y="-282" font-family="Helvetica Neue" font-size="10.00">OutputUI.h</text>
</a>
</g>
</g>
<!-- Node9&#45;&gt;Node26 -->
<g id="edge35_Node000009_Node000026" class="edge">
<title>Node9&#45;&gt;Node26</title>
<g id="a_edge35_Node000009_Node000026"><a xlink:title=" ">
<path fill="none" stroke="#63b8ff" d="M616.99,-330.06C558.61,-319.43 459.6,-301.4 407.22,-291.86"/>
<polygon fill="#63b8ff" stroke="#63b8ff" points="616.58,-333.55 627.04,-331.89 617.83,-326.66 616.58,-333.55"/>
</a>
</g>
</g>
<!-- Node28 -->
<g id="Node000028" class="node">
<title>Node28</title>
<g id="a_Node000028"><a xlink:href="_state_8h.html" target="_top" xlink:title=" ">
<polygon fill="white" stroke="#666666" points="1212.81,-294 1161.81,-294 1161.81,-275 1212.81,-275 1212.81,-294"/>
<text text-anchor="middle" x="1187.31" y="-282" font-family="Helvetica Neue" font-size="10.00">State.h</text>
</a>
</g>
</g>
<!-- Node9&#45;&gt;Node28 -->
<g id="edge38_Node000009_Node000028" class="edge">
<title>Node9&#45;&gt;Node28</title>
<g id="a_edge38_Node000009_Node000028"><a xlink:title=" ">
<path fill="none" stroke="#63b8ff" d="M709.49,-333.83C816.53,-323 1078.77,-296.48 1161.72,-288.09"/>
<polygon fill="#63b8ff" stroke="#63b8ff" points="708.93,-330.37 699.33,-334.86 709.63,-337.33 708.93,-330.37"/>
</a>
</g>
</g>
<!-- Node34 -->
<g id="Node000034" class="node">
<title>Node34</title>
<g id="a_Node000034"><a xlink:href="_string_u_i_8h.html" target="_top" xlink:title=" ">
<polygon fill="white" stroke="#666666" points="1014.81,-294 949.81,-294 949.81,-275 1014.81,-275 1014.81,-294"/>
<text text-anchor="middle" x="982.31" y="-282" font-family="Helvetica Neue" font-size="10.00">StringUI.h</text>
</a>
</g>
</g>
<!-- Node9&#45;&gt;Node34 -->
<g id="edge53_Node000009_Node000034" class="edge">
<title>Node9&#45;&gt;Node34</title>
<g id="a_edge53_Node000009_Node000034"><a xlink:title=" ">
<path fill="none" stroke="#63b8ff" d="M709.4,-331.2C763.53,-322.57 856.01,-307.66 935.31,-294 939.97,-293.2 944.88,-292.33 949.71,-291.47"/>
<polygon fill="#63b8ff" stroke="#63b8ff" points="708.75,-327.76 699.42,-332.79 709.85,-334.67 708.75,-327.76"/>
</a>
</g>
</g>
<!-- Node11 -->
<g id="Node000011" class="node">
<title>Node11</title>
<g id="a_Node000011"><a xlink:href="_filter_processor_8h.html" target="_top" xlink:title=" ">
<polygon fill="white" stroke="#666666" points="470.81,-239 373.81,-239 373.81,-220 470.81,-220 470.81,-239"/>
<text text-anchor="middle" x="422.31" y="-227" font-family="Helvetica Neue" font-size="10.00">FilterProcessor.h</text>
</a>
</g>
</g>
<!-- Node10&#45;&gt;Node11 -->
<g id="edge13_Node000010_Node000011" class="edge">
<title>Node10&#45;&gt;Node11</title>
<g id="a_edge13_Node000010_Node000011"><a xlink:title=" ">
<path fill="none" stroke="#63b8ff" d="M461.02,-267.8C451.27,-258.41 439.26,-246.83 431.22,-239.09"/>
<polygon fill="#63b8ff" stroke="#63b8ff" points="458.6,-270.33 468.23,-274.75 463.46,-265.29 458.6,-270.33"/>
</a>
</g>
</g>
<!-- Node12 -->
<g id="Node000012" class="node">
<title>Node12</title>
<g id="a_Node000012"><a xlink:href="_modules_8h.html" target="_top" xlink:title=" ">
<polygon fill="white" stroke="#666666" points="771.81,-184 704.81,-184 704.81,-165 771.81,-165 771.81,-184"/>
<text text-anchor="middle" x="738.31" y="-172" font-family="Helvetica Neue" font-size="10.00">Modules.h</text>
</a>
</g>
</g>
<!-- Node11&#45;&gt;Node12 -->
<g id="edge14_Node000011_Node000012" class="edge">
<title>Node11&#45;&gt;Node12</title>
<g id="a_edge14_Node000011_Node000012"><a xlink:title=" ">
<path fill="none" stroke="#63b8ff" d="M481.2,-219.49C536.55,-210.87 621.68,-197.27 695.31,-184 698.31,-183.46 701.42,-182.88 704.53,-182.29"/>
<polygon fill="#63b8ff" stroke="#63b8ff" points="480.56,-216.04 471.22,-221.03 481.64,-222.96 480.56,-216.04"/>
</a>
</g>
</g>
<!-- Node12&#45;&gt;Node4 -->
<g id="edge15_Node000012_Node000004" class="edge">
<title>Node12&#45;&gt;Node4</title>
<g id="a_edge15_Node000012_Node000004"><a xlink:title=" ">
<path fill="none" stroke="#63b8ff" d="M781.91,-166C845.08,-155.13 960.54,-135.26 1015.56,-125.79"/>
<polygon fill="#63b8ff" stroke="#63b8ff" points="781.12,-162.58 771.86,-167.73 782.31,-169.48 781.12,-162.58"/>
</a>
</g>
</g>
<!-- Node13 -->
<g id="Node000013" class="node">
<title>Node13</title>
<g id="a_Node000013"><a xlink:href="_state_8cpp.html" target="_top" xlink:title=" ">
<polygon fill="white" stroke="#666666" points="1157.31,-129 1095.31,-129 1095.31,-110 1157.31,-110 1157.31,-129"/>
<text text-anchor="middle" x="1126.31" y="-117" font-family="Helvetica Neue" font-size="10.00">State.cpp</text>
</a>
</g>
</g>
<!-- Node12&#45;&gt;Node13 -->
<g id="edge16_Node000012_Node000013" class="edge">
<title>Node12&#45;&gt;Node13</title>
<g id="a_edge16_Node000012_Node000013"><a xlink:title=" ">
<path fill="none" stroke="#63b8ff" d="M781.96,-168.99C847.89,-161.94 976.71,-147.19 1085.31,-129 1088.47,-128.47 1091.75,-127.87 1095.02,-127.25"/>
<polygon fill="#63b8ff" stroke="#63b8ff" points="781.51,-165.52 771.94,-170.06 782.25,-172.48 781.51,-165.52"/>
</a>
</g>
</g>
<!-- Node15 -->
<g id="Node000015" class="node">
<title>Node15</title>
<g id="a_Node000015"><a xlink:href="_friction_processor_8h.html" target="_top" xlink:title=" ">
<polygon fill="white" stroke="#666666" points="597.31,-239 489.31,-239 489.31,-220 597.31,-220 597.31,-239"/>
<text text-anchor="middle" x="543.31" y="-227" font-family="Helvetica Neue" font-size="10.00">FrictionProcessor.h</text>
</a>
</g>
</g>
<!-- Node14&#45;&gt;Node15 -->
<g id="edge18_Node000014_Node000015" class="edge">
<title>Node14&#45;&gt;Node15</title>
<g id="a_edge18_Node000014_Node000015"><a xlink:title=" ">
<path fill="none" stroke="#63b8ff" d="M563.3,-265.82C558.21,-256.82 552.25,-246.29 548.17,-239.09"/>
<polygon fill="#63b8ff" stroke="#63b8ff" points="560.39,-267.77 568.36,-274.75 566.48,-264.32 560.39,-267.77"/>
</a>
</g>
</g>
<!-- Node15&#45;&gt;Node12 -->
<g id="edge19_Node000015_Node000012" class="edge">
<title>Node15&#45;&gt;Node12</title>
<g id="a_edge19_Node000015_Node000012"><a xlink:title=" ">
<path fill="none" stroke="#63b8ff" d="M584.48,-217.31C620.97,-207.39 673.48,-193.12 706.74,-184.08"/>
<polygon fill="#63b8ff" stroke="#63b8ff" points="583.37,-213.98 574.64,-219.98 585.21,-220.74 583.37,-213.98"/>
</a>
</g>
</g>
<!-- Node17 -->
<g id="Node000017" class="node">
<title>Node17</title>
<g id="a_Node000017"><a xlink:href="_gain_processor_8h.html" target="_top" xlink:title=" ">
<polygon fill="white" stroke="#666666" points="710.81,-239 615.81,-239 615.81,-220 710.81,-220 710.81,-239"/>
<text text-anchor="middle" x="663.31" y="-227" font-family="Helvetica Neue" font-size="10.00">GainProcessor.h</text>
</a>
</g>
</g>
<!-- Node16&#45;&gt;Node17 -->
<g id="edge21_Node000016_Node000017" class="edge">
<title>Node16&#45;&gt;Node17</title>
<g id="a_edge21_Node000016_Node000017"><a xlink:title=" ">
<path fill="none" stroke="#63b8ff" d="M663.31,-264.66C663.31,-255.93 663.31,-245.99 663.31,-239.09"/>
<polygon fill="#63b8ff" stroke="#63b8ff" points="659.81,-264.75 663.31,-274.75 666.81,-264.75 659.81,-264.75"/>
</a>
</g>
</g>
<!-- Node17&#45;&gt;Node12 -->
<g id="edge22_Node000017_Node000012" class="edge">
<title>Node17&#45;&gt;Node12</title>
<g id="a_edge22_Node000017_Node000012"><a xlink:title=" ">
<path fill="none" stroke="#63b8ff" d="M683.62,-214.15C697.17,-204.57 714.55,-192.29 726.04,-184.17"/>
<polygon fill="#63b8ff" stroke="#63b8ff" points="681.51,-211.36 675.36,-219.98 685.55,-217.07 681.51,-211.36"/>
</a>
</g>
</g>
<!-- Node19 -->
<g id="Node000019" class="node">
<title>Node19</title>
<g id="a_Node000019"><a xlink:href="_grit_processor_8h.html" target="_top" xlink:title=" ">
<polygon fill="white" stroke="#666666" points="857.31,-239 767.31,-239 767.31,-220 857.31,-220 857.31,-239"/>
<text text-anchor="middle" x="812.31" y="-227" font-family="Helvetica Neue" font-size="10.00">GritProcessor.h</text>
</a>
</g>
</g>
<!-- Node18&#45;&gt;Node19 -->
<g id="edge24_Node000018_Node000019" class="edge">
<title>Node18&#45;&gt;Node19</title>
<g id="a_edge24_Node000018_Node000019"><a xlink:title=" ">
<path fill="none" stroke="#63b8ff" d="M787.26,-266.39C793.62,-257.27 801.18,-246.45 806.32,-239.09"/>
<polygon fill="#63b8ff" stroke="#63b8ff" points="784.28,-264.55 781.42,-274.75 790.02,-268.55 784.28,-264.55"/>
</a>
</g>
</g>
<!-- Node19&#45;&gt;Node12 -->
<g id="edge25_Node000019_Node000012" class="edge">
<title>Node19&#45;&gt;Node12</title>
<g id="a_edge25_Node000019_Node000012"><a xlink:title=" ">
<path fill="none" stroke="#63b8ff" d="M792.28,-214.15C778.9,-204.57 761.75,-192.29 750.42,-184.17"/>
<polygon fill="#63b8ff" stroke="#63b8ff" points="790.25,-217.01 800.42,-219.98 794.33,-211.32 790.25,-217.01"/>
</a>
</g>
</g>
<!-- Node21 -->
<g id="Node000021" class="node">
<title>Node21</title>
<g id="a_Node000021"><a xlink:href="_impulse_processor_8h.html" target="_top" xlink:title=" ">
<polygon fill="white" stroke="#666666" points="123.81,-239 12.81,-239 12.81,-220 123.81,-220 123.81,-239"/>
<text text-anchor="middle" x="68.31" y="-227" font-family="Helvetica Neue" font-size="10.00">ImpulseProcessor.h</text>
</a>
</g>
</g>
<!-- Node20&#45;&gt;Node21 -->
<g id="edge27_Node000020_Node000021" class="edge">
<title>Node20&#45;&gt;Node21</title>
<g id="a_edge27_Node000020_Node000021"><a xlink:title=" ">
<path fill="none" stroke="#63b8ff" d="M72.18,-264.66C71.19,-255.93 70.06,-245.99 69.28,-239.09"/>
<polygon fill="#63b8ff" stroke="#63b8ff" points="68.72,-265.21 73.32,-274.75 75.67,-264.42 68.72,-265.21"/>
</a>
</g>
</g>
<!-- Node21&#45;&gt;Node12 -->
<g id="edge28_Node000021_Node000012" class="edge">
<title>Node21&#45;&gt;Node12</title>
<g id="a_edge28_Node000021_Node000012"><a xlink:title=" ">
<path fill="none" stroke="#63b8ff" d="M134.23,-219.88C383.58,-196.02 449.96,-215.95 695.31,-184 698.33,-183.61 701.45,-183.13 704.58,-182.6"/>
<polygon fill="#63b8ff" stroke="#63b8ff" points="133.75,-216.41 124.13,-220.86 134.42,-223.38 133.75,-216.41"/>
</a>
</g>
</g>
<!-- Node23 -->
<g id="Node000023" class="node">
<title>Node23</title>
<g id="a_Node000023"><a xlink:href="_l_f_o_processor_8h.html" target="_top" xlink:title=" ">
<polygon fill="white" stroke="#666666" points="232.81,-239 141.81,-239 141.81,-220 232.81,-220 232.81,-239"/>
<text text-anchor="middle" x="187.31" y="-227" font-family="Helvetica Neue" font-size="10.00">LFOProcessor.h</text>
</a>
</g>
</g>
<!-- Node22&#45;&gt;Node23 -->
<g id="edge30_Node000022_Node000023" class="edge">
<title>Node22&#45;&gt;Node23</title>
<g id="a_edge30_Node000022_Node000023"><a xlink:title=" ">
<path fill="none" stroke="#63b8ff" d="M230.13,-268.32C219.43,-258.87 206.06,-247.06 197.13,-239.17"/>
<polygon fill="#63b8ff" stroke="#63b8ff" points="227.86,-270.99 237.67,-274.98 232.49,-265.74 227.86,-270.99"/>
</a>
</g>
</g>
<!-- Node23&#45;&gt;Node12 -->
<g id="edge31_Node000023_Node000012" class="edge">
<title>Node23&#45;&gt;Node12</title>
<g id="a_edge31_Node000023_Node000012"><a xlink:title=" ">
<path fill="none" stroke="#63b8ff" d="M242.94,-219.9C444.05,-196.73 498.03,-211.23 695.31,-184 698.33,-183.58 701.45,-183.09 704.57,-182.55"/>
<polygon fill="#63b8ff" stroke="#63b8ff" points="242.47,-216.43 232.94,-221.06 243.28,-223.38 242.47,-216.43"/>
</a>
</g>
</g>
<!-- Node24&#45;&gt;Node4 -->
<g id="edge34_Node000024_Node000004" class="edge">
<title>Node24&#45;&gt;Node4</title>
<g id="a_edge34_Node000024_Node000004"><a xlink:title=" ">
<path fill="none" stroke="#63b8ff" d="M1074.29,-156.67C1067.19,-147.5 1058.71,-136.52 1052.96,-129.09"/>
<polygon fill="#63b8ff" stroke="#63b8ff" points="1071.65,-158.98 1080.54,-164.75 1077.19,-154.7 1071.65,-158.98"/>
</a>
</g>
</g>
<!-- Node25 -->
<g id="Node000025" class="node">
<title>Node25</title>
<g id="a_Node000025"><a xlink:href="_module_box_8cpp.html" target="_top" xlink:title=" ">
<polygon fill="white" stroke="#666666" points="1267.31,-129 1175.31,-129 1175.31,-110 1267.31,-110 1267.31,-129"/>
<text text-anchor="middle" x="1221.31" y="-117" font-family="Helvetica Neue" font-size="10.00">ModuleBox.cpp</text>
</a>
</g>
</g>
<!-- Node24&#45;&gt;Node25 -->
<g id="edge33_Node000024_Node000025" class="edge">
<title>Node24&#45;&gt;Node25</title>
<g id="a_edge33_Node000024_Node000025"><a xlink:title=" ">
<path fill="none" stroke="#63b8ff" d="M1118.18,-161.29C1143.02,-151.47 1177.3,-137.91 1199.39,-129.17"/>
<polygon fill="#63b8ff" stroke="#63b8ff" points="1116.85,-158.05 1108.84,-164.98 1119.43,-164.56 1116.85,-158.05"/>
</a>
</g>
</g>
<!-- Node27 -->
<g id="Node000027" class="node">
<title>Node27</title>
<g id="a_Node000027"><a xlink:href="_output_processor_8h.html" target="_top" xlink:title=" ">
<polygon fill="white" stroke="#666666" points="355.81,-239 250.81,-239 250.81,-220 355.81,-220 355.81,-239"/>
<text text-anchor="middle" x="303.31" y="-227" font-family="Helvetica Neue" font-size="10.00">OutputProcessor.h</text>
</a>
</g>
</g>
<!-- Node26&#45;&gt;Node27 -->
<g id="edge36_Node000026_Node000027" class="edge">
<title>Node26&#45;&gt;Node27</title>
<g id="a_edge36_Node000026_Node000027"><a xlink:title=" ">
<path fill="none" stroke="#63b8ff" d="M353.27,-268.88C340.86,-259.34 325.07,-247.21 314.6,-239.17"/>
<polygon fill="#63b8ff" stroke="#63b8ff" points="351.16,-271.67 361.23,-274.98 355.43,-266.12 351.16,-271.67"/>
</a>
</g>
</g>
<!-- Node27&#45;&gt;Node12 -->
<g id="edge37_Node000027_Node000012" class="edge">
<title>Node27&#45;&gt;Node12</title>
<g id="a_edge37_Node000027_Node000012"><a xlink:title=" ">
<path fill="none" stroke="#63b8ff" d="M366.16,-219.81C512.92,-201.98 552.32,-205.87 695.31,-184 698.32,-183.54 701.44,-183.02 704.56,-182.46"/>
<polygon fill="#63b8ff" stroke="#63b8ff" points="365.37,-216.38 355.87,-221.07 366.22,-223.33 365.37,-216.38"/>
</a>
</g>
</g>
<!-- Node28&#45;&gt;Node2 -->
<g id="edge42_Node000028_Node000002" class="edge">
<title>Node28&#45;&gt;Node2</title>
<g id="a_edge42_Node000028_Node000002"><a xlink:title=" ">
<path fill="none" stroke="#63b8ff" d="M1151.63,-281.63C1062.41,-276.68 831.52,-261.96 758.31,-239 747.7,-235.67 686.53,-200.57 657.98,-184.03"/>
<polygon fill="#63b8ff" stroke="#63b8ff" points="1151.61,-285.14 1161.79,-282.19 1152,-278.15 1151.61,-285.14"/>
</a>
</g>
</g>
<!-- Node28&#45;&gt;Node4 -->
<g id="edge48_Node000028_Node000004" class="edge">
<title>Node28&#45;&gt;Node4</title>
<g id="a_edge48_Node000028_Node000004"><a xlink:title=" ">
<path fill="none" stroke="#63b8ff" d="M1183.6,-265.13C1177.64,-239.76 1163.7,-193.88 1136.31,-165 1119.76,-147.55 1094.9,-135.98 1075.5,-129.02"/>
<polygon fill="#63b8ff" stroke="#63b8ff" points="1180.19,-265.9 1185.75,-274.92 1187.03,-264.4 1180.19,-265.9"/>
</a>
</g>
</g>
<!-- Node28&#45;&gt;Node5 -->
<g id="edge47_Node000028_Node000005" class="edge">
<title>Node28&#45;&gt;Node5</title>
<g id="a_edge47_Node000028_Node000005"><a xlink:title=" ">
<path fill="none" stroke="#63b8ff" d="M1199.79,-266.81C1232.39,-223.21 1319.27,-107.01 1343.79,-74.22"/>
<polygon fill="#63b8ff" stroke="#63b8ff" points="1196.89,-264.85 1193.7,-274.95 1202.49,-269.04 1196.89,-264.85"/>
</a>
</g>
</g>
<!-- Node28&#45;&gt;Node6 -->
<g id="edge46_Node000028_Node000006" class="edge">
<title>Node28&#45;&gt;Node6</title>
<g id="a_edge46_Node000028_Node000006"><a xlink:title=" ">
<path fill="none" stroke="#63b8ff" d="M1203.48,-267.69C1227.27,-244.6 1273.34,-200.51 1314.31,-165 1380.91,-107.27 1464.65,-42.41 1494.82,-19.27"/>
<polygon fill="#63b8ff" stroke="#63b8ff" points="1200.76,-265.46 1196.04,-274.94 1205.64,-270.47 1200.76,-265.46"/>
</a>
</g>
</g>
<!-- Node28&#45;&gt;Node13 -->
<g id="edge52_Node000028_Node000013" class="edge">
<title>Node28&#45;&gt;Node13</title>
<g id="a_edge52_Node000028_Node000013"><a xlink:title=" ">
<path fill="none" stroke="#63b8ff" d="M1187.9,-264.63C1187.9,-240.33 1185.33,-197.38 1169.31,-165 1161.97,-150.17 1147.9,-137.08 1137.86,-129"/>
<polygon fill="#63b8ff" stroke="#63b8ff" points="1184.39,-264.88 1187.74,-274.94 1191.39,-264.99 1184.39,-264.88"/>
</a>
</g>
</g>
<!-- Node29 -->
<g id="Node000029" class="node">
<title>Node29</title>
<g id="a_Node000029"><a xlink:href="_audio_engine_8h.html" target="_top" xlink:title=" ">
<polygon fill="white" stroke="#666666" points="1421.31,-239 1335.31,-239 1335.31,-220 1421.31,-220 1421.31,-239"/>
<text text-anchor="middle" x="1378.31" y="-227" font-family="Helvetica Neue" font-size="10.00">AudioEngine.h</text>
</a>
</g>
</g>
<!-- Node28&#45;&gt;Node29 -->
<g id="edge39_Node000028_Node000029" class="edge">
<title>Node28&#45;&gt;Node29</title>
<g id="a_edge39_Node000028_Node000029"><a xlink:title=" ">
<path fill="none" stroke="#63b8ff" d="M1223.11,-273.57C1258.99,-263.61 1313.64,-248.45 1347.6,-239.02"/>
<polygon fill="#63b8ff" stroke="#63b8ff" points="1221.77,-270.31 1213.07,-276.35 1223.64,-277.05 1221.77,-270.31"/>
</a>
</g>
</g>
<!-- Node31 -->
<g id="Node000031" class="node">
<title>Node31</title>
<g id="a_Node000031"><a xlink:href="_file_manager_8h.html" target="_top" xlink:title=" ">
<polygon fill="white" stroke="#666666" points="1638.81,-129 1553.81,-129 1553.81,-110 1638.81,-110 1638.81,-129"/>
<text text-anchor="middle" x="1596.31" y="-117" font-family="Helvetica Neue" font-size="10.00">FileManager.h</text>
</a>
</g>
</g>
<!-- Node28&#45;&gt;Node31 -->
<g id="edge43_Node000028_Node000031" class="edge">
<title>Node28&#45;&gt;Node31</title>
<g id="a_edge43_Node000028_Node000031"><a xlink:title=" ">
<path fill="none" stroke="#63b8ff" d="M1223,-274.81C1367.77,-245.9 1425.2,-271.34 1539.31,-184 1560.72,-167.61 1580.5,-142.43 1590.14,-129.24"/>
<polygon fill="#63b8ff" stroke="#63b8ff" points="1221.97,-271.45 1212.88,-276.89 1223.38,-278.3 1221.97,-271.45"/>
</a>
</g>
</g>
<!-- Node32 -->
<g id="Node000032" class="node">
<title>Node32</title>
<g id="a_Node000032"><a xlink:href="_port_u_i_8h.html" target="_top" xlink:title=" ">
<polygon fill="white" stroke="#666666" points="1127.31,-239 1071.31,-239 1071.31,-220 1127.31,-220 1127.31,-239"/>
<text text-anchor="middle" x="1099.31" y="-227" font-family="Helvetica Neue" font-size="10.00">PortUI.h</text>
</a>
</g>
</g>
<!-- Node28&#45;&gt;Node32 -->
<g id="edge49_Node000028_Node000032" class="edge">
<title>Node28&#45;&gt;Node32</title>
<g id="a_edge49_Node000028_Node000032"><a xlink:title=" ">
<path fill="none" stroke="#63b8ff" d="M1164.39,-269.7C1148.36,-260.04 1127.44,-247.44 1113.71,-239.17"/>
<polygon fill="#63b8ff" stroke="#63b8ff" points="1162.8,-272.82 1173.17,-274.98 1166.41,-266.83 1162.8,-272.82"/>
</a>
</g>
</g>
<!-- Node29&#45;&gt;Node6 -->
<g id="edge41_Node000029_Node000006" class="edge">
<title>Node29&#45;&gt;Node6</title>
<g id="a_edge41_Node000029_Node000006"><a xlink:title=" ">
<path fill="none" stroke="#63b8ff" d="M1406.09,-215.1C1435.66,-199.16 1480.92,-169.51 1501.31,-129 1520.02,-91.85 1512.32,-39.55 1508.23,-19.13"/>
<polygon fill="#63b8ff" stroke="#63b8ff" points="1404.35,-212.07 1397.1,-219.79 1407.58,-218.27 1404.35,-212.07"/>
</a>
</g>
</g>
<!-- Node30 -->
<g id="Node000030" class="node">
<title>Node30</title>
<g id="a_Node000030"><a xlink:href="_audio_engine_8cpp.html" target="_top" xlink:title=" ">
<polygon fill="white" stroke="#666666" points="1421.31,-184 1323.31,-184 1323.31,-165 1421.31,-165 1421.31,-184"/>
<text text-anchor="middle" x="1372.31" y="-172" font-family="Helvetica Neue" font-size="10.00">AudioEngine.cpp</text>
</a>
</g>
</g>
<!-- Node29&#45;&gt;Node30 -->
<g id="edge40_Node000029_Node000030" class="edge">
<title>Node29&#45;&gt;Node30</title>
<g id="a_edge40_Node000029_Node000030"><a xlink:title=" ">
<path fill="none" stroke="#63b8ff" d="M1376.18,-209.66C1375.19,-200.93 1374.06,-190.99 1373.28,-184.09"/>
<polygon fill="#63b8ff" stroke="#63b8ff" points="1372.72,-210.21 1377.32,-219.75 1379.67,-209.42 1372.72,-210.21"/>
</a>
</g>
</g>
<!-- Node31&#45;&gt;Node5 -->
<g id="edge45_Node000031_Node000005" class="edge">
<title>Node31&#45;&gt;Node5</title>
<g id="a_edge45_Node000031_Node000005"><a xlink:title=" ">
<path fill="none" stroke="#63b8ff" d="M1547.01,-107.88C1500.9,-97.94 1432.91,-83.3 1390.15,-74.08"/>
<polygon fill="#63b8ff" stroke="#63b8ff" points="1546.27,-111.3 1556.79,-109.98 1547.75,-104.46 1546.27,-111.3"/>
</a>
</g>
</g>
<!-- Node31&#45;&gt;Node6 -->
<g id="edge44_Node000031_Node000006" class="edge">
<title>Node31&#45;&gt;Node6</title>
<g id="a_edge44_Node000031_Node000006"><a xlink:title=" ">
<path fill="none" stroke="#63b8ff" d="M1582.3,-101.69C1562.87,-78.37 1528.44,-37.05 1513.53,-19.16"/>
<polygon fill="#63b8ff" stroke="#63b8ff" points="1579.86,-104.22 1588.95,-109.66 1585.23,-99.74 1579.86,-104.22"/>
</a>
</g>
</g>
<!-- Node32&#45;&gt;Node24 -->
<g id="edge50_Node000032_Node000024" class="edge">
<title>Node32&#45;&gt;Node24</title>
<g id="a_edge50_Node000032_Node000024"><a xlink:title=" ">
<path fill="none" stroke="#63b8ff" d="M1095.11,-209.95C1093.12,-201.15 1090.84,-191.06 1089.26,-184.09"/>
<polygon fill="#63b8ff" stroke="#63b8ff" points="1091.71,-210.77 1097.33,-219.75 1098.54,-209.22 1091.71,-210.77"/>
</a>
</g>
</g>
<!-- Node32&#45;&gt;Node33 -->
<g id="edge51_Node000032_Node000033" class="edge">
<title>Node32&#45;&gt;Node33</title>
<g id="a_edge51_Node000032_Node000033"><a xlink:title=" ">
<path fill="none" stroke="#63b8ff" d="M1073.54,-215.37C1054.44,-205.63 1028.94,-192.64 1012.32,-184.17"/>
<polygon fill="#63b8ff" stroke="#63b8ff" points="1072.1,-218.56 1082.6,-219.98 1075.28,-212.33 1072.1,-218.56"/>
</a>
</g>
</g>
<!-- Node35 -->
<g id="Node000035" class="node">
<title>Node35</title>
<g id="a_Node000035"><a xlink:href="_string_processor_8h.html" target="_top" xlink:title=" ">
<polygon fill="white" stroke="#666666" points="976.81,-239 875.81,-239 875.81,-220 976.81,-220 976.81,-239"/>
<text text-anchor="middle" x="926.31" y="-227" font-family="Helvetica Neue" font-size="10.00">StringProcessor.h</text>
</a>
</g>
</g>
<!-- Node34&#45;&gt;Node35 -->
<g id="edge54_Node000034_Node000035" class="edge">
<title>Node34&#45;&gt;Node35</title>
<g id="a_edge54_Node000034_Node000035"><a xlink:title=" ">
<path fill="none" stroke="#63b8ff" d="M965.98,-268.04C956.05,-258.64 943.72,-246.98 935.47,-239.17"/>
<polygon fill="#63b8ff" stroke="#63b8ff" points="963.65,-270.65 973.31,-274.98 968.46,-265.57 963.65,-270.65"/>
</a>
</g>
</g>
<!-- Node35&#45;&gt;Node12 -->
<g id="edge55_Node000035_Node000012" class="edge">
<title>Node35&#45;&gt;Node12</title>
<g id="a_edge55_Node000035_Node000012"><a xlink:title=" ">
<path fill="none" stroke="#63b8ff" d="M886.17,-217.18C851.01,-207.27 800.68,-193.08 768.75,-184.08"/>
<polygon fill="#63b8ff" stroke="#63b8ff" points="885.53,-220.64 896.11,-219.98 887.43,-213.9 885.53,-220.64"/>
</a>
</g>
</g>
<!-- Node37&#45;&gt;Node5 -->
<g id="edge58_Node000037_Node000005" class="edge">
<title>Node37&#45;&gt;Node5</title>
<g id="a_edge58_Node000037_Node000005"><a xlink:title=" ">
<path fill="none" stroke="#63b8ff" d="M1343.89,-281.51C1375.07,-276.99 1410.45,-265.71 1430.31,-239 1472.27,-182.57 1389.87,-100.62 1360.31,-74.11"/>
<polygon fill="#63b8ff" stroke="#63b8ff" points="1343.43,-278.04 1333.94,-282.75 1344.29,-284.99 1343.43,-278.04"/>
</a>
</g>
</g>
<!-- Node37&#45;&gt;Node24 -->
<g id="edge59_Node000037_Node000024" class="edge">
<title>Node37&#45;&gt;Node24</title>
<g id="a_edge59_Node000037_Node000024"><a xlink:title=" ">
<path fill="none" stroke="#63b8ff" d="M1257.68,-269.86C1216.88,-247.26 1136.45,-202.71 1102.74,-184.05"/>
<polygon fill="#63b8ff" stroke="#63b8ff" points="1256.24,-273.06 1266.68,-274.84 1259.63,-266.94 1256.24,-273.06"/>
</a>
</g>
</g>
<!-- Node38&#45;&gt;Node5 -->
<g id="edge61_Node000038_Node000005" class="edge">
<title>Node38&#45;&gt;Node5</title>
<g id="a_edge61_Node000038_Node000005"><a xlink:title=" ">
<path fill="none" stroke="#63b8ff" d="M1444.09,-320.25C1451.67,-288.2 1464.14,-219.98 1449.31,-165 1441.95,-137.7 1436.71,-130.58 1417.31,-110 1402.85,-94.65 1382.14,-81.93 1367.58,-74.07"/>
<polygon fill="#63b8ff" stroke="#63b8ff" points="1440.68,-319.45 1441.67,-330 1447.48,-321.14 1440.68,-319.45"/>
</a>
</g>
</g>
<!-- Node38&#45;&gt;Node34 -->
<g id="edge63_Node000038_Node000034" class="edge">
<title>Node38&#45;&gt;Node34</title>
<g id="a_edge63_Node000038_Node000034"><a xlink:title=" ">
<path fill="none" stroke="#63b8ff" d="M1378.61,-331.46C1280.62,-320.1 1090.9,-298.09 1014.93,-289.28"/>
<polygon fill="#63b8ff" stroke="#63b8ff" points="1378.32,-334.95 1388.66,-332.63 1379.13,-328 1378.32,-334.95"/>
</a>
</g>
</g>
<!-- Node39 -->
<g id="Node000039" class="node">
<title>Node39</title>
<g id="a_Node000039"><a xlink:href="_phi_slider_button_8cpp.html" target="_top" xlink:title=" ">
<polygon fill="white" stroke="#666666" points="1665.31,-294 1553.31,-294 1553.31,-275 1665.31,-275 1665.31,-294"/>
<text text-anchor="middle" x="1609.31" y="-282" font-family="Helvetica Neue" font-size="10.00">PhiSliderButton.cpp</text>
</a>
</g>
</g>
<!-- Node38&#45;&gt;Node39 -->
<g id="edge62_Node000038_Node000039" class="edge">
<title>Node38&#45;&gt;Node39</title>
<g id="a_edge62_Node000038_Node000039"><a xlink:title=" ">
<path fill="none" stroke="#63b8ff" d="M1476.43,-326.93C1508.18,-317.03 1553.16,-303.01 1581.78,-294.08"/>
<polygon fill="#63b8ff" stroke="#63b8ff" points="1475.13,-323.67 1466.62,-329.98 1477.21,-330.35 1475.13,-323.67"/>
</a>
</g>
</g>
<!-- Node40&#45;&gt;Node28 -->
<g id="edge66_Node000040_Node000028" class="edge">
<title>Node40&#45;&gt;Node28</title>
<g id="a_edge66_Node000040_Node000028"><a xlink:title=" ">
<path fill="none" stroke="#63b8ff" d="M1194.46,-319.95C1192.64,-311.15 1190.54,-301.06 1189.09,-294.09"/>
<polygon fill="#63b8ff" stroke="#63b8ff" points="1191.04,-320.67 1196.49,-329.75 1197.89,-319.25 1191.04,-320.67"/>
</a>
</g>
</g>
<!-- Node40&#45;&gt;Node37 -->
<g id="edge65_Node000040_Node000037" class="edge">
<title>Node40&#45;&gt;Node37</title>
<g id="a_edge65_Node000040_Node000037"><a xlink:title=" ">
<path fill="none" stroke="#63b8ff" d="M1220.62,-324.42C1235.86,-314.81 1255.58,-302.37 1268.57,-294.17"/>
<polygon fill="#63b8ff" stroke="#63b8ff" points="1218.4,-321.69 1211.81,-329.98 1222.13,-327.61 1218.4,-321.69"/>
</a>
</g>
</g>
</g>
</svg>
