<?xml version="1.0" encoding="UTF-8" standalone="no"?>
<!DOCTYPE svg PUBLIC "-//W3C//DTD SVG 1.1//EN"
 "http://www.w3.org/Graphics/SVG/1.1/DTD/svg11.dtd">
<!-- Generated by graphviz version 2.43.0 (0)
 -->
<!-- Title: PhiDial.cpp Pages: 1 -->
<svg width="182pt" height="137pt"
 viewBox="0.00 0.00 182.00 137.00" xmlns="http://www.w3.org/2000/svg" xmlns:xlink="http://www.w3.org/1999/xlink">
<g id="graph0" class="graph" transform="scale(1 1) rotate(0) translate(4 133)">
<title>PhiDial.cpp</title>
<!-- Node1 -->
<g id="Node000001" class="node">
<title>Node1</title>
<g id="a_Node000001"><a xlink:title=" ">
<polygon fill="#999999" stroke="#666666" points="120.5,-129 49.5,-129 49.5,-110 120.5,-110 120.5,-129"/>
<text text-anchor="middle" x="85" y="-117" font-family="Helvetica Neue" font-size="10.00">PhiDial.cpp</text>
</a>
</g>
</g>
<!-- Node2 -->
<g id="Node000002" class="node">
<title>Node2</title>
<g id="a_Node000002"><a xlink:href="_phi_dial_8h.html" target="_top" xlink:title=" ">
<polygon fill="white" stroke="#666666" points="70,-74 10,-74 10,-55 70,-55 70,-74"/>
<text text-anchor="middle" x="40" y="-62" font-family="Helvetica Neue" font-size="10.00">PhiDial.h</text>
</a>
</g>
</g>
<!-- Node1&#45;&gt;Node2 -->
<g id="edge1_Node000001_Node000002" class="edge">
<title>Node1&#45;&gt;Node2</title>
<g id="a_edge1_Node000001_Node000002"><a xlink:title=" ">
<path fill="none" stroke="#63b8ff" d="M77.57,-109.75C71.15,-102.18 61.69,-91.05 53.88,-81.84"/>
<polygon fill="#63b8ff" stroke="#63b8ff" points="56.43,-79.45 47.29,-74.09 51.1,-83.98 56.43,-79.45"/>
</a>
</g>
</g>
<!-- Node4 -->
<g id="Node000004" class="node">
<title>Node4</title>
<g id="a_Node000004"><a xlink:href="_phi_colours_8h.html" target="_top" xlink:title=" ">
<polygon fill="white" stroke="#666666" points="174,-74 88,-74 88,-55 174,-55 174,-74"/>
<text text-anchor="middle" x="131" y="-62" font-family="Helvetica Neue" font-size="10.00">../PhiColours.h</text>
</a>
</g>
</g>
<!-- Node1&#45;&gt;Node4 -->
<g id="edge3_Node000001_Node000004" class="edge">
<title>Node1&#45;&gt;Node4</title>
<g id="a_edge3_Node000001_Node000004"><a xlink:title=" ">
<path fill="none" stroke="#63b8ff" d="M92.6,-109.75C99.16,-102.18 108.82,-91.05 116.81,-81.84"/>
<polygon fill="#63b8ff" stroke="#63b8ff" points="119.63,-83.94 123.55,-74.09 114.35,-79.35 119.63,-83.94"/>
</a>
</g>
</g>
<!-- Node3 -->
<g id="Node000003" class="node">
<title>Node3</title>
<g id="a_Node000003"><a xlink:title=" ">
<polygon fill="#e0e0e0" stroke="#999999" points="80,-19 0,-19 0,0 80,0 80,-19"/>
<text text-anchor="middle" x="40" y="-7" font-family="Helvetica Neue" font-size="10.00">JuceHeader.h</text>
</a>
</g>
</g>
<!-- Node2&#45;&gt;Node3 -->
<g id="edge2_Node000002_Node000003" class="edge">
<title>Node2&#45;&gt;Node3</title>
<g id="a_edge2_Node000002_Node000003"><a xlink:title=" ">
<path fill="none" stroke="#63b8ff" d="M40,-54.75C40,-47.8 40,-37.85 40,-29.13"/>
<polygon fill="#63b8ff" stroke="#63b8ff" points="43.5,-29.09 40,-19.09 36.5,-29.09 43.5,-29.09"/>
</a>
</g>
</g>
</g>
</svg>
