<?xml version="1.0" encoding="UTF-8" standalone="no"?>
<!DOCTYPE svg PUBLIC "-//W3C//DTD SVG 1.1//EN"
 "http://www.w3.org/Graphics/SVG/1.1/DTD/svg11.dtd">
<!-- Generated by graphviz version 2.43.0 (0)
 -->
<!-- Title: PhiDial.h Pages: 1 -->
<svg width="811pt" height="357pt"
 viewBox="0.00 0.00 811.00 357.00" xmlns="http://www.w3.org/2000/svg" xmlns:xlink="http://www.w3.org/1999/xlink">
<g id="graph0" class="graph" transform="scale(1 1) rotate(0) translate(4 353)">
<title>PhiDial.h</title>
<!-- Node1 -->
<g id="Node000001" class="node">
<title>Node1</title>
<g id="a_Node000001"><a xlink:title=" ">
<polygon fill="#999999" stroke="#666666" points="471.5,-349 411.5,-349 411.5,-330 471.5,-330 471.5,-349"/>
<text text-anchor="middle" x="441.5" y="-337" font-family="Helvetica Neue" font-size="10.00">PhiDial.h</text>
</a>
</g>
</g>
<!-- Node2 -->
<g id="Node000002" class="node">
<title>Node2</title>
<g id="a_Node000002"><a xlink:href="_filter_u_i_8h.html" target="_top" xlink:title=" ">
<polygon fill="white" stroke="#666666" points="115,-294 54,-294 54,-275 115,-275 115,-294"/>
<text text-anchor="middle" x="84.5" y="-282" font-family="Helvetica Neue" font-size="10.00">FilterUI.h</text>
</a>
</g>
</g>
<!-- Node1&#45;&gt;Node2 -->
<g id="edge1_Node000001_Node000002" class="edge">
<title>Node1&#45;&gt;Node2</title>
<g id="a_edge1_Node000001_Node000002"><a xlink:title=" ">
<path fill="none" stroke="#63b8ff" d="M401.32,-332.54C329.29,-321.84 179.68,-299.63 115.18,-290.05"/>
<polygon fill="#63b8ff" stroke="#63b8ff" points="400.96,-336.02 411.37,-334.03 401.99,-329.1 400.96,-336.02"/>
</a>
</g>
</g>
<!-- Node12 -->
<g id="Node000012" class="node">
<title>Node12</title>
<g id="a_Node000012"><a xlink:href="_friction_u_i_8h.html" target="_top" xlink:title=" ">
<polygon fill="white" stroke="#666666" points="223.5,-294 151.5,-294 151.5,-275 223.5,-275 223.5,-294"/>
<text text-anchor="middle" x="187.5" y="-282" font-family="Helvetica Neue" font-size="10.00">FrictionUI.h</text>
</a>
</g>
</g>
<!-- Node1&#45;&gt;Node12 -->
<g id="edge13_Node000001_Node000012" class="edge">
<title>Node1&#45;&gt;Node12</title>
<g id="a_edge13_Node000001_Node000012"><a xlink:title=" ">
<path fill="none" stroke="#63b8ff" d="M401.47,-330.15C352.63,-319.96 270.78,-302.88 223.73,-293.06"/>
<polygon fill="#63b8ff" stroke="#63b8ff" points="400.86,-333.6 411.37,-332.21 402.29,-326.74 400.86,-333.6"/>
</a>
</g>
</g>
<!-- Node14 -->
<g id="Node000014" class="node">
<title>Node14</title>
<g id="a_Node000014"><a xlink:href="_gain_u_i_8h.html" target="_top" xlink:title=" ">
<polygon fill="white" stroke="#666666" points="337,-294 278,-294 278,-275 337,-275 337,-294"/>
<text text-anchor="middle" x="307.5" y="-282" font-family="Helvetica Neue" font-size="10.00">GainUI.h</text>
</a>
</g>
</g>
<!-- Node1&#45;&gt;Node14 -->
<g id="edge16_Node000001_Node000014" class="edge">
<title>Node1&#45;&gt;Node14</title>
<g id="a_edge16_Node000001_Node000014"><a xlink:title=" ">
<path fill="none" stroke="#63b8ff" d="M410.63,-326.29C385.8,-316.47 351.51,-302.91 329.42,-294.17"/>
<polygon fill="#63b8ff" stroke="#63b8ff" points="409.38,-329.56 419.97,-329.98 411.96,-323.05 409.38,-329.56"/>
</a>
</g>
</g>
<!-- Node16 -->
<g id="Node000016" class="node">
<title>Node16</title>
<g id="a_Node000016"><a xlink:href="_grit_u_i_8h.html" target="_top" xlink:title=" ">
<polygon fill="white" stroke="#666666" points="427.5,-294 373.5,-294 373.5,-275 427.5,-275 427.5,-294"/>
<text text-anchor="middle" x="400.5" y="-282" font-family="Helvetica Neue" font-size="10.00">GritUI.h</text>
</a>
</g>
</g>
<!-- Node1&#45;&gt;Node16 -->
<g id="edge19_Node000001_Node000016" class="edge">
<title>Node1&#45;&gt;Node16</title>
<g id="a_edge19_Node000001_Node000016"><a xlink:title=" ">
<path fill="none" stroke="#63b8ff" d="M428.48,-321.67C421.38,-312.5 412.9,-301.52 407.14,-294.09"/>
<polygon fill="#63b8ff" stroke="#63b8ff" points="425.84,-323.98 434.73,-329.75 431.38,-319.7 425.84,-323.98"/>
</a>
</g>
</g>
<!-- Node18 -->
<g id="Node000018" class="node">
<title>Node18</title>
<g id="a_Node000018"><a xlink:href="_impulse_u_i_8h.html" target="_top" xlink:title=" ">
<polygon fill="white" stroke="#666666" points="521,-294 446,-294 446,-275 521,-275 521,-294"/>
<text text-anchor="middle" x="483.5" y="-282" font-family="Helvetica Neue" font-size="10.00">ImpulseUI.h</text>
</a>
</g>
</g>
<!-- Node1&#45;&gt;Node18 -->
<g id="edge22_Node000001_Node000018" class="edge">
<title>Node1&#45;&gt;Node18</title>
<g id="a_edge22_Node000001_Node000018"><a xlink:title=" ">
<path fill="none" stroke="#63b8ff" d="M454.83,-321.67C462.11,-312.5 470.8,-301.52 476.69,-294.09"/>
<polygon fill="#63b8ff" stroke="#63b8ff" points="451.9,-319.74 448.44,-329.75 457.39,-324.08 451.9,-319.74"/>
</a>
</g>
</g>
<!-- Node20 -->
<g id="Node000020" class="node">
<title>Node20</title>
<g id="a_Node000020"><a xlink:href="_l_f_o_u_i_8h.html" target="_top" xlink:title=" ">
<polygon fill="white" stroke="#666666" points="594,-294 539,-294 539,-275 594,-275 594,-294"/>
<text text-anchor="middle" x="566.5" y="-282" font-family="Helvetica Neue" font-size="10.00">LFOUI.h</text>
</a>
</g>
</g>
<!-- Node1&#45;&gt;Node20 -->
<g id="edge25_Node000001_Node000020" class="edge">
<title>Node1&#45;&gt;Node20</title>
<g id="a_edge25_Node000001_Node000020"><a xlink:title=" ">
<path fill="none" stroke="#63b8ff" d="M470.91,-326.03C494.03,-316.23 525.63,-302.83 546.05,-294.17"/>
<polygon fill="#63b8ff" stroke="#63b8ff" points="469.42,-322.86 461.58,-329.98 472.16,-329.3 469.42,-322.86"/>
</a>
</g>
</g>
<!-- Node22 -->
<g id="Node000022" class="node">
<title>Node22</title>
<g id="a_Node000022"><a xlink:href="_phi_dial_8cpp.html" target="_top" xlink:title=" ">
<polygon fill="white" stroke="#666666" points="683,-294 612,-294 612,-275 683,-275 683,-294"/>
<text text-anchor="middle" x="647.5" y="-282" font-family="Helvetica Neue" font-size="10.00">PhiDial.cpp</text>
</a>
</g>
</g>
<!-- Node1&#45;&gt;Node22 -->
<g id="edge28_Node000001_Node000022" class="edge">
<title>Node1&#45;&gt;Node22</title>
<g id="a_edge28_Node000001_Node000022"><a xlink:title=" ">
<path fill="none" stroke="#63b8ff" d="M481.77,-328.14C520.43,-318.19 578.13,-303.35 614.25,-294.06"/>
<polygon fill="#63b8ff" stroke="#63b8ff" points="480.71,-324.8 471.9,-330.68 482.45,-331.58 480.71,-324.8"/>
</a>
</g>
</g>
<!-- Node23 -->
<g id="Node000023" class="node">
<title>Node23</title>
<g id="a_Node000023"><a xlink:href="_string_u_i_8h.html" target="_top" xlink:title=" ">
<polygon fill="white" stroke="#666666" points="775,-294 710,-294 710,-275 775,-275 775,-294"/>
<text text-anchor="middle" x="742.5" y="-282" font-family="Helvetica Neue" font-size="10.00">StringUI.h</text>
</a>
</g>
</g>
<!-- Node1&#45;&gt;Node23 -->
<g id="edge29_Node000001_Node000023" class="edge">
<title>Node1&#45;&gt;Node23</title>
<g id="a_edge29_Node000001_Node000023"><a xlink:title=" ">
<path fill="none" stroke="#63b8ff" d="M481.62,-331.44C541.71,-320.85 653.95,-301.09 709.55,-291.3"/>
<polygon fill="#63b8ff" stroke="#63b8ff" points="480.98,-327.99 471.74,-333.18 482.19,-334.89 480.98,-327.99"/>
</a>
</g>
</g>
<!-- Node3 -->
<g id="Node000003" class="node">
<title>Node3</title>
<g id="a_Node000003"><a xlink:href="_filter_processor_8h.html" target="_top" xlink:title=" ">
<polygon fill="white" stroke="#666666" points="97,-239 0,-239 0,-220 97,-220 97,-239"/>
<text text-anchor="middle" x="48.5" y="-227" font-family="Helvetica Neue" font-size="10.00">FilterProcessor.h</text>
</a>
</g>
</g>
<!-- Node2&#45;&gt;Node3 -->
<g id="edge2_Node000002_Node000003" class="edge">
<title>Node2&#45;&gt;Node3</title>
<g id="a_edge2_Node000002_Node000003"><a xlink:title=" ">
<path fill="none" stroke="#63b8ff" d="M72.88,-266.39C66.68,-257.27 59.33,-246.45 54.33,-239.09"/>
<polygon fill="#63b8ff" stroke="#63b8ff" points="70.04,-268.44 78.56,-274.75 75.83,-264.51 70.04,-268.44"/>
</a>
</g>
</g>
<!-- Node4 -->
<g id="Node000004" class="node">
<title>Node4</title>
<g id="a_Node000004"><a xlink:href="_modules_8h.html" target="_top" xlink:title=" ">
<polygon fill="white" stroke="#666666" points="434,-184 367,-184 367,-165 434,-165 434,-184"/>
<text text-anchor="middle" x="400.5" y="-172" font-family="Helvetica Neue" font-size="10.00">Modules.h</text>
</a>
</g>
</g>
<!-- Node3&#45;&gt;Node4 -->
<g id="edge3_Node000003_Node000004" class="edge">
<title>Node3&#45;&gt;Node4</title>
<g id="a_edge3_Node000003_Node000004"><a xlink:title=" ">
<path fill="none" stroke="#63b8ff" d="M107.2,-219.66C181.43,-208.48 306.78,-189.61 366.67,-180.59"/>
<polygon fill="#63b8ff" stroke="#63b8ff" points="106.44,-216.24 97.07,-221.19 107.48,-223.16 106.44,-216.24"/>
</a>
</g>
</g>
<!-- Node5 -->
<g id="Node000005" class="node">
<title>Node5</title>
<g id="a_Node000005"><a xlink:href="_patcher_8h.html" target="_top" xlink:title=" ">
<polygon fill="white" stroke="#666666" points="391,-129 330,-129 330,-110 391,-110 391,-129"/>
<text text-anchor="middle" x="360.5" y="-117" font-family="Helvetica Neue" font-size="10.00">Patcher.h</text>
</a>
</g>
</g>
<!-- Node4&#45;&gt;Node5 -->
<g id="edge4_Node000004_Node000005" class="edge">
<title>Node4&#45;&gt;Node5</title>
<g id="a_edge4_Node000004_Node000005"><a xlink:title=" ">
<path fill="none" stroke="#63b8ff" d="M387.8,-156.67C380.87,-147.5 372.59,-136.52 366.98,-129.09"/>
<polygon fill="#63b8ff" stroke="#63b8ff" points="385.08,-158.87 393.89,-164.75 390.66,-154.66 385.08,-158.87"/>
</a>
</g>
</g>
<!-- Node11 -->
<g id="Node000011" class="node">
<title>Node11</title>
<g id="a_Node000011"><a xlink:href="_state_8cpp.html" target="_top" xlink:title=" ">
<polygon fill="white" stroke="#666666" points="471.5,-129 409.5,-129 409.5,-110 471.5,-110 471.5,-129"/>
<text text-anchor="middle" x="440.5" y="-117" font-family="Helvetica Neue" font-size="10.00">State.cpp</text>
</a>
</g>
</g>
<!-- Node4&#45;&gt;Node11 -->
<g id="edge12_Node000004_Node000011" class="edge">
<title>Node4&#45;&gt;Node11</title>
<g id="a_edge12_Node000004_Node000011"><a xlink:title=" ">
<path fill="none" stroke="#63b8ff" d="M413.2,-156.67C420.13,-147.5 428.41,-136.52 434.02,-129.09"/>
<polygon fill="#63b8ff" stroke="#63b8ff" points="410.34,-154.66 407.11,-164.75 415.92,-158.87 410.34,-154.66"/>
</a>
</g>
</g>
<!-- Node6 -->
<g id="Node000006" class="node">
<title>Node6</title>
<g id="a_Node000006"><a xlink:href="_connections_8cpp.html" target="_top" xlink:title=" ">
<polygon fill="white" stroke="#666666" points="277,-19 180,-19 180,0 277,0 277,-19"/>
<text text-anchor="middle" x="228.5" y="-7" font-family="Helvetica Neue" font-size="10.00">Connections.cpp</text>
</a>
</g>
</g>
<!-- Node5&#45;&gt;Node6 -->
<g id="edge5_Node000005_Node000006" class="edge">
<title>Node5&#45;&gt;Node6</title>
<g id="a_edge5_Node000005_Node000006"><a xlink:title=" ">
<path fill="none" stroke="#63b8ff" d="M338.79,-103.83C326.68,-95.42 311.48,-84.48 298.5,-74 275.53,-55.44 250.25,-31.58 237.27,-19.06"/>
<polygon fill="#63b8ff" stroke="#63b8ff" points="337.13,-106.93 347.36,-109.71 341.1,-101.17 337.13,-106.93"/>
</a>
</g>
</g>
<!-- Node7 -->
<g id="Node000007" class="node">
<title>Node7</title>
<g id="a_Node000007"><a xlink:href="_main_component_8h.html" target="_top" xlink:title=" ">
<polygon fill="white" stroke="#666666" points="413.5,-74 307.5,-74 307.5,-55 413.5,-55 413.5,-74"/>
<text text-anchor="middle" x="360.5" y="-62" font-family="Helvetica Neue" font-size="10.00">MainComponent.h</text>
</a>
</g>
</g>
<!-- Node5&#45;&gt;Node7 -->
<g id="edge6_Node000005_Node000007" class="edge">
<title>Node5&#45;&gt;Node7</title>
<g id="a_edge6_Node000005_Node000007"><a xlink:title=" ">
<path fill="none" stroke="#63b8ff" d="M360.5,-99.66C360.5,-90.93 360.5,-80.99 360.5,-74.09"/>
<polygon fill="#63b8ff" stroke="#63b8ff" points="357,-99.75 360.5,-109.75 364,-99.75 357,-99.75"/>
</a>
</g>
</g>
<!-- Node10 -->
<g id="Node000010" class="node">
<title>Node10</title>
<g id="a_Node000010"><a xlink:href="_patcher_8cpp.html" target="_top" xlink:title=" ">
<polygon fill="white" stroke="#666666" points="581.5,-19 509.5,-19 509.5,0 581.5,0 581.5,-19"/>
<text text-anchor="middle" x="545.5" y="-7" font-family="Helvetica Neue" font-size="10.00">Patcher.cpp</text>
</a>
</g>
</g>
<!-- Node5&#45;&gt;Node10 -->
<g id="edge11_Node000005_Node000010" class="edge">
<title>Node5&#45;&gt;Node10</title>
<g id="a_edge11_Node000005_Node000010"><a xlink:title=" ">
<path fill="none" stroke="#63b8ff" d="M384.36,-104.57C423.22,-81.89 499.02,-37.64 530.86,-19.05"/>
<polygon fill="#63b8ff" stroke="#63b8ff" points="382.2,-101.78 375.33,-109.84 385.73,-107.83 382.2,-101.78"/>
</a>
</g>
</g>
<!-- Node7&#45;&gt;Node6 -->
<g id="edge7_Node000007_Node000006" class="edge">
<title>Node7&#45;&gt;Node6</title>
<g id="a_edge7_Node000007_Node000006"><a xlink:title=" ">
<path fill="none" stroke="#63b8ff" d="M329.77,-51.16C305.33,-41.35 271.76,-27.87 250.09,-19.17"/>
<polygon fill="#63b8ff" stroke="#63b8ff" points="328.71,-54.51 339.29,-54.98 331.32,-48.01 328.71,-54.51"/>
</a>
</g>
</g>
<!-- Node8 -->
<g id="Node000008" class="node">
<title>Node8</title>
<g id="a_Node000008"><a xlink:href="_main_8cpp.html" target="_top" xlink:title=" ">
<polygon fill="white" stroke="#666666" points="356,-19 295,-19 295,0 356,0 356,-19"/>
<text text-anchor="middle" x="325.5" y="-7" font-family="Helvetica Neue" font-size="10.00">Main.cpp</text>
</a>
</g>
</g>
<!-- Node7&#45;&gt;Node8 -->
<g id="edge8_Node000007_Node000008" class="edge">
<title>Node7&#45;&gt;Node8</title>
<g id="a_edge8_Node000007_Node000008"><a xlink:title=" ">
<path fill="none" stroke="#63b8ff" d="M349.2,-46.39C343.18,-37.27 336.03,-26.45 331.17,-19.09"/>
<polygon fill="#63b8ff" stroke="#63b8ff" points="346.29,-48.33 354.72,-54.75 352.13,-44.47 346.29,-48.33"/>
</a>
</g>
</g>
<!-- Node9 -->
<g id="Node000009" class="node">
<title>Node9</title>
<g id="a_Node000009"><a xlink:href="_main_component_8cpp.html" target="_top" xlink:title=" ">
<polygon fill="white" stroke="#666666" points="491,-19 374,-19 374,0 491,0 491,-19"/>
<text text-anchor="middle" x="432.5" y="-7" font-family="Helvetica Neue" font-size="10.00">MainComponent.cpp</text>
</a>
</g>
</g>
<!-- Node7&#45;&gt;Node9 -->
<g id="edge9_Node000007_Node000009" class="edge">
<title>Node7&#45;&gt;Node9</title>
<g id="a_edge9_Node000007_Node000009"><a xlink:title=" ">
<path fill="none" stroke="#63b8ff" d="M380.37,-48.88C393.32,-39.34 409.8,-27.21 420.72,-19.17"/>
<polygon fill="#63b8ff" stroke="#63b8ff" points="378.05,-46.24 372.07,-54.98 382.2,-51.88 378.05,-46.24"/>
</a>
</g>
</g>
<!-- Node7&#45;&gt;Node10 -->
<g id="edge10_Node000007_Node000010" class="edge">
<title>Node7&#45;&gt;Node10</title>
<g id="a_edge10_Node000007_Node000010"><a xlink:title=" ">
<path fill="none" stroke="#63b8ff" d="M400,-52.18C434.6,-42.27 484.13,-28.08 515.54,-19.08"/>
<polygon fill="#63b8ff" stroke="#63b8ff" points="398.87,-48.87 390.22,-54.98 400.8,-55.6 398.87,-48.87"/>
</a>
</g>
</g>
<!-- Node13 -->
<g id="Node000013" class="node">
<title>Node13</title>
<g id="a_Node000013"><a xlink:href="_friction_processor_8h.html" target="_top" xlink:title=" ">
<polygon fill="white" stroke="#666666" points="223.5,-239 115.5,-239 115.5,-220 223.5,-220 223.5,-239"/>
<text text-anchor="middle" x="169.5" y="-227" font-family="Helvetica Neue" font-size="10.00">FrictionProcessor.h</text>
</a>
</g>
</g>
<!-- Node12&#45;&gt;Node13 -->
<g id="edge14_Node000012_Node000013" class="edge">
<title>Node12&#45;&gt;Node13</title>
<g id="a_edge14_Node000012_Node000013"><a xlink:title=" ">
<path fill="none" stroke="#63b8ff" d="M181.3,-265.24C178.29,-256.37 174.81,-246.14 172.42,-239.09"/>
<polygon fill="#63b8ff" stroke="#63b8ff" points="178,-266.4 184.53,-274.75 184.63,-264.15 178,-266.4"/>
</a>
</g>
</g>
<!-- Node13&#45;&gt;Node4 -->
<g id="edge15_Node000013_Node000004" class="edge">
<title>Node13&#45;&gt;Node4</title>
<g id="a_edge15_Node000013_Node000004"><a xlink:title=" ">
<path fill="none" stroke="#63b8ff" d="M216.64,-217.68C261.31,-207.44 327.28,-192.3 366.86,-183.22"/>
<polygon fill="#63b8ff" stroke="#63b8ff" points="215.58,-214.34 206.61,-219.98 217.14,-221.16 215.58,-214.34"/>
</a>
</g>
</g>
<!-- Node15 -->
<g id="Node000015" class="node">
<title>Node15</title>
<g id="a_Node000015"><a xlink:href="_gain_processor_8h.html" target="_top" xlink:title=" ">
<polygon fill="white" stroke="#666666" points="337,-239 242,-239 242,-220 337,-220 337,-239"/>
<text text-anchor="middle" x="289.5" y="-227" font-family="Helvetica Neue" font-size="10.00">GainProcessor.h</text>
</a>
</g>
</g>
<!-- Node14&#45;&gt;Node15 -->
<g id="edge17_Node000014_Node000015" class="edge">
<title>Node14&#45;&gt;Node15</title>
<g id="a_edge17_Node000014_Node000015"><a xlink:title=" ">
<path fill="none" stroke="#63b8ff" d="M301.3,-265.24C298.29,-256.37 294.81,-246.14 292.42,-239.09"/>
<polygon fill="#63b8ff" stroke="#63b8ff" points="298,-266.4 304.53,-274.75 304.63,-264.15 298,-266.4"/>
</a>
</g>
</g>
<!-- Node15&#45;&gt;Node4 -->
<g id="edge18_Node000015_Node000004" class="edge">
<title>Node15&#45;&gt;Node4</title>
<g id="a_edge18_Node000015_Node000004"><a xlink:title=" ">
<path fill="none" stroke="#63b8ff" d="M316.45,-215.63C336.89,-205.87 364.45,-192.71 382.34,-184.17"/>
<polygon fill="#63b8ff" stroke="#63b8ff" points="314.85,-212.52 307.33,-219.98 317.87,-218.83 314.85,-212.52"/>
</a>
</g>
</g>
<!-- Node17 -->
<g id="Node000017" class="node">
<title>Node17</title>
<g id="a_Node000017"><a xlink:href="_grit_processor_8h.html" target="_top" xlink:title=" ">
<polygon fill="white" stroke="#666666" points="445.5,-239 355.5,-239 355.5,-220 445.5,-220 445.5,-239"/>
<text text-anchor="middle" x="400.5" y="-227" font-family="Helvetica Neue" font-size="10.00">GritProcessor.h</text>
</a>
</g>
</g>
<!-- Node16&#45;&gt;Node17 -->
<g id="edge20_Node000016_Node000017" class="edge">
<title>Node16&#45;&gt;Node17</title>
<g id="a_edge20_Node000016_Node000017"><a xlink:title=" ">
<path fill="none" stroke="#63b8ff" d="M400.5,-264.66C400.5,-255.93 400.5,-245.99 400.5,-239.09"/>
<polygon fill="#63b8ff" stroke="#63b8ff" points="397,-264.75 400.5,-274.75 404,-264.75 397,-264.75"/>
</a>
</g>
</g>
<!-- Node17&#45;&gt;Node4 -->
<g id="edge21_Node000017_Node000004" class="edge">
<title>Node17&#45;&gt;Node4</title>
<g id="a_edge21_Node000017_Node000004"><a xlink:title=" ">
<path fill="none" stroke="#63b8ff" d="M400.5,-209.66C400.5,-200.93 400.5,-190.99 400.5,-184.09"/>
<polygon fill="#63b8ff" stroke="#63b8ff" points="397,-209.75 400.5,-219.75 404,-209.75 397,-209.75"/>
</a>
</g>
</g>
<!-- Node19 -->
<g id="Node000019" class="node">
<title>Node19</title>
<g id="a_Node000019"><a xlink:href="_impulse_processor_8h.html" target="_top" xlink:title=" ">
<polygon fill="white" stroke="#666666" points="575,-239 464,-239 464,-220 575,-220 575,-239"/>
<text text-anchor="middle" x="519.5" y="-227" font-family="Helvetica Neue" font-size="10.00">ImpulseProcessor.h</text>
</a>
</g>
</g>
<!-- Node18&#45;&gt;Node19 -->
<g id="edge23_Node000018_Node000019" class="edge">
<title>Node18&#45;&gt;Node19</title>
<g id="a_edge23_Node000018_Node000019"><a xlink:title=" ">
<path fill="none" stroke="#63b8ff" d="M495.12,-266.39C501.32,-257.27 508.67,-246.45 513.67,-239.09"/>
<polygon fill="#63b8ff" stroke="#63b8ff" points="492.17,-264.51 489.44,-274.75 497.96,-268.44 492.17,-264.51"/>
</a>
</g>
</g>
<!-- Node19&#45;&gt;Node4 -->
<g id="edge24_Node000019_Node000004" class="edge">
<title>Node19&#45;&gt;Node4</title>
<g id="a_edge24_Node000019_Node000004"><a xlink:title=" ">
<path fill="none" stroke="#63b8ff" d="M491.2,-215.9C469.22,-206.11 439.32,-192.79 419.97,-184.17"/>
<polygon fill="#63b8ff" stroke="#63b8ff" points="489.82,-219.11 500.38,-219.98 492.67,-212.72 489.82,-219.11"/>
</a>
</g>
</g>
<!-- Node21 -->
<g id="Node000021" class="node">
<title>Node21</title>
<g id="a_Node000021"><a xlink:href="_l_f_o_processor_8h.html" target="_top" xlink:title=" ">
<polygon fill="white" stroke="#666666" points="684,-239 593,-239 593,-220 684,-220 684,-239"/>
<text text-anchor="middle" x="638.5" y="-227" font-family="Helvetica Neue" font-size="10.00">LFOProcessor.h</text>
</a>
</g>
</g>
<!-- Node20&#45;&gt;Node21 -->
<g id="edge26_Node000020_Node000021" class="edge">
<title>Node20&#45;&gt;Node21</title>
<g id="a_edge26_Node000020_Node000021"><a xlink:title=" ">
<path fill="none" stroke="#63b8ff" d="M586.37,-268.88C599.32,-259.34 615.8,-247.21 626.72,-239.17"/>
<polygon fill="#63b8ff" stroke="#63b8ff" points="584.05,-266.24 578.07,-274.98 588.2,-271.88 584.05,-266.24"/>
</a>
</g>
</g>
<!-- Node21&#45;&gt;Node4 -->
<g id="edge27_Node000021_Node000004" class="edge">
<title>Node21&#45;&gt;Node4</title>
<g id="a_edge27_Node000021_Node000004"><a xlink:title=" ">
<path fill="none" stroke="#63b8ff" d="M590.42,-217.79C543.97,-207.45 474.82,-192.05 434.03,-182.97"/>
<polygon fill="#63b8ff" stroke="#63b8ff" points="589.74,-221.23 600.26,-219.98 591.26,-214.39 589.74,-221.23"/>
</a>
</g>
</g>
<!-- Node24 -->
<g id="Node000024" class="node">
<title>Node24</title>
<g id="a_Node000024"><a xlink:href="_string_processor_8h.html" target="_top" xlink:title=" ">
<polygon fill="white" stroke="#666666" points="803,-239 702,-239 702,-220 803,-220 803,-239"/>
<text text-anchor="middle" x="752.5" y="-227" font-family="Helvetica Neue" font-size="10.00">StringProcessor.h</text>
</a>
</g>
</g>
<!-- Node23&#45;&gt;Node24 -->
<g id="edge30_Node000023_Node000024" class="edge">
<title>Node23&#45;&gt;Node24</title>
<g id="a_edge30_Node000023_Node000024"><a xlink:title=" ">
<path fill="none" stroke="#63b8ff" d="M746.05,-264.66C747.7,-255.93 749.58,-245.99 750.88,-239.09"/>
<polygon fill="#63b8ff" stroke="#63b8ff" points="742.57,-264.27 744.15,-274.75 749.44,-265.57 742.57,-264.27"/>
</a>
</g>
</g>
<!-- Node24&#45;&gt;Node4 -->
<g id="edge31_Node000024_Node000004" class="edge">
<title>Node24&#45;&gt;Node4</title>
<g id="a_edge31_Node000024_Node000004"><a xlink:title=" ">
<path fill="none" stroke="#63b8ff" d="M691.52,-219.32C617.02,-208.1 493.62,-189.52 434.34,-180.59"/>
<polygon fill="#63b8ff" stroke="#63b8ff" points="691.28,-222.82 701.69,-220.85 692.32,-215.9 691.28,-222.82"/>
</a>
</g>
</g>
</g>
</svg>
