<?xml version="1.0" encoding="UTF-8" standalone="no"?>
<!DOCTYPE svg PUBLIC "-//W3C//DTD SVG 1.1//EN"
 "http://www.w3.org/Graphics/SVG/1.1/DTD/svg11.dtd">
<!-- Generated by graphviz version 2.38.0 (20140413.2041)
 -->
<!-- Title: PhiColours.h Pages: 1 -->
<svg width="519pt" height="308pt"
 viewBox="0.00 0.00 519.00 308.00" xmlns="http://www.w3.org/2000/svg" xmlns:xlink="http://www.w3.org/1999/xlink">
<g id="graph0" class="graph" transform="scale(1 1) rotate(0) translate(4 304)">
<title>PhiColours.h</title>
<polygon fill="white" stroke="none" points="-4,4 -4,-304 515,-304 515,4 -4,4"/>
<!-- Node1 -->
<g id="node1" class="node"><title>Node1</title>
<polygon fill="#bfbfbf" stroke="black" points="267,-280.5 267,-299.5 343,-299.5 343,-280.5 267,-280.5"/>
<text text-anchor="middle" x="305" y="-287.5" font-family="Helvetica Neue" font-size="10.00">PhiColours.h</text>
</g>
<!-- Node2 -->
<g id="node2" class="node"><title>Node2</title>
<g id="a_node2"><a xlink:href="_connections_8h.html" target="_top" xlink:title="Connections.h">
<polygon fill="white" stroke="black" points="155.5,-224.5 155.5,-243.5 240.5,-243.5 240.5,-224.5 155.5,-224.5"/>
<text text-anchor="middle" x="198" y="-231.5" font-family="Helvetica Neue" font-size="10.00">Connections.h</text>
</a>
</g>
</g>
<!-- Node1&#45;&gt;Node2 -->
<g id="edge1" class="edge"><title>Node1&#45;&gt;Node2</title>
<path fill="none" stroke="midnightblue" d="M278.698,-275.726C258.885,-265.727 232.293,-252.307 215.149,-243.655"/>
<polygon fill="midnightblue" stroke="midnightblue" points="277.304,-278.943 287.809,-280.324 280.458,-272.694 277.304,-278.943"/>
</g>
<!-- Node6 -->
<g id="node6" class="node"><title>Node6</title>
<g id="a_node6"><a xlink:href="_main_component_8h.html" target="_top" xlink:title="MainComponent.h">
<polygon fill="white" stroke="black" points="348,-56.5 348,-75.5 452,-75.5 452,-56.5 348,-56.5"/>
<text text-anchor="middle" x="400" y="-63.5" font-family="Helvetica Neue" font-size="10.00">MainComponent.h</text>
</a>
</g>
</g>
<!-- Node1&#45;&gt;Node6 -->
<g id="edge11" class="edge"><title>Node1&#45;&gt;Node6</title>
<path fill="none" stroke="midnightblue" d="M325.886,-274.287C348.65,-256.783 383.614,-225.205 397,-188 411.371,-148.06 404.93,-95.8131 401.574,-75.5488"/>
<polygon fill="midnightblue" stroke="midnightblue" points="323.758,-271.508 317.83,-280.288 327.94,-277.121 323.758,-271.508"/>
</g>
<!-- Node11 -->
<g id="node11" class="node"><title>Node11</title>
<g id="a_node11"><a xlink:href="_module_box_8h.html" target="_top" xlink:title="ModuleBox.h">
<polygon fill="white" stroke="black" points="266,-224.5 266,-243.5 344,-243.5 344,-224.5 266,-224.5"/>
<text text-anchor="middle" x="305" y="-231.5" font-family="Helvetica Neue" font-size="10.00">ModuleBox.h</text>
</a>
</g>
</g>
<!-- Node1&#45;&gt;Node11 -->
<g id="edge12" class="edge"><title>Node1&#45;&gt;Node11</title>
<path fill="none" stroke="midnightblue" d="M305,-269.805C305,-260.91 305,-250.78 305,-243.751"/>
<polygon fill="midnightblue" stroke="midnightblue" points="301.5,-270.083 305,-280.083 308.5,-270.083 301.5,-270.083"/>
</g>
<!-- Node3 -->
<g id="node3" class="node"><title>Node3</title>
<g id="a_node3"><a xlink:href="_audio_engine_8h.html" target="_top" xlink:title="AudioEngine.h">
<polygon fill="white" stroke="black" points="5.5,-168.5 5.5,-187.5 90.5,-187.5 90.5,-168.5 5.5,-168.5"/>
<text text-anchor="middle" x="48" y="-175.5" font-family="Helvetica Neue" font-size="10.00">AudioEngine.h</text>
</a>
</g>
</g>
<!-- Node2&#45;&gt;Node3 -->
<g id="edge2" class="edge"><title>Node2&#45;&gt;Node3</title>
<path fill="none" stroke="midnightblue" d="M164.775,-221.039C136.552,-210.879 96.7381,-196.546 71.6567,-187.516"/>
<polygon fill="midnightblue" stroke="midnightblue" points="163.638,-224.349 174.232,-224.444 166.009,-217.763 163.638,-224.349"/>
</g>
<!-- Node5 -->
<g id="node5" class="node"><title>Node5</title>
<g id="a_node5"><a xlink:href="_main_patcher_8h.html" target="_top" xlink:title="MainPatcher.h">
<polygon fill="white" stroke="black" points="207.5,-112.5 207.5,-131.5 290.5,-131.5 290.5,-112.5 207.5,-112.5"/>
<text text-anchor="middle" x="249" y="-119.5" font-family="Helvetica Neue" font-size="10.00">MainPatcher.h</text>
</a>
</g>
</g>
<!-- Node2&#45;&gt;Node5 -->
<g id="edge10" class="edge"><title>Node2&#45;&gt;Node5</title>
<path fill="none" stroke="midnightblue" d="M206.346,-214.998C217.474,-190.997 236.728,-149.468 245.017,-131.591"/>
<polygon fill="midnightblue" stroke="midnightblue" points="203.033,-213.824 202.002,-224.368 209.384,-216.768 203.033,-213.824"/>
</g>
<!-- Node10 -->
<g id="node10" class="node"><title>Node10</title>
<g id="a_node10"><a xlink:href="_connections_8cpp.html" target="_top" xlink:title="Connections.cpp">
<polygon fill="white" stroke="black" points="109,-168.5 109,-187.5 205,-187.5 205,-168.5 109,-168.5"/>
<text text-anchor="middle" x="157" y="-175.5" font-family="Helvetica Neue" font-size="10.00">Connections.cpp</text>
</a>
</g>
</g>
<!-- Node2&#45;&gt;Node10 -->
<g id="edge9" class="edge"><title>Node2&#45;&gt;Node10</title>
<path fill="none" stroke="midnightblue" d="M184.983,-215.855C177.883,-206.505 169.396,-195.327 163.644,-187.751"/>
<polygon fill="midnightblue" stroke="midnightblue" points="182.395,-218.235 191.23,-224.083 187.97,-214.002 182.395,-218.235"/>
</g>
<!-- Node4 -->
<g id="node4" class="node"><title>Node4</title>
<g id="a_node4"><a xlink:href="_audio_engine_8cpp.html" target="_top" xlink:title="AudioEngine.cpp">
<polygon fill="white" stroke="black" points="0,-112.5 0,-131.5 96,-131.5 96,-112.5 0,-112.5"/>
<text text-anchor="middle" x="48" y="-119.5" font-family="Helvetica Neue" font-size="10.00">AudioEngine.cpp</text>
</a>
</g>
</g>
<!-- Node3&#45;&gt;Node4 -->
<g id="edge3" class="edge"><title>Node3&#45;&gt;Node4</title>
<path fill="none" stroke="midnightblue" d="M48,-157.805C48,-148.91 48,-138.78 48,-131.751"/>
<polygon fill="midnightblue" stroke="midnightblue" points="44.5001,-158.083 48,-168.083 51.5001,-158.083 44.5001,-158.083"/>
</g>
<!-- Node3&#45;&gt;Node5 -->
<g id="edge4" class="edge"><title>Node3&#45;&gt;Node5</title>
<path fill="none" stroke="midnightblue" d="M89.5807,-165.829C127.531,-155.633 182.81,-140.782 217.3,-131.516"/>
<polygon fill="midnightblue" stroke="midnightblue" points="88.5985,-162.469 79.849,-168.444 90.4147,-169.229 88.5985,-162.469"/>
</g>
<!-- Node5&#45;&gt;Node6 -->
<g id="edge5" class="edge"><title>Node5&#45;&gt;Node6</title>
<path fill="none" stroke="midnightblue" d="M282.446,-109.039C310.858,-98.8786 350.937,-84.5457 376.186,-75.5164"/>
<polygon fill="midnightblue" stroke="midnightblue" points="281.164,-105.781 272.926,-112.444 283.521,-112.372 281.164,-105.781"/>
</g>
<!-- Node9 -->
<g id="node9" class="node"><title>Node9</title>
<g id="a_node9"><a xlink:href="_main_patcher_8cpp.html" target="_top" xlink:title="MainPatcher.cpp">
<polygon fill="white" stroke="black" points="201.5,-56.5 201.5,-75.5 296.5,-75.5 296.5,-56.5 201.5,-56.5"/>
<text text-anchor="middle" x="249" y="-63.5" font-family="Helvetica Neue" font-size="10.00">MainPatcher.cpp</text>
</a>
</g>
</g>
<!-- Node5&#45;&gt;Node9 -->
<g id="edge8" class="edge"><title>Node5&#45;&gt;Node9</title>
<path fill="none" stroke="midnightblue" d="M249,-101.805C249,-92.9102 249,-82.7798 249,-75.7511"/>
<polygon fill="midnightblue" stroke="midnightblue" points="245.5,-102.083 249,-112.083 252.5,-102.083 245.5,-102.083"/>
</g>
<!-- Node7 -->
<g id="node7" class="node"><title>Node7</title>
<g id="a_node7"><a xlink:href="_main_8cpp.html" target="_top" xlink:title="Main.cpp">
<polygon fill="white" stroke="black" points="317.5,-0.5 317.5,-19.5 376.5,-19.5 376.5,-0.5 317.5,-0.5"/>
<text text-anchor="middle" x="347" y="-7.5" font-family="Helvetica Neue" font-size="10.00">Main.cpp</text>
</a>
</g>
</g>
<!-- Node6&#45;&gt;Node7 -->
<g id="edge6" class="edge"><title>Node6&#45;&gt;Node7</title>
<path fill="none" stroke="midnightblue" d="M384.019,-48.7175C374.678,-39.1997 363.254,-27.5608 355.589,-19.7511"/>
<polygon fill="midnightblue" stroke="midnightblue" points="381.746,-51.3978 391.248,-56.083 386.741,-46.4945 381.746,-51.3978"/>
</g>
<!-- Node8 -->
<g id="node8" class="node"><title>Node8</title>
<g id="a_node8"><a xlink:href="_main_component_8cpp.html" target="_top" xlink:title="MainComponent.cpp">
<polygon fill="white" stroke="black" points="395,-0.5 395,-19.5 511,-19.5 511,-0.5 395,-0.5"/>
<text text-anchor="middle" x="453" y="-7.5" font-family="Helvetica Neue" font-size="10.00">MainComponent.cpp</text>
</a>
</g>
</g>
<!-- Node6&#45;&gt;Node8 -->
<g id="edge7" class="edge"><title>Node6&#45;&gt;Node8</title>
<path fill="none" stroke="midnightblue" d="M415.981,-48.7175C425.322,-39.1997 436.746,-27.5608 444.411,-19.7511"/>
<polygon fill="midnightblue" stroke="midnightblue" points="413.259,-46.4945 408.752,-56.083 418.254,-51.3978 413.259,-46.4945"/>
</g>
<!-- Node11&#45;&gt;Node5 -->
<g id="edge13" class="edge"><title>Node11&#45;&gt;Node5</title>
<path fill="none" stroke="midnightblue" d="M295.999,-215.32C283.806,-191.37 262.516,-149.548 253.374,-131.591"/>
<polygon fill="midnightblue" stroke="midnightblue" points="292.95,-217.045 300.606,-224.368 299.188,-213.869 292.95,-217.045"/>
</g>
<!-- Node12 -->
<g id="node12" class="node"><title>Node12</title>
<g id="a_node12"><a xlink:href="_module_box_8cpp.html" target="_top" xlink:title="ModuleBox.cpp">
<polygon fill="white" stroke="black" points="299.5,-168.5 299.5,-187.5 388.5,-187.5 388.5,-168.5 299.5,-168.5"/>
<text text-anchor="middle" x="344" y="-175.5" font-family="Helvetica Neue" font-size="10.00">ModuleBox.cpp</text>
</a>
</g>
</g>
<!-- Node11&#45;&gt;Node12 -->
<g id="edge14" class="edge"><title>Node11&#45;&gt;Node12</title>
<path fill="none" stroke="midnightblue" d="M317.382,-215.855C324.135,-206.505 332.209,-195.327 337.68,-187.751"/>
<polygon fill="midnightblue" stroke="midnightblue" points="314.458,-213.927 311.44,-224.083 320.132,-218.025 314.458,-213.927"/>
</g>
</g>
</svg>
