<?xml version="1.0" encoding="UTF-8" standalone="no"?>
<!DOCTYPE svg PUBLIC "-//W3C//DTD SVG 1.1//EN"
 "http://www.w3.org/Graphics/SVG/1.1/DTD/svg11.dtd">
<!-- Generated by graphviz version 2.43.0 (0)
 -->
<!-- Title: PhiLookAndFeel.h Pages: 1 -->
<svg width="130pt" height="137pt"
 viewBox="0.00 0.00 129.50 137.00" xmlns="http://www.w3.org/2000/svg" xmlns:xlink="http://www.w3.org/1999/xlink">
<g id="graph0" class="graph" transform="scale(1 1) rotate(0) translate(4 133)">
<title>PhiLookAndFeel.h</title>
<!-- Node1 -->
<g id="Node000001" class="node">
<title>Node1</title>
<g id="a_Node000001"><a xlink:title=" ">
<polygon fill="#999999" stroke="#666666" points="103,-129 0,-129 0,-110 103,-110 103,-129"/>
<text text-anchor="middle" x="51.5" y="-117" font-family="Helvetica Neue" font-size="10.00">PhiLookAndFeel.h</text>
</a>
</g>
</g>
<!-- Node2 -->
<g id="Node000002" class="node">
<title>Node2</title>
<g id="a_Node000002"><a xlink:href="_phi_colours_8h.html" target="_top" xlink:title=" ">
<polygon fill="white" stroke="#666666" points="90,-19 13,-19 13,0 90,0 90,-19"/>
<text text-anchor="middle" x="51.5" y="-7" font-family="Helvetica Neue" font-size="10.00">PhiColours.h</text>
</a>
</g>
</g>
<!-- Node1&#45;&gt;Node2 -->
<g id="edge1_Node000001_Node000002" class="edge">
<title>Node1&#45;&gt;Node2</title>
<g id="a_edge1_Node000001_Node000002"><a xlink:title=" ">
<path fill="none" stroke="#63b8ff" d="M48.16,-109.8C44.95,-100.94 40.32,-86.75 38.5,-74 36.31,-58.66 40.23,-41.46 44.33,-28.83"/>
<polygon fill="#63b8ff" stroke="#63b8ff" points="47.75,-29.67 47.82,-19.07 41.16,-27.3 47.75,-29.67"/>
</a>
</g>
</g>
<!-- Node3 -->
<g id="Node000003" class="node">
<title>Node3</title>
<g id="a_Node000003"><a xlink:href="_phi_theme_8h.html" target="_top" xlink:title=" ">
<polygon fill="white" stroke="#666666" points="121.5,-74 47.5,-74 47.5,-55 121.5,-55 121.5,-74"/>
<text text-anchor="middle" x="84.5" y="-62" font-family="Helvetica Neue" font-size="10.00">PhiTheme.h</text>
</a>
</g>
</g>
<!-- Node1&#45;&gt;Node3 -->
<g id="edge2_Node000001_Node000003" class="edge">
<title>Node1&#45;&gt;Node3</title>
<g id="a_edge2_Node000001_Node000003"><a xlink:title=" ">
<path fill="none" stroke="#63b8ff" d="M56.95,-109.75C61.51,-102.42 68.17,-91.73 73.79,-82.7"/>
<polygon fill="#63b8ff" stroke="#63b8ff" points="76.84,-84.43 79.15,-74.09 70.9,-80.73 76.84,-84.43"/>
</a>
</g>
</g>
<!-- Node3&#45;&gt;Node2 -->
<g id="edge3_Node000003_Node000002" class="edge">
<title>Node3&#45;&gt;Node2</title>
<g id="a_edge3_Node000003_Node000002"><a xlink:title=" ">
<path fill="none" stroke="#63b8ff" d="M79.05,-54.75C74.49,-47.42 67.83,-36.73 62.21,-27.7"/>
<polygon fill="#63b8ff" stroke="#63b8ff" points="65.1,-25.73 56.85,-19.09 59.16,-29.43 65.1,-25.73"/>
</a>
</g>
</g>
</g>
</svg>
