<?xml version="1.0" encoding="UTF-8" standalone="no"?>
<!DOCTYPE svg PUBLIC "-//W3C//DTD SVG 1.1//EN"
 "http://www.w3.org/Graphics/SVG/1.1/DTD/svg11.dtd">
<!-- Generated by graphviz version 2.43.0 (0)
 -->
<!-- Title: PhiWaveform.h Pages: 1 -->
<svg width="410pt" height="357pt"
 viewBox="0.00 0.00 409.50 357.00" xmlns="http://www.w3.org/2000/svg" xmlns:xlink="http://www.w3.org/1999/xlink">
<g id="graph0" class="graph" transform="scale(1 1) rotate(0) translate(4 353)">
<title>PhiWaveform.h</title>
<!-- Node1 -->
<g id="Node000001" class="node">
<title>Node1</title>
<g id="a_Node000001"><a xlink:title=" ">
<polygon fill="#999999" stroke="#666666" points="266,-349 175,-349 175,-330 266,-330 266,-349"/>
<text text-anchor="middle" x="220.5" y="-337" font-family="Helvetica Neue" font-size="10.00">PhiWaveform.h</text>
</a>
</g>
</g>
<!-- Node2 -->
<g id="Node000002" class="node">
<title>Node2</title>
<g id="a_Node000002"><a xlink:href="_impulse_u_i_8h.html" target="_top" xlink:title=" ">
<polygon fill="white" stroke="#666666" points="217,-294 142,-294 142,-275 217,-275 217,-294"/>
<text text-anchor="middle" x="179.5" y="-282" font-family="Helvetica Neue" font-size="10.00">ImpulseUI.h</text>
</a>
</g>
</g>
<!-- Node1&#45;&gt;Node2 -->
<g id="edge1_Node000001_Node000002" class="edge">
<title>Node1&#45;&gt;Node2</title>
<g id="a_edge1_Node000001_Node000002"><a xlink:title=" ">
<path fill="none" stroke="#63b8ff" d="M207.48,-321.67C200.38,-312.5 191.9,-301.52 186.14,-294.09"/>
<polygon fill="#63b8ff" stroke="#63b8ff" points="204.84,-323.98 213.73,-329.75 210.38,-319.7 204.84,-323.98"/>
</a>
</g>
</g>
<!-- Node12 -->
<g id="Node000012" class="node">
<title>Node12</title>
<g id="a_Node000012"><a xlink:href="_l_f_o_u_i_8h.html" target="_top" xlink:title=" ">
<polygon fill="white" stroke="#666666" points="299,-294 244,-294 244,-275 299,-275 299,-294"/>
<text text-anchor="middle" x="271.5" y="-282" font-family="Helvetica Neue" font-size="10.00">LFOUI.h</text>
</a>
</g>
</g>
<!-- Node1&#45;&gt;Node12 -->
<g id="edge13_Node000001_Node000012" class="edge">
<title>Node1&#45;&gt;Node12</title>
<g id="a_edge13_Node000001_Node000012"><a xlink:title=" ">
<path fill="none" stroke="#63b8ff" d="M235.88,-322.52C244.87,-313.18 255.86,-301.75 263.24,-294.09"/>
<polygon fill="#63b8ff" stroke="#63b8ff" points="233.33,-320.12 228.92,-329.75 238.38,-324.97 233.33,-320.12"/>
</a>
</g>
</g>
<!-- Node3 -->
<g id="Node000003" class="node">
<title>Node3</title>
<g id="a_Node000003"><a xlink:href="_impulse_processor_8h.html" target="_top" xlink:title=" ">
<polygon fill="white" stroke="#666666" points="217,-239 106,-239 106,-220 217,-220 217,-239"/>
<text text-anchor="middle" x="161.5" y="-227" font-family="Helvetica Neue" font-size="10.00">ImpulseProcessor.h</text>
</a>
</g>
</g>
<!-- Node2&#45;&gt;Node3 -->
<g id="edge2_Node000002_Node000003" class="edge">
<title>Node2&#45;&gt;Node3</title>
<g id="a_edge2_Node000002_Node000003"><a xlink:title=" ">
<path fill="none" stroke="#63b8ff" d="M173.3,-265.24C170.29,-256.37 166.81,-246.14 164.42,-239.09"/>
<polygon fill="#63b8ff" stroke="#63b8ff" points="170,-266.4 176.53,-274.75 176.63,-264.15 170,-266.4"/>
</a>
</g>
</g>
<!-- Node4 -->
<g id="Node000004" class="node">
<title>Node4</title>
<g id="a_Node000004"><a xlink:href="_modules_8h.html" target="_top" xlink:title=" ">
<polygon fill="white" stroke="#666666" points="254,-184 187,-184 187,-165 254,-165 254,-184"/>
<text text-anchor="middle" x="220.5" y="-172" font-family="Helvetica Neue" font-size="10.00">Modules.h</text>
</a>
</g>
</g>
<!-- Node3&#45;&gt;Node4 -->
<g id="edge3_Node000003_Node000004" class="edge">
<title>Node3&#45;&gt;Node4</title>
<g id="a_edge3_Node000003_Node000004"><a xlink:title=" ">
<path fill="none" stroke="#63b8ff" d="M178.7,-213.04C189.17,-203.64 202.15,-191.98 210.85,-184.17"/>
<polygon fill="#63b8ff" stroke="#63b8ff" points="176.08,-210.7 170.98,-219.98 180.76,-215.91 176.08,-210.7"/>
</a>
</g>
</g>
<!-- Node5 -->
<g id="Node000005" class="node">
<title>Node5</title>
<g id="a_Node000005"><a xlink:href="_patcher_8h.html" target="_top" xlink:title=" ">
<polygon fill="white" stroke="#666666" points="211,-129 150,-129 150,-110 211,-110 211,-129"/>
<text text-anchor="middle" x="180.5" y="-117" font-family="Helvetica Neue" font-size="10.00">Patcher.h</text>
</a>
</g>
</g>
<!-- Node4&#45;&gt;Node5 -->
<g id="edge4_Node000004_Node000005" class="edge">
<title>Node4&#45;&gt;Node5</title>
<g id="a_edge4_Node000004_Node000005"><a xlink:title=" ">
<path fill="none" stroke="#63b8ff" d="M207.8,-156.67C200.87,-147.5 192.59,-136.52 186.98,-129.09"/>
<polygon fill="#63b8ff" stroke="#63b8ff" points="205.08,-158.87 213.89,-164.75 210.66,-154.66 205.08,-158.87"/>
</a>
</g>
</g>
<!-- Node11 -->
<g id="Node000011" class="node">
<title>Node11</title>
<g id="a_Node000011"><a xlink:href="_state_8cpp.html" target="_top" xlink:title=" ">
<polygon fill="white" stroke="#666666" points="291.5,-129 229.5,-129 229.5,-110 291.5,-110 291.5,-129"/>
<text text-anchor="middle" x="260.5" y="-117" font-family="Helvetica Neue" font-size="10.00">State.cpp</text>
</a>
</g>
</g>
<!-- Node4&#45;&gt;Node11 -->
<g id="edge12_Node000004_Node000011" class="edge">
<title>Node4&#45;&gt;Node11</title>
<g id="a_edge12_Node000004_Node000011"><a xlink:title=" ">
<path fill="none" stroke="#63b8ff" d="M233.2,-156.67C240.13,-147.5 248.41,-136.52 254.02,-129.09"/>
<polygon fill="#63b8ff" stroke="#63b8ff" points="230.34,-154.66 227.11,-164.75 235.92,-158.87 230.34,-154.66"/>
</a>
</g>
</g>
<!-- Node6 -->
<g id="Node000006" class="node">
<title>Node6</title>
<g id="a_Node000006"><a xlink:href="_connections_8cpp.html" target="_top" xlink:title=" ">
<polygon fill="white" stroke="#666666" points="97,-19 0,-19 0,0 97,0 97,-19"/>
<text text-anchor="middle" x="48.5" y="-7" font-family="Helvetica Neue" font-size="10.00">Connections.cpp</text>
</a>
</g>
</g>
<!-- Node5&#45;&gt;Node6 -->
<g id="edge5_Node000005_Node000006" class="edge">
<title>Node5&#45;&gt;Node6</title>
<g id="a_edge5_Node000005_Node000006"><a xlink:title=" ">
<path fill="none" stroke="#63b8ff" d="M158.79,-103.83C146.68,-95.42 131.48,-84.48 118.5,-74 95.53,-55.44 70.25,-31.58 57.27,-19.06"/>
<polygon fill="#63b8ff" stroke="#63b8ff" points="157.13,-106.93 167.36,-109.71 161.1,-101.17 157.13,-106.93"/>
</a>
</g>
</g>
<!-- Node7 -->
<g id="Node000007" class="node">
<title>Node7</title>
<g id="a_Node000007"><a xlink:href="_main_component_8h.html" target="_top" xlink:title=" ">
<polygon fill="white" stroke="#666666" points="233.5,-74 127.5,-74 127.5,-55 233.5,-55 233.5,-74"/>
<text text-anchor="middle" x="180.5" y="-62" font-family="Helvetica Neue" font-size="10.00">MainComponent.h</text>
</a>
</g>
</g>
<!-- Node5&#45;&gt;Node7 -->
<g id="edge6_Node000005_Node000007" class="edge">
<title>Node5&#45;&gt;Node7</title>
<g id="a_edge6_Node000005_Node000007"><a xlink:title=" ">
<path fill="none" stroke="#63b8ff" d="M180.5,-99.66C180.5,-90.93 180.5,-80.99 180.5,-74.09"/>
<polygon fill="#63b8ff" stroke="#63b8ff" points="177,-99.75 180.5,-109.75 184,-99.75 177,-99.75"/>
</a>
</g>
</g>
<!-- Node10 -->
<g id="Node000010" class="node">
<title>Node10</title>
<g id="a_Node000010"><a xlink:href="_patcher_8cpp.html" target="_top" xlink:title=" ">
<polygon fill="white" stroke="#666666" points="401.5,-19 329.5,-19 329.5,0 401.5,0 401.5,-19"/>
<text text-anchor="middle" x="365.5" y="-7" font-family="Helvetica Neue" font-size="10.00">Patcher.cpp</text>
</a>
</g>
</g>
<!-- Node5&#45;&gt;Node10 -->
<g id="edge11_Node000005_Node000010" class="edge">
<title>Node5&#45;&gt;Node10</title>
<g id="a_edge11_Node000005_Node000010"><a xlink:title=" ">
<path fill="none" stroke="#63b8ff" d="M204.36,-104.57C243.22,-81.89 319.02,-37.64 350.86,-19.05"/>
<polygon fill="#63b8ff" stroke="#63b8ff" points="202.2,-101.78 195.33,-109.84 205.73,-107.83 202.2,-101.78"/>
</a>
</g>
</g>
<!-- Node7&#45;&gt;Node6 -->
<g id="edge7_Node000007_Node000006" class="edge">
<title>Node7&#45;&gt;Node6</title>
<g id="a_edge7_Node000007_Node000006"><a xlink:title=" ">
<path fill="none" stroke="#63b8ff" d="M149.77,-51.16C125.33,-41.35 91.76,-27.87 70.09,-19.17"/>
<polygon fill="#63b8ff" stroke="#63b8ff" points="148.71,-54.51 159.29,-54.98 151.32,-48.01 148.71,-54.51"/>
</a>
</g>
</g>
<!-- Node8 -->
<g id="Node000008" class="node">
<title>Node8</title>
<g id="a_Node000008"><a xlink:href="_main_8cpp.html" target="_top" xlink:title=" ">
<polygon fill="white" stroke="#666666" points="176,-19 115,-19 115,0 176,0 176,-19"/>
<text text-anchor="middle" x="145.5" y="-7" font-family="Helvetica Neue" font-size="10.00">Main.cpp</text>
</a>
</g>
</g>
<!-- Node7&#45;&gt;Node8 -->
<g id="edge8_Node000007_Node000008" class="edge">
<title>Node7&#45;&gt;Node8</title>
<g id="a_edge8_Node000007_Node000008"><a xlink:title=" ">
<path fill="none" stroke="#63b8ff" d="M169.2,-46.39C163.18,-37.27 156.03,-26.45 151.17,-19.09"/>
<polygon fill="#63b8ff" stroke="#63b8ff" points="166.29,-48.33 174.72,-54.75 172.13,-44.47 166.29,-48.33"/>
</a>
</g>
</g>
<!-- Node9 -->
<g id="Node000009" class="node">
<title>Node9</title>
<g id="a_Node000009"><a xlink:href="_main_component_8cpp.html" target="_top" xlink:title=" ">
<polygon fill="white" stroke="#666666" points="311,-19 194,-19 194,0 311,0 311,-19"/>
<text text-anchor="middle" x="252.5" y="-7" font-family="Helvetica Neue" font-size="10.00">MainComponent.cpp</text>
</a>
</g>
</g>
<!-- Node7&#45;&gt;Node9 -->
<g id="edge9_Node000007_Node000009" class="edge">
<title>Node7&#45;&gt;Node9</title>
<g id="a_edge9_Node000007_Node000009"><a xlink:title=" ">
<path fill="none" stroke="#63b8ff" d="M200.37,-48.88C213.32,-39.34 229.8,-27.21 240.72,-19.17"/>
<polygon fill="#63b8ff" stroke="#63b8ff" points="198.05,-46.24 192.07,-54.98 202.2,-51.88 198.05,-46.24"/>
</a>
</g>
</g>
<!-- Node7&#45;&gt;Node10 -->
<g id="edge10_Node000007_Node000010" class="edge">
<title>Node7&#45;&gt;Node10</title>
<g id="a_edge10_Node000007_Node000010"><a xlink:title=" ">
<path fill="none" stroke="#63b8ff" d="M220,-52.18C254.6,-42.27 304.13,-28.08 335.54,-19.08"/>
<polygon fill="#63b8ff" stroke="#63b8ff" points="218.87,-48.87 210.22,-54.98 220.8,-55.6 218.87,-48.87"/>
</a>
</g>
</g>
<!-- Node13 -->
<g id="Node000013" class="node">
<title>Node13</title>
<g id="a_Node000013"><a xlink:href="_l_f_o_processor_8h.html" target="_top" xlink:title=" ">
<polygon fill="white" stroke="#666666" points="326,-239 235,-239 235,-220 326,-220 326,-239"/>
<text text-anchor="middle" x="280.5" y="-227" font-family="Helvetica Neue" font-size="10.00">LFOProcessor.h</text>
</a>
</g>
</g>
<!-- Node12&#45;&gt;Node13 -->
<g id="edge14_Node000012_Node000013" class="edge">
<title>Node12&#45;&gt;Node13</title>
<g id="a_edge14_Node000012_Node000013"><a xlink:title=" ">
<path fill="none" stroke="#63b8ff" d="M274.7,-264.66C276.18,-255.93 277.87,-245.99 279.04,-239.09"/>
<polygon fill="#63b8ff" stroke="#63b8ff" points="271.21,-264.3 272.99,-274.75 278.11,-265.48 271.21,-264.3"/>
</a>
</g>
</g>
<!-- Node13&#45;&gt;Node4 -->
<g id="edge15_Node000013_Node000004" class="edge">
<title>Node13&#45;&gt;Node4</title>
<g id="a_edge15_Node000013_Node000004"><a xlink:title=" ">
<path fill="none" stroke="#63b8ff" d="M263.32,-213.32C252.62,-203.87 239.24,-192.06 230.32,-184.17"/>
<polygon fill="#63b8ff" stroke="#63b8ff" points="261.05,-215.99 270.86,-219.98 265.68,-210.74 261.05,-215.99"/>
</a>
</g>
</g>
</g>
</svg>
