<?xml version="1.0" encoding="UTF-8" standalone="no"?>
<!DOCTYPE svg PUBLIC "-//W3C//DTD SVG 1.1//EN"
 "http://www.w3.org/Graphics/SVG/1.1/DTD/svg11.dtd">
<!-- Generated by graphviz version 2.43.0 (0)
 -->
<!-- Title: PhiSliderButton.h Pages: 1 -->
<svg width="410pt" height="357pt"
 viewBox="0.00 0.00 410.00 357.00" xmlns="http://www.w3.org/2000/svg" xmlns:xlink="http://www.w3.org/1999/xlink">
<g id="graph0" class="graph" transform="scale(1 1) rotate(0) translate(4 353)">
<title>PhiSliderButton.h</title>
<!-- Node1 -->
<g id="Node000001" class="node">
<title>Node1</title>
<g id="a_Node000001"><a xlink:title=" ">
<polygon fill="#999999" stroke="#666666" points="272,-349 171,-349 171,-330 272,-330 272,-349"/>
<text text-anchor="middle" x="221.5" y="-337" font-family="Helvetica Neue" font-size="10.00">PhiSliderButton.h</text>
</a>
</g>
</g>
<!-- Node2 -->
<g id="Node000002" class="node">
<title>Node2</title>
<g id="a_Node000002"><a xlink:href="_main_component_8h.html" target="_top" xlink:title=" ">
<polygon fill="white" stroke="#666666" points="220.5,-74 114.5,-74 114.5,-55 220.5,-55 220.5,-74"/>
<text text-anchor="middle" x="167.5" y="-62" font-family="Helvetica Neue" font-size="10.00">MainComponent.h</text>
</a>
</g>
</g>
<!-- Node1&#45;&gt;Node2 -->
<g id="edge1_Node000001_Node000002" class="edge">
<title>Node1&#45;&gt;Node2</title>
<g id="a_edge1_Node000001_Node000002"><a xlink:title=" ">
<path fill="none" stroke="#63b8ff" d="M203.25,-323.11C182.51,-303.81 151.5,-268.57 151.5,-230.5 151.5,-230.5 151.5,-230.5 151.5,-173.5 151.5,-136.16 160.97,-92.33 165.34,-74.12"/>
<polygon fill="#63b8ff" stroke="#63b8ff" points="201.08,-325.87 210.87,-329.93 205.75,-320.66 201.08,-325.87"/>
</a>
</g>
</g>
<!-- Node7 -->
<g id="Node000007" class="node">
<title>Node7</title>
<g id="a_Node000007"><a xlink:href="_phi_slider_button_8cpp.html" target="_top" xlink:title=" ">
<polygon fill="white" stroke="#666666" points="384.5,-294 272.5,-294 272.5,-275 384.5,-275 384.5,-294"/>
<text text-anchor="middle" x="328.5" y="-282" font-family="Helvetica Neue" font-size="10.00">PhiSliderButton.cpp</text>
</a>
</g>
</g>
<!-- Node1&#45;&gt;Node7 -->
<g id="edge6_Node000001_Node000007" class="edge">
<title>Node1&#45;&gt;Node7</title>
<g id="a_edge6_Node000001_Node000007"><a xlink:title=" ">
<path fill="none" stroke="#63b8ff" d="M247.74,-325.5C267.43,-315.75 293.82,-302.68 311,-294.17"/>
<polygon fill="#63b8ff" stroke="#63b8ff" points="246.1,-322.41 238.69,-329.98 249.21,-328.68 246.1,-322.41"/>
</a>
</g>
</g>
<!-- Node8 -->
<g id="Node000008" class="node">
<title>Node8</title>
<g id="a_Node000008"><a xlink:href="_string_u_i_8h.html" target="_top" xlink:title=" ">
<polygon fill="white" stroke="#666666" points="254,-294 189,-294 189,-275 254,-275 254,-294"/>
<text text-anchor="middle" x="221.5" y="-282" font-family="Helvetica Neue" font-size="10.00">StringUI.h</text>
</a>
</g>
</g>
<!-- Node1&#45;&gt;Node8 -->
<g id="edge7_Node000001_Node000008" class="edge">
<title>Node1&#45;&gt;Node8</title>
<g id="a_edge7_Node000001_Node000008"><a xlink:title=" ">
<path fill="none" stroke="#63b8ff" d="M221.5,-319.66C221.5,-310.93 221.5,-300.99 221.5,-294.09"/>
<polygon fill="#63b8ff" stroke="#63b8ff" points="218,-319.75 221.5,-329.75 225,-319.75 218,-319.75"/>
</a>
</g>
</g>
<!-- Node3 -->
<g id="Node000003" class="node">
<title>Node3</title>
<g id="a_Node000003"><a xlink:href="_connections_8cpp.html" target="_top" xlink:title=" ">
<polygon fill="white" stroke="#666666" points="402,-19 305,-19 305,0 402,0 402,-19"/>
<text text-anchor="middle" x="353.5" y="-7" font-family="Helvetica Neue" font-size="10.00">Connections.cpp</text>
</a>
</g>
</g>
<!-- Node2&#45;&gt;Node3 -->
<g id="edge2_Node000002_Node000003" class="edge">
<title>Node2&#45;&gt;Node3</title>
<g id="a_edge2_Node000002_Node000003"><a xlink:title=" ">
<path fill="none" stroke="#63b8ff" d="M207.21,-52.18C242,-42.27 291.79,-28.08 323.38,-19.08"/>
<polygon fill="#63b8ff" stroke="#63b8ff" points="206.04,-48.88 197.38,-54.98 207.96,-55.61 206.04,-48.88"/>
</a>
</g>
</g>
<!-- Node4 -->
<g id="Node000004" class="node">
<title>Node4</title>
<g id="a_Node000004"><a xlink:href="_main_8cpp.html" target="_top" xlink:title=" ">
<polygon fill="white" stroke="#666666" points="196,-19 135,-19 135,0 196,0 196,-19"/>
<text text-anchor="middle" x="165.5" y="-7" font-family="Helvetica Neue" font-size="10.00">Main.cpp</text>
</a>
</g>
</g>
<!-- Node2&#45;&gt;Node4 -->
<g id="edge3_Node000002_Node000004" class="edge">
<title>Node2&#45;&gt;Node4</title>
<g id="a_edge3_Node000002_Node000004"><a xlink:title=" ">
<path fill="none" stroke="#63b8ff" d="M166.79,-44.66C166.46,-35.93 166.08,-25.99 165.82,-19.09"/>
<polygon fill="#63b8ff" stroke="#63b8ff" points="163.3,-44.89 167.17,-54.75 170.29,-44.62 163.3,-44.89"/>
</a>
</g>
</g>
<!-- Node5 -->
<g id="Node000005" class="node">
<title>Node5</title>
<g id="a_Node000005"><a xlink:href="_main_component_8cpp.html" target="_top" xlink:title=" ">
<polygon fill="white" stroke="#666666" points="117,-19 0,-19 0,0 117,0 117,-19"/>
<text text-anchor="middle" x="58.5" y="-7" font-family="Helvetica Neue" font-size="10.00">MainComponent.cpp</text>
</a>
</g>
</g>
<!-- Node2&#45;&gt;Node5 -->
<g id="edge4_Node000002_Node000005" class="edge">
<title>Node2&#45;&gt;Node5</title>
<g id="a_edge4_Node000002_Node000005"><a xlink:title=" ">
<path fill="none" stroke="#63b8ff" d="M140.77,-50.5C120.71,-40.75 93.82,-27.68 76.33,-19.17"/>
<polygon fill="#63b8ff" stroke="#63b8ff" points="139.46,-53.76 149.99,-54.98 142.52,-47.46 139.46,-53.76"/>
</a>
</g>
</g>
<!-- Node6 -->
<g id="Node000006" class="node">
<title>Node6</title>
<g id="a_Node000006"><a xlink:href="_patcher_8cpp.html" target="_top" xlink:title=" ">
<polygon fill="white" stroke="#666666" points="286.5,-19 214.5,-19 214.5,0 286.5,0 286.5,-19"/>
<text text-anchor="middle" x="250.5" y="-7" font-family="Helvetica Neue" font-size="10.00">Patcher.cpp</text>
</a>
</g>
</g>
<!-- Node2&#45;&gt;Node6 -->
<g id="edge5_Node000002_Node000006" class="edge">
<title>Node2&#45;&gt;Node6</title>
<g id="a_edge5_Node000002_Node000006"><a xlink:title=" ">
<path fill="none" stroke="#63b8ff" d="M189.54,-49.42C204.61,-39.81 224.09,-27.37 236.92,-19.17"/>
<polygon fill="#63b8ff" stroke="#63b8ff" points="187.38,-46.65 180.84,-54.98 191.15,-52.55 187.38,-46.65"/>
</a>
</g>
</g>
<!-- Node9 -->
<g id="Node000009" class="node">
<title>Node9</title>
<g id="a_Node000009"><a xlink:href="_string_processor_8h.html" target="_top" xlink:title=" ">
<polygon fill="white" stroke="#666666" points="281,-239 180,-239 180,-220 281,-220 281,-239"/>
<text text-anchor="middle" x="230.5" y="-227" font-family="Helvetica Neue" font-size="10.00">StringProcessor.h</text>
</a>
</g>
</g>
<!-- Node8&#45;&gt;Node9 -->
<g id="edge8_Node000008_Node000009" class="edge">
<title>Node8&#45;&gt;Node9</title>
<g id="a_edge8_Node000008_Node000009"><a xlink:title=" ">
<path fill="none" stroke="#63b8ff" d="M224.7,-264.66C226.18,-255.93 227.87,-245.99 229.04,-239.09"/>
<polygon fill="#63b8ff" stroke="#63b8ff" points="221.21,-264.3 222.99,-274.75 228.11,-265.48 221.21,-264.3"/>
</a>
</g>
</g>
<!-- Node10 -->
<g id="Node000010" class="node">
<title>Node10</title>
<g id="a_Node000010"><a xlink:href="_modules_8h.html" target="_top" xlink:title=" ">
<polygon fill="white" stroke="#666666" points="264,-184 197,-184 197,-165 264,-165 264,-184"/>
<text text-anchor="middle" x="230.5" y="-172" font-family="Helvetica Neue" font-size="10.00">Modules.h</text>
</a>
</g>
</g>
<!-- Node9&#45;&gt;Node10 -->
<g id="edge9_Node000009_Node000010" class="edge">
<title>Node9&#45;&gt;Node10</title>
<g id="a_edge9_Node000009_Node000010"><a xlink:title=" ">
<path fill="none" stroke="#63b8ff" d="M230.5,-209.66C230.5,-200.93 230.5,-190.99 230.5,-184.09"/>
<polygon fill="#63b8ff" stroke="#63b8ff" points="227,-209.75 230.5,-219.75 234,-209.75 227,-209.75"/>
</a>
</g>
</g>
<!-- Node11 -->
<g id="Node000011" class="node">
<title>Node11</title>
<g id="a_Node000011"><a xlink:href="_patcher_8h.html" target="_top" xlink:title=" ">
<polygon fill="white" stroke="#666666" points="321,-129 260,-129 260,-110 321,-110 321,-129"/>
<text text-anchor="middle" x="290.5" y="-117" font-family="Helvetica Neue" font-size="10.00">Patcher.h</text>
</a>
</g>
</g>
<!-- Node10&#45;&gt;Node11 -->
<g id="edge10_Node000010_Node000011" class="edge">
<title>Node10&#45;&gt;Node11</title>
<g id="a_edge10_Node000010_Node000011"><a xlink:title=" ">
<path fill="none" stroke="#63b8ff" d="M247.68,-158.32C258.38,-148.87 271.76,-137.06 280.68,-129.17"/>
<polygon fill="#63b8ff" stroke="#63b8ff" points="245.32,-155.74 240.14,-164.98 249.95,-160.99 245.32,-155.74"/>
</a>
</g>
</g>
<!-- Node12 -->
<g id="Node000012" class="node">
<title>Node12</title>
<g id="a_Node000012"><a xlink:href="_state_8cpp.html" target="_top" xlink:title=" ">
<polygon fill="white" stroke="#666666" points="241.5,-129 179.5,-129 179.5,-110 241.5,-110 241.5,-129"/>
<text text-anchor="middle" x="210.5" y="-117" font-family="Helvetica Neue" font-size="10.00">State.cpp</text>
</a>
</g>
</g>
<!-- Node10&#45;&gt;Node12 -->
<g id="edge14_Node000010_Node000012" class="edge">
<title>Node10&#45;&gt;Node12</title>
<g id="a_edge14_Node000010_Node000012"><a xlink:title=" ">
<path fill="none" stroke="#63b8ff" d="M223.61,-155.24C220.26,-146.37 216.4,-136.14 213.74,-129.09"/>
<polygon fill="#63b8ff" stroke="#63b8ff" points="220.39,-156.63 227.2,-164.75 226.94,-154.16 220.39,-156.63"/>
</a>
</g>
</g>
<!-- Node11&#45;&gt;Node2 -->
<g id="edge12_Node000011_Node000002" class="edge">
<title>Node11&#45;&gt;Node2</title>
<g id="a_edge12_Node000011_Node000002"><a xlink:title=" ">
<path fill="none" stroke="#63b8ff" d="M261.25,-105.9C238.53,-96.11 207.63,-82.79 187.62,-74.17"/>
<polygon fill="#63b8ff" stroke="#63b8ff" points="260.17,-109.24 270.74,-109.98 262.94,-102.81 260.17,-109.24"/>
</a>
</g>
</g>
<!-- Node11&#45;&gt;Node3 -->
<g id="edge11_Node000011_Node000003" class="edge">
<title>Node11&#45;&gt;Node3</title>
<g id="a_edge11_Node000011_Node000003"><a xlink:title=" ">
<path fill="none" stroke="#63b8ff" d="M300.85,-100.76C314.54,-77.28 338.15,-36.81 348.45,-19.16"/>
<polygon fill="#63b8ff" stroke="#63b8ff" points="297.67,-99.26 295.66,-109.66 303.72,-102.79 297.67,-99.26"/>
</a>
</g>
</g>
<!-- Node11&#45;&gt;Node6 -->
<g id="edge13_Node000011_Node000006" class="edge">
<title>Node11&#45;&gt;Node6</title>
<g id="a_edge13_Node000011_Node000006"><a xlink:title=" ">
<path fill="none" stroke="#63b8ff" d="M283.69,-100.12C274.97,-76.56 260.19,-36.66 253.71,-19.16"/>
<polygon fill="#63b8ff" stroke="#63b8ff" points="280.47,-101.5 287.23,-109.66 287.04,-99.07 280.47,-101.5"/>
</a>
</g>
</g>
</g>
</svg>
