<?xml version="1.0" encoding="UTF-8" standalone="no"?>
<!DOCTYPE svg PUBLIC "-//W3C//DTD SVG 1.1//EN"
 "http://www.w3.org/Graphics/SVG/1.1/DTD/svg11.dtd">
<!-- Generated by graphviz version 2.43.0 (0)
 -->
<!-- Title: PhiTheme.h Pages: 1 -->
<svg width="663pt" height="357pt"
 viewBox="0.00 0.00 663.00 357.00" xmlns="http://www.w3.org/2000/svg" xmlns:xlink="http://www.w3.org/1999/xlink">
<g id="graph0" class="graph" transform="scale(1 1) rotate(0) translate(4 353)">
<title>PhiTheme.h</title>
<!-- Node1 -->
<g id="Node000001" class="node">
<title>Node1</title>
<g id="a_Node000001"><a xlink:title=" ">
<polygon fill="#999999" stroke="#666666" points="316,-349 242,-349 242,-330 316,-330 316,-349"/>
<text text-anchor="middle" x="279" y="-337" font-family="Helvetica Neue" font-size="10.00">PhiTheme.h</text>
</a>
</g>
</g>
<!-- Node2 -->
<g id="Node000002" class="node">
<title>Node2</title>
<g id="a_Node000002"><a xlink:href="_phi_look_and_feel_8h.html" target="_top" xlink:title=" ">
<polygon fill="white" stroke="#666666" points="242.5,-239 139.5,-239 139.5,-220 242.5,-220 242.5,-239"/>
<text text-anchor="middle" x="191" y="-227" font-family="Helvetica Neue" font-size="10.00">PhiLookAndFeel.h</text>
</a>
</g>
</g>
<!-- Node1&#45;&gt;Node2 -->
<g id="edge1_Node000001_Node000002" class="edge">
<title>Node1&#45;&gt;Node2</title>
<g id="a_edge1_Node000001_Node000002"><a xlink:title=" ">
<path fill="none" stroke="#63b8ff" d="M265.3,-321.69C246.3,-298.37 212.63,-257.05 198.05,-239.16"/>
<polygon fill="#63b8ff" stroke="#63b8ff" points="262.77,-324.12 271.8,-329.66 268.2,-319.7 262.77,-324.12"/>
</a>
</g>
</g>
<!-- Node11 -->
<g id="Node000011" class="node">
<title>Node11</title>
<g id="a_Node000011"><a xlink:href="_state_8h.html" target="_top" xlink:title=" ">
<polygon fill="white" stroke="#666666" points="391.5,-294 340.5,-294 340.5,-275 391.5,-275 391.5,-294"/>
<text text-anchor="middle" x="366" y="-282" font-family="Helvetica Neue" font-size="10.00">State.h</text>
</a>
</g>
</g>
<!-- Node1&#45;&gt;Node11 -->
<g id="edge13_Node000001_Node000011" class="edge">
<title>Node1&#45;&gt;Node11</title>
<g id="a_edge13_Node000001_Node000011"><a xlink:title=" ">
<path fill="none" stroke="#63b8ff" d="M301.66,-324.7C317.51,-315.04 338.19,-302.44 351.77,-294.17"/>
<polygon fill="#63b8ff" stroke="#63b8ff" points="299.7,-321.79 292.98,-329.98 303.34,-327.77 299.7,-321.79"/>
</a>
</g>
</g>
<!-- Node3 -->
<g id="Node000003" class="node">
<title>Node3</title>
<g id="a_Node000003"><a xlink:href="_main_component_8h.html" target="_top" xlink:title=" ">
<polygon fill="white" stroke="#666666" points="317,-74 211,-74 211,-55 317,-55 317,-74"/>
<text text-anchor="middle" x="264" y="-62" font-family="Helvetica Neue" font-size="10.00">MainComponent.h</text>
</a>
</g>
</g>
<!-- Node2&#45;&gt;Node3 -->
<g id="edge2_Node000002_Node000003" class="edge">
<title>Node2&#45;&gt;Node3</title>
<g id="a_edge2_Node000002_Node000003"><a xlink:title=" ">
<path fill="none" stroke="#63b8ff" d="M187.71,-209.57C184.43,-184.9 182.14,-141.23 200,-110 209.61,-93.2 228.45,-81.28 243.22,-74.04"/>
<polygon fill="#63b8ff" stroke="#63b8ff" points="184.3,-210.38 189.27,-219.74 191.22,-209.32 184.3,-210.38"/>
</a>
</g>
</g>
<!-- Node8 -->
<g id="Node000008" class="node">
<title>Node8</title>
<g id="a_Node000008"><a xlink:href="_module_box_8h.html" target="_top" xlink:title=" ">
<polygon fill="white" stroke="#666666" points="289,-184 209,-184 209,-165 289,-165 289,-184"/>
<text text-anchor="middle" x="249" y="-172" font-family="Helvetica Neue" font-size="10.00">ModuleBox.h</text>
</a>
</g>
</g>
<!-- Node2&#45;&gt;Node8 -->
<g id="edge7_Node000002_Node000008" class="edge">
<title>Node2&#45;&gt;Node8</title>
<g id="a_edge7_Node000002_Node000008"><a xlink:title=" ">
<path fill="none" stroke="#63b8ff" d="M207.91,-213.04C218.2,-203.64 230.97,-191.98 239.51,-184.17"/>
<polygon fill="#63b8ff" stroke="#63b8ff" points="205.34,-210.66 200.32,-219.98 210.06,-215.82 205.34,-210.66"/>
</a>
</g>
</g>
<!-- Node4 -->
<g id="Node000004" class="node">
<title>Node4</title>
<g id="a_Node000004"><a xlink:href="_connections_8cpp.html" target="_top" xlink:title=" ">
<polygon fill="white" stroke="#666666" points="120.5,-19 23.5,-19 23.5,0 120.5,0 120.5,-19"/>
<text text-anchor="middle" x="72" y="-7" font-family="Helvetica Neue" font-size="10.00">Connections.cpp</text>
</a>
</g>
</g>
<!-- Node3&#45;&gt;Node4 -->
<g id="edge3_Node000003_Node000004" class="edge">
<title>Node3&#45;&gt;Node4</title>
<g id="a_edge3_Node000003_Node000004"><a xlink:title=" ">
<path fill="none" stroke="#63b8ff" d="M223.47,-52.31C187.54,-42.39 135.84,-28.12 103.09,-19.08"/>
<polygon fill="#63b8ff" stroke="#63b8ff" points="222.58,-55.7 233.15,-54.98 224.44,-48.95 222.58,-55.7"/>
</a>
</g>
</g>
<!-- Node5 -->
<g id="Node000005" class="node">
<title>Node5</title>
<g id="a_Node000005"><a xlink:href="_main_8cpp.html" target="_top" xlink:title=" ">
<polygon fill="white" stroke="#666666" points="587.5,-19 526.5,-19 526.5,0 587.5,0 587.5,-19"/>
<text text-anchor="middle" x="557" y="-7" font-family="Helvetica Neue" font-size="10.00">Main.cpp</text>
</a>
</g>
</g>
<!-- Node3&#45;&gt;Node5 -->
<g id="edge4_Node000003_Node000005" class="edge">
<title>Node3&#45;&gt;Node5</title>
<g id="a_edge4_Node000003_Node000005"><a xlink:title=" ">
<path fill="none" stroke="#63b8ff" d="M320.99,-53.19C382.33,-42.1 477.62,-24.86 526.22,-16.07"/>
<polygon fill="#63b8ff" stroke="#63b8ff" points="320.29,-49.76 311.08,-54.98 321.54,-56.65 320.29,-49.76"/>
</a>
</g>
</g>
<!-- Node6 -->
<g id="Node000006" class="node">
<title>Node6</title>
<g id="a_Node000006"><a xlink:href="_main_component_8cpp.html" target="_top" xlink:title=" ">
<polygon fill="white" stroke="#666666" points="346.5,-19 229.5,-19 229.5,0 346.5,0 346.5,-19"/>
<text text-anchor="middle" x="288" y="-7" font-family="Helvetica Neue" font-size="10.00">MainComponent.cpp</text>
</a>
</g>
</g>
<!-- Node3&#45;&gt;Node6 -->
<g id="edge5_Node000003_Node000006" class="edge">
<title>Node3&#45;&gt;Node6</title>
<g id="a_edge5_Node000003_Node000006"><a xlink:title=" ">
<path fill="none" stroke="#63b8ff" d="M272.14,-45.53C276.18,-36.6 280.88,-26.22 284.11,-19.09"/>
<polygon fill="#63b8ff" stroke="#63b8ff" points="268.9,-44.19 267.96,-54.75 275.28,-47.08 268.9,-44.19"/>
</a>
</g>
</g>
<!-- Node7 -->
<g id="Node000007" class="node">
<title>Node7</title>
<g id="a_Node000007"><a xlink:href="_patcher_8cpp.html" target="_top" xlink:title=" ">
<polygon fill="white" stroke="#666666" points="211,-19 139,-19 139,0 211,0 211,-19"/>
<text text-anchor="middle" x="175" y="-7" font-family="Helvetica Neue" font-size="10.00">Patcher.cpp</text>
</a>
</g>
</g>
<!-- Node3&#45;&gt;Node7 -->
<g id="edge6_Node000003_Node000007" class="edge">
<title>Node3&#45;&gt;Node7</title>
<g id="a_edge6_Node000003_Node000007"><a xlink:title=" ">
<path fill="none" stroke="#63b8ff" d="M240.82,-49.7C224.61,-40.04 203.45,-27.44 189.56,-19.17"/>
<polygon fill="#63b8ff" stroke="#63b8ff" points="239.32,-52.88 249.7,-54.98 242.9,-46.86 239.32,-52.88"/>
</a>
</g>
</g>
<!-- Node9 -->
<g id="Node000009" class="node">
<title>Node9</title>
<g id="a_Node000009"><a xlink:href="_module_box_8cpp.html" target="_top" xlink:title=" ">
<polygon fill="white" stroke="#666666" points="301,-129 209,-129 209,-110 301,-110 301,-129"/>
<text text-anchor="middle" x="255" y="-117" font-family="Helvetica Neue" font-size="10.00">ModuleBox.cpp</text>
</a>
</g>
</g>
<!-- Node8&#45;&gt;Node9 -->
<g id="edge8_Node000008_Node000009" class="edge">
<title>Node8&#45;&gt;Node9</title>
<g id="a_edge8_Node000008_Node000009"><a xlink:title=" ">
<path fill="none" stroke="#63b8ff" d="M251.13,-154.66C252.12,-145.93 253.25,-135.99 254.03,-129.09"/>
<polygon fill="#63b8ff" stroke="#63b8ff" points="247.64,-154.42 249.99,-164.75 254.59,-155.21 247.64,-154.42"/>
</a>
</g>
</g>
<!-- Node10 -->
<g id="Node000010" class="node">
<title>Node10</title>
<g id="a_Node000010"><a xlink:href="_patcher_8h.html" target="_top" xlink:title=" ">
<polygon fill="white" stroke="#666666" points="147.5,-129 86.5,-129 86.5,-110 147.5,-110 147.5,-129"/>
<text text-anchor="middle" x="117" y="-117" font-family="Helvetica Neue" font-size="10.00">Patcher.h</text>
</a>
</g>
</g>
<!-- Node8&#45;&gt;Node10 -->
<g id="edge9_Node000008_Node000010" class="edge">
<title>Node8&#45;&gt;Node10</title>
<g id="a_edge9_Node000008_Node000010"><a xlink:title=" ">
<path fill="none" stroke="#63b8ff" d="M218.27,-161.16C193.83,-151.35 160.26,-137.87 138.59,-129.17"/>
<polygon fill="#63b8ff" stroke="#63b8ff" points="217.21,-164.51 227.79,-164.98 219.82,-158.01 217.21,-164.51"/>
</a>
</g>
</g>
<!-- Node10&#45;&gt;Node3 -->
<g id="edge11_Node000010_Node000003" class="edge">
<title>Node10&#45;&gt;Node3</title>
<g id="a_edge11_Node000010_Node000003"><a xlink:title=" ">
<path fill="none" stroke="#63b8ff" d="M150.14,-106.55C177.44,-96.71 215.5,-82.98 239.95,-74.17"/>
<polygon fill="#63b8ff" stroke="#63b8ff" points="148.84,-103.3 140.62,-109.98 151.21,-109.89 148.84,-103.3"/>
</a>
</g>
</g>
<!-- Node10&#45;&gt;Node4 -->
<g id="edge10_Node000010_Node000004" class="edge">
<title>Node10&#45;&gt;Node4</title>
<g id="a_edge10_Node000010_Node000004"><a xlink:title=" ">
<path fill="none" stroke="#63b8ff" d="M109.34,-100.12C99.53,-76.56 82.9,-36.66 75.61,-19.16"/>
<polygon fill="#63b8ff" stroke="#63b8ff" points="106.24,-101.78 113.32,-109.66 112.7,-99.08 106.24,-101.78"/>
</a>
</g>
</g>
<!-- Node10&#45;&gt;Node7 -->
<g id="edge12_Node000010_Node000007" class="edge">
<title>Node10&#45;&gt;Node7</title>
<g id="a_edge12_Node000010_Node000007"><a xlink:title=" ">
<path fill="none" stroke="#63b8ff" d="M126.53,-100.76C139.14,-77.28 160.87,-36.81 170.35,-19.16"/>
<polygon fill="#63b8ff" stroke="#63b8ff" points="123.39,-99.2 121.75,-109.66 129.56,-102.51 123.39,-99.2"/>
</a>
</g>
</g>
<!-- Node11&#45;&gt;Node3 -->
<g id="edge24_Node000011_Node000003" class="edge">
<title>Node11&#45;&gt;Node3</title>
<g id="a_edge24_Node000011_Node000003"><a xlink:title=" ">
<path fill="none" stroke="#63b8ff" d="M385.36,-267.82C393.36,-260.09 401.76,-250.06 406,-239 418.28,-206.96 404.2,-192.73 384,-165 354.04,-123.87 303.37,-89.49 278.56,-74.13"/>
<polygon fill="#63b8ff" stroke="#63b8ff" points="382.75,-265.45 377.64,-274.73 387.42,-270.67 382.75,-265.45"/>
</a>
</g>
</g>
<!-- Node11&#45;&gt;Node5 -->
<g id="edge23_Node000011_Node000005" class="edge">
<title>Node11&#45;&gt;Node5</title>
<g id="a_edge23_Node000011_Node000005"><a xlink:title=" ">
<path fill="none" stroke="#63b8ff" d="M401.87,-282.84C448.35,-280.61 530.69,-271.85 592,-239 627.04,-220.22 655,-215.26 655,-175.5 655,-175.5 655,-175.5 655,-118.5 655,-70.9 602.15,-34.97 574.07,-19.24"/>
<polygon fill="#63b8ff" stroke="#63b8ff" points="401.54,-279.35 391.69,-283.25 401.82,-286.35 401.54,-279.35"/>
</a>
</g>
</g>
<!-- Node11&#45;&gt;Node10 -->
<g id="edge25_Node000011_Node000010" class="edge">
<title>Node11&#45;&gt;Node10</title>
<g id="a_edge25_Node000011_Node000010"><a xlink:title=" ">
<path fill="none" stroke="#63b8ff" d="M330.08,-281.75C271.08,-278.09 157.53,-267.44 131,-239 102.03,-207.94 110.48,-150.64 115,-129.04"/>
<polygon fill="#63b8ff" stroke="#63b8ff" points="330.24,-285.27 340.43,-282.36 330.65,-278.28 330.24,-285.27"/>
</a>
</g>
</g>
<!-- Node12 -->
<g id="Node000012" class="node">
<title>Node12</title>
<g id="a_Node000012"><a xlink:href="_audio_engine_8h.html" target="_top" xlink:title=" ">
<polygon fill="white" stroke="#666666" points="583,-239 497,-239 497,-220 583,-220 583,-239"/>
<text text-anchor="middle" x="540" y="-227" font-family="Helvetica Neue" font-size="10.00">AudioEngine.h</text>
</a>
</g>
</g>
<!-- Node11&#45;&gt;Node12 -->
<g id="edge14_Node000011_Node000012" class="edge">
<title>Node11&#45;&gt;Node12</title>
<g id="a_edge14_Node000011_Node000012"><a xlink:title=" ">
<path fill="none" stroke="#63b8ff" d="M401.28,-272.75C433.91,-262.81 481.79,-248.23 511.91,-239.06"/>
<polygon fill="#63b8ff" stroke="#63b8ff" points="400.22,-269.42 391.67,-275.68 402.26,-276.11 400.22,-269.42"/>
</a>
</g>
</g>
<!-- Node14 -->
<g id="Node000014" class="node">
<title>Node14</title>
<g id="a_Node000014"><a xlink:href="_connections_8h.html" target="_top" xlink:title=" ">
<polygon fill="white" stroke="#666666" points="86,-184 0,-184 0,-165 86,-165 86,-184"/>
<text text-anchor="middle" x="43" y="-172" font-family="Helvetica Neue" font-size="10.00">Connections.h</text>
</a>
</g>
</g>
<!-- Node11&#45;&gt;Node14 -->
<g id="edge17_Node000011_Node000014" class="edge">
<title>Node11&#45;&gt;Node14</title>
<g id="a_edge17_Node000011_Node000014"><a xlink:title=" ">
<path fill="none" stroke="#63b8ff" d="M330.26,-280.65C266.55,-275.06 136.32,-261.25 97,-239 73.57,-225.74 55.68,-198.23 47.65,-184.17"/>
<polygon fill="#63b8ff" stroke="#63b8ff" points="330,-284.14 340.26,-281.5 330.59,-277.16 330,-284.14"/>
</a>
</g>
</g>
<!-- Node15 -->
<g id="Node000015" class="node">
<title>Node15</title>
<g id="a_Node000015"><a xlink:href="_file_manager_8h.html" target="_top" xlink:title=" ">
<polygon fill="white" stroke="#666666" points="538.5,-129 453.5,-129 453.5,-110 538.5,-110 538.5,-129"/>
<text text-anchor="middle" x="496" y="-117" font-family="Helvetica Neue" font-size="10.00">FileManager.h</text>
</a>
</g>
</g>
<!-- Node11&#45;&gt;Node15 -->
<g id="edge20_Node000011_Node000015" class="edge">
<title>Node11&#45;&gt;Node15</title>
<g id="a_edge20_Node000011_Node000015"><a xlink:title=" ">
<path fill="none" stroke="#63b8ff" d="M395.58,-270.46C410.09,-262.91 426.99,-252.27 439,-239 470.11,-204.65 487.72,-150.26 493.68,-129.22"/>
<polygon fill="#63b8ff" stroke="#63b8ff" points="393.88,-267.39 386.47,-274.96 396.98,-273.67 393.88,-267.39"/>
</a>
</g>
</g>
<!-- Node16 -->
<g id="Node000016" class="node">
<title>Node16</title>
<g id="a_Node000016"><a xlink:href="_port_u_i_8h.html" target="_top" xlink:title=" ">
<polygon fill="white" stroke="#666666" points="317,-239 261,-239 261,-220 317,-220 317,-239"/>
<text text-anchor="middle" x="289" y="-227" font-family="Helvetica Neue" font-size="10.00">PortUI.h</text>
</a>
</g>
</g>
<!-- Node11&#45;&gt;Node16 -->
<g id="edge26_Node000011_Node000016" class="edge">
<title>Node11&#45;&gt;Node16</title>
<g id="a_edge26_Node000011_Node000016"><a xlink:title=" ">
<path fill="none" stroke="#63b8ff" d="M345.15,-269.15C331.24,-259.57 313.39,-247.29 301.6,-239.17"/>
<polygon fill="#63b8ff" stroke="#63b8ff" points="343.41,-272.2 353.63,-274.98 347.38,-266.43 343.41,-272.2"/>
</a>
</g>
</g>
<!-- Node18 -->
<g id="Node000018" class="node">
<title>Node18</title>
<g id="a_Node000018"><a xlink:href="_state_8cpp.html" target="_top" xlink:title=" ">
<polygon fill="white" stroke="#666666" points="397,-239 335,-239 335,-220 397,-220 397,-239"/>
<text text-anchor="middle" x="366" y="-227" font-family="Helvetica Neue" font-size="10.00">State.cpp</text>
</a>
</g>
</g>
<!-- Node11&#45;&gt;Node18 -->
<g id="edge29_Node000011_Node000018" class="edge">
<title>Node11&#45;&gt;Node18</title>
<g id="a_edge29_Node000011_Node000018"><a xlink:title=" ">
<path fill="none" stroke="#63b8ff" d="M366,-264.66C366,-255.93 366,-245.99 366,-239.09"/>
<polygon fill="#63b8ff" stroke="#63b8ff" points="362.5,-264.75 366,-274.75 369.5,-264.75 362.5,-264.75"/>
</a>
</g>
</g>
<!-- Node12&#45;&gt;Node5 -->
<g id="edge16_Node000012_Node000005" class="edge">
<title>Node12&#45;&gt;Node5</title>
<g id="a_edge16_Node000012_Node000005"><a xlink:title=" ">
<path fill="none" stroke="#63b8ff" d="M567.36,-214.89C579.07,-207.5 591.51,-197.15 598,-184 626.89,-125.43 580.3,-45.54 563.03,-19.27"/>
<polygon fill="#63b8ff" stroke="#63b8ff" points="565.54,-211.9 558.67,-219.97 569.07,-217.95 565.54,-211.9"/>
</a>
</g>
</g>
<!-- Node13 -->
<g id="Node000013" class="node">
<title>Node13</title>
<g id="a_Node000013"><a xlink:href="_audio_engine_8cpp.html" target="_top" xlink:title=" ">
<polygon fill="white" stroke="#666666" points="589,-184 491,-184 491,-165 589,-165 589,-184"/>
<text text-anchor="middle" x="540" y="-172" font-family="Helvetica Neue" font-size="10.00">AudioEngine.cpp</text>
</a>
</g>
</g>
<!-- Node12&#45;&gt;Node13 -->
<g id="edge15_Node000012_Node000013" class="edge">
<title>Node12&#45;&gt;Node13</title>
<g id="a_edge15_Node000012_Node000013"><a xlink:title=" ">
<path fill="none" stroke="#63b8ff" d="M540,-209.66C540,-200.93 540,-190.99 540,-184.09"/>
<polygon fill="#63b8ff" stroke="#63b8ff" points="536.5,-209.75 540,-219.75 543.5,-209.75 536.5,-209.75"/>
</a>
</g>
</g>
<!-- Node14&#45;&gt;Node4 -->
<g id="edge18_Node000014_Node000004" class="edge">
<title>Node14&#45;&gt;Node4</title>
<g id="a_edge18_Node000014_Node000004"><a xlink:title=" ">
<path fill="none" stroke="#63b8ff" d="M46.32,-154.83C52.58,-119.67 65.88,-44.9 70.43,-19.31"/>
<polygon fill="#63b8ff" stroke="#63b8ff" points="42.86,-154.28 44.56,-164.74 49.76,-155.5 42.86,-154.28"/>
</a>
</g>
</g>
<!-- Node14&#45;&gt;Node10 -->
<g id="edge19_Node000014_Node000010" class="edge">
<title>Node14&#45;&gt;Node10</title>
<g id="a_edge19_Node000014_Node000010"><a xlink:title=" ">
<path fill="none" stroke="#63b8ff" d="M63.03,-159.15C76.41,-149.57 93.56,-137.29 104.89,-129.17"/>
<polygon fill="#63b8ff" stroke="#63b8ff" points="60.98,-156.32 54.89,-164.98 65.06,-162.01 60.98,-156.32"/>
</a>
</g>
</g>
<!-- Node15&#45;&gt;Node3 -->
<g id="edge22_Node000015_Node000003" class="edge">
<title>Node15&#45;&gt;Node3</title>
<g id="a_edge22_Node000015_Node000003"><a xlink:title=" ">
<path fill="none" stroke="#63b8ff" d="M448.96,-107.75C405.48,-97.82 341.73,-83.26 301.57,-74.08"/>
<polygon fill="#63b8ff" stroke="#63b8ff" points="448.2,-111.17 458.73,-109.98 449.76,-104.35 448.2,-111.17"/>
</a>
</g>
</g>
<!-- Node15&#45;&gt;Node5 -->
<g id="edge21_Node000015_Node000005" class="edge">
<title>Node15&#45;&gt;Node5</title>
<g id="a_edge21_Node000015_Node000005"><a xlink:title=" ">
<path fill="none" stroke="#63b8ff" d="M506.02,-100.76C519.28,-77.28 542.14,-36.81 552.11,-19.16"/>
<polygon fill="#63b8ff" stroke="#63b8ff" points="502.86,-99.23 500.99,-109.66 508.96,-102.68 502.86,-99.23"/>
</a>
</g>
</g>
<!-- Node16&#45;&gt;Node8 -->
<g id="edge27_Node000016_Node000008" class="edge">
<title>Node16&#45;&gt;Node8</title>
<g id="a_edge27_Node000016_Node000008"><a xlink:title=" ">
<path fill="none" stroke="#63b8ff" d="M276.3,-211.67C269.37,-202.5 261.09,-191.52 255.48,-184.09"/>
<polygon fill="#63b8ff" stroke="#63b8ff" points="273.58,-213.87 282.39,-219.75 279.16,-209.66 273.58,-213.87"/>
</a>
</g>
</g>
<!-- Node17 -->
<g id="Node000017" class="node">
<title>Node17</title>
<g id="a_Node000017"><a xlink:href="_port_u_i_8cpp.html" target="_top" xlink:title=" ">
<polygon fill="white" stroke="#666666" points="374.5,-184 307.5,-184 307.5,-165 374.5,-165 374.5,-184"/>
<text text-anchor="middle" x="341" y="-172" font-family="Helvetica Neue" font-size="10.00">PortUI.cpp</text>
</a>
</g>
</g>
<!-- Node16&#45;&gt;Node17 -->
<g id="edge28_Node000016_Node000017" class="edge">
<title>Node16&#45;&gt;Node17</title>
<g id="a_edge28_Node000016_Node000017"><a xlink:title=" ">
<path fill="none" stroke="#63b8ff" d="M304.68,-212.52C313.84,-203.18 325.05,-191.75 332.57,-184.09"/>
<polygon fill="#63b8ff" stroke="#63b8ff" points="302.09,-210.16 297.59,-219.75 307.09,-215.06 302.09,-210.16"/>
</a>
</g>
</g>
</g>
</svg>
