<?xml version="1.0" encoding="UTF-8" standalone="no"?>
<!DOCTYPE svg PUBLIC "-//W3C//DTD SVG 1.1//EN"
 "http://www.w3.org/Graphics/SVG/1.1/DTD/svg11.dtd">
<!-- Generated by graphviz version 2.38.0 (20140413.2041)
 -->
<!-- Title: Plug.cpp Pages: 1 -->
<svg width="171pt" height="140pt"
 viewBox="0.00 0.00 170.50 140.00" xmlns="http://www.w3.org/2000/svg" xmlns:xlink="http://www.w3.org/1999/xlink">
<g id="graph0" class="graph" transform="scale(1 1) rotate(0) translate(4 136)">
<title>Plug.cpp</title>
<polygon fill="white" stroke="none" points="-4,4 -4,-136 166.5,-136 166.5,4 -4,4"/>
<!-- Node1 -->
<g id="node1" class="node"><title>Node1</title>
<polygon fill="#bfbfbf" stroke="black" points="51.5,-112.5 51.5,-131.5 108.5,-131.5 108.5,-112.5 51.5,-112.5"/>
<text text-anchor="middle" x="80" y="-119.5" font-family="Helvetica Neue" font-size="10.00">Plug.cpp</text>
</g>
<!-- Node2 -->
<g id="node2" class="node"><title>Node2</title>
<polygon fill="white" stroke="#bfbfbf" points="0,-56.5 0,-75.5 80,-75.5 80,-56.5 0,-56.5"/>
<text text-anchor="middle" x="40" y="-63.5" font-family="Helvetica Neue" font-size="10.00">JuceHeader.h</text>
</g>
<!-- Node1&#45;&gt;Node2 -->
<g id="edge1" class="edge"><title>Node1&#45;&gt;Node2</title>
<path fill="none" stroke="midnightblue" d="M73.3948,-112.083C67.7448,-104.455 59.4552,-93.2645 52.5488,-83.9408"/>
<polygon fill="midnightblue" stroke="midnightblue" points="55.2471,-81.7034 46.4823,-75.7511 49.6221,-85.87 55.2471,-81.7034"/>
</g>
<!-- Node3 -->
<g id="node3" class="node"><title>Node3</title>
<g id="a_node3"><a xlink:href="_plug_8h.html" target="_top" xlink:title="Plug.h">
<polygon fill="white" stroke="black" points="98,-56.5 98,-75.5 144,-75.5 144,-56.5 98,-56.5"/>
<text text-anchor="middle" x="121" y="-63.5" font-family="Helvetica Neue" font-size="10.00">Plug.h</text>
</a>
</g>
</g>
<!-- Node1&#45;&gt;Node3 -->
<g id="edge2" class="edge"><title>Node1&#45;&gt;Node3</title>
<path fill="none" stroke="midnightblue" d="M86.7703,-112.083C92.5616,-104.455 101.058,-93.2645 108.138,-83.9408"/>
<polygon fill="midnightblue" stroke="midnightblue" points="111.096,-85.8321 114.356,-75.7511 105.521,-81.5991 111.096,-85.8321"/>
</g>
<!-- Node4 -->
<g id="node4" class="node"><title>Node4</title>
<g id="a_node4"><a xlink:href="_plug_handler_8h.html" target="_top" xlink:title="PlugHandler.h">
<polygon fill="white" stroke="black" points="79.5,-0.5 79.5,-19.5 162.5,-19.5 162.5,-0.5 79.5,-0.5"/>
<text text-anchor="middle" x="121" y="-7.5" font-family="Helvetica Neue" font-size="10.00">PlugHandler.h</text>
</a>
</g>
</g>
<!-- Node3&#45;&gt;Node4 -->
<g id="edge3" class="edge"><title>Node3&#45;&gt;Node4</title>
<path fill="none" stroke="midnightblue" d="M121,-56.083C121,-49.0059 121,-38.8611 121,-29.9865"/>
<polygon fill="midnightblue" stroke="midnightblue" points="124.5,-29.751 121,-19.7511 117.5,-29.7511 124.5,-29.751"/>
</g>
</g>
</svg>
