<?xml version="1.0" encoding="UTF-8" standalone="no"?>
<!DOCTYPE svg PUBLIC "-//W3C//DTD SVG 1.1//EN"
 "http://www.w3.org/Graphics/SVG/1.1/DTD/svg11.dtd">
<!-- Generated by graphviz version 2.38.0 (20140413.2041)
 -->
<!-- Title: PlugHandler.h Pages: 1 -->
<svg width="670pt" height="588pt"
 viewBox="0.00 0.00 669.80 588.00" xmlns="http://www.w3.org/2000/svg" xmlns:xlink="http://www.w3.org/1999/xlink">
<g id="graph0" class="graph" transform="scale(1 1) rotate(0) translate(4 584)">
<title>PlugHandler.h</title>
<polygon fill="white" stroke="none" points="-4,4 -4,-584 665.805,-584 665.805,4 -4,4"/>
<!-- Node1 -->
<g id="node1" class="node"><title>Node1</title>
<polygon fill="#bfbfbf" stroke="black" points="359.805,-560.5 359.805,-579.5 442.805,-579.5 442.805,-560.5 359.805,-560.5"/>
<text text-anchor="middle" x="401.305" y="-567.5" font-family="Helvetica Neue" font-size="10.00">PlugHandler.h</text>
</g>
<!-- Node2 -->
<g id="node2" class="node"><title>Node2</title>
<g id="a_node2"><a xlink:href="_plug_8h.html" target="_top" xlink:title="Plug.h">
<polygon fill="white" stroke="black" points="378.305,-504.5 378.305,-523.5 424.305,-523.5 424.305,-504.5 378.305,-504.5"/>
<text text-anchor="middle" x="401.305" y="-511.5" font-family="Helvetica Neue" font-size="10.00">Plug.h</text>
</a>
</g>
</g>
<!-- Node1&#45;&gt;Node2 -->
<g id="edge1" class="edge"><title>Node1&#45;&gt;Node2</title>
<path fill="none" stroke="midnightblue" d="M401.305,-549.805C401.305,-540.91 401.305,-530.78 401.305,-523.751"/>
<polygon fill="midnightblue" stroke="midnightblue" points="397.805,-550.083 401.305,-560.083 404.805,-550.083 397.805,-550.083"/>
</g>
<!-- Node3 -->
<g id="node3" class="node"><title>Node3</title>
<g id="a_node3"><a xlink:href="_connections_8h.html" target="_top" xlink:title="Connections.h">
<polygon fill="white" stroke="black" points="88.8045,-392.5 88.8045,-411.5 173.805,-411.5 173.805,-392.5 88.8045,-392.5"/>
<text text-anchor="middle" x="131.305" y="-399.5" font-family="Helvetica Neue" font-size="10.00">Connections.h</text>
</a>
</g>
</g>
<!-- Node2&#45;&gt;Node3 -->
<g id="edge2" class="edge"><title>Node2&#45;&gt;Node3</title>
<path fill="none" stroke="midnightblue" d="M370.834,-500.586C315.518,-478.05 199.912,-430.951 152.393,-411.591"/>
<polygon fill="midnightblue" stroke="midnightblue" points="369.537,-503.837 380.118,-504.368 372.178,-497.354 369.537,-503.837"/>
</g>
<!-- Node12 -->
<g id="node12" class="node"><title>Node12</title>
<g id="a_node12"><a xlink:href="_module_u_i_8h.html" target="_top" xlink:title="ModuleUI.h">
<polygon fill="white" stroke="black" points="366.305,-448.5 366.305,-467.5 436.305,-467.5 436.305,-448.5 366.305,-448.5"/>
<text text-anchor="middle" x="401.305" y="-455.5" font-family="Helvetica Neue" font-size="10.00">ModuleUI.h</text>
</a>
</g>
</g>
<!-- Node2&#45;&gt;Node12 -->
<g id="edge12" class="edge"><title>Node2&#45;&gt;Node12</title>
<path fill="none" stroke="midnightblue" d="M401.305,-493.805C401.305,-484.91 401.305,-474.78 401.305,-467.751"/>
<polygon fill="midnightblue" stroke="midnightblue" points="397.805,-494.083 401.305,-504.083 404.805,-494.083 397.805,-494.083"/>
</g>
<!-- Node26 -->
<g id="node26" class="node"><title>Node26</title>
<g id="a_node26"><a xlink:href="_plug_8cpp.html" target="_top" xlink:title="Plug.cpp">
<polygon fill="white" stroke="black" points="454.805,-448.5 454.805,-467.5 511.805,-467.5 511.805,-448.5 454.805,-448.5"/>
<text text-anchor="middle" x="483.305" y="-455.5" font-family="Helvetica Neue" font-size="10.00">Plug.cpp</text>
</a>
</g>
</g>
<!-- Node2&#45;&gt;Node26 -->
<g id="edge32" class="edge"><title>Node2&#45;&gt;Node26</title>
<path fill="none" stroke="midnightblue" d="M423.138,-498.622C438.117,-488.757 457.502,-475.992 470.163,-467.655"/>
<polygon fill="midnightblue" stroke="midnightblue" points="420.906,-495.901 414.479,-504.324 424.756,-501.747 420.906,-495.901"/>
</g>
<!-- Node4 -->
<g id="node4" class="node"><title>Node4</title>
<g id="a_node4"><a xlink:href="_audio_engine_8h.html" target="_top" xlink:title="AudioEngine.h">
<polygon fill="white" stroke="black" points="142.805,-336.5 142.805,-355.5 227.805,-355.5 227.805,-336.5 142.805,-336.5"/>
<text text-anchor="middle" x="185.305" y="-343.5" font-family="Helvetica Neue" font-size="10.00">AudioEngine.h</text>
</a>
</g>
</g>
<!-- Node3&#45;&gt;Node4 -->
<g id="edge3" class="edge"><title>Node3&#45;&gt;Node4</title>
<path fill="none" stroke="midnightblue" d="M147.302,-385.002C156.872,-375.433 168.666,-363.639 176.553,-355.751"/>
<polygon fill="midnightblue" stroke="midnightblue" points="144.818,-382.537 140.222,-392.083 149.768,-387.487 144.818,-382.537"/>
</g>
<!-- Node6 -->
<g id="node6" class="node"><title>Node6</title>
<g id="a_node6"><a xlink:href="_main_patcher_8h.html" target="_top" xlink:title="MainPatcher.h">
<polygon fill="white" stroke="black" points="120.805,-112.5 120.805,-131.5 203.805,-131.5 203.805,-112.5 120.805,-112.5"/>
<text text-anchor="middle" x="162.305" y="-119.5" font-family="Helvetica Neue" font-size="10.00">MainPatcher.h</text>
</a>
</g>
</g>
<!-- Node3&#45;&gt;Node6 -->
<g id="edge11" class="edge"><title>Node3&#45;&gt;Node6</title>
<path fill="none" stroke="midnightblue" d="M78.7183,-390.459C57.6735,-383.798 34.7985,-373.086 19.3045,-356 -0.913631,-333.704 0.304544,-321.098 0.304544,-291 0.304544,-291 0.304544,-291 0.304544,-233 0.304544,-174.017 74.715,-144.458 122.675,-131.532"/>
<polygon fill="midnightblue" stroke="midnightblue" points="77.9624,-393.885 88.5426,-393.328 79.9247,-387.165 77.9624,-393.885"/>
</g>
<!-- Node11 -->
<g id="node11" class="node"><title>Node11</title>
<g id="a_node11"><a xlink:href="_connections_8cpp.html" target="_top" xlink:title="Connections.cpp">
<polygon fill="white" stroke="black" points="28.3045,-336.5 28.3045,-355.5 124.305,-355.5 124.305,-336.5 28.3045,-336.5"/>
<text text-anchor="middle" x="76.3045" y="-343.5" font-family="Helvetica Neue" font-size="10.00">Connections.cpp</text>
</a>
</g>
</g>
<!-- Node3&#45;&gt;Node11 -->
<g id="edge10" class="edge"><title>Node3&#45;&gt;Node11</title>
<path fill="none" stroke="midnightblue" d="M115.011,-385.002C105.264,-375.433 93.2516,-363.639 85.2177,-355.751"/>
<polygon fill="midnightblue" stroke="midnightblue" points="112.635,-387.575 122.222,-392.083 117.539,-382.58 112.635,-387.575"/>
</g>
<!-- Node5 -->
<g id="node5" class="node"><title>Node5</title>
<g id="a_node5"><a xlink:href="_audio_engine_8cpp.html" target="_top" xlink:title="AudioEngine.cpp">
<polygon fill="white" stroke="black" points="38.3045,-280.5 38.3045,-299.5 134.305,-299.5 134.305,-280.5 38.3045,-280.5"/>
<text text-anchor="middle" x="86.3045" y="-287.5" font-family="Helvetica Neue" font-size="10.00">AudioEngine.cpp</text>
</a>
</g>
</g>
<!-- Node4&#45;&gt;Node5 -->
<g id="edge4" class="edge"><title>Node4&#45;&gt;Node5</title>
<path fill="none" stroke="midnightblue" d="M160.468,-331.453C142.191,-321.483 117.889,-308.228 102.171,-299.655"/>
<polygon fill="midnightblue" stroke="midnightblue" points="158.944,-334.608 169.398,-336.324 162.296,-328.463 158.944,-334.608"/>
</g>
<!-- Node4&#45;&gt;Node6 -->
<g id="edge5" class="edge"><title>Node4&#45;&gt;Node6</title>
<path fill="none" stroke="midnightblue" d="M183.367,-326.295C178.637,-280.644 166.641,-164.854 163.225,-131.884"/>
<polygon fill="midnightblue" stroke="midnightblue" points="179.891,-326.711 184.403,-336.297 186.854,-325.99 179.891,-326.711"/>
</g>
<!-- Node7 -->
<g id="node7" class="node"><title>Node7</title>
<g id="a_node7"><a xlink:href="_main_component_8h.html" target="_top" xlink:title="MainComponent.h">
<polygon fill="white" stroke="black" points="51.3045,-56.5 51.3045,-75.5 155.305,-75.5 155.305,-56.5 51.3045,-56.5"/>
<text text-anchor="middle" x="103.305" y="-63.5" font-family="Helvetica Neue" font-size="10.00">MainComponent.h</text>
</a>
</g>
</g>
<!-- Node6&#45;&gt;Node7 -->
<g id="edge6" class="edge"><title>Node6&#45;&gt;Node7</title>
<path fill="none" stroke="midnightblue" d="M145.41,-105.537C134.89,-95.9087 121.736,-83.8694 112.956,-75.8339"/>
<polygon fill="midnightblue" stroke="midnightblue" points="143.085,-108.154 152.825,-112.324 147.811,-102.99 143.085,-108.154"/>
</g>
<!-- Node10 -->
<g id="node10" class="node"><title>Node10</title>
<g id="a_node10"><a xlink:href="_main_patcher_8cpp.html" target="_top" xlink:title="MainPatcher.cpp">
<polygon fill="white" stroke="black" points="173.805,-56.5 173.805,-75.5 268.805,-75.5 268.805,-56.5 173.805,-56.5"/>
<text text-anchor="middle" x="221.305" y="-63.5" font-family="Helvetica Neue" font-size="10.00">MainPatcher.cpp</text>
</a>
</g>
</g>
<!-- Node6&#45;&gt;Node10 -->
<g id="edge9" class="edge"><title>Node6&#45;&gt;Node10</title>
<path fill="none" stroke="midnightblue" d="M179.199,-105.537C189.719,-95.9087 202.873,-83.8694 211.653,-75.8339"/>
<polygon fill="midnightblue" stroke="midnightblue" points="176.798,-102.99 171.784,-112.324 181.524,-108.154 176.798,-102.99"/>
</g>
<!-- Node8 -->
<g id="node8" class="node"><title>Node8</title>
<g id="a_node8"><a xlink:href="_main_8cpp.html" target="_top" xlink:title="Main.cpp">
<polygon fill="white" stroke="black" points="20.8045,-0.5 20.8045,-19.5 79.8045,-19.5 79.8045,-0.5 20.8045,-0.5"/>
<text text-anchor="middle" x="50.3045" y="-7.5" font-family="Helvetica Neue" font-size="10.00">Main.cpp</text>
</a>
</g>
</g>
<!-- Node7&#45;&gt;Node8 -->
<g id="edge7" class="edge"><title>Node7&#45;&gt;Node8</title>
<path fill="none" stroke="midnightblue" d="M87.3236,-48.7175C77.9821,-39.1997 66.5587,-27.5608 58.8936,-19.7511"/>
<polygon fill="midnightblue" stroke="midnightblue" points="85.0501,-51.3978 94.5527,-56.083 90.0459,-46.4945 85.0501,-51.3978"/>
</g>
<!-- Node9 -->
<g id="node9" class="node"><title>Node9</title>
<g id="a_node9"><a xlink:href="_main_component_8cpp.html" target="_top" xlink:title="MainComponent.cpp">
<polygon fill="white" stroke="black" points="98.3045,-0.5 98.3045,-19.5 214.305,-19.5 214.305,-0.5 98.3045,-0.5"/>
<text text-anchor="middle" x="156.305" y="-7.5" font-family="Helvetica Neue" font-size="10.00">MainComponent.cpp</text>
</a>
</g>
</g>
<!-- Node7&#45;&gt;Node9 -->
<g id="edge8" class="edge"><title>Node7&#45;&gt;Node9</title>
<path fill="none" stroke="midnightblue" d="M119.285,-48.7175C128.627,-39.1997 140.05,-27.5608 147.716,-19.7511"/>
<polygon fill="midnightblue" stroke="midnightblue" points="116.563,-46.4945 112.056,-56.083 121.559,-51.3978 116.563,-46.4945"/>
</g>
<!-- Node13 -->
<g id="node13" class="node"><title>Node13</title>
<g id="a_node13"><a xlink:href="_module_processor_8h.html" target="_top" xlink:title="ModuleProcessor.h">
<polygon fill="white" stroke="black" points="347.805,-392.5 347.805,-411.5 454.805,-411.5 454.805,-392.5 347.805,-392.5"/>
<text text-anchor="middle" x="401.305" y="-399.5" font-family="Helvetica Neue" font-size="10.00">ModuleProcessor.h</text>
</a>
</g>
</g>
<!-- Node12&#45;&gt;Node13 -->
<g id="edge13" class="edge"><title>Node12&#45;&gt;Node13</title>
<path fill="none" stroke="midnightblue" d="M401.305,-437.805C401.305,-428.91 401.305,-418.78 401.305,-411.751"/>
<polygon fill="midnightblue" stroke="midnightblue" points="397.805,-438.083 401.305,-448.083 404.805,-438.083 397.805,-438.083"/>
</g>
<!-- Node25 -->
<g id="node25" class="node"><title>Node25</title>
<g id="a_node25"><a xlink:href="_module_u_i_8cpp.html" target="_top" xlink:title="ModuleUI.cpp">
<polygon fill="white" stroke="black" points="580.805,-336.5 580.805,-355.5 661.805,-355.5 661.805,-336.5 580.805,-336.5"/>
<text text-anchor="middle" x="621.305" y="-343.5" font-family="Helvetica Neue" font-size="10.00">ModuleUI.cpp</text>
</a>
</g>
</g>
<!-- Node12&#45;&gt;Node25 -->
<g id="edge31" class="edge"><title>Node12&#45;&gt;Node25</title>
<path fill="none" stroke="midnightblue" d="M427.548,-443.878C473.149,-421.078 565.803,-374.751 604.122,-355.591"/>
<polygon fill="midnightblue" stroke="midnightblue" points="425.947,-440.766 418.568,-448.368 429.077,-447.027 425.947,-440.766"/>
</g>
<!-- Node13&#45;&gt;Node4 -->
<g id="edge14" class="edge"><title>Node13&#45;&gt;Node4</title>
<path fill="none" stroke="midnightblue" d="M357.14,-389.959C316.344,-379.76 256.591,-364.822 219.37,-355.516"/>
<polygon fill="midnightblue" stroke="midnightblue" points="356.528,-393.414 367.079,-392.444 358.226,-386.623 356.528,-393.414"/>
</g>
<!-- Node14 -->
<g id="node14" class="node"><title>Node14</title>
<g id="a_node14"><a xlink:href="_gain_u_i_8h.html" target="_top" xlink:title="GainUI.h">
<polygon fill="white" stroke="black" points="245.805,-336.5 245.805,-355.5 302.805,-355.5 302.805,-336.5 245.805,-336.5"/>
<text text-anchor="middle" x="274.305" y="-343.5" font-family="Helvetica Neue" font-size="10.00">GainUI.h</text>
</a>
</g>
</g>
<!-- Node13&#45;&gt;Node14 -->
<g id="edge15" class="edge"><title>Node13&#45;&gt;Node14</title>
<path fill="none" stroke="midnightblue" d="M371.913,-388.503C348.105,-378.38 315.199,-364.388 294.334,-355.516"/>
<polygon fill="midnightblue" stroke="midnightblue" points="370.609,-391.751 381.181,-392.444 373.348,-385.31 370.609,-391.751"/>
</g>
<!-- Node19 -->
<g id="node19" class="node"><title>Node19</title>
<g id="a_node19"><a xlink:href="_impulse_u_i_8h.html" target="_top" xlink:title="ImpulseUI.h">
<polygon fill="white" stroke="black" points="320.805,-336.5 320.805,-355.5 393.805,-355.5 393.805,-336.5 320.805,-336.5"/>
<text text-anchor="middle" x="357.305" y="-343.5" font-family="Helvetica Neue" font-size="10.00">ImpulseUI.h</text>
</a>
</g>
</g>
<!-- Node13&#45;&gt;Node19 -->
<g id="edge21" class="edge"><title>Node13&#45;&gt;Node19</title>
<path fill="none" stroke="midnightblue" d="M387.57,-384.144C379.904,-374.736 370.671,-363.405 364.435,-355.751"/>
<polygon fill="midnightblue" stroke="midnightblue" points="385.009,-386.541 394.039,-392.083 390.435,-382.12 385.009,-386.541"/>
</g>
<!-- Node21 -->
<g id="node21" class="node"><title>Node21</title>
<g id="a_node21"><a xlink:href="_output_u_i_8h.html" target="_top" xlink:title="OutputUI.h">
<polygon fill="white" stroke="black" points="412.305,-336.5 412.305,-355.5 480.305,-355.5 480.305,-336.5 412.305,-336.5"/>
<text text-anchor="middle" x="446.305" y="-343.5" font-family="Helvetica Neue" font-size="10.00">OutputUI.h</text>
</a>
</g>
</g>
<!-- Node13&#45;&gt;Node21 -->
<g id="edge24" class="edge"><title>Node13&#45;&gt;Node21</title>
<path fill="none" stroke="midnightblue" d="M415.351,-384.144C423.191,-374.736 432.634,-363.405 439.012,-355.751"/>
<polygon fill="midnightblue" stroke="midnightblue" points="412.448,-382.16 408.735,-392.083 417.826,-386.641 412.448,-382.16"/>
</g>
<!-- Node23 -->
<g id="node23" class="node"><title>Node23</title>
<g id="a_node23"><a xlink:href="_string_u_i_8h.html" target="_top" xlink:title="StringUI.h">
<polygon fill="white" stroke="black" points="498.305,-336.5 498.305,-355.5 562.305,-355.5 562.305,-336.5 498.305,-336.5"/>
<text text-anchor="middle" x="530.305" y="-343.5" font-family="Helvetica Neue" font-size="10.00">StringUI.h</text>
</a>
</g>
</g>
<!-- Node13&#45;&gt;Node23 -->
<g id="edge27" class="edge"><title>Node13&#45;&gt;Node23</title>
<path fill="none" stroke="midnightblue" d="M431.159,-388.503C455.342,-378.38 488.767,-364.388 509.96,-355.516"/>
<polygon fill="midnightblue" stroke="midnightblue" points="429.618,-385.354 421.745,-392.444 432.321,-391.811 429.618,-385.354"/>
</g>
<!-- Node13&#45;&gt;Node25 -->
<g id="edge30" class="edge"><title>Node13&#45;&gt;Node25</title>
<path fill="none" stroke="midnightblue" d="M446.023,-390.024C487.581,-379.823 548.617,-364.841 586.608,-355.516"/>
<polygon fill="midnightblue" stroke="midnightblue" points="445.042,-386.661 436.164,-392.444 446.71,-393.459 445.042,-386.661"/>
</g>
<!-- Node15 -->
<g id="node15" class="node"><title>Node15</title>
<g id="a_node15"><a xlink:href="_gain_processor_8h.html" target="_top" xlink:title="GainProcessor.h">
<polygon fill="white" stroke="black" points="190.305,-280.5 190.305,-299.5 284.305,-299.5 284.305,-280.5 190.305,-280.5"/>
<text text-anchor="middle" x="237.305" y="-287.5" font-family="Helvetica Neue" font-size="10.00">GainProcessor.h</text>
</a>
</g>
</g>
<!-- Node14&#45;&gt;Node15 -->
<g id="edge16" class="edge"><title>Node14&#45;&gt;Node15</title>
<path fill="none" stroke="midnightblue" d="M262.359,-327.566C255.993,-318.275 248.438,-307.248 243.301,-299.751"/>
<polygon fill="midnightblue" stroke="midnightblue" points="259.655,-329.812 268.195,-336.083 265.43,-325.855 259.655,-329.812"/>
</g>
<!-- Node16 -->
<g id="node16" class="node"><title>Node16</title>
<g id="a_node16"><a xlink:href="_modules_8h.html" target="_top" xlink:title="Modules.h">
<polygon fill="white" stroke="black" points="324.805,-224.5 324.805,-243.5 389.805,-243.5 389.805,-224.5 324.805,-224.5"/>
<text text-anchor="middle" x="357.305" y="-231.5" font-family="Helvetica Neue" font-size="10.00">Modules.h</text>
</a>
</g>
</g>
<!-- Node15&#45;&gt;Node16 -->
<g id="edge17" class="edge"><title>Node15&#45;&gt;Node16</title>
<path fill="none" stroke="midnightblue" d="M265.678,-276.232C288.124,-266.131 318.84,-252.309 338.379,-243.516"/>
<polygon fill="midnightblue" stroke="midnightblue" points="264.002,-273.148 256.319,-280.444 266.874,-279.532 264.002,-273.148"/>
</g>
<!-- Node17 -->
<g id="node17" class="node"><title>Node17</title>
<g id="a_node17"><a xlink:href="_module_box_8h.html" target="_top" xlink:title="ModuleBox.h">
<polygon fill="white" stroke="black" points="272.305,-168.5 272.305,-187.5 350.305,-187.5 350.305,-168.5 272.305,-168.5"/>
<text text-anchor="middle" x="311.305" y="-175.5" font-family="Helvetica Neue" font-size="10.00">ModuleBox.h</text>
</a>
</g>
</g>
<!-- Node16&#45;&gt;Node17 -->
<g id="edge18" class="edge"><title>Node16&#45;&gt;Node17</title>
<path fill="none" stroke="midnightblue" d="M343.191,-216.431C335.129,-206.967 325.345,-195.483 318.759,-187.751"/>
<polygon fill="midnightblue" stroke="midnightblue" points="340.56,-218.74 349.709,-224.083 345.888,-214.201 340.56,-218.74"/>
</g>
<!-- Node17&#45;&gt;Node6 -->
<g id="edge19" class="edge"><title>Node17&#45;&gt;Node6</title>
<path fill="none" stroke="midnightblue" d="M277.934,-164.906C249.921,-154.754 210.609,-140.506 185.804,-131.516"/>
<polygon fill="midnightblue" stroke="midnightblue" points="277.101,-168.327 287.695,-168.444 279.486,-161.746 277.101,-168.327"/>
</g>
<!-- Node18 -->
<g id="node18" class="node"><title>Node18</title>
<g id="a_node18"><a xlink:href="_module_box_8cpp.html" target="_top" xlink:title="ModuleBox.cpp">
<polygon fill="white" stroke="black" points="266.805,-112.5 266.805,-131.5 355.805,-131.5 355.805,-112.5 266.805,-112.5"/>
<text text-anchor="middle" x="311.305" y="-119.5" font-family="Helvetica Neue" font-size="10.00">ModuleBox.cpp</text>
</a>
</g>
</g>
<!-- Node17&#45;&gt;Node18 -->
<g id="edge20" class="edge"><title>Node17&#45;&gt;Node18</title>
<path fill="none" stroke="midnightblue" d="M311.305,-157.805C311.305,-148.91 311.305,-138.78 311.305,-131.751"/>
<polygon fill="midnightblue" stroke="midnightblue" points="307.805,-158.083 311.305,-168.083 314.805,-158.083 307.805,-158.083"/>
</g>
<!-- Node20 -->
<g id="node20" class="node"><title>Node20</title>
<g id="a_node20"><a xlink:href="_impulse_processor_8h.html" target="_top" xlink:title="ImpulseProcessor.h">
<polygon fill="white" stroke="black" points="302.305,-280.5 302.305,-299.5 412.305,-299.5 412.305,-280.5 302.305,-280.5"/>
<text text-anchor="middle" x="357.305" y="-287.5" font-family="Helvetica Neue" font-size="10.00">ImpulseProcessor.h</text>
</a>
</g>
</g>
<!-- Node19&#45;&gt;Node20 -->
<g id="edge22" class="edge"><title>Node19&#45;&gt;Node20</title>
<path fill="none" stroke="midnightblue" d="M357.305,-325.805C357.305,-316.91 357.305,-306.78 357.305,-299.751"/>
<polygon fill="midnightblue" stroke="midnightblue" points="353.805,-326.083 357.305,-336.083 360.805,-326.083 353.805,-326.083"/>
</g>
<!-- Node20&#45;&gt;Node16 -->
<g id="edge23" class="edge"><title>Node20&#45;&gt;Node16</title>
<path fill="none" stroke="midnightblue" d="M357.305,-269.805C357.305,-260.91 357.305,-250.78 357.305,-243.751"/>
<polygon fill="midnightblue" stroke="midnightblue" points="353.805,-270.083 357.305,-280.083 360.805,-270.083 353.805,-270.083"/>
</g>
<!-- Node22 -->
<g id="node22" class="node"><title>Node22</title>
<g id="a_node22"><a xlink:href="_output_processor_8h.html" target="_top" xlink:title="OutputProcessor.h">
<polygon fill="white" stroke="black" points="430.805,-280.5 430.805,-299.5 535.805,-299.5 535.805,-280.5 430.805,-280.5"/>
<text text-anchor="middle" x="483.305" y="-287.5" font-family="Helvetica Neue" font-size="10.00">OutputProcessor.h</text>
</a>
</g>
</g>
<!-- Node21&#45;&gt;Node22 -->
<g id="edge25" class="edge"><title>Node21&#45;&gt;Node22</title>
<path fill="none" stroke="midnightblue" d="M458.25,-327.566C464.616,-318.275 472.171,-307.248 477.308,-299.751"/>
<polygon fill="midnightblue" stroke="midnightblue" points="455.179,-325.855 452.414,-336.083 460.954,-329.812 455.179,-325.855"/>
</g>
<!-- Node22&#45;&gt;Node16 -->
<g id="edge26" class="edge"><title>Node22&#45;&gt;Node16</title>
<path fill="none" stroke="midnightblue" d="M454.145,-276.503C430.523,-266.38 397.877,-252.388 377.176,-243.516"/>
<polygon fill="midnightblue" stroke="midnightblue" points="452.769,-279.721 463.339,-280.444 455.527,-273.287 452.769,-279.721"/>
</g>
<!-- Node24 -->
<g id="node24" class="node"><title>Node24</title>
<g id="a_node24"><a xlink:href="_string_processor_8h.html" target="_top" xlink:title="StringProcessor.h">
<polygon fill="white" stroke="black" points="553.805,-280.5 553.805,-299.5 654.805,-299.5 654.805,-280.5 553.805,-280.5"/>
<text text-anchor="middle" x="604.305" y="-287.5" font-family="Helvetica Neue" font-size="10.00">StringProcessor.h</text>
</a>
</g>
</g>
<!-- Node23&#45;&gt;Node24 -->
<g id="edge28" class="edge"><title>Node23&#45;&gt;Node24</title>
<path fill="none" stroke="midnightblue" d="M550.339,-330.38C563.714,-320.62 580.863,-308.106 592.199,-299.834"/>
<polygon fill="midnightblue" stroke="midnightblue" points="548.209,-327.602 542.194,-336.324 552.335,-333.257 548.209,-327.602"/>
</g>
<!-- Node24&#45;&gt;Node16 -->
<g id="edge29" class="edge"><title>Node24&#45;&gt;Node16</title>
<path fill="none" stroke="midnightblue" d="M555.101,-278.243C506.066,-267.523 432.161,-251.365 389.949,-242.137"/>
<polygon fill="midnightblue" stroke="midnightblue" points="554.65,-281.727 565.167,-280.444 556.145,-274.888 554.65,-281.727"/>
</g>
</g>
</svg>
