<?xml version="1.0" encoding="UTF-8" standalone="no"?>
<!DOCTYPE svg PUBLIC "-//W3C//DTD SVG 1.1//EN"
 "http://www.w3.org/Graphics/SVG/1.1/DTD/svg11.dtd">
<!-- Generated by graphviz version 2.43.0 (0)
 -->
<!-- Title: PortUI.cpp Pages: 1 -->
<svg width="444pt" height="357pt"
 viewBox="0.00 0.00 444.47 357.00" xmlns="http://www.w3.org/2000/svg" xmlns:xlink="http://www.w3.org/1999/xlink">
<g id="graph0" class="graph" transform="scale(1 1) rotate(0) translate(4 353)">
<title>PortUI.cpp</title>
<!-- Node1 -->
<g id="Node000001" class="node">
<title>Node1</title>
<g id="a_Node000001"><a xlink:title=" ">
<polygon fill="#999999" stroke="#666666" points="103.47,-349 36.47,-349 36.47,-330 103.47,-330 103.47,-349"/>
<text text-anchor="middle" x="69.97" y="-337" font-family="Helvetica Neue" font-size="10.00">PortUI.cpp</text>
</a>
</g>
</g>
<!-- Node2 -->
<g id="Node000002" class="node">
<title>Node2</title>
<g id="a_Node000002"><a xlink:href="_port_u_i_8h.html" target="_top" xlink:title=" ">
<polygon fill="white" stroke="#666666" points="219.97,-294 163.97,-294 163.97,-275 219.97,-275 219.97,-294"/>
<text text-anchor="middle" x="191.97" y="-282" font-family="Helvetica Neue" font-size="10.00">PortUI.h</text>
</a>
</g>
</g>
<!-- Node1&#45;&gt;Node2 -->
<g id="edge1_Node000001_Node000002" class="edge">
<title>Node1&#45;&gt;Node2</title>
<g id="a_edge1_Node000001_Node000002"><a xlink:title=" ">
<path fill="none" stroke="#63b8ff" d="M89.57,-329.98C109.29,-321.42 139.92,-308.11 162.55,-298.28"/>
<polygon fill="#63b8ff" stroke="#63b8ff" points="164.23,-301.37 172.01,-294.17 161.45,-294.94 164.23,-301.37"/>
</a>
</g>
</g>
<!-- Node6 -->
<g id="Node000006" class="node">
<title>Node6</title>
<g id="a_Node000006"><a xlink:href="_phi_colours_8h.html" target="_top" xlink:title=" ">
<polygon fill="white" stroke="#666666" points="81.47,-129 4.47,-129 4.47,-110 81.47,-110 81.47,-129"/>
<text text-anchor="middle" x="42.97" y="-117" font-family="Helvetica Neue" font-size="10.00">PhiColours.h</text>
</a>
</g>
</g>
<!-- Node1&#45;&gt;Node6 -->
<g id="edge14_Node000001_Node000006" class="edge">
<title>Node1&#45;&gt;Node6</title>
<g id="a_edge14_Node000001_Node000006"><a xlink:title=" ">
<path fill="none" stroke="#63b8ff" d="M64.62,-329.88C50.86,-307.12 14.4,-243.08 1.97,-184 0.23,-175.74 -1.1,-172.87 1.97,-165 6.37,-153.73 15.11,-143.59 23.4,-135.85"/>
<polygon fill="#63b8ff" stroke="#63b8ff" points="25.79,-138.4 31.04,-129.2 21.2,-133.12 25.79,-138.4"/>
</a>
</g>
</g>
<!-- Node3 -->
<g id="Node000003" class="node">
<title>Node3</title>
<g id="a_Node000003"><a xlink:href="_state_8h.html" target="_top" xlink:title=" ">
<polygon fill="white" stroke="#666666" points="221.97,-239 161.97,-239 161.97,-220 221.97,-220 221.97,-239"/>
<text text-anchor="middle" x="191.97" y="-227" font-family="Helvetica Neue" font-size="10.00">../State.h</text>
</a>
</g>
</g>
<!-- Node2&#45;&gt;Node3 -->
<g id="edge2_Node000002_Node000003" class="edge">
<title>Node2&#45;&gt;Node3</title>
<g id="a_edge2_Node000002_Node000003"><a xlink:title=" ">
<path fill="none" stroke="#63b8ff" d="M191.97,-274.75C191.97,-267.8 191.97,-257.85 191.97,-249.13"/>
<polygon fill="#63b8ff" stroke="#63b8ff" points="195.47,-249.09 191.97,-239.09 188.47,-249.09 195.47,-249.09"/>
</a>
</g>
</g>
<!-- Node10 -->
<g id="Node000010" class="node">
<title>Node10</title>
<g id="a_Node000010"><a xlink:href="_hover_popup_8h.html" target="_top" xlink:title=" ">
<polygon fill="white" stroke="#666666" points="436.47,-74 293.47,-74 293.47,-55 436.47,-55 436.47,-74"/>
<text text-anchor="middle" x="364.97" y="-62" font-family="Helvetica Neue" font-size="10.00">component/HoverPopup.h</text>
</a>
</g>
</g>
<!-- Node2&#45;&gt;Node10 -->
<g id="edge12_Node000002_Node000010" class="edge">
<title>Node2&#45;&gt;Node10</title>
<g id="a_edge12_Node000002_Node000010"><a xlink:title=" ">
<path fill="none" stroke="#63b8ff" d="M199.9,-274.77C207.9,-265.9 220.53,-251.69 230.97,-239 277.2,-182.83 329.09,-113.82 352.42,-82.45"/>
<polygon fill="#63b8ff" stroke="#63b8ff" points="355.32,-84.43 358.47,-74.32 349.69,-80.26 355.32,-84.43"/>
</a>
</g>
</g>
<!-- Node4 -->
<g id="Node000004" class="node">
<title>Node4</title>
<g id="a_Node000004"><a xlink:title=" ">
<polygon fill="#e0e0e0" stroke="#999999" points="304.97,-19 224.97,-19 224.97,0 304.97,0 304.97,-19"/>
<text text-anchor="middle" x="264.97" y="-7" font-family="Helvetica Neue" font-size="10.00">JuceHeader.h</text>
</a>
</g>
</g>
<!-- Node3&#45;&gt;Node4 -->
<g id="edge3_Node000003_Node000004" class="edge">
<title>Node3&#45;&gt;Node4</title>
<g id="a_edge3_Node000003_Node000004"><a xlink:title=" ">
<path fill="none" stroke="#63b8ff" d="M199.31,-219.75C206.32,-211.09 216.84,-197.24 223.97,-184 251.67,-132.57 260.81,-62.66 263.7,-29.48"/>
<polygon fill="#63b8ff" stroke="#63b8ff" points="267.2,-29.61 264.49,-19.37 260.23,-29.07 267.2,-29.61"/>
</a>
</g>
</g>
<!-- Node5 -->
<g id="Node000005" class="node">
<title>Node5</title>
<g id="a_Node000005"><a xlink:href="_phi_theme_8h.html" target="_top" xlink:title=" ">
<polygon fill="white" stroke="#666666" points="96.97,-184 10.97,-184 10.97,-165 96.97,-165 96.97,-184"/>
<text text-anchor="middle" x="53.97" y="-172" font-family="Helvetica Neue" font-size="10.00">ui/PhiTheme.h</text>
</a>
</g>
</g>
<!-- Node3&#45;&gt;Node5 -->
<g id="edge4_Node000003_Node000005" class="edge">
<title>Node3&#45;&gt;Node5</title>
<g id="a_edge4_Node000003_Node000005"><a xlink:title=" ">
<path fill="none" stroke="#63b8ff" d="M169.8,-219.98C147.2,-211.3 111.91,-197.75 86.22,-187.88"/>
<polygon fill="#63b8ff" stroke="#63b8ff" points="87.14,-184.49 76.55,-184.17 84.63,-191.02 87.14,-184.49"/>
</a>
</g>
</g>
<!-- Node7 -->
<g id="Node000007" class="node">
<title>Node7</title>
<g id="a_Node000007"><a xlink:href="_module_u_i_8h.html" target="_top" xlink:title=" ">
<polygon fill="white" stroke="#666666" points="198.97,-184 114.97,-184 114.97,-165 198.97,-165 198.97,-184"/>
<text text-anchor="middle" x="156.97" y="-172" font-family="Helvetica Neue" font-size="10.00">ui/ModuleUI.h</text>
</a>
</g>
</g>
<!-- Node3&#45;&gt;Node7 -->
<g id="edge6_Node000003_Node000007" class="edge">
<title>Node3&#45;&gt;Node7</title>
<g id="a_edge6_Node000003_Node000007"><a xlink:title=" ">
<path fill="none" stroke="#63b8ff" d="M186.19,-219.75C181.35,-212.42 174.29,-201.73 168.33,-192.7"/>
<polygon fill="#63b8ff" stroke="#63b8ff" points="171.07,-190.5 162.64,-184.09 165.23,-194.36 171.07,-190.5"/>
</a>
</g>
</g>
<!-- Node8 -->
<g id="Node000008" class="node">
<title>Node8</title>
<g id="a_Node000008"><a xlink:href="_module_processor_8h.html" target="_top" xlink:title=" ">
<polygon fill="white" stroke="#666666" points="236.47,-129 99.47,-129 99.47,-110 236.47,-110 236.47,-129"/>
<text text-anchor="middle" x="167.97" y="-117" font-family="Helvetica Neue" font-size="10.00">../dsp/ModuleProcessor.h</text>
</a>
</g>
</g>
<!-- Node3&#45;&gt;Node8 -->
<g id="edge11_Node000003_Node000008" class="edge">
<title>Node3&#45;&gt;Node8</title>
<g id="a_edge11_Node000003_Node000008"><a xlink:title=" ">
<path fill="none" stroke="#63b8ff" d="M197.54,-219.67C204.65,-207.21 215.21,-183.9 207.97,-165 203.73,-153.94 195.34,-143.91 187.33,-136.18"/>
<polygon fill="#63b8ff" stroke="#63b8ff" points="189.4,-133.33 179.61,-129.27 184.72,-138.55 189.4,-133.33"/>
</a>
</g>
</g>
<!-- Node5&#45;&gt;Node6 -->
<g id="edge5_Node000005_Node000006" class="edge">
<title>Node5&#45;&gt;Node6</title>
<g id="a_edge5_Node000005_Node000006"><a xlink:title=" ">
<path fill="none" stroke="#63b8ff" d="M52.15,-164.75C50.71,-157.8 48.65,-147.85 46.84,-139.13"/>
<polygon fill="#63b8ff" stroke="#63b8ff" points="50.21,-138.17 44.75,-129.09 43.36,-139.59 50.21,-138.17"/>
</a>
</g>
</g>
<!-- Node7&#45;&gt;Node6 -->
<g id="edge7_Node000007_Node000006" class="edge">
<title>Node7&#45;&gt;Node6</title>
<g id="a_edge7_Node000007_Node000006"><a xlink:title=" ">
<path fill="none" stroke="#63b8ff" d="M138.65,-164.98C120.32,-156.46 91.86,-143.23 70.74,-133.41"/>
<polygon fill="#63b8ff" stroke="#63b8ff" points="72.16,-130.21 61.62,-129.17 69.21,-136.56 72.16,-130.21"/>
</a>
</g>
</g>
<!-- Node7&#45;&gt;Node8 -->
<g id="edge8_Node000007_Node000008" class="edge">
<title>Node7&#45;&gt;Node8</title>
<g id="a_edge8_Node000007_Node000008"><a xlink:title=" ">
<path fill="none" stroke="#63b8ff" d="M158.79,-164.75C160.23,-157.8 162.29,-147.85 164.1,-139.13"/>
<polygon fill="#63b8ff" stroke="#63b8ff" points="167.58,-139.59 166.19,-129.09 160.73,-138.17 167.58,-139.59"/>
</a>
</g>
</g>
<!-- Node9 -->
<g id="Node000009" class="node">
<title>Node9</title>
<g id="a_Node000009"><a xlink:href="_utils_8h.html" target="_top" xlink:title=" ">
<polygon fill="white" stroke="#666666" points="214.97,-74 166.97,-74 166.97,-55 214.97,-55 214.97,-74"/>
<text text-anchor="middle" x="190.97" y="-62" font-family="Helvetica Neue" font-size="10.00">Utils.h</text>
</a>
</g>
</g>
<!-- Node8&#45;&gt;Node9 -->
<g id="edge9_Node000008_Node000009" class="edge">
<title>Node8&#45;&gt;Node9</title>
<g id="a_edge9_Node000008_Node000009"><a xlink:title=" ">
<path fill="none" stroke="#63b8ff" d="M171.77,-109.75C174.88,-102.57 179.39,-92.18 183.26,-83.27"/>
<polygon fill="#63b8ff" stroke="#63b8ff" points="186.47,-84.66 187.24,-74.09 180.05,-81.87 186.47,-84.66"/>
</a>
</g>
</g>
<!-- Node9&#45;&gt;Node4 -->
<g id="edge10_Node000009_Node000004" class="edge">
<title>Node9&#45;&gt;Node4</title>
<g id="a_edge10_Node000009_Node000004"><a xlink:title=" ">
<path fill="none" stroke="#63b8ff" d="M202.86,-54.98C214.12,-46.92 231.26,-34.65 244.68,-25.03"/>
<polygon fill="#63b8ff" stroke="#63b8ff" points="246.77,-27.84 252.86,-19.17 242.7,-22.15 246.77,-27.84"/>
</a>
</g>
</g>
<!-- Node10&#45;&gt;Node4 -->
<g id="edge13_Node000010_Node000004" class="edge">
<title>Node10&#45;&gt;Node4</title>
<g id="a_edge13_Node000010_Node000004"><a xlink:title=" ">
<path fill="none" stroke="#63b8ff" d="M348.9,-54.98C333.11,-46.61 308.75,-33.7 290.34,-23.95"/>
<polygon fill="#63b8ff" stroke="#63b8ff" points="291.8,-20.76 281.33,-19.17 288.53,-26.95 291.8,-20.76"/>
</a>
</g>
</g>
</g>
</svg>
