<?xml version="1.0" encoding="UTF-8" standalone="no"?>
<!DOCTYPE svg PUBLIC "-//W3C//DTD SVG 1.1//EN"
 "http://www.w3.org/Graphics/SVG/1.1/DTD/svg11.dtd">
<!-- Generated by graphviz version 2.43.0 (0)
 -->
<!-- Title: PortUI.h Pages: 1 -->
<svg width="361pt" height="302pt"
 viewBox="0.00 0.00 360.95 302.00" xmlns="http://www.w3.org/2000/svg" xmlns:xlink="http://www.w3.org/1999/xlink">
<g id="graph0" class="graph" transform="scale(1 1) rotate(0) translate(4 298)">
<title>PortUI.h</title>
<!-- Node1 -->
<g id="Node000001" class="node">
<title>Node1</title>
<g id="a_Node000001"><a xlink:title=" ">
<polygon fill="#999999" stroke="#666666" points="249.45,-294 193.45,-294 193.45,-275 249.45,-275 249.45,-294"/>
<text text-anchor="middle" x="221.45" y="-282" font-family="Helvetica Neue" font-size="10.00">PortUI.h</text>
</a>
</g>
</g>
<!-- Node2 -->
<g id="Node000002" class="node">
<title>Node2</title>
<g id="a_Node000002"><a xlink:href="_state_8h.html" target="_top" xlink:title=" ">
<polygon fill="white" stroke="#666666" points="194.45,-239 134.45,-239 134.45,-220 194.45,-220 194.45,-239"/>
<text text-anchor="middle" x="164.45" y="-227" font-family="Helvetica Neue" font-size="10.00">../State.h</text>
</a>
</g>
</g>
<!-- Node1&#45;&gt;Node2 -->
<g id="edge1_Node000001_Node000002" class="edge">
<title>Node1&#45;&gt;Node2</title>
<g id="a_edge1_Node000001_Node000002"><a xlink:title=" ">
<path fill="none" stroke="#63b8ff" d="M212.29,-274.98C203.95,-267.23 191.42,-255.58 181.27,-246.14"/>
<polygon fill="#63b8ff" stroke="#63b8ff" points="183.48,-243.42 173.77,-239.17 178.71,-248.54 183.48,-243.42"/>
</a>
</g>
</g>
<!-- Node9 -->
<g id="Node000009" class="node">
<title>Node9</title>
<g id="a_Node000009"><a xlink:href="_hover_popup_8h.html" target="_top" xlink:title=" ">
<polygon fill="white" stroke="#666666" points="352.95,-74 209.95,-74 209.95,-55 352.95,-55 352.95,-74"/>
<text text-anchor="middle" x="281.45" y="-62" font-family="Helvetica Neue" font-size="10.00">component/HoverPopup.h</text>
</a>
</g>
</g>
<!-- Node1&#45;&gt;Node9 -->
<g id="edge11_Node000001_Node000009" class="edge">
<title>Node1&#45;&gt;Node9</title>
<g id="a_edge11_Node000001_Node000009"><a xlink:title=" ">
<path fill="none" stroke="#63b8ff" d="M223.8,-274.95C232.63,-242.88 263.92,-129.2 276.32,-84.12"/>
<polygon fill="#63b8ff" stroke="#63b8ff" points="279.77,-84.79 279.05,-74.22 273.02,-82.94 279.77,-84.79"/>
</a>
</g>
</g>
<!-- Node3 -->
<g id="Node000003" class="node">
<title>Node3</title>
<g id="a_Node000003"><a xlink:title=" ">
<polygon fill="#e0e0e0" stroke="#999999" points="207.45,-19 127.45,-19 127.45,0 207.45,0 207.45,-19"/>
<text text-anchor="middle" x="167.45" y="-7" font-family="Helvetica Neue" font-size="10.00">JuceHeader.h</text>
</a>
</g>
</g>
<!-- Node2&#45;&gt;Node3 -->
<g id="edge2_Node000002_Node000003" class="edge">
<title>Node2&#45;&gt;Node3</title>
<g id="a_edge2_Node000002_Node000003"><a xlink:title=" ">
<path fill="none" stroke="#63b8ff" d="M134.22,-224.17C93.52,-217.64 24.44,-203.9 9.45,-184 1.85,-173.92 -7.58,-143.26 11.45,-110 37.3,-64.82 92.91,-36.98 130.26,-22.62"/>
<polygon fill="#63b8ff" stroke="#63b8ff" points="131.64,-25.84 139.8,-19.09 129.21,-19.28 131.64,-25.84"/>
</a>
</g>
</g>
<!-- Node4 -->
<g id="Node000004" class="node">
<title>Node4</title>
<g id="a_Node000004"><a xlink:href="_phi_theme_8h.html" target="_top" xlink:title=" ">
<polygon fill="white" stroke="#666666" points="104.45,-184 18.45,-184 18.45,-165 104.45,-165 104.45,-184"/>
<text text-anchor="middle" x="61.45" y="-172" font-family="Helvetica Neue" font-size="10.00">ui/PhiTheme.h</text>
</a>
</g>
</g>
<!-- Node2&#45;&gt;Node4 -->
<g id="edge3_Node000002_Node000004" class="edge">
<title>Node2&#45;&gt;Node4</title>
<g id="a_edge3_Node000002_Node000004"><a xlink:title=" ">
<path fill="none" stroke="#63b8ff" d="M147.9,-219.98C131.55,-211.57 106.31,-198.59 87.32,-188.81"/>
<polygon fill="#63b8ff" stroke="#63b8ff" points="88.79,-185.63 78.3,-184.17 85.59,-191.86 88.79,-185.63"/>
</a>
</g>
</g>
<!-- Node6 -->
<g id="Node000006" class="node">
<title>Node6</title>
<g id="a_Node000006"><a xlink:href="_module_u_i_8h.html" target="_top" xlink:title=" ">
<polygon fill="white" stroke="#666666" points="206.45,-184 122.45,-184 122.45,-165 206.45,-165 206.45,-184"/>
<text text-anchor="middle" x="164.45" y="-172" font-family="Helvetica Neue" font-size="10.00">ui/ModuleUI.h</text>
</a>
</g>
</g>
<!-- Node2&#45;&gt;Node6 -->
<g id="edge5_Node000002_Node000006" class="edge">
<title>Node2&#45;&gt;Node6</title>
<g id="a_edge5_Node000002_Node000006"><a xlink:title=" ">
<path fill="none" stroke="#63b8ff" d="M164.45,-219.75C164.45,-212.8 164.45,-202.85 164.45,-194.13"/>
<polygon fill="#63b8ff" stroke="#63b8ff" points="167.95,-194.09 164.45,-184.09 160.95,-194.09 167.95,-194.09"/>
</a>
</g>
</g>
<!-- Node7 -->
<g id="Node000007" class="node">
<title>Node7</title>
<g id="a_Node000007"><a xlink:href="_module_processor_8h.html" target="_top" xlink:title=" ">
<polygon fill="white" stroke="#666666" points="252.95,-129 115.95,-129 115.95,-110 252.95,-110 252.95,-129"/>
<text text-anchor="middle" x="184.45" y="-117" font-family="Helvetica Neue" font-size="10.00">../dsp/ModuleProcessor.h</text>
</a>
</g>
</g>
<!-- Node2&#45;&gt;Node7 -->
<g id="edge10_Node000002_Node000007" class="edge">
<title>Node2&#45;&gt;Node7</title>
<g id="a_edge10_Node000002_Node000007"><a xlink:title=" ">
<path fill="none" stroke="#63b8ff" d="M180.18,-219.88C192.33,-212.23 208.25,-199.83 215.45,-184 222.86,-167.69 211.73,-149.33 200.8,-136.56"/>
<polygon fill="#63b8ff" stroke="#63b8ff" points="203.21,-134.01 193.85,-129.06 198.08,-138.77 203.21,-134.01"/>
</a>
</g>
</g>
<!-- Node5 -->
<g id="Node000005" class="node">
<title>Node5</title>
<g id="a_Node000005"><a xlink:href="_phi_colours_8h.html" target="_top" xlink:title=" ">
<polygon fill="white" stroke="#666666" points="97.95,-129 20.95,-129 20.95,-110 97.95,-110 97.95,-129"/>
<text text-anchor="middle" x="59.45" y="-117" font-family="Helvetica Neue" font-size="10.00">PhiColours.h</text>
</a>
</g>
</g>
<!-- Node4&#45;&gt;Node5 -->
<g id="edge4_Node000004_Node000005" class="edge">
<title>Node4&#45;&gt;Node5</title>
<g id="a_edge4_Node000004_Node000005"><a xlink:title=" ">
<path fill="none" stroke="#63b8ff" d="M61.12,-164.75C60.86,-157.8 60.48,-147.85 60.15,-139.13"/>
<polygon fill="#63b8ff" stroke="#63b8ff" points="63.65,-138.95 59.77,-129.09 56.65,-139.21 63.65,-138.95"/>
</a>
</g>
</g>
<!-- Node6&#45;&gt;Node5 -->
<g id="edge6_Node000006_Node000005" class="edge">
<title>Node6&#45;&gt;Node5</title>
<g id="a_edge6_Node000006_Node000005"><a xlink:title=" ">
<path fill="none" stroke="#63b8ff" d="M147.58,-164.98C130.84,-156.54 104.95,-143.47 85.56,-133.68"/>
<polygon fill="#63b8ff" stroke="#63b8ff" points="87.13,-130.55 76.63,-129.17 83.98,-136.8 87.13,-130.55"/>
</a>
</g>
</g>
<!-- Node6&#45;&gt;Node7 -->
<g id="edge7_Node000006_Node000007" class="edge">
<title>Node6&#45;&gt;Node7</title>
<g id="a_edge7_Node000006_Node000007"><a xlink:title=" ">
<path fill="none" stroke="#63b8ff" d="M167.75,-164.75C170.43,-157.65 174.3,-147.4 177.63,-138.56"/>
<polygon fill="#63b8ff" stroke="#63b8ff" points="180.95,-139.68 181.21,-129.09 174.4,-137.21 180.95,-139.68"/>
</a>
</g>
</g>
<!-- Node8 -->
<g id="Node000008" class="node">
<title>Node8</title>
<g id="a_Node000008"><a xlink:href="_utils_8h.html" target="_top" xlink:title=" ">
<polygon fill="white" stroke="#666666" points="191.45,-74 143.45,-74 143.45,-55 191.45,-55 191.45,-74"/>
<text text-anchor="middle" x="167.45" y="-62" font-family="Helvetica Neue" font-size="10.00">Utils.h</text>
</a>
</g>
</g>
<!-- Node7&#45;&gt;Node8 -->
<g id="edge8_Node000007_Node000008" class="edge">
<title>Node7&#45;&gt;Node8</title>
<g id="a_edge8_Node000007_Node000008"><a xlink:title=" ">
<path fill="none" stroke="#63b8ff" d="M181.64,-109.75C179.39,-102.72 176.15,-92.62 173.33,-83.84"/>
<polygon fill="#63b8ff" stroke="#63b8ff" points="176.59,-82.54 170.2,-74.09 169.92,-84.68 176.59,-82.54"/>
</a>
</g>
</g>
<!-- Node8&#45;&gt;Node3 -->
<g id="edge9_Node000008_Node000003" class="edge">
<title>Node8&#45;&gt;Node3</title>
<g id="a_edge9_Node000008_Node000003"><a xlink:title=" ">
<path fill="none" stroke="#63b8ff" d="M167.45,-54.75C167.45,-47.8 167.45,-37.85 167.45,-29.13"/>
<polygon fill="#63b8ff" stroke="#63b8ff" points="170.95,-29.09 167.45,-19.09 163.95,-29.09 170.95,-29.09"/>
</a>
</g>
</g>
<!-- Node9&#45;&gt;Node3 -->
<g id="edge12_Node000009_Node000003" class="edge">
<title>Node9&#45;&gt;Node3</title>
<g id="a_edge12_Node000009_Node000003"><a xlink:title=" ">
<path fill="none" stroke="#63b8ff" d="M263.13,-54.98C244.79,-46.46 216.34,-33.23 195.22,-23.41"/>
<polygon fill="#63b8ff" stroke="#63b8ff" points="196.64,-20.21 186.1,-19.17 193.69,-26.56 196.64,-20.21"/>
</a>
</g>
</g>
</g>
</svg>
