<?xml version="1.0" encoding="UTF-8" standalone="no"?>
<!DOCTYPE svg PUBLIC "-//W3C//DTD SVG 1.1//EN"
 "http://www.w3.org/Graphics/SVG/1.1/DTD/svg11.dtd">
<!-- Generated by graphviz version 2.43.0 (0)
 -->
<!-- Title: PortUI.h Pages: 1 -->
<svg width="410pt" height="247pt"
 viewBox="0.00 0.00 409.50 247.00" xmlns="http://www.w3.org/2000/svg" xmlns:xlink="http://www.w3.org/1999/xlink">
<g id="graph0" class="graph" transform="scale(1 1) rotate(0) translate(4 243)">
<title>PortUI.h</title>
<!-- Node1 -->
<g id="Node000001" class="node">
<title>Node1</title>
<g id="a_Node000001"><a xlink:title=" ">
<polygon fill="#999999" stroke="#666666" points="206.5,-239 150.5,-239 150.5,-220 206.5,-220 206.5,-239"/>
<text text-anchor="middle" x="178.5" y="-227" font-family="Helvetica Neue" font-size="10.00">PortUI.h</text>
</a>
</g>
</g>
<!-- Node2 -->
<g id="Node000002" class="node">
<title>Node2</title>
<g id="a_Node000002"><a xlink:href="_module_box_8h.html" target="_top" xlink:title=" ">
<polygon fill="white" stroke="#666666" points="172.5,-184 92.5,-184 92.5,-165 172.5,-165 172.5,-184"/>
<text text-anchor="middle" x="132.5" y="-172" font-family="Helvetica Neue" font-size="10.00">ModuleBox.h</text>
</a>
</g>
</g>
<!-- Node1&#45;&gt;Node2 -->
<g id="edge1_Node000001_Node000002" class="edge">
<title>Node1&#45;&gt;Node2</title>
<g id="a_edge1_Node000001_Node000002"><a xlink:title=" ">
<path fill="none" stroke="#63b8ff" d="M164.14,-211.96C156.13,-202.72 146.47,-191.6 139.95,-184.09"/>
<polygon fill="#63b8ff" stroke="#63b8ff" points="161.71,-214.49 170.9,-219.75 166.99,-209.9 161.71,-214.49"/>
</a>
</g>
</g>
<!-- Node10 -->
<g id="Node000010" class="node">
<title>Node10</title>
<g id="a_Node000010"><a xlink:href="_port_u_i_8cpp.html" target="_top" xlink:title=" ">
<polygon fill="white" stroke="#666666" points="258,-184 191,-184 191,-165 258,-165 258,-184"/>
<text text-anchor="middle" x="224.5" y="-172" font-family="Helvetica Neue" font-size="10.00">PortUI.cpp</text>
</a>
</g>
</g>
<!-- Node1&#45;&gt;Node10 -->
<g id="edge11_Node000001_Node000010" class="edge">
<title>Node1&#45;&gt;Node10</title>
<g id="a_edge11_Node000001_Node000010"><a xlink:title=" ">
<path fill="none" stroke="#63b8ff" d="M192.86,-211.96C200.87,-202.72 210.53,-191.6 217.05,-184.09"/>
<polygon fill="#63b8ff" stroke="#63b8ff" points="190.01,-209.9 186.1,-219.75 195.29,-214.49 190.01,-209.9"/>
</a>
</g>
</g>
<!-- Node3 -->
<g id="Node000003" class="node">
<title>Node3</title>
<g id="a_Node000003"><a xlink:href="_module_box_8cpp.html" target="_top" xlink:title=" ">
<polygon fill="white" stroke="#666666" points="131.5,-129 39.5,-129 39.5,-110 131.5,-110 131.5,-129"/>
<text text-anchor="middle" x="85.5" y="-117" font-family="Helvetica Neue" font-size="10.00">ModuleBox.cpp</text>
</a>
</g>
</g>
<!-- Node2&#45;&gt;Node3 -->
<g id="edge2_Node000002_Node000003" class="edge">
<title>Node2&#45;&gt;Node3</title>
<g id="a_edge2_Node000002_Node000003"><a xlink:title=" ">
<path fill="none" stroke="#63b8ff" d="M118.08,-157.24C109.84,-147.95 99.85,-136.68 93.12,-129.09"/>
<polygon fill="#63b8ff" stroke="#63b8ff" points="115.49,-159.59 124.74,-164.75 120.72,-154.94 115.49,-159.59"/>
</a>
</g>
</g>
<!-- Node4 -->
<g id="Node000004" class="node">
<title>Node4</title>
<g id="a_Node000004"><a xlink:href="_patcher_8h.html" target="_top" xlink:title=" ">
<polygon fill="white" stroke="#666666" points="211,-129 150,-129 150,-110 211,-110 211,-129"/>
<text text-anchor="middle" x="180.5" y="-117" font-family="Helvetica Neue" font-size="10.00">Patcher.h</text>
</a>
</g>
</g>
<!-- Node2&#45;&gt;Node4 -->
<g id="edge3_Node000002_Node000004" class="edge">
<title>Node2&#45;&gt;Node4</title>
<g id="a_edge3_Node000002_Node000004"><a xlink:title=" ">
<path fill="none" stroke="#63b8ff" d="M147.23,-157.24C155.64,-147.95 165.85,-136.68 172.72,-129.09"/>
<polygon fill="#63b8ff" stroke="#63b8ff" points="144.54,-154.99 140.43,-164.75 149.73,-159.69 144.54,-154.99"/>
</a>
</g>
</g>
<!-- Node5 -->
<g id="Node000005" class="node">
<title>Node5</title>
<g id="a_Node000005"><a xlink:href="_connections_8cpp.html" target="_top" xlink:title=" ">
<polygon fill="white" stroke="#666666" points="97,-19 0,-19 0,0 97,0 97,-19"/>
<text text-anchor="middle" x="48.5" y="-7" font-family="Helvetica Neue" font-size="10.00">Connections.cpp</text>
</a>
</g>
</g>
<!-- Node4&#45;&gt;Node5 -->
<g id="edge4_Node000004_Node000005" class="edge">
<title>Node4&#45;&gt;Node5</title>
<g id="a_edge4_Node000004_Node000005"><a xlink:title=" ">
<path fill="none" stroke="#63b8ff" d="M158.79,-103.83C146.68,-95.42 131.48,-84.48 118.5,-74 95.53,-55.44 70.25,-31.58 57.27,-19.06"/>
<polygon fill="#63b8ff" stroke="#63b8ff" points="157.13,-106.93 167.36,-109.71 161.1,-101.17 157.13,-106.93"/>
</a>
</g>
</g>
<!-- Node6 -->
<g id="Node000006" class="node">
<title>Node6</title>
<g id="a_Node000006"><a xlink:href="_main_component_8h.html" target="_top" xlink:title=" ">
<polygon fill="white" stroke="#666666" points="233.5,-74 127.5,-74 127.5,-55 233.5,-55 233.5,-74"/>
<text text-anchor="middle" x="180.5" y="-62" font-family="Helvetica Neue" font-size="10.00">MainComponent.h</text>
</a>
</g>
</g>
<!-- Node4&#45;&gt;Node6 -->
<g id="edge5_Node000004_Node000006" class="edge">
<title>Node4&#45;&gt;Node6</title>
<g id="a_edge5_Node000004_Node000006"><a xlink:title=" ">
<path fill="none" stroke="#63b8ff" d="M180.5,-99.66C180.5,-90.93 180.5,-80.99 180.5,-74.09"/>
<polygon fill="#63b8ff" stroke="#63b8ff" points="177,-99.75 180.5,-109.75 184,-99.75 177,-99.75"/>
</a>
</g>
</g>
<!-- Node9 -->
<g id="Node000009" class="node">
<title>Node9</title>
<g id="a_Node000009"><a xlink:href="_patcher_8cpp.html" target="_top" xlink:title=" ">
<polygon fill="white" stroke="#666666" points="401.5,-19 329.5,-19 329.5,0 401.5,0 401.5,-19"/>
<text text-anchor="middle" x="365.5" y="-7" font-family="Helvetica Neue" font-size="10.00">Patcher.cpp</text>
</a>
</g>
</g>
<!-- Node4&#45;&gt;Node9 -->
<g id="edge10_Node000004_Node000009" class="edge">
<title>Node4&#45;&gt;Node9</title>
<g id="a_edge10_Node000004_Node000009"><a xlink:title=" ">
<path fill="none" stroke="#63b8ff" d="M204.36,-104.57C243.22,-81.89 319.02,-37.64 350.86,-19.05"/>
<polygon fill="#63b8ff" stroke="#63b8ff" points="202.2,-101.78 195.33,-109.84 205.73,-107.83 202.2,-101.78"/>
</a>
</g>
</g>
<!-- Node6&#45;&gt;Node5 -->
<g id="edge6_Node000006_Node000005" class="edge">
<title>Node6&#45;&gt;Node5</title>
<g id="a_edge6_Node000006_Node000005"><a xlink:title=" ">
<path fill="none" stroke="#63b8ff" d="M149.77,-51.16C125.33,-41.35 91.76,-27.87 70.09,-19.17"/>
<polygon fill="#63b8ff" stroke="#63b8ff" points="148.71,-54.51 159.29,-54.98 151.32,-48.01 148.71,-54.51"/>
</a>
</g>
</g>
<!-- Node7 -->
<g id="Node000007" class="node">
<title>Node7</title>
<g id="a_Node000007"><a xlink:href="_main_8cpp.html" target="_top" xlink:title=" ">
<polygon fill="white" stroke="#666666" points="176,-19 115,-19 115,0 176,0 176,-19"/>
<text text-anchor="middle" x="145.5" y="-7" font-family="Helvetica Neue" font-size="10.00">Main.cpp</text>
</a>
</g>
</g>
<!-- Node6&#45;&gt;Node7 -->
<g id="edge7_Node000006_Node000007" class="edge">
<title>Node6&#45;&gt;Node7</title>
<g id="a_edge7_Node000006_Node000007"><a xlink:title=" ">
<path fill="none" stroke="#63b8ff" d="M169.2,-46.39C163.18,-37.27 156.03,-26.45 151.17,-19.09"/>
<polygon fill="#63b8ff" stroke="#63b8ff" points="166.29,-48.33 174.72,-54.75 172.13,-44.47 166.29,-48.33"/>
</a>
</g>
</g>
<!-- Node8 -->
<g id="Node000008" class="node">
<title>Node8</title>
<g id="a_Node000008"><a xlink:href="_main_component_8cpp.html" target="_top" xlink:title=" ">
<polygon fill="white" stroke="#666666" points="311,-19 194,-19 194,0 311,0 311,-19"/>
<text text-anchor="middle" x="252.5" y="-7" font-family="Helvetica Neue" font-size="10.00">MainComponent.cpp</text>
</a>
</g>
</g>
<!-- Node6&#45;&gt;Node8 -->
<g id="edge8_Node000006_Node000008" class="edge">
<title>Node6&#45;&gt;Node8</title>
<g id="a_edge8_Node000006_Node000008"><a xlink:title=" ">
<path fill="none" stroke="#63b8ff" d="M200.37,-48.88C213.32,-39.34 229.8,-27.21 240.72,-19.17"/>
<polygon fill="#63b8ff" stroke="#63b8ff" points="198.05,-46.24 192.07,-54.98 202.2,-51.88 198.05,-46.24"/>
</a>
</g>
</g>
<!-- Node6&#45;&gt;Node9 -->
<g id="edge9_Node000006_Node000009" class="edge">
<title>Node6&#45;&gt;Node9</title>
<g id="a_edge9_Node000006_Node000009"><a xlink:title=" ">
<path fill="none" stroke="#63b8ff" d="M220,-52.18C254.6,-42.27 304.13,-28.08 335.54,-19.08"/>
<polygon fill="#63b8ff" stroke="#63b8ff" points="218.87,-48.87 210.22,-54.98 220.8,-55.6 218.87,-48.87"/>
</a>
</g>
</g>
</g>
</svg>
