<?xml version="1.0" encoding="UTF-8" standalone="no"?>
<!DOCTYPE svg PUBLIC "-//W3C//DTD SVG 1.1//EN"
 "http://www.w3.org/Graphics/SVG/1.1/DTD/svg11.dtd">
<!-- Generated by graphviz version 2.43.0 (0)
 -->
<!-- Title: State.h Pages: 1 -->
<svg width="287pt" height="247pt"
 viewBox="0.00 0.00 286.50 247.00" xmlns="http://www.w3.org/2000/svg" xmlns:xlink="http://www.w3.org/1999/xlink">
<g id="graph0" class="graph" transform="scale(1 1) rotate(0) translate(4 243)">
<title>State.h</title>
<!-- Node1 -->
<g id="Node000001" class="node">
<title>Node1</title>
<g id="a_Node000001"><a xlink:title=" ">
<polygon fill="#999999" stroke="#666666" points="161.5,-239 110.5,-239 110.5,-220 161.5,-220 161.5,-239"/>
<text text-anchor="middle" x="136" y="-227" font-family="Helvetica Neue" font-size="10.00">State.h</text>
</a>
</g>
</g>
<!-- Node2 -->
<g id="Node000002" class="node">
<title>Node2</title>
<g id="a_Node000002"><a xlink:title=" ">
<polygon fill="#e0e0e0" stroke="#999999" points="80,-19 0,-19 0,0 80,0 80,-19"/>
<text text-anchor="middle" x="40" y="-7" font-family="Helvetica Neue" font-size="10.00">JuceHeader.h</text>
</a>
</g>
</g>
<!-- Node1&#45;&gt;Node2 -->
<g id="edge1_Node000001_Node000002" class="edge">
<title>Node1&#45;&gt;Node2</title>
<g id="a_edge1_Node000001_Node000002"><a xlink:title=" ">
<path fill="none" stroke="#63b8ff" d="M110.17,-225.32C85.63,-220.78 50.01,-209.88 33,-184 1.32,-135.81 20.9,-62.76 32.81,-28.91"/>
<polygon fill="#63b8ff" stroke="#63b8ff" points="36.15,-29.97 36.34,-19.38 29.59,-27.55 36.15,-29.97"/>
</a>
</g>
</g>
<!-- Node3 -->
<g id="Node000003" class="node">
<title>Node3</title>
<g id="a_Node000003"><a xlink:href="_phi_theme_8h.html" target="_top" xlink:title=" ">
<polygon fill="white" stroke="#666666" points="128,-184 42,-184 42,-165 128,-165 128,-184"/>
<text text-anchor="middle" x="85" y="-172" font-family="Helvetica Neue" font-size="10.00">ui/PhiTheme.h</text>
</a>
</g>
</g>
<!-- Node1&#45;&gt;Node3 -->
<g id="edge2_Node000001_Node000003" class="edge">
<title>Node1&#45;&gt;Node3</title>
<g id="a_edge2_Node000001_Node000003"><a xlink:title=" ">
<path fill="none" stroke="#63b8ff" d="M127.58,-219.75C120.23,-212.11 109.37,-200.82 100.46,-191.56"/>
<polygon fill="#63b8ff" stroke="#63b8ff" points="102.72,-188.87 93.26,-184.09 97.68,-193.72 102.72,-188.87"/>
</a>
</g>
</g>
<!-- Node5 -->
<g id="Node000005" class="node">
<title>Node5</title>
<g id="a_Node000005"><a xlink:href="_module_u_i_8h.html" target="_top" xlink:title=" ">
<polygon fill="white" stroke="#666666" points="230,-184 146,-184 146,-165 230,-165 230,-184"/>
<text text-anchor="middle" x="188" y="-172" font-family="Helvetica Neue" font-size="10.00">ui/ModuleUI.h</text>
</a>
</g>
</g>
<!-- Node1&#45;&gt;Node5 -->
<g id="edge4_Node000001_Node000005" class="edge">
<title>Node1&#45;&gt;Node5</title>
<g id="a_edge4_Node000001_Node000005"><a xlink:title=" ">
<path fill="none" stroke="#63b8ff" d="M144.59,-219.75C152.16,-212.03 163.38,-200.6 172.51,-191.28"/>
<polygon fill="#63b8ff" stroke="#63b8ff" points="175.07,-193.68 179.57,-184.09 170.07,-188.78 175.07,-193.68"/>
</a>
</g>
</g>
<!-- Node6 -->
<g id="Node000006" class="node">
<title>Node6</title>
<g id="a_Node000006"><a xlink:href="_module_processor_8h.html" target="_top" xlink:title=" ">
<polygon fill="white" stroke="#666666" points="278.5,-129 141.5,-129 141.5,-110 278.5,-110 278.5,-129"/>
<text text-anchor="middle" x="210" y="-117" font-family="Helvetica Neue" font-size="10.00">../dsp/ModuleProcessor.h</text>
</a>
</g>
</g>
<!-- Node1&#45;&gt;Node6 -->
<g id="edge9_Node000001_Node000006" class="edge">
<title>Node1&#45;&gt;Node6</title>
<g id="a_edge9_Node000001_Node000006"><a xlink:title=" ">
<path fill="none" stroke="#63b8ff" d="M161.83,-225.32C186.37,-220.78 221.99,-209.88 239,-184 248.92,-168.9 237.46,-149.86 226.15,-136.58"/>
<polygon fill="#63b8ff" stroke="#63b8ff" points="228.66,-134.14 219.32,-129.15 223.51,-138.88 228.66,-134.14"/>
</a>
</g>
</g>
<!-- Node4 -->
<g id="Node000004" class="node">
<title>Node4</title>
<g id="a_Node000004"><a xlink:href="_phi_colours_8h.html" target="_top" xlink:title=" ">
<polygon fill="white" stroke="#666666" points="123.5,-129 46.5,-129 46.5,-110 123.5,-110 123.5,-129"/>
<text text-anchor="middle" x="85" y="-117" font-family="Helvetica Neue" font-size="10.00">PhiColours.h</text>
</a>
</g>
</g>
<!-- Node3&#45;&gt;Node4 -->
<g id="edge3_Node000003_Node000004" class="edge">
<title>Node3&#45;&gt;Node4</title>
<g id="a_edge3_Node000003_Node000004"><a xlink:title=" ">
<path fill="none" stroke="#63b8ff" d="M85,-164.75C85,-157.8 85,-147.85 85,-139.13"/>
<polygon fill="#63b8ff" stroke="#63b8ff" points="88.5,-139.09 85,-129.09 81.5,-139.09 88.5,-139.09"/>
</a>
</g>
</g>
<!-- Node5&#45;&gt;Node4 -->
<g id="edge5_Node000005_Node000004" class="edge">
<title>Node5&#45;&gt;Node4</title>
<g id="a_edge5_Node000005_Node000004"><a xlink:title=" ">
<path fill="none" stroke="#63b8ff" d="M171.45,-164.98C155.11,-156.57 129.87,-143.59 110.87,-133.81"/>
<polygon fill="#63b8ff" stroke="#63b8ff" points="112.34,-130.63 101.85,-129.17 109.14,-136.86 112.34,-130.63"/>
</a>
</g>
</g>
<!-- Node5&#45;&gt;Node6 -->
<g id="edge6_Node000005_Node000006" class="edge">
<title>Node5&#45;&gt;Node6</title>
<g id="a_edge6_Node000005_Node000006"><a xlink:title=" ">
<path fill="none" stroke="#63b8ff" d="M191.63,-164.75C194.58,-157.65 198.83,-147.4 202.51,-138.56"/>
<polygon fill="#63b8ff" stroke="#63b8ff" points="205.83,-139.67 206.43,-129.09 199.37,-136.98 205.83,-139.67"/>
</a>
</g>
</g>
<!-- Node7 -->
<g id="Node000007" class="node">
<title>Node7</title>
<g id="a_Node000007"><a xlink:href="_utils_8h.html" target="_top" xlink:title=" ">
<polygon fill="white" stroke="#666666" points="162,-74 114,-74 114,-55 162,-55 162,-74"/>
<text text-anchor="middle" x="138" y="-62" font-family="Helvetica Neue" font-size="10.00">Utils.h</text>
</a>
</g>
</g>
<!-- Node6&#45;&gt;Node7 -->
<g id="edge7_Node000006_Node000007" class="edge">
<title>Node6&#45;&gt;Node7</title>
<g id="a_edge7_Node000006_Node000007"><a xlink:title=" ">
<path fill="none" stroke="#63b8ff" d="M198.43,-109.98C187.58,-102 171.12,-89.88 158.12,-80.31"/>
<polygon fill="#63b8ff" stroke="#63b8ff" points="159.91,-77.28 149.78,-74.17 155.76,-82.92 159.91,-77.28"/>
</a>
</g>
</g>
<!-- Node7&#45;&gt;Node2 -->
<g id="edge8_Node000007_Node000002" class="edge">
<title>Node7&#45;&gt;Node2</title>
<g id="a_edge8_Node000007_Node000002"><a xlink:title=" ">
<path fill="none" stroke="#63b8ff" d="M122.25,-54.98C106.77,-46.61 82.91,-33.7 64.86,-23.95"/>
<polygon fill="#63b8ff" stroke="#63b8ff" points="66.49,-20.85 56.03,-19.17 63.16,-27.01 66.49,-20.85"/>
</a>
</g>
</g>
</g>
</svg>
