<?xml version="1.0" encoding="UTF-8" standalone="no"?>
<!DOCTYPE svg PUBLIC "-//W3C//DTD SVG 1.1//EN"
 "http://www.w3.org/Graphics/SVG/1.1/DTD/svg11.dtd">
<!-- Generated by graphviz version 2.43.0 (0)
 -->
<!-- Title: State.h Pages: 1 -->
<svg width="588pt" height="302pt"
 viewBox="0.00 0.00 588.00 302.00" xmlns="http://www.w3.org/2000/svg" xmlns:xlink="http://www.w3.org/1999/xlink">
<g id="graph0" class="graph" transform="scale(1 1) rotate(0) translate(4 298)">
<title>State.h</title>
<!-- Node1 -->
<g id="Node000001" class="node">
<title>Node1</title>
<g id="a_Node000001"><a xlink:title=" ">
<polygon fill="#999999" stroke="#666666" points="289.5,-294 238.5,-294 238.5,-275 289.5,-275 289.5,-294"/>
<text text-anchor="middle" x="264" y="-282" font-family="Helvetica Neue" font-size="10.00">State.h</text>
</a>
</g>
</g>
<!-- Node2 -->
<g id="Node000002" class="node">
<title>Node2</title>
<g id="a_Node000002"><a xlink:href="_audio_engine_8h.html" target="_top" xlink:title=" ">
<polygon fill="white" stroke="#666666" points="158,-239 72,-239 72,-220 158,-220 158,-239"/>
<text text-anchor="middle" x="115" y="-227" font-family="Helvetica Neue" font-size="10.00">AudioEngine.h</text>
</a>
</g>
</g>
<!-- Node1&#45;&gt;Node2 -->
<g id="edge1_Node000001_Node000002" class="edge">
<title>Node1&#45;&gt;Node2</title>
<g id="a_edge1_Node000001_Node000002"><a xlink:title=" ">
<path fill="none" stroke="#63b8ff" d="M230.41,-271.55C202.74,-261.71 164.16,-247.98 139.38,-239.17"/>
<polygon fill="#63b8ff" stroke="#63b8ff" points="229.47,-274.93 240.06,-274.98 231.81,-268.34 229.47,-274.93"/>
</a>
</g>
</g>
<!-- Node4 -->
<g id="Node000004" class="node">
<title>Node4</title>
<g id="a_Node000004"><a xlink:href="_main_8cpp.html" target="_top" xlink:title=" ">
<polygon fill="white" stroke="#666666" points="105.5,-19 44.5,-19 44.5,0 105.5,0 105.5,-19"/>
<text text-anchor="middle" x="75" y="-7" font-family="Helvetica Neue" font-size="10.00">Main.cpp</text>
</a>
</g>
</g>
<!-- Node1&#45;&gt;Node4 -->
<g id="edge17_Node000001_Node000004" class="edge">
<title>Node1&#45;&gt;Node4</title>
<g id="a_edge17_Node000001_Node000004"><a xlink:title=" ">
<path fill="none" stroke="#63b8ff" d="M228.2,-284.48C156.05,-284.4 0,-272.97 0,-175.5 0,-175.5 0,-175.5 0,-118.5 0,-74.67 42.19,-35.84 63.28,-19.16"/>
<polygon fill="#63b8ff" stroke="#63b8ff" points="228.23,-287.98 238.21,-284.42 228.18,-280.98 228.23,-287.98"/>
</a>
</g>
</g>
<!-- Node5 -->
<g id="Node000005" class="node">
<title>Node5</title>
<g id="a_Node000005"><a xlink:href="_connections_8h.html" target="_top" xlink:title=" ">
<polygon fill="white" stroke="#666666" points="566,-184 480,-184 480,-165 566,-165 566,-184"/>
<text text-anchor="middle" x="523" y="-172" font-family="Helvetica Neue" font-size="10.00">Connections.h</text>
</a>
</g>
</g>
<!-- Node1&#45;&gt;Node5 -->
<g id="edge4_Node000001_Node000005" class="edge">
<title>Node1&#45;&gt;Node5</title>
<g id="a_edge4_Node000001_Node000005"><a xlink:title=" ">
<path fill="none" stroke="#63b8ff" d="M299.85,-282.18C342.2,-279.2 413.53,-269.61 466,-239 489.8,-225.12 509.11,-197.89 517.88,-184.03"/>
<polygon fill="#63b8ff" stroke="#63b8ff" points="299.5,-278.69 289.73,-282.8 299.93,-285.68 299.5,-278.69"/>
</a>
</g>
</g>
<!-- Node7 -->
<g id="Node000007" class="node">
<title>Node7</title>
<g id="a_Node000007"><a xlink:href="_patcher_8h.html" target="_top" xlink:title=" ">
<polygon fill="white" stroke="#666666" points="452.5,-129 391.5,-129 391.5,-110 452.5,-110 452.5,-129"/>
<text text-anchor="middle" x="422" y="-117" font-family="Helvetica Neue" font-size="10.00">Patcher.h</text>
</a>
</g>
</g>
<!-- Node1&#45;&gt;Node7 -->
<g id="edge19_Node000001_Node000007" class="edge">
<title>Node1&#45;&gt;Node7</title>
<g id="a_edge19_Node000001_Node000007"><a xlink:title=" ">
<path fill="none" stroke="#63b8ff" d="M299.28,-274.18C339.81,-261.37 404.41,-234 433,-184 443,-166.52 433.5,-142.23 426.98,-129.34"/>
<polygon fill="#63b8ff" stroke="#63b8ff" points="298.08,-270.89 289.53,-277.13 300.11,-277.59 298.08,-270.89"/>
</a>
</g>
</g>
<!-- Node8 -->
<g id="Node000008" class="node">
<title>Node8</title>
<g id="a_Node000008"><a xlink:href="_main_component_8h.html" target="_top" xlink:title=" ">
<polygon fill="white" stroke="#666666" points="283,-74 177,-74 177,-55 283,-55 283,-74"/>
<text text-anchor="middle" x="230" y="-62" font-family="Helvetica Neue" font-size="10.00">MainComponent.h</text>
</a>
</g>
</g>
<!-- Node1&#45;&gt;Node8 -->
<g id="edge18_Node000001_Node000008" class="edge">
<title>Node1&#45;&gt;Node8</title>
<g id="a_edge18_Node000001_Node000008"><a xlink:title=" ">
<path fill="none" stroke="#63b8ff" d="M261.09,-264.85C254.07,-219.82 236.4,-106.53 231.36,-74.22"/>
<polygon fill="#63b8ff" stroke="#63b8ff" points="257.67,-265.61 262.67,-274.95 264.58,-264.53 257.67,-265.61"/>
</a>
</g>
</g>
<!-- Node11 -->
<g id="Node000011" class="node">
<title>Node11</title>
<g id="a_Node000011"><a xlink:href="_file_manager_8h.html" target="_top" xlink:title=" ">
<polygon fill="white" stroke="#666666" points="201.5,-129 116.5,-129 116.5,-110 201.5,-110 201.5,-129"/>
<text text-anchor="middle" x="159" y="-117" font-family="Helvetica Neue" font-size="10.00">FileManager.h</text>
</a>
</g>
</g>
<!-- Node1&#45;&gt;Node11 -->
<g id="edge14_Node000001_Node000011" class="edge">
<title>Node1&#45;&gt;Node11</title>
<g id="a_edge14_Node000001_Node000011"><a xlink:title=" ">
<path fill="none" stroke="#63b8ff" d="M244.76,-268.59C235.27,-260.55 224.14,-250.03 216,-239 188.62,-201.9 168.96,-149.57 161.88,-129.14"/>
<polygon fill="#63b8ff" stroke="#63b8ff" points="242.61,-271.35 252.57,-274.96 247.04,-265.93 242.61,-271.35"/>
</a>
</g>
</g>
<!-- Node12 -->
<g id="Node000012" class="node">
<title>Node12</title>
<g id="a_Node000012"><a xlink:href="_port_u_i_8h.html" target="_top" xlink:title=" ">
<polygon fill="white" stroke="#666666" points="326,-239 270,-239 270,-220 326,-220 326,-239"/>
<text text-anchor="middle" x="298" y="-227" font-family="Helvetica Neue" font-size="10.00">PortUI.h</text>
</a>
</g>
</g>
<!-- Node1&#45;&gt;Node12 -->
<g id="edge20_Node000001_Node000012" class="edge">
<title>Node1&#45;&gt;Node12</title>
<g id="a_edge20_Node000001_Node000012"><a xlink:title=" ">
<path fill="none" stroke="#63b8ff" d="M275.16,-266.1C280.97,-257.04 287.82,-246.37 292.49,-239.09"/>
<polygon fill="#63b8ff" stroke="#63b8ff" points="272.07,-264.44 269.61,-274.75 277.96,-268.22 272.07,-264.44"/>
</a>
</g>
</g>
<!-- Node16 -->
<g id="Node000016" class="node">
<title>Node16</title>
<g id="a_Node000016"><a xlink:href="_state_8cpp.html" target="_top" xlink:title=" ">
<polygon fill="white" stroke="#666666" points="580,-239 518,-239 518,-220 580,-220 580,-239"/>
<text text-anchor="middle" x="549" y="-227" font-family="Helvetica Neue" font-size="10.00">State.cpp</text>
</a>
</g>
</g>
<!-- Node1&#45;&gt;Node16 -->
<g id="edge25_Node000001_Node000016" class="edge">
<title>Node1&#45;&gt;Node16</title>
<g id="a_edge25_Node000001_Node000016"><a xlink:title=" ">
<path fill="none" stroke="#63b8ff" d="M299.53,-276.95C346.39,-268.3 431.39,-252.59 504,-239 508.38,-238.18 512.99,-237.31 517.53,-236.46"/>
<polygon fill="#63b8ff" stroke="#63b8ff" points="298.78,-273.53 289.58,-278.79 300.05,-280.41 298.78,-273.53"/>
</a>
</g>
</g>
<!-- Node3 -->
<g id="Node000003" class="node">
<title>Node3</title>
<g id="a_Node000003"><a xlink:href="_audio_engine_8cpp.html" target="_top" xlink:title=" ">
<polygon fill="white" stroke="#666666" points="164,-184 66,-184 66,-165 164,-165 164,-184"/>
<text text-anchor="middle" x="115" y="-172" font-family="Helvetica Neue" font-size="10.00">AudioEngine.cpp</text>
</a>
</g>
</g>
<!-- Node2&#45;&gt;Node3 -->
<g id="edge2_Node000002_Node000003" class="edge">
<title>Node2&#45;&gt;Node3</title>
<g id="a_edge2_Node000002_Node000003"><a xlink:title=" ">
<path fill="none" stroke="#63b8ff" d="M115,-209.66C115,-200.93 115,-190.99 115,-184.09"/>
<polygon fill="#63b8ff" stroke="#63b8ff" points="111.5,-209.75 115,-219.75 118.5,-209.75 111.5,-209.75"/>
</a>
</g>
</g>
<!-- Node2&#45;&gt;Node4 -->
<g id="edge3_Node000002_Node000004" class="edge">
<title>Node2&#45;&gt;Node4</title>
<g id="a_edge3_Node000002_Node000004"><a xlink:title=" ">
<path fill="none" stroke="#63b8ff" d="M87.64,-214.89C75.93,-207.5 63.49,-197.15 57,-184 28.6,-126.42 59.58,-45.22 71.07,-19.01"/>
<polygon fill="#63b8ff" stroke="#63b8ff" points="85.93,-217.95 96.33,-219.97 89.46,-211.9 85.93,-217.95"/>
</a>
</g>
</g>
<!-- Node6 -->
<g id="Node000006" class="node">
<title>Node6</title>
<g id="a_Node000006"><a xlink:href="_connections_8cpp.html" target="_top" xlink:title=" ">
<polygon fill="white" stroke="#666666" points="482.5,-19 385.5,-19 385.5,0 482.5,0 482.5,-19"/>
<text text-anchor="middle" x="434" y="-7" font-family="Helvetica Neue" font-size="10.00">Connections.cpp</text>
</a>
</g>
</g>
<!-- Node5&#45;&gt;Node6 -->
<g id="edge5_Node000005_Node000006" class="edge">
<title>Node5&#45;&gt;Node6</title>
<g id="a_edge5_Node000005_Node000006"><a xlink:title=" ">
<path fill="none" stroke="#63b8ff" d="M513.3,-155.73C494.32,-120.97 452.9,-45.12 438.81,-19.31"/>
<polygon fill="#63b8ff" stroke="#63b8ff" points="510.35,-157.64 518.21,-164.74 516.49,-154.28 510.35,-157.64"/>
</a>
</g>
</g>
<!-- Node5&#45;&gt;Node7 -->
<g id="edge6_Node000005_Node000007" class="edge">
<title>Node5&#45;&gt;Node7</title>
<g id="a_edge6_Node000005_Node000007"><a xlink:title=" ">
<path fill="none" stroke="#63b8ff" d="M497.72,-160.23C479.2,-150.51 454.58,-137.6 438.52,-129.17"/>
<polygon fill="#63b8ff" stroke="#63b8ff" points="496.29,-163.44 506.77,-164.98 499.54,-157.24 496.29,-163.44"/>
</a>
</g>
</g>
<!-- Node7&#45;&gt;Node6 -->
<g id="edge7_Node000007_Node000006" class="edge">
<title>Node7&#45;&gt;Node6</title>
<g id="a_edge7_Node000007_Node000006"><a xlink:title=" ">
<path fill="none" stroke="#63b8ff" d="M424.11,-99.48C426.74,-75.84 431.11,-36.5 433.04,-19.16"/>
<polygon fill="#63b8ff" stroke="#63b8ff" points="420.61,-99.34 422.98,-109.66 427.57,-100.11 420.61,-99.34"/>
</a>
</g>
</g>
<!-- Node7&#45;&gt;Node8 -->
<g id="edge8_Node000007_Node000008" class="edge">
<title>Node7&#45;&gt;Node8</title>
<g id="a_edge8_Node000007_Node000008"><a xlink:title=" ">
<path fill="none" stroke="#63b8ff" d="M381.47,-107.31C345.54,-97.39 293.84,-83.12 261.09,-74.08"/>
<polygon fill="#63b8ff" stroke="#63b8ff" points="380.58,-110.7 391.15,-109.98 382.44,-103.95 380.58,-110.7"/>
</a>
</g>
</g>
<!-- Node10 -->
<g id="Node000010" class="node">
<title>Node10</title>
<g id="a_Node000010"><a xlink:href="_patcher_8cpp.html" target="_top" xlink:title=" ">
<polygon fill="white" stroke="#666666" points="367,-19 295,-19 295,0 367,0 367,-19"/>
<text text-anchor="middle" x="331" y="-7" font-family="Helvetica Neue" font-size="10.00">Patcher.cpp</text>
</a>
</g>
</g>
<!-- Node7&#45;&gt;Node10 -->
<g id="edge13_Node000007_Node000010" class="edge">
<title>Node7&#45;&gt;Node10</title>
<g id="a_edge13_Node000007_Node000010"><a xlink:title=" ">
<path fill="none" stroke="#63b8ff" d="M408.1,-102C388.49,-78.73 353.44,-37.13 338.3,-19.16"/>
<polygon fill="#63b8ff" stroke="#63b8ff" points="405.43,-104.27 414.55,-109.66 410.79,-99.76 405.43,-104.27"/>
</a>
</g>
</g>
<!-- Node8&#45;&gt;Node4 -->
<g id="edge10_Node000008_Node000004" class="edge">
<title>Node8&#45;&gt;Node4</title>
<g id="a_edge10_Node000008_Node000004"><a xlink:title=" ">
<path fill="none" stroke="#63b8ff" d="M195.4,-51.67C166.5,-41.79 125.97,-27.93 100.1,-19.08"/>
<polygon fill="#63b8ff" stroke="#63b8ff" points="194.5,-55.06 205.1,-54.98 196.77,-48.44 194.5,-55.06"/>
</a>
</g>
</g>
<!-- Node8&#45;&gt;Node6 -->
<g id="edge9_Node000008_Node000006" class="edge">
<title>Node8&#45;&gt;Node6</title>
<g id="a_edge9_Node000008_Node000006"><a xlink:title=" ">
<path fill="none" stroke="#63b8ff" d="M272.58,-52.44C310.77,-42.52 366.02,-28.16 400.97,-19.08"/>
<polygon fill="#63b8ff" stroke="#63b8ff" points="271.57,-49.08 262.78,-54.98 273.33,-55.86 271.57,-49.08"/>
</a>
</g>
</g>
<!-- Node9 -->
<g id="Node000009" class="node">
<title>Node9</title>
<g id="a_Node000009"><a xlink:href="_main_component_8cpp.html" target="_top" xlink:title=" ">
<polygon fill="white" stroke="#666666" points="276.5,-19 159.5,-19 159.5,0 276.5,0 276.5,-19"/>
<text text-anchor="middle" x="218" y="-7" font-family="Helvetica Neue" font-size="10.00">MainComponent.cpp</text>
</a>
</g>
</g>
<!-- Node8&#45;&gt;Node9 -->
<g id="edge11_Node000008_Node000009" class="edge">
<title>Node8&#45;&gt;Node9</title>
<g id="a_edge11_Node000008_Node000009"><a xlink:title=" ">
<path fill="none" stroke="#63b8ff" d="M225.8,-44.95C223.81,-36.15 221.52,-26.06 219.94,-19.09"/>
<polygon fill="#63b8ff" stroke="#63b8ff" points="222.4,-45.77 228.02,-54.75 229.22,-44.22 222.4,-45.77"/>
</a>
</g>
</g>
<!-- Node8&#45;&gt;Node10 -->
<g id="edge12_Node000008_Node000010" class="edge">
<title>Node8&#45;&gt;Node10</title>
<g id="a_edge12_Node000008_Node000010"><a xlink:title=" ">
<path fill="none" stroke="#63b8ff" d="M255.28,-50.23C273.8,-40.51 298.42,-27.6 314.48,-19.17"/>
<polygon fill="#63b8ff" stroke="#63b8ff" points="253.46,-47.24 246.23,-54.98 256.71,-53.44 253.46,-47.24"/>
</a>
</g>
</g>
<!-- Node11&#45;&gt;Node4 -->
<g id="edge15_Node000011_Node000004" class="edge">
<title>Node11&#45;&gt;Node4</title>
<g id="a_edge15_Node000011_Node000004"><a xlink:title=" ">
<path fill="none" stroke="#63b8ff" d="M145.93,-101.69C127.79,-78.37 95.65,-37.05 81.73,-19.16"/>
<polygon fill="#63b8ff" stroke="#63b8ff" points="143.22,-103.92 152.13,-109.66 148.75,-99.62 143.22,-103.92"/>
</a>
</g>
</g>
<!-- Node11&#45;&gt;Node8 -->
<g id="edge16_Node000011_Node000008" class="edge">
<title>Node11&#45;&gt;Node8</title>
<g id="a_edge16_Node000011_Node000008"><a xlink:title=" ">
<path fill="none" stroke="#63b8ff" d="M178.59,-103.88C191.37,-94.34 207.61,-82.21 218.39,-74.17"/>
<polygon fill="#63b8ff" stroke="#63b8ff" points="176.33,-101.2 170.41,-109.98 180.51,-106.81 176.33,-101.2"/>
</a>
</g>
</g>
<!-- Node13 -->
<g id="Node000013" class="node">
<title>Node13</title>
<g id="a_Node000013"><a xlink:href="_module_box_8h.html" target="_top" xlink:title=" ">
<polygon fill="white" stroke="#666666" points="338,-184 258,-184 258,-165 338,-165 338,-184"/>
<text text-anchor="middle" x="298" y="-172" font-family="Helvetica Neue" font-size="10.00">ModuleBox.h</text>
</a>
</g>
</g>
<!-- Node12&#45;&gt;Node13 -->
<g id="edge21_Node000012_Node000013" class="edge">
<title>Node12&#45;&gt;Node13</title>
<g id="a_edge21_Node000012_Node000013"><a xlink:title=" ">
<path fill="none" stroke="#63b8ff" d="M298,-209.66C298,-200.93 298,-190.99 298,-184.09"/>
<polygon fill="#63b8ff" stroke="#63b8ff" points="294.5,-209.75 298,-219.75 301.5,-209.75 294.5,-209.75"/>
</a>
</g>
</g>
<!-- Node15 -->
<g id="Node000015" class="node">
<title>Node15</title>
<g id="a_Node000015"><a xlink:href="_port_u_i_8cpp.html" target="_top" xlink:title=" ">
<polygon fill="white" stroke="#666666" points="423.5,-184 356.5,-184 356.5,-165 423.5,-165 423.5,-184"/>
<text text-anchor="middle" x="390" y="-172" font-family="Helvetica Neue" font-size="10.00">PortUI.cpp</text>
</a>
</g>
</g>
<!-- Node12&#45;&gt;Node15 -->
<g id="edge24_Node000012_Node000015" class="edge">
<title>Node12&#45;&gt;Node15</title>
<g id="a_edge24_Node000012_Node000015"><a xlink:title=" ">
<path fill="none" stroke="#63b8ff" d="M321.49,-214.97C338.31,-205.28 360.45,-192.52 374.95,-184.17"/>
<polygon fill="#63b8ff" stroke="#63b8ff" points="319.7,-211.96 312.78,-219.98 323.19,-218.03 319.7,-211.96"/>
</a>
</g>
</g>
<!-- Node13&#45;&gt;Node7 -->
<g id="edge23_Node000013_Node000007" class="edge">
<title>Node13&#45;&gt;Node7</title>
<g id="a_edge23_Node000013_Node000007"><a xlink:title=" ">
<path fill="none" stroke="#63b8ff" d="M327.18,-161.03C350.11,-151.23 381.45,-137.83 401.71,-129.17"/>
<polygon fill="#63b8ff" stroke="#63b8ff" points="325.74,-157.84 317.92,-164.98 328.49,-164.27 325.74,-157.84"/>
</a>
</g>
</g>
<!-- Node14 -->
<g id="Node000014" class="node">
<title>Node14</title>
<g id="a_Node000014"><a xlink:href="_module_box_8cpp.html" target="_top" xlink:title=" ">
<polygon fill="white" stroke="#666666" points="350,-129 258,-129 258,-110 350,-110 350,-129"/>
<text text-anchor="middle" x="304" y="-117" font-family="Helvetica Neue" font-size="10.00">ModuleBox.cpp</text>
</a>
</g>
</g>
<!-- Node13&#45;&gt;Node14 -->
<g id="edge22_Node000013_Node000014" class="edge">
<title>Node13&#45;&gt;Node14</title>
<g id="a_edge22_Node000013_Node000014"><a xlink:title=" ">
<path fill="none" stroke="#63b8ff" d="M300.13,-154.66C301.12,-145.93 302.25,-135.99 303.03,-129.09"/>
<polygon fill="#63b8ff" stroke="#63b8ff" points="296.64,-154.42 298.99,-164.75 303.59,-155.21 296.64,-154.42"/>
</a>
</g>
</g>
</g>
</svg>
