<?xml version="1.0" encoding="UTF-8" standalone="no"?>
<!DOCTYPE svg PUBLIC "-//W3C//DTD SVG 1.1//EN"
 "http://www.w3.org/Graphics/SVG/1.1/DTD/svg11.dtd">
<!-- Generated by graphviz version 2.43.0 (0)
 -->
<!-- Title: State.cpp Pages: 1 -->
<svg width="1211pt" height="423pt"
 viewBox="0.00 0.00 1210.50 423.00" xmlns="http://www.w3.org/2000/svg" xmlns:xlink="http://www.w3.org/1999/xlink">
<g id="graph0" class="graph" transform="scale(1 1) rotate(0) translate(4 419)">
<title>State.cpp</title>
<!-- Node1 -->
<g id="Node000001" class="node">
<title>Node1</title>
<g id="a_Node000001"><a xlink:title=" ">
<polygon fill="#999999" stroke="#666666" points="291.5,-415 229.5,-415 229.5,-396 291.5,-396 291.5,-415"/>
<text text-anchor="middle" x="260.5" y="-403" font-family="Helvetica Neue" font-size="10.00">State.cpp</text>
</a>
</g>
</g>
<!-- Node2 -->
<g id="Node000002" class="node">
<title>Node2</title>
<g id="a_Node000002"><a xlink:href="_state_8h.html" target="_top" xlink:title=" ">
<polygon fill="white" stroke="#666666" points="51,-250 0,-250 0,-231 51,-231 51,-250"/>
<text text-anchor="middle" x="25.5" y="-238" font-family="Helvetica Neue" font-size="10.00">State.h</text>
</a>
</g>
</g>
<!-- Node1&#45;&gt;Node2 -->
<g id="edge1_Node000001_Node000002" class="edge">
<title>Node1&#45;&gt;Node2</title>
<g id="a_edge1_Node000001_Node000002"><a xlink:title=" ">
<path fill="none" stroke="#63b8ff" d="M229.47,-402.01C176.55,-395.89 70.07,-375.05 23.5,-305 14.73,-291.81 16.43,-273.43 19.61,-259.84"/>
<polygon fill="#63b8ff" stroke="#63b8ff" points="23,-260.73 22.31,-250.16 16.25,-258.85 23,-260.73"/>
</a>
</g>
</g>
<!-- Node9 -->
<g id="Node000009" class="node">
<title>Node9</title>
<g id="a_Node000009"><a xlink:href="_modules_8h.html" target="_top" xlink:title=" ">
<polygon fill="white" stroke="#666666" points="572.5,-360 460.5,-360 460.5,-341 572.5,-341 572.5,-360"/>
<text text-anchor="middle" x="516.5" y="-348" font-family="Helvetica Neue" font-size="10.00">modules/Modules.h</text>
</a>
</g>
</g>
<!-- Node1&#45;&gt;Node9 -->
<g id="edge11_Node000001_Node000009" class="edge">
<title>Node1&#45;&gt;Node9</title>
<g id="a_edge11_Node000001_Node000009"><a xlink:title=" ">
<path fill="none" stroke="#63b8ff" d="M291.63,-398.05C334.73,-389.13 413.12,-372.9 465,-362.16"/>
<polygon fill="#63b8ff" stroke="#63b8ff" points="465.93,-365.54 475.01,-360.09 464.51,-358.69 465.93,-365.54"/>
</a>
</g>
</g>
<!-- Node3 -->
<g id="Node000003" class="node">
<title>Node3</title>
<g id="a_Node000003"><a xlink:title=" ">
<polygon fill="#e0e0e0" stroke="#999999" points="667.5,-19 587.5,-19 587.5,0 667.5,0 667.5,-19"/>
<text text-anchor="middle" x="627.5" y="-7" font-family="Helvetica Neue" font-size="10.00">JuceHeader.h</text>
</a>
</g>
</g>
<!-- Node2&#45;&gt;Node3 -->
<g id="edge2_Node000002_Node000003" class="edge">
<title>Node2&#45;&gt;Node3</title>
<g id="a_edge2_Node000002_Node000003"><a xlink:title=" ">
<path fill="none" stroke="#63b8ff" d="M34.7,-230.91C51.5,-215.63 88.82,-183.61 125.5,-165 281.09,-86.08 484.51,-38.82 577.36,-19.99"/>
<polygon fill="#63b8ff" stroke="#63b8ff" points="578.21,-23.39 587.33,-17.99 576.84,-16.52 578.21,-23.39"/>
</a>
</g>
</g>
<!-- Node4 -->
<g id="Node000004" class="node">
<title>Node4</title>
<g id="a_Node000004"><a xlink:href="_phi_theme_8h.html" target="_top" xlink:title=" ">
<polygon fill="white" stroke="#666666" points="220.5,-189.5 134.5,-189.5 134.5,-170.5 220.5,-170.5 220.5,-189.5"/>
<text text-anchor="middle" x="177.5" y="-177.5" font-family="Helvetica Neue" font-size="10.00">ui/PhiTheme.h</text>
</a>
</g>
</g>
<!-- Node2&#45;&gt;Node4 -->
<g id="edge3_Node000002_Node000004" class="edge">
<title>Node2&#45;&gt;Node4</title>
<g id="a_edge3_Node000002_Node000004"><a xlink:title=" ">
<path fill="none" stroke="#63b8ff" d="M47.6,-230.99C73.49,-221.03 116.58,-204.45 145.97,-193.13"/>
<polygon fill="#63b8ff" stroke="#63b8ff" points="147.3,-196.38 155.37,-189.52 144.78,-189.84 147.3,-196.38"/>
</a>
</g>
</g>
<!-- Node6 -->
<g id="Node000006" class="node">
<title>Node6</title>
<g id="a_Node000006"><a xlink:href="_module_u_i_8h.html" target="_top" xlink:title=" ">
<polygon fill="white" stroke="#666666" points="408.5,-189.5 324.5,-189.5 324.5,-170.5 408.5,-170.5 408.5,-189.5"/>
<text text-anchor="middle" x="366.5" y="-177.5" font-family="Helvetica Neue" font-size="10.00">ui/ModuleUI.h</text>
</a>
</g>
</g>
<!-- Node2&#45;&gt;Node6 -->
<g id="edge5_Node000002_Node000006" class="edge">
<title>Node2&#45;&gt;Node6</title>
<g id="a_edge5_Node000002_Node000006"><a xlink:title=" ">
<path fill="none" stroke="#63b8ff" d="M51.06,-232.84C53.9,-232.18 56.76,-231.55 59.5,-231 163.09,-210.16 190.4,-213.09 294.5,-195 300.84,-193.9 307.48,-192.69 314.06,-191.45"/>
<polygon fill="#63b8ff" stroke="#63b8ff" points="315.12,-194.81 324.29,-189.5 313.81,-187.93 315.12,-194.81"/>
</a>
</g>
</g>
<!-- Node7 -->
<g id="Node000007" class="node">
<title>Node7</title>
<g id="a_Node000007"><a xlink:href="_module_processor_8h.html" target="_top" xlink:title=" ">
<polygon fill="white" stroke="#666666" points="961,-129 824,-129 824,-110 961,-110 961,-129"/>
<text text-anchor="middle" x="892.5" y="-117" font-family="Helvetica Neue" font-size="10.00">../dsp/ModuleProcessor.h</text>
</a>
</g>
</g>
<!-- Node2&#45;&gt;Node7 -->
<g id="edge10_Node000002_Node000007" class="edge">
<title>Node2&#45;&gt;Node7</title>
<g id="a_edge10_Node000002_Node000007"><a xlink:title=" ">
<path fill="none" stroke="#63b8ff" d="M51.1,-233C53.93,-232.31 56.77,-231.63 59.5,-231 134.75,-213.63 155.11,-215.76 229.5,-195 268.49,-184.12 275.88,-173.29 315.5,-165 490.73,-128.33 701.57,-121.15 813.55,-120.17"/>
<polygon fill="#63b8ff" stroke="#63b8ff" points="813.77,-123.67 823.74,-120.1 813.72,-116.67 813.77,-123.67"/>
</a>
</g>
</g>
<!-- Node5 -->
<g id="Node000005" class="node">
<title>Node5</title>
<g id="a_Node000005"><a xlink:href="_phi_colours_8h.html" target="_top" xlink:title=" ">
<polygon fill="white" stroke="#666666" points="405,-129 328,-129 328,-110 405,-110 405,-129"/>
<text text-anchor="middle" x="366.5" y="-117" font-family="Helvetica Neue" font-size="10.00">PhiColours.h</text>
</a>
</g>
</g>
<!-- Node4&#45;&gt;Node5 -->
<g id="edge4_Node000004_Node000005" class="edge">
<title>Node4&#45;&gt;Node5</title>
<g id="a_edge4_Node000004_Node000005"><a xlink:title=" ">
<path fill="none" stroke="#63b8ff" d="M204.98,-170.49C237.74,-160.36 292.62,-143.37 329.19,-132.05"/>
<polygon fill="#63b8ff" stroke="#63b8ff" points="330.47,-135.32 338.98,-129.02 328.4,-128.63 330.47,-135.32"/>
</a>
</g>
</g>
<!-- Node6&#45;&gt;Node5 -->
<g id="edge6_Node000006_Node000005" class="edge">
<title>Node6&#45;&gt;Node5</title>
<g id="a_edge6_Node000006_Node000005"><a xlink:title=" ">
<path fill="none" stroke="#63b8ff" d="M366.5,-170.37C366.5,-162.25 366.5,-149.81 366.5,-139.39"/>
<polygon fill="#63b8ff" stroke="#63b8ff" points="370,-139.17 366.5,-129.17 363,-139.17 370,-139.17"/>
</a>
</g>
</g>
<!-- Node6&#45;&gt;Node7 -->
<g id="edge7_Node000006_Node000007" class="edge">
<title>Node6&#45;&gt;Node7</title>
<g id="a_edge7_Node000006_Node000007"><a xlink:title=" ">
<path fill="none" stroke="#63b8ff" d="M394.64,-170.49C402.32,-168.43 410.68,-166.41 418.5,-165 556.24,-140.18 719.14,-128.72 813.66,-123.81"/>
<polygon fill="#63b8ff" stroke="#63b8ff" points="813.91,-127.3 823.72,-123.3 813.55,-120.31 813.91,-127.3"/>
</a>
</g>
</g>
<!-- Node8 -->
<g id="Node000008" class="node">
<title>Node8</title>
<g id="a_Node000008"><a xlink:href="_utils_8h.html" target="_top" xlink:title=" ">
<polygon fill="white" stroke="#666666" points="916.5,-74 868.5,-74 868.5,-55 916.5,-55 916.5,-74"/>
<text text-anchor="middle" x="892.5" y="-62" font-family="Helvetica Neue" font-size="10.00">Utils.h</text>
</a>
</g>
</g>
<!-- Node7&#45;&gt;Node8 -->
<g id="edge8_Node000007_Node000008" class="edge">
<title>Node7&#45;&gt;Node8</title>
<g id="a_edge8_Node000007_Node000008"><a xlink:title=" ">
<path fill="none" stroke="#63b8ff" d="M892.5,-109.75C892.5,-102.8 892.5,-92.85 892.5,-84.13"/>
<polygon fill="#63b8ff" stroke="#63b8ff" points="896,-84.09 892.5,-74.09 889,-84.09 896,-84.09"/>
</a>
</g>
</g>
<!-- Node8&#45;&gt;Node3 -->
<g id="edge9_Node000008_Node000003" class="edge">
<title>Node8&#45;&gt;Node3</title>
<g id="a_edge9_Node000008_Node000003"><a xlink:title=" ">
<path fill="none" stroke="#63b8ff" d="M868.04,-58.61C824.89,-49.98 734.43,-31.89 677.57,-20.51"/>
<polygon fill="#63b8ff" stroke="#63b8ff" points="678.2,-17.07 667.71,-18.54 676.83,-23.94 678.2,-17.07"/>
</a>
</g>
</g>
<!-- Node10 -->
<g id="Node000010" class="node">
<title>Node10</title>
<g id="a_Node000010"><a xlink:href="_gain_processor_8h.html" target="_top" xlink:title=" ">
<polygon fill="white" stroke="#666666" points="312.5,-305 192.5,-305 192.5,-286 312.5,-286 312.5,-305"/>
<text text-anchor="middle" x="252.5" y="-293" font-family="Helvetica Neue" font-size="10.00">Gain/GainProcessor.h</text>
</a>
</g>
</g>
<!-- Node9&#45;&gt;Node10 -->
<g id="edge12_Node000009_Node000010" class="edge">
<title>Node9&#45;&gt;Node10</title>
<g id="a_edge12_Node000009_Node000010"><a xlink:title=" ">
<path fill="none" stroke="#63b8ff" d="M474.08,-340.98C428.13,-331.76 354.75,-317.03 305.15,-307.07"/>
<polygon fill="#63b8ff" stroke="#63b8ff" points="305.74,-303.62 295.25,-305.08 304.36,-310.48 305.74,-303.62"/>
</a>
</g>
</g>
<!-- Node13 -->
<g id="Node000013" class="node">
<title>Node13</title>
<g id="a_Node000013"><a xlink:href="_impulse_processor_8h.html" target="_top" xlink:title=" ">
<polygon fill="white" stroke="#666666" points="1052,-305 899,-305 899,-286 1052,-286 1052,-305"/>
<text text-anchor="middle" x="975.5" y="-293" font-family="Helvetica Neue" font-size="10.00">Impulse/ImpulseProcessor.h</text>
</a>
</g>
</g>
<!-- Node9&#45;&gt;Node13 -->
<g id="edge18_Node000009_Node000013" class="edge">
<title>Node9&#45;&gt;Node13</title>
<g id="a_edge18_Node000009_Node000013"><a xlink:title=" ">
<path fill="none" stroke="#63b8ff" d="M572.78,-343C652.5,-333.8 798.89,-316.89 891.49,-306.2"/>
<polygon fill="#63b8ff" stroke="#63b8ff" points="892.14,-309.65 901.67,-305.02 891.34,-302.69 892.14,-309.65"/>
</a>
</g>
</g>
<!-- Node16 -->
<g id="Node000016" class="node">
<title>Node16</title>
<g id="a_Node000016"><a xlink:href="_output_processor_8h.html" target="_top" xlink:title=" ">
<polygon fill="white" stroke="#666666" points="174,-305 33,-305 33,-286 174,-286 174,-305"/>
<text text-anchor="middle" x="103.5" y="-293" font-family="Helvetica Neue" font-size="10.00">Output/OutputProcessor.h</text>
</a>
</g>
</g>
<!-- Node9&#45;&gt;Node16 -->
<g id="edge24_Node000009_Node000016" class="edge">
<title>Node9&#45;&gt;Node16</title>
<g id="a_edge24_Node000009_Node000016"><a xlink:title=" ">
<path fill="none" stroke="#63b8ff" d="M460.37,-342.3C387.83,-332.99 261.2,-316.74 179.92,-306.31"/>
<polygon fill="#63b8ff" stroke="#63b8ff" points="180.12,-302.8 169.75,-305 179.22,-309.75 180.12,-302.8"/>
</a>
</g>
</g>
<!-- Node18 -->
<g id="Node000018" class="node">
<title>Node18</title>
<g id="a_Node000018"><a xlink:href="_string_processor_8h.html" target="_top" xlink:title=" ">
<polygon fill="white" stroke="#666666" points="1202.5,-305 1070.5,-305 1070.5,-286 1202.5,-286 1202.5,-305"/>
<text text-anchor="middle" x="1136.5" y="-293" font-family="Helvetica Neue" font-size="10.00">String/StringProcessor.h</text>
</a>
</g>
</g>
<!-- Node9&#45;&gt;Node18 -->
<g id="edge28_Node000009_Node000018" class="edge">
<title>Node9&#45;&gt;Node18</title>
<g id="a_edge28_Node000009_Node000018"><a xlink:title=" ">
<path fill="none" stroke="#63b8ff" d="M572.65,-345.5C669.74,-338.45 875.55,-322.96 1060.09,-305.11"/>
<polygon fill="#63b8ff" stroke="#63b8ff" points="1060.64,-308.57 1070.26,-304.12 1059.97,-301.6 1060.64,-308.57"/>
</a>
</g>
</g>
<!-- Node21 -->
<g id="Node000021" class="node">
<title>Node21</title>
<g id="a_Node000021"><a xlink:href="_grit_processor_8h.html" target="_top" xlink:title=" ">
<polygon fill="white" stroke="#666666" points="442,-305 331,-305 331,-286 442,-286 442,-305"/>
<text text-anchor="middle" x="386.5" y="-293" font-family="Helvetica Neue" font-size="10.00">Grit/GritProcessor.h</text>
</a>
</g>
</g>
<!-- Node9&#45;&gt;Node21 -->
<g id="edge37_Node000009_Node000021" class="edge">
<title>Node9&#45;&gt;Node21</title>
<g id="a_edge37_Node000009_Node000021"><a xlink:title=" ">
<path fill="none" stroke="#63b8ff" d="M495.61,-340.98C474.42,-332.34 441.37,-318.87 417.2,-309.02"/>
<polygon fill="#63b8ff" stroke="#63b8ff" points="418.35,-305.7 407.77,-305.17 415.71,-312.19 418.35,-305.7"/>
</a>
</g>
</g>
<!-- Node23 -->
<g id="Node000023" class="node">
<title>Node23</title>
<g id="a_Node000023"><a xlink:href="_friction_processor_8h.html" target="_top" xlink:title=" ">
<polygon fill="white" stroke="#666666" points="881,-305 734,-305 734,-286 881,-286 881,-305"/>
<text text-anchor="middle" x="807.5" y="-293" font-family="Helvetica Neue" font-size="10.00">Friction/FrictionProcessor.h</text>
</a>
</g>
</g>
<!-- Node9&#45;&gt;Node23 -->
<g id="edge42_Node000009_Node000023" class="edge">
<title>Node9&#45;&gt;Node23</title>
<g id="a_edge42_Node000009_Node000023"><a xlink:title=" ">
<path fill="none" stroke="#63b8ff" d="M563.25,-340.98C614.22,-331.7 695.81,-316.84 750.49,-306.88"/>
<polygon fill="#63b8ff" stroke="#63b8ff" points="751.17,-310.32 760.38,-305.08 749.91,-303.43 751.17,-310.32"/>
</a>
</g>
</g>
<!-- Node25 -->
<g id="Node000025" class="node">
<title>Node25</title>
<g id="a_Node000025"><a xlink:href="_l_f_o_processor_8h.html" target="_top" xlink:title=" ">
<polygon fill="white" stroke="#666666" points="573,-305 460,-305 460,-286 573,-286 573,-305"/>
<text text-anchor="middle" x="516.5" y="-293" font-family="Helvetica Neue" font-size="10.00">LFO/LFOProcessor.h</text>
</a>
</g>
</g>
<!-- Node9&#45;&gt;Node25 -->
<g id="edge47_Node000009_Node000025" class="edge">
<title>Node9&#45;&gt;Node25</title>
<g id="a_edge47_Node000009_Node000025"><a xlink:title=" ">
<path fill="none" stroke="#63b8ff" d="M516.5,-340.75C516.5,-333.8 516.5,-323.85 516.5,-315.13"/>
<polygon fill="#63b8ff" stroke="#63b8ff" points="520,-315.09 516.5,-305.09 513,-315.09 520,-315.09"/>
</a>
</g>
</g>
<!-- Node28 -->
<g id="Node000028" class="node">
<title>Node28</title>
<g id="a_Node000028"><a xlink:href="_filter_processor_8h.html" target="_top" xlink:title=" ">
<polygon fill="white" stroke="#666666" points="716,-305 591,-305 591,-286 716,-286 716,-305"/>
<text text-anchor="middle" x="653.5" y="-293" font-family="Helvetica Neue" font-size="10.00">Filter/FilterProcessor.h</text>
</a>
</g>
</g>
<!-- Node9&#45;&gt;Node28 -->
<g id="edge54_Node000009_Node000028" class="edge">
<title>Node9&#45;&gt;Node28</title>
<g id="a_edge54_Node000009_Node000028"><a xlink:title=" ">
<path fill="none" stroke="#63b8ff" d="M538.51,-340.98C560.95,-332.3 595.98,-318.75 621.49,-308.88"/>
<polygon fill="#63b8ff" stroke="#63b8ff" points="623.02,-312.04 631.09,-305.17 620.5,-305.51 623.02,-312.04"/>
</a>
</g>
</g>
<!-- Node10&#45;&gt;Node7 -->
<g id="edge17_Node000010_Node000007" class="edge">
<title>Node10&#45;&gt;Node7</title>
<g id="a_edge17_Node000010_Node000007"><a xlink:title=" ">
<path fill="none" stroke="#63b8ff" d="M312.81,-286.99C316.09,-286.64 319.33,-286.31 322.5,-286 430.95,-275.43 718.19,-306.27 811.5,-250 853.58,-224.62 877.19,-168.12 887.01,-138.86"/>
<polygon fill="#63b8ff" stroke="#63b8ff" points="890.42,-139.69 890.11,-129.1 883.75,-137.57 890.42,-139.69"/>
</a>
</g>
</g>
<!-- Node11 -->
<g id="Node000011" class="node">
<title>Node11</title>
<g id="a_Node000011"><a xlink:href="_gain_u_i_8h.html" target="_top" xlink:title=" ">
<polygon fill="white" stroke="#666666" points="215,-250 156,-250 156,-231 215,-231 215,-250"/>
<text text-anchor="middle" x="185.5" y="-238" font-family="Helvetica Neue" font-size="10.00">GainUI.h</text>
</a>
</g>
</g>
<!-- Node10&#45;&gt;Node11 -->
<g id="edge13_Node000010_Node000011" class="edge">
<title>Node10&#45;&gt;Node11</title>
<g id="a_edge13_Node000010_Node000011"><a xlink:title=" ">
<path fill="none" stroke="#63b8ff" d="M241.74,-285.98C231.73,-278.07 216.61,-266.11 204.57,-256.58"/>
<polygon fill="#63b8ff" stroke="#63b8ff" points="206.47,-253.63 196.46,-250.17 202.13,-259.12 206.47,-253.63"/>
</a>
</g>
</g>
<!-- Node11&#45;&gt;Node6 -->
<g id="edge14_Node000011_Node000006" class="edge">
<title>Node11&#45;&gt;Node6</title>
<g id="a_edge14_Node000011_Node000006"><a xlink:title=" ">
<path fill="none" stroke="#63b8ff" d="M211.82,-230.99C243.05,-220.9 295.3,-204.01 330.32,-192.69"/>
<polygon fill="#63b8ff" stroke="#63b8ff" points="331.71,-195.92 340.15,-189.52 329.56,-189.26 331.71,-195.92"/>
</a>
</g>
</g>
<!-- Node12 -->
<g id="Node000012" class="node">
<title>Node12</title>
<g id="a_Node000012"><a xlink:href="_phi_dial_8h.html" target="_top" xlink:title=" ">
<polygon fill="white" stroke="#666666" points="528,-195 427,-195 427,-165 528,-165 528,-195"/>
<text text-anchor="start" x="435" y="-183" font-family="Helvetica Neue" font-size="10.00">../../ui/component</text>
<text text-anchor="middle" x="477.5" y="-172" font-family="Helvetica Neue" font-size="10.00">/PhiDial.h</text>
</a>
</g>
</g>
<!-- Node11&#45;&gt;Node12 -->
<g id="edge15_Node000011_Node000012" class="edge">
<title>Node11&#45;&gt;Node12</title>
<g id="a_edge15_Node000011_Node000012"><a xlink:title=" ">
<path fill="none" stroke="#63b8ff" d="M215.29,-232.91C218.4,-232.25 221.51,-231.6 224.5,-231 306.94,-214.33 330.42,-213 416.81,-195.09"/>
<polygon fill="#63b8ff" stroke="#63b8ff" points="417.72,-198.47 426.8,-193 416.29,-191.62 417.72,-198.47"/>
</a>
</g>
</g>
<!-- Node12&#45;&gt;Node3 -->
<g id="edge16_Node000012_Node000003" class="edge">
<title>Node12&#45;&gt;Node3</title>
<g id="a_edge16_Node000012_Node000003"><a xlink:title=" ">
<path fill="none" stroke="#63b8ff" d="M490.03,-164.92C517.57,-133.99 583.23,-60.23 612.72,-27.1"/>
<polygon fill="#63b8ff" stroke="#63b8ff" points="615.67,-29.05 619.71,-19.25 610.44,-24.4 615.67,-29.05"/>
</a>
</g>
</g>
<!-- Node13&#45;&gt;Node7 -->
<g id="edge23_Node000013_Node000007" class="edge">
<title>Node13&#45;&gt;Node7</title>
<g id="a_edge23_Node000013_Node000007"><a xlink:title=" ">
<path fill="none" stroke="#63b8ff" d="M982.39,-285.93C988.77,-277.4 997.81,-263.65 1001.5,-250 1011.37,-213.53 1022.57,-196.36 1001.5,-165 990.82,-149.11 973.37,-138.89 955.53,-132.32"/>
<polygon fill="#63b8ff" stroke="#63b8ff" points="956.21,-128.86 945.62,-129.03 954.01,-135.5 956.21,-128.86"/>
</a>
</g>
</g>
<!-- Node14 -->
<g id="Node000014" class="node">
<title>Node14</title>
<g id="a_Node000014"><a xlink:href="_impulse_u_i_8h.html" target="_top" xlink:title=" ">
<polygon fill="white" stroke="#666666" points="686,-250 611,-250 611,-231 686,-231 686,-250"/>
<text text-anchor="middle" x="648.5" y="-238" font-family="Helvetica Neue" font-size="10.00">ImpulseUI.h</text>
</a>
</g>
</g>
<!-- Node13&#45;&gt;Node14 -->
<g id="edge19_Node000013_Node000014" class="edge">
<title>Node13&#45;&gt;Node14</title>
<g id="a_edge19_Node000013_Node000014"><a xlink:title=" ">
<path fill="none" stroke="#63b8ff" d="M919.66,-285.98C865.26,-277.61 779.95,-264.25 696.14,-250.08"/>
<polygon fill="#63b8ff" stroke="#63b8ff" points="696.64,-246.61 686.2,-248.39 695.47,-253.51 696.64,-246.61"/>
</a>
</g>
</g>
<!-- Node14&#45;&gt;Node6 -->
<g id="edge20_Node000014_Node000006" class="edge">
<title>Node14&#45;&gt;Node6</title>
<g id="a_edge20_Node000014_Node000006"><a xlink:title=" ">
<path fill="none" stroke="#63b8ff" d="M611,-232.58C555.6,-222.31 454.56,-203.33 418.5,-195 414.61,-194.1 410.58,-193.11 406.55,-192.09"/>
<polygon fill="#63b8ff" stroke="#63b8ff" points="407.21,-188.65 396.65,-189.51 405.45,-195.42 407.21,-188.65"/>
</a>
</g>
</g>
<!-- Node14&#45;&gt;Node12 -->
<g id="edge21_Node000014_Node000012" class="edge">
<title>Node14&#45;&gt;Node12</title>
<g id="a_edge21_Node000014_Node000012"><a xlink:title=" ">
<path fill="none" stroke="#63b8ff" d="M623.64,-230.99C598.7,-222.46 559.6,-209.09 528.11,-198.32"/>
<polygon fill="#63b8ff" stroke="#63b8ff" points="529.21,-194.99 518.61,-195.06 526.94,-201.61 529.21,-194.99"/>
</a>
</g>
</g>
<!-- Node15 -->
<g id="Node000015" class="node">
<title>Node15</title>
<g id="a_Node000015"><a xlink:href="_phi_waveform_8h.html" target="_top" xlink:title=" ">
<polygon fill="white" stroke="#666666" points="647,-195 546,-195 546,-165 647,-165 647,-195"/>
<text text-anchor="start" x="554" y="-183" font-family="Helvetica Neue" font-size="10.00">../../ui/component</text>
<text text-anchor="middle" x="596.5" y="-172" font-family="Helvetica Neue" font-size="10.00">/PhiWaveform.h</text>
</a>
</g>
</g>
<!-- Node14&#45;&gt;Node15 -->
<g id="edge22_Node000014_Node000015" class="edge">
<title>Node14&#45;&gt;Node15</title>
<g id="a_edge22_Node000014_Node000015"><a xlink:title=" ">
<path fill="none" stroke="#63b8ff" d="M640.83,-230.87C634.23,-223.44 624.43,-212.42 615.72,-202.62"/>
<polygon fill="#63b8ff" stroke="#63b8ff" points="618.31,-200.26 609.05,-195.11 613.07,-204.91 618.31,-200.26"/>
</a>
</g>
</g>
<!-- Node16&#45;&gt;Node7 -->
<g id="edge27_Node000016_Node000007" class="edge">
<title>Node16&#45;&gt;Node7</title>
<g id="a_edge27_Node000016_Node000007"><a xlink:title=" ">
<path fill="none" stroke="#63b8ff" d="M174.15,-286.82C177.31,-286.53 180.44,-286.26 183.5,-286 315.51,-275 659.5,-308.18 778.5,-250 791.72,-243.54 851.78,-170.74 879.01,-137.22"/>
<polygon fill="#63b8ff" stroke="#63b8ff" points="881.89,-139.22 885.46,-129.25 876.45,-134.81 881.89,-139.22"/>
</a>
</g>
</g>
<!-- Node17 -->
<g id="Node000017" class="node">
<title>Node17</title>
<g id="a_Node000017"><a xlink:href="_output_u_i_8h.html" target="_top" xlink:title=" ">
<polygon fill="white" stroke="#666666" points="138,-250 69,-250 69,-231 138,-231 138,-250"/>
<text text-anchor="middle" x="103.5" y="-238" font-family="Helvetica Neue" font-size="10.00">OutputUI.h</text>
</a>
</g>
</g>
<!-- Node16&#45;&gt;Node17 -->
<g id="edge25_Node000016_Node000017" class="edge">
<title>Node16&#45;&gt;Node17</title>
<g id="a_edge25_Node000016_Node000017"><a xlink:title=" ">
<path fill="none" stroke="#63b8ff" d="M103.5,-285.75C103.5,-278.8 103.5,-268.85 103.5,-260.13"/>
<polygon fill="#63b8ff" stroke="#63b8ff" points="107,-260.09 103.5,-250.09 100,-260.09 107,-260.09"/>
</a>
</g>
</g>
<!-- Node17&#45;&gt;Node6 -->
<g id="edge26_Node000017_Node000006" class="edge">
<title>Node17&#45;&gt;Node6</title>
<g id="a_edge26_Node000017_Node000006"><a xlink:title=" ">
<path fill="none" stroke="#63b8ff" d="M138.15,-231.79C184.18,-221.55 265.74,-203.41 317.9,-191.81"/>
<polygon fill="#63b8ff" stroke="#63b8ff" points="318.92,-195.17 327.92,-189.58 317.4,-188.34 318.92,-195.17"/>
</a>
</g>
</g>
<!-- Node18&#45;&gt;Node7 -->
<g id="edge36_Node000018_Node000007" class="edge">
<title>Node18&#45;&gt;Node7</title>
<g id="a_edge36_Node000018_Node000007"><a xlink:title=" ">
<path fill="none" stroke="#63b8ff" d="M1131.09,-285.89C1116.25,-262.93 1072.51,-199.63 1020.5,-165 997.18,-149.47 967.85,-138.76 943.16,-131.74"/>
<polygon fill="#63b8ff" stroke="#63b8ff" points="943.81,-128.29 933.24,-129.05 941.98,-135.05 943.81,-128.29"/>
</a>
</g>
</g>
<!-- Node18&#45;&gt;Node8 -->
<g id="edge35_Node000018_Node000008" class="edge">
<title>Node18&#45;&gt;Node8</title>
<g id="a_edge35_Node000018_Node000008"><a xlink:title=" ">
<path fill="none" stroke="#63b8ff" d="M1134.16,-285.83C1130.5,-273.17 1122.69,-249.16 1111.5,-231 1064.72,-155.09 969.33,-101.73 921.38,-78.51"/>
<polygon fill="#63b8ff" stroke="#63b8ff" points="922.71,-75.27 912.18,-74.14 919.71,-81.59 922.71,-75.27"/>
</a>
</g>
</g>
<!-- Node19 -->
<g id="Node000019" class="node">
<title>Node19</title>
<g id="a_Node000019"><a xlink:href="_string_u_i_8h.html" target="_top" xlink:title=" ">
<polygon fill="white" stroke="#666666" points="769,-250 704,-250 704,-231 769,-231 769,-250"/>
<text text-anchor="middle" x="736.5" y="-238" font-family="Helvetica Neue" font-size="10.00">StringUI.h</text>
</a>
</g>
</g>
<!-- Node18&#45;&gt;Node19 -->
<g id="edge29_Node000018_Node000019" class="edge">
<title>Node18&#45;&gt;Node19</title>
<g id="a_edge29_Node000018_Node000019"><a xlink:title=" ">
<path fill="none" stroke="#63b8ff" d="M1072.23,-285.98C990,-275.09 849.79,-256.51 779.43,-247.19"/>
<polygon fill="#63b8ff" stroke="#63b8ff" points="779.54,-243.67 769.17,-245.83 778.62,-250.61 779.54,-243.67"/>
</a>
</g>
</g>
<!-- Node19&#45;&gt;Node6 -->
<g id="edge30_Node000019_Node000006" class="edge">
<title>Node19&#45;&gt;Node6</title>
<g id="a_edge30_Node000019_Node000006"><a xlink:title=" ">
<path fill="none" stroke="#63b8ff" d="M703.87,-232.5C701.04,-231.97 698.22,-231.46 695.5,-231 573.08,-210.38 540.27,-219.19 418.5,-195 414.27,-194.16 409.88,-193.17 405.52,-192.11"/>
<polygon fill="#63b8ff" stroke="#63b8ff" points="406.05,-188.63 395.49,-189.54 404.31,-195.41 406.05,-188.63"/>
</a>
</g>
</g>
<!-- Node19&#45;&gt;Node12 -->
<g id="edge31_Node000019_Node000012" class="edge">
<title>Node19&#45;&gt;Node12</title>
<g id="a_edge31_Node000019_Node000012"><a xlink:title=" ">
<path fill="none" stroke="#63b8ff" d="M703.73,-232.27C666.2,-223.97 602.6,-209.83 538.16,-195.14"/>
<polygon fill="#63b8ff" stroke="#63b8ff" points="538.76,-191.69 528.23,-192.87 537.2,-198.51 538.76,-191.69"/>
</a>
</g>
</g>
<!-- Node20 -->
<g id="Node000020" class="node">
<title>Node20</title>
<g id="a_Node000020"><a xlink:href="_phi_slider_button_8h.html" target="_top" xlink:title=" ">
<polygon fill="white" stroke="#666666" points="769.5,-195 665.5,-195 665.5,-165 769.5,-165 769.5,-195"/>
<text text-anchor="start" x="673.5" y="-183" font-family="Helvetica Neue" font-size="10.00">../../ui/component</text>
<text text-anchor="middle" x="717.5" y="-172" font-family="Helvetica Neue" font-size="10.00">/PhiSliderButton.h</text>
</a>
</g>
</g>
<!-- Node19&#45;&gt;Node20 -->
<g id="edge32_Node000019_Node000020" class="edge">
<title>Node19&#45;&gt;Node20</title>
<g id="a_edge32_Node000019_Node000020"><a xlink:title=" ">
<path fill="none" stroke="#63b8ff" d="M733.7,-230.87C731.45,-223.96 728.19,-213.93 725.19,-204.67"/>
<polygon fill="#63b8ff" stroke="#63b8ff" points="728.5,-203.54 722.08,-195.11 721.84,-205.71 728.5,-203.54"/>
</a>
</g>
</g>
<!-- Node20&#45;&gt;Node3 -->
<g id="edge33_Node000020_Node000003" class="edge">
<title>Node20&#45;&gt;Node3</title>
<g id="a_edge33_Node000020_Node000003"><a xlink:title=" ">
<path fill="none" stroke="#63b8ff" d="M709.98,-164.92C693.67,-134.39 655.06,-62.1 637.06,-28.39"/>
<polygon fill="#63b8ff" stroke="#63b8ff" points="639.97,-26.43 632.18,-19.25 633.8,-29.72 639.97,-26.43"/>
</a>
</g>
</g>
<!-- Node20&#45;&gt;Node5 -->
<g id="edge34_Node000020_Node000005" class="edge">
<title>Node20&#45;&gt;Node5</title>
<g id="a_edge34_Node000020_Node000005"><a xlink:title=" ">
<path fill="none" stroke="#63b8ff" d="M665.31,-166.76C662.33,-166.14 659.38,-165.55 656.5,-165 572.02,-148.85 472.81,-134.64 415.06,-126.84"/>
<polygon fill="#63b8ff" stroke="#63b8ff" points="415.5,-123.37 405.12,-125.51 414.57,-130.31 415.5,-123.37"/>
</a>
</g>
</g>
<!-- Node21&#45;&gt;Node7 -->
<g id="edge41_Node000021_Node000007" class="edge">
<title>Node21&#45;&gt;Node7</title>
<g id="a_edge41_Node000021_Node000007"><a xlink:title=" ">
<path fill="none" stroke="#63b8ff" d="M442.15,-287.07C445.31,-286.7 448.45,-286.34 451.5,-286 539.77,-276.24 779.9,-305.16 849.5,-250 883.59,-222.98 890.9,-168.09 892.31,-139.22"/>
<polygon fill="#63b8ff" stroke="#63b8ff" points="895.81,-139.32 892.6,-129.22 888.81,-139.11 895.81,-139.32"/>
</a>
</g>
</g>
<!-- Node22 -->
<g id="Node000022" class="node">
<title>Node22</title>
<g id="a_Node000022"><a xlink:href="_grit_u_i_8h.html" target="_top" xlink:title=" ">
<polygon fill="white" stroke="#666666" points="287.5,-250 233.5,-250 233.5,-231 287.5,-231 287.5,-250"/>
<text text-anchor="middle" x="260.5" y="-238" font-family="Helvetica Neue" font-size="10.00">GritUI.h</text>
</a>
</g>
</g>
<!-- Node21&#45;&gt;Node22 -->
<g id="edge38_Node000021_Node000022" class="edge">
<title>Node21&#45;&gt;Node22</title>
<g id="a_edge38_Node000021_Node000022"><a xlink:title=" ">
<path fill="none" stroke="#63b8ff" d="M366.26,-285.98C345.8,-277.38 313.97,-263.99 290.57,-254.15"/>
<polygon fill="#63b8ff" stroke="#63b8ff" points="291.69,-250.82 281.11,-250.17 288.97,-257.27 291.69,-250.82"/>
</a>
</g>
</g>
<!-- Node22&#45;&gt;Node6 -->
<g id="edge39_Node000022_Node000006" class="edge">
<title>Node22&#45;&gt;Node6</title>
<g id="a_edge39_Node000022_Node000006"><a xlink:title=" ">
<path fill="none" stroke="#63b8ff" d="M276.14,-230.87C293.44,-221.32 321.55,-205.81 341.83,-194.62"/>
<polygon fill="#63b8ff" stroke="#63b8ff" points="343.73,-197.56 350.8,-189.67 340.35,-191.43 343.73,-197.56"/>
</a>
</g>
</g>
<!-- Node22&#45;&gt;Node12 -->
<g id="edge40_Node000022_Node000012" class="edge">
<title>Node22&#45;&gt;Node12</title>
<g id="a_edge40_Node000022_Node000012"><a xlink:title=" ">
<path fill="none" stroke="#63b8ff" d="M287.54,-232.21C319.8,-223.51 374.68,-208.72 417.19,-197.26"/>
<polygon fill="#63b8ff" stroke="#63b8ff" points="418.13,-200.63 426.88,-194.65 416.31,-193.87 418.13,-200.63"/>
</a>
</g>
</g>
<!-- Node23&#45;&gt;Node7 -->
<g id="edge46_Node000023_Node000007" class="edge">
<title>Node23&#45;&gt;Node7</title>
<g id="a_edge46_Node000023_Node000007"><a xlink:title=" ">
<path fill="none" stroke="#63b8ff" d="M862.71,-285.93C902.45,-278.49 951.16,-266.35 963.5,-250 986.26,-219.84 981.79,-198.05 963.5,-165 955.66,-150.83 941.21,-140.57 927.39,-133.5"/>
<polygon fill="#63b8ff" stroke="#63b8ff" points="928.55,-130.18 918.01,-129.1 925.58,-136.52 928.55,-130.18"/>
</a>
</g>
</g>
<!-- Node24 -->
<g id="Node000024" class="node">
<title>Node24</title>
<g id="a_Node000024"><a xlink:href="_friction_u_i_8h.html" target="_top" xlink:title=" ">
<polygon fill="white" stroke="#666666" points="519.5,-250 447.5,-250 447.5,-231 519.5,-231 519.5,-250"/>
<text text-anchor="middle" x="483.5" y="-238" font-family="Helvetica Neue" font-size="10.00">FrictionUI.h</text>
</a>
</g>
</g>
<!-- Node23&#45;&gt;Node24 -->
<g id="edge43_Node000023_Node000024" class="edge">
<title>Node23&#45;&gt;Node24</title>
<g id="a_edge43_Node000023_Node000024"><a xlink:title=" ">
<path fill="none" stroke="#63b8ff" d="M751.79,-285.98C695.62,-277.3 606.45,-263.27 529.5,-250 529.4,-249.98 529.3,-249.97 529.2,-249.95"/>
<polygon fill="#63b8ff" stroke="#63b8ff" points="530.1,-246.55 519.64,-248.26 528.89,-253.45 530.1,-246.55"/>
</a>
</g>
</g>
<!-- Node24&#45;&gt;Node6 -->
<g id="edge44_Node000024_Node000006" class="edge">
<title>Node24&#45;&gt;Node6</title>
<g id="a_edge44_Node000024_Node000006"><a xlink:title=" ">
<path fill="none" stroke="#63b8ff" d="M466.49,-230.99C447.08,-221.29 415.11,-205.31 392.56,-194.03"/>
<polygon fill="#63b8ff" stroke="#63b8ff" points="394.04,-190.86 383.53,-189.52 390.91,-197.12 394.04,-190.86"/>
</a>
</g>
</g>
<!-- Node24&#45;&gt;Node12 -->
<g id="edge45_Node000024_Node000012" class="edge">
<title>Node24&#45;&gt;Node12</title>
<g id="a_edge45_Node000024_Node000012"><a xlink:title=" ">
<path fill="none" stroke="#63b8ff" d="M482.61,-230.87C481.92,-224.11 480.92,-214.35 479.99,-205.26"/>
<polygon fill="#63b8ff" stroke="#63b8ff" points="483.45,-204.71 478.95,-195.11 476.49,-205.42 483.45,-204.71"/>
</a>
</g>
</g>
<!-- Node25&#45;&gt;Node7 -->
<g id="edge53_Node000025_Node000007" class="edge">
<title>Node25&#45;&gt;Node7</title>
<g id="a_edge53_Node000025_Node000007"><a xlink:title=" ">
<path fill="none" stroke="#63b8ff" d="M573.02,-287.18C576.23,-286.78 579.4,-286.38 582.5,-286 650.23,-277.64 841.18,-300.12 887.5,-250 915.4,-219.8 906.02,-166.73 898.36,-138.83"/>
<polygon fill="#63b8ff" stroke="#63b8ff" points="901.69,-137.75 895.49,-129.16 894.98,-139.74 901.69,-137.75"/>
</a>
</g>
</g>
<!-- Node26 -->
<g id="Node000026" class="node">
<title>Node26</title>
<g id="a_Node000026"><a xlink:href="_l_f_o_8h.html" target="_top" xlink:title=" ">
<polygon fill="white" stroke="#666666" points="349.5,-250 305.5,-250 305.5,-231 349.5,-231 349.5,-250"/>
<text text-anchor="middle" x="327.5" y="-238" font-family="Helvetica Neue" font-size="10.00">LFO.h</text>
</a>
</g>
</g>
<!-- Node25&#45;&gt;Node26 -->
<g id="edge48_Node000025_Node000026" class="edge">
<title>Node25&#45;&gt;Node26</title>
<g id="a_edge48_Node000025_Node000026"><a xlink:title=" ">
<path fill="none" stroke="#63b8ff" d="M486.13,-285.98C451.37,-276.24 394.69,-260.34 359.33,-250.43"/>
<polygon fill="#63b8ff" stroke="#63b8ff" points="360.1,-247.01 349.52,-247.68 358.21,-253.75 360.1,-247.01"/>
</a>
</g>
</g>
<!-- Node27 -->
<g id="Node000027" class="node">
<title>Node27</title>
<g id="a_Node000027"><a xlink:href="_l_f_o_u_i_8h.html" target="_top" xlink:title=" ">
<polygon fill="white" stroke="#666666" points="593,-250 538,-250 538,-231 593,-231 593,-250"/>
<text text-anchor="middle" x="565.5" y="-238" font-family="Helvetica Neue" font-size="10.00">LFOUI.h</text>
</a>
</g>
</g>
<!-- Node25&#45;&gt;Node27 -->
<g id="edge49_Node000025_Node000027" class="edge">
<title>Node25&#45;&gt;Node27</title>
<g id="a_edge49_Node000025_Node000027"><a xlink:title=" ">
<path fill="none" stroke="#63b8ff" d="M524.59,-285.75C531.66,-278.11 542.09,-266.82 550.65,-257.56"/>
<polygon fill="#63b8ff" stroke="#63b8ff" points="553.34,-259.81 557.56,-250.09 548.2,-255.06 553.34,-259.81"/>
</a>
</g>
</g>
<!-- Node27&#45;&gt;Node6 -->
<g id="edge50_Node000027_Node000006" class="edge">
<title>Node27&#45;&gt;Node6</title>
<g id="a_edge50_Node000027_Node000006"><a xlink:title=" ">
<path fill="none" stroke="#63b8ff" d="M537.83,-231.37C503.42,-221.25 444.47,-203.92 405.49,-192.46"/>
<polygon fill="#63b8ff" stroke="#63b8ff" points="406.13,-189 395.55,-189.54 404.16,-195.72 406.13,-189"/>
</a>
</g>
</g>
<!-- Node27&#45;&gt;Node12 -->
<g id="edge51_Node000027_Node000012" class="edge">
<title>Node27&#45;&gt;Node12</title>
<g id="a_edge51_Node000027_Node000012"><a xlink:title=" ">
<path fill="none" stroke="#63b8ff" d="M552.52,-230.87C540.69,-223 522.77,-211.09 507.41,-200.89"/>
<polygon fill="#63b8ff" stroke="#63b8ff" points="509,-197.74 498.73,-195.11 505.12,-203.57 509,-197.74"/>
</a>
</g>
</g>
<!-- Node27&#45;&gt;Node15 -->
<g id="edge52_Node000027_Node000015" class="edge">
<title>Node27&#45;&gt;Node15</title>
<g id="a_edge52_Node000027_Node000015"><a xlink:title=" ">
<path fill="none" stroke="#63b8ff" d="M570.07,-230.87C573.81,-223.81 579.28,-213.5 584.27,-204.08"/>
<polygon fill="#63b8ff" stroke="#63b8ff" points="587.43,-205.59 589.02,-195.11 581.25,-202.31 587.43,-205.59"/>
</a>
</g>
</g>
<!-- Node28&#45;&gt;Node7 -->
<g id="edge58_Node000028_Node000007" class="edge">
<title>Node28&#45;&gt;Node7</title>
<g id="a_edge58_Node000028_Node000007"><a xlink:title=" ">
<path fill="none" stroke="#63b8ff" d="M716.26,-286.3C794.46,-275.79 918.73,-257.97 925.5,-250 949.96,-221.21 937.35,-200.87 925.5,-165 922.04,-154.54 915.07,-144.53 908.42,-136.66"/>
<polygon fill="#63b8ff" stroke="#63b8ff" points="910.83,-134.1 901.52,-129.04 905.64,-138.8 910.83,-134.1"/>
</a>
</g>
</g>
<!-- Node29 -->
<g id="Node000029" class="node">
<title>Node29</title>
<g id="a_Node000029"><a xlink:href="_filter_u_i_8h.html" target="_top" xlink:title=" ">
<polygon fill="white" stroke="#666666" points="429,-250 368,-250 368,-231 429,-231 429,-250"/>
<text text-anchor="middle" x="398.5" y="-238" font-family="Helvetica Neue" font-size="10.00">FilterUI.h</text>
</a>
</g>
</g>
<!-- Node28&#45;&gt;Node29 -->
<g id="edge55_Node000028_Node000029" class="edge">
<title>Node28&#45;&gt;Node29</title>
<g id="a_edge55_Node000028_Node000029"><a xlink:title=" ">
<path fill="none" stroke="#63b8ff" d="M611.87,-285.95C570.58,-277.46 505.23,-263.97 438.87,-250.07"/>
<polygon fill="#63b8ff" stroke="#63b8ff" points="439.58,-246.64 429.07,-248.01 438.14,-253.49 439.58,-246.64"/>
</a>
</g>
</g>
<!-- Node29&#45;&gt;Node6 -->
<g id="edge56_Node000029_Node000006" class="edge">
<title>Node29&#45;&gt;Node6</title>
<g id="a_edge56_Node000029_Node000006"><a xlink:title=" ">
<path fill="none" stroke="#63b8ff" d="M393.78,-230.87C389.15,-222.4 381.95,-209.24 376.11,-198.57"/>
<polygon fill="#63b8ff" stroke="#63b8ff" points="379.11,-196.76 371.24,-189.67 372.97,-200.12 379.11,-196.76"/>
</a>
</g>
</g>
<!-- Node29&#45;&gt;Node12 -->
<g id="edge57_Node000029_Node000012" class="edge">
<title>Node29&#45;&gt;Node12</title>
<g id="a_edge57_Node000029_Node000012"><a xlink:title=" ">
<path fill="none" stroke="#63b8ff" d="M410.16,-230.87C420.68,-223.08 436.56,-211.32 450.26,-201.17"/>
<polygon fill="#63b8ff" stroke="#63b8ff" points="452.49,-203.88 458.44,-195.11 448.32,-198.25 452.49,-203.88"/>
</a>
</g>
</g>
</g>
</svg>
