<?xml version="1.0" encoding="UTF-8" standalone="no"?>
<!DOCTYPE svg PUBLIC "-//W3C//DTD SVG 1.1//EN"
 "http://www.w3.org/Graphics/SVG/1.1/DTD/svg11.dtd">
<!-- Generated by graphviz version 2.43.0 (0)
 -->
<!-- Title: StringUI.h Pages: 1 -->
<svg width="398pt" height="269pt"
 viewBox="0.00 0.00 398.00 269.00" xmlns="http://www.w3.org/2000/svg" xmlns:xlink="http://www.w3.org/1999/xlink">
<g id="graph0" class="graph" transform="scale(1 1) rotate(0) translate(4 265)">
<title>StringUI.h</title>
<!-- Node1 -->
<g id="Node000001" class="node">
<title>Node1</title>
<g id="a_Node000001"><a xlink:title=" ">
<polygon fill="#999999" stroke="#666666" points="292,-261 227,-261 227,-242 292,-242 292,-261"/>
<text text-anchor="middle" x="259.5" y="-249" font-family="Helvetica Neue" font-size="10.00">StringUI.h</text>
</a>
</g>
</g>
<!-- Node2 -->
<g id="Node000002" class="node">
<title>Node2</title>
<g id="a_Node000002"><a xlink:href="_module_u_i_8h.html" target="_top" xlink:title=" ">
<polygon fill="white" stroke="#666666" points="189.5,-200.5 87.5,-200.5 87.5,-181.5 189.5,-181.5 189.5,-200.5"/>
<text text-anchor="middle" x="138.5" y="-188.5" font-family="Helvetica Neue" font-size="10.00">../../ui/ModuleUI.h</text>
</a>
</g>
</g>
<!-- Node1&#45;&gt;Node2 -->
<g id="edge1_Node000001_Node000002" class="edge">
<title>Node1&#45;&gt;Node2</title>
<g id="a_edge1_Node000001_Node000002"><a xlink:title=" ">
<path fill="none" stroke="#63b8ff" d="M241.91,-241.99C221.74,-232.25 188.48,-216.16 165.14,-204.88"/>
<polygon fill="#63b8ff" stroke="#63b8ff" points="166.64,-201.72 156.12,-200.52 163.6,-208.02 166.64,-201.72"/>
</a>
</g>
</g>
<!-- Node7 -->
<g id="Node000007" class="node">
<title>Node7</title>
<g id="a_Node000007"><a xlink:href="_phi_dial_8h.html" target="_top" xlink:title=" ">
<polygon fill="white" stroke="#666666" points="390,-85 289,-85 289,-55 390,-55 390,-85"/>
<text text-anchor="start" x="297" y="-73" font-family="Helvetica Neue" font-size="10.00">../../ui/component</text>
<text text-anchor="middle" x="339.5" y="-62" font-family="Helvetica Neue" font-size="10.00">/PhiDial.h</text>
</a>
</g>
</g>
<!-- Node1&#45;&gt;Node7 -->
<g id="edge6_Node000001_Node000007" class="edge">
<title>Node1&#45;&gt;Node7</title>
<g id="a_edge6_Node000001_Node000007"><a xlink:title=" ">
<path fill="none" stroke="#63b8ff" d="M278.45,-241.85C292.45,-234.41 310.72,-222.3 320.5,-206 341.02,-171.77 342.75,-124.07 341.54,-95.49"/>
<polygon fill="#63b8ff" stroke="#63b8ff" points="345.02,-94.97 340.94,-85.19 338.03,-95.38 345.02,-94.97"/>
</a>
</g>
</g>
<!-- Node8 -->
<g id="Node000008" class="node">
<title>Node8</title>
<g id="a_Node000008"><a xlink:href="_phi_slider_button_8h.html" target="_top" xlink:title=" ">
<polygon fill="white" stroke="#666666" points="311.5,-206 207.5,-206 207.5,-176 311.5,-176 311.5,-206"/>
<text text-anchor="start" x="215.5" y="-194" font-family="Helvetica Neue" font-size="10.00">../../ui/component</text>
<text text-anchor="middle" x="259.5" y="-183" font-family="Helvetica Neue" font-size="10.00">/PhiSliderButton.h</text>
</a>
</g>
</g>
<!-- Node1&#45;&gt;Node8 -->
<g id="edge8_Node000001_Node000008" class="edge">
<title>Node1&#45;&gt;Node8</title>
<g id="a_edge8_Node000001_Node000008"><a xlink:title=" ">
<path fill="none" stroke="#63b8ff" d="M259.5,-241.87C259.5,-235.11 259.5,-225.35 259.5,-216.26"/>
<polygon fill="#63b8ff" stroke="#63b8ff" points="263,-216.11 259.5,-206.11 256,-216.11 263,-216.11"/>
</a>
</g>
</g>
<!-- Node3 -->
<g id="Node000003" class="node">
<title>Node3</title>
<g id="a_Node000003"><a xlink:href="_phi_colours_8h.html" target="_top" xlink:title=" ">
<polygon fill="white" stroke="#666666" points="232,-140 155,-140 155,-121 232,-121 232,-140"/>
<text text-anchor="middle" x="193.5" y="-128" font-family="Helvetica Neue" font-size="10.00">PhiColours.h</text>
</a>
</g>
</g>
<!-- Node2&#45;&gt;Node3 -->
<g id="edge2_Node000002_Node000003" class="edge">
<title>Node2&#45;&gt;Node3</title>
<g id="a_edge2_Node000002_Node000003"><a xlink:title=" ">
<path fill="none" stroke="#63b8ff" d="M146.62,-181.37C154.9,-172.55 167.97,-158.66 178.2,-147.77"/>
<polygon fill="#63b8ff" stroke="#63b8ff" points="181.05,-149.85 185.35,-140.17 175.95,-145.06 181.05,-149.85"/>
</a>
</g>
</g>
<!-- Node4 -->
<g id="Node000004" class="node">
<title>Node4</title>
<g id="a_Node000004"><a xlink:href="_module_processor_8h.html" target="_top" xlink:title=" ">
<polygon fill="white" stroke="#666666" points="137,-140 0,-140 0,-121 137,-121 137,-140"/>
<text text-anchor="middle" x="68.5" y="-128" font-family="Helvetica Neue" font-size="10.00">../dsp/ModuleProcessor.h</text>
</a>
</g>
</g>
<!-- Node2&#45;&gt;Node4 -->
<g id="edge3_Node000002_Node000004" class="edge">
<title>Node2&#45;&gt;Node4</title>
<g id="a_edge3_Node000002_Node000004"><a xlink:title=" ">
<path fill="none" stroke="#63b8ff" d="M128.17,-181.37C117.31,-172.3 100.01,-157.84 86.83,-146.82"/>
<polygon fill="#63b8ff" stroke="#63b8ff" points="88.79,-143.89 78.87,-140.17 84.3,-149.27 88.79,-143.89"/>
</a>
</g>
</g>
<!-- Node5 -->
<g id="Node000005" class="node">
<title>Node5</title>
<g id="a_Node000005"><a xlink:href="_utils_8h.html" target="_top" xlink:title=" ">
<polygon fill="white" stroke="#666666" points="162.5,-79.5 114.5,-79.5 114.5,-60.5 162.5,-60.5 162.5,-79.5"/>
<text text-anchor="middle" x="138.5" y="-67.5" font-family="Helvetica Neue" font-size="10.00">Utils.h</text>
</a>
</g>
</g>
<!-- Node4&#45;&gt;Node5 -->
<g id="edge4_Node000004_Node000005" class="edge">
<title>Node4&#45;&gt;Node5</title>
<g id="a_edge4_Node000004_Node000005"><a xlink:title=" ">
<path fill="none" stroke="#63b8ff" d="M78.83,-120.87C89.69,-111.8 106.99,-97.34 120.17,-86.32"/>
<polygon fill="#63b8ff" stroke="#63b8ff" points="122.7,-88.77 128.13,-79.67 118.21,-83.39 122.7,-88.77"/>
</a>
</g>
</g>
<!-- Node6 -->
<g id="Node000006" class="node">
<title>Node6</title>
<g id="a_Node000006"><a xlink:title=" ">
<polygon fill="#e0e0e0" stroke="#999999" points="300.5,-19 220.5,-19 220.5,0 300.5,0 300.5,-19"/>
<text text-anchor="middle" x="260.5" y="-7" font-family="Helvetica Neue" font-size="10.00">JuceHeader.h</text>
</a>
</g>
</g>
<!-- Node5&#45;&gt;Node6 -->
<g id="edge5_Node000005_Node000006" class="edge">
<title>Node5&#45;&gt;Node6</title>
<g id="a_edge5_Node000005_Node000006"><a xlink:title=" ">
<path fill="none" stroke="#63b8ff" d="M156.24,-60.49C176.57,-50.75 210.11,-34.66 233.64,-23.38"/>
<polygon fill="#63b8ff" stroke="#63b8ff" points="235.24,-26.5 242.74,-19.02 232.21,-20.18 235.24,-26.5"/>
</a>
</g>
</g>
<!-- Node7&#45;&gt;Node6 -->
<g id="edge7_Node000007_Node000006" class="edge">
<title>Node7&#45;&gt;Node6</title>
<g id="a_edge7_Node000007_Node000006"><a xlink:title=" ">
<path fill="none" stroke="#63b8ff" d="M320.38,-54.84C308.32,-45.91 292.79,-34.41 280.56,-25.35"/>
<polygon fill="#63b8ff" stroke="#63b8ff" points="282.46,-22.4 272.34,-19.27 278.29,-28.03 282.46,-22.4"/>
</a>
</g>
</g>
<!-- Node8&#45;&gt;Node3 -->
<g id="edge10_Node000008_Node000003" class="edge">
<title>Node8&#45;&gt;Node3</title>
<g id="a_edge10_Node000008_Node000003"><a xlink:title=" ">
<path fill="none" stroke="#63b8ff" d="M243.52,-175.84C233.75,-167.17 221.23,-156.08 211.16,-147.15"/>
<polygon fill="#63b8ff" stroke="#63b8ff" points="213.19,-144.28 203.39,-140.27 208.55,-149.52 213.19,-144.28"/>
</a>
</g>
</g>
<!-- Node8&#45;&gt;Node6 -->
<g id="edge9_Node000008_Node000006" class="edge">
<title>Node8&#45;&gt;Node6</title>
<g id="a_edge9_Node000008_Node000006"><a xlink:title=" ">
<path fill="none" stroke="#63b8ff" d="M259.58,-175.91C259.76,-143.85 260.19,-65.38 260.4,-29.26"/>
<polygon fill="#63b8ff" stroke="#63b8ff" points="263.9,-29.15 260.45,-19.13 256.9,-29.12 263.9,-29.15"/>
</a>
</g>
</g>
</g>
</svg>
