<?xml version="1.0" encoding="UTF-8" standalone="no"?>
<!DOCTYPE svg PUBLIC "-//W3C//DTD SVG 1.1//EN"
 "http://www.w3.org/Graphics/SVG/1.1/DTD/svg11.dtd">
<!-- Generated by graphviz version 2.43.0 (0)
 -->
<!-- Title: StringProcessor.h Pages: 1 -->
<svg width="412pt" height="324pt"
 viewBox="0.00 0.00 412.49 324.00" xmlns="http://www.w3.org/2000/svg" xmlns:xlink="http://www.w3.org/1999/xlink">
<g id="graph0" class="graph" transform="scale(1 1) rotate(0) translate(4 320)">
<title>StringProcessor.h</title>
<!-- Node1 -->
<g id="Node000001" class="node">
<title>Node1</title>
<g id="a_Node000001"><a xlink:title=" ">
<polygon fill="#999999" stroke="#666666" points="374.5,-316 273.5,-316 273.5,-297 374.5,-297 374.5,-316"/>
<text text-anchor="middle" x="324" y="-304" font-family="Helvetica Neue" font-size="10.00">StringProcessor.h</text>
</a>
</g>
</g>
<!-- Node2 -->
<g id="Node000002" class="node">
<title>Node2</title>
<g id="a_Node000002"><a xlink:href="_string_u_i_8h.html" target="_top" xlink:title=" ">
<polygon fill="white" stroke="#666666" points="204.5,-261 139.5,-261 139.5,-242 204.5,-242 204.5,-261"/>
<text text-anchor="middle" x="172" y="-249" font-family="Helvetica Neue" font-size="10.00">StringUI.h</text>
</a>
</g>
</g>
<!-- Node1&#45;&gt;Node2 -->
<g id="edge1_Node000001_Node000002" class="edge">
<title>Node1&#45;&gt;Node2</title>
<g id="a_edge1_Node000001_Node000002"><a xlink:title=" ">
<path fill="none" stroke="#63b8ff" d="M299.58,-296.98C274.28,-288.16 234.55,-274.31 206.14,-264.41"/>
<polygon fill="#63b8ff" stroke="#63b8ff" points="207.21,-261.07 196.61,-261.08 204.9,-267.68 207.21,-261.07"/>
</a>
</g>
</g>
<!-- Node5 -->
<g id="Node000005" class="node">
<title>Node5</title>
<g id="a_Node000005"><a xlink:href="_module_processor_8h.html" target="_top" xlink:title=" ">
<polygon fill="white" stroke="#666666" points="392.5,-140 255.5,-140 255.5,-121 392.5,-121 392.5,-140"/>
<text text-anchor="middle" x="324" y="-128" font-family="Helvetica Neue" font-size="10.00">../dsp/ModuleProcessor.h</text>
</a>
</g>
</g>
<!-- Node1&#45;&gt;Node5 -->
<g id="edge13_Node000001_Node000005" class="edge">
<title>Node1&#45;&gt;Node5</title>
<g id="a_edge13_Node000001_Node000005"><a xlink:title=" ">
<path fill="none" stroke="#63b8ff" d="M324,-296.63C324,-269.64 324,-188.03 324,-150.61"/>
<polygon fill="#63b8ff" stroke="#63b8ff" points="327.5,-150.14 324,-140.14 320.5,-150.14 327.5,-150.14"/>
</a>
</g>
</g>
<!-- Node6 -->
<g id="Node000006" class="node">
<title>Node6</title>
<g id="a_Node000006"><a xlink:href="_utils_8h.html" target="_top" xlink:title=" ">
<polygon fill="white" stroke="#666666" points="348,-79.5 300,-79.5 300,-60.5 348,-60.5 348,-79.5"/>
<text text-anchor="middle" x="324" y="-67.5" font-family="Helvetica Neue" font-size="10.00">Utils.h</text>
</a>
</g>
</g>
<!-- Node1&#45;&gt;Node6 -->
<g id="edge12_Node000001_Node000006" class="edge">
<title>Node1&#45;&gt;Node6</title>
<g id="a_edge12_Node000001_Node000006"><a xlink:title=" ">
<path fill="none" stroke="#63b8ff" d="M329.9,-296.68C345.5,-272.77 387.64,-204.16 402,-140 403.84,-131.76 406.05,-128.41 402,-121 392.52,-103.66 374.17,-91.44 357.65,-83.43"/>
<polygon fill="#63b8ff" stroke="#63b8ff" points="358.77,-80.1 348.21,-79.19 355.9,-86.48 358.77,-80.1"/>
</a>
</g>
</g>
<!-- Node3 -->
<g id="Node000003" class="node">
<title>Node3</title>
<g id="a_Node000003"><a xlink:href="_module_u_i_8h.html" target="_top" xlink:title=" ">
<polygon fill="white" stroke="#666666" points="262,-200.5 160,-200.5 160,-181.5 262,-181.5 262,-200.5"/>
<text text-anchor="middle" x="211" y="-188.5" font-family="Helvetica Neue" font-size="10.00">../../ui/ModuleUI.h</text>
</a>
</g>
</g>
<!-- Node2&#45;&gt;Node3 -->
<g id="edge2_Node000002_Node000003" class="edge">
<title>Node2&#45;&gt;Node3</title>
<g id="a_edge2_Node000002_Node000003"><a xlink:title=" ">
<path fill="none" stroke="#63b8ff" d="M177.75,-241.87C183.46,-233.31 192.35,-219.97 199.51,-209.24"/>
<polygon fill="#63b8ff" stroke="#63b8ff" points="202.59,-210.93 205.22,-200.67 196.76,-207.05 202.59,-210.93"/>
</a>
</g>
</g>
<!-- Node8 -->
<g id="Node000008" class="node">
<title>Node8</title>
<g id="a_Node000008"><a xlink:href="_phi_dial_8h.html" target="_top" xlink:title=" ">
<polygon fill="white" stroke="#666666" points="182.5,-85 81.5,-85 81.5,-55 182.5,-55 182.5,-85"/>
<text text-anchor="start" x="89.5" y="-73" font-family="Helvetica Neue" font-size="10.00">../../ui/component</text>
<text text-anchor="middle" x="132" y="-62" font-family="Helvetica Neue" font-size="10.00">/PhiDial.h</text>
</a>
</g>
</g>
<!-- Node2&#45;&gt;Node8 -->
<g id="edge7_Node000002_Node000008" class="edge">
<title>Node2&#45;&gt;Node8</title>
<g id="a_edge7_Node000002_Node000008"><a xlink:title=" ">
<path fill="none" stroke="#63b8ff" d="M167.01,-241.94C162.14,-233.2 154.91,-219.1 151,-206 139.74,-168.33 135.1,-122.71 133.22,-95.31"/>
<polygon fill="#63b8ff" stroke="#63b8ff" points="136.7,-94.86 132.59,-85.09 129.71,-95.29 136.7,-94.86"/>
</a>
</g>
</g>
<!-- Node9 -->
<g id="Node000009" class="node">
<title>Node9</title>
<g id="a_Node000009"><a xlink:href="_phi_slider_button_8h.html" target="_top" xlink:title=" ">
<polygon fill="white" stroke="#666666" points="104,-206 0,-206 0,-176 104,-176 104,-206"/>
<text text-anchor="start" x="8" y="-194" font-family="Helvetica Neue" font-size="10.00">../../ui/component</text>
<text text-anchor="middle" x="52" y="-183" font-family="Helvetica Neue" font-size="10.00">/PhiSliderButton.h</text>
</a>
</g>
</g>
<!-- Node2&#45;&gt;Node9 -->
<g id="edge9_Node000002_Node000009" class="edge">
<title>Node2&#45;&gt;Node9</title>
<g id="a_edge9_Node000002_Node000009"><a xlink:title=" ">
<path fill="none" stroke="#63b8ff" d="M154.55,-241.99C137.79,-233.82 111.9,-221.2 90.33,-210.69"/>
<polygon fill="#63b8ff" stroke="#63b8ff" points="91.6,-207.41 81.08,-206.18 88.54,-213.71 91.6,-207.41"/>
</a>
</g>
</g>
<!-- Node4 -->
<g id="Node000004" class="node">
<title>Node4</title>
<g id="a_Node000004"><a xlink:href="_phi_colours_8h.html" target="_top" xlink:title=" ">
<polygon fill="white" stroke="#666666" points="237.5,-140 160.5,-140 160.5,-121 237.5,-121 237.5,-140"/>
<text text-anchor="middle" x="199" y="-128" font-family="Helvetica Neue" font-size="10.00">PhiColours.h</text>
</a>
</g>
</g>
<!-- Node3&#45;&gt;Node4 -->
<g id="edge3_Node000003_Node000004" class="edge">
<title>Node3&#45;&gt;Node4</title>
<g id="a_edge3_Node000003_Node000004"><a xlink:title=" ">
<path fill="none" stroke="#63b8ff" d="M209.23,-181.37C207.55,-173.16 204.96,-160.54 202.81,-150.05"/>
<polygon fill="#63b8ff" stroke="#63b8ff" points="206.22,-149.26 200.78,-140.17 199.36,-150.67 206.22,-149.26"/>
</a>
</g>
</g>
<!-- Node3&#45;&gt;Node5 -->
<g id="edge4_Node000003_Node000005" class="edge">
<title>Node3&#45;&gt;Node5</title>
<g id="a_edge4_Node000003_Node000005"><a xlink:title=" ">
<path fill="none" stroke="#63b8ff" d="M227.67,-181.37C246.28,-171.73 276.62,-156.03 298.28,-144.81"/>
<polygon fill="#63b8ff" stroke="#63b8ff" points="299.99,-147.87 307.26,-140.17 296.77,-141.66 299.99,-147.87"/>
</a>
</g>
</g>
<!-- Node5&#45;&gt;Node6 -->
<g id="edge5_Node000005_Node000006" class="edge">
<title>Node5&#45;&gt;Node6</title>
<g id="a_edge5_Node000005_Node000006"><a xlink:title=" ">
<path fill="none" stroke="#63b8ff" d="M324,-120.87C324,-112.75 324,-100.31 324,-89.89"/>
<polygon fill="#63b8ff" stroke="#63b8ff" points="327.5,-89.67 324,-79.67 320.5,-89.67 327.5,-89.67"/>
</a>
</g>
</g>
<!-- Node7 -->
<g id="Node000007" class="node">
<title>Node7</title>
<g id="a_Node000007"><a xlink:title=" ">
<polygon fill="#e0e0e0" stroke="#999999" points="172,-19 92,-19 92,0 172,0 172,-19"/>
<text text-anchor="middle" x="132" y="-7" font-family="Helvetica Neue" font-size="10.00">JuceHeader.h</text>
</a>
</g>
</g>
<!-- Node6&#45;&gt;Node7 -->
<g id="edge6_Node000006_Node000007" class="edge">
<title>Node6&#45;&gt;Node7</title>
<g id="a_edge6_Node000006_Node000007"><a xlink:title=" ">
<path fill="none" stroke="#63b8ff" d="M299.68,-61.59C266.98,-51.63 208.51,-33.81 169.98,-22.07"/>
<polygon fill="#63b8ff" stroke="#63b8ff" points="170.75,-18.65 160.16,-19.08 168.71,-25.34 170.75,-18.65"/>
</a>
</g>
</g>
<!-- Node8&#45;&gt;Node7 -->
<g id="edge8_Node000008_Node000007" class="edge">
<title>Node8&#45;&gt;Node7</title>
<g id="a_edge8_Node000008_Node000007"><a xlink:title=" ">
<path fill="none" stroke="#63b8ff" d="M132,-54.84C132,-47.21 132,-37.7 132,-29.45"/>
<polygon fill="#63b8ff" stroke="#63b8ff" points="135.5,-29.27 132,-19.27 128.5,-29.27 135.5,-29.27"/>
</a>
</g>
</g>
<!-- Node9&#45;&gt;Node4 -->
<g id="edge11_Node000009_Node000004" class="edge">
<title>Node9&#45;&gt;Node4</title>
<g id="a_edge11_Node000009_Node000004"><a xlink:title=" ">
<path fill="none" stroke="#63b8ff" d="M87.21,-175.99C111.74,-166.23 144.15,-153.33 167.76,-143.93"/>
<polygon fill="#63b8ff" stroke="#63b8ff" points="169.29,-147.09 177.29,-140.14 166.71,-140.58 169.29,-147.09"/>
</a>
</g>
</g>
<!-- Node9&#45;&gt;Node7 -->
<g id="edge10_Node000009_Node000007" class="edge">
<title>Node9&#45;&gt;Node7</title>
<g id="a_edge10_Node000009_Node000007"><a xlink:title=" ">
<path fill="none" stroke="#63b8ff" d="M50.71,-175.82C49.05,-149.86 48.74,-93.82 72,-55 79.76,-42.06 92.85,-31.69 104.84,-24.23"/>
<polygon fill="#63b8ff" stroke="#63b8ff" points="106.79,-27.14 113.68,-19.09 103.27,-21.09 106.79,-27.14"/>
</a>
</g>
</g>
</g>
</svg>
