<?xml version="1.0" encoding="UTF-8" standalone="no"?>
<!DOCTYPE svg PUBLIC "-//W3C//DTD SVG 1.1//EN"
 "http://www.w3.org/Graphics/SVG/1.1/DTD/svg11.dtd">
<!-- Generated by graphviz version 2.38.0 (20140413.2041)
 -->
<!-- Title: StringProcessor.h Pages: 1 -->
<svg width="385pt" height="308pt"
 viewBox="0.00 0.00 384.50 308.00" xmlns="http://www.w3.org/2000/svg" xmlns:xlink="http://www.w3.org/1999/xlink">
<g id="graph0" class="graph" transform="scale(1 1) rotate(0) translate(4 304)">
<title>StringProcessor.h</title>
<polygon fill="white" stroke="none" points="-4,4 -4,-304 380.5,-304 380.5,4 -4,4"/>
<!-- Node1 -->
<g id="node1" class="node"><title>Node1</title>
<polygon fill="#bfbfbf" stroke="black" points="182,-280.5 182,-299.5 283,-299.5 283,-280.5 182,-280.5"/>
<text text-anchor="middle" x="232.5" y="-287.5" font-family="Helvetica Neue" font-size="10.00">StringProcessor.h</text>
</g>
<!-- Node2 -->
<g id="node2" class="node"><title>Node2</title>
<g id="a_node2"><a xlink:href="_string_u_i_8h.html" target="_top" xlink:title="StringUI.h">
<polygon fill="white" stroke="black" points="154.5,-224.5 154.5,-243.5 218.5,-243.5 218.5,-224.5 154.5,-224.5"/>
<text text-anchor="middle" x="186.5" y="-231.5" font-family="Helvetica Neue" font-size="10.00">StringUI.h</text>
</a>
</g>
</g>
<!-- Node1&#45;&gt;Node2 -->
<g id="edge1" class="edge"><title>Node1&#45;&gt;Node2</title>
<path fill="none" stroke="midnightblue" d="M224.904,-280.083C218.273,-272.298 208.479,-260.801 200.442,-251.367"/>
<polygon fill="midnightblue" stroke="midnightblue" points="203.104,-249.094 193.955,-243.751 197.775,-253.633 203.104,-249.094"/>
</g>
<!-- Node9 -->
<g id="node9" class="node"><title>Node9</title>
<g id="a_node9"><a xlink:href="_d_s_p_utils_8h.html" target="_top" xlink:title="../../DSPUtils.h">
<polygon fill="white" stroke="black" points="237,-224.5 237,-243.5 322,-243.5 322,-224.5 237,-224.5"/>
<text text-anchor="middle" x="279.5" y="-231.5" font-family="Helvetica Neue" font-size="10.00">../../DSPUtils.h</text>
</a>
</g>
</g>
<!-- Node1&#45;&gt;Node9 -->
<g id="edge8" class="edge"><title>Node1&#45;&gt;Node9</title>
<path fill="none" stroke="midnightblue" d="M240.261,-280.083C247.037,-272.298 257.043,-260.801 265.255,-251.367"/>
<polygon fill="midnightblue" stroke="midnightblue" points="267.958,-253.592 271.883,-243.751 262.678,-248.996 267.958,-253.592"/>
</g>
<!-- Node3 -->
<g id="node3" class="node"><title>Node3</title>
<g id="a_node3"><a xlink:href="_module_processor_8h.html" target="_top" xlink:title="../../ModuleProcessor.h">
<polygon fill="white" stroke="black" points="-7.10543e-15,-168.5 -7.10543e-15,-187.5 125,-187.5 125,-168.5 -7.10543e-15,-168.5"/>
<text text-anchor="middle" x="62.5" y="-175.5" font-family="Helvetica Neue" font-size="10.00">../../ModuleProcessor.h</text>
</a>
</g>
</g>
<!-- Node2&#45;&gt;Node3 -->
<g id="edge2" class="edge"><title>Node2&#45;&gt;Node3</title>
<path fill="none" stroke="midnightblue" d="M166.852,-224.444C146.535,-215.596 114.597,-201.687 91.4023,-191.586"/>
<polygon fill="midnightblue" stroke="midnightblue" points="92.6221,-188.3 82.0562,-187.516 89.8271,-194.718 92.6221,-188.3"/>
</g>
<!-- Node7 -->
<g id="node7" class="node"><title>Node7</title>
<g id="a_node7"><a xlink:href="_phi_dial_8h.html" target="_top" xlink:title="../../ui/PhiDial.h">
<polygon fill="white" stroke="black" points="143,-168.5 143,-187.5 230,-187.5 230,-168.5 143,-168.5"/>
<text text-anchor="middle" x="186.5" y="-175.5" font-family="Helvetica Neue" font-size="10.00">../../ui/PhiDial.h</text>
</a>
</g>
</g>
<!-- Node2&#45;&gt;Node7 -->
<g id="edge6" class="edge"><title>Node2&#45;&gt;Node7</title>
<path fill="none" stroke="midnightblue" d="M186.5,-224.083C186.5,-217.006 186.5,-206.861 186.5,-197.986"/>
<polygon fill="midnightblue" stroke="midnightblue" points="190,-197.751 186.5,-187.751 183,-197.751 190,-197.751"/>
</g>
<!-- Node8 -->
<g id="node8" class="node"><title>Node8</title>
<g id="a_node8"><a xlink:href="_phi_slider_button_8h.html" target="_top" xlink:title="../../ui/PhiSliderButton.h">
<polygon fill="white" stroke="black" points="248.5,-168.5 248.5,-187.5 376.5,-187.5 376.5,-168.5 248.5,-168.5"/>
<text text-anchor="middle" x="312.5" y="-175.5" font-family="Helvetica Neue" font-size="10.00">../../ui/PhiSliderButton.h</text>
</a>
</g>
</g>
<!-- Node2&#45;&gt;Node8 -->
<g id="edge7" class="edge"><title>Node2&#45;&gt;Node8</title>
<path fill="none" stroke="midnightblue" d="M206.465,-224.444C227.109,-215.596 259.563,-201.687 283.132,-191.586"/>
<polygon fill="midnightblue" stroke="midnightblue" points="284.816,-194.673 292.628,-187.516 282.058,-188.239 284.816,-194.673"/>
</g>
<!-- Node4 -->
<g id="node4" class="node"><title>Node4</title>
<g id="a_node4"><a xlink:href="_module_u_i_8h.html" target="_top" xlink:title="ModuleUI.h">
<polygon fill="white" stroke="black" points="27.5,-112.5 27.5,-131.5 97.5,-131.5 97.5,-112.5 27.5,-112.5"/>
<text text-anchor="middle" x="62.5" y="-119.5" font-family="Helvetica Neue" font-size="10.00">ModuleUI.h</text>
</a>
</g>
</g>
<!-- Node3&#45;&gt;Node4 -->
<g id="edge3" class="edge"><title>Node3&#45;&gt;Node4</title>
<path fill="none" stroke="midnightblue" d="M62.5,-168.083C62.5,-161.006 62.5,-150.861 62.5,-141.986"/>
<polygon fill="midnightblue" stroke="midnightblue" points="66.0001,-141.751 62.5,-131.751 59.0001,-141.751 66.0001,-141.751"/>
</g>
<!-- Node5 -->
<g id="node5" class="node"><title>Node5</title>
<g id="a_node5"><a xlink:href="_plug_8h.html" target="_top" xlink:title="Plug.h">
<polygon fill="white" stroke="black" points="39.5,-56.5 39.5,-75.5 85.5,-75.5 85.5,-56.5 39.5,-56.5"/>
<text text-anchor="middle" x="62.5" y="-63.5" font-family="Helvetica Neue" font-size="10.00">Plug.h</text>
</a>
</g>
</g>
<!-- Node4&#45;&gt;Node5 -->
<g id="edge4" class="edge"><title>Node4&#45;&gt;Node5</title>
<path fill="none" stroke="midnightblue" d="M62.5,-112.083C62.5,-105.006 62.5,-94.8611 62.5,-85.9865"/>
<polygon fill="midnightblue" stroke="midnightblue" points="66.0001,-85.751 62.5,-75.7511 59.0001,-85.7511 66.0001,-85.751"/>
</g>
<!-- Node6 -->
<g id="node6" class="node"><title>Node6</title>
<g id="a_node6"><a xlink:href="_plug_handler_8h.html" target="_top" xlink:title="PlugHandler.h">
<polygon fill="white" stroke="black" points="21,-0.5 21,-19.5 104,-19.5 104,-0.5 21,-0.5"/>
<text text-anchor="middle" x="62.5" y="-7.5" font-family="Helvetica Neue" font-size="10.00">PlugHandler.h</text>
</a>
</g>
</g>
<!-- Node5&#45;&gt;Node6 -->
<g id="edge5" class="edge"><title>Node5&#45;&gt;Node6</title>
<path fill="none" stroke="midnightblue" d="M62.5,-56.083C62.5,-49.0059 62.5,-38.8611 62.5,-29.9865"/>
<polygon fill="midnightblue" stroke="midnightblue" points="66.0001,-29.751 62.5,-19.7511 59.0001,-29.7511 66.0001,-29.751"/>
</g>
</g>
</svg>
