<?xml version="1.0" encoding="UTF-8" standalone="no"?>
<!DOCTYPE svg PUBLIC "-//W3C//DTD SVG 1.1//EN"
 "http://www.w3.org/Graphics/SVG/1.1/DTD/svg11.dtd">
<!-- Generated by graphviz version 2.43.0 (0)
 -->
<!-- Title: Utils.h Pages: 1 -->
<svg width="1485pt" height="467pt"
 viewBox="0.00 0.00 1484.50 467.00" xmlns="http://www.w3.org/2000/svg" xmlns:xlink="http://www.w3.org/1999/xlink">
<g id="graph0" class="graph" transform="scale(1 1) rotate(0) translate(4 463)">
<title>Utils.h</title>
<!-- Node1 -->
<g id="Node000001" class="node">
<title>Node1</title>
<g id="a_Node000001"><a xlink:title=" ">
<polygon fill="#999999" stroke="#666666" points="887.5,-459 839.5,-459 839.5,-440 887.5,-440 887.5,-459"/>
<text text-anchor="middle" x="863.5" y="-447" font-family="Helvetica Neue" font-size="10.00">Utils.h</text>
</a>
</g>
</g>
<!-- Node2 -->
<g id="Node000002" class="node">
<title>Node2</title>
<g id="a_Node000002"><a xlink:href="_module_processor_8h.html" target="_top" xlink:title=" ">
<polygon fill="white" stroke="#666666" points="690.5,-404 582.5,-404 582.5,-385 690.5,-385 690.5,-404"/>
<text text-anchor="middle" x="636.5" y="-392" font-family="Helvetica Neue" font-size="10.00">ModuleProcessor.h</text>
</a>
</g>
</g>
<!-- Node1&#45;&gt;Node2 -->
<g id="edge1_Node000001_Node000002" class="edge">
<title>Node1&#45;&gt;Node2</title>
<g id="a_edge1_Node000001_Node000002"><a xlink:title=" ">
<path fill="none" stroke="#63b8ff" d="M829.43,-440.54C787.34,-430.72 716.05,-414.07 672.92,-404"/>
<polygon fill="#63b8ff" stroke="#63b8ff" points="828.67,-443.96 839.21,-442.83 830.26,-437.15 828.67,-443.96"/>
</a>
</g>
</g>
<!-- Node36 -->
<g id="Node000036" class="node">
<title>Node36</title>
<g id="a_Node000036"><a xlink:href="_string_processor_8h.html" target="_top" xlink:title=" ">
<polygon fill="white" stroke="#666666" points="964,-239 863,-239 863,-220 964,-220 964,-239"/>
<text text-anchor="middle" x="913.5" y="-227" font-family="Helvetica Neue" font-size="10.00">StringProcessor.h</text>
</a>
</g>
</g>
<!-- Node1&#45;&gt;Node36 -->
<g id="edge65_Node000001_Node000036" class="edge">
<title>Node1&#45;&gt;Node36</title>
<g id="a_edge65_Node000001_Node000036"><a xlink:title=" ">
<path fill="none" stroke="#63b8ff" d="M881.92,-433.16C910.8,-407.76 965.6,-353.8 986.5,-294 989.29,-286.03 990.63,-282.36 986.5,-275 976.62,-257.4 956.63,-245.94 940.07,-239.06"/>
<polygon fill="#63b8ff" stroke="#63b8ff" points="879.47,-430.65 874.18,-439.82 884.04,-435.95 879.47,-430.65"/>
</a>
</g>
</g>
<!-- Node3 -->
<g id="Node000003" class="node">
<title>Node3</title>
<g id="a_Node000003"><a xlink:href="_filter_processor_8h.html" target="_top" xlink:title=" ">
<polygon fill="white" stroke="#666666" points="806,-239 709,-239 709,-220 806,-220 806,-239"/>
<text text-anchor="middle" x="757.5" y="-227" font-family="Helvetica Neue" font-size="10.00">FilterProcessor.h</text>
</a>
</g>
</g>
<!-- Node2&#45;&gt;Node3 -->
<g id="edge2_Node000002_Node000003" class="edge">
<title>Node2&#45;&gt;Node3</title>
<g id="a_edge2_Node000002_Node000003"><a xlink:title=" ">
<path fill="none" stroke="#63b8ff" d="M697.97,-383.16C781.58,-367.7 924.24,-335.83 954.5,-294 959.45,-287.16 959.77,-281.6 954.5,-275 936.27,-252.2 858.42,-240.23 806.22,-234.65"/>
<polygon fill="#63b8ff" stroke="#63b8ff" points="697.29,-379.73 688.08,-384.97 698.55,-386.62 697.29,-379.73"/>
</a>
</g>
</g>
<!-- Node12 -->
<g id="Node000012" class="node">
<title>Node12</title>
<g id="a_Node000012"><a xlink:href="_friction_processor_8h.html" target="_top" xlink:title=" ">
<polygon fill="white" stroke="#666666" points="345.5,-239 237.5,-239 237.5,-220 345.5,-220 345.5,-239"/>
<text text-anchor="middle" x="291.5" y="-227" font-family="Helvetica Neue" font-size="10.00">FrictionProcessor.h</text>
</a>
</g>
</g>
<!-- Node2&#45;&gt;Node12 -->
<g id="edge13_Node000002_Node000012" class="edge">
<title>Node2&#45;&gt;Node12</title>
<g id="a_edge13_Node000002_Node000012"><a xlink:title=" ">
<path fill="none" stroke="#63b8ff" d="M572.19,-390.72C494.94,-386.25 371.02,-375.15 333.5,-349 296.43,-323.17 291.85,-261.63 291.45,-239.02"/>
<polygon fill="#63b8ff" stroke="#63b8ff" points="572.13,-394.22 582.3,-391.28 572.51,-387.23 572.13,-394.22"/>
</a>
</g>
</g>
<!-- Node13 -->
<g id="Node000013" class="node">
<title>Node13</title>
<g id="a_Node000013"><a xlink:href="_gain_processor_8h.html" target="_top" xlink:title=" ">
<polygon fill="white" stroke="#666666" points="691,-239 596,-239 596,-220 691,-220 691,-239"/>
<text text-anchor="middle" x="643.5" y="-227" font-family="Helvetica Neue" font-size="10.00">GainProcessor.h</text>
</a>
</g>
</g>
<!-- Node2&#45;&gt;Node13 -->
<g id="edge15_Node000002_Node000013" class="edge">
<title>Node2&#45;&gt;Node13</title>
<g id="a_edge15_Node000002_Node000013"><a xlink:title=" ">
<path fill="none" stroke="#63b8ff" d="M678.32,-381.9C736.77,-363.57 831.77,-324.84 794.5,-275 781.98,-258.26 730.49,-245.63 691.08,-238.18"/>
<polygon fill="#63b8ff" stroke="#63b8ff" points="677.12,-378.6 668.58,-384.87 679.17,-385.3 677.12,-378.6"/>
</a>
</g>
</g>
<!-- Node14 -->
<g id="Node000014" class="node">
<title>Node14</title>
<g id="a_Node000014"><a xlink:href="_grit_processor_8h.html" target="_top" xlink:title=" ">
<polygon fill="white" stroke="#666666" points="219.5,-239 129.5,-239 129.5,-220 219.5,-220 219.5,-239"/>
<text text-anchor="middle" x="174.5" y="-227" font-family="Helvetica Neue" font-size="10.00">GritProcessor.h</text>
</a>
</g>
</g>
<!-- Node2&#45;&gt;Node14 -->
<g id="edge17_Node000002_Node000014" class="edge">
<title>Node2&#45;&gt;Node14</title>
<g id="a_edge17_Node000002_Node000014"><a xlink:title=" ">
<path fill="none" stroke="#63b8ff" d="M572.14,-389.04C491.02,-382.68 356.72,-369.45 311.5,-349 252.47,-322.31 199.73,-261.84 181.38,-239.24"/>
<polygon fill="#63b8ff" stroke="#63b8ff" points="572,-392.54 582.24,-389.82 572.54,-385.56 572,-392.54"/>
</a>
</g>
</g>
<!-- Node15 -->
<g id="Node000015" class="node">
<title>Node15</title>
<g id="a_Node000015"><a xlink:href="_impulse_processor_8h.html" target="_top" xlink:title=" ">
<polygon fill="white" stroke="#666666" points="111,-239 0,-239 0,-220 111,-220 111,-239"/>
<text text-anchor="middle" x="55.5" y="-227" font-family="Helvetica Neue" font-size="10.00">ImpulseProcessor.h</text>
</a>
</g>
</g>
<!-- Node2&#45;&gt;Node15 -->
<g id="edge19_Node000002_Node000015" class="edge">
<title>Node2&#45;&gt;Node15</title>
<g id="a_edge19_Node000002_Node000015"><a xlink:title=" ">
<path fill="none" stroke="#63b8ff" d="M572.29,-391.38C439.02,-385.58 139.1,-364.79 70.5,-294 55.99,-279.03 54.59,-252.78 54.95,-239.19"/>
<polygon fill="#63b8ff" stroke="#63b8ff" points="572.22,-394.88 582.36,-391.8 572.51,-387.89 572.22,-394.88"/>
</a>
</g>
</g>
<!-- Node16 -->
<g id="Node000016" class="node">
<title>Node16</title>
<g id="a_Node000016"><a xlink:href="_l_f_o_processor_8h.html" target="_top" xlink:title=" ">
<polygon fill="white" stroke="#666666" points="455,-239 364,-239 364,-220 455,-220 455,-239"/>
<text text-anchor="middle" x="409.5" y="-227" font-family="Helvetica Neue" font-size="10.00">LFOProcessor.h</text>
</a>
</g>
</g>
<!-- Node2&#45;&gt;Node16 -->
<g id="edge21_Node000002_Node000016" class="edge">
<title>Node2&#45;&gt;Node16</title>
<g id="a_edge21_Node000002_Node000016"><a xlink:title=" ">
<path fill="none" stroke="#63b8ff" d="M572.03,-392.18C516.95,-388.85 436.81,-378.71 373.5,-349 339.55,-333.07 325.15,-328.08 309.5,-294 296.28,-265.22 335.16,-248.09 368.23,-239"/>
<polygon fill="#63b8ff" stroke="#63b8ff" points="572.18,-395.69 582.35,-392.74 572.56,-388.7 572.18,-395.69"/>
</a>
</g>
</g>
<!-- Node17 -->
<g id="Node000017" class="node">
<title>Node17</title>
<g id="a_Node000017"><a xlink:href="_module_u_i_8h.html" target="_top" xlink:title=" ">
<polygon fill="white" stroke="#666666" points="672.5,-349 600.5,-349 600.5,-330 672.5,-330 672.5,-349"/>
<text text-anchor="middle" x="636.5" y="-337" font-family="Helvetica Neue" font-size="10.00">ModuleUI.h</text>
</a>
</g>
</g>
<!-- Node2&#45;&gt;Node17 -->
<g id="edge23_Node000002_Node000017" class="edge">
<title>Node2&#45;&gt;Node17</title>
<g id="a_edge23_Node000002_Node000017"><a xlink:title=" ">
<path fill="none" stroke="#63b8ff" d="M636.5,-374.66C636.5,-365.93 636.5,-355.99 636.5,-349.09"/>
<polygon fill="#63b8ff" stroke="#63b8ff" points="633,-374.75 636.5,-384.75 640,-374.75 633,-374.75"/>
</a>
</g>
</g>
<!-- Node27 -->
<g id="Node000027" class="node">
<title>Node27</title>
<g id="a_Node000027"><a xlink:href="_output_processor_8h.html" target="_top" xlink:title=" ">
<polygon fill="white" stroke="#666666" points="578,-239 473,-239 473,-220 578,-220 578,-239"/>
<text text-anchor="middle" x="525.5" y="-227" font-family="Helvetica Neue" font-size="10.00">OutputProcessor.h</text>
</a>
</g>
</g>
<!-- Node2&#45;&gt;Node27 -->
<g id="edge62_Node000002_Node000027" class="edge">
<title>Node2&#45;&gt;Node27</title>
<g id="a_edge62_Node000002_Node000027"><a xlink:title=" ">
<path fill="none" stroke="#63b8ff" d="M574.73,-383.16C490.71,-367.69 347.29,-335.81 316.5,-294 311.49,-287.2 311.19,-281.56 316.5,-275 326.36,-262.82 414.29,-247.33 472.91,-238.2"/>
<polygon fill="#63b8ff" stroke="#63b8ff" points="574.21,-386.62 584.67,-384.96 575.46,-379.73 574.21,-386.62"/>
</a>
</g>
</g>
<!-- Node28 -->
<g id="Node000028" class="node">
<title>Node28</title>
<g id="a_Node000028"><a xlink:href="_state_8h.html" target="_top" xlink:title=" ">
<polygon fill="white" stroke="#666666" points="1165,-294 1114,-294 1114,-275 1165,-275 1165,-294"/>
<text text-anchor="middle" x="1139.5" y="-282" font-family="Helvetica Neue" font-size="10.00">State.h</text>
</a>
</g>
</g>
<!-- Node2&#45;&gt;Node28 -->
<g id="edge63_Node000002_Node000028" class="edge">
<title>Node2&#45;&gt;Node28</title>
<g id="a_edge63_Node000002_Node000028"><a xlink:title=" ">
<path fill="none" stroke="#63b8ff" d="M700.83,-393.89C779.51,-392.63 915.89,-384.77 1026.5,-349 1066.54,-336.05 1108.38,-308.14 1128.02,-294.03"/>
<polygon fill="#63b8ff" stroke="#63b8ff" points="700.54,-390.39 690.59,-394.02 700.63,-397.39 700.54,-390.39"/>
</a>
</g>
</g>
<!-- Node2&#45;&gt;Node36 -->
<g id="edge64_Node000002_Node000036" class="edge">
<title>Node2&#45;&gt;Node36</title>
<g id="a_edge64_Node000002_Node000036"><a xlink:title=" ">
<path fill="none" stroke="#63b8ff" d="M700.92,-389.19C752.59,-384.06 826.19,-372.94 886.5,-349 927.97,-332.53 949.28,-333.26 970.5,-294 982.69,-271.45 952.37,-250.38 931.43,-239.09"/>
<polygon fill="#63b8ff" stroke="#63b8ff" points="700.51,-385.72 690.88,-390.14 701.17,-392.68 700.51,-385.72"/>
</a>
</g>
</g>
<!-- Node4 -->
<g id="Node000004" class="node">
<title>Node4</title>
<g id="a_Node000004"><a xlink:href="_modules_8h.html" target="_top" xlink:title=" ">
<polygon fill="white" stroke="#666666" points="618,-184 551,-184 551,-165 618,-165 618,-184"/>
<text text-anchor="middle" x="584.5" y="-172" font-family="Helvetica Neue" font-size="10.00">Modules.h</text>
</a>
</g>
</g>
<!-- Node3&#45;&gt;Node4 -->
<g id="edge3_Node000003_Node000004" class="edge">
<title>Node3&#45;&gt;Node4</title>
<g id="a_edge3_Node000003_Node000004"><a xlink:title=" ">
<path fill="none" stroke="#63b8ff" d="M719.73,-216.93C687.41,-207.03 641.64,-193.01 612.51,-184.08"/>
<polygon fill="#63b8ff" stroke="#63b8ff" points="719.12,-220.4 729.7,-219.98 721.17,-213.71 719.12,-220.4"/>
</a>
</g>
</g>
<!-- Node5 -->
<g id="Node000005" class="node">
<title>Node5</title>
<g id="a_Node000005"><a xlink:href="_patcher_8h.html" target="_top" xlink:title=" ">
<polygon fill="white" stroke="#666666" points="1135,-129 1074,-129 1074,-110 1135,-110 1135,-129"/>
<text text-anchor="middle" x="1104.5" y="-117" font-family="Helvetica Neue" font-size="10.00">Patcher.h</text>
</a>
</g>
</g>
<!-- Node4&#45;&gt;Node5 -->
<g id="edge4_Node000004_Node000005" class="edge">
<title>Node4&#45;&gt;Node5</title>
<g id="a_edge4_Node000004_Node000005"><a xlink:title=" ">
<path fill="none" stroke="#63b8ff" d="M628.25,-169.04C730.99,-158.57 985.62,-132.62 1073.83,-123.63"/>
<polygon fill="#63b8ff" stroke="#63b8ff" points="627.81,-165.57 618.22,-170.06 628.52,-172.53 627.81,-165.57"/>
</a>
</g>
</g>
<!-- Node11 -->
<g id="Node000011" class="node">
<title>Node11</title>
<g id="a_Node000011"><a xlink:href="_state_8cpp.html" target="_top" xlink:title=" ">
<polygon fill="white" stroke="#666666" points="780.5,-129 718.5,-129 718.5,-110 780.5,-110 780.5,-129"/>
<text text-anchor="middle" x="749.5" y="-117" font-family="Helvetica Neue" font-size="10.00">State.cpp</text>
</a>
</g>
</g>
<!-- Node4&#45;&gt;Node11 -->
<g id="edge12_Node000004_Node000011" class="edge">
<title>Node4&#45;&gt;Node11</title>
<g id="a_edge12_Node000004_Node000011"><a xlink:title=" ">
<path fill="none" stroke="#63b8ff" d="M620.93,-161.8C651.72,-151.91 695.12,-137.97 722.78,-129.08"/>
<polygon fill="#63b8ff" stroke="#63b8ff" points="619.46,-158.59 611.01,-164.98 621.6,-165.26 619.46,-158.59"/>
</a>
</g>
</g>
<!-- Node6 -->
<g id="Node000006" class="node">
<title>Node6</title>
<g id="a_Node000006"><a xlink:href="_connections_8cpp.html" target="_top" xlink:title=" ">
<polygon fill="white" stroke="#666666" points="1152,-19 1055,-19 1055,0 1152,0 1152,-19"/>
<text text-anchor="middle" x="1103.5" y="-7" font-family="Helvetica Neue" font-size="10.00">Connections.cpp</text>
</a>
</g>
</g>
<!-- Node5&#45;&gt;Node6 -->
<g id="edge5_Node000005_Node000006" class="edge">
<title>Node5&#45;&gt;Node6</title>
<g id="a_edge5_Node000005_Node000006"><a xlink:title=" ">
<path fill="none" stroke="#63b8ff" d="M1104.32,-99.48C1104.11,-75.84 1103.74,-36.5 1103.58,-19.16"/>
<polygon fill="#63b8ff" stroke="#63b8ff" points="1100.83,-99.69 1104.42,-109.66 1107.83,-99.63 1100.83,-99.69"/>
</a>
</g>
</g>
<!-- Node7 -->
<g id="Node000007" class="node">
<title>Node7</title>
<g id="a_Node000007"><a xlink:href="_main_component_8h.html" target="_top" xlink:title=" ">
<polygon fill="white" stroke="#666666" points="1309.5,-74 1203.5,-74 1203.5,-55 1309.5,-55 1309.5,-74"/>
<text text-anchor="middle" x="1256.5" y="-62" font-family="Helvetica Neue" font-size="10.00">MainComponent.h</text>
</a>
</g>
</g>
<!-- Node5&#45;&gt;Node7 -->
<g id="edge6_Node000005_Node000007" class="edge">
<title>Node5&#45;&gt;Node7</title>
<g id="a_edge6_Node000005_Node000007"><a xlink:title=" ">
<path fill="none" stroke="#63b8ff" d="M1138.43,-106.67C1166.77,-96.79 1206.52,-82.93 1231.89,-74.08"/>
<polygon fill="#63b8ff" stroke="#63b8ff" points="1137.21,-103.39 1128.92,-109.98 1139.52,-110 1137.21,-103.39"/>
</a>
</g>
</g>
<!-- Node10 -->
<g id="Node000010" class="node">
<title>Node10</title>
<g id="a_Node000010"><a xlink:href="_patcher_8cpp.html" target="_top" xlink:title=" ">
<polygon fill="white" stroke="#666666" points="1242.5,-19 1170.5,-19 1170.5,0 1242.5,0 1242.5,-19"/>
<text text-anchor="middle" x="1206.5" y="-7" font-family="Helvetica Neue" font-size="10.00">Patcher.cpp</text>
</a>
</g>
</g>
<!-- Node5&#45;&gt;Node10 -->
<g id="edge11_Node000005_Node000010" class="edge">
<title>Node5&#45;&gt;Node10</title>
<g id="a_edge11_Node000005_Node000010"><a xlink:title=" ">
<path fill="none" stroke="#63b8ff" d="M1119.8,-102.3C1141.71,-79.1 1181.28,-37.21 1198.32,-19.16"/>
<polygon fill="#63b8ff" stroke="#63b8ff" points="1117.17,-99.99 1112.85,-109.66 1122.26,-104.79 1117.17,-99.99"/>
</a>
</g>
</g>
<!-- Node7&#45;&gt;Node6 -->
<g id="edge7_Node000007_Node000006" class="edge">
<title>Node7&#45;&gt;Node6</title>
<g id="a_edge7_Node000007_Node000006"><a xlink:title=" ">
<path fill="none" stroke="#63b8ff" d="M1222.35,-51.67C1193.82,-41.79 1153.81,-27.93 1128.27,-19.08"/>
<polygon fill="#63b8ff" stroke="#63b8ff" points="1221.32,-55.02 1231.92,-54.98 1223.61,-48.4 1221.32,-55.02"/>
</a>
</g>
</g>
<!-- Node8 -->
<g id="Node000008" class="node">
<title>Node8</title>
<g id="a_Node000008"><a xlink:href="_main_8cpp.html" target="_top" xlink:title=" ">
<polygon fill="white" stroke="#666666" points="1465,-19 1404,-19 1404,0 1465,0 1465,-19"/>
<text text-anchor="middle" x="1434.5" y="-7" font-family="Helvetica Neue" font-size="10.00">Main.cpp</text>
</a>
</g>
</g>
<!-- Node7&#45;&gt;Node8 -->
<g id="edge8_Node000007_Node000008" class="edge">
<title>Node7&#45;&gt;Node8</title>
<g id="a_edge8_Node000007_Node000008"><a xlink:title=" ">
<path fill="none" stroke="#63b8ff" d="M1294.94,-52.06C1328.2,-42.15 1375.58,-28.04 1405.68,-19.08"/>
<polygon fill="#63b8ff" stroke="#63b8ff" points="1293.68,-48.78 1285.1,-54.98 1295.68,-55.49 1293.68,-48.78"/>
</a>
</g>
</g>
<!-- Node9 -->
<g id="Node000009" class="node">
<title>Node9</title>
<g id="a_Node000009"><a xlink:href="_main_component_8cpp.html" target="_top" xlink:title=" ">
<polygon fill="white" stroke="#666666" points="1378,-19 1261,-19 1261,0 1378,0 1378,-19"/>
<text text-anchor="middle" x="1319.5" y="-7" font-family="Helvetica Neue" font-size="10.00">MainComponent.cpp</text>
</a>
</g>
</g>
<!-- Node7&#45;&gt;Node9 -->
<g id="edge9_Node000007_Node000009" class="edge">
<title>Node7&#45;&gt;Node9</title>
<g id="a_edge9_Node000007_Node000009"><a xlink:title=" ">
<path fill="none" stroke="#63b8ff" d="M1274.54,-48.32C1285.77,-38.87 1299.82,-27.06 1309.19,-19.17"/>
<polygon fill="#63b8ff" stroke="#63b8ff" points="1272.02,-45.87 1266.62,-54.98 1276.53,-51.23 1272.02,-45.87"/>
</a>
</g>
</g>
<!-- Node7&#45;&gt;Node10 -->
<g id="edge10_Node000007_Node000010" class="edge">
<title>Node7&#45;&gt;Node10</title>
<g id="a_edge10_Node000007_Node000010"><a xlink:title=" ">
<path fill="none" stroke="#63b8ff" d="M1241.16,-47.24C1232.4,-37.95 1221.76,-26.68 1214.6,-19.09"/>
<polygon fill="#63b8ff" stroke="#63b8ff" points="1238.84,-49.88 1248.24,-54.75 1243.93,-45.07 1238.84,-49.88"/>
</a>
</g>
</g>
<!-- Node12&#45;&gt;Node4 -->
<g id="edge14_Node000012_Node000004" class="edge">
<title>Node12&#45;&gt;Node4</title>
<g id="a_edge14_Node000012_Node000004"><a xlink:title=" ">
<path fill="none" stroke="#63b8ff" d="M348.67,-218.16C408.8,-207.28 501.41,-190.53 550.78,-181.6"/>
<polygon fill="#63b8ff" stroke="#63b8ff" points="347.79,-214.76 338.58,-219.98 349.04,-221.65 347.79,-214.76"/>
</a>
</g>
</g>
<!-- Node13&#45;&gt;Node4 -->
<g id="edge16_Node000013_Node000004" class="edge">
<title>Node13&#45;&gt;Node4</title>
<g id="a_edge16_Node000013_Node000004"><a xlink:title=" ">
<path fill="none" stroke="#63b8ff" d="M626.3,-213.04C615.83,-203.64 602.85,-191.98 594.15,-184.17"/>
<polygon fill="#63b8ff" stroke="#63b8ff" points="624.24,-215.91 634.02,-219.98 628.92,-210.7 624.24,-215.91"/>
</a>
</g>
</g>
<!-- Node14&#45;&gt;Node4 -->
<g id="edge18_Node000014_Node000004" class="edge">
<title>Node14&#45;&gt;Node4</title>
<g id="a_edge18_Node000014_Node000004"><a xlink:title=" ">
<path fill="none" stroke="#63b8ff" d="M229.64,-219.88C353.97,-202.46 488.89,-186.5 550.58,-179.38"/>
<polygon fill="#63b8ff" stroke="#63b8ff" points="228.98,-216.44 219.57,-221.3 229.96,-223.37 228.98,-216.44"/>
</a>
</g>
</g>
<!-- Node15&#45;&gt;Node4 -->
<g id="edge20_Node000015_Node000004" class="edge">
<title>Node15&#45;&gt;Node4</title>
<g id="a_edge20_Node000015_Node000004"><a xlink:title=" ">
<path fill="none" stroke="#63b8ff" d="M121.16,-219.96C289.02,-201.1 476.04,-184.7 550.98,-178.32"/>
<polygon fill="#63b8ff" stroke="#63b8ff" points="120.7,-216.49 111.15,-221.09 121.48,-223.45 120.7,-216.49"/>
</a>
</g>
</g>
<!-- Node16&#45;&gt;Node4 -->
<g id="edge22_Node000016_Node000004" class="edge">
<title>Node16&#45;&gt;Node4</title>
<g id="a_edge22_Node000016_Node000004"><a xlink:title=" ">
<path fill="none" stroke="#63b8ff" d="M447.29,-217.06C480,-207.15 526.57,-193.04 556.16,-184.08"/>
<polygon fill="#63b8ff" stroke="#63b8ff" points="446.17,-213.74 437.62,-219.98 448.2,-220.44 446.17,-213.74"/>
</a>
</g>
</g>
<!-- Node18 -->
<g id="Node000018" class="node">
<title>Node18</title>
<g id="a_Node000018"><a xlink:href="_filter_u_i_8h.html" target="_top" xlink:title=" ">
<polygon fill="white" stroke="#666666" points="786,-294 725,-294 725,-275 786,-275 786,-294"/>
<text text-anchor="middle" x="755.5" y="-282" font-family="Helvetica Neue" font-size="10.00">FilterUI.h</text>
</a>
</g>
</g>
<!-- Node17&#45;&gt;Node18 -->
<g id="edge24_Node000017_Node000018" class="edge">
<title>Node17&#45;&gt;Node18</title>
<g id="a_edge24_Node000017_Node000018"><a xlink:title=" ">
<path fill="none" stroke="#63b8ff" d="M664.8,-325.9C686.78,-316.11 716.68,-302.79 736.03,-294.17"/>
<polygon fill="#63b8ff" stroke="#63b8ff" points="663.33,-322.72 655.62,-329.98 666.18,-329.11 663.33,-322.72"/>
</a>
</g>
</g>
<!-- Node19 -->
<g id="Node000019" class="node">
<title>Node19</title>
<g id="a_Node000019"><a xlink:href="_friction_u_i_8h.html" target="_top" xlink:title=" ">
<polygon fill="white" stroke="#666666" points="469.5,-294 397.5,-294 397.5,-275 469.5,-275 469.5,-294"/>
<text text-anchor="middle" x="433.5" y="-282" font-family="Helvetica Neue" font-size="10.00">FrictionUI.h</text>
</a>
</g>
</g>
<!-- Node17&#45;&gt;Node19 -->
<g id="edge26_Node000017_Node000019" class="edge">
<title>Node17&#45;&gt;Node19</title>
<g id="a_edge26_Node000017_Node000019"><a xlink:title=" ">
<path fill="none" stroke="#63b8ff" d="M594.13,-327.44C556.13,-317.52 501.14,-303.16 466.37,-294.08"/>
<polygon fill="#63b8ff" stroke="#63b8ff" points="593.32,-330.84 603.88,-329.98 595.09,-324.07 593.32,-330.84"/>
</a>
</g>
</g>
<!-- Node20 -->
<g id="Node000020" class="node">
<title>Node20</title>
<g id="a_Node000020"><a xlink:href="_gain_u_i_8h.html" target="_top" xlink:title=" ">
<polygon fill="white" stroke="#666666" points="707,-294 648,-294 648,-275 707,-275 707,-294"/>
<text text-anchor="middle" x="677.5" y="-282" font-family="Helvetica Neue" font-size="10.00">GainUI.h</text>
</a>
</g>
</g>
<!-- Node17&#45;&gt;Node20 -->
<g id="edge28_Node000017_Node000020" class="edge">
<title>Node17&#45;&gt;Node20</title>
<g id="a_edge28_Node000017_Node000020"><a xlink:title=" ">
<path fill="none" stroke="#63b8ff" d="M649.52,-321.67C656.62,-312.5 665.1,-301.52 670.86,-294.09"/>
<polygon fill="#63b8ff" stroke="#63b8ff" points="646.62,-319.7 643.27,-329.75 652.16,-323.98 646.62,-319.7"/>
</a>
</g>
</g>
<!-- Node21 -->
<g id="Node000021" class="node">
<title>Node21</title>
<g id="a_Node000021"><a xlink:href="_grit_u_i_8h.html" target="_top" xlink:title=" ">
<polygon fill="white" stroke="#666666" points="379.5,-294 325.5,-294 325.5,-275 379.5,-275 379.5,-294"/>
<text text-anchor="middle" x="352.5" y="-282" font-family="Helvetica Neue" font-size="10.00">GritUI.h</text>
</a>
</g>
</g>
<!-- Node17&#45;&gt;Node21 -->
<g id="edge30_Node000017_Node000021" class="edge">
<title>Node17&#45;&gt;Node21</title>
<g id="a_edge30_Node000017_Node000021"><a xlink:title=" ">
<path fill="none" stroke="#63b8ff" d="M590.08,-330.94C540.14,-322.64 458.47,-308.53 388.5,-294 385.61,-293.4 382.59,-292.74 379.59,-292.06"/>
<polygon fill="#63b8ff" stroke="#63b8ff" points="589.8,-334.45 600.24,-332.63 590.95,-327.54 589.8,-334.45"/>
</a>
</g>
</g>
<!-- Node22 -->
<g id="Node000022" class="node">
<title>Node22</title>
<g id="a_Node000022"><a xlink:href="_impulse_u_i_8h.html" target="_top" xlink:title=" ">
<polygon fill="white" stroke="#666666" points="155,-294 80,-294 80,-275 155,-275 155,-294"/>
<text text-anchor="middle" x="117.5" y="-282" font-family="Helvetica Neue" font-size="10.00">ImpulseUI.h</text>
</a>
</g>
</g>
<!-- Node17&#45;&gt;Node22 -->
<g id="edge32_Node000017_Node000022" class="edge">
<title>Node17&#45;&gt;Node22</title>
<g id="a_edge32_Node000017_Node000022"><a xlink:title=" ">
<path fill="none" stroke="#63b8ff" d="M590.17,-333.77C488.61,-323.4 248.05,-298.83 155.08,-289.34"/>
<polygon fill="#63b8ff" stroke="#63b8ff" points="590.11,-337.28 600.42,-334.82 590.82,-330.32 590.11,-337.28"/>
</a>
</g>
</g>
<!-- Node23 -->
<g id="Node000023" class="node">
<title>Node23</title>
<g id="a_Node000023"><a xlink:href="_l_f_o_u_i_8h.html" target="_top" xlink:title=" ">
<polygon fill="white" stroke="#666666" points="543,-294 488,-294 488,-275 543,-275 543,-294"/>
<text text-anchor="middle" x="515.5" y="-282" font-family="Helvetica Neue" font-size="10.00">LFOUI.h</text>
</a>
</g>
</g>
<!-- Node17&#45;&gt;Node23 -->
<g id="edge34_Node000017_Node000023" class="edge">
<title>Node17&#45;&gt;Node23</title>
<g id="a_edge34_Node000017_Node000023"><a xlink:title=" ">
<path fill="none" stroke="#63b8ff" d="M607.73,-325.9C585.38,-316.11 554.98,-302.79 535.29,-294.17"/>
<polygon fill="#63b8ff" stroke="#63b8ff" points="606.5,-329.18 617.06,-329.98 609.3,-322.77 606.5,-329.18"/>
</a>
</g>
</g>
<!-- Node24 -->
<g id="Node000024" class="node">
<title>Node24</title>
<g id="a_Node000024"><a xlink:href="_module_box_8h.html" target="_top" xlink:title=" ">
<polygon fill="white" stroke="#666666" points="990.5,-184 910.5,-184 910.5,-165 990.5,-165 990.5,-184"/>
<text text-anchor="middle" x="950.5" y="-172" font-family="Helvetica Neue" font-size="10.00">ModuleBox.h</text>
</a>
</g>
</g>
<!-- Node17&#45;&gt;Node24 -->
<g id="edge36_Node000017_Node000024" class="edge">
<title>Node17&#45;&gt;Node24</title>
<g id="a_edge36_Node000017_Node000024"><a xlink:title=" ">
<path fill="none" stroke="#63b8ff" d="M682.66,-333.18C715.97,-327.6 760.83,-316.36 794.5,-294 829.54,-270.73 820.37,-245.92 853.5,-220 874.66,-203.45 902.97,-191.37 923.54,-184.01"/>
<polygon fill="#63b8ff" stroke="#63b8ff" points="682.05,-329.73 672.71,-334.74 683.13,-336.65 682.05,-329.73"/>
</a>
</g>
</g>
<!-- Node26 -->
<g id="Node000026" class="node">
<title>Node26</title>
<g id="a_Node000026"><a xlink:href="_output_u_i_8h.html" target="_top" xlink:title=" ">
<polygon fill="white" stroke="#666666" points="630,-294 561,-294 561,-275 630,-275 630,-294"/>
<text text-anchor="middle" x="595.5" y="-282" font-family="Helvetica Neue" font-size="10.00">OutputUI.h</text>
</a>
</g>
</g>
<!-- Node17&#45;&gt;Node26 -->
<g id="edge39_Node000017_Node000026" class="edge">
<title>Node17&#45;&gt;Node26</title>
<g id="a_edge39_Node000017_Node000026"><a xlink:title=" ">
<path fill="none" stroke="#63b8ff" d="M623.48,-321.67C616.38,-312.5 607.9,-301.52 602.14,-294.09"/>
<polygon fill="#63b8ff" stroke="#63b8ff" points="620.84,-323.98 629.73,-329.75 626.38,-319.7 620.84,-323.98"/>
</a>
</g>
</g>
<!-- Node17&#45;&gt;Node28 -->
<g id="edge42_Node000017_Node000028" class="edge">
<title>Node17&#45;&gt;Node28</title>
<g id="a_edge42_Node000017_Node000028"><a xlink:title=" ">
<path fill="none" stroke="#63b8ff" d="M682.81,-333.62C786.25,-322.72 1033.29,-296.69 1113.71,-288.22"/>
<polygon fill="#63b8ff" stroke="#63b8ff" points="682.25,-330.16 672.67,-334.69 682.99,-337.12 682.25,-330.16"/>
</a>
</g>
</g>
<!-- Node35 -->
<g id="Node000035" class="node">
<title>Node35</title>
<g id="a_Node000035"><a xlink:href="_string_u_i_8h.html" target="_top" xlink:title=" ">
<polygon fill="white" stroke="#666666" points="946,-294 881,-294 881,-275 946,-275 946,-294"/>
<text text-anchor="middle" x="913.5" y="-282" font-family="Helvetica Neue" font-size="10.00">StringUI.h</text>
</a>
</g>
</g>
<!-- Node17&#45;&gt;Node35 -->
<g id="edge59_Node000017_Node000035" class="edge">
<title>Node17&#45;&gt;Node35</title>
<g id="a_edge59_Node000017_Node000035"><a xlink:title=" ">
<path fill="none" stroke="#63b8ff" d="M682.72,-329.66C738.71,-318.94 831.61,-301.17 880.73,-291.77"/>
<polygon fill="#63b8ff" stroke="#63b8ff" points="681.88,-326.25 672.71,-331.57 683.19,-333.13 681.88,-326.25"/>
</a>
</g>
</g>
<!-- Node18&#45;&gt;Node3 -->
<g id="edge25_Node000018_Node000003" class="edge">
<title>Node18&#45;&gt;Node3</title>
<g id="a_edge25_Node000018_Node000003"><a xlink:title=" ">
<path fill="none" stroke="#63b8ff" d="M756.21,-264.66C756.54,-255.93 756.92,-245.99 757.18,-239.09"/>
<polygon fill="#63b8ff" stroke="#63b8ff" points="752.71,-264.62 755.83,-274.75 759.7,-264.89 752.71,-264.62"/>
</a>
</g>
</g>
<!-- Node19&#45;&gt;Node12 -->
<g id="edge27_Node000019_Node000012" class="edge">
<title>Node19&#45;&gt;Node12</title>
<g id="a_edge27_Node000019_Node000012"><a xlink:title=" ">
<path fill="none" stroke="#63b8ff" d="M401.14,-271.42C374.79,-261.59 338.24,-247.95 314.73,-239.17"/>
<polygon fill="#63b8ff" stroke="#63b8ff" points="400.09,-274.77 410.69,-274.98 402.54,-268.21 400.09,-274.77"/>
</a>
</g>
</g>
<!-- Node20&#45;&gt;Node13 -->
<g id="edge29_Node000020_Node000013" class="edge">
<title>Node20&#45;&gt;Node13</title>
<g id="a_edge29_Node000020_Node000013"><a xlink:title=" ">
<path fill="none" stroke="#63b8ff" d="M666.34,-266.1C660.53,-257.04 653.68,-246.37 649.01,-239.09"/>
<polygon fill="#63b8ff" stroke="#63b8ff" points="663.54,-268.22 671.89,-274.75 669.43,-264.44 663.54,-268.22"/>
</a>
</g>
</g>
<!-- Node21&#45;&gt;Node14 -->
<g id="edge31_Node000021_Node000014" class="edge">
<title>Node21&#45;&gt;Node14</title>
<g id="a_edge31_Node000021_Node000014"><a xlink:title=" ">
<path fill="none" stroke="#63b8ff" d="M315.64,-272.52C282.28,-262.59 233.84,-248.17 203.27,-239.07"/>
<polygon fill="#63b8ff" stroke="#63b8ff" points="314.88,-275.95 325.47,-275.45 316.88,-269.24 314.88,-275.95"/>
</a>
</g>
</g>
<!-- Node22&#45;&gt;Node15 -->
<g id="edge33_Node000022_Node000015" class="edge">
<title>Node22&#45;&gt;Node15</title>
<g id="a_edge33_Node000022_Node000015"><a xlink:title=" ">
<path fill="none" stroke="#63b8ff" d="M99.75,-268.32C88.69,-258.87 74.87,-247.06 65.64,-239.17"/>
<polygon fill="#63b8ff" stroke="#63b8ff" points="97.66,-271.15 107.54,-274.98 102.21,-265.83 97.66,-271.15"/>
</a>
</g>
</g>
<!-- Node23&#45;&gt;Node16 -->
<g id="edge35_Node000023_Node000016" class="edge">
<title>Node23&#45;&gt;Node16</title>
<g id="a_edge35_Node000023_Node000016"><a xlink:title=" ">
<path fill="none" stroke="#63b8ff" d="M489.5,-270.5C470,-260.75 443.85,-247.68 426.84,-239.17"/>
<polygon fill="#63b8ff" stroke="#63b8ff" points="487.96,-273.64 498.47,-274.98 491.09,-267.38 487.96,-273.64"/>
</a>
</g>
</g>
<!-- Node24&#45;&gt;Node5 -->
<g id="edge38_Node000024_Node000005" class="edge">
<title>Node24&#45;&gt;Node5</title>
<g id="a_edge38_Node000024_Node000005"><a xlink:title=" ">
<path fill="none" stroke="#63b8ff" d="M984.88,-161.67C1013.59,-151.79 1053.86,-137.93 1079.56,-129.08"/>
<polygon fill="#63b8ff" stroke="#63b8ff" points="983.56,-158.42 975.24,-164.98 985.84,-165.04 983.56,-158.42"/>
</a>
</g>
</g>
<!-- Node25 -->
<g id="Node000025" class="node">
<title>Node25</title>
<g id="a_Node000025"><a xlink:href="_module_box_8cpp.html" target="_top" xlink:title=" ">
<polygon fill="white" stroke="#666666" points="996.5,-129 904.5,-129 904.5,-110 996.5,-110 996.5,-129"/>
<text text-anchor="middle" x="950.5" y="-117" font-family="Helvetica Neue" font-size="10.00">ModuleBox.cpp</text>
</a>
</g>
</g>
<!-- Node24&#45;&gt;Node25 -->
<g id="edge37_Node000024_Node000025" class="edge">
<title>Node24&#45;&gt;Node25</title>
<g id="a_edge37_Node000024_Node000025"><a xlink:title=" ">
<path fill="none" stroke="#63b8ff" d="M950.5,-154.66C950.5,-145.93 950.5,-135.99 950.5,-129.09"/>
<polygon fill="#63b8ff" stroke="#63b8ff" points="947,-154.75 950.5,-164.75 954,-154.75 947,-154.75"/>
</a>
</g>
</g>
<!-- Node26&#45;&gt;Node27 -->
<g id="edge40_Node000026_Node000027" class="edge">
<title>Node26&#45;&gt;Node27</title>
<g id="a_edge40_Node000026_Node000027"><a xlink:title=" ">
<path fill="none" stroke="#63b8ff" d="M576.19,-268.88C563.59,-259.34 547.57,-247.21 536.95,-239.17"/>
<polygon fill="#63b8ff" stroke="#63b8ff" points="574.17,-271.74 584.25,-274.98 578.39,-266.16 574.17,-271.74"/>
</a>
</g>
</g>
<!-- Node27&#45;&gt;Node4 -->
<g id="edge41_Node000027_Node000004" class="edge">
<title>Node27&#45;&gt;Node4</title>
<g id="a_edge41_Node000027_Node000004"><a xlink:title=" ">
<path fill="none" stroke="#63b8ff" d="M542.7,-213.04C553.17,-203.64 566.15,-191.98 574.85,-184.17"/>
<polygon fill="#63b8ff" stroke="#63b8ff" points="540.08,-210.7 534.98,-219.98 544.76,-215.91 540.08,-210.7"/>
</a>
</g>
</g>
<!-- Node28&#45;&gt;Node5 -->
<g id="edge54_Node000028_Node000005" class="edge">
<title>Node28&#45;&gt;Node5</title>
<g id="a_edge54_Node000028_Node000005"><a xlink:title=" ">
<path fill="none" stroke="#63b8ff" d="M1135.49,-264.83C1127.94,-229.67 1111.89,-154.9 1106.39,-129.31"/>
<polygon fill="#63b8ff" stroke="#63b8ff" points="1132.1,-265.69 1137.62,-274.74 1138.94,-264.22 1132.1,-265.69"/>
</a>
</g>
</g>
<!-- Node28&#45;&gt;Node7 -->
<g id="edge53_Node000028_Node000007" class="edge">
<title>Node28&#45;&gt;Node7</title>
<g id="a_edge53_Node000028_Node000007"><a xlink:title=" ">
<path fill="none" stroke="#63b8ff" d="M1157.54,-268.15C1177.64,-250.07 1209.65,-218.12 1227.5,-184 1247.34,-146.09 1253.92,-94.23 1255.82,-74.03"/>
<polygon fill="#63b8ff" stroke="#63b8ff" points="1155.17,-265.58 1149.98,-274.81 1159.8,-270.83 1155.17,-265.58"/>
</a>
</g>
</g>
<!-- Node28&#45;&gt;Node8 -->
<g id="edge52_Node000028_Node000008" class="edge">
<title>Node28&#45;&gt;Node8</title>
<g id="a_edge52_Node000028_Node000008"><a xlink:title=" ">
<path fill="none" stroke="#63b8ff" d="M1175.26,-280.46C1239.71,-274.52 1372.5,-260.09 1413.5,-239 1448.85,-220.81 1476.5,-215.26 1476.5,-175.5 1476.5,-175.5 1476.5,-175.5 1476.5,-118.5 1476.5,-79.07 1451.88,-36.71 1440.34,-19.02"/>
<polygon fill="#63b8ff" stroke="#63b8ff" points="1174.8,-276.98 1165.15,-281.37 1175.43,-283.95 1174.8,-276.98"/>
</a>
</g>
</g>
<!-- Node28&#45;&gt;Node11 -->
<g id="edge58_Node000028_Node000011" class="edge">
<title>Node28&#45;&gt;Node11</title>
<g id="a_edge58_Node000028_Node000011"><a xlink:title=" ">
<path fill="none" stroke="#63b8ff" d="M1103.9,-272.38C1077.98,-263.98 1042.19,-251.76 1011.5,-239 993.7,-231.6 989.97,-228.15 972.5,-220 897.97,-185.23 808.33,-146.02 769.29,-129.06"/>
<polygon fill="#63b8ff" stroke="#63b8ff" points="1103.07,-275.79 1113.66,-275.52 1105.21,-269.13 1103.07,-275.79"/>
</a>
</g>
</g>
<!-- Node29 -->
<g id="Node000029" class="node">
<title>Node29</title>
<g id="a_Node000029"><a xlink:href="_audio_engine_8h.html" target="_top" xlink:title=" ">
<polygon fill="white" stroke="#666666" points="1404.5,-239 1318.5,-239 1318.5,-220 1404.5,-220 1404.5,-239"/>
<text text-anchor="middle" x="1361.5" y="-227" font-family="Helvetica Neue" font-size="10.00">AudioEngine.h</text>
</a>
</g>
</g>
<!-- Node28&#45;&gt;Node29 -->
<g id="edge43_Node000028_Node000029" class="edge">
<title>Node28&#45;&gt;Node29</title>
<g id="a_edge43_Node000028_Node000029"><a xlink:title=" ">
<path fill="none" stroke="#63b8ff" d="M1175.33,-274.94C1216.77,-265.05 1284.56,-248.87 1325.89,-239"/>
<polygon fill="#63b8ff" stroke="#63b8ff" points="1174.31,-271.59 1165.4,-277.32 1175.94,-278.4 1174.31,-271.59"/>
</a>
</g>
</g>
<!-- Node31 -->
<g id="Node000031" class="node">
<title>Node31</title>
<g id="a_Node000031"><a xlink:href="_connections_8h.html" target="_top" xlink:title=" ">
<polygon fill="white" stroke="#666666" points="1218.5,-184 1132.5,-184 1132.5,-165 1218.5,-165 1218.5,-184"/>
<text text-anchor="middle" x="1175.5" y="-172" font-family="Helvetica Neue" font-size="10.00">Connections.h</text>
</a>
</g>
</g>
<!-- Node28&#45;&gt;Node31 -->
<g id="edge46_Node000028_Node000031" class="edge">
<title>Node28&#45;&gt;Node31</title>
<g id="a_edge46_Node000028_Node000031"><a xlink:title=" ">
<path fill="none" stroke="#63b8ff" d="M1145.63,-265.12C1153.48,-241.56 1166.78,-201.66 1172.61,-184.16"/>
<polygon fill="#63b8ff" stroke="#63b8ff" points="1142.29,-264.07 1142.45,-274.66 1148.93,-266.28 1142.29,-264.07"/>
</a>
</g>
</g>
<!-- Node32 -->
<g id="Node000032" class="node">
<title>Node32</title>
<g id="a_Node000032"><a xlink:href="_file_manager_8h.html" target="_top" xlink:title=" ">
<polygon fill="white" stroke="#666666" points="1360,-129 1275,-129 1275,-110 1360,-110 1360,-129"/>
<text text-anchor="middle" x="1317.5" y="-117" font-family="Helvetica Neue" font-size="10.00">FileManager.h</text>
</a>
</g>
</g>
<!-- Node28&#45;&gt;Node32 -->
<g id="edge49_Node000028_Node000032" class="edge">
<title>Node28&#45;&gt;Node32</title>
<g id="a_edge49_Node000028_Node000032"><a xlink:title=" ">
<path fill="none" stroke="#63b8ff" d="M1175.07,-277.83C1201.39,-272.03 1236.66,-260.66 1260.5,-239 1278.24,-222.88 1305.23,-153.47 1314.36,-129.04"/>
<polygon fill="#63b8ff" stroke="#63b8ff" points="1174.21,-274.44 1165.11,-279.86 1175.61,-281.29 1174.21,-274.44"/>
</a>
</g>
</g>
<!-- Node33 -->
<g id="Node000033" class="node">
<title>Node33</title>
<g id="a_Node000033"><a xlink:href="_port_u_i_8h.html" target="_top" xlink:title=" ">
<polygon fill="white" stroke="#666666" points="1076.5,-239 1020.5,-239 1020.5,-220 1076.5,-220 1076.5,-239"/>
<text text-anchor="middle" x="1048.5" y="-227" font-family="Helvetica Neue" font-size="10.00">PortUI.h</text>
</a>
</g>
</g>
<!-- Node28&#45;&gt;Node33 -->
<g id="edge55_Node000028_Node000033" class="edge">
<title>Node28&#45;&gt;Node33</title>
<g id="a_edge55_Node000028_Node000033"><a xlink:title=" ">
<path fill="none" stroke="#63b8ff" d="M1115.8,-269.7C1099.22,-260.04 1077.59,-247.44 1063.39,-239.17"/>
<polygon fill="#63b8ff" stroke="#63b8ff" points="1114.48,-272.98 1124.88,-274.98 1118,-266.93 1114.48,-272.98"/>
</a>
</g>
</g>
<!-- Node29&#45;&gt;Node8 -->
<g id="edge45_Node000029_Node000008" class="edge">
<title>Node29&#45;&gt;Node8</title>
<g id="a_edge45_Node000029_Node000008"><a xlink:title=" ">
<path fill="none" stroke="#63b8ff" d="M1388.11,-214.78C1399.78,-207.32 1412.4,-196.95 1419.5,-184 1450.3,-127.79 1440.38,-45.69 1436.05,-19.13"/>
<polygon fill="#63b8ff" stroke="#63b8ff" points="1386.29,-211.79 1379.49,-219.91 1389.87,-217.81 1386.29,-211.79"/>
</a>
</g>
</g>
<!-- Node30 -->
<g id="Node000030" class="node">
<title>Node30</title>
<g id="a_Node000030"><a xlink:href="_audio_engine_8cpp.html" target="_top" xlink:title=" ">
<polygon fill="white" stroke="#666666" points="1410.5,-184 1312.5,-184 1312.5,-165 1410.5,-165 1410.5,-184"/>
<text text-anchor="middle" x="1361.5" y="-172" font-family="Helvetica Neue" font-size="10.00">AudioEngine.cpp</text>
</a>
</g>
</g>
<!-- Node29&#45;&gt;Node30 -->
<g id="edge44_Node000029_Node000030" class="edge">
<title>Node29&#45;&gt;Node30</title>
<g id="a_edge44_Node000029_Node000030"><a xlink:title=" ">
<path fill="none" stroke="#63b8ff" d="M1361.5,-209.66C1361.5,-200.93 1361.5,-190.99 1361.5,-184.09"/>
<polygon fill="#63b8ff" stroke="#63b8ff" points="1358,-209.75 1361.5,-219.75 1365,-209.75 1358,-209.75"/>
</a>
</g>
</g>
<!-- Node31&#45;&gt;Node5 -->
<g id="edge48_Node000031_Node000005" class="edge">
<title>Node31&#45;&gt;Node5</title>
<g id="a_edge48_Node000031_Node000005"><a xlink:title=" ">
<path fill="none" stroke="#63b8ff" d="M1155.91,-158.88C1143.13,-149.34 1126.89,-137.21 1116.11,-129.17"/>
<polygon fill="#63b8ff" stroke="#63b8ff" points="1153.99,-161.81 1164.09,-164.98 1158.17,-156.2 1153.99,-161.81"/>
</a>
</g>
</g>
<!-- Node31&#45;&gt;Node6 -->
<g id="edge47_Node000031_Node000006" class="edge">
<title>Node31&#45;&gt;Node6</title>
<g id="a_edge47_Node000031_Node000006"><a xlink:title=" ">
<path fill="none" stroke="#63b8ff" d="M1167.45,-155.28C1152.01,-120.32 1118.74,-45.01 1107.39,-19.31"/>
<polygon fill="#63b8ff" stroke="#63b8ff" points="1164.39,-157 1171.63,-164.74 1170.79,-154.17 1164.39,-157"/>
</a>
</g>
</g>
<!-- Node32&#45;&gt;Node7 -->
<g id="edge51_Node000032_Node000007" class="edge">
<title>Node32&#45;&gt;Node7</title>
<g id="a_edge51_Node000032_Node000007"><a xlink:title=" ">
<path fill="none" stroke="#63b8ff" d="M1300.03,-103.32C1289.16,-93.87 1275.56,-82.06 1266.48,-74.17"/>
<polygon fill="#63b8ff" stroke="#63b8ff" points="1297.85,-106.07 1307.7,-109.98 1302.45,-100.78 1297.85,-106.07"/>
</a>
</g>
</g>
<!-- Node32&#45;&gt;Node8 -->
<g id="edge50_Node000032_Node000008" class="edge">
<title>Node32&#45;&gt;Node8</title>
<g id="a_edge50_Node000032_Node000008"><a xlink:title=" ">
<path fill="none" stroke="#63b8ff" d="M1334.72,-102.61C1359.79,-79.47 1405.48,-37.29 1425.12,-19.16"/>
<polygon fill="#63b8ff" stroke="#63b8ff" points="1332.05,-100.31 1327.07,-109.66 1336.8,-105.45 1332.05,-100.31"/>
</a>
</g>
</g>
<!-- Node33&#45;&gt;Node24 -->
<g id="edge56_Node000033_Node000024" class="edge">
<title>Node33&#45;&gt;Node24</title>
<g id="a_edge56_Node000033_Node000024"><a xlink:title=" ">
<path fill="none" stroke="#63b8ff" d="M1023.47,-214.97C1005.56,-205.28 981.97,-192.52 966.53,-184.17"/>
<polygon fill="#63b8ff" stroke="#63b8ff" points="1022.29,-218.31 1032.75,-219.98 1025.62,-212.15 1022.29,-218.31"/>
</a>
</g>
</g>
<!-- Node34 -->
<g id="Node000034" class="node">
<title>Node34</title>
<g id="a_Node000034"><a xlink:href="_port_u_i_8cpp.html" target="_top" xlink:title=" ">
<polygon fill="white" stroke="#666666" points="1076,-184 1009,-184 1009,-165 1076,-165 1076,-184"/>
<text text-anchor="middle" x="1042.5" y="-172" font-family="Helvetica Neue" font-size="10.00">PortUI.cpp</text>
</a>
</g>
</g>
<!-- Node33&#45;&gt;Node34 -->
<g id="edge57_Node000033_Node000034" class="edge">
<title>Node33&#45;&gt;Node34</title>
<g id="a_edge57_Node000033_Node000034"><a xlink:title=" ">
<path fill="none" stroke="#63b8ff" d="M1046.37,-209.66C1045.38,-200.93 1044.25,-190.99 1043.47,-184.09"/>
<polygon fill="#63b8ff" stroke="#63b8ff" points="1042.91,-210.21 1047.51,-219.75 1049.86,-209.42 1042.91,-210.21"/>
</a>
</g>
</g>
<!-- Node35&#45;&gt;Node36 -->
<g id="edge60_Node000035_Node000036" class="edge">
<title>Node35&#45;&gt;Node36</title>
<g id="a_edge60_Node000035_Node000036"><a xlink:title=" ">
<path fill="none" stroke="#63b8ff" d="M913.5,-264.66C913.5,-255.93 913.5,-245.99 913.5,-239.09"/>
<polygon fill="#63b8ff" stroke="#63b8ff" points="910,-264.75 913.5,-274.75 917,-264.75 910,-264.75"/>
</a>
</g>
</g>
<!-- Node36&#45;&gt;Node4 -->
<g id="edge61_Node000036_Node000004" class="edge">
<title>Node36&#45;&gt;Node4</title>
<g id="a_edge61_Node000036_Node000004"><a xlink:title=" ">
<path fill="none" stroke="#63b8ff" d="M852.94,-218.74C783.86,-207.62 673.37,-189.82 618.17,-180.92"/>
<polygon fill="#63b8ff" stroke="#63b8ff" points="852.39,-222.2 862.81,-220.33 853.5,-215.29 852.39,-222.2"/>
</a>
</g>
</g>
</g>
</svg>
