<?xml version="1.0" encoding="UTF-8" standalone="no"?>
<!DOCTYPE svg PUBLIC "-//W3C//DTD SVG 1.1//EN"
 "http://www.w3.org/Graphics/SVG/1.1/DTD/svg11.dtd">
<!-- Generated by graphviz version 2.38.0 (20140413.2041)
 -->
<!-- Title: OutletPlug Pages: 1 -->
<svg width="331pt" height="140pt"
 viewBox="0.00 0.00 331.00 140.00" xmlns="http://www.w3.org/2000/svg" xmlns:xlink="http://www.w3.org/1999/xlink">
<g id="graph0" class="graph" transform="scale(1 1) rotate(0) translate(4 136)">
<title>OutletPlug</title>
<polygon fill="white" stroke="none" points="-4,4 -4,-136 327,-136 327,4 -4,4"/>
<!-- Node1 -->
<g id="node1" class="node"><title>Node1</title>
<polygon fill="#bfbfbf" stroke="black" points="115.5,-0.5 115.5,-19.5 181.5,-19.5 181.5,-0.5 115.5,-0.5"/>
<text text-anchor="middle" x="148.5" y="-7.5" font-family="Helvetica Neue" font-size="10.00">OutletPlug</text>
</g>
<!-- Node2 -->
<g id="node2" class="node"><title>Node2</title>
<g id="a_node2"><a xlink:href="class_plug.html" target="_top" xlink:title="A base class for Inlet and Outlet &#45; This is a UI class for handling connection and dragging behaviors...">
<polygon fill="white" stroke="black" points="130,-56.5 130,-75.5 167,-75.5 167,-56.5 130,-56.5"/>
<text text-anchor="middle" x="148.5" y="-63.5" font-family="Helvetica Neue" font-size="10.00">Plug</text>
</a>
</g>
</g>
<!-- Node2&#45;&gt;Node1 -->
<g id="edge1" class="edge"><title>Node2&#45;&gt;Node1</title>
<path fill="none" stroke="midnightblue" d="M148.5,-45.8045C148.5,-36.9102 148.5,-26.7798 148.5,-19.7511"/>
<polygon fill="midnightblue" stroke="midnightblue" points="145,-46.083 148.5,-56.083 152,-46.083 145,-46.083"/>
</g>
<!-- Node3 -->
<g id="node3" class="node"><title>Node3</title>
<polygon fill="white" stroke="#bfbfbf" points="0,-112.5 0,-131.5 73,-131.5 73,-112.5 0,-112.5"/>
<text text-anchor="middle" x="36.5" y="-119.5" font-family="Helvetica Neue" font-size="10.00">Component</text>
</g>
<!-- Node3&#45;&gt;Node2 -->
<g id="edge2" class="edge"><title>Node3&#45;&gt;Node2</title>
<path fill="none" stroke="midnightblue" d="M63.7487,-107.862C84.5165,-97.8492 112.523,-84.3458 130.55,-75.6545"/>
<polygon fill="midnightblue" stroke="midnightblue" points="61.9824,-104.828 54.4947,-112.324 65.0225,-111.134 61.9824,-104.828"/>
</g>
<!-- Node4 -->
<g id="node4" class="node"><title>Node4</title>
<polygon fill="white" stroke="#bfbfbf" points="91.5,-112.5 91.5,-131.5 205.5,-131.5 205.5,-112.5 91.5,-112.5"/>
<text text-anchor="middle" x="148.5" y="-119.5" font-family="Helvetica Neue" font-size="10.00">SettableTooltipClient</text>
</g>
<!-- Node4&#45;&gt;Node2 -->
<g id="edge3" class="edge"><title>Node4&#45;&gt;Node2</title>
<path fill="none" stroke="midnightblue" d="M148.5,-101.805C148.5,-92.9102 148.5,-82.7798 148.5,-75.7511"/>
<polygon fill="midnightblue" stroke="midnightblue" points="145,-102.083 148.5,-112.083 152,-102.083 145,-102.083"/>
</g>
<!-- Node5 -->
<g id="node5" class="node"><title>Node5</title>
<g id="a_node5"><a xlink:href="class_plug_event_emitter.html" target="_top" xlink:title="PlugEventEmitter">
<polygon fill="white" stroke="black" points="224,-112.5 224,-131.5 323,-131.5 323,-112.5 224,-112.5"/>
<text text-anchor="middle" x="273.5" y="-119.5" font-family="Helvetica Neue" font-size="10.00">PlugEventEmitter</text>
</a>
</g>
</g>
<!-- Node5&#45;&gt;Node2 -->
<g id="edge4" class="edge"><title>Node5&#45;&gt;Node2</title>
<path fill="none" stroke="midnightblue" d="M244.458,-108.454C220.719,-98.1985 187.849,-83.9986 167.396,-75.1629"/>
<polygon fill="midnightblue" stroke="midnightblue" points="243.125,-111.691 253.693,-112.444 245.901,-105.265 243.125,-111.691"/>
</g>
</g>
</svg>
