<?xml version="1.0" encoding="UTF-8" standalone="no"?>
<!DOCTYPE svg PUBLIC "-//W3C//DTD SVG 1.1//EN"
 "http://www.w3.org/Graphics/SVG/1.1/DTD/svg11.dtd">
<!-- Generated by graphviz version 2.43.0 (0)
 -->
<!-- Title: HoverPopupWindow Pages: 1 -->
<svg width="196pt" height="82pt"
 viewBox="0.00 0.00 196.00 82.00" xmlns="http://www.w3.org/2000/svg" xmlns:xlink="http://www.w3.org/1999/xlink">
<g id="graph0" class="graph" transform="scale(1 1) rotate(0) translate(4 78)">
<title>HoverPopupWindow</title>
<!-- Node1 -->
<g id="Node000001" class="node">
<title>Node1</title>
<g id="a_Node000001"><a xlink:title=" ">
<polygon fill="#999999" stroke="#666666" points="158,-19 43,-19 43,0 158,0 158,-19"/>
<text text-anchor="middle" x="100.5" y="-7" font-family="Helvetica Neue" font-size="10.00">HoverPopupWindow</text>
</a>
</g>
</g>
<!-- Node2 -->
<g id="Node000002" class="node">
<title>Node2</title>
<g id="a_Node000002"><a xlink:title=" ">
<polygon fill="white" stroke="#666666" points="99,-74 0,-74 0,-55 99,-55 99,-74"/>
<text text-anchor="middle" x="49.5" y="-62" font-family="Helvetica Neue" font-size="10.00">juce::Component</text>
</a>
</g>
</g>
<!-- Node2&#45;&gt;Node1 -->
<g id="edge1_Node000001_Node000002" class="edge">
<title>Node2&#45;&gt;Node1</title>
<g id="a_edge1_Node000001_Node000002"><a xlink:title=" ">
<path fill="none" stroke="#63b8ff" d="M64.88,-47.52C73.87,-38.18 84.86,-26.75 92.24,-19.09"/>
<polygon fill="#63b8ff" stroke="#63b8ff" points="62.33,-45.12 57.92,-54.75 67.38,-49.97 62.33,-45.12"/>
</a>
</g>
</g>
<!-- Node3 -->
<g id="Node000003" class="node">
<title>Node3</title>
<g id="a_Node000003"><a xlink:title=" ">
<polygon fill="white" stroke="#666666" points="188,-74 117,-74 117,-55 188,-55 188,-74"/>
<text text-anchor="middle" x="152.5" y="-62" font-family="Helvetica Neue" font-size="10.00">juce::Timer</text>
</a>
</g>
</g>
<!-- Node3&#45;&gt;Node1 -->
<g id="edge2_Node000001_Node000003" class="edge">
<title>Node3&#45;&gt;Node1</title>
<g id="a_edge2_Node000001_Node000003"><a xlink:title=" ">
<path fill="none" stroke="#63b8ff" d="M136.82,-47.52C127.66,-38.18 116.45,-26.75 108.93,-19.09"/>
<polygon fill="#63b8ff" stroke="#63b8ff" points="134.41,-50.06 143.91,-54.75 139.41,-45.16 134.41,-50.06"/>
</a>
</g>
</g>
</g>
</svg>
