<?xml version="1.0" encoding="UTF-8" standalone="no"?>
<!DOCTYPE svg PUBLIC "-//W3C//DTD SVG 1.1//EN"
 "http://www.w3.org/Graphics/SVG/1.1/DTD/svg11.dtd">
<!-- Generated by graphviz version 2.43.0 (0)
 -->
<!-- Title: ModuleUI Pages: 1 -->
<svg width="574pt" height="137pt"
 viewBox="0.00 0.00 574.00 137.00" xmlns="http://www.w3.org/2000/svg" xmlns:xlink="http://www.w3.org/1999/xlink">
<g id="graph0" class="graph" transform="scale(1 1) rotate(0) translate(4 133)">
<title>ModuleUI</title>
<!-- Node1 -->
<g id="Node000001" class="node">
<title>Node1</title>
<g id="a_Node000001"><a xlink:title=" ">
<polygon fill="#999999" stroke="#666666" points="311.5,-74 248.5,-74 248.5,-55 311.5,-55 311.5,-74"/>
<text text-anchor="middle" x="280" y="-62" font-family="Helvetica Neue" font-size="10.00">ModuleUI</text>
</a>
</g>
</g>
<!-- Node3 -->
<g id="Node000003" class="node">
<title>Node3</title>
<g id="a_Node000003"><a xlink:href="struct_filter_u_i.html" target="_top" xlink:title=" ">
<polygon fill="white" stroke="#666666" points="52,-19 0,-19 0,0 52,0 52,-19"/>
<text text-anchor="middle" x="26" y="-7" font-family="Helvetica Neue" font-size="10.00">FilterUI</text>
</a>
</g>
</g>
<!-- Node1&#45;&gt;Node3 -->
<g id="edge2_Node000001_Node000003" class="edge">
<title>Node1&#45;&gt;Node3</title>
<g id="a_edge2_Node000001_Node000003"><a xlink:title=" ">
<path fill="none" stroke="#63b8ff" d="M238.3,-55.51C194.17,-46.95 122.53,-32.72 61,-19 58.19,-18.37 55.26,-17.7 52.35,-17.01"/>
<polygon fill="#63b8ff" stroke="#63b8ff" points="237.89,-59 248.37,-57.46 239.22,-52.13 237.89,-59"/>
</a>
</g>
</g>
<!-- Node4 -->
<g id="Node000004" class="node">
<title>Node4</title>
<g id="a_Node000004"><a xlink:href="struct_friction_u_i.html" target="_top" xlink:title=" ">
<polygon fill="white" stroke="#666666" points="133.5,-19 70.5,-19 70.5,0 133.5,0 133.5,-19"/>
<text text-anchor="middle" x="102" y="-7" font-family="Helvetica Neue" font-size="10.00">FrictionUI</text>
</a>
</g>
</g>
<!-- Node1&#45;&gt;Node4 -->
<g id="edge3_Node000001_Node000004" class="edge">
<title>Node1&#45;&gt;Node4</title>
<g id="a_edge3_Node000001_Node000004"><a xlink:title=" ">
<path fill="none" stroke="#63b8ff" d="M241.56,-52.06C208.3,-42.15 160.92,-28.04 130.82,-19.08"/>
<polygon fill="#63b8ff" stroke="#63b8ff" points="240.82,-55.49 251.4,-54.98 242.82,-48.78 240.82,-55.49"/>
</a>
</g>
</g>
<!-- Node5 -->
<g id="Node000005" class="node">
<title>Node5</title>
<g id="a_Node000005"><a xlink:href="class_gain_u_i.html" target="_top" xlink:title=" ">
<polygon fill="white" stroke="#666666" points="202,-19 152,-19 152,0 202,0 202,-19"/>
<text text-anchor="middle" x="177" y="-7" font-family="Helvetica Neue" font-size="10.00">GainUI</text>
</a>
</g>
</g>
<!-- Node1&#45;&gt;Node5 -->
<g id="edge4_Node000001_Node000005" class="edge">
<title>Node1&#45;&gt;Node5</title>
<g id="a_edge4_Node000001_Node000005"><a xlink:title=" ">
<path fill="none" stroke="#63b8ff" d="M254.48,-50.37C235.56,-40.63 210.3,-27.64 193.85,-19.17"/>
<polygon fill="#63b8ff" stroke="#63b8ff" points="252.96,-53.52 263.45,-54.98 256.16,-47.3 252.96,-53.52"/>
</a>
</g>
</g>
<!-- Node6 -->
<g id="Node000006" class="node">
<title>Node6</title>
<g id="a_Node000006"><a xlink:href="class_grit_u_i.html" target="_top" xlink:title=" ">
<polygon fill="white" stroke="#666666" points="265.5,-19 220.5,-19 220.5,0 265.5,0 265.5,-19"/>
<text text-anchor="middle" x="243" y="-7" font-family="Helvetica Neue" font-size="10.00">GritUI</text>
</a>
</g>
</g>
<!-- Node1&#45;&gt;Node6 -->
<g id="edge5_Node000001_Node000006" class="edge">
<title>Node1&#45;&gt;Node6</title>
<g id="a_edge5_Node000001_Node000006"><a xlink:title=" ">
<path fill="none" stroke="#63b8ff" d="M268.05,-46.39C261.69,-37.27 254.13,-26.45 249,-19.09"/>
<polygon fill="#63b8ff" stroke="#63b8ff" points="265.3,-48.55 273.89,-54.75 271.04,-44.55 265.3,-48.55"/>
</a>
</g>
</g>
<!-- Node7 -->
<g id="Node000007" class="node">
<title>Node7</title>
<g id="a_Node000007"><a xlink:href="struct_impulse_u_i.html" target="_top" xlink:title=" ">
<polygon fill="white" stroke="#666666" points="350,-19 284,-19 284,0 350,0 350,-19"/>
<text text-anchor="middle" x="317" y="-7" font-family="Helvetica Neue" font-size="10.00">ImpulseUI</text>
</a>
</g>
</g>
<!-- Node1&#45;&gt;Node7 -->
<g id="edge6_Node000001_Node000007" class="edge">
<title>Node1&#45;&gt;Node7</title>
<g id="a_edge6_Node000001_Node000007"><a xlink:title=" ">
<path fill="none" stroke="#63b8ff" d="M291.95,-46.39C298.31,-37.27 305.87,-26.45 311,-19.09"/>
<polygon fill="#63b8ff" stroke="#63b8ff" points="288.96,-44.55 286.11,-54.75 294.7,-48.55 288.96,-44.55"/>
</a>
</g>
</g>
<!-- Node8 -->
<g id="Node000008" class="node">
<title>Node8</title>
<g id="a_Node000008"><a xlink:href="struct_l_f_o_u_i.html" target="_top" xlink:title=" ">
<polygon fill="white" stroke="#666666" points="414,-19 368,-19 368,0 414,0 414,-19"/>
<text text-anchor="middle" x="391" y="-7" font-family="Helvetica Neue" font-size="10.00">LFOUI</text>
</a>
</g>
</g>
<!-- Node1&#45;&gt;Node8 -->
<g id="edge7_Node000001_Node000008" class="edge">
<title>Node1&#45;&gt;Node8</title>
<g id="a_edge7_Node000001_Node000008"><a xlink:title=" ">
<path fill="none" stroke="#63b8ff" d="M306.95,-50.63C327.39,-40.87 354.95,-27.71 372.84,-19.17"/>
<polygon fill="#63b8ff" stroke="#63b8ff" points="305.35,-47.52 297.83,-54.98 308.37,-53.83 305.35,-47.52"/>
</a>
</g>
</g>
<!-- Node9 -->
<g id="Node000009" class="node">
<title>Node9</title>
<g id="a_Node000009"><a xlink:href="class_output_u_i.html" target="_top" xlink:title=" ">
<polygon fill="white" stroke="#666666" points="492,-19 432,-19 432,0 492,0 492,-19"/>
<text text-anchor="middle" x="462" y="-7" font-family="Helvetica Neue" font-size="10.00">OutputUI</text>
</a>
</g>
</g>
<!-- Node1&#45;&gt;Node9 -->
<g id="edge8_Node000001_Node000009" class="edge">
<title>Node1&#45;&gt;Node9</title>
<g id="a_edge8_Node000001_Node000009"><a xlink:title=" ">
<path fill="none" stroke="#63b8ff" d="M318.86,-52.18C352.9,-42.27 401.62,-28.08 432.53,-19.08"/>
<polygon fill="#63b8ff" stroke="#63b8ff" points="317.86,-48.83 309.24,-54.98 319.82,-55.55 317.86,-48.83"/>
</a>
</g>
</g>
<!-- Node10 -->
<g id="Node000010" class="node">
<title>Node10</title>
<g id="a_Node000010"><a xlink:href="class_string_u_i.html" target="_top" xlink:title=" ">
<polygon fill="white" stroke="#666666" points="566,-19 510,-19 510,0 566,0 566,-19"/>
<text text-anchor="middle" x="538" y="-7" font-family="Helvetica Neue" font-size="10.00">StringUI</text>
</a>
</g>
</g>
<!-- Node1&#45;&gt;Node10 -->
<g id="edge9_Node000001_Node000010" class="edge">
<title>Node1&#45;&gt;Node10</title>
<g id="a_edge9_Node000001_Node000010"><a xlink:title=" ">
<path fill="none" stroke="#63b8ff" d="M321.39,-55.51C365.84,-46.85 438.53,-32.46 501,-19 503.83,-18.39 506.79,-17.74 509.74,-17.08"/>
<polygon fill="#63b8ff" stroke="#63b8ff" points="320.68,-52.09 311.53,-57.43 322.01,-58.96 320.68,-52.09"/>
</a>
</g>
</g>
<!-- Node2 -->
<g id="Node000002" class="node">
<title>Node2</title>
<g id="a_Node000002"><a xlink:title=" ">
<polygon fill="white" stroke="#666666" points="353,-129 207,-129 207,-110 353,-110 353,-129"/>
<text text-anchor="middle" x="280" y="-117" font-family="Helvetica Neue" font-size="10.00">juce::AudioProcessorEditor</text>
</a>
</g>
</g>
<!-- Node2&#45;&gt;Node1 -->
<g id="edge1_Node000001_Node000002" class="edge">
<title>Node2&#45;&gt;Node1</title>
<g id="a_edge1_Node000001_Node000002"><a xlink:title=" ">
<path fill="none" stroke="#63b8ff" d="M280,-99.66C280,-90.93 280,-80.99 280,-74.09"/>
<polygon fill="#63b8ff" stroke="#63b8ff" points="276.5,-99.75 280,-109.75 283.5,-99.75 276.5,-99.75"/>
</a>
</g>
</g>
</g>
</svg>
