<?xml version="1.0" encoding="UTF-8" standalone="no"?>
<!DOCTYPE svg PUBLIC "-//W3C//DTD SVG 1.1//EN"
 "http://www.w3.org/Graphics/SVG/1.1/DTD/svg11.dtd">
<!-- Generated by graphviz version 2.38.0 (20140413.2041)
 -->
<!-- Title: ModuleProcessor Pages: 1 -->
<svg width="439pt" height="140pt"
 viewBox="0.00 0.00 439.00 140.00" xmlns="http://www.w3.org/2000/svg" xmlns:xlink="http://www.w3.org/1999/xlink">
<g id="graph0" class="graph" transform="scale(1 1) rotate(0) translate(4 136)">
<title>ModuleProcessor</title>
<polygon fill="white" stroke="none" points="-4,4 -4,-136 435,-136 435,4 -4,4"/>
<!-- Node1 -->
<g id="node1" class="node"><title>Node1</title>
<polygon fill="#bfbfbf" stroke="black" points="164,-56.5 164,-75.5 262,-75.5 262,-56.5 164,-56.5"/>
<text text-anchor="middle" x="213" y="-63.5" font-family="Helvetica Neue" font-size="10.00">ModuleProcessor</text>
</g>
<!-- Node3 -->
<g id="node3" class="node"><title>Node3</title>
<g id="a_node3"><a xlink:href="class_gain_processor.html" target="_top" xlink:title="GainProcessor">
<polygon fill="white" stroke="black" points="0,-0.5 0,-19.5 86,-19.5 86,-0.5 0,-0.5"/>
<text text-anchor="middle" x="43" y="-7.5" font-family="Helvetica Neue" font-size="10.00">GainProcessor</text>
</a>
</g>
</g>
<!-- Node1&#45;&gt;Node3 -->
<g id="edge2" class="edge"><title>Node1&#45;&gt;Node3</title>
<path fill="none" stroke="midnightblue" d="M176.181,-53.3044C144.148,-43.1294 98.4848,-28.6246 69.811,-19.5164"/>
<polygon fill="midnightblue" stroke="midnightblue" points="175.473,-56.7518 186.063,-56.4435 177.592,-50.0803 175.473,-56.7518"/>
</g>
<!-- Node4 -->
<g id="node4" class="node"><title>Node4</title>
<g id="a_node4"><a xlink:href="class_impulse_processor.html" target="_top" xlink:title="ImpulseProcessor">
<polygon fill="white" stroke="black" points="104.5,-0.5 104.5,-19.5 205.5,-19.5 205.5,-0.5 104.5,-0.5"/>
<text text-anchor="middle" x="155" y="-7.5" font-family="Helvetica Neue" font-size="10.00">ImpulseProcessor</text>
</a>
</g>
</g>
<!-- Node1&#45;&gt;Node4 -->
<g id="edge3" class="edge"><title>Node1&#45;&gt;Node4</title>
<path fill="none" stroke="midnightblue" d="M196.087,-49.2533C185.797,-39.6731 173.034,-27.7906 164.488,-19.8339"/>
<polygon fill="midnightblue" stroke="midnightblue" points="193.977,-52.0714 203.681,-56.324 198.747,-46.9481 193.977,-52.0714"/>
</g>
<!-- Node5 -->
<g id="node5" class="node"><title>Node5</title>
<g id="a_node5"><a xlink:href="class_output_processor.html" target="_top" xlink:title="OutputProcessor">
<polygon fill="white" stroke="black" points="223.5,-0.5 223.5,-19.5 320.5,-19.5 320.5,-0.5 223.5,-0.5"/>
<text text-anchor="middle" x="272" y="-7.5" font-family="Helvetica Neue" font-size="10.00">OutputProcessor</text>
</a>
</g>
</g>
<!-- Node1&#45;&gt;Node5 -->
<g id="edge4" class="edge"><title>Node1&#45;&gt;Node5</title>
<path fill="none" stroke="midnightblue" d="M229.895,-49.5372C240.415,-39.9087 253.569,-27.8694 262.348,-19.8339"/>
<polygon fill="midnightblue" stroke="midnightblue" points="227.493,-46.9905 222.479,-56.324 232.219,-52.1542 227.493,-46.9905"/>
</g>
<!-- Node6 -->
<g id="node6" class="node"><title>Node6</title>
<g id="a_node6"><a xlink:href="class_string_processor.html" target="_top" xlink:title="StringProcessor">
<polygon fill="white" stroke="black" points="339,-0.5 339,-19.5 431,-19.5 431,-0.5 339,-0.5"/>
<text text-anchor="middle" x="385" y="-7.5" font-family="Helvetica Neue" font-size="10.00">StringProcessor</text>
</a>
</g>
</g>
<!-- Node1&#45;&gt;Node6 -->
<g id="edge5" class="edge"><title>Node1&#45;&gt;Node6</title>
<path fill="none" stroke="midnightblue" d="M249.832,-53.4363C282.262,-43.2551 328.737,-28.664 357.874,-19.5164"/>
<polygon fill="midnightblue" stroke="midnightblue" points="248.746,-50.1088 240.254,-56.4435 250.843,-56.7874 248.746,-50.1088"/>
</g>
<!-- Node2 -->
<g id="node2" class="node"><title>Node2</title>
<polygon fill="white" stroke="#bfbfbf" points="167.5,-112.5 167.5,-131.5 258.5,-131.5 258.5,-112.5 167.5,-112.5"/>
<text text-anchor="middle" x="213" y="-119.5" font-family="Helvetica Neue" font-size="10.00">AudioProcessor</text>
</g>
<!-- Node2&#45;&gt;Node1 -->
<g id="edge1" class="edge"><title>Node2&#45;&gt;Node1</title>
<path fill="none" stroke="midnightblue" d="M213,-101.805C213,-92.9102 213,-82.7798 213,-75.7511"/>
<polygon fill="midnightblue" stroke="midnightblue" points="209.5,-102.083 213,-112.083 216.5,-102.083 209.5,-102.083"/>
</g>
</g>
</svg>
