<?xml version="1.0" encoding="UTF-8" standalone="no"?>
<!DOCTYPE svg PUBLIC "-//W3C//DTD SVG 1.1//EN"
 "http://www.w3.org/Graphics/SVG/1.1/DTD/svg11.dtd">
<!-- Generated by graphviz version 2.38.0 (20140413.2041)
 -->
<!-- Title: MainPatcher Pages: 1 -->
<svg width="371pt" height="84pt"
 viewBox="0.00 0.00 371.00 84.00" xmlns="http://www.w3.org/2000/svg" xmlns:xlink="http://www.w3.org/1999/xlink">
<g id="graph0" class="graph" transform="scale(1 1) rotate(0) translate(4 80)">
<title>MainPatcher</title>
<polygon fill="white" stroke="none" points="-4,4 -4,-80 367,-80 367,4 -4,4"/>
<!-- Node1 -->
<g id="node1" class="node"><title>Node1</title>
<polygon fill="#bfbfbf" stroke="black" points="100,-0.5 100,-19.5 175,-19.5 175,-0.5 100,-0.5"/>
<text text-anchor="middle" x="137.5" y="-7.5" font-family="Helvetica Neue" font-size="10.00">MainPatcher</text>
</g>
<!-- Node2 -->
<g id="node2" class="node"><title>Node2</title>
<polygon fill="white" stroke="#bfbfbf" points="0,-56.5 0,-75.5 73,-75.5 73,-56.5 0,-56.5"/>
<text text-anchor="middle" x="36.5" y="-63.5" font-family="Helvetica Neue" font-size="10.00">Component</text>
</g>
<!-- Node2&#45;&gt;Node1 -->
<g id="edge1" class="edge"><title>Node2&#45;&gt;Node1</title>
<path fill="none" stroke="midnightblue" d="M61.5825,-51.5895C80.257,-41.6052 105.204,-28.2672 121.313,-19.6545"/>
<polygon fill="midnightblue" stroke="midnightblue" points="59.8959,-48.5224 52.7274,-56.324 63.1963,-54.6955 59.8959,-48.5224"/>
</g>
<!-- Node3 -->
<g id="node3" class="node"><title>Node3</title>
<polygon fill="white" stroke="#bfbfbf" points="91.5,-56.5 91.5,-75.5 183.5,-75.5 183.5,-56.5 91.5,-56.5"/>
<text text-anchor="middle" x="137.5" y="-63.5" font-family="Helvetica Neue" font-size="10.00">ChangeListener</text>
</g>
<!-- Node3&#45;&gt;Node1 -->
<g id="edge2" class="edge"><title>Node3&#45;&gt;Node1</title>
<path fill="none" stroke="midnightblue" d="M137.5,-45.8045C137.5,-36.9102 137.5,-26.7798 137.5,-19.7511"/>
<polygon fill="midnightblue" stroke="midnightblue" points="134,-46.083 137.5,-56.083 141,-46.083 134,-46.083"/>
</g>
<!-- Node4 -->
<g id="node4" class="node"><title>Node4</title>
<polygon fill="white" stroke="#bfbfbf" points="202,-56.5 202,-75.5 363,-75.5 363,-56.5 202,-56.5"/>
<text text-anchor="middle" x="282.5" y="-63.5" font-family="Helvetica Neue" font-size="10.00">LassoSource&lt; ModuleBox * &gt;</text>
</g>
<!-- Node4&#45;&gt;Node1 -->
<g id="edge3" class="edge"><title>Node4&#45;&gt;Node1</title>
<path fill="none" stroke="midnightblue" d="M250.025,-52.9058C222.764,-42.7536 184.508,-28.5063 160.368,-19.5164"/>
<polygon fill="midnightblue" stroke="midnightblue" points="248.932,-56.2334 259.524,-56.4435 251.375,-49.6736 248.932,-56.2334"/>
</g>
</g>
</svg>
