<?xml version="1.0" encoding="UTF-8" standalone="no"?>
<!DOCTYPE svg PUBLIC "-//W3C//DTD SVG 1.1//EN"
 "http://www.w3.org/Graphics/SVG/1.1/DTD/svg11.dtd">
<!-- Generated by graphviz version 2.38.0 (20140413.2041)
 -->
<!-- Title: PlugEventEmitter Pages: 1 -->
<svg width="150pt" height="140pt"
 viewBox="0.00 0.00 149.50 140.00" xmlns="http://www.w3.org/2000/svg" xmlns:xlink="http://www.w3.org/1999/xlink">
<g id="graph0" class="graph" transform="scale(1 1) rotate(0) translate(4 136)">
<title>PlugEventEmitter</title>
<polygon fill="white" stroke="none" points="-4,4 -4,-136 145.5,-136 145.5,4 -4,4"/>
<!-- Node1 -->
<g id="node1" class="node"><title>Node1</title>
<polygon fill="#bfbfbf" stroke="black" points="19,-112.5 19,-131.5 118,-131.5 118,-112.5 19,-112.5"/>
<text text-anchor="middle" x="68.5" y="-119.5" font-family="Helvetica Neue" font-size="10.00">PlugEventEmitter</text>
</g>
<!-- Node2 -->
<g id="node2" class="node"><title>Node2</title>
<g id="a_node2"><a xlink:href="class_plug.html" target="_top" xlink:title="A base class for Inlet and Outlet &#45; This is a UI class for handling connection and dragging behaviors...">
<polygon fill="white" stroke="black" points="50,-56.5 50,-75.5 87,-75.5 87,-56.5 50,-56.5"/>
<text text-anchor="middle" x="68.5" y="-63.5" font-family="Helvetica Neue" font-size="10.00">Plug</text>
</a>
</g>
</g>
<!-- Node1&#45;&gt;Node2 -->
<g id="edge1" class="edge"><title>Node1&#45;&gt;Node2</title>
<path fill="none" stroke="midnightblue" d="M68.5,-101.805C68.5,-92.9102 68.5,-82.7798 68.5,-75.7511"/>
<polygon fill="midnightblue" stroke="midnightblue" points="65.0001,-102.083 68.5,-112.083 72.0001,-102.083 65.0001,-102.083"/>
</g>
<!-- Node3 -->
<g id="node3" class="node"><title>Node3</title>
<g id="a_node3"><a xlink:href="class_inlet_plug.html" target="_top" xlink:title="A Plug in Inlet mode (other functionality might be added here) ">
<polygon fill="white" stroke="black" points="0,-0.5 0,-19.5 57,-19.5 57,-0.5 0,-0.5"/>
<text text-anchor="middle" x="28.5" y="-7.5" font-family="Helvetica Neue" font-size="10.00">InletPlug</text>
</a>
</g>
</g>
<!-- Node2&#45;&gt;Node3 -->
<g id="edge2" class="edge"><title>Node2&#45;&gt;Node3</title>
<path fill="none" stroke="midnightblue" d="M55.8003,-47.8554C48.874,-38.5048 40.5937,-27.3265 34.9823,-19.7511"/>
<polygon fill="midnightblue" stroke="midnightblue" points="53.13,-50.1307 61.8948,-56.083 58.755,-45.9641 53.13,-50.1307"/>
</g>
<!-- Node4 -->
<g id="node4" class="node"><title>Node4</title>
<g id="a_node4"><a xlink:href="class_outlet_plug.html" target="_top" xlink:title="A Plug in Outlet mode (other functionality might be added here) ">
<polygon fill="white" stroke="black" points="75.5,-0.5 75.5,-19.5 141.5,-19.5 141.5,-0.5 75.5,-0.5"/>
<text text-anchor="middle" x="108.5" y="-7.5" font-family="Helvetica Neue" font-size="10.00">OutletPlug</text>
</a>
</g>
</g>
<!-- Node2&#45;&gt;Node4 -->
<g id="edge3" class="edge"><title>Node2&#45;&gt;Node4</title>
<path fill="none" stroke="midnightblue" d="M81.1997,-47.8554C88.126,-38.5048 96.4063,-27.3265 102.018,-19.7511"/>
<polygon fill="midnightblue" stroke="midnightblue" points="78.245,-45.9641 75.1052,-56.083 83.87,-50.1307 78.245,-45.9641"/>
</g>
</g>
</svg>
