<?xml version="1.0" encoding="UTF-8" standalone="no"?>
<!DOCTYPE svg PUBLIC "-//W3C//DTD SVG 1.1//EN"
 "http://www.w3.org/Graphics/SVG/1.1/DTD/svg11.dtd">
<!-- Generated by graphviz version 2.38.0 (20140413.2041)
 -->
<!-- Title: ModuleBox Pages: 1 -->
<svg width="277pt" height="218pt"
 viewBox="0.00 0.00 277.00 218.00" xmlns="http://www.w3.org/2000/svg" xmlns:xlink="http://www.w3.org/1999/xlink">
<g id="graph0" class="graph" transform="scale(1 1) rotate(0) translate(4 214)">
<title>ModuleBox</title>
<polygon fill="white" stroke="none" points="-4,4 -4,-214 273,-214 273,4 -4,4"/>
<!-- Node1 -->
<g id="node1" class="node"><title>Node1</title>
<polygon fill="#bfbfbf" stroke="black" points="200,-95.5 200,-114.5 269,-114.5 269,-95.5 200,-95.5"/>
<text text-anchor="middle" x="234.5" y="-102.5" font-family="Helvetica Neue" font-size="10.00">ModuleBox</text>
</g>
<!-- Node2 -->
<g id="node2" class="node"><title>Node2</title>
<polygon fill="white" stroke="#bfbfbf" points="45.5,-190.5 45.5,-209.5 118.5,-209.5 118.5,-190.5 45.5,-190.5"/>
<text text-anchor="middle" x="82" y="-197.5" font-family="Helvetica Neue" font-size="10.00">Component</text>
</g>
<!-- Node2&#45;&gt;Node1 -->
<g id="edge1" class="edge"><title>Node2&#45;&gt;Node1</title>
<path fill="none" stroke="midnightblue" d="M128.567,-194.297C140.645,-191.482 153.291,-187.278 164,-181 192.998,-164.001 216.887,-130.982 227.532,-114.64"/>
<polygon fill="midnightblue" stroke="midnightblue" points="127.699,-190.902 118.612,-196.35 129.113,-197.758 127.699,-190.902"/>
</g>
<!-- Node3 -->
<g id="node3" class="node"><title>Node3</title>
<polygon fill="white" stroke="#bfbfbf" points="36,-152.5 36,-171.5 128,-171.5 128,-152.5 36,-152.5"/>
<text text-anchor="middle" x="82" y="-159.5" font-family="Helvetica Neue" font-size="10.00">ChangeListener</text>
</g>
<!-- Node3&#45;&gt;Node1 -->
<g id="edge2" class="edge"><title>Node3&#45;&gt;Node1</title>
<path fill="none" stroke="midnightblue" d="M138.057,-151.206C146.855,-148.878 155.766,-146.15 164,-143 183.908,-135.384 205.187,-123.06 218.878,-114.521"/>
<polygon fill="midnightblue" stroke="midnightblue" points="137.067,-147.845 128.214,-153.665 138.764,-154.637 137.067,-147.845"/>
</g>
<!-- Node4 -->
<g id="node4" class="node"><title>Node4</title>
<polygon fill="white" stroke="#bfbfbf" points="26,-114.5 26,-133.5 138,-133.5 138,-114.5 26,-114.5"/>
<text text-anchor="middle" x="82" y="-121.5" font-family="Helvetica Neue" font-size="10.00">ChangeBroadcaster</text>
</g>
<!-- Node4&#45;&gt;Node1 -->
<g id="edge3" class="edge"><title>Node4&#45;&gt;Node1</title>
<path fill="none" stroke="midnightblue" d="M148.489,-115.732C166.182,-113.499 184.607,-111.172 199.763,-109.259"/>
<polygon fill="midnightblue" stroke="midnightblue" points="147.669,-112.308 138.186,-117.033 148.546,-119.253 147.669,-112.308"/>
</g>
<!-- Node5 -->
<g id="node5" class="node"><title>Node5</title>
<polygon fill="white" stroke="#bfbfbf" points="54.5,-76.5 54.5,-95.5 109.5,-95.5 109.5,-76.5 54.5,-76.5"/>
<text text-anchor="middle" x="82" y="-83.5" font-family="Helvetica Neue" font-size="10.00">Listener</text>
</g>
<!-- Node5&#45;&gt;Node1 -->
<g id="edge4" class="edge"><title>Node5&#45;&gt;Node1</title>
<path fill="none" stroke="midnightblue" d="M119.54,-90.6131C144.006,-93.7018 175.974,-97.7376 199.823,-100.748"/>
<polygon fill="midnightblue" stroke="midnightblue" points="119.92,-87.1332 109.56,-89.3531 119.043,-94.0781 119.92,-87.1332"/>
</g>
<!-- Node6 -->
<g id="node6" class="node"><title>Node6</title>
<polygon fill="white" stroke="#bfbfbf" points="26,-38.5 26,-57.5 138,-57.5 138,-38.5 26,-38.5"/>
<text text-anchor="middle" x="82" y="-45.5" font-family="Helvetica Neue" font-size="10.00">ComponentDragger</text>
</g>
<!-- Node6&#45;&gt;Node1 -->
<g id="edge5" class="edge"><title>Node6&#45;&gt;Node1</title>
<path fill="none" stroke="midnightblue" d="M143.051,-60.1569C150.198,-62.1682 157.322,-64.4453 164,-67 183.908,-74.616 205.187,-86.94 218.878,-95.479"/>
<polygon fill="midnightblue" stroke="midnightblue" points="143.892,-56.759 133.329,-57.5777 142.097,-63.525 143.892,-56.759"/>
</g>
<!-- Node7 -->
<g id="node7" class="node"><title>Node7</title>
<polygon fill="white" stroke="#bfbfbf" points="0,-0.5 0,-19.5 164,-19.5 164,-0.5 0,-0.5"/>
<text text-anchor="middle" x="82" y="-7.5" font-family="Helvetica Neue" font-size="10.00">ComponentBoundsConstrainer</text>
</g>
<!-- Node7&#45;&gt;Node1 -->
<g id="edge6" class="edge"><title>Node7&#45;&gt;Node1</title>
<path fill="none" stroke="midnightblue" d="M152.26,-23.1868C156.337,-24.8941 160.285,-26.8223 164,-29 192.998,-45.9993 216.887,-79.0182 227.532,-95.36"/>
<polygon fill="midnightblue" stroke="midnightblue" points="153.157,-19.7865 142.564,-19.5908 150.723,-26.3497 153.157,-19.7865"/>
</g>
</g>
</svg>
