<?xml version="1.0" encoding="UTF-8" standalone="no"?>
<!DOCTYPE svg PUBLIC "-//W3C//DTD SVG 1.1//EN"
 "http://www.w3.org/Graphics/SVG/1.1/DTD/svg11.dtd">
<!-- Generated by graphviz version 2.38.0 (20140413.2041)
 -->
<!-- Title: PhiSliderButton Pages: 1 -->
<svg width="168pt" height="84pt"
 viewBox="0.00 0.00 168.00 84.00" xmlns="http://www.w3.org/2000/svg" xmlns:xlink="http://www.w3.org/1999/xlink">
<g id="graph0" class="graph" transform="scale(1 1) rotate(0) translate(4 80)">
<title>PhiSliderButton</title>
<polygon fill="white" stroke="none" points="-4,4 -4,-80 164,-80 164,4 -4,4"/>
<!-- Node1 -->
<g id="node1" class="node"><title>Node1</title>
<polygon fill="#bfbfbf" stroke="black" points="23.5,-0.5 23.5,-19.5 113.5,-19.5 113.5,-0.5 23.5,-0.5"/>
<text text-anchor="middle" x="68.5" y="-7.5" font-family="Helvetica Neue" font-size="10.00">PhiSliderButton</text>
</g>
<!-- Node2 -->
<g id="node2" class="node"><title>Node2</title>
<polygon fill="white" stroke="#bfbfbf" points="0,-56.5 0,-75.5 49,-75.5 49,-56.5 0,-56.5"/>
<text text-anchor="middle" x="24.5" y="-63.5" font-family="Helvetica Neue" font-size="10.00">Button</text>
</g>
<!-- Node2&#45;&gt;Node1 -->
<g id="edge1" class="edge"><title>Node2&#45;&gt;Node1</title>
<path fill="none" stroke="midnightblue" d="M38.2345,-48.144C45.9005,-38.7357 55.1333,-27.4046 61.3695,-19.7511"/>
<polygon fill="midnightblue" stroke="midnightblue" points="35.3691,-46.1198 31.7657,-56.083 40.7958,-50.5415 35.3691,-46.1198"/>
</g>
<!-- Node3 -->
<g id="node3" class="node"><title>Node3</title>
<polygon fill="white" stroke="#bfbfbf" points="67,-56.5 67,-75.5 160,-75.5 160,-56.5 67,-56.5"/>
<text text-anchor="middle" x="113.5" y="-63.5" font-family="Helvetica Neue" font-size="10.00">Button::Listener</text>
</g>
<!-- Node3&#45;&gt;Node1 -->
<g id="edge2" class="edge"><title>Node3&#45;&gt;Node1</title>
<path fill="none" stroke="midnightblue" d="M99.4533,-48.144C91.6131,-38.7357 82.1705,-27.4046 75.7926,-19.7511"/>
<polygon fill="midnightblue" stroke="midnightblue" points="96.9785,-50.6414 106.069,-56.083 102.356,-46.1601 96.9785,-50.6414"/>
</g>
</g>
</svg>
