<?xml version="1.0" encoding="UTF-8" standalone="no"?>
<!DOCTYPE svg PUBLIC "-//W3C//DTD SVG 1.1//EN"
 "http://www.w3.org/Graphics/SVG/1.1/DTD/svg11.dtd">
<!-- Generated by graphviz version 2.38.0 (20140413.2041)
 -->
<!-- Title: PhiDial Pages: 1 -->
<svg width="158pt" height="84pt"
 viewBox="0.00 0.00 158.00 84.00" xmlns="http://www.w3.org/2000/svg" xmlns:xlink="http://www.w3.org/1999/xlink">
<g id="graph0" class="graph" transform="scale(1 1) rotate(0) translate(4 80)">
<title>PhiDial</title>
<polygon fill="white" stroke="none" points="-4,4 -4,-80 154,-80 154,4 -4,4"/>
<!-- Node1 -->
<g id="node1" class="node"><title>Node1</title>
<polygon fill="#bfbfbf" stroke="black" points="39.5,-0.5 39.5,-19.5 88.5,-19.5 88.5,-0.5 39.5,-0.5"/>
<text text-anchor="middle" x="64" y="-7.5" font-family="Helvetica Neue" font-size="10.00">PhiDial</text>
</g>
<!-- Node2 -->
<g id="node2" class="node"><title>Node2</title>
<polygon fill="white" stroke="#bfbfbf" points="0,-56.5 0,-75.5 44,-75.5 44,-56.5 0,-56.5"/>
<text text-anchor="middle" x="22" y="-63.5" font-family="Helvetica Neue" font-size="10.00">Slider</text>
</g>
<!-- Node2&#45;&gt;Node1 -->
<g id="edge1" class="edge"><title>Node2&#45;&gt;Node1</title>
<path fill="none" stroke="midnightblue" d="M35.1102,-48.144C42.4278,-38.7357 51.2409,-27.4046 57.1936,-19.7511"/>
<polygon fill="midnightblue" stroke="midnightblue" points="32.3122,-46.0406 28.9354,-56.083 37.8376,-50.3383 32.3122,-46.0406"/>
</g>
<!-- Node3 -->
<g id="node3" class="node"><title>Node3</title>
<polygon fill="white" stroke="#bfbfbf" points="62,-56.5 62,-75.5 150,-75.5 150,-56.5 62,-56.5"/>
<text text-anchor="middle" x="106" y="-63.5" font-family="Helvetica Neue" font-size="10.00">Slider::Listener</text>
</g>
<!-- Node3&#45;&gt;Node1 -->
<g id="edge2" class="edge"><title>Node3&#45;&gt;Node1</title>
<path fill="none" stroke="midnightblue" d="M92.8898,-48.144C85.5722,-38.7357 76.7591,-27.4046 70.8064,-19.7511"/>
<polygon fill="midnightblue" stroke="midnightblue" points="90.1624,-50.3383 99.0646,-56.083 95.6878,-46.0406 90.1624,-50.3383"/>
</g>
</g>
</svg>
