<?xml version="1.0" encoding="UTF-8" standalone="no"?>
<!DOCTYPE svg PUBLIC "-//W3C//DTD SVG 1.1//EN"
 "http://www.w3.org/Graphics/SVG/1.1/DTD/svg11.dtd">
<!-- Generated by graphviz version 2.38.0 (20140413.2041)
 -->
<!-- Title: Connections Pages: 1 -->
<svg width="408pt" height="180pt"
 viewBox="0.00 0.00 408.00 180.00" xmlns="http://www.w3.org/2000/svg" xmlns:xlink="http://www.w3.org/1999/xlink">
<g id="graph0" class="graph" transform="scale(1 1) rotate(0) translate(4 176)">
<title>Connections</title>
<polygon fill="white" stroke="none" points="-4,4 -4,-176 404,-176 404,4 -4,4"/>
<!-- Node1 -->
<g id="node1" class="node"><title>Node1</title>
<polygon fill="#bfbfbf" stroke="black" points="324,-76.5 324,-95.5 400,-95.5 400,-76.5 324,-76.5"/>
<text text-anchor="middle" x="362" y="-83.5" font-family="Helvetica Neue" font-size="10.00">Connections</text>
</g>
<!-- Node2 -->
<g id="node2" class="node"><title>Node2</title>
<polygon fill="white" stroke="#bfbfbf" points="163,-152.5 163,-171.5 236,-171.5 236,-152.5 163,-152.5"/>
<text text-anchor="middle" x="199.5" y="-159.5" font-family="Helvetica Neue" font-size="10.00">Component</text>
</g>
<!-- Node2&#45;&gt;Node1 -->
<g id="edge1" class="edge"><title>Node2&#45;&gt;Node1</title>
<path fill="none" stroke="midnightblue" d="M246.034,-156.122C259.933,-153.28 274.975,-149.106 288,-143 313.624,-130.987 338.519,-108.551 351.576,-95.7009"/>
<polygon fill="midnightblue" stroke="midnightblue" points="245.35,-152.689 236.161,-157.964 246.634,-159.57 245.35,-152.689"/>
</g>
<!-- Node3 -->
<g id="node3" class="node"><title>Node3</title>
<polygon fill="white" stroke="#bfbfbf" points="143.5,-114.5 143.5,-133.5 255.5,-133.5 255.5,-114.5 143.5,-114.5"/>
<text text-anchor="middle" x="199.5" y="-121.5" font-family="Helvetica Neue" font-size="10.00">ChangeBroadcaster</text>
</g>
<!-- Node3&#45;&gt;Node1 -->
<g id="edge2" class="edge"><title>Node3&#45;&gt;Node1</title>
<path fill="none" stroke="midnightblue" d="M256.028,-112.3C266.659,-109.959 277.687,-107.461 288,-105 300.229,-102.082 313.552,-98.6809 325.428,-95.569"/>
<polygon fill="midnightblue" stroke="midnightblue" points="255.018,-108.938 245.994,-114.49 256.511,-115.777 255.018,-108.938"/>
</g>
<!-- Node4 -->
<g id="node4" class="node"><title>Node4</title>
<polygon fill="white" stroke="#bfbfbf" points="153.5,-76.5 153.5,-95.5 245.5,-95.5 245.5,-76.5 153.5,-76.5"/>
<text text-anchor="middle" x="199.5" y="-83.5" font-family="Helvetica Neue" font-size="10.00">ChangeListener</text>
</g>
<!-- Node4&#45;&gt;Node1 -->
<g id="edge3" class="edge"><title>Node4&#45;&gt;Node1</title>
<path fill="none" stroke="midnightblue" d="M255.725,-86C278.192,-86 303.568,-86 323.776,-86"/>
<polygon fill="midnightblue" stroke="midnightblue" points="255.635,-82.5001 245.635,-86 255.635,-89.5001 255.635,-82.5001"/>
</g>
<!-- Node5 -->
<g id="node5" class="node"><title>Node5</title>
<g id="a_node5"><a xlink:href="class_plug_handler.html" target="_top" xlink:title="The PlugHandler implements patching mechanics between sources and destinations &#45; dragging, clicking and keeping connected with the Shift key. ">
<polygon fill="white" stroke="black" points="162.5,-38.5 162.5,-57.5 236.5,-57.5 236.5,-38.5 162.5,-38.5"/>
<text text-anchor="middle" x="199.5" y="-45.5" font-family="Helvetica Neue" font-size="10.00">PlugHandler</text>
</a>
</g>
</g>
<!-- Node5&#45;&gt;Node1 -->
<g id="edge4" class="edge"><title>Node5&#45;&gt;Node1</title>
<path fill="none" stroke="midnightblue" d="M246.694,-57.6618C260.047,-60.5545 274.625,-63.8088 288,-67 300.229,-69.9178 313.552,-73.3191 325.428,-76.431"/>
<polygon fill="midnightblue" stroke="midnightblue" points="247.273,-54.2065 236.761,-55.5272 245.802,-61.0502 247.273,-54.2065"/>
</g>
<!-- Node6 -->
<g id="node6" class="node"><title>Node6</title>
<g id="a_node6"><a xlink:href="class_plug_listener.html" target="_top" xlink:title="PlugListener">
<polygon fill="white" stroke="black" points="0,-38.5 0,-57.5 75,-57.5 75,-38.5 0,-38.5"/>
<text text-anchor="middle" x="37.5" y="-45.5" font-family="Helvetica Neue" font-size="10.00">PlugListener</text>
</a>
</g>
</g>
<!-- Node6&#45;&gt;Node5 -->
<g id="edge5" class="edge"><title>Node6&#45;&gt;Node5</title>
<path fill="none" stroke="midnightblue" d="M85.3765,-48C109.906,-48 139.482,-48 162.24,-48"/>
<polygon fill="midnightblue" stroke="midnightblue" points="85.2073,-44.5001 75.2072,-48 85.2072,-51.5001 85.2073,-44.5001"/>
</g>
<!-- Node7 -->
<g id="node7" class="node"><title>Node7</title>
<polygon fill="white" stroke="#bfbfbf" points="111,-0.5 111,-19.5 288,-19.5 288,-0.5 111,-0.5"/>
<text text-anchor="middle" x="199.5" y="-7.5" font-family="Helvetica Neue" font-size="10.00">LassoSource&lt; PhiConnection * &gt;</text>
</g>
<!-- Node7&#45;&gt;Node1 -->
<g id="edge6" class="edge"><title>Node7&#45;&gt;Node1</title>
<path fill="none" stroke="midnightblue" d="M271.246,-22.444C277.024,-24.3343 282.68,-26.506 288,-29 313.624,-41.0125 338.519,-63.4492 351.576,-76.2991"/>
<polygon fill="midnightblue" stroke="midnightblue" points="272.03,-19.0254 261.447,-19.5214 270.029,-25.7335 272.03,-19.0254"/>
</g>
</g>
</svg>
