<?xml version="1.0" encoding="UTF-8" standalone="no"?>
<!DOCTYPE svg PUBLIC "-//W3C//DTD SVG 1.1//EN"
 "http://www.w3.org/Graphics/SVG/1.1/DTD/svg11.dtd">
<!-- Generated by graphviz version 2.38.0 (20140413.2041)
 -->
<!-- Title: ImpulseUI Pages: 1 -->
<svg width="171pt" height="140pt"
 viewBox="0.00 0.00 171.00 140.00" xmlns="http://www.w3.org/2000/svg" xmlns:xlink="http://www.w3.org/1999/xlink">
<g id="graph0" class="graph" transform="scale(1 1) rotate(0) translate(4 136)">
<title>ImpulseUI</title>
<polygon fill="white" stroke="none" points="-4,4 -4,-136 167,-136 167,4 -4,4"/>
<!-- Node1 -->
<g id="node1" class="node"><title>Node1</title>
<polygon fill="#bfbfbf" stroke="black" points="65.5,-0.5 65.5,-19.5 129.5,-19.5 129.5,-0.5 65.5,-0.5"/>
<text text-anchor="middle" x="97.5" y="-7.5" font-family="Helvetica Neue" font-size="10.00">ImpulseUI</text>
</g>
<!-- Node2 -->
<g id="node2" class="node"><title>Node2</title>
<g id="a_node2"><a xlink:href="class_module_u_i.html" target="_top" xlink:title="ModuleUI">
<polygon fill="white" stroke="black" points="29,-56.5 29,-75.5 90,-75.5 90,-56.5 29,-56.5"/>
<text text-anchor="middle" x="59.5" y="-63.5" font-family="Helvetica Neue" font-size="10.00">ModuleUI</text>
</a>
</g>
</g>
<!-- Node2&#45;&gt;Node1 -->
<g id="edge1" class="edge"><title>Node2&#45;&gt;Node1</title>
<path fill="none" stroke="midnightblue" d="M71.5647,-47.8554C78.1447,-38.5048 86.011,-27.3265 91.3418,-19.7511"/>
<polygon fill="midnightblue" stroke="midnightblue" points="68.6676,-45.8907 65.7749,-56.083 74.3922,-49.9192 68.6676,-45.8907"/>
</g>
<!-- Node3 -->
<g id="node3" class="node"><title>Node3</title>
<polygon fill="white" stroke="#bfbfbf" points="0,-112.5 0,-131.5 119,-131.5 119,-112.5 0,-112.5"/>
<text text-anchor="middle" x="59.5" y="-119.5" font-family="Helvetica Neue" font-size="10.00">AudioProcessorEditor</text>
</g>
<!-- Node3&#45;&gt;Node2 -->
<g id="edge2" class="edge"><title>Node3&#45;&gt;Node2</title>
<path fill="none" stroke="midnightblue" d="M59.5,-101.805C59.5,-92.9102 59.5,-82.7798 59.5,-75.7511"/>
<polygon fill="midnightblue" stroke="midnightblue" points="56.0001,-102.083 59.5,-112.083 63.0001,-102.083 56.0001,-102.083"/>
</g>
<!-- Node4 -->
<g id="node4" class="node"><title>Node4</title>
<polygon fill="white" stroke="#bfbfbf" points="108,-56.5 108,-75.5 163,-75.5 163,-56.5 108,-56.5"/>
<text text-anchor="middle" x="135.5" y="-63.5" font-family="Helvetica Neue" font-size="10.00">Listener</text>
</g>
<!-- Node4&#45;&gt;Node1 -->
<g id="edge3" class="edge"><title>Node4&#45;&gt;Node1</title>
<path fill="none" stroke="midnightblue" d="M123.435,-47.8554C116.855,-38.5048 108.989,-27.3265 103.658,-19.7511"/>
<polygon fill="midnightblue" stroke="midnightblue" points="120.608,-49.9192 129.225,-56.083 126.332,-45.8907 120.608,-49.9192"/>
</g>
</g>
</svg>
