<?xml version="1.0" encoding="UTF-8" standalone="no"?>
<!DOCTYPE svg PUBLIC "-//W3C//DTD SVG 1.1//EN"
 "http://www.w3.org/Graphics/SVG/1.1/DTD/svg11.dtd">
<!-- Generated by graphviz version 2.38.0 (20140413.2041)
 -->
<!-- Title: ModuleUI Pages: 1 -->
<svg width="289pt" height="140pt"
 viewBox="0.00 0.00 288.50 140.00" xmlns="http://www.w3.org/2000/svg" xmlns:xlink="http://www.w3.org/1999/xlink">
<g id="graph0" class="graph" transform="scale(1 1) rotate(0) translate(4 136)">
<title>ModuleUI</title>
<polygon fill="white" stroke="none" points="-4,4 -4,-136 284.5,-136 284.5,4 -4,4"/>
<!-- Node1 -->
<g id="node1" class="node"><title>Node1</title>
<polygon fill="#bfbfbf" stroke="black" points="107.5,-56.5 107.5,-75.5 168.5,-75.5 168.5,-56.5 107.5,-56.5"/>
<text text-anchor="middle" x="138" y="-63.5" font-family="Helvetica Neue" font-size="10.00">ModuleUI</text>
</g>
<!-- Node3 -->
<g id="node3" class="node"><title>Node3</title>
<g id="a_node3"><a xlink:href="class_gain_u_i.html" target="_top" xlink:title="GainUI">
<polygon fill="white" stroke="black" points="0,-0.5 0,-19.5 48,-19.5 48,-0.5 0,-0.5"/>
<text text-anchor="middle" x="24" y="-7.5" font-family="Helvetica Neue" font-size="10.00">GainUI</text>
</a>
</g>
</g>
<!-- Node1&#45;&gt;Node3 -->
<g id="edge2" class="edge"><title>Node1&#45;&gt;Node3</title>
<path fill="none" stroke="midnightblue" d="M110.758,-52.096C89.4599,-42.0073 60.4583,-28.2697 41.9791,-19.5164"/>
<polygon fill="midnightblue" stroke="midnightblue" points="109.401,-55.3257 119.936,-56.4435 112.397,-48.9995 109.401,-55.3257"/>
</g>
<!-- Node4 -->
<g id="node4" class="node"><title>Node4</title>
<g id="a_node4"><a xlink:href="class_impulse_u_i.html" target="_top" xlink:title="ImpulseUI">
<polygon fill="white" stroke="black" points="66,-0.5 66,-19.5 130,-19.5 130,-0.5 66,-0.5"/>
<text text-anchor="middle" x="98" y="-7.5" font-family="Helvetica Neue" font-size="10.00">ImpulseUI</text>
</a>
</g>
</g>
<!-- Node1&#45;&gt;Node4 -->
<g id="edge3" class="edge"><title>Node1&#45;&gt;Node4</title>
<path fill="none" stroke="midnightblue" d="M125.3,-47.8554C118.374,-38.5048 110.094,-27.3265 104.482,-19.7511"/>
<polygon fill="midnightblue" stroke="midnightblue" points="122.63,-50.1307 131.395,-56.083 128.255,-45.9641 122.63,-50.1307"/>
</g>
<!-- Node5 -->
<g id="node5" class="node"><title>Node5</title>
<g id="a_node5"><a xlink:href="class_output_u_i.html" target="_top" xlink:title="OutputUI">
<polygon fill="white" stroke="black" points="148.5,-0.5 148.5,-19.5 207.5,-19.5 207.5,-0.5 148.5,-0.5"/>
<text text-anchor="middle" x="178" y="-7.5" font-family="Helvetica Neue" font-size="10.00">OutputUI</text>
</a>
</g>
</g>
<!-- Node1&#45;&gt;Node5 -->
<g id="edge4" class="edge"><title>Node1&#45;&gt;Node5</title>
<path fill="none" stroke="midnightblue" d="M150.7,-47.8554C157.626,-38.5048 165.906,-27.3265 171.518,-19.7511"/>
<polygon fill="midnightblue" stroke="midnightblue" points="147.745,-45.9641 144.605,-56.083 153.37,-50.1307 147.745,-45.9641"/>
</g>
<!-- Node6 -->
<g id="node6" class="node"><title>Node6</title>
<g id="a_node6"><a xlink:href="class_string_u_i.html" target="_top" xlink:title="StringUI">
<polygon fill="white" stroke="black" points="225.5,-0.5 225.5,-19.5 280.5,-19.5 280.5,-0.5 225.5,-0.5"/>
<text text-anchor="middle" x="253" y="-7.5" font-family="Helvetica Neue" font-size="10.00">StringUI</text>
</a>
</g>
</g>
<!-- Node1&#45;&gt;Node6 -->
<g id="edge5" class="edge"><title>Node1&#45;&gt;Node6</title>
<path fill="none" stroke="midnightblue" d="M165.481,-52.096C186.966,-42.0073 216.222,-28.2697 234.863,-19.5164"/>
<polygon fill="midnightblue" stroke="midnightblue" points="163.786,-49.025 156.222,-56.4435 166.762,-55.3612 163.786,-49.025"/>
</g>
<!-- Node2 -->
<g id="node2" class="node"><title>Node2</title>
<polygon fill="white" stroke="#bfbfbf" points="78.5,-112.5 78.5,-131.5 197.5,-131.5 197.5,-112.5 78.5,-112.5"/>
<text text-anchor="middle" x="138" y="-119.5" font-family="Helvetica Neue" font-size="10.00">AudioProcessorEditor</text>
</g>
<!-- Node2&#45;&gt;Node1 -->
<g id="edge1" class="edge"><title>Node2&#45;&gt;Node1</title>
<path fill="none" stroke="midnightblue" d="M138,-101.805C138,-92.9102 138,-82.7798 138,-75.7511"/>
<polygon fill="midnightblue" stroke="midnightblue" points="134.5,-102.083 138,-112.083 141.5,-102.083 134.5,-102.083"/>
</g>
</g>
</svg>
