<?xml version="1.0" encoding="UTF-8" standalone="no"?>
<!DOCTYPE svg PUBLIC "-//W3C//DTD SVG 1.1//EN"
 "http://www.w3.org/Graphics/SVG/1.1/DTD/svg11.dtd">
<!-- Generated by graphviz version 2.43.0 (0)
 -->
<!-- Title: Connections Pages: 1 -->
<svg width="240pt" height="150pt"
 viewBox="0.00 0.00 240.00 149.50" xmlns="http://www.w3.org/2000/svg" xmlns:xlink="http://www.w3.org/1999/xlink">
<g id="graph0" class="graph" transform="scale(1 1) rotate(0) translate(4 145.5)">
<title>Connections</title>
<!-- Node1 -->
<g id="Node000001" class="node">
<title>Node1</title>
<g id="a_Node000001"><a xlink:title="The connections UI that is overlaid on top of the patcher.">
<polygon fill="#999999" stroke="#666666" points="232,-85.5 155,-85.5 155,-66.5 232,-66.5 232,-85.5"/>
<text text-anchor="middle" x="193.5" y="-73.5" font-family="Helvetica Neue" font-size="10.00">Connections</text>
</a>
</g>
</g>
<!-- Node2 -->
<g id="Node000002" class="node">
<title>Node2</title>
<g id="a_Node000002"><a xlink:title=" ">
<polygon fill="white" stroke="#666666" points="109,-141.5 10,-141.5 10,-122.5 109,-122.5 109,-141.5"/>
<text text-anchor="middle" x="59.5" y="-129.5" font-family="Helvetica Neue" font-size="10.00">juce::Component</text>
</a>
</g>
</g>
<!-- Node2&#45;&gt;Node1 -->
<g id="edge1_Node000001_Node000002" class="edge">
<title>Node2&#45;&gt;Node1</title>
<g id="a_edge1_Node000001_Node000002"><a xlink:title=" ">
<path fill="none" stroke="#63b8ff" d="M104.97,-119.24C109.75,-117.59 114.5,-115.84 119,-114 139.21,-105.74 161.33,-93.89 175.97,-85.63"/>
<polygon fill="#63b8ff" stroke="#63b8ff" points="103.61,-116 95.2,-122.44 105.79,-122.65 103.61,-116"/>
</a>
</g>
</g>
<!-- Node3 -->
<g id="Node000003" class="node">
<title>Node3</title>
<g id="a_Node000003"><a xlink:href="struct_state_1_1_listener.html" target="_top" xlink:title=" ">
<polygon fill="white" stroke="#666666" points="103,-104.5 16,-104.5 16,-85.5 103,-85.5 103,-104.5"/>
<text text-anchor="middle" x="59.5" y="-92.5" font-family="Helvetica Neue" font-size="10.00">State::Listener</text>
</a>
</g>
</g>
<!-- Node3&#45;&gt;Node1 -->
<g id="edge2_Node000001_Node000003" class="edge">
<title>Node3&#45;&gt;Node1</title>
<g id="a_edge2_Node000001_Node000003"><a xlink:title=" ">
<path fill="none" stroke="#63b8ff" d="M113.28,-87.4C127.15,-85.41 141.84,-83.29 154.75,-81.43"/>
<polygon fill="#63b8ff" stroke="#63b8ff" points="112.76,-83.94 103.36,-88.83 113.75,-90.87 112.76,-83.94"/>
</a>
</g>
</g>
<!-- Node4 -->
<g id="Node000004" class="node">
<title>Node4</title>
<g id="a_Node000004"><a xlink:title=" ">
<polygon fill="white" stroke="#666666" points="119,-67.5 0,-67.5 0,-48.5 119,-48.5 119,-67.5"/>
<text text-anchor="middle" x="59.5" y="-55.5" font-family="Helvetica Neue" font-size="10.00">juce::ChangeListener</text>
</a>
</g>
</g>
<!-- Node4&#45;&gt;Node1 -->
<g id="edge3_Node000001_Node000004" class="edge">
<title>Node4&#45;&gt;Node1</title>
<g id="a_edge3_Node000001_Node000004"><a xlink:title=" ">
<path fill="none" stroke="#63b8ff" d="M129.15,-67.36C138,-68.57 146.78,-69.77 154.86,-70.87"/>
<polygon fill="#63b8ff" stroke="#63b8ff" points="129.55,-63.88 119.17,-66 128.6,-70.82 129.55,-63.88"/>
</a>
</g>
</g>
<!-- Node5 -->
<g id="Node000005" class="node">
<title>Node5</title>
<g id="a_Node000005"><a xlink:title=" ">
<polygon fill="white" stroke="#666666" points="115.5,-30 3.5,-30 3.5,0 115.5,0 115.5,-30"/>
<text text-anchor="start" x="11.5" y="-18" font-family="Helvetica Neue" font-size="10.00">juce::LassoSource&lt;</text>
<text text-anchor="middle" x="59.5" y="-7" font-family="Helvetica Neue" font-size="10.00"> ConnectionID &gt;</text>
</a>
</g>
</g>
<!-- Node5&#45;&gt;Node1 -->
<g id="edge4_Node000001_Node000005" class="edge">
<title>Node5&#45;&gt;Node1</title>
<g id="a_edge4_Node000001_Node000005"><a xlink:title=" ">
<path fill="none" stroke="#63b8ff" d="M105.72,-34.05C110.22,-36.03 114.71,-38.03 119,-40 137.73,-48.58 158.82,-58.99 173.59,-66.41"/>
<polygon fill="#63b8ff" stroke="#63b8ff" points="107.08,-30.83 96.52,-30.05 104.29,-37.24 107.08,-30.83"/>
</a>
</g>
</g>
</g>
</svg>
