<?xml version="1.0" encoding="UTF-8" standalone="no"?>
<!DOCTYPE svg PUBLIC "-//W3C//DTD SVG 1.1//EN"
 "http://www.w3.org/Graphics/SVG/1.1/DTD/svg11.dtd">
<!-- Generated by graphviz version 2.43.0 (0)
 -->
<!-- Title: ModuleProcessor Pages: 1 -->
<svg width="428pt" height="286pt"
 viewBox="0.00 0.00 428.00 286.00" xmlns="http://www.w3.org/2000/svg" xmlns:xlink="http://www.w3.org/1999/xlink">
<g id="graph0" class="graph" transform="scale(1 1) rotate(0) translate(4 282)">
<title>ModuleProcessor</title>
<!-- Node1 -->
<g id="Node000001" class="node">
<title>Node1</title>
<g id="a_Node000001"><a xlink:title=" ">
<polygon fill="#999999" stroke="#666666" points="281,-148 181,-148 181,-129 281,-129 281,-148"/>
<text text-anchor="middle" x="231" y="-136" font-family="Helvetica Neue" font-size="10.00">ModuleProcessor</text>
</a>
</g>
</g>
<!-- Node4 -->
<g id="Node000004" class="node">
<title>Node4</title>
<g id="a_Node000004"><a xlink:href="struct_filter_processor.html" target="_top" xlink:title=" ">
<polygon fill="white" stroke="#666666" points="413,-278 324,-278 324,-259 413,-259 413,-278"/>
<text text-anchor="middle" x="368.5" y="-266" font-family="Helvetica Neue" font-size="10.00">FilterProcessor</text>
</a>
</g>
</g>
<!-- Node1&#45;&gt;Node4 -->
<g id="edge3_Node000001_Node000004" class="edge">
<title>Node1&#45;&gt;Node4</title>
<g id="a_edge3_Node000001_Node000004"><a xlink:title=" ">
<path fill="none" stroke="#63b8ff" d="M241.61,-157.13C255.23,-181.81 282.38,-225.15 317,-250.5 321.58,-253.85 326.85,-256.63 332.21,-258.92"/>
<polygon fill="#63b8ff" stroke="#63b8ff" points="244.57,-155.26 236.77,-148.09 238.4,-158.56 244.57,-155.26"/>
</a>
</g>
</g>
<!-- Node5 -->
<g id="Node000005" class="node">
<title>Node5</title>
<g id="a_Node000005"><a xlink:href="struct_friction_processor.html" target="_top" xlink:title=" ">
<polygon fill="white" stroke="#666666" points="418.5,-241 318.5,-241 318.5,-222 418.5,-222 418.5,-241"/>
<text text-anchor="middle" x="368.5" y="-229" font-family="Helvetica Neue" font-size="10.00">FrictionProcessor</text>
</a>
</g>
</g>
<!-- Node1&#45;&gt;Node5 -->
<g id="edge4_Node000001_Node000005" class="edge">
<title>Node1&#45;&gt;Node5</title>
<g id="a_edge4_Node000001_Node000005"><a xlink:title=" ">
<path fill="none" stroke="#63b8ff" d="M247.5,-155.53C263.5,-172.26 289.9,-197.52 317,-213.5 322.53,-216.76 328.75,-219.57 334.88,-221.94"/>
<polygon fill="#63b8ff" stroke="#63b8ff" points="249.91,-152.99 240.52,-148.09 244.8,-157.78 249.91,-152.99"/>
</a>
</g>
</g>
<!-- Node6 -->
<g id="Node000006" class="node">
<title>Node6</title>
<g id="a_Node000006"><a xlink:href="struct_gain_processor.html" target="_top" xlink:title=" ">
<polygon fill="white" stroke="#666666" points="411.5,-204 325.5,-204 325.5,-185 411.5,-185 411.5,-204"/>
<text text-anchor="middle" x="368.5" y="-192" font-family="Helvetica Neue" font-size="10.00">GainProcessor</text>
</a>
</g>
</g>
<!-- Node1&#45;&gt;Node6 -->
<g id="edge5_Node000001_Node000006" class="edge">
<title>Node1&#45;&gt;Node6</title>
<g id="a_edge5_Node000001_Node000006"><a xlink:title=" ">
<path fill="none" stroke="#63b8ff" d="M261.57,-152.4C277.8,-159.86 298.36,-169.03 317,-176.5 324.26,-179.41 332.19,-182.35 339.57,-184.98"/>
<polygon fill="#63b8ff" stroke="#63b8ff" points="262.62,-149.03 252.08,-148.01 259.68,-155.38 262.62,-149.03"/>
</a>
</g>
</g>
<!-- Node7 -->
<g id="Node000007" class="node">
<title>Node7</title>
<g id="a_Node000007"><a xlink:href="struct_grit_processor.html" target="_top" xlink:title=" ">
<polygon fill="white" stroke="#666666" points="409.5,-167 327.5,-167 327.5,-148 409.5,-148 409.5,-167"/>
<text text-anchor="middle" x="368.5" y="-155" font-family="Helvetica Neue" font-size="10.00">GritProcessor</text>
</a>
</g>
</g>
<!-- Node1&#45;&gt;Node7 -->
<g id="edge6_Node000001_Node000007" class="edge">
<title>Node1&#45;&gt;Node7</title>
<g id="a_edge6_Node000001_Node000007"><a xlink:title=" ">
<path fill="none" stroke="#63b8ff" d="M291.39,-146.83C303.54,-148.53 316.06,-150.29 327.34,-151.87"/>
<polygon fill="#63b8ff" stroke="#63b8ff" points="291.69,-143.34 281.3,-145.41 290.72,-150.27 291.69,-143.34"/>
</a>
</g>
</g>
<!-- Node8 -->
<g id="Node000008" class="node">
<title>Node8</title>
<g id="a_Node000008"><a xlink:href="struct_impulse_processor.html" target="_top" xlink:title=" ">
<polygon fill="white" stroke="#666666" points="420,-130 317,-130 317,-111 420,-111 420,-130"/>
<text text-anchor="middle" x="368.5" y="-118" font-family="Helvetica Neue" font-size="10.00">ImpulseProcessor</text>
</a>
</g>
</g>
<!-- Node1&#45;&gt;Node8 -->
<g id="edge7_Node000001_Node000008" class="edge">
<title>Node1&#45;&gt;Node8</title>
<g id="a_edge7_Node000001_Node000008"><a xlink:title=" ">
<path fill="none" stroke="#63b8ff" d="M291.43,-130.6C299.84,-129.49 308.42,-128.35 316.64,-127.26"/>
<polygon fill="#63b8ff" stroke="#63b8ff" points="290.75,-127.16 281.3,-131.95 291.68,-134.1 290.75,-127.16"/>
</a>
</g>
</g>
<!-- Node9 -->
<g id="Node000009" class="node">
<title>Node9</title>
<g id="a_Node000009"><a xlink:href="struct_l_f_o_processor.html" target="_top" xlink:title=" ">
<polygon fill="white" stroke="#666666" points="410,-93 327,-93 327,-74 410,-74 410,-93"/>
<text text-anchor="middle" x="368.5" y="-81" font-family="Helvetica Neue" font-size="10.00">LFOProcessor</text>
</a>
</g>
</g>
<!-- Node1&#45;&gt;Node9 -->
<g id="edge8_Node000001_Node000009" class="edge">
<title>Node1&#45;&gt;Node9</title>
<g id="a_edge8_Node000001_Node000009"><a xlink:title=" ">
<path fill="none" stroke="#63b8ff" d="M262.25,-124.73C278.39,-117.54 298.66,-108.75 317,-101.5 324.27,-98.63 332.21,-95.7 339.59,-93.07"/>
<polygon fill="#63b8ff" stroke="#63b8ff" points="260.48,-121.69 252.79,-128.98 263.35,-128.08 260.48,-121.69"/>
</a>
</g>
</g>
<!-- Node10 -->
<g id="Node000010" class="node">
<title>Node10</title>
<g id="a_Node000010"><a xlink:href="struct_output_processor.html" target="_top" xlink:title=" ">
<polygon fill="white" stroke="#666666" points="417,-56 320,-56 320,-37 417,-37 417,-56"/>
<text text-anchor="middle" x="368.5" y="-44" font-family="Helvetica Neue" font-size="10.00">OutputProcessor</text>
</a>
</g>
</g>
<!-- Node1&#45;&gt;Node10 -->
<g id="edge9_Node000001_Node000010" class="edge">
<title>Node1&#45;&gt;Node10</title>
<g id="a_edge9_Node000001_Node000010"><a xlink:title=" ">
<path fill="none" stroke="#63b8ff" d="M248.06,-121.17C264.15,-104.68 290.3,-80.12 317,-64.5 322.54,-61.26 328.77,-58.45 334.9,-56.09"/>
<polygon fill="#63b8ff" stroke="#63b8ff" points="245.39,-118.9 241.01,-128.55 250.45,-123.74 245.39,-118.9"/>
</a>
</g>
</g>
<!-- Node11 -->
<g id="Node000011" class="node">
<title>Node11</title>
<g id="a_Node000011"><a xlink:href="struct_string_processor.html" target="_top" xlink:title=" ">
<polygon fill="white" stroke="#666666" points="414.5,-19 322.5,-19 322.5,0 414.5,0 414.5,-19"/>
<text text-anchor="middle" x="368.5" y="-7" font-family="Helvetica Neue" font-size="10.00">StringProcessor</text>
</a>
</g>
</g>
<!-- Node1&#45;&gt;Node11 -->
<g id="edge10_Node000001_Node000011" class="edge">
<title>Node1&#45;&gt;Node11</title>
<g id="a_edge10_Node000001_Node000011"><a xlink:title=" ">
<path fill="none" stroke="#63b8ff" d="M241.65,-120.04C255.32,-95.58 282.52,-52.63 317,-27.5 321.59,-24.16 326.86,-21.38 332.22,-19.1"/>
<polygon fill="#63b8ff" stroke="#63b8ff" points="238.48,-118.54 236.79,-128.99 244.64,-121.87 238.48,-118.54"/>
</a>
</g>
</g>
<!-- Node2 -->
<g id="Node000002" class="node">
<title>Node2</title>
<g id="a_Node000002"><a xlink:title=" ">
<polygon fill="white" stroke="#666666" points="131.5,-170 13.5,-170 13.5,-151 131.5,-151 131.5,-170"/>
<text text-anchor="middle" x="72.5" y="-158" font-family="Helvetica Neue" font-size="10.00">juce::AudioProcessor</text>
</a>
</g>
</g>
<!-- Node2&#45;&gt;Node1 -->
<g id="edge1_Node000001_Node000002" class="edge">
<title>Node2&#45;&gt;Node1</title>
<g id="a_edge1_Node000001_Node000002"><a xlink:title=" ">
<path fill="none" stroke="#63b8ff" d="M141.75,-150.91C154.93,-149.05 168.49,-147.15 180.91,-145.4"/>
<polygon fill="#63b8ff" stroke="#63b8ff" points="141.19,-147.45 131.77,-152.31 142.16,-154.38 141.19,-147.45"/>
</a>
</g>
</g>
<!-- Node3 -->
<g id="Node000003" class="node">
<title>Node3</title>
<g id="a_Node000003"><a xlink:title=" ">
<polygon fill="white" stroke="#666666" points="145,-132.5 0,-132.5 0,-102.5 145,-102.5 145,-132.5"/>
<text text-anchor="start" x="8" y="-120.5" font-family="Helvetica Neue" font-size="10.00">juce::AudioProcessorValue</text>
<text text-anchor="middle" x="72.5" y="-109.5" font-family="Helvetica Neue" font-size="10.00">TreeState::Listener</text>
</a>
</g>
</g>
<!-- Node3&#45;&gt;Node1 -->
<g id="edge2_Node000001_Node000003" class="edge">
<title>Node3&#45;&gt;Node1</title>
<g id="a_edge2_Node000001_Node000003"><a xlink:title=" ">
<path fill="none" stroke="#63b8ff" d="M155.53,-128.51C164.21,-129.67 172.83,-130.83 180.96,-131.92"/>
<polygon fill="#63b8ff" stroke="#63b8ff" points="155.71,-125 145.34,-127.14 154.78,-131.94 155.71,-125"/>
</a>
</g>
</g>
</g>
</svg>
