<?xml version="1.0" encoding="UTF-8" standalone="no"?>
<!DOCTYPE svg PUBLIC "-//W3C//DTD SVG 1.1//EN"
 "http://www.w3.org/Graphics/SVG/1.1/DTD/svg11.dtd">
<!-- Generated by graphviz version 2.38.0 (20140413.2041)
 -->
<!-- Title: MainComponent Pages: 1 -->
<svg width="154pt" height="84pt"
 viewBox="0.00 0.00 154.00 84.00" xmlns="http://www.w3.org/2000/svg" xmlns:xlink="http://www.w3.org/1999/xlink">
<g id="graph0" class="graph" transform="scale(1 1) rotate(0) translate(4 80)">
<title>MainComponent</title>
<polygon fill="white" stroke="none" points="-4,4 -4,-80 150,-80 150,4 -4,4"/>
<!-- Node1 -->
<g id="node1" class="node"><title>Node1</title>
<polygon fill="#bfbfbf" stroke="black" points="30,-0.5 30,-19.5 125,-19.5 125,-0.5 30,-0.5"/>
<text text-anchor="middle" x="77.5" y="-7.5" font-family="Helvetica Neue" font-size="10.00">MainComponent</text>
</g>
<!-- Node2 -->
<g id="node2" class="node"><title>Node2</title>
<polygon fill="white" stroke="#bfbfbf" points="0,-56.5 0,-75.5 73,-75.5 73,-56.5 0,-56.5"/>
<text text-anchor="middle" x="36.5" y="-63.5" font-family="Helvetica Neue" font-size="10.00">Component</text>
</g>
<!-- Node2&#45;&gt;Node1 -->
<g id="edge1" class="edge"><title>Node2&#45;&gt;Node1</title>
<path fill="none" stroke="midnightblue" d="M49.5172,-47.8554C56.6167,-38.5048 65.104,-27.3265 70.8557,-19.7511"/>
<polygon fill="midnightblue" stroke="midnightblue" points="46.5299,-46.002 43.2703,-56.083 52.105,-50.235 46.5299,-46.002"/>
</g>
<!-- Node3 -->
<g id="node3" class="node"><title>Node3</title>
<polygon fill="white" stroke="#bfbfbf" points="91,-56.5 91,-75.5 146,-75.5 146,-56.5 91,-56.5"/>
<text text-anchor="middle" x="118.5" y="-63.5" font-family="Helvetica Neue" font-size="10.00">Listener</text>
</g>
<!-- Node3&#45;&gt;Node1 -->
<g id="edge2" class="edge"><title>Node3&#45;&gt;Node1</title>
<path fill="none" stroke="midnightblue" d="M105.483,-47.8554C98.3833,-38.5048 89.896,-27.3265 84.1443,-19.7511"/>
<polygon fill="midnightblue" stroke="midnightblue" points="102.895,-50.235 111.73,-56.083 108.47,-46.002 102.895,-50.235"/>
</g>
</g>
</svg>
