<?xml version="1.0" encoding="UTF-8" standalone="no"?>
<!DOCTYPE svg PUBLIC "-//W3C//DTD SVG 1.1//EN"
 "http://www.w3.org/Graphics/SVG/1.1/DTD/svg11.dtd">
<!-- Generated by graphviz version 2.43.0 (0)
 -->
<!-- Title: src Pages: 1 -->
<svg width="156pt" height="259pt"
 viewBox="0.00 0.00 156.00 259.00" xmlns="http://www.w3.org/2000/svg" xmlns:xlink="http://www.w3.org/1999/xlink">
<g id="graph0" class="graph" transform="scale(1 1) rotate(0) translate(4 255)">
<title>src</title>
<g id="clust1" class="cluster">
<title>clusterdir_c96ff5b0e3da947acb27c73e22a54a14</title>
<g id="a_clust1"><a xlink:href="dir_c96ff5b0e3da947acb27c73e22a54a14.html" target="_top" xlink:title="Source">
<polygon fill="#f4f4f4" stroke="#7f7f7f" stroke-dasharray="5,2" points="8,-8 8,-243 140,-243 140,-8 8,-8"/>
<text text-anchor="middle" x="74" y="-231" font-family="Helvetica Neue" font-size="10.00">Source</text>
</a>
</g>
</g>
<g id="clust2" class="cluster">
<title>clusterdir_cf5626768f26fe9554b85d95d86cf3ae</title>
<g id="a_clust2"><a xlink:href="dir_cf5626768f26fe9554b85d95d86cf3ae.html" target="_top">
<polygon fill="#f4f4f4" stroke="#404040" stroke-width="2" points="16,-16 16,-216 132,-216 132,-16 16,-16"/>
</a>
</g>
</g>
<!-- dir_cf5626768f26fe9554b85d95d86cf3ae -->
<g id="node1" class="node">
<title>dir_cf5626768f26fe9554b85d95d86cf3ae</title>
<text text-anchor="middle" x="74" y="-196" font-family="Helvetica Neue" font-size="10.00">src</text>
</g>
<!-- dir_35d3f46ebf2e3a4dc07632ea0a786dc1 -->
<g id="node2" class="node">
<title>dir_35d3f46ebf2e3a4dc07632ea0a786dc1</title>
<g id="a_node2"><a xlink:href="dir_35d3f46ebf2e3a4dc07632ea0a786dc1.html" target="_top" xlink:title="dsp">
<polygon fill="#c8c8c8" stroke="#404040" points="62,-43 28,-43 28,-24 62,-24 62,-43"/>
<text text-anchor="middle" x="45" y="-31" font-family="Helvetica Neue" font-size="10.00">dsp</text>
</a>
</g>
</g>
<!-- dir_cf5626768f26fe9554b85d95d86cf3ae&#45;&gt;dir_35d3f46ebf2e3a4dc07632ea0a786dc1 -->
<g id="edge1" class="edge">
<title>dir_cf5626768f26fe9554b85d95d86cf3ae&#45;&gt;dir_35d3f46ebf2e3a4dc07632ea0a786dc1</title>
<g id="a_edge1"><a xlink:href="dir_000015_000001.html" target="_top">
<path fill="none" stroke="#63b8ff" d="M63.01,-188.99C53.55,-180.9 40.57,-167.81 35,-153 22.33,-119.32 31.55,-76.57 38.72,-52.71"/>
<polygon fill="#63b8ff" stroke="#63b8ff" points="42.06,-53.77 41.79,-43.18 35.4,-51.63 42.06,-53.77"/>
</a>
</g>
<g id="a_edge1&#45;headlabel"><a xlink:href="dir_000015_000001.html" target="_top" xlink:title="12">
<text text-anchor="middle" x="43.66" y="-55.56" font-family="Helvetica Neue" font-size="10.00" fill="#63b8ff">12</text>
</a>
</g>
</g>
<!-- dir_b69119677ac2846e12a57f7483b2cfb6 -->
<g id="node3" class="node">
<title>dir_b69119677ac2846e12a57f7483b2cfb6</title>
<g id="a_node3"><a xlink:href="dir_b69119677ac2846e12a57f7483b2cfb6.html" target="_top" xlink:title="modules">
<polygon fill="#c8c8c8" stroke="#404040" points="103.5,-153 44.5,-153 44.5,-134 103.5,-134 103.5,-153"/>
<text text-anchor="middle" x="74" y="-141" font-family="Helvetica Neue" font-size="10.00">modules</text>
</a>
</g>
</g>
<!-- dir_cf5626768f26fe9554b85d95d86cf3ae&#45;&gt;dir_b69119677ac2846e12a57f7483b2cfb6 -->
<g id="edge3" class="edge">
<title>dir_cf5626768f26fe9554b85d95d86cf3ae&#45;&gt;dir_b69119677ac2846e12a57f7483b2cfb6</title>
<g id="a_edge3"><a xlink:href="dir_000015_000009.html" target="_top">
<path fill="none" stroke="#63b8ff" d="M74,-188.75C74,-181.8 74,-171.85 74,-163.13"/>
<polygon fill="#63b8ff" stroke="#63b8ff" points="77.5,-163.09 74,-153.09 70.5,-163.09 77.5,-163.09"/>
</a>
</g>
<g id="a_edge3&#45;headlabel"><a xlink:href="dir_000015_000009.html" target="_top" xlink:title="10">
<text text-anchor="middle" x="80.34" y="-164.18" font-family="Helvetica Neue" font-size="10.00" fill="#63b8ff">10</text>
</a>
</g>
</g>
<!-- dir_67a0be856378ad6144fa3ec2cbbc70eb -->
<g id="node4" class="node">
<title>dir_67a0be856378ad6144fa3ec2cbbc70eb</title>
<g id="a_node4"><a xlink:href="dir_67a0be856378ad6144fa3ec2cbbc70eb.html" target="_top" xlink:title="ui">
<polygon fill="#c8c8c8" stroke="#404040" points="93.5,-98 64.5,-98 64.5,-79 93.5,-79 93.5,-98"/>
<text text-anchor="middle" x="79" y="-86" font-family="Helvetica Neue" font-size="10.00">ui</text>
</a>
</g>
</g>
<!-- dir_cf5626768f26fe9554b85d95d86cf3ae&#45;&gt;dir_67a0be856378ad6144fa3ec2cbbc70eb -->
<g id="edge2" class="edge">
<title>dir_cf5626768f26fe9554b85d95d86cf3ae&#45;&gt;dir_67a0be856378ad6144fa3ec2cbbc70eb</title>
<g id="a_edge2"><a xlink:href="dir_000015_000017.html" target="_top">
<path fill="none" stroke="#63b8ff" d="M84.99,-188.99C94.45,-180.9 107.43,-167.81 113,-153 119.36,-136.1 107.73,-118.07 96.38,-105.55"/>
<polygon fill="#63b8ff" stroke="#63b8ff" points="98.66,-102.88 89.16,-98.19 93.66,-107.78 98.66,-102.88"/>
</a>
</g>
<g id="a_edge2&#45;headlabel"><a xlink:href="dir_000015_000017.html" target="_top" xlink:title="24">
<text text-anchor="middle" x="103.2" y="-100.95" font-family="Helvetica Neue" font-size="10.00" fill="#63b8ff">24</text>
</a>
</g>
</g>
<!-- dir_b69119677ac2846e12a57f7483b2cfb6&#45;&gt;dir_35d3f46ebf2e3a4dc07632ea0a786dc1 -->
<g id="edge4" class="edge">
<title>dir_b69119677ac2846e12a57f7483b2cfb6&#45;&gt;dir_35d3f46ebf2e3a4dc07632ea0a786dc1</title>
<g id="a_edge4"><a xlink:href="dir_000009_000001.html" target="_top">
<path fill="none" stroke="#63b8ff" d="M69.85,-133.83C65.78,-125 59.66,-110.82 56,-98 51.82,-83.34 48.97,-66.29 47.22,-53.55"/>
<polygon fill="#63b8ff" stroke="#63b8ff" points="50.65,-52.74 45.92,-43.26 43.7,-53.62 50.65,-52.74"/>
</a>
</g>
<g id="a_edge4&#45;headlabel"><a xlink:href="dir_000009_000001.html" target="_top" xlink:title="9">
<text text-anchor="middle" x="53.92" y="-53.45" font-family="Helvetica Neue" font-size="10.00" fill="#63b8ff">9</text>
</a>
</g>
</g>
<!-- dir_b69119677ac2846e12a57f7483b2cfb6&#45;&gt;dir_67a0be856378ad6144fa3ec2cbbc70eb -->
<g id="edge5" class="edge">
<title>dir_b69119677ac2846e12a57f7483b2cfb6&#45;&gt;dir_67a0be856378ad6144fa3ec2cbbc70eb</title>
<g id="a_edge5"><a xlink:href="dir_000009_000017.html" target="_top">
<path fill="none" stroke="#63b8ff" d="M69.66,-133.75C68.81,-126.72 69.33,-116.62 70.81,-107.84"/>
<polygon fill="#63b8ff" stroke="#63b8ff" points="74.23,-108.62 73.06,-98.09 67.4,-107.05 74.23,-108.62"/>
</a>
</g>
<g id="a_edge5&#45;headlabel"><a xlink:href="dir_000009_000017.html" target="_top" xlink:title="18">
<text text-anchor="middle" x="76.19" y="-110.26" font-family="Helvetica Neue" font-size="10.00" fill="#63b8ff">18</text>
</a>
</g>
</g>
<!-- dir_67a0be856378ad6144fa3ec2cbbc70eb&#45;&gt;dir_35d3f46ebf2e3a4dc07632ea0a786dc1 -->
<g id="edge6" class="edge">
<title>dir_67a0be856378ad6144fa3ec2cbbc70eb&#45;&gt;dir_35d3f46ebf2e3a4dc07632ea0a786dc1</title>
<g id="a_edge6"><a xlink:href="dir_000017_000001.html" target="_top">
<path fill="none" stroke="#63b8ff" d="M73.39,-78.75C68.68,-71.42 61.83,-60.73 56.03,-51.7"/>
<polygon fill="#63b8ff" stroke="#63b8ff" points="58.86,-49.62 50.51,-43.09 52.96,-53.4 58.86,-49.62"/>
</a>
</g>
<g id="a_edge6&#45;headlabel"><a xlink:href="dir_000017_000001.html" target="_top" xlink:title="1">
<text text-anchor="middle" x="63.19" y="-48.61" font-family="Helvetica Neue" font-size="10.00" fill="#63b8ff">1</text>
</a>
</g>
</g>
<!-- dir_67a0be856378ad6144fa3ec2cbbc70eb&#45;&gt;dir_b69119677ac2846e12a57f7483b2cfb6 -->
<g id="edge7" class="edge">
<title>dir_67a0be856378ad6144fa3ec2cbbc70eb&#45;&gt;dir_b69119677ac2846e12a57f7483b2cfb6</title>
<g id="a_edge7"><a xlink:href="dir_000017_000009.html" target="_top">
<path fill="none" stroke="#63b8ff" d="M83.32,-98.09C84.19,-105.06 83.68,-115.15 82.22,-123.95"/>
<polygon fill="#63b8ff" stroke="#63b8ff" points="78.8,-123.22 79.99,-133.75 85.62,-124.77 78.8,-123.22"/>
</a>
</g>
<g id="a_edge7&#45;headlabel"><a xlink:href="dir_000017_000009.html" target="_top" xlink:title="1">
<text text-anchor="middle" x="76.83" y="-116.59" font-family="Helvetica Neue" font-size="10.00" fill="#63b8ff">1</text>
</a>
</g>
</g>
</g>
</svg>
