<?xml version="1.0" encoding="UTF-8" standalone="no"?>
<!DOCTYPE svg PUBLIC "-//W3C//DTD SVG 1.1//EN"
 "http://www.w3.org/Graphics/SVG/1.1/DTD/svg11.dtd">
<!-- Generated by graphviz version 2.38.0 (20140413.2041)
 -->
<!-- Title: src Pages: 1 -->
<svg width="170pt" height="148pt"
 viewBox="0.00 0.00 170.00 148.00" xmlns="http://www.w3.org/2000/svg" xmlns:xlink="http://www.w3.org/1999/xlink">
<g id="graph0" class="graph" transform="scale(1 1) rotate(0) translate(4 144)">
<title>src</title>
<polygon fill="white" stroke="none" points="-4,4 -4,-144 166,-144 166,4 -4,4"/>
<g id="clust1" class="cluster"><title>clusterdir_68267d1309a1af8e8297ef4c3efbcdba</title>
<g id="a_clust1"><a xlink:href="dir_68267d1309a1af8e8297ef4c3efbcdba.html" target="_top">
<polygon fill="#eeeeff" stroke="black" points="8,-8 8,-132 154,-132 154,-8 8,-8"/>
</a>
</g>
</g>
<!-- dir_68267d1309a1af8e8297ef4c3efbcdba -->
<g id="node1" class="node"><title>dir_68267d1309a1af8e8297ef4c3efbcdba</title>
<text text-anchor="middle" x="119" y="-103.5" font-family="Helvetica Neue" font-size="10.00">src</text>
</g>
<!-- dir_ddb4d7e95cc2d6c8e1ade10a20d7247d -->
<g id="node2" class="node"><title>dir_ddb4d7e95cc2d6c8e1ade10a20d7247d</title>
<g id="a_node2"><a xlink:href="dir_ddb4d7e95cc2d6c8e1ade10a20d7247d.html" target="_top" xlink:title="modules">
<polygon fill="white" stroke="red" points="74,-124 16,-124 16,-88 74,-88 74,-124"/>
<text text-anchor="middle" x="45" y="-103.5" font-family="Helvetica Neue" font-size="10.00">modules</text>
</a>
</g>
</g>
<!-- dir_da5c6b39c0a2f54e57df6799511cd3ab -->
<g id="node3" class="node"><title>dir_da5c6b39c0a2f54e57df6799511cd3ab</title>
<g id="a_node3"><a xlink:href="dir_da5c6b39c0a2f54e57df6799511cd3ab.html" target="_top" xlink:title="ui">
<polygon fill="white" stroke="black" points="72,-52 18,-52 18,-16 72,-16 72,-52"/>
<text text-anchor="middle" x="45" y="-31.5" font-family="Helvetica Neue" font-size="10.00">ui</text>
</a>
</g>
</g>
<!-- dir_ddb4d7e95cc2d6c8e1ade10a20d7247d&#45;&gt;dir_da5c6b39c0a2f54e57df6799511cd3ab -->
<g id="edge1" class="edge"><title>dir_ddb4d7e95cc2d6c8e1ade10a20d7247d&#45;&gt;dir_da5c6b39c0a2f54e57df6799511cd3ab</title>
<path fill="none" stroke="black" d="M45,-87.6966C45,-79.9827 45,-70.7125 45,-62.1124"/>
<polygon fill="black" stroke="black" points="48.5001,-62.1043 45,-52.1043 41.5001,-62.1044 48.5001,-62.1043"/>
<g id="a_edge1&#45;headlabel"><a xlink:href="dir_000001_000005.html" target="_top" xlink:title="4">
<text text-anchor="middle" x="51.3393" y="-63.199" font-family="Helvetica Neue" font-size="10.00">4</text>
</a>
</g>
</g>
</g>
</svg>
