<?xml version="1.0" encoding="UTF-8" standalone="no"?>
<!DOCTYPE svg PUBLIC "-//W3C//DTD SVG 1.1//EN"
 "http://www.w3.org/Graphics/SVG/1.1/DTD/svg11.dtd">
<!-- Generated by graphviz version 2.38.0 (20140413.2041)
 -->
<!-- Title: modules Pages: 1 -->
<svg width="326pt" height="231pt"
 viewBox="0.00 0.00 326.00 231.00" xmlns="http://www.w3.org/2000/svg" xmlns:xlink="http://www.w3.org/1999/xlink">
<g id="graph0" class="graph" transform="scale(1 1) rotate(0) translate(4 227)">
<title>modules</title>
<polygon fill="white" stroke="none" points="-4,4 -4,-227 322,-227 322,4 -4,4"/>
<g id="clust1" class="cluster"><title>clusterdir_68267d1309a1af8e8297ef4c3efbcdba</title>
<g id="a_clust1"><a xlink:href="dir_68267d1309a1af8e8297ef4c3efbcdba.html" target="_top" xlink:title="src">
<polygon fill="#ddddee" stroke="black" points="8,-56 8,-215 310,-215 310,-56 8,-56"/>
<text text-anchor="middle" x="159" y="-203" font-family="Helvetica Neue" font-size="10.00">src</text>
</a>
</g>
</g>
<g id="clust2" class="cluster"><title>clusterdir_ddb4d7e95cc2d6c8e1ade10a20d7247d</title>
<g id="a_clust2"><a xlink:href="dir_ddb4d7e95cc2d6c8e1ade10a20d7247d.html" target="_top">
<polygon fill="#eeeeff" stroke="black" points="16,-64 16,-188 302,-188 302,-64 16,-64"/>
</a>
</g>
</g>
<!-- dir_ddb4d7e95cc2d6c8e1ade10a20d7247d -->
<g id="node1" class="node"><title>dir_ddb4d7e95cc2d6c8e1ade10a20d7247d</title>
<text text-anchor="middle" x="159" y="-159.5" font-family="Helvetica Neue" font-size="10.00">modules</text>
</g>
<!-- dir_e14469299eae5429eab03579686c6f48 -->
<g id="node2" class="node"><title>dir_e14469299eae5429eab03579686c6f48</title>
<g id="a_node2"><a xlink:href="dir_e14469299eae5429eab03579686c6f48.html" target="_top" xlink:title="Gain">
<polygon fill="white" stroke="black" points="78,-108 24,-108 24,-72 78,-72 78,-108"/>
<text text-anchor="middle" x="51" y="-87.5" font-family="Helvetica Neue" font-size="10.00">Gain</text>
</a>
</g>
</g>
<!-- dir_ddb4d7e95cc2d6c8e1ade10a20d7247d&#45;&gt;dir_e14469299eae5429eab03579686c6f48 -->
<g id="edge2" class="edge"><title>dir_ddb4d7e95cc2d6c8e1ade10a20d7247d&#45;&gt;dir_e14469299eae5429eab03579686c6f48</title>
<path fill="none" stroke="black" d="M132.58,-143.876C118.59,-134.808 101.224,-123.552 86.1142,-113.759"/>
<polygon fill="black" stroke="black" points="87.8165,-110.692 77.5213,-108.19 84.0092,-116.566 87.8165,-110.692"/>
<g id="a_edge2&#45;headlabel"><a xlink:href="dir_000001_000002.html" target="_top" xlink:title="1">
<text text-anchor="middle" x="92.3772" y="-107.764" font-family="Helvetica Neue" font-size="10.00">1</text>
</a>
</g>
</g>
<!-- dir_d4dd16131998e336dcdf7005c2ba16ec -->
<g id="node3" class="node"><title>dir_d4dd16131998e336dcdf7005c2ba16ec</title>
<g id="a_node3"><a xlink:href="dir_d4dd16131998e336dcdf7005c2ba16ec.html" target="_top" xlink:title="Impulse">
<polygon fill="white" stroke="black" points="150,-108 96,-108 96,-72 150,-72 150,-108"/>
<text text-anchor="middle" x="123" y="-87.5" font-family="Helvetica Neue" font-size="10.00">Impulse</text>
</a>
</g>
</g>
<!-- dir_ddb4d7e95cc2d6c8e1ade10a20d7247d&#45;&gt;dir_d4dd16131998e336dcdf7005c2ba16ec -->
<g id="edge5" class="edge"><title>dir_ddb4d7e95cc2d6c8e1ade10a20d7247d&#45;&gt;dir_d4dd16131998e336dcdf7005c2ba16ec</title>
<path fill="none" stroke="black" d="M150.101,-143.697C146.003,-135.728 141.051,-126.1 136.507,-117.264"/>
<polygon fill="black" stroke="black" points="139.483,-115.396 131.797,-108.104 133.258,-118.598 139.483,-115.396"/>
<g id="a_edge5&#45;headlabel"><a xlink:href="dir_000001_000003.html" target="_top" xlink:title="1">
<text text-anchor="middle" x="143.651" y="-114.795" font-family="Helvetica Neue" font-size="10.00">1</text>
</a>
</g>
</g>
<!-- dir_4ed0c9ca3c7b0e26eb16b1ebef388305 -->
<g id="node4" class="node"><title>dir_4ed0c9ca3c7b0e26eb16b1ebef388305</title>
<g id="a_node4"><a xlink:href="dir_4ed0c9ca3c7b0e26eb16b1ebef388305.html" target="_top" xlink:title="Output">
<polygon fill="white" stroke="black" points="222,-108 168,-108 168,-72 222,-72 222,-108"/>
<text text-anchor="middle" x="195" y="-87.5" font-family="Helvetica Neue" font-size="10.00">Output</text>
</a>
</g>
</g>
<!-- dir_ddb4d7e95cc2d6c8e1ade10a20d7247d&#45;&gt;dir_4ed0c9ca3c7b0e26eb16b1ebef388305 -->
<g id="edge3" class="edge"><title>dir_ddb4d7e95cc2d6c8e1ade10a20d7247d&#45;&gt;dir_4ed0c9ca3c7b0e26eb16b1ebef388305</title>
<path fill="none" stroke="black" d="M167.899,-143.697C171.997,-135.728 176.949,-126.1 181.493,-117.264"/>
<polygon fill="black" stroke="black" points="184.742,-118.598 186.203,-108.104 178.517,-115.396 184.742,-118.598"/>
<g id="a_edge3&#45;headlabel"><a xlink:href="dir_000001_000004.html" target="_top" xlink:title="1">
<text text-anchor="middle" x="185.623" y="-120.593" font-family="Helvetica Neue" font-size="10.00">1</text>
</a>
</g>
</g>
<!-- dir_a67105bb74687f149dfa0b25ca34c993 -->
<g id="node5" class="node"><title>dir_a67105bb74687f149dfa0b25ca34c993</title>
<g id="a_node5"><a xlink:href="dir_a67105bb74687f149dfa0b25ca34c993.html" target="_top" xlink:title="String">
<polygon fill="white" stroke="black" points="294,-108 240,-108 240,-72 294,-72 294,-108"/>
<text text-anchor="middle" x="267" y="-87.5" font-family="Helvetica Neue" font-size="10.00">String</text>
</a>
</g>
</g>
<!-- dir_ddb4d7e95cc2d6c8e1ade10a20d7247d&#45;&gt;dir_a67105bb74687f149dfa0b25ca34c993 -->
<g id="edge4" class="edge"><title>dir_ddb4d7e95cc2d6c8e1ade10a20d7247d&#45;&gt;dir_a67105bb74687f149dfa0b25ca34c993</title>
<path fill="none" stroke="black" d="M185.42,-143.876C199.41,-134.808 216.776,-123.552 231.886,-113.759"/>
<polygon fill="black" stroke="black" points="233.991,-116.566 240.479,-108.19 230.183,-110.692 233.991,-116.566"/>
<g id="a_edge4&#45;headlabel"><a xlink:href="dir_000001_000006.html" target="_top" xlink:title="1">
<text text-anchor="middle" x="232.519" y="-118.403" font-family="Helvetica Neue" font-size="10.00">1</text>
</a>
</g>
</g>
<!-- dir_da5c6b39c0a2f54e57df6799511cd3ab -->
<g id="node6" class="node"><title>dir_da5c6b39c0a2f54e57df6799511cd3ab</title>
<g id="a_node6"><a xlink:href="dir_da5c6b39c0a2f54e57df6799511cd3ab.html" target="_top" xlink:title="ui">
<polygon fill="none" stroke="black" points="150,-36 96,-36 96,-0 150,-0 150,-36"/>
<text text-anchor="middle" x="123" y="-15.5" font-family="Helvetica Neue" font-size="10.00">ui</text>
</a>
</g>
</g>
<!-- dir_e14469299eae5429eab03579686c6f48&#45;&gt;dir_da5c6b39c0a2f54e57df6799511cd3ab -->
<g id="edge1" class="edge"><title>dir_e14469299eae5429eab03579686c6f48&#45;&gt;dir_da5c6b39c0a2f54e57df6799511cd3ab</title>
<path fill="none" stroke="black" d="M68.7978,-71.6966C77.604,-63.135 88.3821,-52.6562 98.0011,-43.3045"/>
<polygon fill="black" stroke="black" points="100.677,-45.5846 105.407,-36.1043 95.7972,-40.5657 100.677,-45.5846"/>
<g id="a_edge1&#45;headlabel"><a xlink:href="dir_000002_000005.html" target="_top" xlink:title="1">
<text text-anchor="middle" x="100.079" y="-47.6261" font-family="Helvetica Neue" font-size="10.00">1</text>
</a>
</g>
</g>
<!-- dir_d4dd16131998e336dcdf7005c2ba16ec&#45;&gt;dir_da5c6b39c0a2f54e57df6799511cd3ab -->
<g id="edge7" class="edge"><title>dir_d4dd16131998e336dcdf7005c2ba16ec&#45;&gt;dir_da5c6b39c0a2f54e57df6799511cd3ab</title>
<path fill="none" stroke="black" d="M123,-71.6966C123,-63.9827 123,-54.7125 123,-46.1124"/>
<polygon fill="black" stroke="black" points="126.5,-46.1043 123,-36.1043 119.5,-46.1044 126.5,-46.1043"/>
<g id="a_edge7&#45;headlabel"><a xlink:href="dir_000003_000005.html" target="_top" xlink:title="1">
<text text-anchor="middle" x="129.339" y="-47.199" font-family="Helvetica Neue" font-size="10.00">1</text>
</a>
</g>
</g>
<!-- dir_a67105bb74687f149dfa0b25ca34c993&#45;&gt;dir_da5c6b39c0a2f54e57df6799511cd3ab -->
<g id="edge6" class="edge"><title>dir_a67105bb74687f149dfa0b25ca34c993&#45;&gt;dir_da5c6b39c0a2f54e57df6799511cd3ab</title>
<path fill="none" stroke="black" d="M251.309,-71.996C245.377,-66.3126 238.289,-60.33 231,-56 208.934,-42.8927 181.558,-33.5786 159.89,-27.5739"/>
<polygon fill="black" stroke="black" points="160.632,-24.1496 150.068,-24.9681 158.836,-30.9155 160.632,-24.1496"/>
<g id="a_edge6&#45;headlabel"><a xlink:href="dir_000006_000005.html" target="_top" xlink:title="2">
<text text-anchor="middle" x="164.834" y="-19.827" font-family="Helvetica Neue" font-size="10.00">2</text>
</a>
</g>
</g>
</g>
</svg>
