<?xml version="1.0" encoding="UTF-8" standalone="no"?>
<!DOCTYPE svg PUBLIC "-//W3C//DTD SVG 1.1//EN"
 "http://www.w3.org/Graphics/SVG/1.1/DTD/svg11.dtd">
<!-- Generated by graphviz version 2.43.0 (0)
 -->
<!-- Title: modules Pages: 1 -->
<svg width="538pt" height="196pt"
 viewBox="0.00 0.00 538.00 196.00" xmlns="http://www.w3.org/2000/svg" xmlns:xlink="http://www.w3.org/1999/xlink">
<g id="graph0" class="graph" transform="scale(1 1) rotate(0) translate(4 192)">
<title>modules</title>
<g id="clust1" class="cluster">
<title>clusterdir_cf5626768f26fe9554b85d95d86cf3ae</title>
<g id="a_clust1"><a xlink:href="dir_cf5626768f26fe9554b85d95d86cf3ae.html" target="_top" xlink:title="src">
<polygon fill="#f4f4f4" stroke="#7f7f7f" stroke-dasharray="5,2" points="8,-8 8,-180 522,-180 522,-8 8,-8"/>
<text text-anchor="middle" x="265" y="-168" font-family="Helvetica Neue" font-size="10.00">src</text>
</a>
</g>
</g>
<g id="clust2" class="cluster">
<title>clusterdir_b69119677ac2846e12a57f7483b2cfb6</title>
<g id="a_clust2"><a xlink:href="dir_b69119677ac2846e12a57f7483b2cfb6.html" target="_top">
<polygon fill="#f4f4f4" stroke="#404040" stroke-width="2" points="16,-63 16,-153 514,-153 514,-63 16,-63"/>
</a>
</g>
</g>
<!-- dir_35d3f46ebf2e3a4dc07632ea0a786dc1 -->
<g id="node1" class="node">
<title>dir_35d3f46ebf2e3a4dc07632ea0a786dc1</title>
<g id="a_node1"><a xlink:href="dir_35d3f46ebf2e3a4dc07632ea0a786dc1.html" target="_top" xlink:title="dsp">
<polygon fill="#c8c8c8" stroke="#404040" points="263,-35 229,-35 229,-16 263,-16 263,-35"/>
<text text-anchor="middle" x="246" y="-23" font-family="Helvetica Neue" font-size="10.00">dsp</text>
</a>
</g>
</g>
<!-- dir_67a0be856378ad6144fa3ec2cbbc70eb -->
<g id="node2" class="node">
<title>dir_67a0be856378ad6144fa3ec2cbbc70eb</title>
<g id="a_node2"><a xlink:href="dir_67a0be856378ad6144fa3ec2cbbc70eb.html" target="_top" xlink:title="ui">
<polygon fill="#c8c8c8" stroke="red" points="315.5,-35 286.5,-35 286.5,-16 315.5,-16 315.5,-35"/>
<text text-anchor="middle" x="301" y="-23" font-family="Helvetica Neue" font-size="10.00">ui</text>
</a>
</g>
</g>
<!-- dir_b69119677ac2846e12a57f7483b2cfb6 -->
<g id="node3" class="node">
<title>dir_b69119677ac2846e12a57f7483b2cfb6</title>
<text text-anchor="middle" x="273" y="-133" font-family="Helvetica Neue" font-size="10.00">modules</text>
</g>
<!-- dir_1b84c1a069cedd9fc00adf9b6efb55f1 -->
<g id="node4" class="node">
<title>dir_1b84c1a069cedd9fc00adf9b6efb55f1</title>
<g id="a_node4"><a xlink:href="dir_1b84c1a069cedd9fc00adf9b6efb55f1.html" target="_top" xlink:title="Filter">
<polygon fill="#c8c8c8" stroke="#404040" points="324.5,-90 283.5,-90 283.5,-71 324.5,-71 324.5,-90"/>
<text text-anchor="middle" x="304" y="-78" font-family="Helvetica Neue" font-size="10.00">Filter</text>
</a>
</g>
</g>
<!-- dir_b69119677ac2846e12a57f7483b2cfb6&#45;&gt;dir_1b84c1a069cedd9fc00adf9b6efb55f1 -->
<g id="edge3" class="edge">
<title>dir_b69119677ac2846e12a57f7483b2cfb6&#45;&gt;dir_1b84c1a069cedd9fc00adf9b6efb55f1</title>
<g id="a_edge3"><a xlink:href="dir_000009_000002.html" target="_top">
<path fill="none" stroke="#63b8ff" d="M278.12,-125.75C282.36,-118.49 288.53,-107.95 293.78,-98.98"/>
<polygon fill="#63b8ff" stroke="#63b8ff" points="296.95,-100.49 298.98,-90.09 290.91,-96.95 296.95,-100.49"/>
</a>
</g>
<g id="a_edge3&#45;headlabel"><a xlink:href="dir_000009_000002.html" target="_top" xlink:title="1">
<text text-anchor="middle" x="297.58" y="-102.52" font-family="Helvetica Neue" font-size="10.00" fill="#63b8ff">1</text>
</a>
</g>
</g>
<!-- dir_8064f1edcba7ab9b678165535fbcc953 -->
<g id="node5" class="node">
<title>dir_8064f1edcba7ab9b678165535fbcc953</title>
<g id="a_node5"><a xlink:href="dir_8064f1edcba7ab9b678165535fbcc953.html" target="_top" xlink:title="Friction">
<polygon fill="#c8c8c8" stroke="#404040" points="395.5,-90 342.5,-90 342.5,-71 395.5,-71 395.5,-90"/>
<text text-anchor="middle" x="369" y="-78" font-family="Helvetica Neue" font-size="10.00">Friction</text>
</a>
</g>
</g>
<!-- dir_b69119677ac2846e12a57f7483b2cfb6&#45;&gt;dir_8064f1edcba7ab9b678165535fbcc953 -->
<g id="edge5" class="edge">
<title>dir_b69119677ac2846e12a57f7483b2cfb6&#45;&gt;dir_8064f1edcba7ab9b678165535fbcc953</title>
<g id="a_edge5"><a xlink:href="dir_000009_000003.html" target="_top">
<path fill="none" stroke="#63b8ff" d="M288.42,-125.98C303.45,-117.69 326.54,-104.94 344.16,-95.22"/>
<polygon fill="#63b8ff" stroke="#63b8ff" points="346.23,-98.07 353.3,-90.17 342.85,-91.94 346.23,-98.07"/>
</a>
</g>
<g id="a_edge5&#45;headlabel"><a xlink:href="dir_000009_000003.html" target="_top" xlink:title="1">
<text text-anchor="middle" x="344.46" y="-99.79" font-family="Helvetica Neue" font-size="10.00" fill="#63b8ff">1</text>
</a>
</g>
</g>
<!-- dir_213e7dad19adff9a829828f88a70ccfd -->
<g id="node6" class="node">
<title>dir_213e7dad19adff9a829828f88a70ccfd</title>
<g id="a_node6"><a xlink:href="dir_213e7dad19adff9a829828f88a70ccfd.html" target="_top" xlink:title="Gain">
<polygon fill="#c8c8c8" stroke="#404040" points="452.5,-90 413.5,-90 413.5,-71 452.5,-71 452.5,-90"/>
<text text-anchor="middle" x="433" y="-78" font-family="Helvetica Neue" font-size="10.00">Gain</text>
</a>
</g>
</g>
<!-- dir_b69119677ac2846e12a57f7483b2cfb6&#45;&gt;dir_213e7dad19adff9a829828f88a70ccfd -->
<g id="edge4" class="edge">
<title>dir_b69119677ac2846e12a57f7483b2cfb6&#45;&gt;dir_213e7dad19adff9a829828f88a70ccfd</title>
<g id="a_edge4"><a xlink:href="dir_000009_000004.html" target="_top">
<path fill="none" stroke="#63b8ff" d="M298.71,-125.98C327.44,-116.47 373.86,-101.09 403.9,-91.14"/>
<polygon fill="#63b8ff" stroke="#63b8ff" points="405.02,-94.46 413.41,-87.99 402.82,-87.81 405.02,-94.46"/>
</a>
</g>
<g id="a_edge4&#45;headlabel"><a xlink:href="dir_000009_000004.html" target="_top" xlink:title="1">
<text text-anchor="middle" x="402.5" y="-95.78" font-family="Helvetica Neue" font-size="10.00" fill="#63b8ff">1</text>
</a>
</g>
</g>
<!-- dir_a7ec5443eebcf3c62095d7f5d51f6bbe -->
<g id="node7" class="node">
<title>dir_a7ec5443eebcf3c62095d7f5d51f6bbe</title>
<g id="a_node7"><a xlink:href="dir_a7ec5443eebcf3c62095d7f5d51f6bbe.html" target="_top" xlink:title="Grit">
<polygon fill="#c8c8c8" stroke="#404040" points="505.5,-90 470.5,-90 470.5,-71 505.5,-71 505.5,-90"/>
<text text-anchor="middle" x="488" y="-78" font-family="Helvetica Neue" font-size="10.00">Grit</text>
</a>
</g>
</g>
<!-- dir_b69119677ac2846e12a57f7483b2cfb6&#45;&gt;dir_a7ec5443eebcf3c62095d7f5d51f6bbe -->
<g id="edge8" class="edge">
<title>dir_b69119677ac2846e12a57f7483b2cfb6&#45;&gt;dir_a7ec5443eebcf3c62095d7f5d51f6bbe</title>
<g id="a_edge8"><a xlink:href="dir_000009_000005.html" target="_top">
<path fill="none" stroke="#63b8ff" d="M302.66,-128.33C338.15,-120.77 399.53,-107.14 460.64,-90.21"/>
<polygon fill="#63b8ff" stroke="#63b8ff" points="461.75,-93.53 470.44,-87.46 459.87,-86.79 461.75,-93.53"/>
</a>
</g>
<g id="a_edge8&#45;headlabel"><a xlink:href="dir_000009_000005.html" target="_top" xlink:title="1">
<text text-anchor="middle" x="459.06" y="-94.74" font-family="Helvetica Neue" font-size="10.00" fill="#63b8ff">1</text>
</a>
</g>
</g>
<!-- dir_0573b1aadc70b8cd0175369aab3a4af1 -->
<g id="node8" class="node">
<title>dir_0573b1aadc70b8cd0175369aab3a4af1</title>
<g id="a_node8"><a xlink:href="dir_0573b1aadc70b8cd0175369aab3a4af1.html" target="_top" xlink:title="Impulse">
<polygon fill="#c8c8c8" stroke="#404040" points="80,-90 24,-90 24,-71 80,-71 80,-90"/>
<text text-anchor="middle" x="52" y="-78" font-family="Helvetica Neue" font-size="10.00">Impulse</text>
</a>
</g>
</g>
<!-- dir_b69119677ac2846e12a57f7483b2cfb6&#45;&gt;dir_0573b1aadc70b8cd0175369aab3a4af1 -->
<g id="edge1" class="edge">
<title>dir_b69119677ac2846e12a57f7483b2cfb6&#45;&gt;dir_0573b1aadc70b8cd0175369aab3a4af1</title>
<g id="a_edge1"><a xlink:href="dir_000009_000007.html" target="_top">
<path fill="none" stroke="#63b8ff" d="M243.19,-127.35C203.6,-117.86 133.61,-101.07 90.19,-90.66"/>
<polygon fill="#63b8ff" stroke="#63b8ff" points="90.83,-87.21 80.29,-88.28 89.19,-94.02 90.83,-87.21"/>
</a>
</g>
<g id="a_edge1&#45;headlabel"><a xlink:href="dir_000009_000007.html" target="_top" xlink:title="1">
<text text-anchor="middle" x="94.98" y="-82.79" font-family="Helvetica Neue" font-size="10.00" fill="#63b8ff">1</text>
</a>
</g>
</g>
<!-- dir_0809345bef6c20dabc73a4e29e05d2d1 -->
<g id="node9" class="node">
<title>dir_0809345bef6c20dabc73a4e29e05d2d1</title>
<g id="a_node9"><a xlink:href="dir_0809345bef6c20dabc73a4e29e05d2d1.html" target="_top" xlink:title="LFO">
<polygon fill="#c8c8c8" stroke="#404040" points="133.5,-90 98.5,-90 98.5,-71 133.5,-71 133.5,-90"/>
<text text-anchor="middle" x="116" y="-78" font-family="Helvetica Neue" font-size="10.00">LFO</text>
</a>
</g>
</g>
<!-- dir_b69119677ac2846e12a57f7483b2cfb6&#45;&gt;dir_0809345bef6c20dabc73a4e29e05d2d1 -->
<g id="edge2" class="edge">
<title>dir_b69119677ac2846e12a57f7483b2cfb6&#45;&gt;dir_0809345bef6c20dabc73a4e29e05d2d1</title>
<g id="a_edge2"><a xlink:href="dir_000009_000008.html" target="_top">
<path fill="none" stroke="#63b8ff" d="M247.78,-125.98C219.24,-116.35 172.93,-100.72 143.49,-90.78"/>
<polygon fill="#63b8ff" stroke="#63b8ff" points="144.43,-87.4 133.84,-87.52 142.19,-94.04 144.43,-87.4"/>
</a>
</g>
<g id="a_edge2&#45;headlabel"><a xlink:href="dir_000009_000008.html" target="_top" xlink:title="1">
<text text-anchor="middle" x="148.75" y="-83.36" font-family="Helvetica Neue" font-size="10.00" fill="#63b8ff">1</text>
</a>
</g>
</g>
<!-- dir_9ad5287ff5599002bb8639f8b028d09a -->
<g id="node10" class="node">
<title>dir_9ad5287ff5599002bb8639f8b028d09a</title>
<g id="a_node10"><a xlink:href="dir_9ad5287ff5599002bb8639f8b028d09a.html" target="_top" xlink:title="Output">
<polygon fill="#c8c8c8" stroke="#404040" points="202,-90 152,-90 152,-71 202,-71 202,-90"/>
<text text-anchor="middle" x="177" y="-78" font-family="Helvetica Neue" font-size="10.00">Output</text>
</a>
</g>
</g>
<!-- dir_b69119677ac2846e12a57f7483b2cfb6&#45;&gt;dir_9ad5287ff5599002bb8639f8b028d09a -->
<g id="edge7" class="edge">
<title>dir_b69119677ac2846e12a57f7483b2cfb6&#45;&gt;dir_9ad5287ff5599002bb8639f8b028d09a</title>
<g id="a_edge7"><a xlink:href="dir_000009_000010.html" target="_top">
<path fill="none" stroke="#63b8ff" d="M257.58,-125.98C242.55,-117.69 219.46,-104.94 201.84,-95.22"/>
<polygon fill="#63b8ff" stroke="#63b8ff" points="203.15,-91.94 192.7,-90.17 199.77,-98.07 203.15,-91.94"/>
</a>
</g>
<g id="a_edge7&#45;headlabel"><a xlink:href="dir_000009_000010.html" target="_top" xlink:title="1">
<text text-anchor="middle" x="207.67" y="-88.69" font-family="Helvetica Neue" font-size="10.00" fill="#63b8ff">1</text>
</a>
</g>
</g>
<!-- dir_96bb483ad026452c57277797078bacc1 -->
<g id="node11" class="node">
<title>dir_96bb483ad026452c57277797078bacc1</title>
<g id="a_node11"><a xlink:href="dir_96bb483ad026452c57277797078bacc1.html" target="_top" xlink:title="String">
<polygon fill="#c8c8c8" stroke="#404040" points="265.5,-90 220.5,-90 220.5,-71 265.5,-71 265.5,-90"/>
<text text-anchor="middle" x="243" y="-78" font-family="Helvetica Neue" font-size="10.00">String</text>
</a>
</g>
</g>
<!-- dir_b69119677ac2846e12a57f7483b2cfb6&#45;&gt;dir_96bb483ad026452c57277797078bacc1 -->
<g id="edge6" class="edge">
<title>dir_b69119677ac2846e12a57f7483b2cfb6&#45;&gt;dir_96bb483ad026452c57277797078bacc1</title>
<g id="a_edge6"><a xlink:href="dir_000009_000016.html" target="_top">
<path fill="none" stroke="#63b8ff" d="M268.05,-125.75C263.94,-118.49 257.97,-107.95 252.9,-98.98"/>
<polygon fill="#63b8ff" stroke="#63b8ff" points="255.83,-97.07 247.86,-90.09 249.74,-100.52 255.83,-97.07"/>
</a>
</g>
<g id="a_edge6&#45;headlabel"><a xlink:href="dir_000009_000016.html" target="_top" xlink:title="1">
<text text-anchor="middle" x="260.08" y="-96.3" font-family="Helvetica Neue" font-size="10.00" fill="#63b8ff">1</text>
</a>
</g>
</g>
<!-- dir_1b84c1a069cedd9fc00adf9b6efb55f1&#45;&gt;dir_35d3f46ebf2e3a4dc07632ea0a786dc1 -->
<g id="edge9" class="edge">
<title>dir_1b84c1a069cedd9fc00adf9b6efb55f1&#45;&gt;dir_35d3f46ebf2e3a4dc07632ea0a786dc1</title>
<g id="a_edge9"><a xlink:href="dir_000002_000001.html" target="_top">
<path fill="none" stroke="#63b8ff" d="M294.68,-70.98C286.19,-63.23 273.44,-51.58 263.12,-42.14"/>
<polygon fill="#63b8ff" stroke="#63b8ff" points="265.23,-39.33 255.49,-35.17 260.51,-44.5 265.23,-39.33"/>
</a>
</g>
<g id="a_edge9&#45;headlabel"><a xlink:href="dir_000002_000001.html" target="_top" xlink:title="1">
<text text-anchor="middle" x="269.8" y="-37.16" font-family="Helvetica Neue" font-size="10.00" fill="#63b8ff">1</text>
</a>
</g>
</g>
<!-- dir_1b84c1a069cedd9fc00adf9b6efb55f1&#45;&gt;dir_67a0be856378ad6144fa3ec2cbbc70eb -->
<g id="edge10" class="edge">
<title>dir_1b84c1a069cedd9fc00adf9b6efb55f1&#45;&gt;dir_67a0be856378ad6144fa3ec2cbbc70eb</title>
<g id="a_edge10"><a xlink:href="dir_000002_000017.html" target="_top">
<path fill="none" stroke="#63b8ff" d="M303.5,-70.75C303.11,-63.8 302.55,-53.85 302.05,-45.13"/>
<polygon fill="#63b8ff" stroke="#63b8ff" points="305.55,-44.88 301.49,-35.09 298.56,-45.27 305.55,-44.88"/>
</a>
</g>
<g id="a_edge10&#45;headlabel"><a xlink:href="dir_000002_000017.html" target="_top" xlink:title="2">
<text text-anchor="middle" x="308.58" y="-45.8" font-family="Helvetica Neue" font-size="10.00" fill="#63b8ff">2</text>
</a>
</g>
</g>
<!-- dir_8064f1edcba7ab9b678165535fbcc953&#45;&gt;dir_35d3f46ebf2e3a4dc07632ea0a786dc1 -->
<g id="edge11" class="edge">
<title>dir_8064f1edcba7ab9b678165535fbcc953&#45;&gt;dir_35d3f46ebf2e3a4dc07632ea0a786dc1</title>
<g id="a_edge11"><a xlink:href="dir_000003_000001.html" target="_top">
<path fill="none" stroke="#63b8ff" d="M351.27,-70.94C345.76,-68.34 339.65,-65.5 334,-63 313.65,-53.99 290.37,-44.36 272.87,-37.26"/>
<polygon fill="#63b8ff" stroke="#63b8ff" points="273.89,-33.9 263.3,-33.39 271.26,-40.39 273.89,-33.9"/>
</a>
</g>
<g id="a_edge11&#45;headlabel"><a xlink:href="dir_000003_000001.html" target="_top" xlink:title="1">
<text text-anchor="middle" x="278.28" y="-30.11" font-family="Helvetica Neue" font-size="10.00" fill="#63b8ff">1</text>
</a>
</g>
</g>
<!-- dir_8064f1edcba7ab9b678165535fbcc953&#45;&gt;dir_67a0be856378ad6144fa3ec2cbbc70eb -->
<g id="edge12" class="edge">
<title>dir_8064f1edcba7ab9b678165535fbcc953&#45;&gt;dir_67a0be856378ad6144fa3ec2cbbc70eb</title>
<g id="a_edge12"><a xlink:href="dir_000003_000017.html" target="_top">
<path fill="none" stroke="#63b8ff" d="M358.07,-70.98C347.92,-63.07 332.58,-51.11 320.35,-41.58"/>
<polygon fill="#63b8ff" stroke="#63b8ff" points="322.16,-38.56 312.12,-35.17 317.86,-44.08 322.16,-38.56"/>
</a>
</g>
<g id="a_edge12&#45;headlabel"><a xlink:href="dir_000003_000017.html" target="_top" xlink:title="2">
<text text-anchor="middle" x="326.74" y="-36.03" font-family="Helvetica Neue" font-size="10.00" fill="#63b8ff">2</text>
</a>
</g>
</g>
<!-- dir_213e7dad19adff9a829828f88a70ccfd&#45;&gt;dir_35d3f46ebf2e3a4dc07632ea0a786dc1 -->
<g id="edge13" class="edge">
<title>dir_213e7dad19adff9a829828f88a70ccfd&#45;&gt;dir_35d3f46ebf2e3a4dc07632ea0a786dc1</title>
<g id="a_edge13"><a xlink:href="dir_000004_000001.html" target="_top">
<path fill="none" stroke="#63b8ff" d="M420.33,-70.89C415.67,-68.03 410.25,-65.07 405,-63 351.21,-41.84 334.17,-48.64 278,-35 276.35,-34.6 274.65,-34.18 272.94,-33.74"/>
<polygon fill="#63b8ff" stroke="#63b8ff" points="273.8,-30.35 263.24,-31.22 272.04,-37.13 273.8,-30.35"/>
</a>
</g>
<g id="a_edge13&#45;headlabel"><a xlink:href="dir_000004_000001.html" target="_top" xlink:title="1">
<text text-anchor="middle" x="277.99" y="-26.01" font-family="Helvetica Neue" font-size="10.00" fill="#63b8ff">1</text>
</a>
</g>
</g>
<!-- dir_213e7dad19adff9a829828f88a70ccfd&#45;&gt;dir_67a0be856378ad6144fa3ec2cbbc70eb -->
<g id="edge14" class="edge">
<title>dir_213e7dad19adff9a829828f88a70ccfd&#45;&gt;dir_67a0be856378ad6144fa3ec2cbbc70eb</title>
<g id="a_edge14"><a xlink:href="dir_000004_000017.html" target="_top">
<path fill="none" stroke="#63b8ff" d="M419.62,-70.9C415.08,-68.17 409.91,-65.28 405,-63 378.6,-50.73 346.86,-40.16 325.44,-33.59"/>
<polygon fill="#63b8ff" stroke="#63b8ff" points="326.41,-30.23 315.82,-30.7 324.39,-36.93 326.41,-30.23"/>
</a>
</g>
<g id="a_edge14&#45;headlabel"><a xlink:href="dir_000004_000017.html" target="_top" xlink:title="2">
<text text-anchor="middle" x="330.67" y="-26.05" font-family="Helvetica Neue" font-size="10.00" fill="#63b8ff">2</text>
</a>
</g>
</g>
<!-- dir_a7ec5443eebcf3c62095d7f5d51f6bbe&#45;&gt;dir_35d3f46ebf2e3a4dc07632ea0a786dc1 -->
<g id="edge15" class="edge">
<title>dir_a7ec5443eebcf3c62095d7f5d51f6bbe&#45;&gt;dir_35d3f46ebf2e3a4dc07632ea0a786dc1</title>
<g id="a_edge15"><a xlink:href="dir_000005_000001.html" target="_top">
<path fill="none" stroke="#63b8ff" d="M476.64,-70.85C472.27,-67.92 467.11,-64.91 462,-63 384.53,-34 358.98,-51.87 278,-35 276.34,-34.65 274.63,-34.27 272.91,-33.87"/>
<polygon fill="#63b8ff" stroke="#63b8ff" points="273.74,-30.47 263.19,-31.43 272.04,-37.26 273.74,-30.47"/>
</a>
</g>
<g id="a_edge15&#45;headlabel"><a xlink:href="dir_000005_000001.html" target="_top" xlink:title="1">
<text text-anchor="middle" x="277.92" y="-26.09" font-family="Helvetica Neue" font-size="10.00" fill="#63b8ff">1</text>
</a>
</g>
</g>
<!-- dir_a7ec5443eebcf3c62095d7f5d51f6bbe&#45;&gt;dir_67a0be856378ad6144fa3ec2cbbc70eb -->
<g id="edge16" class="edge">
<title>dir_a7ec5443eebcf3c62095d7f5d51f6bbe&#45;&gt;dir_67a0be856378ad6144fa3ec2cbbc70eb</title>
<g id="a_edge16"><a xlink:href="dir_000005_000017.html" target="_top">
<path fill="none" stroke="#63b8ff" d="M476.3,-70.87C471.98,-68.02 466.94,-65.05 462,-63 416.08,-43.9 358.43,-33.92 326.06,-29.48"/>
<polygon fill="#63b8ff" stroke="#63b8ff" points="326.09,-25.95 315.72,-28.13 325.19,-32.89 326.09,-25.95"/>
</a>
</g>
<g id="a_edge16&#45;headlabel"><a xlink:href="dir_000005_000017.html" target="_top" xlink:title="2">
<text text-anchor="middle" x="330.02" y="-21.1" font-family="Helvetica Neue" font-size="10.00" fill="#63b8ff">2</text>
</a>
</g>
</g>
<!-- dir_0573b1aadc70b8cd0175369aab3a4af1&#45;&gt;dir_35d3f46ebf2e3a4dc07632ea0a786dc1 -->
<g id="edge17" class="edge">
<title>dir_0573b1aadc70b8cd0175369aab3a4af1&#45;&gt;dir_35d3f46ebf2e3a4dc07632ea0a786dc1</title>
<g id="a_edge17"><a xlink:href="dir_000007_000001.html" target="_top">
<path fill="none" stroke="#63b8ff" d="M69.91,-70.93C76.17,-68.15 83.31,-65.22 90,-63 134.17,-48.38 187.22,-37.28 218.69,-31.34"/>
<polygon fill="#63b8ff" stroke="#63b8ff" points="219.67,-34.72 228.87,-29.46 218.4,-27.84 219.67,-34.72"/>
</a>
</g>
<g id="a_edge17&#45;headlabel"><a xlink:href="dir_000007_000001.html" target="_top" xlink:title="1">
<text text-anchor="middle" x="216.66" y="-35.67" font-family="Helvetica Neue" font-size="10.00" fill="#63b8ff">1</text>
</a>
</g>
</g>
<!-- dir_0573b1aadc70b8cd0175369aab3a4af1&#45;&gt;dir_67a0be856378ad6144fa3ec2cbbc70eb -->
<g id="edge18" class="edge">
<title>dir_0573b1aadc70b8cd0175369aab3a4af1&#45;&gt;dir_67a0be856378ad6144fa3ec2cbbc70eb</title>
<g id="a_edge18"><a xlink:href="dir_000007_000017.html" target="_top">
<path fill="none" stroke="#63b8ff" d="M69.06,-70.98C75.49,-68.07 82.95,-65.04 90,-63 168.63,-40.29 192.11,-52.77 272,-35 273.47,-34.67 274.98,-34.31 276.5,-33.93"/>
<polygon fill="#63b8ff" stroke="#63b8ff" points="277.64,-37.24 286.35,-31.21 275.77,-30.5 277.64,-37.24"/>
</a>
</g>
<g id="a_edge18&#45;headlabel"><a xlink:href="dir_000007_000017.html" target="_top" xlink:title="3">
<text text-anchor="middle" x="274.93" y="-38.44" font-family="Helvetica Neue" font-size="10.00" fill="#63b8ff">3</text>
</a>
</g>
</g>
<!-- dir_0809345bef6c20dabc73a4e29e05d2d1&#45;&gt;dir_35d3f46ebf2e3a4dc07632ea0a786dc1 -->
<g id="edge19" class="edge">
<title>dir_0809345bef6c20dabc73a4e29e05d2d1&#45;&gt;dir_35d3f46ebf2e3a4dc07632ea0a786dc1</title>
<g id="a_edge19"><a xlink:href="dir_000008_000001.html" target="_top">
<path fill="none" stroke="#63b8ff" d="M128.88,-70.88C133.25,-68.16 138.24,-65.27 143,-63 168.02,-51.08 198.03,-40.88 219.18,-34.32"/>
<polygon fill="#63b8ff" stroke="#63b8ff" points="220.25,-37.65 228.8,-31.39 218.21,-30.95 220.25,-37.65"/>
</a>
</g>
<g id="a_edge19&#45;headlabel"><a xlink:href="dir_000008_000001.html" target="_top" xlink:title="1">
<text text-anchor="middle" x="217.63" y="-38.91" font-family="Helvetica Neue" font-size="10.00" fill="#63b8ff">1</text>
</a>
</g>
</g>
<!-- dir_0809345bef6c20dabc73a4e29e05d2d1&#45;&gt;dir_67a0be856378ad6144fa3ec2cbbc70eb -->
<g id="edge20" class="edge">
<title>dir_0809345bef6c20dabc73a4e29e05d2d1&#45;&gt;dir_67a0be856378ad6144fa3ec2cbbc70eb</title>
<g id="a_edge20"><a xlink:href="dir_000008_000017.html" target="_top">
<path fill="none" stroke="#63b8ff" d="M128.18,-70.86C132.67,-68.01 137.9,-65.04 143,-63 197.46,-41.18 215.15,-49.48 272,-35 273.46,-34.63 274.96,-34.23 276.47,-33.82"/>
<polygon fill="#63b8ff" stroke="#63b8ff" points="277.64,-37.13 286.3,-31.03 275.73,-30.4 277.64,-37.13"/>
</a>
</g>
<g id="a_edge20&#45;headlabel"><a xlink:href="dir_000008_000017.html" target="_top" xlink:title="3">
<text text-anchor="middle" x="274.96" y="-38.34" font-family="Helvetica Neue" font-size="10.00" fill="#63b8ff">3</text>
</a>
</g>
</g>
<!-- dir_9ad5287ff5599002bb8639f8b028d09a&#45;&gt;dir_35d3f46ebf2e3a4dc07632ea0a786dc1 -->
<g id="edge21" class="edge">
<title>dir_9ad5287ff5599002bb8639f8b028d09a&#45;&gt;dir_35d3f46ebf2e3a4dc07632ea0a786dc1</title>
<g id="a_edge21"><a xlink:href="dir_000010_000001.html" target="_top">
<path fill="none" stroke="#63b8ff" d="M188.09,-70.98C198.49,-63 214.26,-50.88 226.72,-41.31"/>
<polygon fill="#63b8ff" stroke="#63b8ff" points="228.91,-44.04 234.71,-35.17 224.65,-38.49 228.91,-44.04"/>
</a>
</g>
<g id="a_edge21&#45;headlabel"><a xlink:href="dir_000010_000001.html" target="_top" xlink:title="1">
<text text-anchor="middle" x="227.79" y="-45.98" font-family="Helvetica Neue" font-size="10.00" fill="#63b8ff">1</text>
</a>
</g>
</g>
<!-- dir_9ad5287ff5599002bb8639f8b028d09a&#45;&gt;dir_67a0be856378ad6144fa3ec2cbbc70eb -->
<g id="edge22" class="edge">
<title>dir_9ad5287ff5599002bb8639f8b028d09a&#45;&gt;dir_67a0be856378ad6144fa3ec2cbbc70eb</title>
<g id="a_edge22"><a xlink:href="dir_000010_000017.html" target="_top">
<path fill="none" stroke="#63b8ff" d="M194.72,-70.93C200.23,-68.32 206.34,-65.49 212,-63 233.82,-53.39 258.98,-43.15 276.98,-35.96"/>
<polygon fill="#63b8ff" stroke="#63b8ff" points="278.41,-39.16 286.41,-32.22 275.83,-32.65 278.41,-39.16"/>
</a>
</g>
<g id="a_edge22&#45;headlabel"><a xlink:href="dir_000010_000017.html" target="_top" xlink:title="1">
<text text-anchor="middle" x="276.12" y="-40.63" font-family="Helvetica Neue" font-size="10.00" fill="#63b8ff">1</text>
</a>
</g>
</g>
<!-- dir_96bb483ad026452c57277797078bacc1&#45;&gt;dir_35d3f46ebf2e3a4dc07632ea0a786dc1 -->
<g id="edge23" class="edge">
<title>dir_96bb483ad026452c57277797078bacc1&#45;&gt;dir_35d3f46ebf2e3a4dc07632ea0a786dc1</title>
<g id="a_edge23"><a xlink:href="dir_000016_000001.html" target="_top">
<path fill="none" stroke="#63b8ff" d="M243.5,-70.75C243.89,-63.8 244.45,-53.85 244.95,-45.13"/>
<polygon fill="#63b8ff" stroke="#63b8ff" points="248.44,-45.27 245.51,-35.09 241.45,-44.88 248.44,-45.27"/>
</a>
</g>
<g id="a_edge23&#45;headlabel"><a xlink:href="dir_000016_000001.html" target="_top" xlink:title="2">
<text text-anchor="middle" x="251.07" y="-46.52" font-family="Helvetica Neue" font-size="10.00" fill="#63b8ff">2</text>
</a>
</g>
</g>
<!-- dir_96bb483ad026452c57277797078bacc1&#45;&gt;dir_67a0be856378ad6144fa3ec2cbbc70eb -->
<g id="edge24" class="edge">
<title>dir_96bb483ad026452c57277797078bacc1&#45;&gt;dir_67a0be856378ad6144fa3ec2cbbc70eb</title>
<g id="a_edge24"><a xlink:href="dir_000016_000017.html" target="_top">
<path fill="none" stroke="#63b8ff" d="M252.32,-70.98C260.81,-63.23 273.56,-51.58 283.88,-42.14"/>
<polygon fill="#63b8ff" stroke="#63b8ff" points="286.49,-44.5 291.51,-35.17 281.77,-39.33 286.49,-44.5"/>
</a>
</g>
<g id="a_edge24&#45;headlabel"><a xlink:href="dir_000016_000017.html" target="_top" xlink:title="3">
<text text-anchor="middle" x="285.75" y="-46.52" font-family="Helvetica Neue" font-size="10.00" fill="#63b8ff">3</text>
</a>
</g>
</g>
</g>
</svg>
