<?xml version="1.0" encoding="UTF-8" standalone="no"?>
<!DOCTYPE svg PUBLIC "-//W3C//DTD SVG 1.1//EN"
 "http://www.w3.org/Graphics/SVG/1.1/DTD/svg11.dtd">
<!-- Generated by graphviz version 2.43.0 (0)
 -->
<!-- Title: Graphical Class Hierarchy Pages: 1 -->
<svg width="214pt" height="64pt"
 viewBox="0.00 0.00 214.00 64.00" xmlns="http://www.w3.org/2000/svg" xmlns:xlink="http://www.w3.org/1999/xlink">
<g id="graph0" class="graph" transform="scale(1 1) rotate(0) translate(4 60)">
<title>Graphical Class Hierarchy</title>
<!-- Node0 -->
<g id="Node000000" class="node">
<title>Node0</title>
<g id="a_Node000000"><a xlink:title=" ">
<polygon fill="#e0e0e0" stroke="#999999" points="75,-37 0,-37 0,-18 75,-18 75,-37"/>
<text text-anchor="middle" x="37.5" y="-25" font-family="Helvetica Neue" font-size="10.00">juce::Button</text>
</a>
</g>
</g>
<!-- Node1 -->
<g id="Node000001" class="node">
<title>Node1</title>
<g id="a_Node000001"><a xlink:href="struct_phi_slider_button.html" target="_top" xlink:title=" ">
<polygon fill="white" stroke="#666666" points="204.5,-56 112.5,-56 112.5,-37 204.5,-37 204.5,-56"/>
<text text-anchor="middle" x="158.5" y="-44" font-family="Helvetica Neue" font-size="10.00">PhiSliderButton</text>
</a>
</g>
</g>
<!-- Node0&#45;&gt;Node1 -->
<g id="edge46_Node000000_Node000001" class="edge">
<title>Node0&#45;&gt;Node1</title>
<g id="a_edge46_Node000000_Node000001"><a xlink:title=" ">
<path fill="none" stroke="#63b8ff" d="M85.08,-34.94C94.04,-36.37 103.42,-37.87 112.34,-39.29"/>
<polygon fill="#63b8ff" stroke="#63b8ff" points="85.6,-31.48 75.17,-33.36 84.5,-38.39 85.6,-31.48"/>
</a>
</g>
</g>
<!-- Node2 -->
<g id="Node000002" class="node">
<title>Node2</title>
<g id="a_Node000002"><a xlink:href="class_phi_toggle_button.html" target="_top" xlink:title=" ">
<polygon fill="white" stroke="#666666" points="206,-19 111,-19 111,0 206,0 206,-19"/>
<text text-anchor="middle" x="158.5" y="-7" font-family="Helvetica Neue" font-size="10.00">PhiToggleButton</text>
</a>
</g>
</g>
<!-- Node0&#45;&gt;Node2 -->
<g id="edge47_Node000000_Node000002" class="edge">
<title>Node0&#45;&gt;Node2</title>
<g id="a_edge47_Node000000_Node000002"><a xlink:title=" ">
<path fill="none" stroke="#63b8ff" d="M85.16,-20.44C93.53,-19.18 102.25,-17.86 110.63,-16.59"/>
<polygon fill="#63b8ff" stroke="#63b8ff" points="84.54,-17 75.17,-21.95 85.59,-23.92 84.54,-17"/>
</a>
</g>
</g>
</g>
</svg>
