<?xml version="1.0" encoding="UTF-8" standalone="no"?>
<!DOCTYPE svg PUBLIC "-//W3C//DTD SVG 1.1//EN"
 "http://www.w3.org/Graphics/SVG/1.1/DTD/svg11.dtd">
<!-- Generated by graphviz version 2.43.0 (0)
 -->
<!-- Title: Graphical Class Hierarchy Pages: 1 -->
<svg width="211pt" height="64pt"
 viewBox="0.00 0.00 211.00 64.00" xmlns="http://www.w3.org/2000/svg" xmlns:xlink="http://www.w3.org/1999/xlink">
<g id="graph0" class="graph" transform="scale(1 1) rotate(0) translate(4 60)">
<title>Graphical Class Hierarchy</title>
<!-- Node0 -->
<g id="Node000000" class="node">
<title>Node0</title>
<g id="a_Node000000"><a xlink:title=" ">
<polygon fill="#e0e0e0" stroke="#999999" points="116,-56 0,-56 0,-37 116,-37 116,-56"/>
<text text-anchor="middle" x="58" y="-44" font-family="Helvetica Neue" font-size="10.00">juce::Slider::Listener</text>
</a>
</g>
</g>
<!-- Node1 -->
<g id="Node000001" class="node">
<title>Node1</title>
<g id="a_Node000001"><a xlink:href="struct_phi_dial.html" target="_top" xlink:title=" ">
<polygon fill="white" stroke="#666666" points="203,-37 152,-37 152,-18 203,-18 203,-37"/>
<text text-anchor="middle" x="177.5" y="-25" font-family="Helvetica Neue" font-size="10.00">PhiDial</text>
</a>
</g>
</g>
<!-- Node0&#45;&gt;Node1 -->
<g id="edge57_Node000000_Node000001" class="edge">
<title>Node0&#45;&gt;Node1</title>
<g id="a_edge57_Node000000_Node000001"><a xlink:title=" ">
<path fill="none" stroke="#63b8ff" d="M126.07,-35.65C135.27,-34.17 144.19,-32.73 151.9,-31.48"/>
<polygon fill="#63b8ff" stroke="#63b8ff" points="125.34,-32.23 116.03,-37.28 126.46,-39.14 125.34,-32.23"/>
</a>
</g>
</g>
<!-- Node2 -->
<g id="Node000002" class="node">
<title>Node2</title>
<g id="a_Node000002"><a xlink:title=" ">
<polygon fill="#e0e0e0" stroke="#999999" points="93.5,-19 22.5,-19 22.5,0 93.5,0 93.5,-19"/>
<text text-anchor="middle" x="58" y="-7" font-family="Helvetica Neue" font-size="10.00">juce::Slider</text>
</a>
</g>
</g>
<!-- Node2&#45;&gt;Node1 -->
<g id="edge58_Node000002_Node000001" class="edge">
<title>Node2&#45;&gt;Node1</title>
<g id="a_edge58_Node000002_Node000001"><a xlink:title=" ">
<path fill="none" stroke="#63b8ff" d="M103.55,-16.33C119.91,-18.83 137.83,-21.58 151.81,-23.72"/>
<polygon fill="#63b8ff" stroke="#63b8ff" points="104.03,-12.86 93.62,-14.8 102.97,-19.78 104.03,-12.86"/>
</a>
</g>
</g>
</g>
</svg>
