<?xml version="1.0" encoding="UTF-8" standalone="no"?>
<!DOCTYPE svg PUBLIC "-//W3C//DTD SVG 1.1//EN"
 "http://www.w3.org/Graphics/SVG/1.1/DTD/svg11.dtd">
<!-- Generated by graphviz version 2.43.0 (0)
 -->
<!-- Title: Graphical Class Hierarchy Pages: 1 -->
<svg width="355pt" height="286pt"
 viewBox="0.00 0.00 355.00 286.00" xmlns="http://www.w3.org/2000/svg" xmlns:xlink="http://www.w3.org/1999/xlink">
<g id="graph0" class="graph" transform="scale(1 1) rotate(0) translate(4 282)">
<title>Graphical Class Hierarchy</title>
<!-- Node0 -->
<g id="Node000000" class="node">
<title>Node0</title>
<g id="a_Node000000"><a xlink:title=" ">
<polygon fill="#e0e0e0" stroke="#999999" points="146,-148 0,-148 0,-129 146,-129 146,-148"/>
<text text-anchor="middle" x="73" y="-136" font-family="Helvetica Neue" font-size="10.00">juce::AudioProcessorEditor</text>
</a>
</g>
</g>
<!-- Node1 -->
<g id="Node000001" class="node">
<title>Node1</title>
<g id="a_Node000001"><a xlink:href="class_module_u_i.html" target="_top" xlink:title=" ">
<polygon fill="white" stroke="#666666" points="245,-148 182,-148 182,-129 245,-129 245,-148"/>
<text text-anchor="middle" x="213.5" y="-136" font-family="Helvetica Neue" font-size="10.00">ModuleUI</text>
</a>
</g>
</g>
<!-- Node0&#45;&gt;Node1 -->
<g id="edge13_Node000000_Node000001" class="edge">
<title>Node0&#45;&gt;Node1</title>
<g id="a_edge13_Node000000_Node000001"><a xlink:title=" ">
<path fill="none" stroke="#63b8ff" d="M156.38,-138.5C165.41,-138.5 174.13,-138.5 181.89,-138.5"/>
<polygon fill="#63b8ff" stroke="#63b8ff" points="156.09,-135 146.09,-138.5 156.09,-142 156.09,-135"/>
</a>
</g>
</g>
<!-- Node2 -->
<g id="Node000002" class="node">
<title>Node2</title>
<g id="a_Node000002"><a xlink:href="struct_filter_u_i.html" target="_top" xlink:title=" ">
<polygon fill="white" stroke="#666666" points="340,-278 288,-278 288,-259 340,-259 340,-278"/>
<text text-anchor="middle" x="314" y="-266" font-family="Helvetica Neue" font-size="10.00">FilterUI</text>
</a>
</g>
</g>
<!-- Node1&#45;&gt;Node2 -->
<g id="edge14_Node000001_Node000002" class="edge">
<title>Node1&#45;&gt;Node2</title>
<g id="a_edge14_Node000001_Node000002"><a xlink:title=" ">
<path fill="none" stroke="#63b8ff" d="M222.05,-157.42C232.4,-181.46 252.96,-223.11 281,-250.5 284.28,-253.71 288.25,-256.53 292.26,-258.94"/>
<polygon fill="#63b8ff" stroke="#63b8ff" points="225.21,-155.9 218.13,-148.01 218.74,-158.59 225.21,-155.9"/>
</a>
</g>
</g>
<!-- Node3 -->
<g id="Node000003" class="node">
<title>Node3</title>
<g id="a_Node000003"><a xlink:href="struct_friction_u_i.html" target="_top" xlink:title=" ">
<polygon fill="white" stroke="#666666" points="345.5,-241 282.5,-241 282.5,-222 345.5,-222 345.5,-241"/>
<text text-anchor="middle" x="314" y="-229" font-family="Helvetica Neue" font-size="10.00">FrictionUI</text>
</a>
</g>
</g>
<!-- Node1&#45;&gt;Node3 -->
<g id="edge15_Node000001_Node000003" class="edge">
<title>Node1&#45;&gt;Node3</title>
<g id="a_edge15_Node000001_Node000003"><a xlink:title=" ">
<path fill="none" stroke="#63b8ff" d="M227.52,-156.32C239.99,-172.56 259.97,-196.54 281,-213.5 284.77,-216.54 289.12,-219.36 293.38,-221.83"/>
<polygon fill="#63b8ff" stroke="#63b8ff" points="230.21,-154.08 221.41,-148.19 224.62,-158.29 230.21,-154.08"/>
</a>
</g>
</g>
<!-- Node4 -->
<g id="Node000004" class="node">
<title>Node4</title>
<g id="a_Node000004"><a xlink:href="class_gain_u_i.html" target="_top" xlink:title=" ">
<polygon fill="white" stroke="#666666" points="339,-204 289,-204 289,-185 339,-185 339,-204"/>
<text text-anchor="middle" x="314" y="-192" font-family="Helvetica Neue" font-size="10.00">GainUI</text>
</a>
</g>
</g>
<!-- Node1&#45;&gt;Node4 -->
<g id="edge16_Node000001_Node000004" class="edge">
<title>Node1&#45;&gt;Node4</title>
<g id="a_edge16_Node000001_Node000004"><a xlink:title=" ">
<path fill="none" stroke="#63b8ff" d="M240.01,-153.13C252.38,-160.21 267.45,-168.82 281,-176.5 285.88,-179.27 291.19,-182.26 296.05,-184.99"/>
<polygon fill="#63b8ff" stroke="#63b8ff" points="241.57,-149.99 231.15,-148.06 238.09,-156.06 241.57,-149.99"/>
</a>
</g>
</g>
<!-- Node5 -->
<g id="Node000005" class="node">
<title>Node5</title>
<g id="a_Node000005"><a xlink:href="class_grit_u_i.html" target="_top" xlink:title=" ">
<polygon fill="white" stroke="#666666" points="336.5,-167 291.5,-167 291.5,-148 336.5,-148 336.5,-167"/>
<text text-anchor="middle" x="314" y="-155" font-family="Helvetica Neue" font-size="10.00">GritUI</text>
</a>
</g>
</g>
<!-- Node1&#45;&gt;Node5 -->
<g id="edge17_Node000001_Node000005" class="edge">
<title>Node1&#45;&gt;Node5</title>
<g id="a_edge17_Node000001_Node000005"><a xlink:title=" ">
<path fill="none" stroke="#63b8ff" d="M255.3,-146.37C267.71,-148.76 280.85,-151.3 291.45,-153.34"/>
<polygon fill="#63b8ff" stroke="#63b8ff" points="255.61,-142.87 245.13,-144.41 254.28,-149.74 255.61,-142.87"/>
</a>
</g>
</g>
<!-- Node6 -->
<g id="Node000006" class="node">
<title>Node6</title>
<g id="a_Node000006"><a xlink:href="struct_impulse_u_i.html" target="_top" xlink:title=" ">
<polygon fill="white" stroke="#666666" points="347,-130 281,-130 281,-111 347,-111 347,-130"/>
<text text-anchor="middle" x="314" y="-118" font-family="Helvetica Neue" font-size="10.00">ImpulseUI</text>
</a>
</g>
</g>
<!-- Node1&#45;&gt;Node6 -->
<g id="edge18_Node000001_Node000006" class="edge">
<title>Node1&#45;&gt;Node6</title>
<g id="a_edge18_Node000001_Node000006"><a xlink:title=" ">
<path fill="none" stroke="#63b8ff" d="M255.23,-131.06C263.72,-129.51 272.56,-127.89 280.69,-126.4"/>
<polygon fill="#63b8ff" stroke="#63b8ff" points="254.33,-127.66 245.13,-132.9 255.59,-134.55 254.33,-127.66"/>
</a>
</g>
</g>
<!-- Node7 -->
<g id="Node000007" class="node">
<title>Node7</title>
<g id="a_Node000007"><a xlink:href="struct_l_f_o_u_i.html" target="_top" xlink:title=" ">
<polygon fill="white" stroke="#666666" points="337,-93 291,-93 291,-74 337,-74 337,-93"/>
<text text-anchor="middle" x="314" y="-81" font-family="Helvetica Neue" font-size="10.00">LFOUI</text>
</a>
</g>
</g>
<!-- Node1&#45;&gt;Node7 -->
<g id="edge19_Node000001_Node000007" class="edge">
<title>Node1&#45;&gt;Node7</title>
<g id="a_edge19_Node000001_Node000007"><a xlink:title=" ">
<path fill="none" stroke="#63b8ff" d="M240.74,-123.85C258.15,-114.13 280.51,-101.64 295.71,-93.16"/>
<polygon fill="#63b8ff" stroke="#63b8ff" points="238.68,-120.99 231.66,-128.92 242.09,-127.1 238.68,-120.99"/>
</a>
</g>
</g>
<!-- Node8 -->
<g id="Node000008" class="node">
<title>Node8</title>
<g id="a_Node000008"><a xlink:href="class_output_u_i.html" target="_top" xlink:title=" ">
<polygon fill="white" stroke="#666666" points="344,-56 284,-56 284,-37 344,-37 344,-56"/>
<text text-anchor="middle" x="314" y="-44" font-family="Helvetica Neue" font-size="10.00">OutputUI</text>
</a>
</g>
</g>
<!-- Node1&#45;&gt;Node8 -->
<g id="edge20_Node000001_Node000008" class="edge">
<title>Node1&#45;&gt;Node8</title>
<g id="a_edge20_Node000001_Node000008"><a xlink:title=" ">
<path fill="none" stroke="#63b8ff" d="M228.12,-120.78C240.74,-105.08 260.59,-82.13 281,-65.5 285.21,-62.07 290.1,-58.85 294.77,-56.06"/>
<polygon fill="#63b8ff" stroke="#63b8ff" points="225.34,-118.65 221.89,-128.67 230.84,-122.99 225.34,-118.65"/>
</a>
</g>
</g>
<!-- Node9 -->
<g id="Node000009" class="node">
<title>Node9</title>
<g id="a_Node000009"><a xlink:href="class_string_u_i.html" target="_top" xlink:title=" ">
<polygon fill="white" stroke="#666666" points="342,-19 286,-19 286,0 342,0 342,-19"/>
<text text-anchor="middle" x="314" y="-7" font-family="Helvetica Neue" font-size="10.00">StringUI</text>
</a>
</g>
</g>
<!-- Node1&#45;&gt;Node9 -->
<g id="edge21_Node000001_Node000009" class="edge">
<title>Node1&#45;&gt;Node9</title>
<g id="a_edge21_Node000001_Node000009"><a xlink:title=" ">
<path fill="none" stroke="#63b8ff" d="M222.39,-119.67C232.98,-96.12 253.68,-55.61 281,-28.5 284.58,-24.95 288.95,-21.8 293.29,-19.14"/>
<polygon fill="#63b8ff" stroke="#63b8ff" points="219.15,-118.35 218.36,-128.91 225.57,-121.14 219.15,-118.35"/>
</a>
</g>
</g>
</g>
</svg>
