<?xml version="1.0" encoding="UTF-8" standalone="no"?>
<!DOCTYPE svg PUBLIC "-//W3C//DTD SVG 1.1//EN"
 "http://www.w3.org/Graphics/SVG/1.1/DTD/svg11.dtd">
<!-- Generated by graphviz version 2.38.0 (20140413.2041)
 -->
<!-- Title: Graphical Class Hierarchy Pages: 1 -->
<svg width="315pt" height="66pt"
 viewBox="0.00 0.00 315.00 66.00" xmlns="http://www.w3.org/2000/svg" xmlns:xlink="http://www.w3.org/1999/xlink">
<g id="graph0" class="graph" transform="scale(1 1) rotate(0) translate(4 62)">
<title>Graphical Class Hierarchy</title>
<polygon fill="white" stroke="none" points="-4,4 -4,-62 311,-62 311,4 -4,4"/>
<!-- Node1 -->
<g id="node1" class="node"><title>Node1</title>
<polygon fill="white" stroke="#bfbfbf" points="0,-19.5 0,-38.5 95,-38.5 95,-19.5 0,-19.5"/>
<text text-anchor="middle" x="47.5" y="-26.5" font-family="Helvetica Neue" font-size="10.00">LookAndFeel_V4</text>
</g>
<!-- Node2 -->
<g id="node2" class="node"><title>Node2</title>
<g id="a_node2"><a xlink:href="struct_main_component_1_1_phi_look_and_feel.html" target="_top" xlink:title="MainComponent::PhiLookAndFeel">
<polygon fill="white" stroke="black" points="131,-38.5 131,-57.5 307,-57.5 307,-38.5 131,-38.5"/>
<text text-anchor="middle" x="219" y="-45.5" font-family="Helvetica Neue" font-size="10.00">MainComponent::PhiLookAndFeel</text>
</a>
</g>
</g>
<!-- Node1&#45;&gt;Node2 -->
<g id="edge1" class="edge"><title>Node1&#45;&gt;Node2</title>
<path fill="none" stroke="midnightblue" d="M105.452,-35.3839C114.331,-36.3793 123.668,-37.4259 133.009,-38.473"/>
<polygon fill="midnightblue" stroke="midnightblue" points="105.593,-31.878 95.2653,-34.2421 104.813,-38.8344 105.593,-31.878"/>
</g>
<!-- Node3 -->
<g id="node3" class="node"><title>Node3</title>
<g id="a_node3"><a xlink:href="struct_module_box_1_1_module_look_and_feel.html" target="_top" xlink:title="Our LookAndFeel instance for this module box. ">
<polygon fill="white" stroke="black" points="134,-0.5 134,-19.5 304,-19.5 304,-0.5 134,-0.5"/>
<text text-anchor="middle" x="219" y="-7.5" font-family="Helvetica Neue" font-size="10.00">ModuleBox::ModuleLookAndFeel</text>
</a>
</g>
</g>
<!-- Node1&#45;&gt;Node3 -->
<g id="edge2" class="edge"><title>Node1&#45;&gt;Node3</title>
<path fill="none" stroke="midnightblue" d="M105.415,-22.6201C114.614,-21.5889 124.306,-20.5026 133.984,-19.4177"/>
<polygon fill="midnightblue" stroke="midnightblue" points="104.813,-19.1656 95.2653,-23.7579 105.593,-26.122 104.813,-19.1656"/>
</g>
</g>
</svg>
