<?xml version="1.0" encoding="UTF-8" standalone="no"?>
<!DOCTYPE svg PUBLIC "-//W3C//DTD SVG 1.1//EN"
 "http://www.w3.org/Graphics/SVG/1.1/DTD/svg11.dtd">
<!-- Generated by graphviz version 2.43.0 (0)
 -->
<!-- Title: Graphical Class Hierarchy Pages: 1 -->
<svg width="312pt" height="101pt"
 viewBox="0.00 0.00 312.00 101.00" xmlns="http://www.w3.org/2000/svg" xmlns:xlink="http://www.w3.org/1999/xlink">
<g id="graph0" class="graph" transform="scale(1 1) rotate(0) translate(4 97)">
<title>Graphical Class Hierarchy</title>
<!-- Node0 -->
<g id="Node000000" class="node">
<title>Node0</title>
<g id="a_Node000000"><a xlink:title=" ">
<polygon fill="#e0e0e0" stroke="#999999" points="114,-56 0,-56 0,-37 114,-37 114,-56"/>
<text text-anchor="middle" x="57" y="-44" font-family="Helvetica Neue" font-size="10.00">juce::MouseListener</text>
</a>
</g>
</g>
<!-- Node1 -->
<g id="Node000001" class="node">
<title>Node1</title>
<g id="a_Node000001"><a xlink:href="struct_connections_1_1_mouse_listener.html" target="_top" xlink:title=" ">
<polygon fill="white" stroke="#666666" points="304,-93 150,-93 150,-74 304,-74 304,-93"/>
<text text-anchor="middle" x="227" y="-81" font-family="Helvetica Neue" font-size="10.00">Connections::MouseListener</text>
</a>
</g>
</g>
<!-- Node0&#45;&gt;Node1 -->
<g id="edge54_Node000000_Node000001" class="edge">
<title>Node0&#45;&gt;Node1</title>
<g id="a_edge54_Node000000_Node000001"><a xlink:title=" ">
<path fill="none" stroke="#63b8ff" d="M111.22,-58.22C134.22,-63.29 160.8,-69.14 182.59,-73.94"/>
<polygon fill="#63b8ff" stroke="#63b8ff" points="111.78,-54.76 101.26,-56.03 110.28,-61.6 111.78,-54.76"/>
</a>
</g>
</g>
<!-- Node2 -->
<g id="Node000002" class="node">
<title>Node2</title>
<g id="a_Node000002"><a xlink:href="struct_hover_popup_client_1_1_listener.html" target="_top" xlink:title=" ">
<polygon fill="white" stroke="#666666" points="301.5,-56 152.5,-56 152.5,-37 301.5,-37 301.5,-56"/>
<text text-anchor="middle" x="227" y="-44" font-family="Helvetica Neue" font-size="10.00">HoverPopupClient::Listener</text>
</a>
</g>
</g>
<!-- Node0&#45;&gt;Node2 -->
<g id="edge55_Node000000_Node000002" class="edge">
<title>Node0&#45;&gt;Node2</title>
<g id="a_edge55_Node000000_Node000002"><a xlink:title=" ">
<path fill="none" stroke="#63b8ff" d="M124.59,-46.5C133.74,-46.5 143.17,-46.5 152.43,-46.5"/>
<polygon fill="#63b8ff" stroke="#63b8ff" points="124.41,-43 114.41,-46.5 124.41,-50 124.41,-43"/>
</a>
</g>
</g>
<!-- Node3 -->
<g id="Node000003" class="node">
<title>Node3</title>
<g id="a_Node000003"><a xlink:href="struct_patcher_1_1_mouse_listener.html" target="_top" xlink:title=" ">
<polygon fill="white" stroke="#666666" points="292,-19 162,-19 162,0 292,0 292,-19"/>
<text text-anchor="middle" x="227" y="-7" font-family="Helvetica Neue" font-size="10.00">Patcher::MouseListener</text>
</a>
</g>
</g>
<!-- Node0&#45;&gt;Node3 -->
<g id="edge56_Node000000_Node000003" class="edge">
<title>Node0&#45;&gt;Node3</title>
<g id="a_edge56_Node000000_Node000003"><a xlink:title=" ">
<path fill="none" stroke="#63b8ff" d="M111.22,-34.78C134.22,-29.71 160.8,-23.86 182.59,-19.06"/>
<polygon fill="#63b8ff" stroke="#63b8ff" points="110.28,-31.4 101.26,-36.97 111.78,-38.24 110.28,-31.4"/>
</a>
</g>
</g>
</g>
</svg>
