<?xml version="1.0" encoding="UTF-8" standalone="no"?>
<!DOCTYPE svg PUBLIC "-//W3C//DTD SVG 1.1//EN"
 "http://www.w3.org/Graphics/SVG/1.1/DTD/svg11.dtd">
<!-- Generated by graphviz version 2.38.0 (20140413.2041)
 -->
<!-- Title: Graphical Class Hierarchy Pages: 1 -->
<svg width="324pt" height="180pt"
 viewBox="0.00 0.00 324.00 180.00" xmlns="http://www.w3.org/2000/svg" xmlns:xlink="http://www.w3.org/1999/xlink">
<g id="graph0" class="graph" transform="scale(1 1) rotate(0) translate(4 176)">
<title>Graphical Class Hierarchy</title>
<polygon fill="white" stroke="none" points="-4,4 -4,-176 320,-176 320,4 -4,4"/>
<!-- Node1 -->
<g id="node1" class="node"><title>Node1</title>
<polygon fill="white" stroke="#bfbfbf" points="0,-95.5 0,-114.5 119,-114.5 119,-95.5 0,-95.5"/>
<text text-anchor="middle" x="59.5" y="-102.5" font-family="Helvetica Neue" font-size="10.00">AudioProcessorEditor</text>
</g>
<!-- Node2 -->
<g id="node2" class="node"><title>Node2</title>
<g id="a_node2"><a xlink:href="class_module_u_i.html" target="_top" xlink:title="ModuleUI">
<polygon fill="white" stroke="black" points="155,-95.5 155,-114.5 216,-114.5 216,-95.5 155,-95.5"/>
<text text-anchor="middle" x="185.5" y="-102.5" font-family="Helvetica Neue" font-size="10.00">ModuleUI</text>
</a>
</g>
</g>
<!-- Node1&#45;&gt;Node2 -->
<g id="edge1" class="edge"><title>Node1&#45;&gt;Node2</title>
<path fill="none" stroke="midnightblue" d="M129.398,-105C138.364,-105 147.136,-105 154.95,-105"/>
<polygon fill="midnightblue" stroke="midnightblue" points="129.232,-101.5 119.232,-105 129.232,-108.5 129.232,-101.5"/>
</g>
<!-- Node3 -->
<g id="node3" class="node"><title>Node3</title>
<g id="a_node3"><a xlink:href="class_gain_u_i.html" target="_top" xlink:title="GainUI">
<polygon fill="white" stroke="black" points="260,-152.5 260,-171.5 308,-171.5 308,-152.5 260,-152.5"/>
<text text-anchor="middle" x="284" y="-159.5" font-family="Helvetica Neue" font-size="10.00">GainUI</text>
</a>
</g>
</g>
<!-- Node2&#45;&gt;Node3 -->
<g id="edge2" class="edge"><title>Node2&#45;&gt;Node3</title>
<path fill="none" stroke="midnightblue" d="M211.93,-120.021C229.336,-130.302 251.889,-143.624 266.872,-152.474"/>
<polygon fill="midnightblue" stroke="midnightblue" points="213.26,-116.742 202.87,-114.669 209.7,-122.769 213.26,-116.742"/>
</g>
<!-- Node4 -->
<g id="node4" class="node"><title>Node4</title>
<g id="a_node4"><a xlink:href="class_impulse_u_i.html" target="_top" xlink:title="ImpulseUI">
<polygon fill="white" stroke="black" points="252,-38.5 252,-57.5 316,-57.5 316,-38.5 252,-38.5"/>
<text text-anchor="middle" x="284" y="-45.5" font-family="Helvetica Neue" font-size="10.00">ImpulseUI</text>
</a>
</g>
</g>
<!-- Node2&#45;&gt;Node4 -->
<g id="edge3" class="edge"><title>Node2&#45;&gt;Node4</title>
<path fill="none" stroke="midnightblue" d="M211.93,-89.9794C229.336,-79.6982 251.889,-66.3762 266.872,-57.5265"/>
<polygon fill="midnightblue" stroke="midnightblue" points="209.7,-87.2313 202.87,-95.3307 213.26,-93.2584 209.7,-87.2313"/>
</g>
<!-- Node5 -->
<g id="node5" class="node"><title>Node5</title>
<g id="a_node5"><a xlink:href="class_output_u_i.html" target="_top" xlink:title="OutputUI">
<polygon fill="white" stroke="black" points="254.5,-114.5 254.5,-133.5 313.5,-133.5 313.5,-114.5 254.5,-114.5"/>
<text text-anchor="middle" x="284" y="-121.5" font-family="Helvetica Neue" font-size="10.00">OutputUI</text>
</a>
</g>
</g>
<!-- Node2&#45;&gt;Node5 -->
<g id="edge4" class="edge"><title>Node2&#45;&gt;Node5</title>
<path fill="none" stroke="midnightblue" d="M226.177,-112.812C235.559,-114.659 245.389,-116.595 254.185,-118.327"/>
<polygon fill="midnightblue" stroke="midnightblue" points="226.728,-109.353 216.241,-110.856 225.376,-116.222 226.728,-109.353"/>
</g>
<!-- Node6 -->
<g id="node6" class="node"><title>Node6</title>
<g id="a_node6"><a xlink:href="class_string_u_i.html" target="_top" xlink:title="StringUI">
<polygon fill="white" stroke="black" points="256.5,-76.5 256.5,-95.5 311.5,-95.5 311.5,-76.5 256.5,-76.5"/>
<text text-anchor="middle" x="284" y="-83.5" font-family="Helvetica Neue" font-size="10.00">StringUI</text>
</a>
</g>
</g>
<!-- Node2&#45;&gt;Node6 -->
<g id="edge5" class="edge"><title>Node2&#45;&gt;Node6</title>
<path fill="none" stroke="midnightblue" d="M226.193,-97.1848C236.392,-95.1768 247.117,-93.0651 256.467,-91.224"/>
<polygon fill="midnightblue" stroke="midnightblue" points="225.376,-93.7784 216.241,-99.1443 226.728,-100.647 225.376,-93.7784"/>
</g>
<!-- Node7 -->
<g id="node7" class="node"><title>Node7</title>
<polygon fill="white" stroke="#bfbfbf" points="158,-38.5 158,-57.5 213,-57.5 213,-38.5 158,-38.5"/>
<text text-anchor="middle" x="185.5" y="-45.5" font-family="Helvetica Neue" font-size="10.00">Listener</text>
</g>
<!-- Node7&#45;&gt;Node4 -->
<g id="edge6" class="edge"><title>Node7&#45;&gt;Node4</title>
<path fill="none" stroke="midnightblue" d="M223.337,-48C232.681,-48 242.632,-48 251.674,-48"/>
<polygon fill="midnightblue" stroke="midnightblue" points="223.125,-44.5001 213.124,-48 223.124,-51.5001 223.125,-44.5001"/>
</g>
<!-- Node8 -->
<g id="node8" class="node"><title>Node8</title>
<g id="a_node8"><a xlink:href="class_phi_dial.html" target="_top" xlink:title="PhiDial">
<polygon fill="white" stroke="black" points="259.5,-0.5 259.5,-19.5 308.5,-19.5 308.5,-0.5 259.5,-0.5"/>
<text text-anchor="middle" x="284" y="-7.5" font-family="Helvetica Neue" font-size="10.00">PhiDial</text>
</a>
</g>
</g>
<!-- Node7&#45;&gt;Node8 -->
<g id="edge7" class="edge"><title>Node7&#45;&gt;Node8</title>
<path fill="none" stroke="midnightblue" d="M220.333,-34.6772C233.207,-29.6077 247.588,-23.9445 259.324,-19.3232"/>
<polygon fill="midnightblue" stroke="midnightblue" points="218.873,-31.4903 210.851,-38.411 221.438,-38.0036 218.873,-31.4903"/>
</g>
<!-- Node9 -->
<g id="node9" class="node"><title>Node9</title>
<polygon fill="white" stroke="#bfbfbf" points="163.5,-0.5 163.5,-19.5 207.5,-19.5 207.5,-0.5 163.5,-0.5"/>
<text text-anchor="middle" x="185.5" y="-7.5" font-family="Helvetica Neue" font-size="10.00">Slider</text>
</g>
<!-- Node9&#45;&gt;Node8 -->
<g id="edge8" class="edge"><title>Node9&#45;&gt;Node8</title>
<path fill="none" stroke="midnightblue" d="M218.148,-10C231.541,-10 246.878,-10 259.274,-10"/>
<polygon fill="midnightblue" stroke="midnightblue" points="217.917,-6.5001 207.916,-10 217.916,-13.5001 217.917,-6.5001"/>
</g>
</g>
</svg>
