<?xml version="1.0" encoding="UTF-8" standalone="no"?>
<!DOCTYPE svg PUBLIC "-//W3C//DTD SVG 1.1//EN"
 "http://www.w3.org/Graphics/SVG/1.1/DTD/svg11.dtd">
<!-- Generated by graphviz version 2.38.0 (20140413.2041)
 -->
<!-- Title: Graphical Class Hierarchy Pages: 1 -->
<svg width="288pt" height="66pt"
 viewBox="0.00 0.00 288.00 66.00" xmlns="http://www.w3.org/2000/svg" xmlns:xlink="http://www.w3.org/1999/xlink">
<g id="graph0" class="graph" transform="scale(1 1) rotate(0) translate(4 62)">
<title>Graphical Class Hierarchy</title>
<polygon fill="white" stroke="none" points="-4,4 -4,-62 284,-62 284,4 -4,4"/>
<!-- Node1 -->
<g id="node1" class="node"><title>Node1</title>
<polygon fill="white" stroke="#bfbfbf" points="0,-19.5 0,-38.5 101,-38.5 101,-19.5 0,-19.5"/>
<text text-anchor="middle" x="50.5" y="-26.5" font-family="Helvetica Neue" font-size="10.00">LassoComponent</text>
</g>
<!-- Node2 -->
<g id="node2" class="node"><title>Node2</title>
<g id="a_node2"><a xlink:href="class_connections_1_1_hidden_lasso.html" target="_top" xlink:title="Connections::HiddenLasso">
<polygon fill="white" stroke="black" points="137,-38.5 137,-57.5 280,-57.5 280,-38.5 137,-38.5"/>
<text text-anchor="middle" x="208.5" y="-45.5" font-family="Helvetica Neue" font-size="10.00">Connections::HiddenLasso</text>
</a>
</g>
</g>
<!-- Node1&#45;&gt;Node2 -->
<g id="edge1" class="edge"><title>Node1&#45;&gt;Node2</title>
<path fill="none" stroke="midnightblue" d="M111.311,-36.2846C119.67,-37.3028 128.325,-38.3569 136.861,-39.3965"/>
<polygon fill="midnightblue" stroke="midnightblue" points="111.638,-32.7987 101.288,-35.064 110.792,-39.7474 111.638,-32.7987"/>
</g>
<!-- Node3 -->
<g id="node3" class="node"><title>Node3</title>
<g id="a_node3"><a xlink:href="class_main_patcher_1_1_phi_lasso.html" target="_top" xlink:title="MainPatcher::PhiLasso">
<polygon fill="white" stroke="black" points="147,-0.5 147,-19.5 270,-19.5 270,-0.5 147,-0.5"/>
<text text-anchor="middle" x="208.5" y="-7.5" font-family="Helvetica Neue" font-size="10.00">MainPatcher::PhiLasso</text>
</a>
</g>
</g>
<!-- Node1&#45;&gt;Node3 -->
<g id="edge2" class="edge"><title>Node1&#45;&gt;Node3</title>
<path fill="none" stroke="midnightblue" d="M111.372,-21.708C123.046,-20.2861 135.294,-18.7944 146.988,-17.37"/>
<polygon fill="midnightblue" stroke="midnightblue" points="110.792,-18.2526 101.288,-22.936 111.638,-25.2013 110.792,-18.2526"/>
</g>
</g>
</svg>
