<?xml version="1.0" encoding="UTF-8" standalone="no"?>
<!DOCTYPE svg PUBLIC "-//W3C//DTD SVG 1.1//EN"
 "http://www.w3.org/Graphics/SVG/1.1/DTD/svg11.dtd">
<!-- Generated by graphviz version 2.43.0 (0)
 -->
<!-- Title: Graphical Class Hierarchy Pages: 1 -->
<svg width="510pt" height="323pt"
 viewBox="0.00 0.00 510.00 323.00" xmlns="http://www.w3.org/2000/svg" xmlns:xlink="http://www.w3.org/1999/xlink">
<g id="graph0" class="graph" transform="scale(1 1) rotate(0) translate(4 319)">
<title>Graphical Class Hierarchy</title>
<!-- Node0 -->
<g id="Node000000" class="node">
<title>Node0</title>
<g id="a_Node000000"><a xlink:title=" ">
<polygon fill="#e0e0e0" stroke="#999999" points="147,-315 0,-315 0,-296 147,-296 147,-315"/>
<text text-anchor="middle" x="73.5" y="-303" font-family="Helvetica Neue" font-size="10.00">juce::AudioProcessorGraph</text>
</a>
</g>
</g>
<!-- Node1 -->
<g id="Node000001" class="node">
<title>Node1</title>
<g id="a_Node000001"><a xlink:href="struct_audio_engine.html" target="_top" xlink:title="The class where each module&#39;s DSP routine gets implemented as nodes and patched together.">
<polygon fill="white" stroke="#666666" points="282.5,-315 205.5,-315 205.5,-296 282.5,-296 282.5,-315"/>
<text text-anchor="middle" x="244" y="-303" font-family="Helvetica Neue" font-size="10.00">AudioEngine</text>
</a>
</g>
</g>
<!-- Node0&#45;&gt;Node1 -->
<g id="edge22_Node000000_Node000001" class="edge">
<title>Node0&#45;&gt;Node1</title>
<g id="a_edge22_Node000000_Node000001"><a xlink:title=" ">
<path fill="none" stroke="#63b8ff" d="M157.75,-305.5C174.38,-305.5 191.07,-305.5 205.21,-305.5"/>
<polygon fill="#63b8ff" stroke="#63b8ff" points="157.43,-302 147.43,-305.5 157.43,-309 157.43,-302"/>
</a>
</g>
</g>
<!-- Node4 -->
<g id="Node000004" class="node">
<title>Node4</title>
<g id="a_Node000004"><a xlink:title=" ">
<polygon fill="#e0e0e0" stroke="#999999" points="133,-241 14,-241 14,-222 133,-222 133,-241"/>
<text text-anchor="middle" x="73.5" y="-229" font-family="Helvetica Neue" font-size="10.00">juce::ChangeListener</text>
</a>
</g>
</g>
<!-- Node3 -->
<g id="Node000003" class="node">
<title>Node3</title>
<g id="a_Node000003"><a xlink:href="class_connections.html" target="_top" xlink:title="The connections UI that is overlaid on top of the patcher.">
<polygon fill="white" stroke="#666666" points="282.5,-241 205.5,-241 205.5,-222 282.5,-222 282.5,-241"/>
<text text-anchor="middle" x="244" y="-229" font-family="Helvetica Neue" font-size="10.00">Connections</text>
</a>
</g>
</g>
<!-- Node4&#45;&gt;Node3 -->
<g id="edge23_Node000004_Node000003" class="edge">
<title>Node4&#45;&gt;Node3</title>
<g id="a_edge23_Node000004_Node000003"><a xlink:title=" ">
<path fill="none" stroke="#63b8ff" d="M143.68,-231.5C164.81,-231.5 187.24,-231.5 205.43,-231.5"/>
<polygon fill="#63b8ff" stroke="#63b8ff" points="143.43,-228 133.43,-231.5 143.43,-235 143.43,-228"/>
</a>
</g>
</g>
<!-- Node5 -->
<g id="Node000005" class="node">
<title>Node5</title>
<g id="a_Node000005"><a xlink:href="struct_patcher.html" target="_top" xlink:title="The main view of Phi, this class handles all the module UIs and holds the connection manager.">
<polygon fill="white" stroke="#666666" points="270.5,-278 217.5,-278 217.5,-259 270.5,-259 270.5,-278"/>
<text text-anchor="middle" x="244" y="-266" font-family="Helvetica Neue" font-size="10.00">Patcher</text>
</a>
</g>
</g>
<!-- Node4&#45;&gt;Node5 -->
<g id="edge24_Node000004_Node000005" class="edge">
<title>Node4&#45;&gt;Node5</title>
<g id="a_edge24_Node000004_Node000005"><a xlink:title=" ">
<path fill="none" stroke="#63b8ff" d="M127.74,-243.19C157.54,-249.74 193.36,-257.6 217.07,-262.81"/>
<polygon fill="#63b8ff" stroke="#63b8ff" points="128.41,-239.75 117.89,-241.03 126.91,-246.59 128.41,-239.75"/>
</a>
</g>
</g>
<!-- Node6 -->
<g id="Node000006" class="node">
<title>Node6</title>
<g id="a_Node000006"><a xlink:title=" ">
<polygon fill="#e0e0e0" stroke="#999999" points="123,-148 24,-148 24,-129 123,-129 123,-148"/>
<text text-anchor="middle" x="73.5" y="-136" font-family="Helvetica Neue" font-size="10.00">juce::Component</text>
</a>
</g>
</g>
<!-- Node6&#45;&gt;Node3 -->
<g id="edge25_Node000006_Node000003" class="edge">
<title>Node6&#45;&gt;Node3</title>
<g id="a_edge25_Node000006_Node000003"><a xlink:title=" ">
<path fill="none" stroke="#63b8ff" d="M106.32,-152.46C119.48,-158.91 134.53,-167.2 147,-176.5 165.39,-190.22 163.38,-201.6 183,-213.5 189.79,-217.62 197.58,-220.85 205.26,-223.37"/>
<polygon fill="#63b8ff" stroke="#63b8ff" points="107.68,-149.23 97.14,-148.1 104.68,-155.55 107.68,-149.23"/>
</a>
</g>
</g>
<!-- Node6&#45;&gt;Node5 -->
<g id="edge29_Node000006_Node000005" class="edge">
<title>Node6&#45;&gt;Node5</title>
<g id="a_edge29_Node000006_Node000005"><a xlink:title=" ">
<path fill="none" stroke="#63b8ff" d="M111.28,-152.2C123.77,-158.21 137.06,-166.26 147,-176.5 172.47,-202.75 155.14,-226.81 183,-250.5 192.61,-258.67 205.83,-263.13 217.42,-265.57"/>
<polygon fill="#63b8ff" stroke="#63b8ff" points="112.51,-148.92 101.95,-148 109.64,-155.3 112.51,-148.92"/>
</a>
</g>
</g>
<!-- Node7 -->
<g id="Node000007" class="node">
<title>Node7</title>
<g id="a_Node000007"><a xlink:href="class_hover_popup_window.html" target="_top" xlink:title=" ">
<polygon fill="white" stroke="#666666" points="301.5,-56 186.5,-56 186.5,-37 301.5,-37 301.5,-56"/>
<text text-anchor="middle" x="244" y="-44" font-family="Helvetica Neue" font-size="10.00">HoverPopupWindow</text>
</a>
</g>
</g>
<!-- Node6&#45;&gt;Node7 -->
<g id="edge26_Node000006_Node000007" class="edge">
<title>Node6&#45;&gt;Node7</title>
<g id="a_edge26_Node000006_Node000007"><a xlink:title=" ">
<path fill="none" stroke="#63b8ff" d="M93.93,-122.51C114.81,-106 149.54,-80.46 183,-64.5 189.87,-61.22 197.47,-58.39 204.89,-56.01"/>
<polygon fill="#63b8ff" stroke="#63b8ff" points="91.73,-119.78 86.12,-128.77 96.11,-125.24 91.73,-119.78"/>
</a>
</g>
</g>
<!-- Node9 -->
<g id="Node000009" class="node">
<title>Node9</title>
<g id="a_Node000009"><a xlink:href="struct_main_component.html" target="_top" xlink:title="The top&#45;most component that includes all the content.">
<polygon fill="white" stroke="#666666" points="292.5,-167 195.5,-167 195.5,-148 292.5,-148 292.5,-167"/>
<text text-anchor="middle" x="244" y="-155" font-family="Helvetica Neue" font-size="10.00">MainComponent</text>
</a>
</g>
</g>
<!-- Node6&#45;&gt;Node9 -->
<g id="edge27_Node000006_Node000009" class="edge">
<title>Node6&#45;&gt;Node9</title>
<g id="a_edge27_Node000006_Node000009"><a xlink:title=" ">
<path fill="none" stroke="#63b8ff" d="M133.29,-145.13C153.55,-147.41 175.98,-149.94 195.24,-152.12"/>
<polygon fill="#63b8ff" stroke="#63b8ff" points="133.57,-141.64 123.24,-144 132.78,-148.59 133.57,-141.64"/>
</a>
</g>
</g>
<!-- Node10 -->
<g id="Node000010" class="node">
<title>Node10</title>
<g id="a_Node000010"><a xlink:href="struct_module_box.html" target="_top" xlink:title=" ">
<polygon fill="white" stroke="#666666" points="279.5,-204 208.5,-204 208.5,-185 279.5,-185 279.5,-204"/>
<text text-anchor="middle" x="244" y="-192" font-family="Helvetica Neue" font-size="10.00">ModuleBox</text>
</a>
</g>
</g>
<!-- Node6&#45;&gt;Node10 -->
<g id="edge28_Node000006_Node000010" class="edge">
<title>Node6&#45;&gt;Node10</title>
<g id="a_edge28_Node000006_Node000010"><a xlink:title=" ">
<path fill="none" stroke="#63b8ff" d="M110.22,-151.47C131.31,-159.01 158.58,-168.57 183,-176.5 191.79,-179.36 201.36,-182.3 210.22,-184.96"/>
<polygon fill="#63b8ff" stroke="#63b8ff" points="111.29,-148.13 100.7,-148.05 108.93,-154.72 111.29,-148.13"/>
</a>
</g>
</g>
<!-- Node11 -->
<g id="Node000011" class="node">
<title>Node11</title>
<g id="a_Node000011"><a xlink:href="struct_phi_slider_button_1_1_knob.html" target="_top" xlink:title=" ">
<polygon fill="white" stroke="#666666" points="305,-93 183,-93 183,-74 305,-74 305,-93"/>
<text text-anchor="middle" x="244" y="-81" font-family="Helvetica Neue" font-size="10.00">PhiSliderButton::Knob</text>
</a>
</g>
</g>
<!-- Node6&#45;&gt;Node11 -->
<g id="edge30_Node000006_Node000011" class="edge">
<title>Node6&#45;&gt;Node11</title>
<g id="a_edge30_Node000006_Node000011"><a xlink:title=" ">
<path fill="none" stroke="#63b8ff" d="M112.75,-125.67C133.51,-118.74 159.64,-110.07 183,-102.5 192.56,-99.4 203,-96.07 212.45,-93.09"/>
<polygon fill="#63b8ff" stroke="#63b8ff" points="111.4,-122.43 103.02,-128.92 113.61,-129.07 111.4,-122.43"/>
</a>
</g>
</g>
<!-- Node12 -->
<g id="Node000012" class="node">
<title>Node12</title>
<g id="a_Node000012"><a xlink:href="struct_phi_waveform.html" target="_top" xlink:title=" ">
<polygon fill="white" stroke="#666666" points="285,-130 203,-130 203,-111 285,-111 285,-130"/>
<text text-anchor="middle" x="244" y="-118" font-family="Helvetica Neue" font-size="10.00">PhiWaveform</text>
</a>
</g>
</g>
<!-- Node6&#45;&gt;Node12 -->
<g id="edge31_Node000006_Node000012" class="edge">
<title>Node6&#45;&gt;Node12</title>
<g id="a_edge31_Node000006_Node000012"><a xlink:title=" ">
<path fill="none" stroke="#63b8ff" d="M133.24,-132.22C156.26,-129.77 182.08,-127.01 202.89,-124.79"/>
<polygon fill="#63b8ff" stroke="#63b8ff" points="132.81,-128.75 123.24,-133.29 133.55,-135.71 132.81,-128.75"/>
</a>
</g>
</g>
<!-- Node15 -->
<g id="Node000015" class="node">
<title>Node15</title>
<g id="a_Node000015"><a xlink:href="struct_port_u_i.html" target="_top" xlink:title="A base class for inlets and outlets.">
<polygon fill="white" stroke="#666666" points="267.5,-19 220.5,-19 220.5,0 267.5,0 267.5,-19"/>
<text text-anchor="middle" x="244" y="-7" font-family="Helvetica Neue" font-size="10.00">PortUI</text>
</a>
</g>
</g>
<!-- Node6&#45;&gt;Node15 -->
<g id="edge34_Node000006_Node000015" class="edge">
<title>Node6&#45;&gt;Node15</title>
<g id="a_edge34_Node000006_Node000015"><a xlink:title=" ">
<path fill="none" stroke="#63b8ff" d="M91.25,-121.43C105.96,-106.44 127.92,-84.04 147,-64.5 163.03,-48.08 163.38,-39.4 183,-27.5 194.34,-20.62 208.5,-16.21 220.22,-13.48"/>
<polygon fill="#63b8ff" stroke="#63b8ff" points="88.4,-119.34 83.9,-128.93 93.4,-124.25 88.4,-119.34"/>
</a>
</g>
</g>
<!-- Node13 -->
<g id="Node000013" class="node">
<title>Node13</title>
<g id="a_Node000013"><a xlink:href="struct_impulse_u_i_1_1_impulse_waveform.html" target="_top" xlink:title=" ">
<polygon fill="white" stroke="#666666" points="502,-130 341,-130 341,-111 502,-111 502,-130"/>
<text text-anchor="middle" x="421.5" y="-118" font-family="Helvetica Neue" font-size="10.00">ImpulseUI::ImpulseWaveform</text>
</a>
</g>
</g>
<!-- Node12&#45;&gt;Node13 -->
<g id="edge32_Node000012_Node000013" class="edge">
<title>Node12&#45;&gt;Node13</title>
<g id="a_edge32_Node000012_Node000013"><a xlink:title=" ">
<path fill="none" stroke="#63b8ff" d="M295.27,-120.5C309.43,-120.5 325.21,-120.5 340.65,-120.5"/>
<polygon fill="#63b8ff" stroke="#63b8ff" points="295.26,-117 285.26,-120.5 295.26,-124 295.26,-117"/>
</a>
</g>
</g>
<!-- Node14 -->
<g id="Node000014" class="node">
<title>Node14</title>
<g id="a_Node000014"><a xlink:href="struct_l_f_o_u_i_1_1_l_f_o_waveform.html" target="_top" xlink:title=" ">
<polygon fill="white" stroke="#666666" points="482,-93 361,-93 361,-74 482,-74 482,-93"/>
<text text-anchor="middle" x="421.5" y="-81" font-family="Helvetica Neue" font-size="10.00">LFOUI::LFOWaveform</text>
</a>
</g>
</g>
<!-- Node12&#45;&gt;Node14 -->
<g id="edge33_Node000012_Node000014" class="edge">
<title>Node12&#45;&gt;Node14</title>
<g id="a_edge33_Node000012_Node000014"><a xlink:title=" ">
<path fill="none" stroke="#63b8ff" d="M295.35,-109.88C320.52,-104.58 350.73,-98.21 375.17,-93.06"/>
<polygon fill="#63b8ff" stroke="#63b8ff" points="294.33,-106.52 285.26,-112.01 295.77,-113.37 294.33,-106.52"/>
</a>
</g>
</g>
<!-- Node16 -->
<g id="Node000016" class="node">
<title>Node16</title>
<g id="a_Node000016"><a xlink:href="struct_inlet_u_i.html" target="_top" xlink:title="A Port in Inlet mode (other functionality might be added here)">
<polygon fill="white" stroke="#666666" points="446,-56 397,-56 397,-37 446,-37 446,-56"/>
<text text-anchor="middle" x="421.5" y="-44" font-family="Helvetica Neue" font-size="10.00">InletUI</text>
</a>
</g>
</g>
<!-- Node15&#45;&gt;Node16 -->
<g id="edge35_Node000015_Node000016" class="edge">
<title>Node15&#45;&gt;Node16</title>
<g id="a_edge35_Node000015_Node000016"><a xlink:title=" ">
<path fill="none" stroke="#63b8ff" d="M277.67,-16.39C312.3,-23.69 366.15,-35.04 396.88,-41.52"/>
<polygon fill="#63b8ff" stroke="#63b8ff" points="278.09,-12.9 267.58,-14.26 276.65,-19.75 278.09,-12.9"/>
</a>
</g>
</g>
<!-- Node17 -->
<g id="Node000017" class="node">
<title>Node17</title>
<g id="a_Node000017"><a xlink:href="struct_outlet_u_i.html" target="_top" xlink:title="A Port in Outlet mode (other functionality might be added here)">
<polygon fill="white" stroke="#666666" points="450,-19 393,-19 393,0 450,0 450,-19"/>
<text text-anchor="middle" x="421.5" y="-7" font-family="Helvetica Neue" font-size="10.00">OutletUI</text>
</a>
</g>
</g>
<!-- Node15&#45;&gt;Node17 -->
<g id="edge36_Node000015_Node000017" class="edge">
<title>Node15&#45;&gt;Node17</title>
<g id="a_edge36_Node000015_Node000017"><a xlink:title=" ">
<path fill="none" stroke="#63b8ff" d="M277.68,-9.5C310.83,-9.5 361.57,-9.5 392.8,-9.5"/>
<polygon fill="#63b8ff" stroke="#63b8ff" points="277.58,-6 267.58,-9.5 277.58,-13 277.58,-6"/>
</a>
</g>
</g>
<!-- Node18 -->
<g id="Node000018" class="node">
<title>Node18</title>
<g id="a_Node000018"><a xlink:href="class_hover_popup_client.html" target="_top" xlink:title=" ">
<polygon fill="white" stroke="#666666" points="125.5,-19 21.5,-19 21.5,0 125.5,0 125.5,-19"/>
<text text-anchor="middle" x="73.5" y="-7" font-family="Helvetica Neue" font-size="10.00">HoverPopupClient</text>
</a>
</g>
</g>
<!-- Node18&#45;&gt;Node15 -->
<g id="edge37_Node000018_Node000015" class="edge">
<title>Node18&#45;&gt;Node15</title>
<g id="a_edge37_Node000018_Node000015"><a xlink:title=" ">
<path fill="none" stroke="#63b8ff" d="M135.73,-9.5C165.15,-9.5 198.64,-9.5 220.25,-9.5"/>
<polygon fill="#63b8ff" stroke="#63b8ff" points="135.51,-6 125.51,-9.5 135.51,-13 135.51,-6"/>
</a>
</g>
</g>
<!-- Node19 -->
<g id="Node000019" class="node">
<title>Node19</title>
<g id="a_Node000019"><a xlink:title=" ">
<polygon fill="#e0e0e0" stroke="#999999" points="125.5,-278 21.5,-278 21.5,-259 125.5,-259 125.5,-278"/>
<text text-anchor="middle" x="73.5" y="-266" font-family="Helvetica Neue" font-size="10.00">juce::LassoSource</text>
</a>
</g>
</g>
<!-- Node19&#45;&gt;Node3 -->
<g id="edge38_Node000019_Node000003" class="edge">
<title>Node19&#45;&gt;Node3</title>
<g id="a_edge38_Node000019_Node000003"><a xlink:title=" ">
<path fill="none" stroke="#63b8ff" d="M127.7,-256.82C152.98,-251.27 182.59,-244.76 205.48,-239.74"/>
<polygon fill="#63b8ff" stroke="#63b8ff" points="126.91,-253.41 117.89,-258.97 128.41,-260.25 126.91,-253.41"/>
</a>
</g>
</g>
<!-- Node19&#45;&gt;Node5 -->
<g id="edge39_Node000019_Node000005" class="edge">
<title>Node19&#45;&gt;Node5</title>
<g id="a_edge39_Node000019_Node000005"><a xlink:title=" ">
<path fill="none" stroke="#63b8ff" d="M135.65,-268.5C163.68,-268.5 195.41,-268.5 217.06,-268.5"/>
<polygon fill="#63b8ff" stroke="#63b8ff" points="135.51,-265 125.51,-268.5 135.51,-272 135.51,-265"/>
</a>
</g>
</g>
<!-- Node2 -->
<g id="Node000002" class="node">
<title>Node2</title>
<g id="a_Node000002"><a xlink:href="struct_state_1_1_listener.html" target="_top" xlink:title=" ">
<polygon fill="white" stroke="#666666" points="117,-204 30,-204 30,-185 117,-185 117,-204"/>
<text text-anchor="middle" x="73.5" y="-192" font-family="Helvetica Neue" font-size="10.00">State::Listener</text>
</a>
</g>
</g>
<!-- Node2&#45;&gt;Node1 -->
<g id="edge40_Node000002_Node000001" class="edge">
<title>Node2&#45;&gt;Node1</title>
<g id="a_edge40_Node000002_Node000001"><a xlink:title=" ">
<path fill="none" stroke="#63b8ff" d="M127.15,-202.46C134.31,-205.15 141.19,-208.73 147,-213.5 175.27,-236.7 155.14,-263.81 183,-287.5 189.38,-292.92 197.35,-296.71 205.38,-299.36"/>
<polygon fill="#63b8ff" stroke="#63b8ff" points="127.85,-199.01 117.26,-199.32 125.73,-205.68 127.85,-199.01"/>
</a>
</g>
</g>
<!-- Node2&#45;&gt;Node3 -->
<g id="edge41_Node000002_Node000003" class="edge">
<title>Node2&#45;&gt;Node3</title>
<g id="a_edge41_Node000002_Node000003"><a xlink:title=" ">
<path fill="none" stroke="#63b8ff" d="M126.88,-206C152.29,-211.58 182.25,-218.16 205.38,-223.24"/>
<polygon fill="#63b8ff" stroke="#63b8ff" points="127.54,-202.56 117.02,-203.84 126.04,-209.4 127.54,-202.56"/>
</a>
</g>
</g>
<!-- Node2&#45;&gt;Node5 -->
<g id="edge44_Node000002_Node000005" class="edge">
<title>Node2&#45;&gt;Node5</title>
<g id="a_edge44_Node000002_Node000005"><a xlink:title=" ">
<path fill="none" stroke="#63b8ff" d="M126.7,-204.49C133.77,-206.89 140.74,-209.85 147,-213.5 166.82,-225.05 163.38,-238.6 183,-250.5 193.41,-256.82 206.2,-261.05 217.29,-263.82"/>
<polygon fill="#63b8ff" stroke="#63b8ff" points="127.64,-201.12 117.05,-201.56 125.6,-207.82 127.64,-201.12"/>
</a>
</g>
</g>
<!-- Node2&#45;&gt;Node9 -->
<g id="edge42_Node000002_Node000009" class="edge">
<title>Node2&#45;&gt;Node9</title>
<g id="a_edge42_Node000002_Node000009"><a xlink:title=" ">
<path fill="none" stroke="#63b8ff" d="M127.09,-182.95C150.4,-177.83 177.49,-171.89 199.61,-167.03"/>
<polygon fill="#63b8ff" stroke="#63b8ff" points="126.04,-179.6 117.02,-185.16 127.54,-186.44 126.04,-179.6"/>
</a>
</g>
</g>
<!-- Node2&#45;&gt;Node10 -->
<g id="edge43_Node000002_Node000010" class="edge">
<title>Node2&#45;&gt;Node10</title>
<g id="a_edge43_Node000002_Node000010"><a xlink:title=" ">
<path fill="none" stroke="#63b8ff" d="M127.28,-194.5C153.75,-194.5 185.06,-194.5 208.43,-194.5"/>
<polygon fill="#63b8ff" stroke="#63b8ff" points="127.02,-191 117.02,-194.5 127.02,-198 127.02,-191"/>
</a>
</g>
</g>
<!-- Node8 -->
<g id="Node000008" class="node">
<title>Node8</title>
<g id="a_Node000008"><a xlink:title=" ">
<polygon fill="#e0e0e0" stroke="#999999" points="109,-56 38,-56 38,-37 109,-37 109,-56"/>
<text text-anchor="middle" x="73.5" y="-44" font-family="Helvetica Neue" font-size="10.00">juce::Timer</text>
</a>
</g>
</g>
<!-- Node8&#45;&gt;Node7 -->
<g id="edge45_Node000008_Node000007" class="edge">
<title>Node8&#45;&gt;Node7</title>
<g id="a_edge45_Node000008_Node000007"><a xlink:title=" ">
<path fill="none" stroke="#63b8ff" d="M119.07,-46.5C139.68,-46.5 164.4,-46.5 186.32,-46.5"/>
<polygon fill="#63b8ff" stroke="#63b8ff" points="119.01,-43 109.01,-46.5 119.01,-50 119.01,-43"/>
</a>
</g>
</g>
</g>
</svg>
