<?xml version="1.0" encoding="UTF-8" standalone="no"?>
<!DOCTYPE svg PUBLIC "-//W3C//DTD SVG 1.1//EN"
 "http://www.w3.org/Graphics/SVG/1.1/DTD/svg11.dtd">
<!-- Generated by graphviz version 2.43.0 (0)
 -->
<!-- Title: Graphical Class Hierarchy Pages: 1 -->
<svg width="473pt" height="27pt"
 viewBox="0.00 0.00 473.00 27.00" xmlns="http://www.w3.org/2000/svg" xmlns:xlink="http://www.w3.org/1999/xlink">
<g id="graph0" class="graph" transform="scale(1 1) rotate(0) translate(4 23)">
<title>Graphical Class Hierarchy</title>
<!-- Node0 -->
<g id="Node000000" class="node">
<title>Node0</title>
<g id="a_Node000000"><a xlink:title=" ">
<polygon fill="#e0e0e0" stroke="#999999" points="123,-19 0,-19 0,0 123,0 123,-19"/>
<text text-anchor="middle" x="61.5" y="-7" font-family="Helvetica Neue" font-size="10.00">juce::LookAndFeel_V4</text>
</a>
</g>
</g>
<!-- Node1 -->
<g id="Node000001" class="node">
<title>Node1</title>
<g id="a_Node000001"><a xlink:href="struct_phi_look_and_feel.html" target="_top" xlink:title=" ">
<polygon fill="white" stroke="#666666" points="253,-19 159,-19 159,0 253,0 253,-19"/>
<text text-anchor="middle" x="206" y="-7" font-family="Helvetica Neue" font-size="10.00">PhiLookAndFeel</text>
</a>
</g>
</g>
<!-- Node0&#45;&gt;Node1 -->
<g id="edge50_Node000000_Node000001" class="edge">
<title>Node0&#45;&gt;Node1</title>
<g id="a_edge50_Node000000_Node000001"><a xlink:title=" ">
<path fill="none" stroke="#63b8ff" d="M133.37,-9.5C141.93,-9.5 150.5,-9.5 158.58,-9.5"/>
<polygon fill="#63b8ff" stroke="#63b8ff" points="133.35,-6 123.35,-9.5 133.35,-13 133.35,-6"/>
</a>
</g>
</g>
<!-- Node2 -->
<g id="Node000002" class="node">
<title>Node2</title>
<g id="a_Node000002"><a xlink:href="struct_module_box_1_1_module_look_and_feel.html" target="_top" xlink:title="Our LookAndFeel class and instance for this module box.">
<polygon fill="white" stroke="#666666" points="465,-19 289,-19 289,0 465,0 465,-19"/>
<text text-anchor="middle" x="377" y="-7" font-family="Helvetica Neue" font-size="10.00">ModuleBox::ModuleLookAndFeel</text>
</a>
</g>
</g>
<!-- Node1&#45;&gt;Node2 -->
<g id="edge51_Node000001_Node000002" class="edge">
<title>Node1&#45;&gt;Node2</title>
<g id="a_edge51_Node000001_Node000002"><a xlink:title=" ">
<path fill="none" stroke="#63b8ff" d="M263.37,-9.5C271.61,-9.5 280.25,-9.5 288.93,-9.5"/>
<polygon fill="#63b8ff" stroke="#63b8ff" points="263.18,-6 253.18,-9.5 263.18,-13 263.18,-6"/>
</a>
</g>
</g>
</g>
</svg>
