<?xml version="1.0" encoding="UTF-8" standalone="no"?>
<!DOCTYPE svg PUBLIC "-//W3C//DTD SVG 1.1//EN"
 "http://www.w3.org/Graphics/SVG/1.1/DTD/svg11.dtd">
<!-- Generated by graphviz version 2.43.0 (0)
 -->
<!-- Title: Graphical Class Hierarchy Pages: 1 -->
<svg width="410pt" height="82pt"
 viewBox="0.00 0.00 410.00 82.00" xmlns="http://www.w3.org/2000/svg" xmlns:xlink="http://www.w3.org/1999/xlink">
<g id="graph0" class="graph" transform="scale(1 1) rotate(0) translate(4 78)">
<title>Graphical Class Hierarchy</title>
<!-- Node0 -->
<g id="Node000000" class="node">
<title>Node0</title>
<g id="a_Node000000"><a xlink:href="struct_one_pole.html" target="_top" xlink:title=" ">
<polygon fill="white" stroke="#666666" points="102,-55 0,-55 0,-36 102,-36 102,-55"/>
<text text-anchor="middle" x="51" y="-43" font-family="Helvetica Neue" font-size="10.00">OnePole&lt; Type &gt;</text>
</a>
</g>
</g>
<!-- Node1 -->
<g id="Node000001" class="node">
<title>Node1</title>
<g id="a_Node000001"><a xlink:href="struct_one_pole_high.html" target="_top" xlink:title=" ">
<polygon fill="white" stroke="#666666" points="262.5,-74 138.5,-74 138.5,-55 262.5,-55 262.5,-74"/>
<text text-anchor="middle" x="200.5" y="-62" font-family="Helvetica Neue" font-size="10.00">OnePoleHigh&lt; float &gt;</text>
</a>
</g>
</g>
<!-- Node0&#45;&gt;Node1 -->
<g id="edge61_Node000000_Node000001" class="edge">
<title>Node0&#45;&gt;Node1</title>
<g id="a_edge61_Node000000_Node000001"><a xlink:title=" ">
<path fill="none" stroke="#63b8ff" d="M112.31,-53.27C120.92,-54.38 129.79,-55.52 138.41,-56.63"/>
<polygon fill="#63b8ff" stroke="#63b8ff" points="112.71,-49.79 102.35,-51.99 111.82,-56.73 112.71,-49.79"/>
</a>
</g>
</g>
<!-- Node2 -->
<g id="Node000002" class="node">
<title>Node2</title>
<g id="a_Node000002"><a xlink:href="struct_one_pole_high.html" target="_top" xlink:title=" ">
<polygon fill="white" stroke="#666666" points="263,-37 138,-37 138,-18 263,-18 263,-37"/>
<text text-anchor="middle" x="200.5" y="-25" font-family="Helvetica Neue" font-size="10.00">OnePoleHigh&lt; Type &gt;</text>
</a>
</g>
</g>
<!-- Node0&#45;&gt;Node2 -->
<g id="edge62_Node000000_Node000002" class="edge">
<title>Node0&#45;&gt;Node2</title>
<g id="a_edge62_Node000000_Node000002"><a xlink:title=" ">
<path fill="none" stroke="#63b8ff" d="M112.44,-38.12C120.84,-37.1 129.48,-36.05 137.89,-35.02"/>
<polygon fill="#63b8ff" stroke="#63b8ff" points="111.85,-34.67 102.35,-39.36 112.7,-41.62 111.85,-34.67"/>
</a>
</g>
</g>
<!-- Node3 -->
<g id="Node000003" class="node">
<title>Node3</title>
<g id="a_Node000003"><a xlink:href="struct_d_c_block.html" target="_top" xlink:title=" ">
<polygon fill="white" stroke="#666666" points="401.5,-56 299.5,-56 299.5,-37 401.5,-37 401.5,-56"/>
<text text-anchor="middle" x="350.5" y="-44" font-family="Helvetica Neue" font-size="10.00">DCBlock&lt; float &gt;</text>
</a>
</g>
</g>
<!-- Node2&#45;&gt;Node3 -->
<g id="edge63_Node000002_Node000003" class="edge">
<title>Node2&#45;&gt;Node3</title>
<g id="a_edge63_Node000002_Node000003"><a xlink:title=" ">
<path fill="none" stroke="#63b8ff" d="M273.51,-36.74C282.15,-37.85 290.82,-38.97 299.06,-40.03"/>
<polygon fill="#63b8ff" stroke="#63b8ff" points="273.77,-33.25 263.41,-35.45 272.88,-40.19 273.77,-33.25"/>
</a>
</g>
</g>
<!-- Node4 -->
<g id="Node000004" class="node">
<title>Node4</title>
<g id="a_Node000004"><a xlink:href="struct_d_c_block.html" target="_top" xlink:title=" ">
<polygon fill="white" stroke="#666666" points="402,-19 299,-19 299,0 402,0 402,-19"/>
<text text-anchor="middle" x="350.5" y="-7" font-family="Helvetica Neue" font-size="10.00">DCBlock&lt; Type &gt;</text>
</a>
</g>
</g>
<!-- Node2&#45;&gt;Node4 -->
<g id="edge64_Node000002_Node000004" class="edge">
<title>Node2&#45;&gt;Node4</title>
<g id="a_edge64_Node000002_Node000004"><a xlink:title=" ">
<path fill="none" stroke="#63b8ff" d="M273.37,-18.76C281.9,-17.72 290.46,-16.68 298.61,-15.69"/>
<polygon fill="#63b8ff" stroke="#63b8ff" points="272.91,-15.29 263.41,-19.97 273.76,-22.24 272.91,-15.29"/>
</a>
</g>
</g>
</g>
</svg>
