<?xml version="1.0" encoding="UTF-8" standalone="no"?>
<!DOCTYPE svg PUBLIC "-//W3C//DTD SVG 1.1//EN"
 "http://www.w3.org/Graphics/SVG/1.1/DTD/svg11.dtd">
<!-- Generated by graphviz version 2.38.0 (20140413.2041)
 -->
<!-- Title: Graphical Class Hierarchy Pages: 1 -->
<svg width="516pt" height="408pt"
 viewBox="0.00 0.00 516.00 408.00" xmlns="http://www.w3.org/2000/svg" xmlns:xlink="http://www.w3.org/1999/xlink">
<g id="graph0" class="graph" transform="scale(1 1) rotate(0) translate(4 404)">
<title>Graphical Class Hierarchy</title>
<polygon fill="white" stroke="none" points="-4,4 -4,-404 512,-404 512,4 -4,4"/>
<!-- Node1 -->
<g id="node1" class="node"><title>Node1</title>
<polygon fill="white" stroke="#bfbfbf" points="168.5,-380.5 168.5,-399.5 217.5,-399.5 217.5,-380.5 168.5,-380.5"/>
<text text-anchor="middle" x="193" y="-387.5" font-family="Helvetica Neue" font-size="10.00">Button</text>
</g>
<!-- Node2 -->
<g id="node2" class="node"><title>Node2</title>
<g id="a_node2"><a xlink:href="class_phi_slider_button.html" target="_top" xlink:title="PhiSliderButton">
<polygon fill="white" stroke="black" points="313.5,-342.5 313.5,-361.5 403.5,-361.5 403.5,-342.5 313.5,-342.5"/>
<text text-anchor="middle" x="358.5" y="-349.5" font-family="Helvetica Neue" font-size="10.00">PhiSliderButton</text>
</a>
</g>
</g>
<!-- Node1&#45;&gt;Node2 -->
<g id="edge1" class="edge"><title>Node1&#45;&gt;Node2</title>
<path fill="none" stroke="midnightblue" d="M227.824,-382.139C253.605,-376.147 289.219,-367.87 316.601,-361.506"/>
<polygon fill="midnightblue" stroke="midnightblue" points="226.722,-378.801 217.774,-384.474 228.307,-385.62 226.722,-378.801"/>
</g>
<!-- Node3 -->
<g id="node3" class="node"><title>Node3</title>
<g id="a_node3"><a xlink:href="class_phi_toggle_button.html" target="_top" xlink:title="PhiToggleButton">
<polygon fill="white" stroke="black" points="312,-380.5 312,-399.5 405,-399.5 405,-380.5 312,-380.5"/>
<text text-anchor="middle" x="358.5" y="-387.5" font-family="Helvetica Neue" font-size="10.00">PhiToggleButton</text>
</a>
</g>
</g>
<!-- Node1&#45;&gt;Node3 -->
<g id="edge2" class="edge"><title>Node1&#45;&gt;Node3</title>
<path fill="none" stroke="midnightblue" d="M227.929,-390C252.194,-390 285.127,-390 311.719,-390"/>
<polygon fill="midnightblue" stroke="midnightblue" points="227.774,-386.5 217.774,-390 227.774,-393.5 227.774,-386.5"/>
</g>
<!-- Node4 -->
<g id="node4" class="node"><title>Node4</title>
<polygon fill="white" stroke="#bfbfbf" points="137,-228.5 137,-247.5 249,-247.5 249,-228.5 137,-228.5"/>
<text text-anchor="middle" x="193" y="-235.5" font-family="Helvetica Neue" font-size="10.00">ChangeBroadcaster</text>
</g>
<!-- Node5 -->
<g id="node5" class="node"><title>Node5</title>
<g id="a_node5"><a xlink:href="class_connections.html" target="_top" xlink:title="The connection manager and drawer. ">
<polygon fill="white" stroke="black" points="320.5,-152.5 320.5,-171.5 396.5,-171.5 396.5,-152.5 320.5,-152.5"/>
<text text-anchor="middle" x="358.5" y="-159.5" font-family="Helvetica Neue" font-size="10.00">Connections</text>
</a>
</g>
</g>
<!-- Node4&#45;&gt;Node5 -->
<g id="edge3" class="edge"><title>Node4&#45;&gt;Node5</title>
<path fill="none" stroke="midnightblue" d="M258.835,-226.449C264.471,-224.364 269.945,-221.904 275,-219 295.173,-207.412 291.801,-194.139 311,-181 316.326,-177.355 322.458,-174.23 328.485,-171.629"/>
<polygon fill="midnightblue" stroke="midnightblue" points="257.643,-223.157 249.243,-229.614 259.836,-229.804 257.643,-223.157"/>
</g>
<!-- Node6 -->
<g id="node6" class="node"><title>Node6</title>
<g id="a_node6"><a xlink:href="class_module_box.html" target="_top" xlink:title="ModuleBox">
<polygon fill="white" stroke="black" points="324,-247.5 324,-266.5 393,-266.5 393,-247.5 324,-247.5"/>
<text text-anchor="middle" x="358.5" y="-254.5" font-family="Helvetica Neue" font-size="10.00">ModuleBox</text>
</a>
</g>
</g>
<!-- Node4&#45;&gt;Node6 -->
<g id="edge4" class="edge"><title>Node4&#45;&gt;Node6</title>
<path fill="none" stroke="midnightblue" d="M259.338,-245.593C281.374,-248.154 305.071,-250.907 323.66,-253.068"/>
<polygon fill="midnightblue" stroke="midnightblue" points="259.691,-242.11 249.354,-244.433 258.883,-249.064 259.691,-242.11"/>
</g>
<!-- Node7 -->
<g id="node7" class="node"><title>Node7</title>
<polygon fill="white" stroke="#bfbfbf" points="147,-152.5 147,-171.5 239,-171.5 239,-152.5 147,-152.5"/>
<text text-anchor="middle" x="193" y="-159.5" font-family="Helvetica Neue" font-size="10.00">ChangeListener</text>
</g>
<!-- Node7&#45;&gt;Node5 -->
<g id="edge5" class="edge"><title>Node7&#45;&gt;Node5</title>
<path fill="none" stroke="midnightblue" d="M249.25,-162C272.636,-162 299.265,-162 320.26,-162"/>
<polygon fill="midnightblue" stroke="midnightblue" points="249.11,-158.5 239.11,-162 249.11,-165.5 249.11,-158.5"/>
</g>
<!-- Node7&#45;&gt;Node6 -->
<g id="edge7" class="edge"><title>Node7&#45;&gt;Node6</title>
<path fill="none" stroke="midnightblue" d="M248.864,-170.275C257.945,-172.918 266.998,-176.403 275,-181 295.173,-192.588 293.958,-203.163 311,-219 321.997,-229.22 335.336,-239.966 344.902,-247.412"/>
<polygon fill="midnightblue" stroke="midnightblue" points="249.606,-166.851 239.047,-167.725 247.846,-173.626 249.606,-166.851"/>
</g>
<!-- Node8 -->
<g id="node8" class="node"><title>Node8</title>
<g id="a_node8"><a xlink:href="class_main_patcher.html" target="_top" xlink:title="The main view of Phi, this class handles all the module creation, hosting and patching. ">
<polygon fill="white" stroke="black" points="321,-114.5 321,-133.5 396,-133.5 396,-114.5 321,-114.5"/>
<text text-anchor="middle" x="358.5" y="-121.5" font-family="Helvetica Neue" font-size="10.00">MainPatcher</text>
</a>
</g>
</g>
<!-- Node7&#45;&gt;Node8 -->
<g id="edge6" class="edge"><title>Node7&#45;&gt;Node8</title>
<path fill="none" stroke="midnightblue" d="M245.149,-150.112C269.743,-144.396 298.656,-137.676 320.992,-132.485"/>
<polygon fill="midnightblue" stroke="midnightblue" points="244.206,-146.738 235.258,-152.411 245.791,-153.556 244.206,-146.738"/>
</g>
<!-- Node9 -->
<g id="node9" class="node"><title>Node9</title>
<polygon fill="white" stroke="#bfbfbf" points="156.5,-114.5 156.5,-133.5 229.5,-133.5 229.5,-114.5 156.5,-114.5"/>
<text text-anchor="middle" x="193" y="-121.5" font-family="Helvetica Neue" font-size="10.00">Component</text>
</g>
<!-- Node9&#45;&gt;Node5 -->
<g id="edge8" class="edge"><title>Node9&#45;&gt;Node5</title>
<path fill="none" stroke="midnightblue" d="M239.669,-134.614C265.099,-140.524 296.356,-147.789 320.285,-153.351"/>
<polygon fill="midnightblue" stroke="midnightblue" points="240.414,-131.194 229.881,-132.339 238.829,-138.012 240.414,-131.194"/>
</g>
<!-- Node9&#45;&gt;Node6 -->
<g id="edge11" class="edge"><title>Node9&#45;&gt;Node6</title>
<path fill="none" stroke="midnightblue" d="M239.6,-127.38C252.115,-130.147 264.981,-134.908 275,-143 304.076,-166.484 287.966,-189.566 311,-219 319.867,-230.33 332.686,-240.488 342.621,-247.444"/>
<polygon fill="midnightblue" stroke="midnightblue" points="240.168,-123.926 229.701,-125.562 238.904,-130.811 240.168,-123.926"/>
</g>
<!-- Node9&#45;&gt;Node8 -->
<g id="edge10" class="edge"><title>Node9&#45;&gt;Node8</title>
<path fill="none" stroke="midnightblue" d="M240.08,-124C265.638,-124 296.981,-124 320.854,-124"/>
<polygon fill="midnightblue" stroke="midnightblue" points="239.881,-120.5 229.881,-124 239.881,-127.5 239.881,-120.5"/>
</g>
<!-- Node10 -->
<g id="node10" class="node"><title>Node10</title>
<g id="a_node10"><a xlink:href="class_main_component.html" target="_top" xlink:title="The lowest&#45;order component that includes all the content. ">
<polygon fill="white" stroke="black" points="311,-190.5 311,-209.5 406,-209.5 406,-190.5 311,-190.5"/>
<text text-anchor="middle" x="358.5" y="-197.5" font-family="Helvetica Neue" font-size="10.00">MainComponent</text>
</a>
</g>
</g>
<!-- Node9&#45;&gt;Node10 -->
<g id="edge9" class="edge"><title>Node9&#45;&gt;Node10</title>
<path fill="none" stroke="midnightblue" d="M239.495,-129.829C251.572,-132.644 264.236,-136.817 275,-143 295.173,-154.588 291.801,-167.861 311,-181 316.326,-184.645 322.458,-187.77 328.485,-190.371"/>
<polygon fill="midnightblue" stroke="midnightblue" points="240.045,-126.368 229.543,-127.768 238.626,-133.223 240.045,-126.368"/>
</g>
<!-- Node11 -->
<g id="node11" class="node"><title>Node11</title>
<g id="a_node11"><a xlink:href="class_plug.html" target="_top" xlink:title="A base class for Inlet and Outlet &#45; This is a UI class for handling connection and dragging behaviors...">
<polygon fill="white" stroke="black" points="340,-38.5 340,-57.5 377,-57.5 377,-38.5 340,-38.5"/>
<text text-anchor="middle" x="358.5" y="-45.5" font-family="Helvetica Neue" font-size="10.00">Plug</text>
</a>
</g>
</g>
<!-- Node9&#45;&gt;Node11 -->
<g id="edge12" class="edge"><title>Node9&#45;&gt;Node11</title>
<path fill="none" stroke="midnightblue" d="M239.495,-118.171C251.572,-115.356 264.236,-111.183 275,-105 295.173,-93.4119 291.801,-80.1392 311,-67 319.78,-60.9911 330.752,-56.3943 339.833,-53.2284"/>
<polygon fill="midnightblue" stroke="midnightblue" points="238.626,-114.777 229.543,-120.232 240.045,-121.632 238.626,-114.777"/>
</g>
<!-- Node14 -->
<g id="node14" class="node"><title>Node14</title>
<g id="a_node14"><a xlink:href="class_waveform.html" target="_top" xlink:title="Waveform">
<polygon fill="white" stroke="black" points="326.5,-76.5 326.5,-95.5 390.5,-95.5 390.5,-76.5 326.5,-76.5"/>
<text text-anchor="middle" x="358.5" y="-83.5" font-family="Helvetica Neue" font-size="10.00">Waveform</text>
</a>
</g>
</g>
<!-- Node9&#45;&gt;Node14 -->
<g id="edge15" class="edge"><title>Node9&#45;&gt;Node14</title>
<path fill="none" stroke="midnightblue" d="M239.723,-113.373C267.368,-106.948 301.882,-98.9264 326.385,-93.2315"/>
<polygon fill="midnightblue" stroke="midnightblue" points="238.829,-109.988 229.881,-115.661 240.414,-116.806 238.829,-109.988"/>
</g>
<!-- Node12 -->
<g id="node12" class="node"><title>Node12</title>
<g id="a_node12"><a xlink:href="class_inlet_plug.html" target="_top" xlink:title="A Plug in Inlet mode (other functionality might be added here) ">
<polygon fill="white" stroke="black" points="446.5,-57.5 446.5,-76.5 503.5,-76.5 503.5,-57.5 446.5,-57.5"/>
<text text-anchor="middle" x="475" y="-64.5" font-family="Helvetica Neue" font-size="10.00">InletPlug</text>
</a>
</g>
</g>
<!-- Node11&#45;&gt;Node12 -->
<g id="edge13" class="edge"><title>Node11&#45;&gt;Node12</title>
<path fill="none" stroke="midnightblue" d="M387.269,-52.6079C405.227,-55.588 428.509,-59.4513 446.429,-62.4248"/>
<polygon fill="midnightblue" stroke="midnightblue" points="387.829,-49.1531 377.391,-50.9688 386.683,-56.0586 387.829,-49.1531"/>
</g>
<!-- Node13 -->
<g id="node13" class="node"><title>Node13</title>
<g id="a_node13"><a xlink:href="class_outlet_plug.html" target="_top" xlink:title="A Plug in Outlet mode (other functionality might be added here) ">
<polygon fill="white" stroke="black" points="442,-19.5 442,-38.5 508,-38.5 508,-19.5 442,-19.5"/>
<text text-anchor="middle" x="475" y="-26.5" font-family="Helvetica Neue" font-size="10.00">OutletPlug</text>
</a>
</g>
</g>
<!-- Node11&#45;&gt;Node13 -->
<g id="edge14" class="edge"><title>Node11&#45;&gt;Node13</title>
<path fill="none" stroke="midnightblue" d="M387.488,-43.3557C403.952,-40.6237 424.831,-37.159 441.953,-34.3178"/>
<polygon fill="midnightblue" stroke="midnightblue" points="386.683,-39.9414 377.391,-45.0312 387.829,-46.847 386.683,-39.9414"/>
</g>
<!-- Node15 -->
<g id="node15" class="node"><title>Node15</title>
<polygon fill="white" stroke="#bfbfbf" points="111,-304.5 111,-323.5 275,-323.5 275,-304.5 111,-304.5"/>
<text text-anchor="middle" x="193" y="-311.5" font-family="Helvetica Neue" font-size="10.00">ComponentBoundsConstrainer</text>
</g>
<!-- Node15&#45;&gt;Node6 -->
<g id="edge16" class="edge"><title>Node15&#45;&gt;Node6</title>
<path fill="none" stroke="midnightblue" d="M251.869,-301.931C259.714,-299.858 267.604,-297.542 275,-295 297.966,-287.107 323.156,-274.959 339.583,-266.532"/>
<polygon fill="midnightblue" stroke="midnightblue" points="250.835,-298.582 241.997,-304.425 252.55,-305.369 250.835,-298.582"/>
</g>
<!-- Node16 -->
<g id="node16" class="node"><title>Node16</title>
<polygon fill="white" stroke="#bfbfbf" points="137,-266.5 137,-285.5 249,-285.5 249,-266.5 137,-266.5"/>
<text text-anchor="middle" x="193" y="-273.5" font-family="Helvetica Neue" font-size="10.00">ComponentDragger</text>
</g>
<!-- Node16&#45;&gt;Node6 -->
<g id="edge17" class="edge"><title>Node16&#45;&gt;Node6</title>
<path fill="none" stroke="midnightblue" d="M259.338,-268.407C281.374,-265.846 305.071,-263.093 323.66,-260.932"/>
<polygon fill="midnightblue" stroke="midnightblue" points="258.883,-264.936 249.354,-269.567 259.691,-271.89 258.883,-264.936"/>
</g>
<!-- Node17 -->
<g id="node17" class="node"><title>Node17</title>
<polygon fill="white" stroke="#bfbfbf" points="154,-76.5 154,-95.5 232,-95.5 232,-76.5 154,-76.5"/>
<text text-anchor="middle" x="193" y="-83.5" font-family="Helvetica Neue" font-size="10.00">LassoSource</text>
</g>
<!-- Node17&#45;&gt;Node5 -->
<g id="edge18" class="edge"><title>Node17&#45;&gt;Node5</title>
<path fill="none" stroke="midnightblue" d="M242.489,-92.5522C253.645,-95.3452 265.123,-99.3263 275,-105 295.173,-116.588 291.801,-129.861 311,-143 316.326,-146.645 322.458,-149.77 328.485,-152.371"/>
<polygon fill="midnightblue" stroke="midnightblue" points="242.912,-89.0607 232.39,-90.3068 241.392,-95.8939 242.912,-89.0607"/>
</g>
<!-- Node17&#45;&gt;Node8 -->
<g id="edge19" class="edge"><title>Node17&#45;&gt;Node8</title>
<path fill="none" stroke="midnightblue" d="M242.389,-97.2463C267.491,-103.08 297.658,-110.092 320.811,-115.473"/>
<polygon fill="midnightblue" stroke="midnightblue" points="242.866,-93.7641 232.333,-94.9093 241.282,-100.582 242.866,-93.7641"/>
</g>
<!-- Node18 -->
<g id="node18" class="node"><title>Node18</title>
<polygon fill="white" stroke="#bfbfbf" points="165.5,-342.5 165.5,-361.5 220.5,-361.5 220.5,-342.5 165.5,-342.5"/>
<text text-anchor="middle" x="193" y="-349.5" font-family="Helvetica Neue" font-size="10.00">Listener</text>
</g>
<!-- Node18&#45;&gt;Node2 -->
<g id="edge22" class="edge"><title>Node18&#45;&gt;Node2</title>
<path fill="none" stroke="midnightblue" d="M230.925,-352C255.357,-352 287.519,-352 313.309,-352"/>
<polygon fill="midnightblue" stroke="midnightblue" points="230.633,-348.5 220.633,-352 230.633,-355.5 230.633,-348.5"/>
</g>
<!-- Node18&#45;&gt;Node6 -->
<g id="edge21" class="edge"><title>Node18&#45;&gt;Node6</title>
<path fill="none" stroke="midnightblue" d="M230.816,-347.478C245.193,-344.679 261.444,-340.185 275,-333 307.348,-315.854 336.678,-282.904 349.977,-266.609"/>
<polygon fill="midnightblue" stroke="midnightblue" points="229.997,-344.068 220.745,-349.23 231.197,-350.964 229.997,-344.068"/>
</g>
<!-- Node18&#45;&gt;Node10 -->
<g id="edge20" class="edge"><title>Node18&#45;&gt;Node10</title>
<path fill="none" stroke="midnightblue" d="M230.786,-350.806C246.016,-348.569 262.907,-343.595 275,-333 308.961,-303.245 284.62,-274.645 311,-238 319.284,-226.493 331.89,-216.487 341.887,-209.636"/>
<polygon fill="midnightblue" stroke="midnightblue" points="230.133,-347.358 220.587,-351.954 230.916,-354.314 230.133,-347.358"/>
</g>
<!-- Node19 -->
<g id="node19" class="node"><title>Node19</title>
<g id="a_node19"><a xlink:href="class_plug_event_emitter.html" target="_top" xlink:title="PlugEventEmitter">
<polygon fill="white" stroke="black" points="143.5,-0.5 143.5,-19.5 242.5,-19.5 242.5,-0.5 143.5,-0.5"/>
<text text-anchor="middle" x="193" y="-7.5" font-family="Helvetica Neue" font-size="10.00">PlugEventEmitter</text>
</a>
</g>
</g>
<!-- Node19&#45;&gt;Node11 -->
<g id="edge23" class="edge"><title>Node19&#45;&gt;Node11</title>
<path fill="none" stroke="midnightblue" d="M245.026,-21.8592C277.365,-29.3754 317.211,-38.6362 339.75,-43.8746"/>
<polygon fill="midnightblue" stroke="midnightblue" points="245.791,-18.4438 235.258,-19.589 244.206,-25.262 245.791,-18.4438"/>
</g>
<!-- Node20 -->
<g id="node20" class="node"><title>Node20</title>
<g id="a_node20"><a xlink:href="class_plug_listener.html" target="_top" xlink:title="PlugListener">
<polygon fill="white" stroke="black" points="0,-190.5 0,-209.5 75,-209.5 75,-190.5 0,-190.5"/>
<text text-anchor="middle" x="37.5" y="-197.5" font-family="Helvetica Neue" font-size="10.00">PlugListener</text>
</a>
</g>
</g>
<!-- Node21 -->
<g id="node21" class="node"><title>Node21</title>
<g id="a_node21"><a xlink:href="class_plug_handler.html" target="_top" xlink:title="The PlugHandler implements patching mechanics between sources and destinations &#45; dragging, clicking and keeping connected with the Shift key. ">
<polygon fill="white" stroke="black" points="156,-190.5 156,-209.5 230,-209.5 230,-190.5 156,-190.5"/>
<text text-anchor="middle" x="193" y="-197.5" font-family="Helvetica Neue" font-size="10.00">PlugHandler</text>
</a>
</g>
</g>
<!-- Node20&#45;&gt;Node21 -->
<g id="edge24" class="edge"><title>Node20&#45;&gt;Node21</title>
<path fill="none" stroke="midnightblue" d="M85.3456,-200C107.988,-200 134.748,-200 155.798,-200"/>
<polygon fill="midnightblue" stroke="midnightblue" points="85.2671,-196.5 75.2671,-200 85.267,-203.5 85.2671,-196.5"/>
</g>
<!-- Node21&#45;&gt;Node5 -->
<g id="edge25" class="edge"><title>Node21&#45;&gt;Node5</title>
<path fill="none" stroke="midnightblue" d="M240.076,-189.291C265.496,-183.383 296.641,-176.145 320.466,-170.607"/>
<polygon fill="midnightblue" stroke="midnightblue" points="239.234,-185.894 230.286,-191.567 240.819,-192.712 239.234,-185.894"/>
</g>
<!-- Node22 -->
<g id="node22" class="node"><title>Node22</title>
<polygon fill="white" stroke="#bfbfbf" points="136,-38.5 136,-57.5 250,-57.5 250,-38.5 136,-38.5"/>
<text text-anchor="middle" x="193" y="-45.5" font-family="Helvetica Neue" font-size="10.00">SettableTooltipClient</text>
</g>
<!-- Node22&#45;&gt;Node11 -->
<g id="edge26" class="edge"><title>Node22&#45;&gt;Node11</title>
<path fill="none" stroke="midnightblue" d="M260.366,-48C289.301,-48 320.903,-48 339.959,-48"/>
<polygon fill="midnightblue" stroke="midnightblue" points="260.267,-44.5001 250.267,-48 260.267,-51.5001 260.267,-44.5001"/>
</g>
</g>
</svg>
