<?xml version="1.0" encoding="UTF-8" standalone="no"?>
<!DOCTYPE svg PUBLIC "-//W3C//DTD SVG 1.1//EN"
 "http://www.w3.org/Graphics/SVG/1.1/DTD/svg11.dtd">
<!-- Generated by graphviz version 2.38.0 (20140413.2041)
 -->
<!-- Title: Graphical Class Hierarchy Pages: 1 -->
<svg width="370pt" height="142pt"
 viewBox="0.00 0.00 370.00 142.00" xmlns="http://www.w3.org/2000/svg" xmlns:xlink="http://www.w3.org/1999/xlink">
<g id="graph0" class="graph" transform="scale(1 1) rotate(0) translate(4 138)">
<title>Graphical Class Hierarchy</title>
<polygon fill="white" stroke="none" points="-4,4 -4,-138 366,-138 366,4 -4,4"/>
<!-- Node1 -->
<g id="node1" class="node"><title>Node1</title>
<polygon fill="white" stroke="#bfbfbf" points="0,-57.5 0,-76.5 91,-76.5 91,-57.5 0,-57.5"/>
<text text-anchor="middle" x="45.5" y="-64.5" font-family="Helvetica Neue" font-size="10.00">AudioProcessor</text>
</g>
<!-- Node2 -->
<g id="node2" class="node"><title>Node2</title>
<g id="a_node2"><a xlink:href="class_module_processor.html" target="_top" xlink:title="ModuleProcessor">
<polygon fill="white" stroke="black" points="127,-57.5 127,-76.5 225,-76.5 225,-57.5 127,-57.5"/>
<text text-anchor="middle" x="176" y="-64.5" font-family="Helvetica Neue" font-size="10.00">ModuleProcessor</text>
</a>
</g>
</g>
<!-- Node1&#45;&gt;Node2 -->
<g id="edge1" class="edge"><title>Node1&#45;&gt;Node2</title>
<path fill="none" stroke="midnightblue" d="M101.336,-67C109.868,-67 118.626,-67 126.991,-67"/>
<polygon fill="midnightblue" stroke="midnightblue" points="101.082,-63.5001 91.0824,-67 101.082,-70.5001 101.082,-63.5001"/>
</g>
<!-- Node3 -->
<g id="node3" class="node"><title>Node3</title>
<g id="a_node3"><a xlink:href="class_gain_processor.html" target="_top" xlink:title="GainProcessor">
<polygon fill="white" stroke="black" points="268.5,-114.5 268.5,-133.5 354.5,-133.5 354.5,-114.5 268.5,-114.5"/>
<text text-anchor="middle" x="311.5" y="-121.5" font-family="Helvetica Neue" font-size="10.00">GainProcessor</text>
</a>
</g>
</g>
<!-- Node2&#45;&gt;Node3 -->
<g id="edge2" class="edge"><title>Node2&#45;&gt;Node3</title>
<path fill="none" stroke="midnightblue" d="M206.597,-80.8982C222.605,-88.2857 242.776,-97.3879 261,-105 268.645,-108.193 277.032,-111.489 284.695,-114.422"/>
<polygon fill="midnightblue" stroke="midnightblue" points="207.768,-77.5828 197.223,-76.5487 204.821,-83.9326 207.768,-77.5828"/>
</g>
<!-- Node4 -->
<g id="node4" class="node"><title>Node4</title>
<g id="a_node4"><a xlink:href="class_impulse_processor.html" target="_top" xlink:title="ImpulseProcessor">
<polygon fill="white" stroke="black" points="261,-76.5 261,-95.5 362,-95.5 362,-76.5 261,-76.5"/>
<text text-anchor="middle" x="311.5" y="-83.5" font-family="Helvetica Neue" font-size="10.00">ImpulseProcessor</text>
</a>
</g>
</g>
<!-- Node2&#45;&gt;Node4 -->
<g id="edge3" class="edge"><title>Node2&#45;&gt;Node4</title>
<path fill="none" stroke="midnightblue" d="M235.334,-75.3022C243.749,-76.4998 252.345,-77.7233 260.576,-78.8947"/>
<polygon fill="midnightblue" stroke="midnightblue" points="235.59,-71.8035 225.197,-73.8594 234.604,-78.7336 235.59,-71.8035"/>
</g>
<!-- Node5 -->
<g id="node5" class="node"><title>Node5</title>
<g id="a_node5"><a xlink:href="class_output_processor.html" target="_top" xlink:title="OutputProcessor">
<polygon fill="white" stroke="black" points="263,-38.5 263,-57.5 360,-57.5 360,-38.5 263,-38.5"/>
<text text-anchor="middle" x="311.5" y="-45.5" font-family="Helvetica Neue" font-size="10.00">OutputProcessor</text>
</a>
</g>
</g>
<!-- Node2&#45;&gt;Node5 -->
<g id="edge4" class="edge"><title>Node2&#45;&gt;Node5</title>
<path fill="none" stroke="midnightblue" d="M235.114,-58.729C244.367,-57.4121 253.846,-56.0632 262.822,-54.7857"/>
<polygon fill="midnightblue" stroke="midnightblue" points="234.604,-55.2664 225.197,-60.1406 235.59,-62.1965 234.604,-55.2664"/>
</g>
<!-- Node6 -->
<g id="node6" class="node"><title>Node6</title>
<g id="a_node6"><a xlink:href="class_string_processor.html" target="_top" xlink:title="StringProcessor">
<polygon fill="white" stroke="black" points="265.5,-0.5 265.5,-19.5 357.5,-19.5 357.5,-0.5 265.5,-0.5"/>
<text text-anchor="middle" x="311.5" y="-7.5" font-family="Helvetica Neue" font-size="10.00">StringProcessor</text>
</a>
</g>
</g>
<!-- Node2&#45;&gt;Node6 -->
<g id="edge5" class="edge"><title>Node2&#45;&gt;Node6</title>
<path fill="none" stroke="midnightblue" d="M206.597,-53.1018C222.605,-45.7143 242.776,-36.6121 261,-29 268.645,-25.807 277.032,-22.5107 284.695,-19.5784"/>
<polygon fill="midnightblue" stroke="midnightblue" points="204.821,-50.0674 197.223,-57.4513 207.768,-56.4172 204.821,-50.0674"/>
</g>
</g>
</svg>
