<?xml version="1.0" encoding="UTF-8" standalone="no"?>
<!DOCTYPE svg PUBLIC "-//W3C//DTD SVG 1.1//EN"
 "http://www.w3.org/Graphics/SVG/1.1/DTD/svg11.dtd">
<!-- Generated by graphviz version 2.43.0 (0)
 -->
<!-- Title: OnePoleHigh&lt; Type &gt; Pages: 1 -->
<svg width="232pt" height="137pt"
 viewBox="0.00 0.00 231.50 137.00" xmlns="http://www.w3.org/2000/svg" xmlns:xlink="http://www.w3.org/1999/xlink">
<g id="graph0" class="graph" transform="scale(1 1) rotate(0) translate(4 133)">
<title>OnePoleHigh&lt; Type &gt;</title>
<!-- Node1 -->
<g id="Node000001" class="node">
<title>Node1</title>
<g id="a_Node000001"><a xlink:title=" ">
<polygon fill="#999999" stroke="#666666" points="173.5,-74 48.5,-74 48.5,-55 173.5,-55 173.5,-74"/>
<text text-anchor="middle" x="111" y="-62" font-family="Helvetica Neue" font-size="10.00">OnePoleHigh&lt; Type &gt;</text>
</a>
</g>
</g>
<!-- Node3 -->
<g id="Node000003" class="node">
<title>Node3</title>
<g id="a_Node000003"><a xlink:href="struct_d_c_block.html" target="_top" xlink:title=" ">
<polygon fill="white" stroke="#666666" points="102,-19 0,-19 0,0 102,0 102,-19"/>
<text text-anchor="middle" x="51" y="-7" font-family="Helvetica Neue" font-size="10.00">DCBlock&lt; float &gt;</text>
</a>
</g>
</g>
<!-- Node1&#45;&gt;Node3 -->
<g id="edge2_Node000001_Node000003" class="edge">
<title>Node1&#45;&gt;Node3</title>
<g id="a_edge2_Node000001_Node000003"><a xlink:title=" ">
<path fill="none" stroke="#63b8ff" d="M93.82,-48.32C83.12,-38.87 69.74,-27.06 60.82,-19.17"/>
<polygon fill="#63b8ff" stroke="#63b8ff" points="91.55,-50.99 101.36,-54.98 96.18,-45.74 91.55,-50.99"/>
</a>
</g>
</g>
<!-- Node4 -->
<g id="Node000004" class="node">
<title>Node4</title>
<g id="a_Node000004"><a xlink:href="struct_d_c_block.html" target="_top" xlink:title=" ">
<polygon fill="white" stroke="#666666" points="223.5,-19 120.5,-19 120.5,0 223.5,0 223.5,-19"/>
<text text-anchor="middle" x="172" y="-7" font-family="Helvetica Neue" font-size="10.00">DCBlock&lt; Type &gt;</text>
</a>
</g>
</g>
<!-- Node1&#45;&gt;Node4 -->
<g id="edge3_Node000001_Node000004" class="edge">
<title>Node1&#45;&gt;Node4</title>
<g id="a_edge3_Node000001_Node000004"><a xlink:title=" ">
<path fill="none" stroke="#63b8ff" d="M128.47,-48.32C139.34,-38.87 152.94,-27.06 162.02,-19.17"/>
<polygon fill="#63b8ff" stroke="#63b8ff" points="126.05,-45.78 120.8,-54.98 130.65,-51.07 126.05,-45.78"/>
</a>
</g>
</g>
<!-- Node2 -->
<g id="Node000002" class="node">
<title>Node2</title>
<g id="a_Node000002"><a xlink:href="struct_one_pole.html" target="_top" xlink:title=" ">
<polygon fill="white" stroke="#666666" points="162,-129 60,-129 60,-110 162,-110 162,-129"/>
<text text-anchor="middle" x="111" y="-117" font-family="Helvetica Neue" font-size="10.00">OnePole&lt; Type &gt;</text>
</a>
</g>
</g>
<!-- Node2&#45;&gt;Node1 -->
<g id="edge1_Node000001_Node000002" class="edge">
<title>Node2&#45;&gt;Node1</title>
<g id="a_edge1_Node000001_Node000002"><a xlink:title=" ">
<path fill="none" stroke="#63b8ff" d="M111,-99.66C111,-90.93 111,-80.99 111,-74.09"/>
<polygon fill="#63b8ff" stroke="#63b8ff" points="107.5,-99.75 111,-109.75 114.5,-99.75 107.5,-99.75"/>
</a>
</g>
</g>
</g>
</svg>
