<?xml version="1.0" encoding="UTF-8" standalone="no"?>
<!DOCTYPE svg PUBLIC "-//W3C//DTD SVG 1.1//EN"
 "http://www.w3.org/Graphics/SVG/1.1/DTD/svg11.dtd">
<!-- Generated by graphviz version 2.43.0 (0)
 -->
<!-- Title: Patcher Pages: 1 -->
<svg width="480pt" height="93pt"
 viewBox="0.00 0.00 480.00 93.00" xmlns="http://www.w3.org/2000/svg" xmlns:xlink="http://www.w3.org/1999/xlink">
<g id="graph0" class="graph" transform="scale(1 1) rotate(0) translate(4 89)">
<title>Patcher</title>
<!-- Node1 -->
<g id="Node000001" class="node">
<title>Node1</title>
<g id="a_Node000001"><a xlink:title="The main view of Phi, this class handles all the module UIs and holds the connection manager.">
<polygon fill="#999999" stroke="#666666" points="246,-19 193,-19 193,0 246,0 246,-19"/>
<text text-anchor="middle" x="219.5" y="-7" font-family="Helvetica Neue" font-size="10.00">Patcher</text>
</a>
</g>
</g>
<!-- Node2 -->
<g id="Node000002" class="node">
<title>Node2</title>
<g id="a_Node000002"><a xlink:title=" ">
<polygon fill="white" stroke="#666666" points="99,-79.5 0,-79.5 0,-60.5 99,-60.5 99,-79.5"/>
<text text-anchor="middle" x="49.5" y="-67.5" font-family="Helvetica Neue" font-size="10.00">juce::Component</text>
</a>
</g>
</g>
<!-- Node2&#45;&gt;Node1 -->
<g id="edge1_Node000001_Node000002" class="edge">
<title>Node2&#45;&gt;Node1</title>
<g id="a_edge1_Node000001_Node000002"><a xlink:title=" ">
<path fill="none" stroke="#63b8ff" d="M83.87,-57.17C116.75,-45.86 165.53,-29.07 194.75,-19.02"/>
<polygon fill="#63b8ff" stroke="#63b8ff" points="82.54,-53.93 74.22,-60.49 84.81,-60.55 82.54,-53.93"/>
</a>
</g>
</g>
<!-- Node3 -->
<g id="Node000003" class="node">
<title>Node3</title>
<g id="a_Node000003"><a xlink:href="struct_state_1_1_listener.html" target="_top" xlink:title=" ">
<polygon fill="white" stroke="#666666" points="204,-79.5 117,-79.5 117,-60.5 204,-60.5 204,-79.5"/>
<text text-anchor="middle" x="160.5" y="-67.5" font-family="Helvetica Neue" font-size="10.00">State::Listener</text>
</a>
</g>
</g>
<!-- Node3&#45;&gt;Node1 -->
<g id="edge2_Node000001_Node000003" class="edge">
<title>Node3&#45;&gt;Node1</title>
<g id="a_edge2_Node000001_Node000003"><a xlink:title=" ">
<path fill="none" stroke="#63b8ff" d="M176.55,-53.09C187.56,-42.17 201.77,-28.08 210.76,-19.17"/>
<polygon fill="#63b8ff" stroke="#63b8ff" points="173.84,-50.84 169.21,-60.37 178.77,-55.81 173.84,-50.84"/>
</a>
</g>
</g>
<!-- Node4 -->
<g id="Node000004" class="node">
<title>Node4</title>
<g id="a_Node000004"><a xlink:title=" ">
<polygon fill="white" stroke="#666666" points="334.5,-85 222.5,-85 222.5,-55 334.5,-55 334.5,-85"/>
<text text-anchor="start" x="230.5" y="-73" font-family="Helvetica Neue" font-size="10.00">juce::LassoSource&lt;</text>
<text text-anchor="middle" x="278.5" y="-62" font-family="Helvetica Neue" font-size="10.00"> ModuleID &gt;</text>
</a>
</g>
</g>
<!-- Node4&#45;&gt;Node1 -->
<g id="edge3_Node000001_Node000004" class="edge">
<title>Node4&#45;&gt;Node1</title>
<g id="a_edge3_Node000001_Node000004"><a xlink:title=" ">
<path fill="none" stroke="#63b8ff" d="M256.99,-47.67C247.09,-37.86 235.9,-26.76 228.34,-19.27"/>
<polygon fill="#63b8ff" stroke="#63b8ff" points="254.65,-50.28 264.22,-54.84 259.58,-45.31 254.65,-50.28"/>
</a>
</g>
</g>
<!-- Node5 -->
<g id="Node000005" class="node">
<title>Node5</title>
<g id="a_Node000005"><a xlink:title=" ">
<polygon fill="white" stroke="#666666" points="472,-79.5 353,-79.5 353,-60.5 472,-60.5 472,-79.5"/>
<text text-anchor="middle" x="412.5" y="-67.5" font-family="Helvetica Neue" font-size="10.00">juce::ChangeListener</text>
</a>
</g>
</g>
<!-- Node5&#45;&gt;Node1 -->
<g id="edge4_Node000001_Node000005" class="edge">
<title>Node5&#45;&gt;Node1</title>
<g id="a_edge4_Node000001_Node000005"><a xlink:title=" ">
<path fill="none" stroke="#63b8ff" d="M374.77,-57.56C336.86,-46.07 279.4,-28.66 246.05,-18.55"/>
<polygon fill="#63b8ff" stroke="#63b8ff" points="373.85,-60.94 384.44,-60.49 375.88,-54.24 373.85,-60.94"/>
</a>
</g>
</g>
</g>
</svg>
