<?xml version="1.0" encoding="UTF-8" standalone="no"?>
<!DOCTYPE svg PUBLIC "-//W3C//DTD SVG 1.1//EN"
 "http://www.w3.org/Graphics/SVG/1.1/DTD/svg11.dtd">
<!-- Generated by graphviz version 2.43.0 (0)
 -->
<!-- Title: PortUI Pages: 1 -->
<svg width="230pt" height="137pt"
 viewBox="0.00 0.00 229.50 137.00" xmlns="http://www.w3.org/2000/svg" xmlns:xlink="http://www.w3.org/1999/xlink">
<g id="graph0" class="graph" transform="scale(1 1) rotate(0) translate(4 133)">
<title>PortUI</title>
<!-- Node1 -->
<g id="Node000001" class="node">
<title>Node1</title>
<g id="a_Node000001"><a xlink:title="A base class for inlets and outlets.">
<polygon fill="#999999" stroke="#666666" points="133,-74 86,-74 86,-55 133,-55 133,-74"/>
<text text-anchor="middle" x="109.5" y="-62" font-family="Helvetica Neue" font-size="10.00">PortUI</text>
</a>
</g>
</g>
<!-- Node4 -->
<g id="Node000004" class="node">
<title>Node4</title>
<g id="a_Node000004"><a xlink:href="struct_inlet_u_i.html" target="_top" xlink:title="A Port in Inlet mode (other functionality might be added here)">
<polygon fill="white" stroke="#666666" points="99,-19 50,-19 50,0 99,0 99,-19"/>
<text text-anchor="middle" x="74.5" y="-7" font-family="Helvetica Neue" font-size="10.00">InletUI</text>
</a>
</g>
</g>
<!-- Node1&#45;&gt;Node4 -->
<g id="edge3_Node000001_Node000004" class="edge">
<title>Node1&#45;&gt;Node4</title>
<g id="a_edge3_Node000001_Node000004"><a xlink:title=" ">
<path fill="none" stroke="#63b8ff" d="M98.2,-46.39C92.18,-37.27 85.03,-26.45 80.17,-19.09"/>
<polygon fill="#63b8ff" stroke="#63b8ff" points="95.29,-48.33 103.72,-54.75 101.13,-44.47 95.29,-48.33"/>
</a>
</g>
</g>
<!-- Node5 -->
<g id="Node000005" class="node">
<title>Node5</title>
<g id="a_Node000005"><a xlink:href="struct_outlet_u_i.html" target="_top" xlink:title="A Port in Outlet mode (other functionality might be added here)">
<polygon fill="white" stroke="#666666" points="174,-19 117,-19 117,0 174,0 174,-19"/>
<text text-anchor="middle" x="145.5" y="-7" font-family="Helvetica Neue" font-size="10.00">OutletUI</text>
</a>
</g>
</g>
<!-- Node1&#45;&gt;Node5 -->
<g id="edge4_Node000001_Node000005" class="edge">
<title>Node1&#45;&gt;Node5</title>
<g id="a_edge4_Node000001_Node000005"><a xlink:title=" ">
<path fill="none" stroke="#63b8ff" d="M121.12,-46.39C127.32,-37.27 134.67,-26.45 139.67,-19.09"/>
<polygon fill="#63b8ff" stroke="#63b8ff" points="118.17,-44.51 115.44,-54.75 123.96,-48.44 118.17,-44.51"/>
</a>
</g>
</g>
<!-- Node2 -->
<g id="Node000002" class="node">
<title>Node2</title>
<g id="a_Node000002"><a xlink:title=" ">
<polygon fill="white" stroke="#666666" points="99,-129 0,-129 0,-110 99,-110 99,-129"/>
<text text-anchor="middle" x="49.5" y="-117" font-family="Helvetica Neue" font-size="10.00">juce::Component</text>
</a>
</g>
</g>
<!-- Node2&#45;&gt;Node1 -->
<g id="edge1_Node000001_Node000002" class="edge">
<title>Node2&#45;&gt;Node1</title>
<g id="a_edge1_Node000001_Node000002"><a xlink:title=" ">
<path fill="none" stroke="#63b8ff" d="M66.68,-103.32C77.38,-93.87 90.76,-82.06 99.68,-74.17"/>
<polygon fill="#63b8ff" stroke="#63b8ff" points="64.32,-100.74 59.14,-109.98 68.95,-105.99 64.32,-100.74"/>
</a>
</g>
</g>
<!-- Node3 -->
<g id="Node000003" class="node">
<title>Node3</title>
<g id="a_Node000003"><a xlink:href="class_hover_popup_client.html" target="_top" xlink:title=" ">
<polygon fill="white" stroke="#666666" points="221.5,-129 117.5,-129 117.5,-110 221.5,-110 221.5,-129"/>
<text text-anchor="middle" x="169.5" y="-117" font-family="Helvetica Neue" font-size="10.00">HoverPopupClient</text>
</a>
</g>
</g>
<!-- Node3&#45;&gt;Node1 -->
<g id="edge2_Node000001_Node000003" class="edge">
<title>Node3&#45;&gt;Node1</title>
<g id="a_edge2_Node000001_Node000003"><a xlink:title=" ">
<path fill="none" stroke="#63b8ff" d="M152.32,-103.32C141.62,-93.87 128.24,-82.06 119.32,-74.17"/>
<polygon fill="#63b8ff" stroke="#63b8ff" points="150.05,-105.99 159.86,-109.98 154.68,-100.74 150.05,-105.99"/>
</a>
</g>
</g>
</g>
</svg>
