<?xml version="1.0" encoding="UTF-8" standalone="no"?>
<!DOCTYPE svg PUBLIC "-//W3C//DTD SVG 1.1//EN"
 "http://www.w3.org/Graphics/SVG/1.1/DTD/svg11.dtd">
<!-- Generated by graphviz version 2.43.0 (0)
 -->
<!-- Title: MainComponent Pages: 1 -->
<svg width="212pt" height="82pt"
 viewBox="0.00 0.00 212.00 82.00" xmlns="http://www.w3.org/2000/svg" xmlns:xlink="http://www.w3.org/1999/xlink">
<g id="graph0" class="graph" transform="scale(1 1) rotate(0) translate(4 78)">
<title>MainComponent</title>
<!-- Node1 -->
<g id="Node000001" class="node">
<title>Node1</title>
<g id="a_Node000001"><a xlink:title="The top&#45;most component that includes all the content.">
<polygon fill="#999999" stroke="#666666" points="153,-19 56,-19 56,0 153,0 153,-19"/>
<text text-anchor="middle" x="104.5" y="-7" font-family="Helvetica Neue" font-size="10.00">MainComponent</text>
</a>
</g>
</g>
<!-- Node2 -->
<g id="Node000002" class="node">
<title>Node2</title>
<g id="a_Node000002"><a xlink:title=" ">
<polygon fill="white" stroke="#666666" points="99,-74 0,-74 0,-55 99,-55 99,-74"/>
<text text-anchor="middle" x="49.5" y="-62" font-family="Helvetica Neue" font-size="10.00">juce::Component</text>
</a>
</g>
</g>
<!-- Node2&#45;&gt;Node1 -->
<g id="edge1_Node000001_Node000002" class="edge">
<title>Node2&#45;&gt;Node1</title>
<g id="a_edge1_Node000001_Node000002"><a xlink:title=" ">
<path fill="none" stroke="#63b8ff" d="M65.79,-47.8C75.54,-38.41 87.55,-26.83 95.59,-19.09"/>
<polygon fill="#63b8ff" stroke="#63b8ff" points="63.35,-45.29 58.58,-54.75 68.21,-50.33 63.35,-45.29"/>
</a>
</g>
</g>
<!-- Node3 -->
<g id="Node000003" class="node">
<title>Node3</title>
<g id="a_Node000003"><a xlink:href="struct_state_1_1_listener.html" target="_top" xlink:title=" ">
<polygon fill="white" stroke="#666666" points="204,-74 117,-74 117,-55 204,-55 204,-74"/>
<text text-anchor="middle" x="160.5" y="-62" font-family="Helvetica Neue" font-size="10.00">State::Listener</text>
</a>
</g>
</g>
<!-- Node3&#45;&gt;Node1 -->
<g id="edge2_Node000001_Node000003" class="edge">
<title>Node3&#45;&gt;Node1</title>
<g id="a_edge2_Node000001_Node000003"><a xlink:title=" ">
<path fill="none" stroke="#63b8ff" d="M144.17,-48.04C134.24,-38.64 121.91,-26.98 113.66,-19.17"/>
<polygon fill="#63b8ff" stroke="#63b8ff" points="141.83,-50.65 151.5,-54.98 146.65,-45.57 141.83,-50.65"/>
</a>
</g>
</g>
</g>
</svg>
