<?xml version="1.0" encoding="UTF-8" standalone="no"?>
<!DOCTYPE svg PUBLIC "-//W3C//DTD SVG 1.1//EN"
 "http://www.w3.org/Graphics/SVG/1.1/DTD/svg11.dtd">
<!-- Generated by graphviz version 2.43.0 (0)
 -->
<!-- Title: State::Listener Pages: 1 -->
<svg width="455pt" height="82pt"
 viewBox="0.00 0.00 455.00 82.00" xmlns="http://www.w3.org/2000/svg" xmlns:xlink="http://www.w3.org/1999/xlink">
<g id="graph0" class="graph" transform="scale(1 1) rotate(0) translate(4 78)">
<title>State::Listener</title>
<!-- Node1 -->
<g id="Node000001" class="node">
<title>Node1</title>
<g id="a_Node000001"><a xlink:title=" ">
<polygon fill="#999999" stroke="#666666" points="282,-74 195,-74 195,-55 282,-55 282,-74"/>
<text text-anchor="middle" x="238.5" y="-62" font-family="Helvetica Neue" font-size="10.00">State::Listener</text>
</a>
</g>
</g>
<!-- Node2 -->
<g id="Node000002" class="node">
<title>Node2</title>
<g id="a_Node000002"><a xlink:href="struct_audio_engine.html" target="_top" xlink:title="The class where each module&#39;s DSP routine gets implemented as nodes and patched together.">
<polygon fill="white" stroke="#666666" points="77,-19 0,-19 0,0 77,0 77,-19"/>
<text text-anchor="middle" x="38.5" y="-7" font-family="Helvetica Neue" font-size="10.00">AudioEngine</text>
</a>
</g>
</g>
<!-- Node1&#45;&gt;Node2 -->
<g id="edge1_Node000001_Node000002" class="edge">
<title>Node1&#45;&gt;Node2</title>
<g id="a_edge1_Node000001_Node000002"><a xlink:title=" ">
<path fill="none" stroke="#63b8ff" d="M196.28,-52.31C158.85,-42.39 105,-28.12 70.89,-19.08"/>
<polygon fill="#63b8ff" stroke="#63b8ff" points="195.8,-55.81 206.37,-54.98 197.6,-49.04 195.8,-55.81"/>
</a>
</g>
</g>
<!-- Node3 -->
<g id="Node000003" class="node">
<title>Node3</title>
<g id="a_Node000003"><a xlink:href="class_connections.html" target="_top" xlink:title="The connections UI that is overlaid on top of the patcher.">
<polygon fill="white" stroke="#666666" points="172,-19 95,-19 95,0 172,0 172,-19"/>
<text text-anchor="middle" x="133.5" y="-7" font-family="Helvetica Neue" font-size="10.00">Connections</text>
</a>
</g>
</g>
<!-- Node1&#45;&gt;Node3 -->
<g id="edge2_Node000001_Node000003" class="edge">
<title>Node1&#45;&gt;Node3</title>
<g id="a_edge2_Node000001_Node000003"><a xlink:title=" ">
<path fill="none" stroke="#63b8ff" d="M212.48,-50.37C193.2,-40.63 167.45,-27.64 150.68,-19.17"/>
<polygon fill="#63b8ff" stroke="#63b8ff" points="211.13,-53.6 221.63,-54.98 214.28,-47.35 211.13,-53.6"/>
</a>
</g>
</g>
<!-- Node4 -->
<g id="Node000004" class="node">
<title>Node4</title>
<g id="a_Node000004"><a xlink:href="struct_main_component.html" target="_top" xlink:title="The top&#45;most component that includes all the content.">
<polygon fill="white" stroke="#666666" points="287,-19 190,-19 190,0 287,0 287,-19"/>
<text text-anchor="middle" x="238.5" y="-7" font-family="Helvetica Neue" font-size="10.00">MainComponent</text>
</a>
</g>
</g>
<!-- Node1&#45;&gt;Node4 -->
<g id="edge3_Node000001_Node000004" class="edge">
<title>Node1&#45;&gt;Node4</title>
<g id="a_edge3_Node000001_Node000004"><a xlink:title=" ">
<path fill="none" stroke="#63b8ff" d="M238.5,-44.66C238.5,-35.93 238.5,-25.99 238.5,-19.09"/>
<polygon fill="#63b8ff" stroke="#63b8ff" points="235,-44.75 238.5,-54.75 242,-44.75 235,-44.75"/>
</a>
</g>
</g>
<!-- Node5 -->
<g id="Node000005" class="node">
<title>Node5</title>
<g id="a_Node000005"><a xlink:href="struct_module_box.html" target="_top" xlink:title=" ">
<polygon fill="white" stroke="#666666" points="376,-19 305,-19 305,0 376,0 376,-19"/>
<text text-anchor="middle" x="340.5" y="-7" font-family="Helvetica Neue" font-size="10.00">ModuleBox</text>
</a>
</g>
</g>
<!-- Node1&#45;&gt;Node5 -->
<g id="edge4_Node000001_Node000005" class="edge">
<title>Node1&#45;&gt;Node5</title>
<g id="a_edge4_Node000001_Node000005"><a xlink:title=" ">
<path fill="none" stroke="#63b8ff" d="M263.77,-50.37C282.51,-40.63 307.52,-27.64 323.81,-19.17"/>
<polygon fill="#63b8ff" stroke="#63b8ff" points="262.15,-47.27 254.89,-54.98 265.38,-53.48 262.15,-47.27"/>
</a>
</g>
</g>
<!-- Node6 -->
<g id="Node000006" class="node">
<title>Node6</title>
<g id="a_Node000006"><a xlink:href="struct_patcher.html" target="_top" xlink:title="The main view of Phi, this class handles all the module UIs and holds the connection manager.">
<polygon fill="white" stroke="#666666" points="447,-19 394,-19 394,0 447,0 447,-19"/>
<text text-anchor="middle" x="420.5" y="-7" font-family="Helvetica Neue" font-size="10.00">Patcher</text>
</a>
</g>
</g>
<!-- Node1&#45;&gt;Node6 -->
<g id="edge5_Node000001_Node000006" class="edge">
<title>Node1&#45;&gt;Node6</title>
<g id="a_edge5_Node000001_Node000006"><a xlink:title=" ">
<path fill="none" stroke="#63b8ff" d="M277.66,-52.1C312.79,-41.86 363.4,-27.13 393.99,-18.22"/>
<polygon fill="#63b8ff" stroke="#63b8ff" points="276.36,-48.83 267.74,-54.98 278.32,-55.55 276.36,-48.83"/>
</a>
</g>
</g>
</g>
</svg>
