<?xml version="1.0" encoding="UTF-8" standalone="no"?>
<!DOCTYPE svg PUBLIC "-//W3C//DTD SVG 1.1//EN"
 "http://www.w3.org/Graphics/SVG/1.1/DTD/svg11.dtd">
<!-- Generated by graphviz version 2.43.0 (0)
 -->
<!-- Title: PhiDial Pages: 1 -->
<svg width="214pt" height="82pt"
 viewBox="0.00 0.00 213.50 82.00" xmlns="http://www.w3.org/2000/svg" xmlns:xlink="http://www.w3.org/1999/xlink">
<g id="graph0" class="graph" transform="scale(1 1) rotate(0) translate(4 78)">
<title>PhiDial</title>
<!-- Node1 -->
<g id="Node000001" class="node">
<title>Node1</title>
<g id="a_Node000001"><a xlink:title=" ">
<polygon fill="#999999" stroke="#666666" points="117,-19 66,-19 66,0 117,0 117,-19"/>
<text text-anchor="middle" x="91.5" y="-7" font-family="Helvetica Neue" font-size="10.00">PhiDial</text>
</a>
</g>
</g>
<!-- Node2 -->
<g id="Node000002" class="node">
<title>Node2</title>
<g id="a_Node000002"><a xlink:title=" ">
<polygon fill="white" stroke="#666666" points="71,-74 0,-74 0,-55 71,-55 71,-74"/>
<text text-anchor="middle" x="35.5" y="-62" font-family="Helvetica Neue" font-size="10.00">juce::Slider</text>
</a>
</g>
</g>
<!-- Node2&#45;&gt;Node1 -->
<g id="edge1_Node000001_Node000002" class="edge">
<title>Node2&#45;&gt;Node1</title>
<g id="a_edge1_Node000001_Node000002"><a xlink:title=" ">
<path fill="none" stroke="#63b8ff" d="M51.83,-48.04C61.76,-38.64 74.09,-26.98 82.34,-19.17"/>
<polygon fill="#63b8ff" stroke="#63b8ff" points="49.35,-45.57 44.5,-54.98 54.17,-50.65 49.35,-45.57"/>
</a>
</g>
</g>
<!-- Node3 -->
<g id="Node000003" class="node">
<title>Node3</title>
<g id="a_Node000003"><a xlink:title=" ">
<polygon fill="white" stroke="#666666" points="205.5,-74 89.5,-74 89.5,-55 205.5,-55 205.5,-74"/>
<text text-anchor="middle" x="147.5" y="-62" font-family="Helvetica Neue" font-size="10.00">juce::Slider::Listener</text>
</a>
</g>
</g>
<!-- Node3&#45;&gt;Node1 -->
<g id="edge2_Node000001_Node000003" class="edge">
<title>Node3&#45;&gt;Node1</title>
<g id="a_edge2_Node000001_Node000003"><a xlink:title=" ">
<path fill="none" stroke="#63b8ff" d="M131.17,-48.04C121.24,-38.64 108.91,-26.98 100.66,-19.17"/>
<polygon fill="#63b8ff" stroke="#63b8ff" points="128.83,-50.65 138.5,-54.98 133.65,-45.57 128.83,-50.65"/>
</a>
</g>
</g>
</g>
</svg>
