<?xml version="1.0" encoding="UTF-8" standalone="no"?>
<!DOCTYPE svg PUBLIC "-//W3C//DTD SVG 1.1//EN"
 "http://www.w3.org/Graphics/SVG/1.1/DTD/svg11.dtd">
<!-- Generated by graphviz version 2.43.0 (0)
 -->
<!-- Title: InletUI Pages: 1 -->
<svg width="230pt" height="137pt"
 viewBox="0.00 0.00 229.50 137.00" xmlns="http://www.w3.org/2000/svg" xmlns:xlink="http://www.w3.org/1999/xlink">
<g id="graph0" class="graph" transform="scale(1 1) rotate(0) translate(4 133)">
<title>InletUI</title>
<!-- Node1 -->
<g id="Node000001" class="node">
<title>Node1</title>
<g id="a_Node000001"><a xlink:title="A Port in Inlet mode (other functionality might be added here)">
<polygon fill="#999999" stroke="#666666" points="134,-19 85,-19 85,0 134,0 134,-19"/>
<text text-anchor="middle" x="109.5" y="-7" font-family="Helvetica Neue" font-size="10.00">InletUI</text>
</a>
</g>
</g>
<!-- Node2 -->
<g id="Node000002" class="node">
<title>Node2</title>
<g id="a_Node000002"><a xlink:href="struct_port_u_i.html" target="_top" xlink:title="A base class for inlets and outlets.">
<polygon fill="white" stroke="#666666" points="133,-74 86,-74 86,-55 133,-55 133,-74"/>
<text text-anchor="middle" x="109.5" y="-62" font-family="Helvetica Neue" font-size="10.00">PortUI</text>
</a>
</g>
</g>
<!-- Node2&#45;&gt;Node1 -->
<g id="edge1_Node000001_Node000002" class="edge">
<title>Node2&#45;&gt;Node1</title>
<g id="a_edge1_Node000001_Node000002"><a xlink:title=" ">
<path fill="none" stroke="#63b8ff" d="M109.5,-44.66C109.5,-35.93 109.5,-25.99 109.5,-19.09"/>
<polygon fill="#63b8ff" stroke="#63b8ff" points="106,-44.75 109.5,-54.75 113,-44.75 106,-44.75"/>
</a>
</g>
</g>
<!-- Node3 -->
<g id="Node000003" class="node">
<title>Node3</title>
<g id="a_Node000003"><a xlink:title=" ">
<polygon fill="white" stroke="#666666" points="99,-129 0,-129 0,-110 99,-110 99,-129"/>
<text text-anchor="middle" x="49.5" y="-117" font-family="Helvetica Neue" font-size="10.00">juce::Component</text>
</a>
</g>
</g>
<!-- Node3&#45;&gt;Node2 -->
<g id="edge2_Node000002_Node000003" class="edge">
<title>Node3&#45;&gt;Node2</title>
<g id="a_edge2_Node000002_Node000003"><a xlink:title=" ">
<path fill="none" stroke="#63b8ff" d="M66.68,-103.32C77.38,-93.87 90.76,-82.06 99.68,-74.17"/>
<polygon fill="#63b8ff" stroke="#63b8ff" points="64.32,-100.74 59.14,-109.98 68.95,-105.99 64.32,-100.74"/>
</a>
</g>
</g>
<!-- Node4 -->
<g id="Node000004" class="node">
<title>Node4</title>
<g id="a_Node000004"><a xlink:href="class_hover_popup_client.html" target="_top" xlink:title=" ">
<polygon fill="white" stroke="#666666" points="221.5,-129 117.5,-129 117.5,-110 221.5,-110 221.5,-129"/>
<text text-anchor="middle" x="169.5" y="-117" font-family="Helvetica Neue" font-size="10.00">HoverPopupClient</text>
</a>
</g>
</g>
<!-- Node4&#45;&gt;Node2 -->
<g id="edge3_Node000002_Node000004" class="edge">
<title>Node4&#45;&gt;Node2</title>
<g id="a_edge3_Node000002_Node000004"><a xlink:title=" ">
<path fill="none" stroke="#63b8ff" d="M152.32,-103.32C141.62,-93.87 128.24,-82.06 119.32,-74.17"/>
<polygon fill="#63b8ff" stroke="#63b8ff" points="150.05,-105.99 159.86,-109.98 154.68,-100.74 150.05,-105.99"/>
</a>
</g>
</g>
</g>
</svg>
