<?xml version="1.0" encoding="UTF-8" standalone="no"?>
<!DOCTYPE svg PUBLIC "-//W3C//DTD SVG 1.1//EN"
 "http://www.w3.org/Graphics/SVG/1.1/DTD/svg11.dtd">
<!-- Generated by graphviz version 2.43.0 (0)
 -->
<!-- Title: OnePole&lt; Type &gt; Pages: 1 -->
<svg width="325pt" height="137pt"
 viewBox="0.00 0.00 324.50 137.00" xmlns="http://www.w3.org/2000/svg" xmlns:xlink="http://www.w3.org/1999/xlink">
<g id="graph0" class="graph" transform="scale(1 1) rotate(0) translate(4 133)">
<title>OnePole&lt; Type &gt;</title>
<!-- Node1 -->
<g id="Node000001" class="node">
<title>Node1</title>
<g id="a_Node000001"><a xlink:title=" ">
<polygon fill="#999999" stroke="#666666" points="184,-129 82,-129 82,-110 184,-110 184,-129"/>
<text text-anchor="middle" x="133" y="-117" font-family="Helvetica Neue" font-size="10.00">OnePole&lt; Type &gt;</text>
</a>
</g>
</g>
<!-- Node2 -->
<g id="Node000002" class="node">
<title>Node2</title>
<g id="a_Node000002"><a xlink:href="struct_one_pole_high.html" target="_top" xlink:title=" ">
<polygon fill="white" stroke="#666666" points="124,-74 0,-74 0,-55 124,-55 124,-74"/>
<text text-anchor="middle" x="62" y="-62" font-family="Helvetica Neue" font-size="10.00">OnePoleHigh&lt; float &gt;</text>
</a>
</g>
</g>
<!-- Node1&#45;&gt;Node2 -->
<g id="edge1_Node000001_Node000002" class="edge">
<title>Node1&#45;&gt;Node2</title>
<g id="a_edge1_Node000001_Node000002"><a xlink:title=" ">
<path fill="none" stroke="#63b8ff" d="M113.41,-103.88C100.63,-94.34 84.39,-82.21 73.61,-74.17"/>
<polygon fill="#63b8ff" stroke="#63b8ff" points="111.49,-106.81 121.59,-109.98 115.67,-101.2 111.49,-106.81"/>
</a>
</g>
</g>
<!-- Node3 -->
<g id="Node000003" class="node">
<title>Node3</title>
<g id="a_Node000003"><a xlink:href="struct_one_pole_high.html" target="_top" xlink:title=" ">
<polygon fill="white" stroke="#666666" points="267.5,-74 142.5,-74 142.5,-55 267.5,-55 267.5,-74"/>
<text text-anchor="middle" x="205" y="-62" font-family="Helvetica Neue" font-size="10.00">OnePoleHigh&lt; Type &gt;</text>
</a>
</g>
</g>
<!-- Node1&#45;&gt;Node3 -->
<g id="edge2_Node000001_Node000003" class="edge">
<title>Node1&#45;&gt;Node3</title>
<g id="a_edge2_Node000001_Node000003"><a xlink:title=" ">
<path fill="none" stroke="#63b8ff" d="M152.87,-103.88C165.82,-94.34 182.3,-82.21 193.22,-74.17"/>
<polygon fill="#63b8ff" stroke="#63b8ff" points="150.55,-101.24 144.57,-109.98 154.7,-106.88 150.55,-101.24"/>
</a>
</g>
</g>
<!-- Node4 -->
<g id="Node000004" class="node">
<title>Node4</title>
<g id="a_Node000004"><a xlink:href="struct_d_c_block.html" target="_top" xlink:title=" ">
<polygon fill="white" stroke="#666666" points="195,-19 93,-19 93,0 195,0 195,-19"/>
<text text-anchor="middle" x="144" y="-7" font-family="Helvetica Neue" font-size="10.00">DCBlock&lt; float &gt;</text>
</a>
</g>
</g>
<!-- Node3&#45;&gt;Node4 -->
<g id="edge3_Node000003_Node000004" class="edge">
<title>Node3&#45;&gt;Node4</title>
<g id="a_edge3_Node000003_Node000004"><a xlink:title=" ">
<path fill="none" stroke="#63b8ff" d="M187.53,-48.32C176.66,-38.87 163.06,-27.06 153.98,-19.17"/>
<polygon fill="#63b8ff" stroke="#63b8ff" points="185.35,-51.07 195.2,-54.98 189.95,-45.78 185.35,-51.07"/>
</a>
</g>
</g>
<!-- Node5 -->
<g id="Node000005" class="node">
<title>Node5</title>
<g id="a_Node000005"><a xlink:href="struct_d_c_block.html" target="_top" xlink:title=" ">
<polygon fill="white" stroke="#666666" points="316.5,-19 213.5,-19 213.5,0 316.5,0 316.5,-19"/>
<text text-anchor="middle" x="265" y="-7" font-family="Helvetica Neue" font-size="10.00">DCBlock&lt; Type &gt;</text>
</a>
</g>
</g>
<!-- Node3&#45;&gt;Node5 -->
<g id="edge4_Node000003_Node000005" class="edge">
<title>Node3&#45;&gt;Node5</title>
<g id="a_edge4_Node000003_Node000005"><a xlink:title=" ">
<path fill="none" stroke="#63b8ff" d="M222.18,-48.32C232.88,-38.87 246.26,-27.06 255.18,-19.17"/>
<polygon fill="#63b8ff" stroke="#63b8ff" points="219.82,-45.74 214.64,-54.98 224.45,-50.99 219.82,-45.74"/>
</a>
</g>
</g>
</g>
</svg>
