<?xml version="1.0" encoding="UTF-8" standalone="no"?>
<!DOCTYPE svg PUBLIC "-//W3C//DTD SVG 1.1//EN"
 "http://www.w3.org/Graphics/SVG/1.1/DTD/svg11.dtd">
<!-- Generated by graphviz version 2.43.0 (0)
 -->
<!-- Title: AudioEngine Pages: 1 -->
<svg width="260pt" height="82pt"
 viewBox="0.00 0.00 260.00 82.00" xmlns="http://www.w3.org/2000/svg" xmlns:xlink="http://www.w3.org/1999/xlink">
<g id="graph0" class="graph" transform="scale(1 1) rotate(0) translate(4 78)">
<title>AudioEngine</title>
<!-- Node1 -->
<g id="Node000001" class="node">
<title>Node1</title>
<g id="a_Node000001"><a xlink:title="The class where each module&#39;s DSP routine gets implemented as nodes and patched together.">
<polygon fill="#999999" stroke="#666666" points="179,-19 102,-19 102,0 179,0 179,-19"/>
<text text-anchor="middle" x="140.5" y="-7" font-family="Helvetica Neue" font-size="10.00">AudioEngine</text>
</a>
</g>
</g>
<!-- Node2 -->
<g id="Node000002" class="node">
<title>Node2</title>
<g id="a_Node000002"><a xlink:title=" ">
<polygon fill="white" stroke="#666666" points="147,-74 0,-74 0,-55 147,-55 147,-74"/>
<text text-anchor="middle" x="73.5" y="-62" font-family="Helvetica Neue" font-size="10.00">juce::AudioProcessorGraph</text>
</a>
</g>
</g>
<!-- Node2&#45;&gt;Node1 -->
<g id="edge1_Node000001_Node000002" class="edge">
<title>Node2&#45;&gt;Node1</title>
<g id="a_edge1_Node000001_Node000002"><a xlink:title=" ">
<path fill="none" stroke="#63b8ff" d="M92.33,-48.6C104.34,-39.11 119.47,-27.13 129.54,-19.17"/>
<polygon fill="#63b8ff" stroke="#63b8ff" points="89.94,-46.04 84.26,-54.98 94.28,-51.53 89.94,-46.04"/>
</a>
</g>
</g>
<!-- Node3 -->
<g id="Node000003" class="node">
<title>Node3</title>
<g id="a_Node000003"><a xlink:href="struct_state_1_1_listener.html" target="_top" xlink:title=" ">
<polygon fill="white" stroke="#666666" points="252,-74 165,-74 165,-55 252,-55 252,-74"/>
<text text-anchor="middle" x="208.5" y="-62" font-family="Helvetica Neue" font-size="10.00">State::Listener</text>
</a>
</g>
</g>
<!-- Node3&#45;&gt;Node1 -->
<g id="edge2_Node000001_Node000003" class="edge">
<title>Node3&#45;&gt;Node1</title>
<g id="a_edge2_Node000001_Node000003"><a xlink:title=" ">
<path fill="none" stroke="#63b8ff" d="M189.38,-48.6C177.2,-39.11 161.84,-27.13 151.62,-19.17"/>
<polygon fill="#63b8ff" stroke="#63b8ff" points="187.54,-51.6 197.57,-54.98 191.84,-46.08 187.54,-51.6"/>
</a>
</g>
</g>
</g>
</svg>
