<?xml version="1.0" encoding="UTF-8" standalone="no"?>
<!DOCTYPE svg PUBLIC "-//W3C//DTD SVG 1.1//EN"
 "http://www.w3.org/Graphics/SVG/1.1/DTD/svg11.dtd">
<!-- Generated by graphviz version 2.43.0 (0)
 -->
<!-- Title: OutputProcessor Pages: 1 -->
<svg width="290pt" height="148pt"
 viewBox="0.00 0.00 289.50 148.00" xmlns="http://www.w3.org/2000/svg" xmlns:xlink="http://www.w3.org/1999/xlink">
<g id="graph0" class="graph" transform="scale(1 1) rotate(0) translate(4 144)">
<title>OutputProcessor</title>
<!-- Node1 -->
<g id="Node000001" class="node">
<title>Node1</title>
<g id="a_Node000001"><a xlink:title=" ">
<polygon fill="#999999" stroke="#666666" points="182.5,-19 85.5,-19 85.5,0 182.5,0 182.5,-19"/>
<text text-anchor="middle" x="134" y="-7" font-family="Helvetica Neue" font-size="10.00">OutputProcessor</text>
</a>
</g>
</g>
<!-- Node2 -->
<g id="Node000002" class="node">
<title>Node2</title>
<g id="a_Node000002"><a xlink:href="class_module_processor.html" target="_top" xlink:title=" ">
<polygon fill="white" stroke="#666666" points="184,-74 84,-74 84,-55 184,-55 184,-74"/>
<text text-anchor="middle" x="134" y="-62" font-family="Helvetica Neue" font-size="10.00">ModuleProcessor</text>
</a>
</g>
</g>
<!-- Node2&#45;&gt;Node1 -->
<g id="edge1_Node000001_Node000002" class="edge">
<title>Node2&#45;&gt;Node1</title>
<g id="a_edge1_Node000001_Node000002"><a xlink:title=" ">
<path fill="none" stroke="#63b8ff" d="M134,-44.66C134,-35.93 134,-25.99 134,-19.09"/>
<polygon fill="#63b8ff" stroke="#63b8ff" points="130.5,-44.75 134,-54.75 137.5,-44.75 130.5,-44.75"/>
</a>
</g>
</g>
<!-- Node3 -->
<g id="Node000003" class="node">
<title>Node3</title>
<g id="a_Node000003"><a xlink:title=" ">
<polygon fill="white" stroke="#666666" points="118,-134.5 0,-134.5 0,-115.5 118,-115.5 118,-134.5"/>
<text text-anchor="middle" x="59" y="-122.5" font-family="Helvetica Neue" font-size="10.00">juce::AudioProcessor</text>
</a>
</g>
</g>
<!-- Node3&#45;&gt;Node2 -->
<g id="edge2_Node000002_Node000003" class="edge">
<title>Node3&#45;&gt;Node2</title>
<g id="a_edge2_Node000002_Node000003"><a xlink:title=" ">
<path fill="none" stroke="#63b8ff" d="M78.18,-109.04C92.35,-97.99 111.13,-83.34 122.89,-74.17"/>
<polygon fill="#63b8ff" stroke="#63b8ff" points="75.8,-106.46 70.07,-115.37 80.1,-111.98 75.8,-106.46"/>
</a>
</g>
</g>
<!-- Node4 -->
<g id="Node000004" class="node">
<title>Node4</title>
<g id="a_Node000004"><a xlink:title=" ">
<polygon fill="white" stroke="#666666" points="281.5,-140 136.5,-140 136.5,-110 281.5,-110 281.5,-140"/>
<text text-anchor="start" x="144.5" y="-128" font-family="Helvetica Neue" font-size="10.00">juce::AudioProcessorValue</text>
<text text-anchor="middle" x="209" y="-117" font-family="Helvetica Neue" font-size="10.00">TreeState::Listener</text>
</a>
</g>
</g>
<!-- Node4&#45;&gt;Node2 -->
<g id="edge3_Node000002_Node000004" class="edge">
<title>Node4&#45;&gt;Node2</title>
<g id="a_edge3_Node000002_Node000004"><a xlink:title=" ">
<path fill="none" stroke="#63b8ff" d="M182.76,-103.53C169.91,-93.51 155.13,-81.98 145.24,-74.27"/>
<polygon fill="#63b8ff" stroke="#63b8ff" points="180.81,-106.45 190.84,-109.84 185.11,-100.93 180.81,-106.45"/>
</a>
</g>
</g>
</g>
</svg>
