<?xml version="1.0" encoding="UTF-8" standalone="no"?>
<!DOCTYPE svg PUBLIC "-//W3C//DTD SVG 1.1//EN"
 "http://www.w3.org/Graphics/SVG/1.1/DTD/svg11.dtd">
<!-- Generated by graphviz version 2.43.0 (0)
 -->
<!-- Title: PhiWaveform Pages: 1 -->
<svg width="308pt" height="137pt"
 viewBox="0.00 0.00 308.00 137.00" xmlns="http://www.w3.org/2000/svg" xmlns:xlink="http://www.w3.org/1999/xlink">
<g id="graph0" class="graph" transform="scale(1 1) rotate(0) translate(4 133)">
<title>PhiWaveform</title>
<!-- Node1 -->
<g id="Node000001" class="node">
<title>Node1</title>
<g id="a_Node000001"><a xlink:title=" ">
<polygon fill="#999999" stroke="#666666" points="200.5,-74 118.5,-74 118.5,-55 200.5,-55 200.5,-74"/>
<text text-anchor="middle" x="159.5" y="-62" font-family="Helvetica Neue" font-size="10.00">PhiWaveform</text>
</a>
</g>
</g>
<!-- Node3 -->
<g id="Node000003" class="node">
<title>Node3</title>
<g id="a_Node000003"><a xlink:href="struct_impulse_u_i_1_1_impulse_waveform.html" target="_top" xlink:title=" ">
<polygon fill="white" stroke="#666666" points="161,-19 0,-19 0,0 161,0 161,-19"/>
<text text-anchor="middle" x="80.5" y="-7" font-family="Helvetica Neue" font-size="10.00">ImpulseUI::ImpulseWaveform</text>
</a>
</g>
</g>
<!-- Node1&#45;&gt;Node3 -->
<g id="edge2_Node000001_Node000003" class="edge">
<title>Node1&#45;&gt;Node3</title>
<g id="a_edge2_Node000001_Node000003"><a xlink:title=" ">
<path fill="none" stroke="#63b8ff" d="M138.11,-49.15C123.83,-39.57 105.53,-27.29 93.42,-19.17"/>
<polygon fill="#63b8ff" stroke="#63b8ff" points="136.55,-52.32 146.81,-54.98 140.45,-46.51 136.55,-52.32"/>
</a>
</g>
</g>
<!-- Node4 -->
<g id="Node000004" class="node">
<title>Node4</title>
<g id="a_Node000004"><a xlink:href="struct_l_f_o_u_i_1_1_l_f_o_waveform.html" target="_top" xlink:title=" ">
<polygon fill="white" stroke="#666666" points="300,-19 179,-19 179,0 300,0 300,-19"/>
<text text-anchor="middle" x="239.5" y="-7" font-family="Helvetica Neue" font-size="10.00">LFOUI::LFOWaveform</text>
</a>
</g>
</g>
<!-- Node1&#45;&gt;Node4 -->
<g id="edge3_Node000001_Node000004" class="edge">
<title>Node1&#45;&gt;Node4</title>
<g id="a_edge3_Node000001_Node000004"><a xlink:title=" ">
<path fill="none" stroke="#63b8ff" d="M180.75,-49.42C195.26,-39.81 214.04,-27.37 226.41,-19.17"/>
<polygon fill="#63b8ff" stroke="#63b8ff" points="178.76,-46.54 172.35,-54.98 182.62,-52.38 178.76,-46.54"/>
</a>
</g>
</g>
<!-- Node2 -->
<g id="Node000002" class="node">
<title>Node2</title>
<g id="a_Node000002"><a xlink:title=" ">
<polygon fill="white" stroke="#666666" points="209,-129 110,-129 110,-110 209,-110 209,-129"/>
<text text-anchor="middle" x="159.5" y="-117" font-family="Helvetica Neue" font-size="10.00">juce::Component</text>
</a>
</g>
</g>
<!-- Node2&#45;&gt;Node1 -->
<g id="edge1_Node000001_Node000002" class="edge">
<title>Node2&#45;&gt;Node1</title>
<g id="a_edge1_Node000001_Node000002"><a xlink:title=" ">
<path fill="none" stroke="#63b8ff" d="M159.5,-99.66C159.5,-90.93 159.5,-80.99 159.5,-74.09"/>
<polygon fill="#63b8ff" stroke="#63b8ff" points="156,-99.75 159.5,-109.75 163,-99.75 156,-99.75"/>
</a>
</g>
</g>
</g>
</svg>
