<?xml version="1.0" encoding="UTF-8" standalone="no"?>
<!DOCTYPE svg PUBLIC "-//W3C//DTD SVG 1.1//EN"
 "http://www.w3.org/Graphics/SVG/1.1/DTD/svg11.dtd">
<!-- Generated by graphviz version 2.42.3 (20191010.1750)
 -->
<!-- Title: Source/lib/Connections.h Pages: 1 -->
<svg width="270pt" height="137pt"
 viewBox="0.00 0.00 270.30 137.00" xmlns="http://www.w3.org/2000/svg" xmlns:xlink="http://www.w3.org/1999/xlink">
<g id="graph0" class="graph" transform="scale(1 1) rotate(0) translate(4 133)">
<title>Source/lib/Connections.h</title>
<polygon fill="white" stroke="transparent" points="-4,4 -4,-133 266.3,-133 266.3,4 -4,4"/>
<!-- Node1 -->
<g id="node1" class="node">
<title>Node1</title>
<g id="a_node1"><a xlink:title=" ">
<polygon fill="#bfbfbf" stroke="black" points="4.74,-110.5 4.74,-128.5 131.91,-128.5 131.91,-110.5 4.74,-110.5"/>
<text text-anchor="middle" x="68.33" y="-116.5" font-family="Helvetica,sans-Serif" font-size="10.00">Source/lib/Connections.h</text>
</a>
</g>
</g>
<!-- Node2 -->
<g id="node2" class="node">
<title>Node2</title>
<g id="a_node2"><a xlink:title=" ">
<polygon fill="white" stroke="#bfbfbf" points="29.47,-0.5 29.47,-18.5 107.18,-18.5 107.18,-0.5 29.47,-0.5"/>
<text text-anchor="middle" x="68.33" y="-6.5" font-family="Helvetica,sans-Serif" font-size="10.00">JuceHeader.h</text>
</a>
</g>
</g>
<!-- Node1&#45;&gt;Node2 -->
<g id="edge1" class="edge">
<title>Node1&#45;&gt;Node2</title>
<path fill="none" stroke="midnightblue" d="M47.16,-110.4C31.93,-103.32 12.51,-91.42 3.33,-74 -7.81,-52.88 16.95,-34.53 39.05,-23.06"/>
<polygon fill="midnightblue" stroke="midnightblue" points="40.79,-26.11 48.24,-18.58 37.72,-19.82 40.79,-26.11"/>
</g>
<!-- Node3 -->
<g id="node3" class="node">
<title>Node3</title>
<g id="a_node3"><a xlink:href="$phi___inlet_8h.html" xlink:title=" ">
<polygon fill="white" stroke="black" points="12.24,-55.5 12.24,-73.5 124.41,-73.5 124.41,-55.5 12.24,-55.5"/>
<text text-anchor="middle" x="68.33" y="-61.5" font-family="Helvetica,sans-Serif" font-size="10.00">./UIobjects/phi_Inlet.h</text>
</a>
</g>
</g>
<!-- Node1&#45;&gt;Node3 -->
<g id="edge2" class="edge">
<title>Node1&#45;&gt;Node3</title>
<path fill="none" stroke="midnightblue" d="M68.33,-110.22C68.33,-103.18 68.33,-92.81 68.33,-83.83"/>
<polygon fill="midnightblue" stroke="midnightblue" points="71.83,-83.55 68.33,-73.55 64.83,-83.55 71.83,-83.55"/>
</g>
<!-- Node4 -->
<g id="node4" class="node">
<title>Node4</title>
<g id="a_node4"><a xlink:href="$phi___outlet_8h.html" xlink:title=" ">
<polygon fill="white" stroke="black" points="142.35,-55.5 142.35,-73.5 262.3,-73.5 262.3,-55.5 142.35,-55.5"/>
<text text-anchor="middle" x="202.33" y="-61.5" font-family="Helvetica,sans-Serif" font-size="10.00">./UIobjects/phi_Outlet.h</text>
</a>
</g>
</g>
<!-- Node1&#45;&gt;Node4 -->
<g id="edge4" class="edge">
<title>Node1&#45;&gt;Node4</title>
<path fill="none" stroke="midnightblue" d="M88.68,-110.45C110.91,-101.66 146.75,-87.48 172.24,-77.4"/>
<polygon fill="midnightblue" stroke="midnightblue" points="173.77,-80.56 181.78,-73.63 171.2,-74.05 173.77,-80.56"/>
</g>
<!-- Node3&#45;&gt;Node2 -->
<g id="edge3" class="edge">
<title>Node3&#45;&gt;Node2</title>
<path fill="none" stroke="midnightblue" d="M68.33,-55.22C68.33,-48.18 68.33,-37.81 68.33,-28.83"/>
<polygon fill="midnightblue" stroke="midnightblue" points="71.83,-28.55 68.33,-18.55 64.83,-28.55 71.83,-28.55"/>
</g>
<!-- Node4&#45;&gt;Node2 -->
<g id="edge5" class="edge">
<title>Node4&#45;&gt;Node2</title>
<path fill="none" stroke="midnightblue" d="M181.97,-55.45C159.74,-46.66 123.9,-32.48 98.41,-22.4"/>
<polygon fill="midnightblue" stroke="midnightblue" points="99.46,-19.05 88.87,-18.63 96.88,-25.56 99.46,-19.05"/>
</g>
</g>
</svg>
