<?xml version="1.0" encoding="UTF-8" standalone="no"?>
<!DOCTYPE svg PUBLIC "-//W3C//DTD SVG 1.1//EN"
 "http://www.w3.org/Graphics/SVG/1.1/DTD/svg11.dtd">
<!-- Generated by graphviz version 2.42.3 (20191010.1750)
 -->
<!-- Title: Source/lib/Connections.h Pages: 1 -->
<svg width="381pt" height="192pt"
 viewBox="0.00 0.00 381.40 192.00" xmlns="http://www.w3.org/2000/svg" xmlns:xlink="http://www.w3.org/1999/xlink">
<g id="graph0" class="graph" transform="scale(1 1) rotate(0) translate(4 188)">
<title>Source/lib/Connections.h</title>
<polygon fill="white" stroke="transparent" points="-4,4 -4,-188 377.4,-188 377.4,4 -4,4"/>
<!-- Node1 -->
<g id="node1" class="node">
<title>Node1</title>
<g id="a_node1"><a xlink:title=" ">
<polygon fill="#bfbfbf" stroke="black" points="81.28,-165.5 81.28,-183.5 208.46,-183.5 208.46,-165.5 81.28,-165.5"/>
<text text-anchor="middle" x="144.87" y="-171.5" font-family="Helvetica,sans-Serif" font-size="10.00">Source/lib/Connections.h</text>
</a>
</g>
</g>
<!-- Node2 -->
<g id="node2" class="node">
<title>Node2</title>
<g id="a_node2"><a xlink:href="$_connections_8cpp.html" xlink:title=" ">
<polygon fill="white" stroke="black" points="0,-110.5 0,-128.5 137.74,-128.5 137.74,-110.5 0,-110.5"/>
<text text-anchor="middle" x="68.87" y="-116.5" font-family="Helvetica,sans-Serif" font-size="10.00">Source/lib/Connections.cpp</text>
</a>
</g>
</g>
<!-- Node1&#45;&gt;Node2 -->
<g id="edge1" class="edge">
<title>Node1&#45;&gt;Node2</title>
<path fill="none" stroke="midnightblue" d="M124.78,-159.49C110.67,-149.65 92.28,-136.83 80.52,-128.63"/>
<polygon fill="midnightblue" stroke="midnightblue" points="123.12,-162.6 133.33,-165.45 127.13,-156.86 123.12,-162.6"/>
</g>
<!-- Node3 -->
<g id="node3" class="node">
<title>Node3</title>
<g id="a_node3"><a xlink:href="$_main_patcher_8h.html" xlink:title=" ">
<polygon fill="white" stroke="black" points="155.62,-110.5 155.62,-128.5 286.12,-128.5 286.12,-110.5 155.62,-110.5"/>
<text text-anchor="middle" x="220.87" y="-116.5" font-family="Helvetica,sans-Serif" font-size="10.00">Source/src/MainPatcher.h</text>
</a>
</g>
</g>
<!-- Node1&#45;&gt;Node3 -->
<g id="edge2" class="edge">
<title>Node1&#45;&gt;Node3</title>
<path fill="none" stroke="midnightblue" d="M164.96,-159.49C179.07,-149.65 197.46,-136.83 209.22,-128.63"/>
<polygon fill="midnightblue" stroke="midnightblue" points="162.61,-156.86 156.41,-165.45 166.62,-162.6 162.61,-156.86"/>
</g>
<!-- Node4 -->
<g id="node4" class="node">
<title>Node4</title>
<g id="a_node4"><a xlink:href="$_main_component_8h.html" xlink:title=" ">
<polygon fill="white" stroke="black" points="65.73,-55.5 65.73,-73.5 214.01,-73.5 214.01,-55.5 65.73,-55.5"/>
<text text-anchor="middle" x="139.87" y="-61.5" font-family="Helvetica,sans-Serif" font-size="10.00">Source/src/MainComponent.h</text>
</a>
</g>
</g>
<!-- Node3&#45;&gt;Node4 -->
<g id="edge3" class="edge">
<title>Node3&#45;&gt;Node4</title>
<path fill="none" stroke="midnightblue" d="M199.89,-104.77C184.79,-94.89 164.94,-81.9 152.29,-73.63"/>
<polygon fill="midnightblue" stroke="midnightblue" points="198.28,-107.9 208.57,-110.45 202.12,-102.05 198.28,-107.9"/>
</g>
<!-- Node7 -->
<g id="node7" class="node">
<title>Node7</title>
<g id="a_node7"><a xlink:href="$_main_patcher_8cpp.html" xlink:title=" ">
<polygon fill="white" stroke="black" points="232.34,-55.5 232.34,-73.5 373.4,-73.5 373.4,-55.5 232.34,-55.5"/>
<text text-anchor="middle" x="302.87" y="-61.5" font-family="Helvetica,sans-Serif" font-size="10.00">Source/src/MainPatcher.cpp</text>
</a>
</g>
</g>
<!-- Node3&#45;&gt;Node7 -->
<g id="edge6" class="edge">
<title>Node3&#45;&gt;Node7</title>
<path fill="none" stroke="midnightblue" d="M242.11,-104.77C257.39,-94.89 277.49,-81.9 290.3,-73.63"/>
<polygon fill="midnightblue" stroke="midnightblue" points="239.82,-102.08 233.32,-110.45 243.62,-107.96 239.82,-102.08"/>
</g>
<!-- Node5 -->
<g id="node5" class="node">
<title>Node5</title>
<g id="a_node5"><a xlink:href="$_main_8cpp.html" xlink:title=" ">
<polygon fill="white" stroke="black" points="11.3,-0.5 11.3,-18.5 118.44,-18.5 118.44,-0.5 11.3,-0.5"/>
<text text-anchor="middle" x="64.87" y="-6.5" font-family="Helvetica,sans-Serif" font-size="10.00">Source/src/Main.cpp</text>
</a>
</g>
</g>
<!-- Node4&#45;&gt;Node5 -->
<g id="edge4" class="edge">
<title>Node4&#45;&gt;Node5</title>
<path fill="none" stroke="midnightblue" d="M120.05,-49.49C106.12,-39.65 87.97,-26.83 76.37,-18.63"/>
<polygon fill="midnightblue" stroke="midnightblue" points="118.29,-52.54 128.48,-55.45 122.33,-46.82 118.29,-52.54"/>
</g>
<!-- Node6 -->
<g id="node6" class="node">
<title>Node6</title>
<g id="a_node6"><a xlink:href="$_main_component_8cpp.html" xlink:title=" ">
<polygon fill="white" stroke="black" points="136.45,-0.5 136.45,-18.5 295.29,-18.5 295.29,-0.5 136.45,-0.5"/>
<text text-anchor="middle" x="215.87" y="-6.5" font-family="Helvetica,sans-Serif" font-size="10.00">Source/src/MainComponent.cpp</text>
</a>
</g>
</g>
<!-- Node4&#45;&gt;Node6 -->
<g id="edge5" class="edge">
<title>Node4&#45;&gt;Node6</title>
<path fill="none" stroke="midnightblue" d="M159.96,-49.49C174.07,-39.65 192.46,-26.83 204.22,-18.63"/>
<polygon fill="midnightblue" stroke="midnightblue" points="157.61,-46.86 151.41,-55.45 161.62,-52.6 157.61,-46.86"/>
</g>
</g>
</svg>
