<?xml version="1.0" encoding="UTF-8" standalone="no"?>
<!DOCTYPE svg PUBLIC "-//W3C//DTD SVG 1.1//EN"
 "http://www.w3.org/Graphics/SVG/1.1/DTD/svg11.dtd">
<!-- Generated by graphviz version 2.42.3 (20191010.1750)
 -->
<!-- Title: Source/lib/Connections.cpp Pages: 1 -->
<svg width="359pt" height="192pt"
 viewBox="0.00 0.00 358.84 192.00" xmlns="http://www.w3.org/2000/svg" xmlns:xlink="http://www.w3.org/1999/xlink">
<g id="graph0" class="graph" transform="scale(1 1) rotate(0) translate(4 188)">
<title>Source/lib/Connections.cpp</title>
<polygon fill="white" stroke="transparent" points="-4,4 -4,-188 354.84,-188 354.84,4 -4,4"/>
<!-- Node1 -->
<g id="node1" class="node">
<title>Node1</title>
<g id="a_node1"><a xlink:title=" ">
<polygon fill="#bfbfbf" stroke="black" points="0,-165.5 0,-183.5 137.74,-183.5 137.74,-165.5 0,-165.5"/>
<text text-anchor="middle" x="68.87" y="-171.5" font-family="Helvetica,sans-Serif" font-size="10.00">Source/lib/Connections.cpp</text>
</a>
</g>
</g>
<!-- Node2 -->
<g id="node2" class="node">
<title>Node2</title>
<g id="a_node2"><a xlink:title=" ">
<polygon fill="white" stroke="#bfbfbf" points="76.01,-0.5 76.01,-18.5 153.73,-18.5 153.73,-0.5 76.01,-0.5"/>
<text text-anchor="middle" x="114.87" y="-6.5" font-family="Helvetica,sans-Serif" font-size="10.00">JuceHeader.h</text>
</a>
</g>
</g>
<!-- Node1&#45;&gt;Node2 -->
<g id="edge1" class="edge">
<title>Node1&#45;&gt;Node2</title>
<path fill="none" stroke="midnightblue" d="M68.84,-165.44C69.03,-145.86 71.01,-94.49 85.87,-55 89.65,-44.97 95.97,-34.87 101.75,-26.84"/>
<polygon fill="midnightblue" stroke="midnightblue" points="104.63,-28.84 107.89,-18.75 99.05,-24.61 104.63,-28.84"/>
</g>
<!-- Node3 -->
<g id="node3" class="node">
<title>Node3</title>
<g id="a_node3"><a xlink:href="$_connections_8h.html" xlink:title=" ">
<polygon fill="white" stroke="black" points="89.9,-110.5 89.9,-128.5 169.83,-128.5 169.83,-110.5 89.9,-110.5"/>
<text text-anchor="middle" x="129.87" y="-116.5" font-family="Helvetica,sans-Serif" font-size="10.00">Connections.h</text>
</a>
</g>
</g>
<!-- Node1&#45;&gt;Node3 -->
<g id="edge2" class="edge">
<title>Node1&#45;&gt;Node3</title>
<path fill="none" stroke="midnightblue" d="M78.13,-165.45C87.27,-157.51 101.45,-145.19 112.66,-135.45"/>
<polygon fill="midnightblue" stroke="midnightblue" points="115.26,-137.83 120.52,-128.63 110.67,-132.54 115.26,-137.83"/>
</g>
<!-- Node3&#45;&gt;Node2 -->
<g id="edge3" class="edge">
<title>Node3&#45;&gt;Node2</title>
<path fill="none" stroke="midnightblue" d="M119.51,-110.24C110.26,-102.14 97.35,-88.87 91.87,-74 85.99,-58.07 94.13,-39.84 102.3,-27.01"/>
<polygon fill="midnightblue" stroke="midnightblue" points="105.22,-28.94 108.06,-18.73 99.48,-24.94 105.22,-28.94"/>
</g>
<!-- Node4 -->
<g id="node4" class="node">
<title>Node4</title>
<g id="a_node4"><a xlink:href="$phi___inlet_8h.html" xlink:title=" ">
<polygon fill="white" stroke="black" points="100.79,-55.5 100.79,-73.5 212.95,-73.5 212.95,-55.5 100.79,-55.5"/>
<text text-anchor="middle" x="156.87" y="-61.5" font-family="Helvetica,sans-Serif" font-size="10.00">./UIobjects/phi_Inlet.h</text>
</a>
</g>
</g>
<!-- Node3&#45;&gt;Node4 -->
<g id="edge4" class="edge">
<title>Node3&#45;&gt;Node4</title>
<path fill="none" stroke="midnightblue" d="M134.09,-110.22C137.83,-102.86 143.43,-91.88 148.14,-82.64"/>
<polygon fill="midnightblue" stroke="midnightblue" points="151.35,-84.05 152.77,-73.55 145.11,-80.87 151.35,-84.05"/>
</g>
<!-- Node5 -->
<g id="node5" class="node">
<title>Node5</title>
<g id="a_node5"><a xlink:href="$phi___outlet_8h.html" xlink:title=" ">
<polygon fill="white" stroke="black" points="230.9,-55.5 230.9,-73.5 350.84,-73.5 350.84,-55.5 230.9,-55.5"/>
<text text-anchor="middle" x="290.87" y="-61.5" font-family="Helvetica,sans-Serif" font-size="10.00">./UIobjects/phi_Outlet.h</text>
</a>
</g>
</g>
<!-- Node3&#45;&gt;Node5 -->
<g id="edge6" class="edge">
<title>Node3&#45;&gt;Node5</title>
<path fill="none" stroke="midnightblue" d="M154.32,-110.45C181.59,-101.47 225.89,-86.89 256.6,-76.78"/>
<polygon fill="midnightblue" stroke="midnightblue" points="258.05,-79.99 266.45,-73.54 255.86,-73.34 258.05,-79.99"/>
</g>
<!-- Node4&#45;&gt;Node2 -->
<g id="edge5" class="edge">
<title>Node4&#45;&gt;Node2</title>
<path fill="none" stroke="midnightblue" d="M150.31,-55.22C144.23,-47.55 135.03,-35.94 127.52,-26.47"/>
<polygon fill="midnightblue" stroke="midnightblue" points="130.2,-24.21 121.25,-18.55 124.72,-28.56 130.2,-24.21"/>
</g>
<!-- Node5&#45;&gt;Node2 -->
<g id="edge7" class="edge">
<title>Node5&#45;&gt;Node2</title>
<path fill="none" stroke="midnightblue" d="M264.14,-55.45C234.07,-46.4 185.06,-31.64 151.46,-21.52"/>
<polygon fill="midnightblue" stroke="midnightblue" points="152.15,-18.07 141.56,-18.54 150.13,-24.77 152.15,-18.07"/>
</g>
</g>
</svg>
