<?xml version="1.0" encoding="UTF-8" standalone="no"?>
<!DOCTYPE svg PUBLIC "-//W3C//DTD SVG 1.1//EN"
 "http://www.w3.org/Graphics/SVG/1.1/DTD/svg11.dtd">
<!-- Generated by graphviz version 2.42.3 (20191010.1750)
 -->
<!-- Title: Source/lib/Connections.h Pages: 1 -->
<svg width="191pt" height="137pt"
 viewBox="0.00 0.00 190.55 137.00" xmlns="http://www.w3.org/2000/svg" xmlns:xlink="http://www.w3.org/1999/xlink">
<g id="graph0" class="graph" transform="scale(1 1) rotate(0) translate(4 133)">
<title>Source/lib/Connections.h</title>
<polygon fill="white" stroke="transparent" points="-4,4 -4,-133 186.55,-133 186.55,4 -4,4"/>
<!-- Node1 -->
<g id="node1" class="node">
<title>Node1</title>
<g id="a_node1"><a xlink:title=" ">
<polygon fill="#bfbfbf" stroke="black" points="0,-110.5 0,-128.5 127.18,-128.5 127.18,-110.5 0,-110.5"/>
<text text-anchor="middle" x="63.59" y="-116.5" font-family="Helvetica,sans-Serif" font-size="10.00">Source/lib/Connections.h</text>
</a>
</g>
</g>
<!-- Node2 -->
<g id="node2" class="node">
<title>Node2</title>
<g id="a_node2"><a xlink:title=" ">
<polygon fill="white" stroke="#bfbfbf" points="24.73,-0.5 24.73,-18.5 102.45,-18.5 102.45,-0.5 24.73,-0.5"/>
<text text-anchor="middle" x="63.59" y="-6.5" font-family="Helvetica,sans-Serif" font-size="10.00">JuceHeader.h</text>
</a>
</g>
</g>
<!-- Node1&#45;&gt;Node2 -->
<g id="edge1" class="edge">
<title>Node1&#45;&gt;Node2</title>
<path fill="none" stroke="midnightblue" d="M52.7,-110.36C42.97,-102.35 29.39,-89.13 23.59,-74 16.65,-55.9 31.29,-37.39 44.77,-25.06"/>
<polygon fill="midnightblue" stroke="midnightblue" points="47.05,-27.71 52.4,-18.56 42.52,-22.38 47.05,-27.71"/>
</g>
<!-- Node3 -->
<g id="node3" class="node">
<title>Node3</title>
<g id="a_node3"><a xlink:href="$phi___inlet_8h.html" xlink:title=" ">
<polygon fill="white" stroke="black" points="32.51,-55.5 32.51,-73.5 94.66,-73.5 94.66,-55.5 32.51,-55.5"/>
<text text-anchor="middle" x="63.59" y="-61.5" font-family="Helvetica,sans-Serif" font-size="10.00">phi_Inlet.h</text>
</a>
</g>
</g>
<!-- Node1&#45;&gt;Node3 -->
<g id="edge2" class="edge">
<title>Node1&#45;&gt;Node3</title>
<path fill="none" stroke="midnightblue" d="M63.59,-110.22C63.59,-103.18 63.59,-92.81 63.59,-83.83"/>
<polygon fill="midnightblue" stroke="midnightblue" points="67.09,-83.55 63.59,-73.55 60.09,-83.55 67.09,-83.55"/>
</g>
<!-- Node4 -->
<g id="node4" class="node">
<title>Node4</title>
<g id="a_node4"><a xlink:href="$phi___outlet_8h.html" xlink:title=" ">
<polygon fill="white" stroke="black" points="112.63,-55.5 112.63,-73.5 182.55,-73.5 182.55,-55.5 112.63,-55.5"/>
<text text-anchor="middle" x="147.59" y="-61.5" font-family="Helvetica,sans-Serif" font-size="10.00">phi_Outlet.h</text>
</a>
</g>
</g>
<!-- Node1&#45;&gt;Node4 -->
<g id="edge4" class="edge">
<title>Node1&#45;&gt;Node4</title>
<path fill="none" stroke="midnightblue" d="M76.35,-110.45C89.54,-102.12 110.39,-88.97 126.13,-79.04"/>
<polygon fill="midnightblue" stroke="midnightblue" points="128.12,-81.92 134.71,-73.63 124.39,-76 128.12,-81.92"/>
</g>
<!-- Node3&#45;&gt;Node2 -->
<g id="edge3" class="edge">
<title>Node3&#45;&gt;Node2</title>
<path fill="none" stroke="midnightblue" d="M63.59,-55.22C63.59,-48.18 63.59,-37.81 63.59,-28.83"/>
<polygon fill="midnightblue" stroke="midnightblue" points="67.09,-28.55 63.59,-18.55 60.09,-28.55 67.09,-28.55"/>
</g>
<!-- Node4&#45;&gt;Node2 -->
<g id="edge5" class="edge">
<title>Node4&#45;&gt;Node2</title>
<path fill="none" stroke="midnightblue" d="M134.83,-55.45C121.63,-47.12 100.79,-33.97 85.05,-24.04"/>
<polygon fill="midnightblue" stroke="midnightblue" points="86.79,-21 76.47,-18.63 83.06,-26.92 86.79,-21"/>
</g>
</g>
</svg>
