<?xml version="1.0" encoding="UTF-8" standalone="no"?>
<!DOCTYPE svg PUBLIC "-//W3C//DTD SVG 1.1//EN"
 "http://www.w3.org/Graphics/SVG/1.1/DTD/svg11.dtd">
<!-- Generated by graphviz version 2.42.3 (20191010.1750)
 -->
<!-- Title: Source/src/MainComponent.h Pages: 1 -->
<svg width="513pt" height="302pt"
 viewBox="0.00 0.00 512.64 302.00" xmlns="http://www.w3.org/2000/svg" xmlns:xlink="http://www.w3.org/1999/xlink">
<g id="graph0" class="graph" transform="scale(1 1) rotate(0) translate(4 298)">
<title>Source/src/MainComponent.h</title>
<polygon fill="white" stroke="transparent" points="-4,4 -4,-298 508.64,-298 508.64,4 -4,4"/>
<!-- Node1 -->
<g id="node1" class="node">
<title>Node1</title>
<g id="a_node1"><a xlink:title=" ">
<polygon fill="#bfbfbf" stroke="black" points="0,-275.5 0,-293.5 148.29,-293.5 148.29,-275.5 0,-275.5"/>
<text text-anchor="middle" x="74.14" y="-281.5" font-family="Helvetica,sans-Serif" font-size="10.00">Source/src/MainComponent.h</text>
</a>
</g>
</g>
<!-- Node2 -->
<g id="node2" class="node">
<title>Node2</title>
<g id="a_node2"><a xlink:title=" ">
<polygon fill="white" stroke="#bfbfbf" points="297.29,-0.5 297.29,-18.5 375,-18.5 375,-0.5 297.29,-0.5"/>
<text text-anchor="middle" x="336.14" y="-6.5" font-family="Helvetica,sans-Serif" font-size="10.00">JuceHeader.h</text>
</a>
</g>
</g>
<!-- Node1&#45;&gt;Node2 -->
<g id="edge1" class="edge">
<title>Node1&#45;&gt;Node2</title>
<path fill="none" stroke="midnightblue" d="M64.69,-275.32C46.44,-258.58 8.14,-218.35 8.14,-175.5 8.14,-175.5 8.14,-175.5 8.14,-118.5 8.14,-83.39 25.12,-73.21 55.14,-55 93.2,-31.91 216.97,-19.27 286.89,-13.82"/>
<polygon fill="midnightblue" stroke="midnightblue" points="287.5,-17.28 297.21,-13.03 286.97,-10.3 287.5,-17.28"/>
</g>
<!-- Node3 -->
<g id="node3" class="node">
<title>Node3</title>
<g id="a_node3"><a xlink:href="$_main_patcher_8h.html" xlink:title=" ">
<polygon fill="white" stroke="black" points="254.18,-220.5 254.18,-238.5 334.11,-238.5 334.11,-220.5 254.18,-220.5"/>
<text text-anchor="middle" x="294.14" y="-226.5" font-family="Helvetica,sans-Serif" font-size="10.00">MainPatcher.h</text>
</a>
</g>
</g>
<!-- Node1&#45;&gt;Node3 -->
<g id="edge2" class="edge">
<title>Node1&#45;&gt;Node3</title>
<path fill="none" stroke="midnightblue" d="M107.56,-275.45C145.87,-266.22 208.78,-251.06 250.83,-240.93"/>
<polygon fill="midnightblue" stroke="midnightblue" points="251.87,-244.28 260.78,-238.54 250.23,-237.48 251.87,-244.28"/>
</g>
<!-- Node3&#45;&gt;Node2 -->
<g id="edge3" class="edge">
<title>Node3&#45;&gt;Node2</title>
<path fill="none" stroke="midnightblue" d="M313.86,-220.41C333.74,-212.03 365.12,-198.2 391.14,-184 452.39,-150.58 487.86,-142.08 503.14,-74 514.57,-23.07 438.81,-11.66 385.55,-9.82"/>
<polygon fill="midnightblue" stroke="midnightblue" points="385.32,-6.31 375.23,-9.57 385.15,-13.31 385.32,-6.31"/>
</g>
<!-- Node4 -->
<g id="node4" class="node">
<title>Node4</title>
<g id="a_node4"><a xlink:href="$_module_box_8h.html" xlink:title=" ">
<polygon fill="white" stroke="black" points="286.4,-165.5 286.4,-183.5 381.89,-183.5 381.89,-165.5 286.4,-165.5"/>
<text text-anchor="middle" x="334.14" y="-171.5" font-family="Helvetica,sans-Serif" font-size="10.00">../lib/ModuleBox.h</text>
</a>
</g>
</g>
<!-- Node3&#45;&gt;Node4 -->
<g id="edge4" class="edge">
<title>Node3&#45;&gt;Node4</title>
<path fill="none" stroke="midnightblue" d="M300.39,-220.22C306.12,-212.63 314.77,-201.18 321.87,-191.76"/>
<polygon fill="midnightblue" stroke="midnightblue" points="324.84,-193.64 328.07,-183.55 319.25,-189.42 324.84,-193.64"/>
</g>
<!-- Node9 -->
<g id="node9" class="node">
<title>Node9</title>
<g id="a_node9"><a xlink:href="$_connections_8h.html" xlink:title=" ">
<polygon fill="white" stroke="black" points="151.62,-110.5 151.62,-128.5 252.67,-128.5 252.67,-110.5 151.62,-110.5"/>
<text text-anchor="middle" x="202.14" y="-116.5" font-family="Helvetica,sans-Serif" font-size="10.00">../lib/Connections.h</text>
</a>
</g>
</g>
<!-- Node3&#45;&gt;Node9 -->
<g id="edge14" class="edge">
<title>Node3&#45;&gt;Node9</title>
<path fill="none" stroke="midnightblue" d="M287.23,-220.38C272.04,-202.56 235.55,-159.72 215.65,-136.36"/>
<polygon fill="midnightblue" stroke="midnightblue" points="218.29,-134.05 209.14,-128.71 212.96,-138.59 218.29,-134.05"/>
</g>
<!-- Node4&#45;&gt;Node2 -->
<g id="edge5" class="edge">
<title>Node4&#45;&gt;Node2</title>
<path fill="none" stroke="midnightblue" d="M362.57,-165.43C416.55,-148.67 525.17,-107.29 486.14,-55 463.17,-24.23 419.83,-13.87 385.61,-10.77"/>
<polygon fill="midnightblue" stroke="midnightblue" points="385.55,-7.25 375.32,-10.02 385.04,-14.23 385.55,-7.25"/>
</g>
<!-- Node5 -->
<g id="node5" class="node">
<title>Node5</title>
<g id="a_node5"><a xlink:href="$phi___impulse_8h.html" xlink:title=" ">
<polygon fill="white" stroke="black" points="274.72,-110.5 274.72,-128.5 393.56,-128.5 393.56,-110.5 274.72,-110.5"/>
<text text-anchor="middle" x="334.14" y="-116.5" font-family="Helvetica,sans-Serif" font-size="10.00">modules/phi_Impulse.h</text>
</a>
</g>
</g>
<!-- Node4&#45;&gt;Node5 -->
<g id="edge6" class="edge">
<title>Node4&#45;&gt;Node5</title>
<path fill="none" stroke="midnightblue" d="M334.14,-165.22C334.14,-158.18 334.14,-147.81 334.14,-138.83"/>
<polygon fill="midnightblue" stroke="midnightblue" points="337.64,-138.55 334.14,-128.55 330.64,-138.55 337.64,-138.55"/>
</g>
<!-- Node5&#45;&gt;Node2 -->
<g id="edge7" class="edge">
<title>Node5&#45;&gt;Node2</title>
<path fill="none" stroke="midnightblue" d="M393.69,-114.6C421.67,-109.42 452.64,-98.14 470.14,-74 494.97,-39.75 432.72,-23.31 384.95,-15.92"/>
<polygon fill="midnightblue" stroke="midnightblue" points="385.41,-12.45 375.01,-14.48 384.41,-19.38 385.41,-12.45"/>
</g>
<!-- Node6 -->
<g id="node6" class="node">
<title>Node6</title>
<g id="a_node6"><a xlink:href="$phi___dial_8h.html" xlink:title=" ">
<polygon fill="white" stroke="black" points="347.51,-55.5 347.51,-73.5 460.78,-73.5 460.78,-55.5 347.51,-55.5"/>
<text text-anchor="middle" x="404.14" y="-61.5" font-family="Helvetica,sans-Serif" font-size="10.00">../UIobjects/phi_Dial.h</text>
</a>
</g>
</g>
<!-- Node5&#45;&gt;Node6 -->
<g id="edge8" class="edge">
<title>Node5&#45;&gt;Node6</title>
<path fill="none" stroke="midnightblue" d="M344.77,-110.45C355.46,-102.36 372.17,-89.7 385.15,-79.88"/>
<polygon fill="midnightblue" stroke="midnightblue" points="387.55,-82.45 393.41,-73.63 383.33,-76.87 387.55,-82.45"/>
</g>
<!-- Node7 -->
<g id="node7" class="node">
<title>Node7</title>
<g id="a_node7"><a xlink:href="$phi___inlet_8h.html" xlink:title=" ">
<polygon fill="white" stroke="black" points="73.67,-55.5 73.67,-73.5 188.62,-73.5 188.62,-55.5 73.67,-55.5"/>
<text text-anchor="middle" x="131.14" y="-61.5" font-family="Helvetica,sans-Serif" font-size="10.00">../UIobjects/phi_Inlet.h</text>
</a>
</g>
</g>
<!-- Node5&#45;&gt;Node7 -->
<g id="edge10" class="edge">
<title>Node5&#45;&gt;Node7</title>
<path fill="none" stroke="midnightblue" d="M303.31,-110.45C268.18,-101.28 210.64,-86.26 171.85,-76.13"/>
<polygon fill="midnightblue" stroke="midnightblue" points="172.49,-72.68 161.93,-73.54 170.72,-79.45 172.49,-72.68"/>
</g>
<!-- Node8 -->
<g id="node8" class="node">
<title>Node8</title>
<g id="a_node8"><a xlink:href="$phi___outlet_8h.html" xlink:title=" ">
<polygon fill="white" stroke="black" points="206.78,-55.5 206.78,-73.5 329.5,-73.5 329.5,-55.5 206.78,-55.5"/>
<text text-anchor="middle" x="268.14" y="-61.5" font-family="Helvetica,sans-Serif" font-size="10.00">../UIobjects/phi_Outlet.h</text>
</a>
</g>
</g>
<!-- Node5&#45;&gt;Node8 -->
<g id="edge12" class="edge">
<title>Node5&#45;&gt;Node8</title>
<path fill="none" stroke="midnightblue" d="M324.12,-110.45C314.14,-102.43 298.59,-89.95 286.41,-80.17"/>
<polygon fill="midnightblue" stroke="midnightblue" points="288.25,-77.16 278.26,-73.63 283.87,-82.62 288.25,-77.16"/>
</g>
<!-- Node6&#45;&gt;Node2 -->
<g id="edge9" class="edge">
<title>Node6&#45;&gt;Node2</title>
<path fill="none" stroke="midnightblue" d="M393.81,-55.45C383.43,-47.36 367.2,-34.7 354.6,-24.88"/>
<polygon fill="midnightblue" stroke="midnightblue" points="356.61,-22.01 346.57,-18.63 352.3,-27.53 356.61,-22.01"/>
</g>
<!-- Node7&#45;&gt;Node2 -->
<g id="edge11" class="edge">
<title>Node7&#45;&gt;Node2</title>
<path fill="none" stroke="midnightblue" d="M162.28,-55.45C197.83,-46.26 256.11,-31.19 295.28,-21.06"/>
<polygon fill="midnightblue" stroke="midnightblue" points="296.25,-24.43 305.05,-18.54 294.49,-17.65 296.25,-24.43"/>
</g>
<!-- Node8&#45;&gt;Node2 -->
<g id="edge13" class="edge">
<title>Node8&#45;&gt;Node2</title>
<path fill="none" stroke="midnightblue" d="M278.47,-55.45C288.85,-47.36 305.09,-34.7 317.69,-24.88"/>
<polygon fill="midnightblue" stroke="midnightblue" points="319.98,-27.53 325.72,-18.63 315.68,-22.01 319.98,-27.53"/>
</g>
<!-- Node9&#45;&gt;Node2 -->
<g id="edge15" class="edge">
<title>Node9&#45;&gt;Node2</title>
<path fill="none" stroke="midnightblue" d="M151.45,-112.56C101.76,-104.72 37.23,-87.87 65.14,-55 93.03,-22.16 216.6,-13.51 286.86,-11.26"/>
<polygon fill="midnightblue" stroke="midnightblue" points="287.34,-14.75 297.24,-10.96 287.14,-7.75 287.34,-14.75"/>
</g>
<!-- Node9&#45;&gt;Node7 -->
<g id="edge16" class="edge">
<title>Node9&#45;&gt;Node7</title>
<path fill="none" stroke="midnightblue" d="M191.36,-110.45C180.52,-102.36 163.57,-89.7 150.41,-79.88"/>
<polygon fill="midnightblue" stroke="midnightblue" points="152.13,-76.8 142.03,-73.63 147.95,-82.41 152.13,-76.8"/>
</g>
<!-- Node9&#45;&gt;Node8 -->
<g id="edge17" class="edge">
<title>Node9&#45;&gt;Node8</title>
<path fill="none" stroke="midnightblue" d="M212.17,-110.45C222.15,-102.43 237.7,-89.95 249.88,-80.17"/>
<polygon fill="midnightblue" stroke="midnightblue" points="252.42,-82.62 258.02,-73.63 248.04,-77.16 252.42,-82.62"/>
</g>
</g>
</svg>
