<?xml version="1.0" encoding="UTF-8" standalone="no"?>
<!DOCTYPE svg PUBLIC "-//W3C//DTD SVG 1.1//EN"
 "http://www.w3.org/Graphics/SVG/1.1/DTD/svg11.dtd">
<!-- Generated by graphviz version 2.42.3 (20191010.1750)
 -->
<!-- Title: Source/src/Main.cpp Pages: 1 -->
<svg width="603pt" height="357pt"
 viewBox="0.00 0.00 603.00 357.00" xmlns="http://www.w3.org/2000/svg" xmlns:xlink="http://www.w3.org/1999/xlink">
<g id="graph0" class="graph" transform="scale(1 1) rotate(0) translate(4 353)">
<title>Source/src/Main.cpp</title>
<polygon fill="white" stroke="transparent" points="-4,4 -4,-353 599,-353 599,4 -4,4"/>
<!-- Node1 -->
<g id="node1" class="node">
<title>Node1</title>
<g id="a_node1"><a xlink:title=" ">
<polygon fill="#bfbfbf" stroke="black" points="163.43,-330.5 163.43,-348.5 270.57,-348.5 270.57,-330.5 163.43,-330.5"/>
<text text-anchor="middle" x="217" y="-336.5" font-family="Helvetica,sans-Serif" font-size="10.00">Source/src/Main.cpp</text>
</a>
</g>
</g>
<!-- Node2 -->
<g id="node2" class="node">
<title>Node2</title>
<g id="a_node2"><a xlink:title=" ">
<polygon fill="white" stroke="#bfbfbf" points="258.14,-0.5 258.14,-18.5 335.86,-18.5 335.86,-0.5 258.14,-0.5"/>
<text text-anchor="middle" x="297" y="-6.5" font-family="Helvetica,sans-Serif" font-size="10.00">JuceHeader.h</text>
</a>
</g>
</g>
<!-- Node1&#45;&gt;Node2 -->
<g id="edge1" class="edge">
<title>Node1&#45;&gt;Node2</title>
<path fill="none" stroke="midnightblue" d="M163.36,-334.76C99.1,-327.03 0,-303.3 0,-230.5 0,-230.5 0,-230.5 0,-118.5 0,-84.16 15.08,-73.51 44,-55 77,-33.87 183.9,-20.78 247.7,-14.65"/>
<polygon fill="midnightblue" stroke="midnightblue" points="248.3,-18.11 257.93,-13.69 247.65,-11.14 248.3,-18.11"/>
</g>
<!-- Node3 -->
<g id="node3" class="node">
<title>Node3</title>
<g id="a_node3"><a xlink:href="$_main_component_8h.html" xlink:title=" ">
<polygon fill="white" stroke="black" points="385.14,-275.5 385.14,-293.5 482.86,-293.5 482.86,-275.5 385.14,-275.5"/>
<text text-anchor="middle" x="434" y="-281.5" font-family="Helvetica,sans-Serif" font-size="10.00">MainComponent.h</text>
</a>
</g>
</g>
<!-- Node1&#45;&gt;Node3 -->
<g id="edge2" class="edge">
<title>Node1&#45;&gt;Node3</title>
<path fill="none" stroke="midnightblue" d="M249.96,-330.45C287.75,-321.22 349.81,-306.06 391.28,-295.93"/>
<polygon fill="midnightblue" stroke="midnightblue" points="392.2,-299.31 401.09,-293.54 390.54,-292.51 392.2,-299.31"/>
</g>
<!-- Node3&#45;&gt;Node2 -->
<g id="edge3" class="edge">
<title>Node3&#45;&gt;Node2</title>
<path fill="none" stroke="midnightblue" d="M472.56,-275.49C520.19,-263.08 595,-234.23 595,-175.5 595,-175.5 595,-175.5 595,-118.5 595,-79.67 569.09,-73.59 535,-55 475.57,-22.59 396.72,-13.34 346.41,-10.95"/>
<polygon fill="midnightblue" stroke="midnightblue" points="346.26,-7.44 336.13,-10.53 345.98,-14.43 346.26,-7.44"/>
</g>
<!-- Node4 -->
<g id="node4" class="node">
<title>Node4</title>
<g id="a_node4"><a xlink:href="$_main_patcher_8h.html" xlink:title=" ">
<polygon fill="white" stroke="black" points="394.03,-220.5 394.03,-238.5 473.97,-238.5 473.97,-220.5 394.03,-220.5"/>
<text text-anchor="middle" x="434" y="-226.5" font-family="Helvetica,sans-Serif" font-size="10.00">MainPatcher.h</text>
</a>
</g>
</g>
<!-- Node3&#45;&gt;Node4 -->
<g id="edge4" class="edge">
<title>Node3&#45;&gt;Node4</title>
<path fill="none" stroke="midnightblue" d="M434,-275.22C434,-268.18 434,-257.81 434,-248.83"/>
<polygon fill="midnightblue" stroke="midnightblue" points="437.5,-248.55 434,-238.55 430.5,-248.55 437.5,-248.55"/>
</g>
<!-- Node4&#45;&gt;Node2 -->
<g id="edge5" class="edge">
<title>Node4&#45;&gt;Node2</title>
<path fill="none" stroke="midnightblue" d="M443.54,-220.48C473.5,-194.35 561.12,-110.21 516,-55 494.98,-29.28 404.11,-18.06 346.23,-13.45"/>
<polygon fill="midnightblue" stroke="midnightblue" points="346.42,-9.95 336.19,-12.69 345.89,-16.93 346.42,-9.95"/>
</g>
<!-- Node5 -->
<g id="node5" class="node">
<title>Node5</title>
<g id="a_node5"><a xlink:href="$_module_box_8h.html" xlink:title=" ">
<polygon fill="white" stroke="black" points="205.26,-165.5 205.26,-183.5 300.74,-183.5 300.74,-165.5 205.26,-165.5"/>
<text text-anchor="middle" x="253" y="-171.5" font-family="Helvetica,sans-Serif" font-size="10.00">../lib/ModuleBox.h</text>
</a>
</g>
</g>
<!-- Node4&#45;&gt;Node5 -->
<g id="edge6" class="edge">
<title>Node4&#45;&gt;Node5</title>
<path fill="none" stroke="midnightblue" d="M406.51,-220.45C375.46,-211.36 324.75,-196.51 290.18,-186.39"/>
<polygon fill="midnightblue" stroke="midnightblue" points="291.03,-182.99 280.45,-183.54 289.07,-189.71 291.03,-182.99"/>
</g>
<!-- Node10 -->
<g id="node10" class="node">
<title>Node10</title>
<g id="a_node10"><a xlink:href="$_connections_8h.html" xlink:title=" ">
<polygon fill="white" stroke="black" points="383.48,-110.5 383.48,-128.5 484.52,-128.5 484.52,-110.5 383.48,-110.5"/>
<text text-anchor="middle" x="434" y="-116.5" font-family="Helvetica,sans-Serif" font-size="10.00">../lib/Connections.h</text>
</a>
</g>
</g>
<!-- Node4&#45;&gt;Node10 -->
<g id="edge16" class="edge">
<title>Node4&#45;&gt;Node10</title>
<path fill="none" stroke="midnightblue" d="M434,-220.38C434,-203.18 434,-162.7 434,-138.89"/>
<polygon fill="midnightblue" stroke="midnightblue" points="437.5,-138.71 434,-128.71 430.5,-138.71 437.5,-138.71"/>
</g>
<!-- Node5&#45;&gt;Node2 -->
<g id="edge7" class="edge">
<title>Node5&#45;&gt;Node2</title>
<path fill="none" stroke="midnightblue" d="M210.72,-165.45C139.71,-150.13 8.76,-113.01 57,-55 80.81,-26.37 185.01,-16.08 248.02,-12.44"/>
<polygon fill="midnightblue" stroke="midnightblue" points="248.34,-15.93 258.14,-11.89 247.96,-8.94 248.34,-15.93"/>
</g>
<!-- Node6 -->
<g id="node6" class="node">
<title>Node6</title>
<g id="a_node6"><a xlink:href="$phi___impulse_8h.html" xlink:title=" ">
<polygon fill="white" stroke="black" points="193.58,-110.5 193.58,-128.5 312.42,-128.5 312.42,-110.5 193.58,-110.5"/>
<text text-anchor="middle" x="253" y="-116.5" font-family="Helvetica,sans-Serif" font-size="10.00">modules/phi_Impulse.h</text>
</a>
</g>
</g>
<!-- Node5&#45;&gt;Node6 -->
<g id="edge8" class="edge">
<title>Node5&#45;&gt;Node6</title>
<path fill="none" stroke="midnightblue" d="M253,-165.22C253,-158.18 253,-147.81 253,-138.83"/>
<polygon fill="midnightblue" stroke="midnightblue" points="256.5,-138.55 253,-128.55 249.5,-138.55 256.5,-138.55"/>
</g>
<!-- Node6&#45;&gt;Node2 -->
<g id="edge9" class="edge">
<title>Node6&#45;&gt;Node2</title>
<path fill="none" stroke="midnightblue" d="M245.12,-110.41C234.11,-98.08 216.56,-74 227,-55 234.94,-40.54 249.79,-30.11 263.78,-23"/>
<polygon fill="midnightblue" stroke="midnightblue" points="265.64,-25.99 273.23,-18.6 262.69,-19.65 265.64,-25.99"/>
</g>
<!-- Node7 -->
<g id="node7" class="node">
<title>Node7</title>
<g id="a_node7"><a xlink:href="$phi___dial_8h.html" xlink:title=" ">
<polygon fill="white" stroke="black" points="66.36,-55.5 66.36,-73.5 179.64,-73.5 179.64,-55.5 66.36,-55.5"/>
<text text-anchor="middle" x="123" y="-61.5" font-family="Helvetica,sans-Serif" font-size="10.00">../UIobjects/phi_Dial.h</text>
</a>
</g>
</g>
<!-- Node6&#45;&gt;Node7 -->
<g id="edge10" class="edge">
<title>Node6&#45;&gt;Node7</title>
<path fill="none" stroke="midnightblue" d="M233.26,-110.45C211.69,-101.66 176.91,-87.48 152.19,-77.4"/>
<polygon fill="midnightblue" stroke="midnightblue" points="153.51,-74.16 142.93,-73.63 150.87,-80.64 153.51,-74.16"/>
</g>
<!-- Node8 -->
<g id="node8" class="node">
<title>Node8</title>
<g id="a_node8"><a xlink:href="$phi___inlet_8h.html" xlink:title=" ">
<polygon fill="white" stroke="black" points="376.53,-55.5 376.53,-73.5 491.47,-73.5 491.47,-55.5 376.53,-55.5"/>
<text text-anchor="middle" x="434" y="-61.5" font-family="Helvetica,sans-Serif" font-size="10.00">../UIobjects/phi_Inlet.h</text>
</a>
</g>
</g>
<!-- Node6&#45;&gt;Node8 -->
<g id="edge12" class="edge">
<title>Node6&#45;&gt;Node8</title>
<path fill="none" stroke="midnightblue" d="M280.49,-110.45C311.54,-101.36 362.25,-86.51 396.82,-76.39"/>
<polygon fill="midnightblue" stroke="midnightblue" points="397.93,-79.71 406.55,-73.54 395.97,-72.99 397.93,-79.71"/>
</g>
<!-- Node9 -->
<g id="node9" class="node">
<title>Node9</title>
<g id="a_node9"><a xlink:href="$phi___outlet_8h.html" xlink:title=" ">
<polygon fill="white" stroke="black" points="235.64,-55.5 235.64,-73.5 358.36,-73.5 358.36,-55.5 235.64,-55.5"/>
<text text-anchor="middle" x="297" y="-61.5" font-family="Helvetica,sans-Serif" font-size="10.00">../UIobjects/phi_Outlet.h</text>
</a>
</g>
</g>
<!-- Node6&#45;&gt;Node9 -->
<g id="edge14" class="edge">
<title>Node6&#45;&gt;Node9</title>
<path fill="none" stroke="midnightblue" d="M259.88,-110.22C266.24,-102.55 275.88,-90.94 283.74,-81.47"/>
<polygon fill="midnightblue" stroke="midnightblue" points="286.62,-83.48 290.32,-73.55 281.24,-79.01 286.62,-83.48"/>
</g>
<!-- Node7&#45;&gt;Node2 -->
<g id="edge11" class="edge">
<title>Node7&#45;&gt;Node2</title>
<path fill="none" stroke="midnightblue" d="M149.43,-55.45C179.15,-46.4 227.6,-31.64 260.83,-21.52"/>
<polygon fill="midnightblue" stroke="midnightblue" points="262.06,-24.8 270.61,-18.54 260.02,-18.1 262.06,-24.8"/>
</g>
<!-- Node8&#45;&gt;Node2 -->
<g id="edge13" class="edge">
<title>Node8&#45;&gt;Node2</title>
<path fill="none" stroke="midnightblue" d="M413.19,-55.45C390.36,-46.62 353.49,-32.35 327.42,-22.27"/>
<polygon fill="midnightblue" stroke="midnightblue" points="328.59,-18.97 318,-18.63 326.07,-25.5 328.59,-18.97"/>
</g>
<!-- Node9&#45;&gt;Node2 -->
<g id="edge15" class="edge">
<title>Node9&#45;&gt;Node2</title>
<path fill="none" stroke="midnightblue" d="M297,-55.22C297,-48.18 297,-37.81 297,-28.83"/>
<polygon fill="midnightblue" stroke="midnightblue" points="300.5,-28.55 297,-18.55 293.5,-28.55 300.5,-28.55"/>
</g>
<!-- Node10&#45;&gt;Node2 -->
<g id="edge17" class="edge">
<title>Node10&#45;&gt;Node2</title>
<path fill="none" stroke="midnightblue" d="M454.02,-110.36C479.34,-98.89 517.64,-76.93 500,-55 481.04,-31.43 399.81,-19.64 346.03,-14.32"/>
<polygon fill="midnightblue" stroke="midnightblue" points="346.29,-10.83 336,-13.37 345.62,-17.8 346.29,-10.83"/>
</g>
<!-- Node10&#45;&gt;Node8 -->
<g id="edge18" class="edge">
<title>Node10&#45;&gt;Node8</title>
<path fill="none" stroke="midnightblue" d="M434,-110.22C434,-103.18 434,-92.81 434,-83.83"/>
<polygon fill="midnightblue" stroke="midnightblue" points="437.5,-83.55 434,-73.55 430.5,-83.55 437.5,-83.55"/>
</g>
<!-- Node10&#45;&gt;Node9 -->
<g id="edge19" class="edge">
<title>Node10&#45;&gt;Node9</title>
<path fill="none" stroke="midnightblue" d="M413.19,-110.45C390.36,-101.62 353.49,-87.35 327.42,-77.27"/>
<polygon fill="midnightblue" stroke="midnightblue" points="328.59,-73.97 318,-73.63 326.07,-80.5 328.59,-73.97"/>
</g>
</g>
</svg>
