<?xml version="1.0" encoding="UTF-8" standalone="no"?>
<!DOCTYPE svg PUBLIC "-//W3C//DTD SVG 1.1//EN"
 "http://www.w3.org/Graphics/SVG/1.1/DTD/svg11.dtd">
<!-- Generated by graphviz version 2.42.3 (20191010.1750)
 -->
<!-- Title: Source/src/MainPatcher.h Pages: 1 -->
<svg width="483pt" height="247pt"
 viewBox="0.00 0.00 483.37 247.00" xmlns="http://www.w3.org/2000/svg" xmlns:xlink="http://www.w3.org/1999/xlink">
<g id="graph0" class="graph" transform="scale(1 1) rotate(0) translate(4 243)">
<title>Source/src/MainPatcher.h</title>
<polygon fill="white" stroke="transparent" points="-4,4 -4,-243 479.37,-243 479.37,4 -4,4"/>
<!-- Node1 -->
<g id="node1" class="node">
<title>Node1</title>
<g id="a_node1"><a xlink:title=" ">
<polygon fill="#bfbfbf" stroke="black" points="45.72,-220.5 45.72,-238.5 176.22,-238.5 176.22,-220.5 45.72,-220.5"/>
<text text-anchor="middle" x="110.97" y="-226.5" font-family="Helvetica,sans-Serif" font-size="10.00">Source/src/MainPatcher.h</text>
</a>
</g>
</g>
<!-- Node2 -->
<g id="node2" class="node">
<title>Node2</title>
<g id="a_node2"><a xlink:title=" ">
<polygon fill="white" stroke="#bfbfbf" points="138.12,-0.5 138.12,-18.5 215.83,-18.5 215.83,-0.5 138.12,-0.5"/>
<text text-anchor="middle" x="176.97" y="-6.5" font-family="Helvetica,sans-Serif" font-size="10.00">JuceHeader.h</text>
</a>
</g>
</g>
<!-- Node1&#45;&gt;Node2 -->
<g id="edge1" class="edge">
<title>Node1&#45;&gt;Node2</title>
<path fill="none" stroke="midnightblue" d="M97.28,-220.43C84.7,-212.47 66.21,-199.29 53.97,-184 16.55,-137.23 -21.34,-102.63 14.97,-55 28.72,-36.96 85.56,-24.42 128.06,-17.35"/>
<polygon fill="midnightblue" stroke="midnightblue" points="128.65,-20.8 137.97,-15.75 127.54,-13.89 128.65,-20.8"/>
</g>
<!-- Node3 -->
<g id="node3" class="node">
<title>Node3</title>
<g id="a_node3"><a xlink:href="$_module_box_8h.html" xlink:title=" ">
<polygon fill="white" stroke="black" points="63.23,-165.5 63.23,-183.5 158.72,-183.5 158.72,-165.5 63.23,-165.5"/>
<text text-anchor="middle" x="110.97" y="-171.5" font-family="Helvetica,sans-Serif" font-size="10.00">../lib/ModuleBox.h</text>
</a>
</g>
</g>
<!-- Node1&#45;&gt;Node3 -->
<g id="edge2" class="edge">
<title>Node1&#45;&gt;Node3</title>
<path fill="none" stroke="midnightblue" d="M110.97,-220.22C110.97,-213.18 110.97,-202.81 110.97,-193.83"/>
<polygon fill="midnightblue" stroke="midnightblue" points="114.47,-193.55 110.97,-183.55 107.47,-193.55 114.47,-193.55"/>
</g>
<!-- Node8 -->
<g id="node8" class="node">
<title>Node8</title>
<g id="a_node8"><a xlink:href="$_connections_8h.html" xlink:title=" ">
<polygon fill="white" stroke="black" points="303.45,-110.5 303.45,-128.5 404.5,-128.5 404.5,-110.5 303.45,-110.5"/>
<text text-anchor="middle" x="353.97" y="-116.5" font-family="Helvetica,sans-Serif" font-size="10.00">../lib/Connections.h</text>
</a>
</g>
</g>
<!-- Node1&#45;&gt;Node8 -->
<g id="edge12" class="edge">
<title>Node1&#45;&gt;Node8</title>
<path fill="none" stroke="midnightblue" d="M129.24,-220.38C171.56,-201.57 276.53,-154.92 326.58,-132.67"/>
<polygon fill="midnightblue" stroke="midnightblue" points="328.11,-135.82 335.83,-128.56 325.27,-129.43 328.11,-135.82"/>
</g>
<!-- Node3&#45;&gt;Node2 -->
<g id="edge3" class="edge">
<title>Node3&#45;&gt;Node2</title>
<path fill="none" stroke="midnightblue" d="M97.13,-165.37C65.97,-146.06 -4.66,-95.96 25.97,-55 49.19,-23.96 93.03,-13.65 127.51,-10.64"/>
<polygon fill="midnightblue" stroke="midnightblue" points="128.15,-14.1 137.88,-9.92 127.66,-7.12 128.15,-14.1"/>
</g>
<!-- Node4 -->
<g id="node4" class="node">
<title>Node4</title>
<g id="a_node4"><a xlink:href="$phi___impulse_8h.html" xlink:title=" ">
<polygon fill="white" stroke="black" points="117.55,-110.5 117.55,-128.5 236.39,-128.5 236.39,-110.5 117.55,-110.5"/>
<text text-anchor="middle" x="176.97" y="-116.5" font-family="Helvetica,sans-Serif" font-size="10.00">modules/phi_Impulse.h</text>
</a>
</g>
</g>
<!-- Node3&#45;&gt;Node4 -->
<g id="edge4" class="edge">
<title>Node3&#45;&gt;Node4</title>
<path fill="none" stroke="midnightblue" d="M121,-165.45C130.98,-157.43 146.53,-144.95 158.71,-135.17"/>
<polygon fill="midnightblue" stroke="midnightblue" points="161.25,-137.62 166.85,-128.63 156.87,-132.16 161.25,-137.62"/>
</g>
<!-- Node4&#45;&gt;Node2 -->
<g id="edge5" class="edge">
<title>Node4&#45;&gt;Node2</title>
<path fill="none" stroke="midnightblue" d="M176.97,-110.38C176.97,-93.18 176.97,-52.7 176.97,-28.89"/>
<polygon fill="midnightblue" stroke="midnightblue" points="180.47,-28.71 176.97,-18.71 173.47,-28.71 180.47,-28.71"/>
</g>
<!-- Node5 -->
<g id="node5" class="node">
<title>Node5</title>
<g id="a_node5"><a xlink:href="$phi___dial_8h.html" xlink:title=" ">
<polygon fill="white" stroke="black" points="35.34,-55.5 35.34,-73.5 148.61,-73.5 148.61,-55.5 35.34,-55.5"/>
<text text-anchor="middle" x="91.97" y="-61.5" font-family="Helvetica,sans-Serif" font-size="10.00">../UIobjects/phi_Dial.h</text>
</a>
</g>
</g>
<!-- Node4&#45;&gt;Node5 -->
<g id="edge6" class="edge">
<title>Node4&#45;&gt;Node5</title>
<path fill="none" stroke="midnightblue" d="M164.06,-110.45C150.71,-102.12 129.61,-88.97 113.69,-79.04"/>
<polygon fill="midnightblue" stroke="midnightblue" points="115.34,-75.95 105,-73.63 111.64,-81.89 115.34,-75.95"/>
</g>
<!-- Node6 -->
<g id="node6" class="node">
<title>Node6</title>
<g id="a_node6"><a xlink:href="$phi___inlet_8h.html" xlink:title=" ">
<polygon fill="white" stroke="black" points="345.5,-55.5 345.5,-73.5 460.44,-73.5 460.44,-55.5 345.5,-55.5"/>
<text text-anchor="middle" x="402.97" y="-61.5" font-family="Helvetica,sans-Serif" font-size="10.00">../UIobjects/phi_Inlet.h</text>
</a>
</g>
</g>
<!-- Node4&#45;&gt;Node6 -->
<g id="edge8" class="edge">
<title>Node4&#45;&gt;Node6</title>
<path fill="none" stroke="midnightblue" d="M211.3,-110.45C250.74,-101.2 315.56,-86 358.75,-75.87"/>
<polygon fill="midnightblue" stroke="midnightblue" points="359.76,-79.23 368.7,-73.54 358.16,-72.41 359.76,-79.23"/>
</g>
<!-- Node7 -->
<g id="node7" class="node">
<title>Node7</title>
<g id="a_node7"><a xlink:href="$phi___outlet_8h.html" xlink:title=" ">
<polygon fill="white" stroke="black" points="204.61,-55.5 204.61,-73.5 327.33,-73.5 327.33,-55.5 204.61,-55.5"/>
<text text-anchor="middle" x="265.97" y="-61.5" font-family="Helvetica,sans-Serif" font-size="10.00">../UIobjects/phi_Outlet.h</text>
</a>
</g>
</g>
<!-- Node4&#45;&gt;Node7 -->
<g id="edge10" class="edge">
<title>Node4&#45;&gt;Node7</title>
<path fill="none" stroke="midnightblue" d="M190.49,-110.45C204.6,-102.05 226.97,-88.72 243.7,-78.76"/>
<polygon fill="midnightblue" stroke="midnightblue" points="245.53,-81.75 252.33,-73.63 241.95,-75.73 245.53,-81.75"/>
</g>
<!-- Node5&#45;&gt;Node2 -->
<g id="edge7" class="edge">
<title>Node5&#45;&gt;Node2</title>
<path fill="none" stroke="midnightblue" d="M104.88,-55.45C118.24,-47.12 139.33,-33.97 155.26,-24.04"/>
<polygon fill="midnightblue" stroke="midnightblue" points="157.31,-26.89 163.94,-18.63 153.6,-20.95 157.31,-26.89"/>
</g>
<!-- Node6&#45;&gt;Node2 -->
<g id="edge9" class="edge">
<title>Node6&#45;&gt;Node2</title>
<path fill="none" stroke="midnightblue" d="M368.65,-55.45C329.21,-46.2 264.38,-31 221.19,-20.87"/>
<polygon fill="midnightblue" stroke="midnightblue" points="221.78,-17.41 211.25,-18.54 220.19,-24.23 221.78,-17.41"/>
</g>
<!-- Node7&#45;&gt;Node2 -->
<g id="edge11" class="edge">
<title>Node7&#45;&gt;Node2</title>
<path fill="none" stroke="midnightblue" d="M252.46,-55.45C238.34,-47.05 215.97,-33.72 199.24,-23.76"/>
<polygon fill="midnightblue" stroke="midnightblue" points="201,-20.73 190.62,-18.63 197.42,-26.75 201,-20.73"/>
</g>
<!-- Node8&#45;&gt;Node2 -->
<g id="edge13" class="edge">
<title>Node8&#45;&gt;Node2</title>
<path fill="none" stroke="midnightblue" d="M398.84,-110.44C440.6,-101.01 493.05,-83.02 468.97,-55 438.25,-19.24 301.05,-11.89 226.16,-10.59"/>
<polygon fill="midnightblue" stroke="midnightblue" points="226.07,-7.09 216.02,-10.45 225.97,-14.09 226.07,-7.09"/>
</g>
<!-- Node8&#45;&gt;Node6 -->
<g id="edge14" class="edge">
<title>Node8&#45;&gt;Node6</title>
<path fill="none" stroke="midnightblue" d="M361.63,-110.22C368.79,-102.47 379.67,-90.7 388.48,-81.18"/>
<polygon fill="midnightblue" stroke="midnightblue" points="391.31,-83.27 395.53,-73.55 386.17,-78.52 391.31,-83.27"/>
</g>
<!-- Node8&#45;&gt;Node7 -->
<g id="edge15" class="edge">
<title>Node8&#45;&gt;Node7</title>
<path fill="none" stroke="midnightblue" d="M340.61,-110.45C326.78,-102.12 304.94,-88.97 288.45,-79.04"/>
<polygon fill="midnightblue" stroke="midnightblue" points="289.84,-75.79 279.46,-73.63 286.22,-81.78 289.84,-75.79"/>
</g>
</g>
</svg>
