<?xml version="1.0" encoding="UTF-8" standalone="no"?>
<!DOCTYPE svg PUBLIC "-//W3C//DTD SVG 1.1//EN"
 "http://www.w3.org/Graphics/SVG/1.1/DTD/svg11.dtd">
<!-- Generated by graphviz version 2.42.3 (20191010.1750)
 -->
<!-- Title: Source/src/MainPatcher.h Pages: 1 -->
<svg width="425pt" height="257pt"
 viewBox="0.00 0.00 425.15 257.00" xmlns="http://www.w3.org/2000/svg" xmlns:xlink="http://www.w3.org/1999/xlink">
<g id="graph0" class="graph" transform="scale(1 1) rotate(0) translate(4 253)">
<title>Source/src/MainPatcher.h</title>
<polygon fill="white" stroke="transparent" points="-4,4 -4,-253 421.15,-253 421.15,4 -4,4"/>
<!-- Node1 -->
<g id="node1" class="node">
<title>Node1</title>
<g id="a_node1"><a xlink:title=" ">
<polygon fill="#bfbfbf" stroke="black" points="71.9,-230.5 71.9,-248.5 202.4,-248.5 202.4,-230.5 71.9,-230.5"/>
<text text-anchor="middle" x="137.15" y="-236.5" font-family="Helvetica,sans-Serif" font-size="10.00">Source/src/MainPatcher.h</text>
</a>
</g>
</g>
<!-- Node2 -->
<g id="node2" class="node">
<title>Node2</title>
<g id="a_node2"><a xlink:title=" ">
<polygon fill="white" stroke="#bfbfbf" points="161.29,-0.5 161.29,-18.5 239,-18.5 239,-0.5 161.29,-0.5"/>
<text text-anchor="middle" x="200.15" y="-6.5" font-family="Helvetica,sans-Serif" font-size="10.00">JuceHeader.h</text>
</a>
</g>
</g>
<!-- Node1&#45;&gt;Node2 -->
<g id="edge1" class="edge">
<title>Node1&#45;&gt;Node2</title>
<path fill="none" stroke="midnightblue" d="M71.63,-232.72C46.31,-226.91 19.72,-215.64 4.15,-194 -3.38,-183.54 1.42,-177.6 4.15,-165 15.52,-112.51 13.77,-90.41 54.15,-55 80.99,-31.45 120.04,-20.37 150.99,-15.14"/>
<polygon fill="midnightblue" stroke="midnightblue" points="151.8,-18.56 161.15,-13.59 150.74,-11.64 151.8,-18.56"/>
</g>
<!-- Node3 -->
<g id="node3" class="node">
<title>Node3</title>
<g id="a_node3"><a xlink:href="$_module_box_8h.html" xlink:title=" ">
<polygon fill="white" stroke="black" points="13.4,-170.5 13.4,-188.5 108.89,-188.5 108.89,-170.5 13.4,-170.5"/>
<text text-anchor="middle" x="61.15" y="-176.5" font-family="Helvetica,sans-Serif" font-size="10.00">../lib/ModuleBox.h</text>
</a>
</g>
</g>
<!-- Node1&#45;&gt;Node3 -->
<g id="edge2" class="edge">
<title>Node1&#45;&gt;Node3</title>
<path fill="none" stroke="midnightblue" d="M126.58,-230.44C114.58,-221.28 94.76,-206.15 80.07,-194.94"/>
<polygon fill="midnightblue" stroke="midnightblue" points="82.19,-192.16 72.12,-188.87 77.94,-197.72 82.19,-192.16"/>
</g>
<!-- Node7 -->
<g id="node7" class="node">
<title>Node7</title>
<g id="a_node7"><a xlink:href="$_connections_8h.html" xlink:title=" ">
<polygon fill="white" stroke="black" points="64.62,-110.5 64.62,-128.5 165.67,-128.5 165.67,-110.5 64.62,-110.5"/>
<text text-anchor="middle" x="115.15" y="-116.5" font-family="Helvetica,sans-Serif" font-size="10.00">../lib/Connections.h</text>
</a>
</g>
</g>
<!-- Node1&#45;&gt;Node7 -->
<g id="edge10" class="edge">
<title>Node1&#45;&gt;Node7</title>
<path fill="none" stroke="midnightblue" d="M135.64,-230.39C132.13,-211.61 123.4,-164.77 118.54,-138.71"/>
<polygon fill="midnightblue" stroke="midnightblue" points="121.94,-137.86 116.67,-128.67 115.06,-139.14 121.94,-137.86"/>
</g>
<!-- Node8 -->
<g id="node8" class="node">
<title>Node8</title>
<g id="a_node8"><a xlink:href="$module___impulse_8h.html" xlink:title=" ">
<polygon fill="white" stroke="black" points="166.9,-165.5 166.9,-193.5 277.39,-193.5 277.39,-165.5 166.9,-165.5"/>
<text text-anchor="start" x="174.9" y="-181.5" font-family="Helvetica,sans-Serif" font-size="10.00">../lib/modules/module</text>
<text text-anchor="middle" x="222.15" y="-171.5" font-family="Helvetica,sans-Serif" font-size="10.00">_Impulse.h</text>
</a>
</g>
</g>
<!-- Node1&#45;&gt;Node8 -->
<g id="edge14" class="edge">
<title>Node1&#45;&gt;Node8</title>
<path fill="none" stroke="midnightblue" d="M148.97,-230.44C160.63,-222.47 178.91,-210 194.28,-199.52"/>
<polygon fill="midnightblue" stroke="midnightblue" points="196.63,-202.15 202.92,-193.62 192.69,-196.37 196.63,-202.15"/>
</g>
<!-- Node10 -->
<g id="node10" class="node">
<title>Node10</title>
<g id="a_node10"><a xlink:href="$module___gain_8h.html" xlink:title=" ">
<polygon fill="white" stroke="black" points="295.9,-165.5 295.9,-193.5 406.39,-193.5 406.39,-165.5 295.9,-165.5"/>
<text text-anchor="start" x="303.9" y="-181.5" font-family="Helvetica,sans-Serif" font-size="10.00">../lib/modules/module</text>
<text text-anchor="middle" x="351.15" y="-171.5" font-family="Helvetica,sans-Serif" font-size="10.00">_Gain.h</text>
</a>
</g>
</g>
<!-- Node1&#45;&gt;Node10 -->
<g id="edge19" class="edge">
<title>Node1&#45;&gt;Node10</title>
<path fill="none" stroke="midnightblue" d="M166.9,-230.44C199.48,-221.61 252.5,-207.24 293.32,-196.17"/>
<polygon fill="midnightblue" stroke="midnightblue" points="294.41,-199.5 303.15,-193.51 292.58,-192.75 294.41,-199.5"/>
</g>
<!-- Node3&#45;&gt;Node2 -->
<g id="edge3" class="edge">
<title>Node3&#45;&gt;Node2</title>
<path fill="none" stroke="midnightblue" d="M58.6,-170.25C52.36,-148.25 38.95,-87.65 69.15,-55 90.28,-32.15 123.58,-21.03 151.32,-15.62"/>
<polygon fill="midnightblue" stroke="midnightblue" points="152.01,-19.05 161.26,-13.87 150.8,-12.16 152.01,-19.05"/>
</g>
<!-- Node4 -->
<g id="node4" class="node">
<title>Node4</title>
<g id="a_node4"><a xlink:href="$_module_8h.html" xlink:title=" ">
<polygon fill="white" stroke="black" points="183.58,-110.5 183.58,-128.5 240.72,-128.5 240.72,-110.5 183.58,-110.5"/>
<text text-anchor="middle" x="212.15" y="-116.5" font-family="Helvetica,sans-Serif" font-size="10.00">Module.h</text>
</a>
</g>
</g>
<!-- Node3&#45;&gt;Node4 -->
<g id="edge4" class="edge">
<title>Node3&#45;&gt;Node4</title>
<path fill="none" stroke="midnightblue" d="M82.14,-170.44C107.92,-160.54 151.83,-143.67 181.41,-132.31"/>
<polygon fill="midnightblue" stroke="midnightblue" points="182.76,-135.54 190.84,-128.68 180.25,-129 182.76,-135.54"/>
</g>
<!-- Node4&#45;&gt;Node2 -->
<g id="edge5" class="edge">
<title>Node4&#45;&gt;Node2</title>
<path fill="none" stroke="midnightblue" d="M221.17,-110.47C233.34,-98.6 252.59,-75.55 244.15,-55 239.28,-43.15 229.56,-32.78 220.49,-25.03"/>
<polygon fill="midnightblue" stroke="midnightblue" points="222.52,-22.17 212.51,-18.69 218.16,-27.65 222.52,-22.17"/>
</g>
<!-- Node5 -->
<g id="node5" class="node">
<title>Node5</title>
<g id="a_node5"><a xlink:href="$phi___inlet_8h.html" xlink:title=" ">
<polygon fill="white" stroke="black" points="85.07,-55.5 85.07,-73.5 147.22,-73.5 147.22,-55.5 85.07,-55.5"/>
<text text-anchor="middle" x="116.15" y="-61.5" font-family="Helvetica,sans-Serif" font-size="10.00">phi_Inlet.h</text>
</a>
</g>
</g>
<!-- Node4&#45;&gt;Node5 -->
<g id="edge6" class="edge">
<title>Node4&#45;&gt;Node5</title>
<path fill="none" stroke="midnightblue" d="M197.57,-110.45C182.2,-101.97 157.77,-88.48 139.67,-78.49"/>
<polygon fill="midnightblue" stroke="midnightblue" points="141.31,-75.39 130.86,-73.63 137.93,-81.52 141.31,-75.39"/>
</g>
<!-- Node6 -->
<g id="node6" class="node">
<title>Node6</title>
<g id="a_node6"><a xlink:href="$phi___outlet_8h.html" xlink:title=" ">
<polygon fill="white" stroke="black" points="165.18,-55.5 165.18,-73.5 235.11,-73.5 235.11,-55.5 165.18,-55.5"/>
<text text-anchor="middle" x="200.15" y="-61.5" font-family="Helvetica,sans-Serif" font-size="10.00">phi_Outlet.h</text>
</a>
</g>
</g>
<!-- Node4&#45;&gt;Node6 -->
<g id="edge8" class="edge">
<title>Node4&#45;&gt;Node6</title>
<path fill="none" stroke="midnightblue" d="M210.27,-110.22C208.66,-103.1 206.28,-92.58 204.23,-83.53"/>
<polygon fill="midnightblue" stroke="midnightblue" points="207.59,-82.53 201.97,-73.55 200.76,-84.08 207.59,-82.53"/>
</g>
<!-- Node5&#45;&gt;Node2 -->
<g id="edge7" class="edge">
<title>Node5&#45;&gt;Node2</title>
<path fill="none" stroke="midnightblue" d="M128.91,-55.45C142.1,-47.12 162.95,-33.97 178.69,-24.04"/>
<polygon fill="midnightblue" stroke="midnightblue" points="180.68,-26.92 187.27,-18.63 176.94,-21 180.68,-26.92"/>
</g>
<!-- Node6&#45;&gt;Node2 -->
<g id="edge9" class="edge">
<title>Node6&#45;&gt;Node2</title>
<path fill="none" stroke="midnightblue" d="M200.15,-55.22C200.15,-48.18 200.15,-37.81 200.15,-28.83"/>
<polygon fill="midnightblue" stroke="midnightblue" points="203.65,-28.55 200.15,-18.55 196.65,-28.55 203.65,-28.55"/>
</g>
<!-- Node7&#45;&gt;Node2 -->
<g id="edge11" class="edge">
<title>Node7&#45;&gt;Node2</title>
<path fill="none" stroke="midnightblue" d="M103.86,-110.48C88.03,-98.23 62.6,-74.26 76.15,-55 93.07,-30.95 124.27,-19.83 151.14,-14.72"/>
<polygon fill="midnightblue" stroke="midnightblue" points="151.9,-18.14 161.19,-13.05 150.75,-11.24 151.9,-18.14"/>
</g>
<!-- Node7&#45;&gt;Node5 -->
<g id="edge12" class="edge">
<title>Node7&#45;&gt;Node5</title>
<path fill="none" stroke="midnightblue" d="M115.3,-110.22C115.44,-103.18 115.63,-92.81 115.8,-83.83"/>
<polygon fill="midnightblue" stroke="midnightblue" points="119.31,-83.61 116,-73.55 112.31,-83.48 119.31,-83.61"/>
</g>
<!-- Node7&#45;&gt;Node6 -->
<g id="edge13" class="edge">
<title>Node7&#45;&gt;Node6</title>
<path fill="none" stroke="midnightblue" d="M128.06,-110.45C141.41,-102.12 162.51,-88.97 178.43,-79.04"/>
<polygon fill="midnightblue" stroke="midnightblue" points="180.48,-81.89 187.12,-73.63 176.78,-75.95 180.48,-81.89"/>
</g>
<!-- Node8&#45;&gt;Node2 -->
<g id="edge15" class="edge">
<title>Node8&#45;&gt;Node2</title>
<path fill="none" stroke="midnightblue" d="M232.51,-165.33C249.41,-142.14 279.21,-92.87 260.15,-55 253.32,-41.43 240.17,-30.96 227.93,-23.6"/>
<polygon fill="midnightblue" stroke="midnightblue" points="229.3,-20.36 218.85,-18.57 225.91,-26.48 229.3,-20.36"/>
</g>
<!-- Node8&#45;&gt;Node4 -->
<g id="edge16" class="edge">
<title>Node8&#45;&gt;Node4</title>
<path fill="none" stroke="midnightblue" d="M219.88,-165.34C218.52,-157.44 216.77,-147.29 215.27,-138.64"/>
<polygon fill="midnightblue" stroke="midnightblue" points="218.72,-138.03 213.57,-128.77 211.82,-139.22 218.72,-138.03"/>
</g>
<!-- Node9 -->
<g id="node9" class="node">
<title>Node9</title>
<g id="a_node9"><a xlink:href="$ui___dial_8h.html" xlink:title=" ">
<polygon fill="white" stroke="black" points="297.29,-110.5 297.29,-128.5 405,-128.5 405,-110.5 297.29,-110.5"/>
<text text-anchor="middle" x="351.15" y="-116.5" font-family="Helvetica,sans-Serif" font-size="10.00">../UIobjects/ui_Dial.h</text>
</a>
</g>
</g>
<!-- Node8&#45;&gt;Node9 -->
<g id="edge17" class="edge">
<title>Node8&#45;&gt;Node9</title>
<path fill="none" stroke="midnightblue" d="M251.1,-165.48C272.87,-155.69 302.5,-142.37 323.86,-132.77"/>
<polygon fill="midnightblue" stroke="midnightblue" points="325.35,-135.94 333.04,-128.64 322.48,-129.55 325.35,-135.94"/>
</g>
<!-- Node9&#45;&gt;Node2 -->
<g id="edge18" class="edge">
<title>Node9&#45;&gt;Node2</title>
<path fill="none" stroke="midnightblue" d="M348.55,-110.31C343.91,-96.94 332.99,-70.4 315.15,-55 296.39,-38.81 271.08,-28.16 248.98,-21.35"/>
<polygon fill="midnightblue" stroke="midnightblue" points="249.66,-17.91 239.08,-18.49 247.72,-24.63 249.66,-17.91"/>
</g>
<!-- Node10&#45;&gt;Node2 -->
<g id="edge20" class="edge">
<title>Node10&#45;&gt;Node2</title>
<path fill="none" stroke="midnightblue" d="M378.18,-165.32C400.09,-152.68 425.61,-132.27 414.15,-110 383.04,-49.55 302.34,-25.66 249.42,-16.33"/>
<polygon fill="midnightblue" stroke="midnightblue" points="249.66,-12.83 239.23,-14.66 248.53,-19.73 249.66,-12.83"/>
</g>
<!-- Node10&#45;&gt;Node4 -->
<g id="edge21" class="edge">
<title>Node10&#45;&gt;Node4</title>
<path fill="none" stroke="midnightblue" d="M319.95,-165.48C296.28,-155.61 263.99,-142.13 240.93,-132.51"/>
<polygon fill="midnightblue" stroke="midnightblue" points="242.24,-129.26 231.66,-128.64 239.54,-135.72 242.24,-129.26"/>
</g>
<!-- Node10&#45;&gt;Node9 -->
<g id="edge22" class="edge">
<title>Node10&#45;&gt;Node9</title>
<path fill="none" stroke="midnightblue" d="M351.15,-165.34C351.15,-157.53 351.15,-147.51 351.15,-138.93"/>
<polygon fill="midnightblue" stroke="midnightblue" points="354.65,-138.77 351.15,-128.77 347.65,-138.77 354.65,-138.77"/>
</g>
</g>
</svg>
