<?xml version="1.0" encoding="UTF-8" standalone="no"?>
<!DOCTYPE svg PUBLIC "-//W3C//DTD SVG 1.1//EN"
 "http://www.w3.org/Graphics/SVG/1.1/DTD/svg11.dtd">
<!-- Generated by graphviz version 2.42.3 (20191010.1750)
 -->
<!-- Title: Source/src/MainPatcher.h Pages: 1 -->
<svg width="370pt" height="137pt"
 viewBox="0.00 0.00 370.11 137.00" xmlns="http://www.w3.org/2000/svg" xmlns:xlink="http://www.w3.org/1999/xlink">
<g id="graph0" class="graph" transform="scale(1 1) rotate(0) translate(4 133)">
<title>Source/src/MainPatcher.h</title>
<polygon fill="white" stroke="transparent" points="-4,4 -4,-133 366.11,-133 366.11,4 -4,4"/>
<!-- Node1 -->
<g id="node1" class="node">
<title>Node1</title>
<g id="a_node1"><a xlink:title=" ">
<polygon fill="#bfbfbf" stroke="black" points="144.32,-110.5 144.32,-128.5 274.82,-128.5 274.82,-110.5 144.32,-110.5"/>
<text text-anchor="middle" x="209.57" y="-116.5" font-family="Helvetica,sans-Serif" font-size="10.00">Source/src/MainPatcher.h</text>
</a>
</g>
</g>
<!-- Node2 -->
<g id="node2" class="node">
<title>Node2</title>
<g id="a_node2"><a xlink:href="$_main_component_8h.html" xlink:title=" ">
<polygon fill="white" stroke="black" points="54.43,-55.5 54.43,-73.5 202.72,-73.5 202.72,-55.5 54.43,-55.5"/>
<text text-anchor="middle" x="128.57" y="-61.5" font-family="Helvetica,sans-Serif" font-size="10.00">Source/src/MainComponent.h</text>
</a>
</g>
</g>
<!-- Node1&#45;&gt;Node2 -->
<g id="edge1" class="edge">
<title>Node1&#45;&gt;Node2</title>
<path fill="none" stroke="midnightblue" d="M188.59,-104.77C173.5,-94.89 153.64,-81.9 140.99,-73.63"/>
<polygon fill="midnightblue" stroke="midnightblue" points="186.99,-107.9 197.27,-110.45 190.82,-102.05 186.99,-107.9"/>
</g>
<!-- Node5 -->
<g id="node5" class="node">
<title>Node5</title>
<g id="a_node5"><a xlink:href="$_main_patcher_8cpp.html" xlink:title=" ">
<polygon fill="white" stroke="black" points="221.04,-55.5 221.04,-73.5 362.11,-73.5 362.11,-55.5 221.04,-55.5"/>
<text text-anchor="middle" x="291.57" y="-61.5" font-family="Helvetica,sans-Serif" font-size="10.00">Source/src/MainPatcher.cpp</text>
</a>
</g>
</g>
<!-- Node1&#45;&gt;Node5 -->
<g id="edge4" class="edge">
<title>Node1&#45;&gt;Node5</title>
<path fill="none" stroke="midnightblue" d="M230.81,-104.77C246.1,-94.89 266.19,-81.9 279,-73.63"/>
<polygon fill="midnightblue" stroke="midnightblue" points="228.53,-102.08 222.03,-110.45 232.33,-107.96 228.53,-102.08"/>
</g>
<!-- Node3 -->
<g id="node3" class="node">
<title>Node3</title>
<g id="a_node3"><a xlink:href="$_main_8cpp.html" xlink:title=" ">
<polygon fill="white" stroke="black" points="0,-0.5 0,-18.5 107.15,-18.5 107.15,-0.5 0,-0.5"/>
<text text-anchor="middle" x="53.57" y="-6.5" font-family="Helvetica,sans-Serif" font-size="10.00">Source/src/Main.cpp</text>
</a>
</g>
</g>
<!-- Node2&#45;&gt;Node3 -->
<g id="edge2" class="edge">
<title>Node2&#45;&gt;Node3</title>
<path fill="none" stroke="midnightblue" d="M108.75,-49.49C94.82,-39.65 76.68,-26.83 65.07,-18.63"/>
<polygon fill="midnightblue" stroke="midnightblue" points="107,-52.54 117.18,-55.45 111.04,-46.82 107,-52.54"/>
</g>
<!-- Node4 -->
<g id="node4" class="node">
<title>Node4</title>
<g id="a_node4"><a xlink:href="$_main_component_8cpp.html" xlink:title=" ">
<polygon fill="white" stroke="black" points="125.15,-0.5 125.15,-18.5 284,-18.5 284,-0.5 125.15,-0.5"/>
<text text-anchor="middle" x="204.57" y="-6.5" font-family="Helvetica,sans-Serif" font-size="10.00">Source/src/MainComponent.cpp</text>
</a>
</g>
</g>
<!-- Node2&#45;&gt;Node4 -->
<g id="edge3" class="edge">
<title>Node2&#45;&gt;Node4</title>
<path fill="none" stroke="midnightblue" d="M148.66,-49.49C162.78,-39.65 181.16,-26.83 192.92,-18.63"/>
<polygon fill="midnightblue" stroke="midnightblue" points="146.32,-46.86 140.12,-55.45 150.32,-52.6 146.32,-46.86"/>
</g>
</g>
</svg>
