<?xml version="1.0" encoding="UTF-8" standalone="no"?>
<!DOCTYPE svg PUBLIC "-//W3C//DTD SVG 1.1//EN"
 "http://www.w3.org/Graphics/SVG/1.1/DTD/svg11.dtd">
<!-- Generated by graphviz version 2.42.3 (20191010.1750)
 -->
<!-- Title: Source/src/MainComponent.cpp Pages: 1 -->
<svg width="518pt" height="357pt"
 viewBox="0.00 0.00 517.92 357.00" xmlns="http://www.w3.org/2000/svg" xmlns:xlink="http://www.w3.org/1999/xlink">
<g id="graph0" class="graph" transform="scale(1 1) rotate(0) translate(4 353)">
<title>Source/src/MainComponent.cpp</title>
<polygon fill="white" stroke="transparent" points="-4,4 -4,-353 513.92,-353 513.92,4 -4,4"/>
<!-- Node1 -->
<g id="node1" class="node">
<title>Node1</title>
<g id="a_node1"><a xlink:title=" ">
<polygon fill="#bfbfbf" stroke="black" points="0,-330.5 0,-348.5 158.85,-348.5 158.85,-330.5 0,-330.5"/>
<text text-anchor="middle" x="79.42" y="-336.5" font-family="Helvetica,sans-Serif" font-size="10.00">Source/src/MainComponent.cpp</text>
</a>
</g>
</g>
<!-- Node2 -->
<g id="node2" class="node">
<title>Node2</title>
<g id="a_node2"><a xlink:href="$_main_component_8h.html" xlink:title=" ">
<polygon fill="white" stroke="black" points="30.57,-275.5 30.57,-293.5 128.28,-293.5 128.28,-275.5 30.57,-275.5"/>
<text text-anchor="middle" x="79.42" y="-281.5" font-family="Helvetica,sans-Serif" font-size="10.00">MainComponent.h</text>
</a>
</g>
</g>
<!-- Node1&#45;&gt;Node2 -->
<g id="edge1" class="edge">
<title>Node1&#45;&gt;Node2</title>
<path fill="none" stroke="midnightblue" d="M79.42,-330.22C79.42,-323.18 79.42,-312.81 79.42,-303.83"/>
<polygon fill="midnightblue" stroke="midnightblue" points="82.92,-303.55 79.42,-293.55 75.92,-303.55 82.92,-303.55"/>
</g>
<!-- Node3 -->
<g id="node3" class="node">
<title>Node3</title>
<g id="a_node3"><a xlink:title=" ">
<polygon fill="white" stroke="#bfbfbf" points="302.57,-0.5 302.57,-18.5 380.28,-18.5 380.28,-0.5 302.57,-0.5"/>
<text text-anchor="middle" x="341.42" y="-6.5" font-family="Helvetica,sans-Serif" font-size="10.00">JuceHeader.h</text>
</a>
</g>
</g>
<!-- Node2&#45;&gt;Node3 -->
<g id="edge2" class="edge">
<title>Node2&#45;&gt;Node3</title>
<path fill="none" stroke="midnightblue" d="M69.97,-275.32C51.72,-258.58 13.42,-218.35 13.42,-175.5 13.42,-175.5 13.42,-175.5 13.42,-118.5 13.42,-83.39 30.4,-73.21 60.42,-55 98.48,-31.91 222.25,-19.27 292.17,-13.82"/>
<polygon fill="midnightblue" stroke="midnightblue" points="292.78,-17.28 302.49,-13.03 292.25,-10.3 292.78,-17.28"/>
</g>
<!-- Node4 -->
<g id="node4" class="node">
<title>Node4</title>
<g id="a_node4"><a xlink:href="$_main_patcher_8h.html" xlink:title=" ">
<polygon fill="white" stroke="black" points="259.46,-220.5 259.46,-238.5 339.39,-238.5 339.39,-220.5 259.46,-220.5"/>
<text text-anchor="middle" x="299.42" y="-226.5" font-family="Helvetica,sans-Serif" font-size="10.00">MainPatcher.h</text>
</a>
</g>
</g>
<!-- Node2&#45;&gt;Node4 -->
<g id="edge3" class="edge">
<title>Node2&#45;&gt;Node4</title>
<path fill="none" stroke="midnightblue" d="M112.84,-275.45C151.15,-266.22 214.07,-251.06 256.11,-240.93"/>
<polygon fill="midnightblue" stroke="midnightblue" points="257.15,-244.28 266.06,-238.54 255.52,-237.48 257.15,-244.28"/>
</g>
<!-- Node4&#45;&gt;Node3 -->
<g id="edge4" class="edge">
<title>Node4&#45;&gt;Node3</title>
<path fill="none" stroke="midnightblue" d="M319.14,-220.41C339.02,-212.03 370.4,-198.2 396.42,-184 457.67,-150.58 493.14,-142.08 508.42,-74 519.86,-23.07 444.1,-11.66 390.84,-9.82"/>
<polygon fill="midnightblue" stroke="midnightblue" points="390.6,-6.31 380.52,-9.57 390.43,-13.31 390.6,-6.31"/>
</g>
<!-- Node5 -->
<g id="node5" class="node">
<title>Node5</title>
<g id="a_node5"><a xlink:href="$_module_box_8h.html" xlink:title=" ">
<polygon fill="white" stroke="black" points="291.68,-165.5 291.68,-183.5 387.17,-183.5 387.17,-165.5 291.68,-165.5"/>
<text text-anchor="middle" x="339.42" y="-171.5" font-family="Helvetica,sans-Serif" font-size="10.00">../lib/ModuleBox.h</text>
</a>
</g>
</g>
<!-- Node4&#45;&gt;Node5 -->
<g id="edge5" class="edge">
<title>Node4&#45;&gt;Node5</title>
<path fill="none" stroke="midnightblue" d="M305.67,-220.22C311.4,-212.63 320.05,-201.18 327.15,-191.76"/>
<polygon fill="midnightblue" stroke="midnightblue" points="330.12,-193.64 333.35,-183.55 324.53,-189.42 330.12,-193.64"/>
</g>
<!-- Node10 -->
<g id="node10" class="node">
<title>Node10</title>
<g id="a_node10"><a xlink:href="$_connections_8h.html" xlink:title=" ">
<polygon fill="white" stroke="black" points="156.9,-110.5 156.9,-128.5 257.95,-128.5 257.95,-110.5 156.9,-110.5"/>
<text text-anchor="middle" x="207.42" y="-116.5" font-family="Helvetica,sans-Serif" font-size="10.00">../lib/Connections.h</text>
</a>
</g>
</g>
<!-- Node4&#45;&gt;Node10 -->
<g id="edge15" class="edge">
<title>Node4&#45;&gt;Node10</title>
<path fill="none" stroke="midnightblue" d="M292.51,-220.38C277.32,-202.56 240.84,-159.72 220.93,-136.36"/>
<polygon fill="midnightblue" stroke="midnightblue" points="223.57,-134.05 214.42,-128.71 218.24,-138.59 223.57,-134.05"/>
</g>
<!-- Node5&#45;&gt;Node3 -->
<g id="edge6" class="edge">
<title>Node5&#45;&gt;Node3</title>
<path fill="none" stroke="midnightblue" d="M367.85,-165.43C421.83,-148.67 530.45,-107.29 491.42,-55 468.45,-24.23 425.11,-13.87 390.9,-10.77"/>
<polygon fill="midnightblue" stroke="midnightblue" points="390.83,-7.25 380.6,-10.02 390.32,-14.23 390.83,-7.25"/>
</g>
<!-- Node6 -->
<g id="node6" class="node">
<title>Node6</title>
<g id="a_node6"><a xlink:href="$phi___impulse_8h.html" xlink:title=" ">
<polygon fill="white" stroke="black" points="280,-110.5 280,-128.5 398.84,-128.5 398.84,-110.5 280,-110.5"/>
<text text-anchor="middle" x="339.42" y="-116.5" font-family="Helvetica,sans-Serif" font-size="10.00">modules/phi_Impulse.h</text>
</a>
</g>
</g>
<!-- Node5&#45;&gt;Node6 -->
<g id="edge7" class="edge">
<title>Node5&#45;&gt;Node6</title>
<path fill="none" stroke="midnightblue" d="M339.42,-165.22C339.42,-158.18 339.42,-147.81 339.42,-138.83"/>
<polygon fill="midnightblue" stroke="midnightblue" points="342.92,-138.55 339.42,-128.55 335.92,-138.55 342.92,-138.55"/>
</g>
<!-- Node6&#45;&gt;Node3 -->
<g id="edge8" class="edge">
<title>Node6&#45;&gt;Node3</title>
<path fill="none" stroke="midnightblue" d="M398.97,-114.6C426.95,-109.42 457.93,-98.14 475.42,-74 500.25,-39.75 438,-23.31 390.23,-15.92"/>
<polygon fill="midnightblue" stroke="midnightblue" points="390.69,-12.45 380.29,-14.48 389.69,-19.38 390.69,-12.45"/>
</g>
<!-- Node7 -->
<g id="node7" class="node">
<title>Node7</title>
<g id="a_node7"><a xlink:href="$phi___dial_8h.html" xlink:title=" ">
<polygon fill="white" stroke="black" points="352.79,-55.5 352.79,-73.5 466.06,-73.5 466.06,-55.5 352.79,-55.5"/>
<text text-anchor="middle" x="409.42" y="-61.5" font-family="Helvetica,sans-Serif" font-size="10.00">../UIobjects/phi_Dial.h</text>
</a>
</g>
</g>
<!-- Node6&#45;&gt;Node7 -->
<g id="edge9" class="edge">
<title>Node6&#45;&gt;Node7</title>
<path fill="none" stroke="midnightblue" d="M350.05,-110.45C360.74,-102.36 377.46,-89.7 390.43,-79.88"/>
<polygon fill="midnightblue" stroke="midnightblue" points="392.83,-82.45 398.69,-73.63 388.61,-76.87 392.83,-82.45"/>
</g>
<!-- Node8 -->
<g id="node8" class="node">
<title>Node8</title>
<g id="a_node8"><a xlink:href="$phi___inlet_8h.html" xlink:title=" ">
<polygon fill="white" stroke="black" points="78.95,-55.5 78.95,-73.5 193.9,-73.5 193.9,-55.5 78.95,-55.5"/>
<text text-anchor="middle" x="136.42" y="-61.5" font-family="Helvetica,sans-Serif" font-size="10.00">../UIobjects/phi_Inlet.h</text>
</a>
</g>
</g>
<!-- Node6&#45;&gt;Node8 -->
<g id="edge11" class="edge">
<title>Node6&#45;&gt;Node8</title>
<path fill="none" stroke="midnightblue" d="M308.59,-110.45C273.47,-101.28 215.92,-86.26 177.13,-76.13"/>
<polygon fill="midnightblue" stroke="midnightblue" points="177.77,-72.68 167.21,-73.54 176,-79.45 177.77,-72.68"/>
</g>
<!-- Node9 -->
<g id="node9" class="node">
<title>Node9</title>
<g id="a_node9"><a xlink:href="$phi___outlet_8h.html" xlink:title=" ">
<polygon fill="white" stroke="black" points="212.06,-55.5 212.06,-73.5 334.79,-73.5 334.79,-55.5 212.06,-55.5"/>
<text text-anchor="middle" x="273.42" y="-61.5" font-family="Helvetica,sans-Serif" font-size="10.00">../UIobjects/phi_Outlet.h</text>
</a>
</g>
</g>
<!-- Node6&#45;&gt;Node9 -->
<g id="edge13" class="edge">
<title>Node6&#45;&gt;Node9</title>
<path fill="none" stroke="midnightblue" d="M329.4,-110.45C319.42,-102.43 303.87,-89.95 291.69,-80.17"/>
<polygon fill="midnightblue" stroke="midnightblue" points="293.53,-77.16 283.54,-73.63 289.15,-82.62 293.53,-77.16"/>
</g>
<!-- Node7&#45;&gt;Node3 -->
<g id="edge10" class="edge">
<title>Node7&#45;&gt;Node3</title>
<path fill="none" stroke="midnightblue" d="M399.1,-55.45C388.71,-47.36 372.48,-34.7 359.88,-24.88"/>
<polygon fill="midnightblue" stroke="midnightblue" points="361.89,-22.01 351.85,-18.63 357.58,-27.53 361.89,-22.01"/>
</g>
<!-- Node8&#45;&gt;Node3 -->
<g id="edge12" class="edge">
<title>Node8&#45;&gt;Node3</title>
<path fill="none" stroke="midnightblue" d="M167.56,-55.45C203.11,-46.26 261.39,-31.19 300.56,-21.06"/>
<polygon fill="midnightblue" stroke="midnightblue" points="301.53,-24.43 310.33,-18.54 299.77,-17.65 301.53,-24.43"/>
</g>
<!-- Node9&#45;&gt;Node3 -->
<g id="edge14" class="edge">
<title>Node9&#45;&gt;Node3</title>
<path fill="none" stroke="midnightblue" d="M283.75,-55.45C294.14,-47.36 310.37,-34.7 322.97,-24.88"/>
<polygon fill="midnightblue" stroke="midnightblue" points="325.26,-27.53 331,-18.63 320.96,-22.01 325.26,-27.53"/>
</g>
<!-- Node10&#45;&gt;Node3 -->
<g id="edge16" class="edge">
<title>Node10&#45;&gt;Node3</title>
<path fill="none" stroke="midnightblue" d="M156.73,-112.56C107.04,-104.72 42.51,-87.87 70.42,-55 98.31,-22.16 221.88,-13.51 292.14,-11.26"/>
<polygon fill="midnightblue" stroke="midnightblue" points="292.62,-14.75 302.52,-10.96 292.42,-7.75 292.62,-14.75"/>
</g>
<!-- Node10&#45;&gt;Node8 -->
<g id="edge17" class="edge">
<title>Node10&#45;&gt;Node8</title>
<path fill="none" stroke="midnightblue" d="M196.64,-110.45C185.8,-102.36 168.85,-89.7 155.69,-79.88"/>
<polygon fill="midnightblue" stroke="midnightblue" points="157.42,-76.8 147.31,-73.63 153.23,-82.41 157.42,-76.8"/>
</g>
<!-- Node10&#45;&gt;Node9 -->
<g id="edge18" class="edge">
<title>Node10&#45;&gt;Node9</title>
<path fill="none" stroke="midnightblue" d="M217.45,-110.45C227.43,-102.43 242.98,-89.95 255.16,-80.17"/>
<polygon fill="midnightblue" stroke="midnightblue" points="257.7,-82.62 263.31,-73.63 253.32,-77.16 257.7,-82.62"/>
</g>
</g>
</svg>
