<?xml version="1.0" encoding="UTF-8" standalone="no"?>
<!DOCTYPE svg PUBLIC "-//W3C//DTD SVG 1.1//EN"
 "http://www.w3.org/Graphics/SVG/1.1/DTD/svg11.dtd">
<!-- Generated by graphviz version 2.42.3 (20191010.1750)
 -->
<!-- Title: Source/lib/ModuleBox.h Pages: 1 -->
<svg width="257pt" height="192pt"
 viewBox="0.00 0.00 256.77 192.00" xmlns="http://www.w3.org/2000/svg" xmlns:xlink="http://www.w3.org/1999/xlink">
<g id="graph0" class="graph" transform="scale(1 1) rotate(0) translate(4 188)">
<title>Source/lib/ModuleBox.h</title>
<polygon fill="white" stroke="transparent" points="-4,4 -4,-188 252.77,-188 252.77,4 -4,4"/>
<!-- Node1 -->
<g id="node1" class="node">
<title>Node1</title>
<g id="a_node1"><a xlink:title=" ">
<polygon fill="#bfbfbf" stroke="black" points="0,-165.5 0,-183.5 121.62,-183.5 121.62,-165.5 0,-165.5"/>
<text text-anchor="middle" x="60.81" y="-171.5" font-family="Helvetica,sans-Serif" font-size="10.00">Source/lib/ModuleBox.h</text>
</a>
</g>
</g>
<!-- Node2 -->
<g id="node2" class="node">
<title>Node2</title>
<g id="a_node2"><a xlink:title=" ">
<polygon fill="white" stroke="#bfbfbf" points="60.95,-0.5 60.95,-18.5 138.66,-18.5 138.66,-0.5 60.95,-0.5"/>
<text text-anchor="middle" x="99.81" y="-6.5" font-family="Helvetica,sans-Serif" font-size="10.00">JuceHeader.h</text>
</a>
</g>
</g>
<!-- Node1&#45;&gt;Node2 -->
<g id="edge1" class="edge">
<title>Node1&#45;&gt;Node2</title>
<path fill="none" stroke="midnightblue" d="M62,-165.35C64.95,-145.98 73.15,-95.77 84.81,-55 87.36,-46.06 90.62,-36.26 93.44,-28.13"/>
<polygon fill="midnightblue" stroke="midnightblue" points="96.77,-29.22 96.81,-18.63 90.17,-26.89 96.77,-29.22"/>
</g>
<!-- Node3 -->
<g id="node3" class="node">
<title>Node3</title>
<g id="a_node3"><a xlink:href="$_module_8h.html" xlink:title=" ">
<polygon fill="white" stroke="black" points="81.24,-110.5 81.24,-128.5 138.38,-128.5 138.38,-110.5 81.24,-110.5"/>
<text text-anchor="middle" x="109.81" y="-116.5" font-family="Helvetica,sans-Serif" font-size="10.00">Module.h</text>
</a>
</g>
</g>
<!-- Node1&#45;&gt;Node3 -->
<g id="edge2" class="edge">
<title>Node1&#45;&gt;Node3</title>
<path fill="none" stroke="midnightblue" d="M68.46,-165.22C75.63,-157.47 86.51,-145.7 95.31,-136.18"/>
<polygon fill="midnightblue" stroke="midnightblue" points="98.15,-138.27 102.37,-128.55 93.01,-133.52 98.15,-138.27"/>
</g>
<!-- Node3&#45;&gt;Node2 -->
<g id="edge3" class="edge">
<title>Node3&#45;&gt;Node2</title>
<path fill="none" stroke="midnightblue" d="M104.86,-110.33C99.93,-101.67 92.68,-87.42 89.81,-74 86.55,-58.81 89.79,-41.36 93.43,-28.6"/>
<polygon fill="midnightblue" stroke="midnightblue" points="96.86,-29.36 96.57,-18.77 90.19,-27.23 96.86,-29.36"/>
</g>
<!-- Node4 -->
<g id="node4" class="node">
<title>Node4</title>
<g id="a_node4"><a xlink:href="$phi___inlet_8h.html" xlink:title=" ">
<polygon fill="white" stroke="black" points="98.73,-55.5 98.73,-73.5 160.88,-73.5 160.88,-55.5 98.73,-55.5"/>
<text text-anchor="middle" x="129.81" y="-61.5" font-family="Helvetica,sans-Serif" font-size="10.00">phi_Inlet.h</text>
</a>
</g>
</g>
<!-- Node3&#45;&gt;Node4 -->
<g id="edge4" class="edge">
<title>Node3&#45;&gt;Node4</title>
<path fill="none" stroke="midnightblue" d="M112.93,-110.22C115.68,-102.94 119.76,-92.11 123.23,-82.93"/>
<polygon fill="midnightblue" stroke="midnightblue" points="126.51,-84.14 126.77,-73.55 119.96,-81.67 126.51,-84.14"/>
</g>
<!-- Node5 -->
<g id="node5" class="node">
<title>Node5</title>
<g id="a_node5"><a xlink:href="$phi___outlet_8h.html" xlink:title=" ">
<polygon fill="white" stroke="black" points="178.84,-55.5 178.84,-73.5 248.77,-73.5 248.77,-55.5 178.84,-55.5"/>
<text text-anchor="middle" x="213.81" y="-61.5" font-family="Helvetica,sans-Serif" font-size="10.00">phi_Outlet.h</text>
</a>
</g>
</g>
<!-- Node3&#45;&gt;Node5 -->
<g id="edge6" class="edge">
<title>Node3&#45;&gt;Node5</title>
<path fill="none" stroke="midnightblue" d="M125.6,-110.45C142.4,-101.89 169.21,-88.23 188.86,-78.21"/>
<polygon fill="midnightblue" stroke="midnightblue" points="190.54,-81.28 197.86,-73.63 187.36,-75.05 190.54,-81.28"/>
</g>
<!-- Node4&#45;&gt;Node2 -->
<g id="edge5" class="edge">
<title>Node4&#45;&gt;Node2</title>
<path fill="none" stroke="midnightblue" d="M125.12,-55.22C120.91,-47.79 114.61,-36.65 109.34,-27.34"/>
<polygon fill="midnightblue" stroke="midnightblue" points="112.34,-25.53 104.36,-18.55 106.24,-28.98 112.34,-25.53"/>
</g>
<!-- Node5&#45;&gt;Node2 -->
<g id="edge7" class="edge">
<title>Node5&#45;&gt;Node2</title>
<path fill="none" stroke="midnightblue" d="M196.49,-55.45C177.91,-46.81 148.16,-32.98 126.56,-22.94"/>
<polygon fill="midnightblue" stroke="midnightblue" points="127.83,-19.67 117.28,-18.63 124.88,-26.01 127.83,-19.67"/>
</g>
</g>
</svg>
