<?xml version="1.0" encoding="UTF-8" standalone="no"?>
<!DOCTYPE svg PUBLIC "-//W3C//DTD SVG 1.1//EN"
 "http://www.w3.org/Graphics/SVG/1.1/DTD/svg11.dtd">
<!-- Generated by graphviz version 2.42.3 (20191010.1750)
 -->
<!-- Title: Source/lib/ModuleBox.h Pages: 1 -->
<svg width="461pt" height="192pt"
 viewBox="0.00 0.00 461.17 192.00" xmlns="http://www.w3.org/2000/svg" xmlns:xlink="http://www.w3.org/1999/xlink">
<g id="graph0" class="graph" transform="scale(1 1) rotate(0) translate(4 188)">
<title>Source/lib/ModuleBox.h</title>
<polygon fill="white" stroke="transparent" points="-4,4 -4,-188 457.17,-188 457.17,4 -4,4"/>
<!-- Node1 -->
<g id="node1" class="node">
<title>Node1</title>
<g id="a_node1"><a xlink:title=" ">
<polygon fill="#bfbfbf" stroke="black" points="0,-165.5 0,-183.5 121.62,-183.5 121.62,-165.5 0,-165.5"/>
<text text-anchor="middle" x="60.81" y="-171.5" font-family="Helvetica,sans-Serif" font-size="10.00">Source/lib/ModuleBox.h</text>
</a>
</g>
</g>
<!-- Node2 -->
<g id="node2" class="node">
<title>Node2</title>
<g id="a_node2"><a xlink:title=" ">
<polygon fill="white" stroke="#bfbfbf" points="83.95,-0.5 83.95,-18.5 161.66,-18.5 161.66,-0.5 83.95,-0.5"/>
<text text-anchor="middle" x="122.81" y="-6.5" font-family="Helvetica,sans-Serif" font-size="10.00">JuceHeader.h</text>
</a>
</g>
</g>
<!-- Node1&#45;&gt;Node2 -->
<g id="edge1" class="edge">
<title>Node1&#45;&gt;Node2</title>
<path fill="none" stroke="midnightblue" d="M57.2,-165.37C48.83,-145.19 30.3,-91.79 50.81,-55 59.03,-40.26 74.36,-29.79 88.77,-22.72"/>
<polygon fill="midnightblue" stroke="midnightblue" points="90.34,-25.86 98.03,-18.56 87.47,-19.47 90.34,-25.86"/>
</g>
<!-- Node3 -->
<g id="node3" class="node">
<title>Node3</title>
<g id="a_node3"><a xlink:href="$phi___impulse_8h.html" xlink:title=" ">
<polygon fill="white" stroke="black" points="63.39,-110.5 63.39,-128.5 182.23,-128.5 182.23,-110.5 63.39,-110.5"/>
<text text-anchor="middle" x="122.81" y="-116.5" font-family="Helvetica,sans-Serif" font-size="10.00">modules/phi_Impulse.h</text>
</a>
</g>
</g>
<!-- Node1&#45;&gt;Node3 -->
<g id="edge2" class="edge">
<title>Node1&#45;&gt;Node3</title>
<path fill="none" stroke="midnightblue" d="M70.22,-165.45C79.6,-157.43 94.21,-144.95 105.65,-135.17"/>
<polygon fill="midnightblue" stroke="midnightblue" points="107.98,-137.78 113.3,-128.63 103.43,-132.46 107.98,-137.78"/>
</g>
<!-- Node3&#45;&gt;Node2 -->
<g id="edge3" class="edge">
<title>Node3&#45;&gt;Node2</title>
<path fill="none" stroke="midnightblue" d="M102.42,-110.46C78.57,-99.75 43.89,-79.29 56.81,-55 64.4,-40.72 78.84,-30.2 92.28,-22.99"/>
<polygon fill="midnightblue" stroke="midnightblue" points="93.92,-26.08 101.33,-18.51 90.81,-19.81 93.92,-26.08"/>
</g>
<!-- Node4 -->
<g id="node4" class="node">
<title>Node4</title>
<g id="a_node4"><a xlink:href="$phi___dial_8h.html" xlink:title=" ">
<polygon fill="white" stroke="black" points="66.17,-55.5 66.17,-73.5 179.44,-73.5 179.44,-55.5 66.17,-55.5"/>
<text text-anchor="middle" x="122.81" y="-61.5" font-family="Helvetica,sans-Serif" font-size="10.00">../UIobjects/phi_Dial.h</text>
</a>
</g>
</g>
<!-- Node3&#45;&gt;Node4 -->
<g id="edge4" class="edge">
<title>Node3&#45;&gt;Node4</title>
<path fill="none" stroke="midnightblue" d="M122.81,-110.22C122.81,-103.18 122.81,-92.81 122.81,-83.83"/>
<polygon fill="midnightblue" stroke="midnightblue" points="126.31,-83.55 122.81,-73.55 119.31,-83.55 126.31,-83.55"/>
</g>
<!-- Node5 -->
<g id="node5" class="node">
<title>Node5</title>
<g id="a_node5"><a xlink:href="$phi___inlet_8h.html" xlink:title=" ">
<polygon fill="white" stroke="black" points="197.33,-55.5 197.33,-73.5 312.28,-73.5 312.28,-55.5 197.33,-55.5"/>
<text text-anchor="middle" x="254.81" y="-61.5" font-family="Helvetica,sans-Serif" font-size="10.00">../UIobjects/phi_Inlet.h</text>
</a>
</g>
</g>
<!-- Node3&#45;&gt;Node5 -->
<g id="edge6" class="edge">
<title>Node3&#45;&gt;Node5</title>
<path fill="none" stroke="midnightblue" d="M142.86,-110.45C164.76,-101.66 200.06,-87.48 225.17,-77.4"/>
<polygon fill="midnightblue" stroke="midnightblue" points="226.6,-80.6 234.57,-73.63 223.99,-74.1 226.6,-80.6"/>
</g>
<!-- Node6 -->
<g id="node6" class="node">
<title>Node6</title>
<g id="a_node6"><a xlink:href="$phi___outlet_8h.html" xlink:title=" ">
<polygon fill="white" stroke="black" points="330.45,-55.5 330.45,-73.5 453.17,-73.5 453.17,-55.5 330.45,-55.5"/>
<text text-anchor="middle" x="391.81" y="-61.5" font-family="Helvetica,sans-Serif" font-size="10.00">../UIobjects/phi_Outlet.h</text>
</a>
</g>
</g>
<!-- Node3&#45;&gt;Node6 -->
<g id="edge8" class="edge">
<title>Node3&#45;&gt;Node6</title>
<path fill="none" stroke="midnightblue" d="M163.66,-110.45C211.2,-101.08 289.72,-85.61 341.11,-75.49"/>
<polygon fill="midnightblue" stroke="midnightblue" points="341.87,-78.91 351.01,-73.54 340.52,-72.04 341.87,-78.91"/>
</g>
<!-- Node4&#45;&gt;Node2 -->
<g id="edge5" class="edge">
<title>Node4&#45;&gt;Node2</title>
<path fill="none" stroke="midnightblue" d="M122.81,-55.22C122.81,-48.18 122.81,-37.81 122.81,-28.83"/>
<polygon fill="midnightblue" stroke="midnightblue" points="126.31,-28.55 122.81,-18.55 119.31,-28.55 126.31,-28.55"/>
</g>
<!-- Node5&#45;&gt;Node2 -->
<g id="edge7" class="edge">
<title>Node5&#45;&gt;Node2</title>
<path fill="none" stroke="midnightblue" d="M234.76,-55.45C212.86,-46.66 177.55,-32.48 152.45,-22.4"/>
<polygon fill="midnightblue" stroke="midnightblue" points="153.63,-19.1 143.04,-18.63 151.02,-25.6 153.63,-19.1"/>
</g>
<!-- Node6&#45;&gt;Node2 -->
<g id="edge9" class="edge">
<title>Node6&#45;&gt;Node2</title>
<path fill="none" stroke="midnightblue" d="M350.95,-55.45C302.86,-45.98 223.07,-30.25 171.73,-20.14"/>
<polygon fill="midnightblue" stroke="midnightblue" points="172.35,-16.69 161.86,-18.19 170.99,-23.56 172.35,-16.69"/>
</g>
</g>
</svg>
