<?xml version="1.0" encoding="UTF-8" standalone="no"?>
<!DOCTYPE svg PUBLIC "-//W3C//DTD SVG 1.1//EN"
 "http://www.w3.org/Graphics/SVG/1.1/DTD/svg11.dtd">
<!-- Generated by graphviz version 2.42.3 (20191010.1750)
 -->
<!-- Title: Source/lib/Module.cpp Pages: 1 -->
<svg width="253pt" height="192pt"
 viewBox="0.00 0.00 253.44 192.00" xmlns="http://www.w3.org/2000/svg" xmlns:xlink="http://www.w3.org/1999/xlink">
<g id="graph0" class="graph" transform="scale(1 1) rotate(0) translate(4 188)">
<title>Source/lib/Module.cpp</title>
<polygon fill="white" stroke="transparent" points="-4,4 -4,-188 249.44,-188 249.44,4 -4,4"/>
<!-- Node1 -->
<g id="node1" class="node">
<title>Node1</title>
<g id="a_node1"><a xlink:title=" ">
<polygon fill="#bfbfbf" stroke="black" points="0,-165.5 0,-183.5 114.95,-183.5 114.95,-165.5 0,-165.5"/>
<text text-anchor="middle" x="57.47" y="-171.5" font-family="Helvetica,sans-Serif" font-size="10.00">Source/lib/Module.cpp</text>
</a>
</g>
</g>
<!-- Node2 -->
<g id="node2" class="node">
<title>Node2</title>
<g id="a_node2"><a xlink:title=" ">
<polygon fill="white" stroke="#bfbfbf" points="57.62,-0.5 57.62,-18.5 135.33,-18.5 135.33,-0.5 57.62,-0.5"/>
<text text-anchor="middle" x="96.47" y="-6.5" font-family="Helvetica,sans-Serif" font-size="10.00">JuceHeader.h</text>
</a>
</g>
</g>
<!-- Node1&#45;&gt;Node2 -->
<g id="edge1" class="edge">
<title>Node1&#45;&gt;Node2</title>
<path fill="none" stroke="midnightblue" d="M58.67,-165.35C61.61,-145.98 69.81,-95.77 81.47,-55 84.03,-46.06 87.28,-36.26 90.11,-28.13"/>
<polygon fill="midnightblue" stroke="midnightblue" points="93.43,-29.22 93.48,-18.63 86.84,-26.89 93.43,-29.22"/>
</g>
<!-- Node3 -->
<g id="node3" class="node">
<title>Node3</title>
<g id="a_node3"><a xlink:href="$_module_8h.html" xlink:title=" ">
<polygon fill="white" stroke="black" points="77.9,-110.5 77.9,-128.5 135.04,-128.5 135.04,-110.5 77.9,-110.5"/>
<text text-anchor="middle" x="106.47" y="-116.5" font-family="Helvetica,sans-Serif" font-size="10.00">Module.h</text>
</a>
</g>
</g>
<!-- Node1&#45;&gt;Node3 -->
<g id="edge2" class="edge">
<title>Node1&#45;&gt;Node3</title>
<path fill="none" stroke="midnightblue" d="M65.13,-165.22C72.29,-157.47 83.17,-145.7 91.98,-136.18"/>
<polygon fill="midnightblue" stroke="midnightblue" points="94.81,-138.27 99.03,-128.55 89.67,-133.52 94.81,-138.27"/>
</g>
<!-- Node3&#45;&gt;Node2 -->
<g id="edge3" class="edge">
<title>Node3&#45;&gt;Node2</title>
<path fill="none" stroke="midnightblue" d="M101.53,-110.33C96.59,-101.67 89.35,-87.42 86.47,-74 83.22,-58.81 86.46,-41.36 90.1,-28.6"/>
<polygon fill="midnightblue" stroke="midnightblue" points="93.53,-29.36 93.24,-18.77 86.86,-27.23 93.53,-29.36"/>
</g>
<!-- Node4 -->
<g id="node4" class="node">
<title>Node4</title>
<g id="a_node4"><a xlink:href="$phi___inlet_8h.html" xlink:title=" ">
<polygon fill="white" stroke="black" points="95.4,-55.5 95.4,-73.5 157.55,-73.5 157.55,-55.5 95.4,-55.5"/>
<text text-anchor="middle" x="126.47" y="-61.5" font-family="Helvetica,sans-Serif" font-size="10.00">phi_Inlet.h</text>
</a>
</g>
</g>
<!-- Node3&#45;&gt;Node4 -->
<g id="edge4" class="edge">
<title>Node3&#45;&gt;Node4</title>
<path fill="none" stroke="midnightblue" d="M109.6,-110.22C112.34,-102.94 116.43,-92.11 119.89,-82.93"/>
<polygon fill="midnightblue" stroke="midnightblue" points="123.18,-84.14 123.44,-73.55 116.63,-81.67 123.18,-84.14"/>
</g>
<!-- Node5 -->
<g id="node5" class="node">
<title>Node5</title>
<g id="a_node5"><a xlink:href="$phi___outlet_8h.html" xlink:title=" ">
<polygon fill="white" stroke="black" points="175.51,-55.5 175.51,-73.5 245.44,-73.5 245.44,-55.5 175.51,-55.5"/>
<text text-anchor="middle" x="210.47" y="-61.5" font-family="Helvetica,sans-Serif" font-size="10.00">phi_Outlet.h</text>
</a>
</g>
</g>
<!-- Node3&#45;&gt;Node5 -->
<g id="edge6" class="edge">
<title>Node3&#45;&gt;Node5</title>
<path fill="none" stroke="midnightblue" d="M122.27,-110.45C139.07,-101.89 165.87,-88.23 185.53,-78.21"/>
<polygon fill="midnightblue" stroke="midnightblue" points="187.21,-81.28 194.53,-73.63 184.03,-75.05 187.21,-81.28"/>
</g>
<!-- Node4&#45;&gt;Node2 -->
<g id="edge5" class="edge">
<title>Node4&#45;&gt;Node2</title>
<path fill="none" stroke="midnightblue" d="M121.79,-55.22C117.58,-47.79 111.27,-36.65 106.01,-27.34"/>
<polygon fill="midnightblue" stroke="midnightblue" points="109,-25.53 101.03,-18.55 102.91,-28.98 109,-25.53"/>
</g>
<!-- Node5&#45;&gt;Node2 -->
<g id="edge7" class="edge">
<title>Node5&#45;&gt;Node2</title>
<path fill="none" stroke="midnightblue" d="M193.16,-55.45C174.58,-46.81 144.83,-32.98 123.23,-22.94"/>
<polygon fill="midnightblue" stroke="midnightblue" points="124.49,-19.67 113.95,-18.63 121.54,-26.01 124.49,-19.67"/>
</g>
</g>
</svg>
