<?xml version="1.0" encoding="UTF-8" standalone="no"?>
<!DOCTYPE svg PUBLIC "-//W3C//DTD SVG 1.1//EN"
 "http://www.w3.org/Graphics/SVG/1.1/DTD/svg11.dtd">
<!-- Generated by graphviz version 2.42.3 (20191010.1750)
 -->
<!-- Title: Source/lib/ModuleBox.cpp Pages: 1 -->
<svg width="533pt" height="247pt"
 viewBox="0.00 0.00 533.45 247.00" xmlns="http://www.w3.org/2000/svg" xmlns:xlink="http://www.w3.org/1999/xlink">
<g id="graph0" class="graph" transform="scale(1 1) rotate(0) translate(4 243)">
<title>Source/lib/ModuleBox.cpp</title>
<polygon fill="white" stroke="transparent" points="-4,4 -4,-243 529.45,-243 529.45,4 -4,4"/>
<!-- Node1 -->
<g id="node1" class="node">
<title>Node1</title>
<g id="a_node1"><a xlink:title=" ">
<polygon fill="#bfbfbf" stroke="black" points="0,-220.5 0,-238.5 132.18,-238.5 132.18,-220.5 0,-220.5"/>
<text text-anchor="middle" x="66.09" y="-226.5" font-family="Helvetica,sans-Serif" font-size="10.00">Source/lib/ModuleBox.cpp</text>
</a>
</g>
</g>
<!-- Node2 -->
<g id="node2" class="node">
<title>Node2</title>
<g id="a_node2"><a xlink:title=" ">
<polygon fill="white" stroke="#bfbfbf" points="113.23,-0.5 113.23,-18.5 190.95,-18.5 190.95,-0.5 113.23,-0.5"/>
<text text-anchor="middle" x="152.09" y="-6.5" font-family="Helvetica,sans-Serif" font-size="10.00">JuceHeader.h</text>
</a>
</g>
</g>
<!-- Node1&#45;&gt;Node2 -->
<g id="edge1" class="edge">
<title>Node1&#45;&gt;Node2</title>
<path fill="none" stroke="midnightblue" d="M62.03,-220.23C56.58,-208.06 48.15,-184.64 53.09,-165 66.61,-111.2 80.2,-100.4 112.09,-55 119.34,-44.67 128.72,-34.12 136.57,-25.89"/>
<polygon fill="midnightblue" stroke="midnightblue" points="139.29,-28.12 143.78,-18.52 134.29,-23.22 139.29,-28.12"/>
</g>
<!-- Node3 -->
<g id="node3" class="node">
<title>Node3</title>
<g id="a_node3"><a xlink:href="$_module_box_8h.html" xlink:title=" ">
<polygon fill="white" stroke="black" points="61.9,-165.5 61.9,-183.5 136.27,-183.5 136.27,-165.5 61.9,-165.5"/>
<text text-anchor="middle" x="99.09" y="-171.5" font-family="Helvetica,sans-Serif" font-size="10.00">ModuleBox.h</text>
</a>
</g>
</g>
<!-- Node1&#45;&gt;Node3 -->
<g id="edge2" class="edge">
<title>Node1&#45;&gt;Node3</title>
<path fill="none" stroke="midnightblue" d="M71.24,-220.22C75.92,-212.71 82.96,-201.41 88.78,-192.05"/>
<polygon fill="midnightblue" stroke="midnightblue" points="91.76,-193.89 94.08,-183.55 85.82,-190.19 91.76,-193.89"/>
</g>
<!-- Node3&#45;&gt;Node2 -->
<g id="edge3" class="edge">
<title>Node3&#45;&gt;Node2</title>
<path fill="none" stroke="midnightblue" d="M99.55,-165.42C100.89,-145.79 105.82,-94.31 122.09,-55 126.23,-44.99 132.8,-34.9 138.73,-26.86"/>
<polygon fill="midnightblue" stroke="midnightblue" points="141.64,-28.82 145,-18.77 136.11,-24.53 141.64,-28.82"/>
</g>
<!-- Node4 -->
<g id="node4" class="node">
<title>Node4</title>
<g id="a_node4"><a xlink:href="$phi___impulse_8h.html" xlink:title=" ">
<polygon fill="white" stroke="black" points="135.67,-110.5 135.67,-128.5 254.51,-128.5 254.51,-110.5 135.67,-110.5"/>
<text text-anchor="middle" x="195.09" y="-116.5" font-family="Helvetica,sans-Serif" font-size="10.00">modules/phi_Impulse.h</text>
</a>
</g>
</g>
<!-- Node3&#45;&gt;Node4 -->
<g id="edge4" class="edge">
<title>Node3&#45;&gt;Node4</title>
<path fill="none" stroke="midnightblue" d="M113.67,-165.45C129.03,-156.97 153.47,-143.48 171.57,-133.49"/>
<polygon fill="midnightblue" stroke="midnightblue" points="173.31,-136.52 180.37,-128.63 169.92,-130.39 173.31,-136.52"/>
</g>
<!-- Node4&#45;&gt;Node2 -->
<g id="edge5" class="edge">
<title>Node4&#45;&gt;Node2</title>
<path fill="none" stroke="midnightblue" d="M173.61,-110.49C158.15,-103.45 138.43,-91.57 129.09,-74 120.95,-58.69 129.89,-39.88 138.89,-26.72"/>
<polygon fill="midnightblue" stroke="midnightblue" points="141.75,-28.74 144.92,-18.63 136.14,-24.55 141.75,-28.74"/>
</g>
<!-- Node5 -->
<g id="node5" class="node">
<title>Node5</title>
<g id="a_node5"><a xlink:href="$phi___dial_8h.html" xlink:title=" ">
<polygon fill="white" stroke="black" points="138.45,-55.5 138.45,-73.5 251.72,-73.5 251.72,-55.5 138.45,-55.5"/>
<text text-anchor="middle" x="195.09" y="-61.5" font-family="Helvetica,sans-Serif" font-size="10.00">../UIobjects/phi_Dial.h</text>
</a>
</g>
</g>
<!-- Node4&#45;&gt;Node5 -->
<g id="edge6" class="edge">
<title>Node4&#45;&gt;Node5</title>
<path fill="none" stroke="midnightblue" d="M195.09,-110.22C195.09,-103.18 195.09,-92.81 195.09,-83.83"/>
<polygon fill="midnightblue" stroke="midnightblue" points="198.59,-83.55 195.09,-73.55 191.59,-83.55 198.59,-83.55"/>
</g>
<!-- Node6 -->
<g id="node6" class="node">
<title>Node6</title>
<g id="a_node6"><a xlink:href="$phi___inlet_8h.html" xlink:title=" ">
<polygon fill="white" stroke="black" points="269.62,-55.5 269.62,-73.5 384.56,-73.5 384.56,-55.5 269.62,-55.5"/>
<text text-anchor="middle" x="327.09" y="-61.5" font-family="Helvetica,sans-Serif" font-size="10.00">../UIobjects/phi_Inlet.h</text>
</a>
</g>
</g>
<!-- Node4&#45;&gt;Node6 -->
<g id="edge8" class="edge">
<title>Node4&#45;&gt;Node6</title>
<path fill="none" stroke="midnightblue" d="M215.14,-110.45C237.04,-101.66 272.35,-87.48 297.45,-77.4"/>
<polygon fill="midnightblue" stroke="midnightblue" points="298.88,-80.6 306.85,-73.63 296.27,-74.1 298.88,-80.6"/>
</g>
<!-- Node7 -->
<g id="node7" class="node">
<title>Node7</title>
<g id="a_node7"><a xlink:href="$phi___outlet_8h.html" xlink:title=" ">
<polygon fill="white" stroke="black" points="402.73,-55.5 402.73,-73.5 525.45,-73.5 525.45,-55.5 402.73,-55.5"/>
<text text-anchor="middle" x="464.09" y="-61.5" font-family="Helvetica,sans-Serif" font-size="10.00">../UIobjects/phi_Outlet.h</text>
</a>
</g>
</g>
<!-- Node4&#45;&gt;Node7 -->
<g id="edge10" class="edge">
<title>Node4&#45;&gt;Node7</title>
<path fill="none" stroke="midnightblue" d="M235.94,-110.45C283.48,-101.08 362,-85.61 413.39,-75.49"/>
<polygon fill="midnightblue" stroke="midnightblue" points="414.16,-78.91 423.29,-73.54 412.8,-72.04 414.16,-78.91"/>
</g>
<!-- Node5&#45;&gt;Node2 -->
<g id="edge7" class="edge">
<title>Node5&#45;&gt;Node2</title>
<path fill="none" stroke="midnightblue" d="M188.37,-55.22C182.15,-47.55 172.73,-35.94 165.04,-26.47"/>
<polygon fill="midnightblue" stroke="midnightblue" points="167.64,-24.11 158.62,-18.55 162.2,-28.52 167.64,-24.11"/>
</g>
<!-- Node6&#45;&gt;Node2 -->
<g id="edge9" class="edge">
<title>Node6&#45;&gt;Node2</title>
<path fill="none" stroke="midnightblue" d="M300.51,-55.45C270.61,-46.4 221.88,-31.64 188.47,-21.52"/>
<polygon fill="midnightblue" stroke="midnightblue" points="189.22,-18.09 178.63,-18.54 187.19,-24.79 189.22,-18.09"/>
</g>
<!-- Node7&#45;&gt;Node2 -->
<g id="edge11" class="edge">
<title>Node7&#45;&gt;Node2</title>
<path fill="none" stroke="midnightblue" d="M416.7,-55.45C358.49,-45.56 260.21,-28.87 201.21,-18.84"/>
<polygon fill="midnightblue" stroke="midnightblue" points="201.47,-15.34 191.03,-17.11 200.3,-22.24 201.47,-15.34"/>
</g>
</g>
</svg>
