<?xml version="1.0" encoding="UTF-8" standalone="no"?>
<!DOCTYPE svg PUBLIC "-//W3C//DTD SVG 1.1//EN"
 "http://www.w3.org/Graphics/SVG/1.1/DTD/svg11.dtd">
<!-- Generated by graphviz version 2.42.3 (20191010.1750)
 -->
<!-- Title: Source/lib/Module.h Pages: 1 -->
<svg width="579pt" height="267pt"
 viewBox="0.00 0.00 579.00 267.00" xmlns="http://www.w3.org/2000/svg" xmlns:xlink="http://www.w3.org/1999/xlink">
<g id="graph0" class="graph" transform="scale(1 1) rotate(0) translate(4 263)">
<title>Source/lib/Module.h</title>
<polygon fill="white" stroke="transparent" points="-4,4 -4,-263 575,-263 575,4 -4,4"/>
<!-- Node1 -->
<g id="node1" class="node">
<title>Node1</title>
<g id="a_node1"><a xlink:title=" ">
<polygon fill="#bfbfbf" stroke="black" points="205.28,-240.5 205.28,-258.5 309.66,-258.5 309.66,-240.5 205.28,-240.5"/>
<text text-anchor="middle" x="257.47" y="-246.5" font-family="Helvetica,sans-Serif" font-size="10.00">Source/lib/Module.h</text>
</a>
</g>
</g>
<!-- Node2 -->
<g id="node2" class="node">
<title>Node2</title>
<g id="a_node2"><a xlink:href="$_module_8cpp.html" xlink:title=" ">
<polygon fill="white" stroke="black" points="0,-180.5 0,-198.5 114.95,-198.5 114.95,-180.5 0,-180.5"/>
<text text-anchor="middle" x="57.47" y="-186.5" font-family="Helvetica,sans-Serif" font-size="10.00">Source/lib/Module.cpp</text>
</a>
</g>
</g>
<!-- Node1&#45;&gt;Node2 -->
<g id="edge1" class="edge">
<title>Node1&#45;&gt;Node2</title>
<path fill="none" stroke="midnightblue" d="M219.96,-237.62C180.85,-226.28 120.46,-208.77 85.37,-198.59"/>
<polygon fill="midnightblue" stroke="midnightblue" points="219.08,-241.01 229.66,-240.44 221.03,-234.29 219.08,-241.01"/>
</g>
<!-- Node3 -->
<g id="node3" class="node">
<title>Node3</title>
<g id="a_node3"><a xlink:href="$_module_box_8h.html" xlink:title=" ">
<polygon fill="white" stroke="black" points="132.67,-180.5 132.67,-198.5 254.28,-198.5 254.28,-180.5 132.67,-180.5"/>
<text text-anchor="middle" x="193.47" y="-186.5" font-family="Helvetica,sans-Serif" font-size="10.00">Source/lib/ModuleBox.h</text>
</a>
</g>
</g>
<!-- Node1&#45;&gt;Node3 -->
<g id="edge2" class="edge">
<title>Node1&#45;&gt;Node3</title>
<path fill="none" stroke="midnightblue" d="M240.9,-233.48C228.74,-222.46 212.67,-207.9 202.71,-198.87"/>
<polygon fill="midnightblue" stroke="midnightblue" points="238.81,-236.31 248.57,-240.44 243.51,-231.13 238.81,-236.31"/>
</g>
<!-- Node10 -->
<g id="node10" class="node">
<title>Node10</title>
<g id="a_node10"><a xlink:href="$module___gain_8h.html" xlink:title=" ">
<polygon fill="white" stroke="black" points="271.95,-175.5 271.95,-203.5 372.99,-203.5 372.99,-175.5 271.95,-175.5"/>
<text text-anchor="start" x="279.95" y="-191.5" font-family="Helvetica,sans-Serif" font-size="10.00">Source/lib/modules</text>
<text text-anchor="middle" x="322.47" y="-181.5" font-family="Helvetica,sans-Serif" font-size="10.00">/module_Gain.h</text>
</a>
</g>
</g>
<!-- Node1&#45;&gt;Node10 -->
<g id="edge9" class="edge">
<title>Node1&#45;&gt;Node10</title>
<path fill="none" stroke="midnightblue" d="M274.06,-233.7C284.37,-224.5 297.53,-212.76 307.52,-203.84"/>
<polygon fill="midnightblue" stroke="midnightblue" points="271.64,-231.17 266.51,-240.44 276.3,-236.39 271.64,-231.17"/>
</g>
<!-- Node12 -->
<g id="node12" class="node">
<title>Node12</title>
<g id="a_node12"><a xlink:href="$module___impulse_8h.html" xlink:title=" ">
<polygon fill="white" stroke="black" points="390.95,-175.5 390.95,-203.5 491.99,-203.5 491.99,-175.5 390.95,-175.5"/>
<text text-anchor="start" x="398.95" y="-191.5" font-family="Helvetica,sans-Serif" font-size="10.00">Source/lib/modules</text>
<text text-anchor="middle" x="441.47" y="-181.5" font-family="Helvetica,sans-Serif" font-size="10.00">/module_Impulse.h</text>
</a>
</g>
</g>
<!-- Node1&#45;&gt;Node12 -->
<g id="edge12" class="edge">
<title>Node1&#45;&gt;Node12</title>
<path fill="none" stroke="midnightblue" d="M292.89,-237.33C323.56,-227.67 367.94,-213.68 400.2,-203.51"/>
<polygon fill="midnightblue" stroke="midnightblue" points="291.54,-234.09 283.06,-240.44 293.65,-240.77 291.54,-234.09"/>
</g>
<!-- Node4 -->
<g id="node4" class="node">
<title>Node4</title>
<g id="a_node4"><a xlink:href="$_module_box_8cpp.html" xlink:title=" ">
<polygon fill="white" stroke="black" points="42.38,-115.5 42.38,-133.5 174.56,-133.5 174.56,-115.5 42.38,-115.5"/>
<text text-anchor="middle" x="108.47" y="-121.5" font-family="Helvetica,sans-Serif" font-size="10.00">Source/lib/ModuleBox.cpp</text>
</a>
</g>
</g>
<!-- Node3&#45;&gt;Node4 -->
<g id="edge3" class="edge">
<title>Node3&#45;&gt;Node4</title>
<path fill="none" stroke="midnightblue" d="M174.23,-174.24C157.26,-161.66 133.14,-143.78 119.32,-133.54"/>
<polygon fill="midnightblue" stroke="midnightblue" points="172.24,-177.12 182.36,-180.26 176.41,-171.5 172.24,-177.12"/>
</g>
<!-- Node5 -->
<g id="node5" class="node">
<title>Node5</title>
<g id="a_node5"><a xlink:href="$_main_patcher_8h.html" xlink:title=" ">
<polygon fill="white" stroke="black" points="192.22,-115.5 192.22,-133.5 322.72,-133.5 322.72,-115.5 192.22,-115.5"/>
<text text-anchor="middle" x="257.47" y="-121.5" font-family="Helvetica,sans-Serif" font-size="10.00">Source/src/MainPatcher.h</text>
</a>
</g>
</g>
<!-- Node3&#45;&gt;Node5 -->
<g id="edge4" class="edge">
<title>Node3&#45;&gt;Node5</title>
<path fill="none" stroke="midnightblue" d="M209.03,-173.19C221.73,-160.68 239.19,-143.5 249.31,-133.54"/>
<polygon fill="midnightblue" stroke="midnightblue" points="206.51,-170.75 201.84,-180.26 211.42,-175.74 206.51,-170.75"/>
</g>
<!-- Node6 -->
<g id="node6" class="node">
<title>Node6</title>
<g id="a_node6"><a xlink:href="$_main_component_8h.html" xlink:title=" ">
<polygon fill="white" stroke="black" points="102.33,-55.5 102.33,-73.5 250.62,-73.5 250.62,-55.5 102.33,-55.5"/>
<text text-anchor="middle" x="176.47" y="-61.5" font-family="Helvetica,sans-Serif" font-size="10.00">Source/src/MainComponent.h</text>
</a>
</g>
</g>
<!-- Node5&#45;&gt;Node6 -->
<g id="edge5" class="edge">
<title>Node5&#45;&gt;Node6</title>
<path fill="none" stroke="midnightblue" d="M237.77,-109.39C222.14,-98.2 200.84,-82.95 187.9,-73.68"/>
<polygon fill="midnightblue" stroke="midnightblue" points="236.04,-112.46 246.21,-115.44 240.12,-106.77 236.04,-112.46"/>
</g>
<!-- Node9 -->
<g id="node9" class="node">
<title>Node9</title>
<g id="a_node9"><a xlink:href="$_main_patcher_8cpp.html" xlink:title=" ">
<polygon fill="white" stroke="black" points="268.94,-55.5 268.94,-73.5 410,-73.5 410,-55.5 268.94,-55.5"/>
<text text-anchor="middle" x="339.47" y="-61.5" font-family="Helvetica,sans-Serif" font-size="10.00">Source/src/MainPatcher.cpp</text>
</a>
</g>
</g>
<!-- Node5&#45;&gt;Node9 -->
<g id="edge8" class="edge">
<title>Node5&#45;&gt;Node9</title>
<path fill="none" stroke="midnightblue" d="M277.42,-109.39C293.24,-98.2 314.81,-82.95 327.9,-73.68"/>
<polygon fill="midnightblue" stroke="midnightblue" points="275.02,-106.8 268.87,-115.44 279.06,-112.52 275.02,-106.8"/>
</g>
<!-- Node7 -->
<g id="node7" class="node">
<title>Node7</title>
<g id="a_node7"><a xlink:href="$_main_8cpp.html" xlink:title=" ">
<polygon fill="white" stroke="black" points="47.9,-0.5 47.9,-18.5 155.05,-18.5 155.05,-0.5 47.9,-0.5"/>
<text text-anchor="middle" x="101.47" y="-6.5" font-family="Helvetica,sans-Serif" font-size="10.00">Source/src/Main.cpp</text>
</a>
</g>
</g>
<!-- Node6&#45;&gt;Node7 -->
<g id="edge6" class="edge">
<title>Node6&#45;&gt;Node7</title>
<path fill="none" stroke="midnightblue" d="M156.65,-49.49C142.72,-39.65 124.57,-26.83 112.97,-18.63"/>
<polygon fill="midnightblue" stroke="midnightblue" points="154.9,-52.54 165.08,-55.45 158.93,-46.82 154.9,-52.54"/>
</g>
<!-- Node8 -->
<g id="node8" class="node">
<title>Node8</title>
<g id="a_node8"><a xlink:href="$_main_component_8cpp.html" xlink:title=" ">
<polygon fill="white" stroke="black" points="173.05,-0.5 173.05,-18.5 331.9,-18.5 331.9,-0.5 173.05,-0.5"/>
<text text-anchor="middle" x="252.47" y="-6.5" font-family="Helvetica,sans-Serif" font-size="10.00">Source/src/MainComponent.cpp</text>
</a>
</g>
</g>
<!-- Node6&#45;&gt;Node8 -->
<g id="edge7" class="edge">
<title>Node6&#45;&gt;Node8</title>
<path fill="none" stroke="midnightblue" d="M196.56,-49.49C210.67,-39.65 229.06,-26.83 240.82,-18.63"/>
<polygon fill="midnightblue" stroke="midnightblue" points="194.22,-46.86 188.02,-55.45 198.22,-52.6 194.22,-46.86"/>
</g>
<!-- Node10&#45;&gt;Node5 -->
<g id="edge11" class="edge">
<title>Node10&#45;&gt;Node5</title>
<path fill="none" stroke="midnightblue" d="M301.51,-168.18C289.45,-156.49 274.94,-142.43 265.96,-133.73"/>
<polygon fill="midnightblue" stroke="midnightblue" points="299.39,-171 309,-175.45 304.26,-165.97 299.39,-171"/>
</g>
<!-- Node11 -->
<g id="node11" class="node">
<title>Node11</title>
<g id="a_node11"><a xlink:href="$module___gain_8cpp.html" xlink:title=" ">
<polygon fill="white" stroke="black" points="340.95,-110.5 340.95,-138.5 441.99,-138.5 441.99,-110.5 340.95,-110.5"/>
<text text-anchor="start" x="348.95" y="-126.5" font-family="Helvetica,sans-Serif" font-size="10.00">Source/lib/modules</text>
<text text-anchor="middle" x="391.47" y="-116.5" font-family="Helvetica,sans-Serif" font-size="10.00">/module_Gain.cpp</text>
</a>
</g>
</g>
<!-- Node10&#45;&gt;Node11 -->
<g id="edge10" class="edge">
<title>Node10&#45;&gt;Node11</title>
<path fill="none" stroke="midnightblue" d="M344.2,-168.67C354.97,-158.83 367.67,-147.23 377.19,-138.54"/>
<polygon fill="midnightblue" stroke="midnightblue" points="341.79,-166.12 336.77,-175.45 346.51,-171.29 341.79,-166.12"/>
</g>
<!-- Node12&#45;&gt;Node5 -->
<g id="edge14" class="edge">
<title>Node12&#45;&gt;Node5</title>
<path fill="none" stroke="midnightblue" d="M393.48,-172.07C357.29,-159.68 309.21,-143.21 280.98,-133.55"/>
<polygon fill="midnightblue" stroke="midnightblue" points="392.75,-175.52 403.35,-175.45 395.02,-168.9 392.75,-175.52"/>
</g>
<!-- Node13 -->
<g id="node13" class="node">
<title>Node13</title>
<g id="a_node13"><a xlink:href="$module___impulse_8cpp.html" xlink:title=" ">
<polygon fill="white" stroke="black" points="459.95,-110.5 459.95,-138.5 571,-138.5 571,-110.5 459.95,-110.5"/>
<text text-anchor="start" x="467.95" y="-126.5" font-family="Helvetica,sans-Serif" font-size="10.00">Source/lib/modules</text>
<text text-anchor="middle" x="515.47" y="-116.5" font-family="Helvetica,sans-Serif" font-size="10.00">/module_Impulse.cpp</text>
</a>
</g>
</g>
<!-- Node12&#45;&gt;Node13 -->
<g id="edge13" class="edge">
<title>Node12&#45;&gt;Node13</title>
<path fill="none" stroke="midnightblue" d="M464.43,-168.95C476.06,-159.06 489.84,-147.32 500.16,-138.54"/>
<polygon fill="midnightblue" stroke="midnightblue" points="462.15,-166.3 456.81,-175.45 466.69,-171.63 462.15,-166.3"/>
</g>
</g>
</svg>
