<?xml version="1.0" encoding="UTF-8" standalone="no"?>
<!DOCTYPE svg PUBLIC "-//W3C//DTD SVG 1.1//EN"
 "http://www.w3.org/Graphics/SVG/1.1/DTD/svg11.dtd">
<!-- Generated by graphviz version 2.42.3 (20191010.1750)
 -->
<!-- Title: Source/lib/Module.h Pages: 1 -->
<svg width="179pt" height="137pt"
 viewBox="0.00 0.00 179.15 137.00" xmlns="http://www.w3.org/2000/svg" xmlns:xlink="http://www.w3.org/1999/xlink">
<g id="graph0" class="graph" transform="scale(1 1) rotate(0) translate(4 133)">
<title>Source/lib/Module.h</title>
<polygon fill="white" stroke="transparent" points="-4,4 -4,-133 175.15,-133 175.15,4 -4,4"/>
<!-- Node1 -->
<g id="node1" class="node">
<title>Node1</title>
<g id="a_node1"><a xlink:title=" ">
<polygon fill="#bfbfbf" stroke="black" points="0,-110.5 0,-128.5 104.38,-128.5 104.38,-110.5 0,-110.5"/>
<text text-anchor="middle" x="52.19" y="-116.5" font-family="Helvetica,sans-Serif" font-size="10.00">Source/lib/Module.h</text>
</a>
</g>
</g>
<!-- Node2 -->
<g id="node2" class="node">
<title>Node2</title>
<g id="a_node2"><a xlink:title=" ">
<polygon fill="white" stroke="#bfbfbf" points="13.33,-0.5 13.33,-18.5 91.05,-18.5 91.05,-0.5 13.33,-0.5"/>
<text text-anchor="middle" x="52.19" y="-6.5" font-family="Helvetica,sans-Serif" font-size="10.00">JuceHeader.h</text>
</a>
</g>
</g>
<!-- Node1&#45;&gt;Node2 -->
<g id="edge1" class="edge">
<title>Node1&#45;&gt;Node2</title>
<path fill="none" stroke="midnightblue" d="M41.31,-110.36C31.58,-102.35 17.99,-89.13 12.19,-74 5.25,-55.9 19.89,-37.39 33.37,-25.06"/>
<polygon fill="midnightblue" stroke="midnightblue" points="35.66,-27.71 41,-18.56 31.12,-22.38 35.66,-27.71"/>
</g>
<!-- Node3 -->
<g id="node3" class="node">
<title>Node3</title>
<g id="a_node3"><a xlink:href="$phi___inlet_8h.html" xlink:title=" ">
<polygon fill="white" stroke="black" points="21.12,-55.5 21.12,-73.5 83.27,-73.5 83.27,-55.5 21.12,-55.5"/>
<text text-anchor="middle" x="52.19" y="-61.5" font-family="Helvetica,sans-Serif" font-size="10.00">phi_Inlet.h</text>
</a>
</g>
</g>
<!-- Node1&#45;&gt;Node3 -->
<g id="edge2" class="edge">
<title>Node1&#45;&gt;Node3</title>
<path fill="none" stroke="midnightblue" d="M52.19,-110.22C52.19,-103.18 52.19,-92.81 52.19,-83.83"/>
<polygon fill="midnightblue" stroke="midnightblue" points="55.69,-83.55 52.19,-73.55 48.69,-83.55 55.69,-83.55"/>
</g>
<!-- Node4 -->
<g id="node4" class="node">
<title>Node4</title>
<g id="a_node4"><a xlink:href="$phi___outlet_8h.html" xlink:title=" ">
<polygon fill="white" stroke="black" points="101.23,-55.5 101.23,-73.5 171.15,-73.5 171.15,-55.5 101.23,-55.5"/>
<text text-anchor="middle" x="136.19" y="-61.5" font-family="Helvetica,sans-Serif" font-size="10.00">phi_Outlet.h</text>
</a>
</g>
</g>
<!-- Node1&#45;&gt;Node4 -->
<g id="edge4" class="edge">
<title>Node1&#45;&gt;Node4</title>
<path fill="none" stroke="midnightblue" d="M64.95,-110.45C78.15,-102.12 98.99,-88.97 114.73,-79.04"/>
<polygon fill="midnightblue" stroke="midnightblue" points="116.72,-81.92 123.31,-73.63 112.99,-76 116.72,-81.92"/>
</g>
<!-- Node3&#45;&gt;Node2 -->
<g id="edge3" class="edge">
<title>Node3&#45;&gt;Node2</title>
<path fill="none" stroke="midnightblue" d="M52.19,-55.22C52.19,-48.18 52.19,-37.81 52.19,-28.83"/>
<polygon fill="midnightblue" stroke="midnightblue" points="55.69,-28.55 52.19,-18.55 48.69,-28.55 55.69,-28.55"/>
</g>
<!-- Node4&#45;&gt;Node2 -->
<g id="edge5" class="edge">
<title>Node4&#45;&gt;Node2</title>
<path fill="none" stroke="midnightblue" d="M123.43,-55.45C110.24,-47.12 89.39,-33.97 73.65,-24.04"/>
<polygon fill="midnightblue" stroke="midnightblue" points="75.39,-21 65.07,-18.63 71.66,-26.92 75.39,-21"/>
</g>
</g>
</svg>
