<?xml version="1.0" encoding="UTF-8" standalone="no"?>
<!DOCTYPE svg PUBLIC "-//W3C//DTD SVG 1.1//EN"
 "http://www.w3.org/Graphics/SVG/1.1/DTD/svg11.dtd">
<!-- Generated by graphviz version 2.42.3 (20191010.1750)
 -->
<!-- Title: phi_Impulse Pages: 1 -->
<svg width="176pt" height="82pt"
 viewBox="0.00 0.00 176.20 82.00" xmlns="http://www.w3.org/2000/svg" xmlns:xlink="http://www.w3.org/1999/xlink">
<g id="graph0" class="graph" transform="scale(1 1) rotate(0) translate(4 78)">
<title>phi_Impulse</title>
<polygon fill="white" stroke="transparent" points="-4,4 -4,-78 172.2,-78 172.2,4 -4,4"/>
<!-- Node1 -->
<g id="node1" class="node">
<title>Node1</title>
<g id="a_node1"><a xlink:title=" ">
<polygon fill="#bfbfbf" stroke="black" points="44.89,-0.5 44.89,-18.5 114.81,-18.5 114.81,-0.5 44.89,-0.5"/>
<text text-anchor="middle" x="79.85" y="-6.5" font-family="Helvetica,sans-Serif" font-size="10.00">phi_Impulse</text>
</a>
</g>
</g>
<!-- Node2 -->
<g id="node2" class="node">
<title>Node2</title>
<g id="a_node2"><a xlink:title=" ">
<polygon fill="white" stroke="#bfbfbf" points="0,-55.5 0,-73.5 67.7,-73.5 67.7,-55.5 0,-55.5"/>
<text text-anchor="middle" x="33.85" y="-61.5" font-family="Helvetica,sans-Serif" font-size="10.00">Component</text>
</a>
</g>
</g>
<!-- Node2&#45;&gt;Node1 -->
<g id="edge1" class="edge">
<title>Node2&#45;&gt;Node1</title>
<path fill="none" stroke="midnightblue" d="M47.71,-47.53C56.01,-37.97 66.21,-26.21 72.86,-18.55"/>
<polygon fill="midnightblue" stroke="midnightblue" points="44.95,-45.37 41.04,-55.22 50.24,-49.96 44.95,-45.37"/>
</g>
<!-- Node3 -->
<g id="node3" class="node">
<title>Node3</title>
<g id="a_node3"><a xlink:title=" ">
<polygon fill="white" stroke="#bfbfbf" points="85.5,-55.5 85.5,-73.5 168.2,-73.5 168.2,-55.5 85.5,-55.5"/>
<text text-anchor="middle" x="126.85" y="-61.5" font-family="Helvetica,sans-Serif" font-size="10.00">Slider::Listener</text>
</a>
</g>
</g>
<!-- Node3&#45;&gt;Node1 -->
<g id="edge2" class="edge">
<title>Node3&#45;&gt;Node1</title>
<path fill="none" stroke="midnightblue" d="M112.69,-47.53C104.21,-37.97 93.78,-26.21 86.99,-18.55"/>
<polygon fill="midnightblue" stroke="midnightblue" points="110.25,-50.06 119.51,-55.22 115.49,-45.41 110.25,-50.06"/>
</g>
</g>
</svg>
