<?xml version="1.0" encoding="UTF-8" standalone="no"?>
<!DOCTYPE svg PUBLIC "-//W3C//DTD SVG 1.1//EN"
 "http://www.w3.org/Graphics/SVG/1.1/DTD/svg11.dtd">
<!-- Generated by graphviz version 2.42.3 (20191010.1750)
 -->
<!-- Title: Module Pages: 1 -->
<svg width="190pt" height="137pt"
 viewBox="0.00 0.00 190.43 137.00" xmlns="http://www.w3.org/2000/svg" xmlns:xlink="http://www.w3.org/1999/xlink">
<g id="graph0" class="graph" transform="scale(1 1) rotate(0) translate(4 133)">
<title>Module</title>
<polygon fill="white" stroke="transparent" points="-4,4 -4,-133 186.43,-133 186.43,4 -4,4"/>
<!-- Node1 -->
<g id="node1" class="node">
<title>Node1</title>
<g id="a_node1"><a xlink:title=" ">
<polygon fill="#bfbfbf" stroke="black" points="63.34,-55.5 63.34,-73.5 112.14,-73.5 112.14,-55.5 63.34,-55.5"/>
<text text-anchor="middle" x="87.74" y="-61.5" font-family="Helvetica,sans-Serif" font-size="10.00">Module</text>
</a>
</g>
</g>
<!-- Node3 -->
<g id="node3" class="node">
<title>Node3</title>
<g id="a_node3"><a xlink:href="$classmodule___gain.html" xlink:title=" ">
<polygon fill="white" stroke="black" points="0,-0.5 0,-18.5 75.48,-18.5 75.48,-0.5 0,-0.5"/>
<text text-anchor="middle" x="37.74" y="-6.5" font-family="Helvetica,sans-Serif" font-size="10.00">module_Gain</text>
</a>
</g>
</g>
<!-- Node1&#45;&gt;Node3 -->
<g id="edge2" class="edge">
<title>Node1&#45;&gt;Node3</title>
<path fill="none" stroke="midnightblue" d="M72.95,-47.82C63.88,-38.21 52.64,-26.29 45.34,-18.55"/>
<polygon fill="midnightblue" stroke="midnightblue" points="70.52,-50.35 79.93,-55.22 75.61,-45.54 70.52,-50.35"/>
</g>
<!-- Node4 -->
<g id="node4" class="node">
<title>Node4</title>
<g id="a_node4"><a xlink:href="$classmodule___impulse.html" xlink:title=" ">
<polygon fill="white" stroke="black" points="93.05,-0.5 93.05,-18.5 182.43,-18.5 182.43,-0.5 93.05,-0.5"/>
<text text-anchor="middle" x="137.74" y="-6.5" font-family="Helvetica,sans-Serif" font-size="10.00">module_Impulse</text>
</a>
</g>
</g>
<!-- Node1&#45;&gt;Node4 -->
<g id="edge3" class="edge">
<title>Node1&#45;&gt;Node4</title>
<path fill="none" stroke="midnightblue" d="M102.53,-47.82C111.6,-38.21 122.84,-26.29 130.15,-18.55"/>
<polygon fill="midnightblue" stroke="midnightblue" points="99.87,-45.54 95.55,-55.22 104.96,-50.35 99.87,-45.54"/>
</g>
<!-- Node2 -->
<g id="node2" class="node">
<title>Node2</title>
<g id="a_node2"><a xlink:title=" ">
<polygon fill="white" stroke="#bfbfbf" points="53.89,-110.5 53.89,-128.5 121.59,-128.5 121.59,-110.5 53.89,-110.5"/>
<text text-anchor="middle" x="87.74" y="-116.5" font-family="Helvetica,sans-Serif" font-size="10.00">Component</text>
</a>
</g>
</g>
<!-- Node2&#45;&gt;Node1 -->
<g id="edge1" class="edge">
<title>Node2&#45;&gt;Node1</title>
<path fill="none" stroke="midnightblue" d="M87.74,-100.17C87.74,-91.09 87.74,-80.59 87.74,-73.55"/>
<polygon fill="midnightblue" stroke="midnightblue" points="84.24,-100.22 87.74,-110.22 91.24,-100.22 84.24,-100.22"/>
</g>
</g>
</svg>
