<?xml version="1.0" encoding="UTF-8" standalone="no"?>
<!DOCTYPE svg PUBLIC "-//W3C//DTD SVG 1.1//EN"
 "http://www.w3.org/Graphics/SVG/1.1/DTD/svg11.dtd">
<!-- Generated by graphviz version 2.42.3 (20191010.1750)
 -->
<!-- Title: MainComponent Pages: 1 -->
<svg width="258pt" height="82pt"
 viewBox="0.00 0.00 257.79 82.00" xmlns="http://www.w3.org/2000/svg" xmlns:xlink="http://www.w3.org/1999/xlink">
<g id="graph0" class="graph" transform="scale(1 1) rotate(0) translate(4 78)">
<title>MainComponent</title>
<polygon fill="white" stroke="transparent" points="-4,4 -4,-78 253.79,-78 253.79,4 -4,4"/>
<!-- Node1 -->
<g id="node1" class="node">
<title>Node1</title>
<g id="a_node1"><a xlink:title=" ">
<polygon fill="#bfbfbf" stroke="black" points="77.85,-0.5 77.85,-18.5 167.22,-18.5 167.22,-0.5 77.85,-0.5"/>
<text text-anchor="middle" x="122.53" y="-6.5" font-family="Helvetica,sans-Serif" font-size="10.00">MainComponent</text>
</a>
</g>
</g>
<!-- Node2 -->
<g id="node2" class="node">
<title>Node2</title>
<g id="a_node2"><a xlink:title=" ">
<polygon fill="white" stroke="#bfbfbf" points="0,-55.5 0,-73.5 111.07,-73.5 111.07,-55.5 0,-55.5"/>
<text text-anchor="middle" x="55.53" y="-61.5" font-family="Helvetica,sans-Serif" font-size="10.00">AudioAppComponent</text>
</a>
</g>
</g>
<!-- Node2&#45;&gt;Node1 -->
<g id="edge1" class="edge">
<title>Node2&#45;&gt;Node1</title>
<path fill="none" stroke="midnightblue" d="M73.6,-49.21C85.99,-39.41 101.99,-26.75 112.26,-18.63"/>
<polygon fill="midnightblue" stroke="midnightblue" points="71.38,-46.5 65.71,-55.45 75.72,-51.99 71.38,-46.5"/>
</g>
<!-- Node3 -->
<g id="node3" class="node">
<title>Node3</title>
<g id="a_node3"><a xlink:title=" ">
<polygon fill="white" stroke="#bfbfbf" points="129.28,-55.5 129.28,-73.5 249.79,-73.5 249.79,-55.5 129.28,-55.5"/>
<text text-anchor="middle" x="189.53" y="-61.5" font-family="Helvetica,sans-Serif" font-size="10.00">DragAndDropContainer</text>
</a>
</g>
</g>
<!-- Node3&#45;&gt;Node1 -->
<g id="edge2" class="edge">
<title>Node3&#45;&gt;Node1</title>
<path fill="none" stroke="midnightblue" d="M171.47,-49.21C159.07,-39.41 143.07,-26.75 132.81,-18.63"/>
<polygon fill="midnightblue" stroke="midnightblue" points="169.34,-51.99 179.36,-55.45 173.69,-46.5 169.34,-51.99"/>
</g>
</g>
</svg>
