<?xml version="1.0" encoding="UTF-8" standalone="no"?>
<!DOCTYPE svg PUBLIC "-//W3C//DTD SVG 1.1//EN"
 "http://www.w3.org/Graphics/SVG/1.1/DTD/svg11.dtd">
<!-- Generated by graphviz version 2.42.3 (20191010.1750)
 -->
<!-- Title: module_Gain Pages: 1 -->
<svg width="167pt" height="137pt"
 viewBox="0.00 0.00 167.20 137.00" xmlns="http://www.w3.org/2000/svg" xmlns:xlink="http://www.w3.org/1999/xlink">
<g id="graph0" class="graph" transform="scale(1 1) rotate(0) translate(4 133)">
<title>module_Gain</title>
<polygon fill="white" stroke="transparent" points="-4,4 -4,-133 163.2,-133 163.2,4 -4,4"/>
<!-- Node1 -->
<g id="node1" class="node">
<title>Node1</title>
<g id="a_node1"><a xlink:title=" ">
<polygon fill="#bfbfbf" stroke="black" points="38.11,-0.5 38.11,-18.5 113.59,-18.5 113.59,-0.5 38.11,-0.5"/>
<text text-anchor="middle" x="75.85" y="-6.5" font-family="Helvetica,sans-Serif" font-size="10.00">module_Gain</text>
</a>
</g>
</g>
<!-- Node2 -->
<g id="node2" class="node">
<title>Node2</title>
<g id="a_node2"><a xlink:href="$class_module.html" xlink:title=" ">
<polygon fill="white" stroke="black" points="9.45,-55.5 9.45,-73.5 58.25,-73.5 58.25,-55.5 9.45,-55.5"/>
<text text-anchor="middle" x="33.85" y="-61.5" font-family="Helvetica,sans-Serif" font-size="10.00">Module</text>
</a>
</g>
</g>
<!-- Node2&#45;&gt;Node1 -->
<g id="edge1" class="edge">
<title>Node2&#45;&gt;Node1</title>
<path fill="none" stroke="midnightblue" d="M46.73,-47.24C54.27,-37.73 63.46,-26.14 69.47,-18.55"/>
<polygon fill="midnightblue" stroke="midnightblue" points="43.88,-45.21 40.41,-55.22 49.37,-49.56 43.88,-45.21"/>
</g>
<!-- Node3 -->
<g id="node3" class="node">
<title>Node3</title>
<g id="a_node3"><a xlink:title=" ">
<polygon fill="white" stroke="#bfbfbf" points="0,-110.5 0,-128.5 67.7,-128.5 67.7,-110.5 0,-110.5"/>
<text text-anchor="middle" x="33.85" y="-116.5" font-family="Helvetica,sans-Serif" font-size="10.00">Component</text>
</a>
</g>
</g>
<!-- Node3&#45;&gt;Node2 -->
<g id="edge2" class="edge">
<title>Node3&#45;&gt;Node2</title>
<path fill="none" stroke="midnightblue" d="M33.85,-100.17C33.85,-91.09 33.85,-80.59 33.85,-73.55"/>
<polygon fill="midnightblue" stroke="midnightblue" points="30.35,-100.22 33.85,-110.22 37.35,-100.22 30.35,-100.22"/>
</g>
<!-- Node4 -->
<g id="node4" class="node">
<title>Node4</title>
<g id="a_node4"><a xlink:title=" ">
<polygon fill="white" stroke="#bfbfbf" points="76.5,-55.5 76.5,-73.5 159.2,-73.5 159.2,-55.5 76.5,-55.5"/>
<text text-anchor="middle" x="117.85" y="-61.5" font-family="Helvetica,sans-Serif" font-size="10.00">Slider::Listener</text>
</a>
</g>
</g>
<!-- Node4&#45;&gt;Node1 -->
<g id="edge3" class="edge">
<title>Node4&#45;&gt;Node1</title>
<path fill="none" stroke="midnightblue" d="M104.97,-47.24C97.43,-37.73 88.24,-26.14 82.23,-18.55"/>
<polygon fill="midnightblue" stroke="midnightblue" points="102.33,-49.56 111.29,-55.22 107.82,-45.21 102.33,-49.56"/>
</g>
</g>
</svg>
