<?xml version="1.0" encoding="UTF-8" standalone="no"?>
<!DOCTYPE svg PUBLIC "-//W3C//DTD SVG 1.1//EN"
 "http://www.w3.org/Graphics/SVG/1.1/DTD/svg11.dtd">
<!-- Generated by graphviz version 2.42.3 (20191010.1750)
 -->
<!-- Title: MainComponent Pages: 1 -->
<svg width="188pt" height="82pt"
 viewBox="0.00 0.00 188.32 82.00" xmlns="http://www.w3.org/2000/svg" xmlns:xlink="http://www.w3.org/1999/xlink">
<g id="graph0" class="graph" transform="scale(1 1) rotate(0) translate(4 78)">
<title>MainComponent</title>
<polygon fill="white" stroke="transparent" points="-4,4 -4,-78 184.32,-78 184.32,4 -4,4"/>
<!-- Node1 -->
<g id="node1" class="node">
<title>Node1</title>
<g id="a_node1"><a xlink:title=" ">
<polygon fill="#bfbfbf" stroke="black" points="59.85,-0.5 59.85,-18.5 149.22,-18.5 149.22,-0.5 59.85,-0.5"/>
<text text-anchor="middle" x="104.53" y="-6.5" font-family="Helvetica,sans-Serif" font-size="10.00">MainComponent</text>
</a>
</g>
</g>
<!-- Node2 -->
<g id="node2" class="node">
<title>Node2</title>
<g id="a_node2"><a xlink:title=" ">
<polygon fill="white" stroke="#bfbfbf" points="0,-55.5 0,-73.5 111.07,-73.5 111.07,-55.5 0,-55.5"/>
<text text-anchor="middle" x="55.53" y="-61.5" font-family="Helvetica,sans-Serif" font-size="10.00">AudioAppComponent</text>
</a>
</g>
</g>
<!-- Node2&#45;&gt;Node1 -->
<g id="edge1" class="edge">
<title>Node2&#45;&gt;Node1</title>
<path fill="none" stroke="midnightblue" d="M70.03,-47.82C78.92,-38.21 89.93,-26.29 97.09,-18.55"/>
<polygon fill="midnightblue" stroke="midnightblue" points="67.41,-45.5 63.19,-55.22 72.55,-50.25 67.41,-45.5"/>
</g>
<!-- Node3 -->
<g id="node3" class="node">
<title>Node3</title>
<g id="a_node3"><a xlink:title=" ">
<polygon fill="white" stroke="#bfbfbf" points="128.75,-55.5 128.75,-73.5 180.32,-73.5 180.32,-55.5 128.75,-55.5"/>
<text text-anchor="middle" x="154.53" y="-61.5" font-family="Helvetica,sans-Serif" font-size="10.00">Listener</text>
</a>
</g>
</g>
<!-- Node3&#45;&gt;Node1 -->
<g id="edge2" class="edge">
<title>Node3&#45;&gt;Node1</title>
<path fill="none" stroke="midnightblue" d="M139.74,-47.82C130.67,-38.21 119.43,-26.29 112.13,-18.55"/>
<polygon fill="midnightblue" stroke="midnightblue" points="137.31,-50.35 146.72,-55.22 142.41,-45.54 137.31,-50.35"/>
</g>
</g>
</svg>
