<?xml version="1.0" encoding="UTF-8" standalone="no"?>
<!DOCTYPE svg PUBLIC "-//W3C//DTD SVG 1.1//EN"
 "http://www.w3.org/Graphics/SVG/1.1/DTD/svg11.dtd">
<!-- Generated by graphviz version 2.42.3 (20191010.1750)
 -->
<!-- Title: Source/lib/modules/module_Impulse.cpp Pages: 1 -->
<svg width="331pt" height="257pt"
 viewBox="0.00 0.00 331.38 257.00" xmlns="http://www.w3.org/2000/svg" xmlns:xlink="http://www.w3.org/1999/xlink">
<g id="graph0" class="graph" transform="scale(1 1) rotate(0) translate(4 253)">
<title>Source/lib/modules/module_Impulse.cpp</title>
<polygon fill="white" stroke="transparent" points="-4,4 -4,-253 327.38,-253 327.38,4 -4,4"/>
<!-- Node1 -->
<g id="node1" class="node">
<title>Node1</title>
<g id="a_node1"><a xlink:title=" ">
<polygon fill="#bfbfbf" stroke="black" points="0,-220.5 0,-248.5 111.05,-248.5 111.05,-220.5 0,-220.5"/>
<text text-anchor="start" x="8" y="-236.5" font-family="Helvetica,sans-Serif" font-size="10.00">Source/lib/modules</text>
<text text-anchor="middle" x="55.53" y="-226.5" font-family="Helvetica,sans-Serif" font-size="10.00">/module_Impulse.cpp</text>
</a>
</g>
</g>
<!-- Node2 -->
<g id="node2" class="node">
<title>Node2</title>
<g id="a_node2"><a xlink:title=" ">
<polygon fill="white" stroke="#bfbfbf" points="83.67,-0.5 83.67,-18.5 161.38,-18.5 161.38,-0.5 83.67,-0.5"/>
<text text-anchor="middle" x="122.53" y="-6.5" font-family="Helvetica,sans-Serif" font-size="10.00">JuceHeader.h</text>
</a>
</g>
</g>
<!-- Node1&#45;&gt;Node2 -->
<g id="edge1" class="edge">
<title>Node1&#45;&gt;Node2</title>
<path fill="none" stroke="midnightblue" d="M51.54,-220.27C47.93,-206.4 43.71,-184.02 47.53,-165 58.39,-110.87 92.78,-54.21 110.97,-27.01"/>
<polygon fill="midnightblue" stroke="midnightblue" points="113.92,-28.9 116.67,-18.66 108.14,-24.95 113.92,-28.9"/>
</g>
<!-- Node3 -->
<g id="node3" class="node">
<title>Node3</title>
<g id="a_node3"><a xlink:href="$module___impulse_8h.html" xlink:title=" ">
<polygon fill="white" stroke="black" points="56.67,-165.5 56.67,-183.5 154.38,-183.5 154.38,-165.5 56.67,-165.5"/>
<text text-anchor="middle" x="105.53" y="-171.5" font-family="Helvetica,sans-Serif" font-size="10.00">module_Impulse.h</text>
</a>
</g>
</g>
<!-- Node1&#45;&gt;Node3 -->
<g id="edge2" class="edge">
<title>Node1&#45;&gt;Node3</title>
<path fill="none" stroke="midnightblue" d="M66.87,-220.34C74.28,-211.74 84.01,-200.46 91.85,-191.37"/>
<polygon fill="midnightblue" stroke="midnightblue" points="94.52,-193.63 98.4,-183.77 89.22,-189.06 94.52,-193.63"/>
</g>
<!-- Node3&#45;&gt;Node2 -->
<g id="edge3" class="edge">
<title>Node3&#45;&gt;Node2</title>
<path fill="none" stroke="midnightblue" d="M102.42,-165.45C99.21,-156.65 94.4,-142.07 92.53,-129 87.29,-92.38 103.09,-50.69 113.71,-27.81"/>
<polygon fill="midnightblue" stroke="midnightblue" points="116.91,-29.24 118.13,-18.71 110.61,-26.18 116.91,-29.24"/>
</g>
<!-- Node4 -->
<g id="node4" class="node">
<title>Node4</title>
<g id="a_node4"><a xlink:href="$_module_8h.html" xlink:title=" ">
<polygon fill="white" stroke="black" points="101.79,-110.5 101.79,-128.5 167.26,-128.5 167.26,-110.5 101.79,-110.5"/>
<text text-anchor="middle" x="134.53" y="-116.5" font-family="Helvetica,sans-Serif" font-size="10.00">../Module.h</text>
</a>
</g>
</g>
<!-- Node3&#45;&gt;Node4 -->
<g id="edge4" class="edge">
<title>Node3&#45;&gt;Node4</title>
<path fill="none" stroke="midnightblue" d="M110.06,-165.22C114.13,-157.79 120.22,-146.65 125.31,-137.34"/>
<polygon fill="midnightblue" stroke="midnightblue" points="128.39,-139 130.12,-128.55 122.25,-135.64 128.39,-139"/>
</g>
<!-- Node7 -->
<g id="node7" class="node">
<title>Node7</title>
<g id="a_node7"><a xlink:href="$ui___dial_8h.html" xlink:title=" ">
<polygon fill="white" stroke="black" points="215.67,-110.5 215.67,-128.5 323.38,-128.5 323.38,-110.5 215.67,-110.5"/>
<text text-anchor="middle" x="269.53" y="-116.5" font-family="Helvetica,sans-Serif" font-size="10.00">../UIobjects/ui_Dial.h</text>
</a>
</g>
</g>
<!-- Node3&#45;&gt;Node7 -->
<g id="edge10" class="edge">
<title>Node3&#45;&gt;Node7</title>
<path fill="none" stroke="midnightblue" d="M130.43,-165.45C158.33,-156.44 203.72,-141.77 235.03,-131.65"/>
<polygon fill="midnightblue" stroke="midnightblue" points="236.21,-134.94 244.65,-128.54 234.06,-128.28 236.21,-134.94"/>
</g>
<!-- Node4&#45;&gt;Node2 -->
<g id="edge5" class="edge">
<title>Node4&#45;&gt;Node2</title>
<path fill="none" stroke="midnightblue" d="M129.09,-110.41C123.67,-101.8 115.7,-87.6 112.53,-74 108.99,-58.87 112.26,-41.42 115.98,-28.64"/>
<polygon fill="midnightblue" stroke="midnightblue" points="119.41,-29.39 119.2,-18.79 112.76,-27.21 119.41,-29.39"/>
</g>
<!-- Node5 -->
<g id="node5" class="node">
<title>Node5</title>
<g id="a_node5"><a xlink:href="$phi___inlet_8h.html" xlink:title=" ">
<polygon fill="white" stroke="black" points="121.45,-55.5 121.45,-73.5 183.6,-73.5 183.6,-55.5 121.45,-55.5"/>
<text text-anchor="middle" x="152.53" y="-61.5" font-family="Helvetica,sans-Serif" font-size="10.00">phi_Inlet.h</text>
</a>
</g>
</g>
<!-- Node4&#45;&gt;Node5 -->
<g id="edge6" class="edge">
<title>Node4&#45;&gt;Node5</title>
<path fill="none" stroke="midnightblue" d="M137.34,-110.22C139.78,-103.02 143.41,-92.35 146.5,-83.23"/>
<polygon fill="midnightblue" stroke="midnightblue" points="149.89,-84.14 149.79,-73.55 143.26,-81.89 149.89,-84.14"/>
</g>
<!-- Node6 -->
<g id="node6" class="node">
<title>Node6</title>
<g id="a_node6"><a xlink:href="$phi___outlet_8h.html" xlink:title=" ">
<polygon fill="white" stroke="black" points="201.56,-55.5 201.56,-73.5 271.49,-73.5 271.49,-55.5 201.56,-55.5"/>
<text text-anchor="middle" x="236.53" y="-61.5" font-family="Helvetica,sans-Serif" font-size="10.00">phi_Outlet.h</text>
</a>
</g>
</g>
<!-- Node4&#45;&gt;Node6 -->
<g id="edge8" class="edge">
<title>Node4&#45;&gt;Node6</title>
<path fill="none" stroke="midnightblue" d="M150.02,-110.45C166.42,-101.93 192.55,-88.35 211.8,-78.35"/>
<polygon fill="midnightblue" stroke="midnightblue" points="213.63,-81.34 220.89,-73.63 210.4,-75.13 213.63,-81.34"/>
</g>
<!-- Node5&#45;&gt;Node2 -->
<g id="edge7" class="edge">
<title>Node5&#45;&gt;Node2</title>
<path fill="none" stroke="midnightblue" d="M147.84,-55.22C143.63,-47.79 137.33,-36.65 132.06,-27.34"/>
<polygon fill="midnightblue" stroke="midnightblue" points="135.06,-25.53 127.08,-18.55 128.96,-28.98 135.06,-25.53"/>
</g>
<!-- Node6&#45;&gt;Node2 -->
<g id="edge9" class="edge">
<title>Node6&#45;&gt;Node2</title>
<path fill="none" stroke="midnightblue" d="M219.21,-55.45C200.63,-46.81 170.88,-32.98 149.28,-22.94"/>
<polygon fill="midnightblue" stroke="midnightblue" points="150.55,-19.67 140,-18.63 147.6,-26.01 150.55,-19.67"/>
</g>
<!-- Node7&#45;&gt;Node2 -->
<g id="edge11" class="edge">
<title>Node7&#45;&gt;Node2</title>
<path fill="none" stroke="midnightblue" d="M274.6,-110.15C281.84,-97.04 292.96,-71.41 280.53,-55 267.3,-37.53 212.92,-24.99 171.63,-17.76"/>
<polygon fill="midnightblue" stroke="midnightblue" points="172.15,-14.3 161.71,-16.08 170.98,-21.2 172.15,-14.3"/>
</g>
</g>
</svg>
