<?xml version="1.0" encoding="UTF-8" standalone="no"?>
<!DOCTYPE svg PUBLIC "-//W3C//DTD SVG 1.1//EN"
 "http://www.w3.org/Graphics/SVG/1.1/DTD/svg11.dtd">
<!-- Generated by graphviz version 2.42.3 (20191010.1750)
 -->
<!-- Title: Source/lib/UIobjects/phi_Outlet.cpp Pages: 1 -->
<svg width="127pt" height="147pt"
 viewBox="0.00 0.00 127.43 147.00" xmlns="http://www.w3.org/2000/svg" xmlns:xlink="http://www.w3.org/1999/xlink">
<g id="graph0" class="graph" transform="scale(1 1) rotate(0) translate(4 143)">
<title>Source/lib/UIobjects/phi_Outlet.cpp</title>
<polygon fill="white" stroke="transparent" points="-4,4 -4,-143 123.43,-143 123.43,4 -4,4"/>
<!-- Node1 -->
<g id="node1" class="node">
<title>Node1</title>
<g id="a_node1"><a xlink:title=" ">
<polygon fill="#bfbfbf" stroke="black" points="0,-110.5 0,-138.5 104.93,-138.5 104.93,-110.5 0,-110.5"/>
<text text-anchor="start" x="8" y="-126.5" font-family="Helvetica,sans-Serif" font-size="10.00">Source/lib/UIobjects</text>
<text text-anchor="middle" x="52.47" y="-116.5" font-family="Helvetica,sans-Serif" font-size="10.00">/phi_Outlet.cpp</text>
</a>
</g>
</g>
<!-- Node2 -->
<g id="node2" class="node">
<title>Node2</title>
<g id="a_node2"><a xlink:title=" ">
<polygon fill="white" stroke="#bfbfbf" points="13.61,-0.5 13.61,-18.5 91.32,-18.5 91.32,-0.5 13.61,-0.5"/>
<text text-anchor="middle" x="52.47" y="-6.5" font-family="Helvetica,sans-Serif" font-size="10.00">JuceHeader.h</text>
</a>
</g>
</g>
<!-- Node1&#45;&gt;Node2 -->
<g id="edge1" class="edge">
<title>Node1&#45;&gt;Node2</title>
<path fill="none" stroke="midnightblue" d="M47.76,-110.42C43.38,-96.67 37.9,-74.39 40.47,-55 41.65,-46.06 44.12,-36.36 46.51,-28.31"/>
<polygon fill="midnightblue" stroke="midnightblue" points="49.91,-29.16 49.6,-18.57 43.24,-27.05 49.91,-29.16"/>
</g>
<!-- Node3 -->
<g id="node3" class="node">
<title>Node3</title>
<g id="a_node3"><a xlink:href="$phi___outlet_8h.html" xlink:title=" ">
<polygon fill="white" stroke="black" points="49.5,-55.5 49.5,-73.5 119.43,-73.5 119.43,-55.5 49.5,-55.5"/>
<text text-anchor="middle" x="84.47" y="-61.5" font-family="Helvetica,sans-Serif" font-size="10.00">phi_Outlet.h</text>
</a>
</g>
</g>
<!-- Node1&#45;&gt;Node3 -->
<g id="edge2" class="edge">
<title>Node1&#45;&gt;Node3</title>
<path fill="none" stroke="midnightblue" d="M59.73,-110.34C64.23,-102.18 70.06,-91.61 74.93,-82.78"/>
<polygon fill="midnightblue" stroke="midnightblue" points="78.14,-84.22 79.9,-73.77 72.01,-80.84 78.14,-84.22"/>
</g>
<!-- Node3&#45;&gt;Node2 -->
<g id="edge3" class="edge">
<title>Node3&#45;&gt;Node2</title>
<path fill="none" stroke="midnightblue" d="M79.47,-55.22C74.98,-47.79 68.25,-36.65 62.64,-27.34"/>
<polygon fill="midnightblue" stroke="midnightblue" points="65.49,-25.3 57.33,-18.55 59.5,-28.92 65.49,-25.3"/>
</g>
</g>
</svg>
