<?xml version="1.0" encoding="UTF-8" standalone="no"?>
<!DOCTYPE svg PUBLIC "-//W3C//DTD SVG 1.1//EN"
 "http://www.w3.org/Graphics/SVG/1.1/DTD/svg11.dtd">
<!-- Generated by graphviz version 2.42.3 (20191010.1750)
 -->
<!-- Title: Source/lib/phi_Outlet.cpp Pages: 1 -->
<svg width="139pt" height="137pt"
 viewBox="0.00 0.00 138.83 137.00" xmlns="http://www.w3.org/2000/svg" xmlns:xlink="http://www.w3.org/1999/xlink">
<g id="graph0" class="graph" transform="scale(1 1) rotate(0) translate(4 133)">
<title>Source/lib/phi_Outlet.cpp</title>
<polygon fill="white" stroke="transparent" points="-4,4 -4,-133 134.83,-133 134.83,4 -4,4"/>
<!-- Node1 -->
<g id="node1" class="node">
<title>Node1</title>
<g id="a_node1"><a xlink:title=" ">
<polygon fill="#bfbfbf" stroke="black" points="0,-110.5 0,-128.5 127.73,-128.5 127.73,-110.5 0,-110.5"/>
<text text-anchor="middle" x="63.87" y="-116.5" font-family="Helvetica,sans-Serif" font-size="10.00">Source/lib/phi_Outlet.cpp</text>
</a>
</g>
</g>
<!-- Node2 -->
<g id="node2" class="node">
<title>Node2</title>
<g id="a_node2"><a xlink:title=" ">
<polygon fill="white" stroke="#bfbfbf" points="25.01,-0.5 25.01,-18.5 102.72,-18.5 102.72,-0.5 25.01,-0.5"/>
<text text-anchor="middle" x="63.87" y="-6.5" font-family="Helvetica,sans-Serif" font-size="10.00">JuceHeader.h</text>
</a>
</g>
</g>
<!-- Node1&#45;&gt;Node2 -->
<g id="edge1" class="edge">
<title>Node1&#45;&gt;Node2</title>
<path fill="none" stroke="midnightblue" d="M60.62,-110.33C56.22,-98.28 49.21,-75.02 51.87,-55 53.05,-46.06 55.52,-36.36 57.91,-28.31"/>
<polygon fill="midnightblue" stroke="midnightblue" points="61.31,-29.16 61,-18.57 54.64,-27.05 61.31,-29.16"/>
</g>
<!-- Node3 -->
<g id="node3" class="node">
<title>Node3</title>
<g id="a_node3"><a xlink:href="$phi___outlet_8h.html" xlink:title=" ">
<polygon fill="white" stroke="black" points="60.9,-55.5 60.9,-73.5 130.83,-73.5 130.83,-55.5 60.9,-55.5"/>
<text text-anchor="middle" x="95.87" y="-61.5" font-family="Helvetica,sans-Serif" font-size="10.00">phi_Outlet.h</text>
</a>
</g>
</g>
<!-- Node1&#45;&gt;Node3 -->
<g id="edge2" class="edge">
<title>Node1&#45;&gt;Node3</title>
<path fill="none" stroke="midnightblue" d="M68.87,-110.22C73.35,-102.79 80.08,-91.65 85.7,-82.34"/>
<polygon fill="midnightblue" stroke="midnightblue" points="88.83,-83.92 91.01,-73.55 82.84,-80.3 88.83,-83.92"/>
</g>
<!-- Node3&#45;&gt;Node2 -->
<g id="edge3" class="edge">
<title>Node3&#45;&gt;Node2</title>
<path fill="none" stroke="midnightblue" d="M90.87,-55.22C86.38,-47.79 79.65,-36.65 74.04,-27.34"/>
<polygon fill="midnightblue" stroke="midnightblue" points="76.89,-25.3 68.73,-18.55 70.9,-28.92 76.89,-25.3"/>
</g>
</g>
</svg>
