<?xml version="1.0" encoding="UTF-8" standalone="no"?>
<!DOCTYPE svg PUBLIC "-//W3C//DTD SVG 1.1//EN"
 "http://www.w3.org/Graphics/SVG/1.1/DTD/svg11.dtd">
<!-- Generated by graphviz version 2.42.3 (20191010.1750)
 -->
<!-- Title: Source/lib/phi_Inlet.cpp Pages: 1 -->
<svg width="129pt" height="137pt"
 viewBox="0.00 0.00 129.05 137.00" xmlns="http://www.w3.org/2000/svg" xmlns:xlink="http://www.w3.org/1999/xlink">
<g id="graph0" class="graph" transform="scale(1 1) rotate(0) translate(4 133)">
<title>Source/lib/phi_Inlet.cpp</title>
<polygon fill="white" stroke="transparent" points="-4,4 -4,-133 125.05,-133 125.05,4 -4,4"/>
<!-- Node1 -->
<g id="node1" class="node">
<title>Node1</title>
<g id="a_node1"><a xlink:title=" ">
<polygon fill="#bfbfbf" stroke="black" points="0,-110.5 0,-128.5 119.96,-128.5 119.96,-110.5 0,-110.5"/>
<text text-anchor="middle" x="59.98" y="-116.5" font-family="Helvetica,sans-Serif" font-size="10.00">Source/lib/phi_Inlet.cpp</text>
</a>
</g>
</g>
<!-- Node2 -->
<g id="node2" class="node">
<title>Node2</title>
<g id="a_node2"><a xlink:title=" ">
<polygon fill="white" stroke="#bfbfbf" points="21.12,-0.5 21.12,-18.5 98.83,-18.5 98.83,-0.5 21.12,-0.5"/>
<text text-anchor="middle" x="59.98" y="-6.5" font-family="Helvetica,sans-Serif" font-size="10.00">JuceHeader.h</text>
</a>
</g>
</g>
<!-- Node1&#45;&gt;Node2 -->
<g id="edge1" class="edge">
<title>Node1&#45;&gt;Node2</title>
<path fill="none" stroke="midnightblue" d="M57.27,-110.31C53.61,-98.25 47.76,-74.97 49.98,-55 50.96,-46.13 53.02,-36.44 55.01,-28.37"/>
<polygon fill="midnightblue" stroke="midnightblue" points="58.42,-29.17 57.59,-18.61 51.65,-27.39 58.42,-29.17"/>
</g>
<!-- Node3 -->
<g id="node3" class="node">
<title>Node3</title>
<g id="a_node3"><a xlink:href="$phi___inlet_8h.html" xlink:title=" ">
<polygon fill="white" stroke="black" points="58.9,-55.5 58.9,-73.5 121.05,-73.5 121.05,-55.5 58.9,-55.5"/>
<text text-anchor="middle" x="89.98" y="-61.5" font-family="Helvetica,sans-Serif" font-size="10.00">phi_Inlet.h</text>
</a>
</g>
</g>
<!-- Node1&#45;&gt;Node3 -->
<g id="edge2" class="edge">
<title>Node1&#45;&gt;Node3</title>
<path fill="none" stroke="midnightblue" d="M64.67,-110.22C68.87,-102.79 75.18,-91.65 80.44,-82.34"/>
<polygon fill="midnightblue" stroke="midnightblue" points="83.54,-83.98 85.42,-73.55 77.45,-80.53 83.54,-83.98"/>
</g>
<!-- Node3&#45;&gt;Node2 -->
<g id="edge3" class="edge">
<title>Node3&#45;&gt;Node2</title>
<path fill="none" stroke="midnightblue" d="M85.29,-55.22C81.08,-47.79 74.78,-36.65 69.51,-27.34"/>
<polygon fill="midnightblue" stroke="midnightblue" points="72.51,-25.53 64.53,-18.55 66.41,-28.98 72.51,-25.53"/>
</g>
</g>
</svg>
