<?xml version="1.0" encoding="UTF-8" standalone="no"?>
<!DOCTYPE svg PUBLIC "-//W3C//DTD SVG 1.1//EN"
 "http://www.w3.org/Graphics/SVG/1.1/DTD/svg11.dtd">
<!-- Generated by graphviz version 2.42.3 (20191010.1750)
 -->
<!-- Title: Source/lib/phi_Inlet.h Pages: 1 -->
<svg width="700pt" height="322pt"
 viewBox="0.00 0.00 700.39 322.00" xmlns="http://www.w3.org/2000/svg" xmlns:xlink="http://www.w3.org/1999/xlink">
<g id="graph0" class="graph" transform="scale(1 1) rotate(0) translate(4 318)">
<title>Source/lib/phi_Inlet.h</title>
<polygon fill="white" stroke="transparent" points="-4,4 -4,-318 696.39,-318 696.39,4 -4,4"/>
<!-- Node1 -->
<g id="node1" class="node">
<title>Node1</title>
<g id="a_node1"><a xlink:title=" ">
<polygon fill="#bfbfbf" stroke="black" points="316.17,-295.5 316.17,-313.5 425.57,-313.5 425.57,-295.5 316.17,-295.5"/>
<text text-anchor="middle" x="370.87" y="-301.5" font-family="Helvetica,sans-Serif" font-size="10.00">Source/lib/phi_Inlet.h</text>
</a>
</g>
</g>
<!-- Node2 -->
<g id="node2" class="node">
<title>Node2</title>
<g id="a_node2"><a xlink:href="$_connections_8h.html" xlink:title=" ">
<polygon fill="white" stroke="black" points="102.28,-240.5 102.28,-258.5 229.46,-258.5 229.46,-240.5 102.28,-240.5"/>
<text text-anchor="middle" x="165.87" y="-246.5" font-family="Helvetica,sans-Serif" font-size="10.00">Source/lib/Connections.h</text>
</a>
</g>
</g>
<!-- Node1&#45;&gt;Node2 -->
<g id="edge1" class="edge">
<title>Node1&#45;&gt;Node2</title>
<path fill="none" stroke="midnightblue" d="M329.96,-292.92C290.77,-282.79 232.49,-267.72 196.96,-258.54"/>
<polygon fill="midnightblue" stroke="midnightblue" points="329.18,-296.34 339.73,-295.45 330.93,-289.56 329.18,-296.34"/>
</g>
<!-- Node9 -->
<g id="node9" class="node">
<title>Node9</title>
<g id="a_node9"><a xlink:href="$_module_8h.html" xlink:title=" ">
<polygon fill="white" stroke="black" points="318.68,-240.5 318.68,-258.5 423.06,-258.5 423.06,-240.5 318.68,-240.5"/>
<text text-anchor="middle" x="370.87" y="-246.5" font-family="Helvetica,sans-Serif" font-size="10.00">Source/lib/Module.h</text>
</a>
</g>
</g>
<!-- Node1&#45;&gt;Node9 -->
<g id="edge8" class="edge">
<title>Node1&#45;&gt;Node9</title>
<path fill="none" stroke="midnightblue" d="M370.87,-285.17C370.87,-276.09 370.87,-265.59 370.87,-258.55"/>
<polygon fill="midnightblue" stroke="midnightblue" points="367.37,-285.22 370.87,-295.22 374.37,-285.22 367.37,-285.22"/>
</g>
<!-- Node17 -->
<g id="node17" class="node">
<title>Node17</title>
<g id="a_node17"><a xlink:href="$phi___inlet_8cpp.html" xlink:title=" ">
<polygon fill="white" stroke="black" points="440.89,-240.5 440.89,-258.5 560.85,-258.5 560.85,-240.5 440.89,-240.5"/>
<text text-anchor="middle" x="500.87" y="-246.5" font-family="Helvetica,sans-Serif" font-size="10.00">Source/lib/phi_Inlet.cpp</text>
</a>
</g>
</g>
<!-- Node1&#45;&gt;Node17 -->
<g id="edge19" class="edge">
<title>Node1&#45;&gt;Node17</title>
<path fill="none" stroke="midnightblue" d="M400.17,-291.55C424.82,-281.5 459.39,-267.41 480.94,-258.63"/>
<polygon fill="midnightblue" stroke="midnightblue" points="398.55,-288.43 390.61,-295.45 401.19,-294.92 398.55,-288.43"/>
</g>
<!-- Node3 -->
<g id="node3" class="node">
<title>Node3</title>
<g id="a_node3"><a xlink:href="$_connections_8cpp.html" xlink:title=" ">
<polygon fill="white" stroke="black" points="0,-180.5 0,-198.5 137.74,-198.5 137.74,-180.5 0,-180.5"/>
<text text-anchor="middle" x="68.87" y="-186.5" font-family="Helvetica,sans-Serif" font-size="10.00">Source/lib/Connections.cpp</text>
</a>
</g>
</g>
<!-- Node2&#45;&gt;Node3 -->
<g id="edge2" class="edge">
<title>Node2&#45;&gt;Node3</title>
<path fill="none" stroke="midnightblue" d="M143.57,-235.17C124.75,-223.91 98.41,-208.16 82.55,-198.68"/>
<polygon fill="midnightblue" stroke="midnightblue" points="142,-238.31 152.38,-240.44 145.6,-232.3 142,-238.31"/>
</g>
<!-- Node4 -->
<g id="node4" class="node">
<title>Node4</title>
<g id="a_node4"><a xlink:href="$_main_patcher_8h.html" xlink:title=" ">
<polygon fill="white" stroke="black" points="292.62,-115.5 292.62,-133.5 423.12,-133.5 423.12,-115.5 292.62,-115.5"/>
<text text-anchor="middle" x="357.87" y="-121.5" font-family="Helvetica,sans-Serif" font-size="10.00">Source/src/MainPatcher.h</text>
</a>
</g>
</g>
<!-- Node2&#45;&gt;Node4 -->
<g id="edge3" class="edge">
<title>Node2&#45;&gt;Node4</title>
<path fill="none" stroke="midnightblue" d="M165.73,-230.36C166.6,-213.8 170.52,-189.72 184.87,-175 202.37,-157.05 265.93,-142.15 310.91,-133.53"/>
<polygon fill="midnightblue" stroke="midnightblue" points="162.23,-230.34 165.53,-240.41 169.23,-230.49 162.23,-230.34"/>
</g>
<!-- Node5 -->
<g id="node5" class="node">
<title>Node5</title>
<g id="a_node5"><a xlink:href="$_main_component_8h.html" xlink:title=" ">
<polygon fill="white" stroke="black" points="202.73,-55.5 202.73,-73.5 351.01,-73.5 351.01,-55.5 202.73,-55.5"/>
<text text-anchor="middle" x="276.87" y="-61.5" font-family="Helvetica,sans-Serif" font-size="10.00">Source/src/MainComponent.h</text>
</a>
</g>
</g>
<!-- Node4&#45;&gt;Node5 -->
<g id="edge4" class="edge">
<title>Node4&#45;&gt;Node5</title>
<path fill="none" stroke="midnightblue" d="M338.16,-109.39C322.53,-98.2 301.23,-82.95 288.3,-73.68"/>
<polygon fill="midnightblue" stroke="midnightblue" points="336.44,-112.46 346.61,-115.44 340.51,-106.77 336.44,-112.46"/>
</g>
<!-- Node8 -->
<g id="node8" class="node">
<title>Node8</title>
<g id="a_node8"><a xlink:href="$_main_patcher_8cpp.html" xlink:title=" ">
<polygon fill="white" stroke="black" points="369.34,-55.5 369.34,-73.5 510.4,-73.5 510.4,-55.5 369.34,-55.5"/>
<text text-anchor="middle" x="439.87" y="-61.5" font-family="Helvetica,sans-Serif" font-size="10.00">Source/src/MainPatcher.cpp</text>
</a>
</g>
</g>
<!-- Node4&#45;&gt;Node8 -->
<g id="edge7" class="edge">
<title>Node4&#45;&gt;Node8</title>
<path fill="none" stroke="midnightblue" d="M377.82,-109.39C393.64,-98.2 415.2,-82.95 428.3,-73.68"/>
<polygon fill="midnightblue" stroke="midnightblue" points="375.41,-106.8 369.27,-115.44 379.46,-112.52 375.41,-106.8"/>
</g>
<!-- Node6 -->
<g id="node6" class="node">
<title>Node6</title>
<g id="a_node6"><a xlink:href="$_main_8cpp.html" xlink:title=" ">
<polygon fill="white" stroke="black" points="148.3,-0.5 148.3,-18.5 255.44,-18.5 255.44,-0.5 148.3,-0.5"/>
<text text-anchor="middle" x="201.87" y="-6.5" font-family="Helvetica,sans-Serif" font-size="10.00">Source/src/Main.cpp</text>
</a>
</g>
</g>
<!-- Node5&#45;&gt;Node6 -->
<g id="edge5" class="edge">
<title>Node5&#45;&gt;Node6</title>
<path fill="none" stroke="midnightblue" d="M257.05,-49.49C243.12,-39.65 224.97,-26.83 213.37,-18.63"/>
<polygon fill="midnightblue" stroke="midnightblue" points="255.29,-52.54 265.48,-55.45 259.33,-46.82 255.29,-52.54"/>
</g>
<!-- Node7 -->
<g id="node7" class="node">
<title>Node7</title>
<g id="a_node7"><a xlink:href="$_main_component_8cpp.html" xlink:title=" ">
<polygon fill="white" stroke="black" points="273.45,-0.5 273.45,-18.5 432.29,-18.5 432.29,-0.5 273.45,-0.5"/>
<text text-anchor="middle" x="352.87" y="-6.5" font-family="Helvetica,sans-Serif" font-size="10.00">Source/src/MainComponent.cpp</text>
</a>
</g>
</g>
<!-- Node5&#45;&gt;Node7 -->
<g id="edge6" class="edge">
<title>Node5&#45;&gt;Node7</title>
<path fill="none" stroke="midnightblue" d="M296.96,-49.49C311.07,-39.65 329.46,-26.83 341.22,-18.63"/>
<polygon fill="midnightblue" stroke="midnightblue" points="294.61,-46.86 288.41,-55.45 298.62,-52.6 294.61,-46.86"/>
</g>
<!-- Node10 -->
<g id="node10" class="node">
<title>Node10</title>
<g id="a_node10"><a xlink:href="$_module_8cpp.html" xlink:title=" ">
<polygon fill="white" stroke="black" points="313.4,-180.5 313.4,-198.5 428.34,-198.5 428.34,-180.5 313.4,-180.5"/>
<text text-anchor="middle" x="370.87" y="-186.5" font-family="Helvetica,sans-Serif" font-size="10.00">Source/lib/Module.cpp</text>
</a>
</g>
</g>
<!-- Node9&#45;&gt;Node10 -->
<g id="edge9" class="edge">
<title>Node9&#45;&gt;Node10</title>
<path fill="none" stroke="midnightblue" d="M370.87,-230.21C370.87,-219.71 370.87,-207.03 370.87,-198.87"/>
<polygon fill="midnightblue" stroke="midnightblue" points="367.37,-230.44 370.87,-240.44 374.37,-230.44 367.37,-230.44"/>
</g>
<!-- Node11 -->
<g id="node11" class="node">
<title>Node11</title>
<g id="a_node11"><a xlink:href="$_module_box_8h.html" xlink:title=" ">
<polygon fill="white" stroke="black" points="446.06,-180.5 446.06,-198.5 567.68,-198.5 567.68,-180.5 446.06,-180.5"/>
<text text-anchor="middle" x="506.87" y="-186.5" font-family="Helvetica,sans-Serif" font-size="10.00">Source/lib/ModuleBox.h</text>
</a>
</g>
</g>
<!-- Node9&#45;&gt;Node11 -->
<g id="edge10" class="edge">
<title>Node9&#45;&gt;Node11</title>
<path fill="none" stroke="midnightblue" d="M399.28,-236.38C425.8,-225.07 464.64,-208.51 487.68,-198.68"/>
<polygon fill="midnightblue" stroke="midnightblue" points="397.6,-233.29 389.78,-240.44 400.35,-239.73 397.6,-233.29"/>
</g>
<!-- Node13 -->
<g id="node13" class="node">
<title>Node13</title>
<g id="a_node13"><a xlink:href="$module___gain_8h.html" xlink:title=" ">
<polygon fill="white" stroke="black" points="585.35,-175.5 585.35,-203.5 686.39,-203.5 686.39,-175.5 585.35,-175.5"/>
<text text-anchor="start" x="593.35" y="-191.5" font-family="Helvetica,sans-Serif" font-size="10.00">Source/lib/modules</text>
<text text-anchor="middle" x="635.87" y="-181.5" font-family="Helvetica,sans-Serif" font-size="10.00">/module_Gain.h</text>
</a>
</g>
</g>
<!-- Node9&#45;&gt;Node13 -->
<g id="edge13" class="edge">
<title>Node9&#45;&gt;Node13</title>
<path fill="none" stroke="midnightblue" d="M418.77,-238.33C460.54,-229.41 522.76,-216.04 576.87,-204 579.54,-203.41 582.27,-202.79 585.03,-202.17"/>
<polygon fill="midnightblue" stroke="midnightblue" points="417.92,-234.93 408.87,-240.44 419.38,-241.77 417.92,-234.93"/>
</g>
<!-- Node15 -->
<g id="node15" class="node">
<title>Node15</title>
<g id="a_node15"><a xlink:href="$module___impulse_8h.html" xlink:title=" ">
<polygon fill="white" stroke="black" points="194.35,-175.5 194.35,-203.5 295.39,-203.5 295.39,-175.5 194.35,-175.5"/>
<text text-anchor="start" x="202.35" y="-191.5" font-family="Helvetica,sans-Serif" font-size="10.00">Source/lib/modules</text>
<text text-anchor="middle" x="244.87" y="-181.5" font-family="Helvetica,sans-Serif" font-size="10.00">/module_Impulse.h</text>
</a>
</g>
</g>
<!-- Node9&#45;&gt;Node15 -->
<g id="edge16" class="edge">
<title>Node9&#45;&gt;Node15</title>
<path fill="none" stroke="midnightblue" d="M344.14,-236.2C323.36,-226.63 294.59,-213.39 273.37,-203.62"/>
<polygon fill="midnightblue" stroke="midnightblue" points="342.8,-239.43 353.35,-240.44 345.73,-233.07 342.8,-239.43"/>
</g>
<!-- Node11&#45;&gt;Node4 -->
<g id="edge12" class="edge">
<title>Node11&#45;&gt;Node4</title>
<path fill="none" stroke="midnightblue" d="M478.26,-176.4C448.47,-163.81 402.64,-144.43 376.97,-133.58"/>
<polygon fill="midnightblue" stroke="midnightblue" points="477.12,-179.72 487.7,-180.39 479.85,-173.27 477.12,-179.72"/>
</g>
<!-- Node12 -->
<g id="node12" class="node">
<title>Node12</title>
<g id="a_node12"><a xlink:href="$_module_box_8cpp.html" xlink:title=" ">
<polygon fill="white" stroke="black" points="440.78,-115.5 440.78,-133.5 572.96,-133.5 572.96,-115.5 440.78,-115.5"/>
<text text-anchor="middle" x="506.87" y="-121.5" font-family="Helvetica,sans-Serif" font-size="10.00">Source/lib/ModuleBox.cpp</text>
</a>
</g>
</g>
<!-- Node11&#45;&gt;Node12 -->
<g id="edge11" class="edge">
<title>Node11&#45;&gt;Node12</title>
<path fill="none" stroke="midnightblue" d="M506.87,-169.91C506.87,-157.81 506.87,-142.65 506.87,-133.54"/>
<polygon fill="midnightblue" stroke="midnightblue" points="503.37,-170.26 506.87,-180.26 510.37,-170.26 503.37,-170.26"/>
</g>
<!-- Node13&#45;&gt;Node4 -->
<g id="edge15" class="edge">
<title>Node13&#45;&gt;Node4</title>
<path fill="none" stroke="midnightblue" d="M575.48,-174.69C505.55,-158.79 434.93,-142.86 393.53,-133.53"/>
<polygon fill="midnightblue" stroke="midnightblue" points="574.81,-178.12 585.34,-176.93 576.37,-171.3 574.81,-178.12"/>
</g>
<!-- Node14 -->
<g id="node14" class="node">
<title>Node14</title>
<g id="a_node14"><a xlink:href="$module___gain_8cpp.html" xlink:title=" ">
<polygon fill="white" stroke="black" points="591.35,-110.5 591.35,-138.5 692.39,-138.5 692.39,-110.5 591.35,-110.5"/>
<text text-anchor="start" x="599.35" y="-126.5" font-family="Helvetica,sans-Serif" font-size="10.00">Source/lib/modules</text>
<text text-anchor="middle" x="641.87" y="-116.5" font-family="Helvetica,sans-Serif" font-size="10.00">/module_Gain.cpp</text>
</a>
</g>
</g>
<!-- Node13&#45;&gt;Node14 -->
<g id="edge14" class="edge">
<title>Node13&#45;&gt;Node14</title>
<path fill="none" stroke="midnightblue" d="M638.06,-165.46C638.93,-156.39 639.89,-146.3 640.63,-138.54"/>
<polygon fill="midnightblue" stroke="midnightblue" points="634.58,-165.16 637.11,-175.45 641.54,-165.82 634.58,-165.16"/>
</g>
<!-- Node15&#45;&gt;Node4 -->
<g id="edge18" class="edge">
<title>Node15&#45;&gt;Node4</title>
<path fill="none" stroke="midnightblue" d="M277.23,-170.46C299.07,-158.28 326.84,-142.8 343.43,-133.55"/>
<polygon fill="midnightblue" stroke="midnightblue" points="275.31,-167.52 268.28,-175.45 278.72,-173.63 275.31,-167.52"/>
</g>
<!-- Node16 -->
<g id="node16" class="node">
<title>Node16</title>
<g id="a_node16"><a xlink:href="$module___impulse_8cpp.html" xlink:title=" ">
<polygon fill="white" stroke="black" points="163.34,-110.5 163.34,-138.5 274.4,-138.5 274.4,-110.5 163.34,-110.5"/>
<text text-anchor="start" x="171.34" y="-126.5" font-family="Helvetica,sans-Serif" font-size="10.00">Source/lib/modules</text>
<text text-anchor="middle" x="218.87" y="-116.5" font-family="Helvetica,sans-Serif" font-size="10.00">/module_Impulse.cpp</text>
</a>
</g>
</g>
<!-- Node15&#45;&gt;Node16 -->
<g id="edge17" class="edge">
<title>Node15&#45;&gt;Node16</title>
<path fill="none" stroke="midnightblue" d="M235.6,-166.05C231.8,-156.83 227.53,-146.47 224.25,-138.54"/>
<polygon fill="midnightblue" stroke="midnightblue" points="232.43,-167.54 239.48,-175.45 238.9,-164.87 232.43,-167.54"/>
</g>
</g>
</svg>
