<?xml version="1.0" encoding="UTF-8" standalone="no"?>
<!DOCTYPE svg PUBLIC "-//W3C//DTD SVG 1.1//EN"
 "http://www.w3.org/Graphics/SVG/1.1/DTD/svg11.dtd">
<!-- Generated by graphviz version 2.42.3 (20191010.1750)
 -->
<!-- Title: Source/lib/UIobjects/ui_Dial.cpp Pages: 1 -->
<svg width="116pt" height="147pt"
 viewBox="0.00 0.00 115.92 147.00" xmlns="http://www.w3.org/2000/svg" xmlns:xlink="http://www.w3.org/1999/xlink">
<g id="graph0" class="graph" transform="scale(1 1) rotate(0) translate(4 143)">
<title>Source/lib/UIobjects/ui_Dial.cpp</title>
<polygon fill="white" stroke="transparent" points="-4,4 -4,-143 111.92,-143 111.92,4 -4,4"/>
<!-- Node1 -->
<g id="node1" class="node">
<title>Node1</title>
<g id="a_node1"><a xlink:title=" ">
<polygon fill="#bfbfbf" stroke="black" points="0,-110.5 0,-138.5 104.93,-138.5 104.93,-110.5 0,-110.5"/>
<text text-anchor="start" x="8" y="-126.5" font-family="Helvetica,sans-Serif" font-size="10.00">Source/lib/UIobjects</text>
<text text-anchor="middle" x="52.47" y="-116.5" font-family="Helvetica,sans-Serif" font-size="10.00">/ui_Dial.cpp</text>
</a>
</g>
</g>
<!-- Node2 -->
<g id="node2" class="node">
<title>Node2</title>
<g id="a_node2"><a xlink:title=" ">
<polygon fill="white" stroke="#bfbfbf" points="13.61,-0.5 13.61,-18.5 91.32,-18.5 91.32,-0.5 13.61,-0.5"/>
<text text-anchor="middle" x="52.47" y="-6.5" font-family="Helvetica,sans-Serif" font-size="10.00">JuceHeader.h</text>
</a>
</g>
</g>
<!-- Node1&#45;&gt;Node2 -->
<g id="edge1" class="edge">
<title>Node1&#45;&gt;Node2</title>
<path fill="none" stroke="midnightblue" d="M49.32,-110.39C46.4,-96.62 42.74,-74.32 44.47,-55 45.24,-46.28 46.86,-36.72 48.44,-28.7"/>
<polygon fill="midnightblue" stroke="midnightblue" points="51.92,-29.15 50.55,-18.64 45.07,-27.71 51.92,-29.15"/>
</g>
<!-- Node3 -->
<g id="node3" class="node">
<title>Node3</title>
<g id="a_node3"><a xlink:href="$ui___dial_8h.html" xlink:title=" ">
<polygon fill="white" stroke="black" points="53.01,-55.5 53.01,-73.5 107.92,-73.5 107.92,-55.5 53.01,-55.5"/>
<text text-anchor="middle" x="80.47" y="-61.5" font-family="Helvetica,sans-Serif" font-size="10.00">ui_Dial.h</text>
</a>
</g>
</g>
<!-- Node1&#45;&gt;Node3 -->
<g id="edge2" class="edge">
<title>Node1&#45;&gt;Node3</title>
<path fill="none" stroke="midnightblue" d="M58.82,-110.34C62.76,-102.18 67.86,-91.61 72.12,-82.78"/>
<polygon fill="midnightblue" stroke="midnightblue" points="75.28,-84.3 76.47,-73.77 68.97,-81.26 75.28,-84.3"/>
</g>
<!-- Node3&#45;&gt;Node2 -->
<g id="edge3" class="edge">
<title>Node3&#45;&gt;Node2</title>
<path fill="none" stroke="midnightblue" d="M76.09,-55.22C72.2,-47.86 66.4,-36.88 61.52,-27.64"/>
<polygon fill="midnightblue" stroke="midnightblue" points="64.48,-25.76 56.72,-18.55 58.29,-29.03 64.48,-25.76"/>
</g>
</g>
</svg>
