<?xml version="1.0" encoding="UTF-8" standalone="no"?>
<!DOCTYPE svg PUBLIC "-//W3C//DTD SVG 1.1//EN"
 "http://www.w3.org/Graphics/SVG/1.1/DTD/svg11.dtd">
<!-- Generated by graphviz version 2.42.3 (20191010.1750)
 -->
<!-- Title: Source/lib/UIobjects/ui_Dial.h Pages: 1 -->
<svg width="450pt" height="277pt"
 viewBox="0.00 0.00 450.04 277.00" xmlns="http://www.w3.org/2000/svg" xmlns:xlink="http://www.w3.org/1999/xlink">
<g id="graph0" class="graph" transform="scale(1 1) rotate(0) translate(4 273)">
<title>Source/lib/UIobjects/ui_Dial.h</title>
<polygon fill="white" stroke="transparent" points="-4,4 -4,-273 446.04,-273 446.04,4 -4,4"/>
<!-- Node1 -->
<g id="node1" class="node">
<title>Node1</title>
<g id="a_node1"><a xlink:title=" ">
<polygon fill="#bfbfbf" stroke="black" points="216.11,-240.5 216.11,-268.5 321.04,-268.5 321.04,-240.5 216.11,-240.5"/>
<text text-anchor="start" x="224.11" y="-256.5" font-family="Helvetica,sans-Serif" font-size="10.00">Source/lib/UIobjects</text>
<text text-anchor="middle" x="268.57" y="-246.5" font-family="Helvetica,sans-Serif" font-size="10.00">/ui_Dial.h</text>
</a>
</g>
</g>
<!-- Node2 -->
<g id="node2" class="node">
<title>Node2</title>
<g id="a_node2"><a xlink:href="$module___gain_8h.html" xlink:title=" ">
<polygon fill="white" stroke="black" points="99.05,-175.5 99.05,-203.5 200.1,-203.5 200.1,-175.5 99.05,-175.5"/>
<text text-anchor="start" x="107.05" y="-191.5" font-family="Helvetica,sans-Serif" font-size="10.00">Source/lib/modules</text>
<text text-anchor="middle" x="149.57" y="-181.5" font-family="Helvetica,sans-Serif" font-size="10.00">/module_Gain.h</text>
</a>
</g>
</g>
<!-- Node1&#45;&gt;Node2 -->
<g id="edge1" class="edge">
<title>Node1&#45;&gt;Node2</title>
<path fill="none" stroke="midnightblue" d="M234.85,-235.64C215.54,-225.42 191.74,-212.82 174.2,-203.54"/>
<polygon fill="midnightblue" stroke="midnightblue" points="233.44,-238.86 243.92,-240.45 236.72,-232.67 233.44,-238.86"/>
</g>
<!-- Node9 -->
<g id="node9" class="node">
<title>Node9</title>
<g id="a_node9"><a xlink:href="$module___impulse_8h.html" xlink:title=" ">
<polygon fill="white" stroke="black" points="218.05,-175.5 218.05,-203.5 319.1,-203.5 319.1,-175.5 218.05,-175.5"/>
<text text-anchor="start" x="226.05" y="-191.5" font-family="Helvetica,sans-Serif" font-size="10.00">Source/lib/modules</text>
<text text-anchor="middle" x="268.57" y="-181.5" font-family="Helvetica,sans-Serif" font-size="10.00">/module_Impulse.h</text>
</a>
</g>
</g>
<!-- Node1&#45;&gt;Node9 -->
<g id="edge8" class="edge">
<title>Node1&#45;&gt;Node9</title>
<path fill="none" stroke="midnightblue" d="M268.57,-230.16C268.57,-221.17 268.57,-211.22 268.57,-203.54"/>
<polygon fill="midnightblue" stroke="midnightblue" points="265.07,-230.45 268.57,-240.45 272.07,-230.45 265.07,-230.45"/>
</g>
<!-- Node11 -->
<g id="node11" class="node">
<title>Node11</title>
<g id="a_node11"><a xlink:href="$ui___dial_8cpp.html" xlink:title=" ">
<polygon fill="white" stroke="black" points="337.11,-175.5 337.11,-203.5 442.04,-203.5 442.04,-175.5 337.11,-175.5"/>
<text text-anchor="start" x="345.11" y="-191.5" font-family="Helvetica,sans-Serif" font-size="10.00">Source/lib/UIobjects</text>
<text text-anchor="middle" x="389.57" y="-181.5" font-family="Helvetica,sans-Serif" font-size="10.00">/ui_Dial.cpp</text>
</a>
</g>
</g>
<!-- Node1&#45;&gt;Node11 -->
<g id="edge11" class="edge">
<title>Node1&#45;&gt;Node11</title>
<path fill="none" stroke="midnightblue" d="M302.6,-235.78C322.28,-225.54 346.61,-212.87 364.53,-203.54"/>
<polygon fill="midnightblue" stroke="midnightblue" points="300.9,-232.72 293.65,-240.45 304.13,-238.93 300.9,-232.72"/>
</g>
<!-- Node3 -->
<g id="node3" class="node">
<title>Node3</title>
<g id="a_node3"><a xlink:href="$module___gain_8cpp.html" xlink:title=" ">
<polygon fill="white" stroke="black" points="25.05,-110.5 25.05,-138.5 126.1,-138.5 126.1,-110.5 25.05,-110.5"/>
<text text-anchor="start" x="33.05" y="-126.5" font-family="Helvetica,sans-Serif" font-size="10.00">Source/lib/modules</text>
<text text-anchor="middle" x="75.57" y="-116.5" font-family="Helvetica,sans-Serif" font-size="10.00">/module_Gain.cpp</text>
</a>
</g>
</g>
<!-- Node2&#45;&gt;Node3 -->
<g id="edge2" class="edge">
<title>Node2&#45;&gt;Node3</title>
<path fill="none" stroke="midnightblue" d="M126.61,-168.95C114.99,-159.06 101.2,-147.32 90.89,-138.54"/>
<polygon fill="midnightblue" stroke="midnightblue" points="124.36,-171.63 134.24,-175.45 128.9,-166.3 124.36,-171.63"/>
</g>
<!-- Node4 -->
<g id="node4" class="node">
<title>Node4</title>
<g id="a_node4"><a xlink:href="$_main_patcher_8h.html" xlink:title=" ">
<polygon fill="white" stroke="black" points="144.32,-115.5 144.32,-133.5 274.82,-133.5 274.82,-115.5 144.32,-115.5"/>
<text text-anchor="middle" x="209.57" y="-121.5" font-family="Helvetica,sans-Serif" font-size="10.00">Source/src/MainPatcher.h</text>
</a>
</g>
</g>
<!-- Node2&#45;&gt;Node4 -->
<g id="edge3" class="edge">
<title>Node2&#45;&gt;Node4</title>
<path fill="none" stroke="midnightblue" d="M168.92,-168.18C180.06,-156.49 193.45,-142.43 201.74,-133.73"/>
<polygon fill="midnightblue" stroke="midnightblue" points="166.37,-165.79 162.01,-175.45 171.44,-170.62 166.37,-165.79"/>
</g>
<!-- Node5 -->
<g id="node5" class="node">
<title>Node5</title>
<g id="a_node5"><a xlink:href="$_main_component_8h.html" xlink:title=" ">
<polygon fill="white" stroke="black" points="54.43,-55.5 54.43,-73.5 202.72,-73.5 202.72,-55.5 54.43,-55.5"/>
<text text-anchor="middle" x="128.57" y="-61.5" font-family="Helvetica,sans-Serif" font-size="10.00">Source/src/MainComponent.h</text>
</a>
</g>
</g>
<!-- Node4&#45;&gt;Node5 -->
<g id="edge4" class="edge">
<title>Node4&#45;&gt;Node5</title>
<path fill="none" stroke="midnightblue" d="M189.87,-109.39C174.24,-98.2 152.94,-82.95 140,-73.68"/>
<polygon fill="midnightblue" stroke="midnightblue" points="188.14,-112.46 198.31,-115.44 192.22,-106.77 188.14,-112.46"/>
</g>
<!-- Node8 -->
<g id="node8" class="node">
<title>Node8</title>
<g id="a_node8"><a xlink:href="$_main_patcher_8cpp.html" xlink:title=" ">
<polygon fill="white" stroke="black" points="221.04,-55.5 221.04,-73.5 362.11,-73.5 362.11,-55.5 221.04,-55.5"/>
<text text-anchor="middle" x="291.57" y="-61.5" font-family="Helvetica,sans-Serif" font-size="10.00">Source/src/MainPatcher.cpp</text>
</a>
</g>
</g>
<!-- Node4&#45;&gt;Node8 -->
<g id="edge7" class="edge">
<title>Node4&#45;&gt;Node8</title>
<path fill="none" stroke="midnightblue" d="M229.52,-109.39C245.34,-98.2 266.91,-82.95 280,-73.68"/>
<polygon fill="midnightblue" stroke="midnightblue" points="227.12,-106.8 220.98,-115.44 231.16,-112.52 227.12,-106.8"/>
</g>
<!-- Node6 -->
<g id="node6" class="node">
<title>Node6</title>
<g id="a_node6"><a xlink:href="$_main_8cpp.html" xlink:title=" ">
<polygon fill="white" stroke="black" points="0,-0.5 0,-18.5 107.15,-18.5 107.15,-0.5 0,-0.5"/>
<text text-anchor="middle" x="53.57" y="-6.5" font-family="Helvetica,sans-Serif" font-size="10.00">Source/src/Main.cpp</text>
</a>
</g>
</g>
<!-- Node5&#45;&gt;Node6 -->
<g id="edge5" class="edge">
<title>Node5&#45;&gt;Node6</title>
<path fill="none" stroke="midnightblue" d="M108.75,-49.49C94.82,-39.65 76.68,-26.83 65.07,-18.63"/>
<polygon fill="midnightblue" stroke="midnightblue" points="107,-52.54 117.18,-55.45 111.04,-46.82 107,-52.54"/>
</g>
<!-- Node7 -->
<g id="node7" class="node">
<title>Node7</title>
<g id="a_node7"><a xlink:href="$_main_component_8cpp.html" xlink:title=" ">
<polygon fill="white" stroke="black" points="125.15,-0.5 125.15,-18.5 284,-18.5 284,-0.5 125.15,-0.5"/>
<text text-anchor="middle" x="204.57" y="-6.5" font-family="Helvetica,sans-Serif" font-size="10.00">Source/src/MainComponent.cpp</text>
</a>
</g>
</g>
<!-- Node5&#45;&gt;Node7 -->
<g id="edge6" class="edge">
<title>Node5&#45;&gt;Node7</title>
<path fill="none" stroke="midnightblue" d="M148.66,-49.49C162.78,-39.65 181.16,-26.83 192.92,-18.63"/>
<polygon fill="midnightblue" stroke="midnightblue" points="146.32,-46.86 140.12,-55.45 150.32,-52.6 146.32,-46.86"/>
</g>
<!-- Node9&#45;&gt;Node4 -->
<g id="edge10" class="edge">
<title>Node9&#45;&gt;Node4</title>
<path fill="none" stroke="midnightblue" d="M249.23,-167.85C238.34,-156.22 225.35,-142.35 217.28,-133.73"/>
<polygon fill="midnightblue" stroke="midnightblue" points="246.96,-170.54 256.35,-175.45 252.07,-165.75 246.96,-170.54"/>
</g>
<!-- Node10 -->
<g id="node10" class="node">
<title>Node10</title>
<g id="a_node10"><a xlink:href="$module___impulse_8cpp.html" xlink:title=" ">
<polygon fill="white" stroke="black" points="293.05,-110.5 293.05,-138.5 404.1,-138.5 404.1,-110.5 293.05,-110.5"/>
<text text-anchor="start" x="301.05" y="-126.5" font-family="Helvetica,sans-Serif" font-size="10.00">Source/lib/modules</text>
<text text-anchor="middle" x="348.57" y="-116.5" font-family="Helvetica,sans-Serif" font-size="10.00">/module_Impulse.cpp</text>
</a>
</g>
</g>
<!-- Node9&#45;&gt;Node10 -->
<g id="edge9" class="edge">
<title>Node9&#45;&gt;Node10</title>
<path fill="none" stroke="midnightblue" d="M293.04,-169.24C305.67,-159.28 320.76,-147.4 332.02,-138.54"/>
<polygon fill="midnightblue" stroke="midnightblue" points="290.84,-166.51 285.15,-175.45 295.17,-172.01 290.84,-166.51"/>
</g>
</g>
</svg>
