<?xml version="1.0" encoding="UTF-8" standalone="no"?>
<!DOCTYPE svg PUBLIC "-//W3C//DTD SVG 1.1//EN"
 "http://www.w3.org/Graphics/SVG/1.1/DTD/svg11.dtd">
<!-- Generated by graphviz version 2.42.3 (20191010.1750)
 -->
<!-- Title: Source/lib/Connections.cpp Pages: 1 -->
<svg width="259pt" height="192pt"
 viewBox="0.00 0.00 258.83 192.00" xmlns="http://www.w3.org/2000/svg" xmlns:xlink="http://www.w3.org/1999/xlink">
<g id="graph0" class="graph" transform="scale(1 1) rotate(0) translate(4 188)">
<title>Source/lib/Connections.cpp</title>
<polygon fill="white" stroke="transparent" points="-4,4 -4,-188 254.83,-188 254.83,4 -4,4"/>
<!-- Node1 -->
<g id="node1" class="node">
<title>Node1</title>
<g id="a_node1"><a xlink:title=" ">
<polygon fill="#bfbfbf" stroke="black" points="0,-165.5 0,-183.5 137.74,-183.5 137.74,-165.5 0,-165.5"/>
<text text-anchor="middle" x="68.87" y="-171.5" font-family="Helvetica,sans-Serif" font-size="10.00">Source/lib/Connections.cpp</text>
</a>
</g>
</g>
<!-- Node2 -->
<g id="node2" class="node">
<title>Node2</title>
<g id="a_node2"><a xlink:title=" ">
<polygon fill="white" stroke="#bfbfbf" points="63.01,-0.5 63.01,-18.5 140.73,-18.5 140.73,-0.5 63.01,-0.5"/>
<text text-anchor="middle" x="101.87" y="-6.5" font-family="Helvetica,sans-Serif" font-size="10.00">JuceHeader.h</text>
</a>
</g>
</g>
<!-- Node1&#45;&gt;Node2 -->
<g id="edge1" class="edge">
<title>Node1&#45;&gt;Node2</title>
<path fill="none" stroke="midnightblue" d="M68.63,-165.3C68.38,-156.37 68.01,-141.67 67.87,-129 67.77,-120.56 66.49,-118.33 67.87,-110 72.82,-80.22 85.56,-47.39 93.96,-27.88"/>
<polygon fill="midnightblue" stroke="midnightblue" points="97.26,-29.08 98.11,-18.52 90.86,-26.25 97.26,-29.08"/>
</g>
<!-- Node3 -->
<g id="node3" class="node">
<title>Node3</title>
<g id="a_node3"><a xlink:href="_connections_8h.html" target="_top" xlink:title=" ">
<polygon fill="white" stroke="black" points="76.9,-110.5 76.9,-128.5 156.83,-128.5 156.83,-110.5 76.9,-110.5"/>
<text text-anchor="middle" x="116.87" y="-116.5" font-family="Helvetica,sans-Serif" font-size="10.00">Connections.h</text>
</a>
</g>
</g>
<!-- Node1&#45;&gt;Node3 -->
<g id="edge2" class="edge">
<title>Node1&#45;&gt;Node3</title>
<path fill="none" stroke="midnightblue" d="M76.37,-165.22C83.38,-157.47 94.05,-145.7 102.67,-136.18"/>
<polygon fill="midnightblue" stroke="midnightblue" points="105.46,-138.31 109.58,-128.55 100.27,-133.61 105.46,-138.31"/>
</g>
<!-- Node3&#45;&gt;Node2 -->
<g id="edge3" class="edge">
<title>Node3&#45;&gt;Node2</title>
<path fill="none" stroke="midnightblue" d="M110.47,-110.21C104.33,-101.67 95.46,-87.72 91.87,-74 87.9,-58.82 91.31,-41.15 95.19,-28.32"/>
<polygon fill="midnightblue" stroke="midnightblue" points="98.51,-29.42 98.4,-18.83 91.88,-27.17 98.51,-29.42"/>
</g>
<!-- Node4 -->
<g id="node4" class="node">
<title>Node4</title>
<g id="a_node4"><a xlink:href="phi___inlet_8h.html" target="_top" xlink:title=" ">
<polygon fill="white" stroke="black" points="100.8,-55.5 100.8,-73.5 162.94,-73.5 162.94,-55.5 100.8,-55.5"/>
<text text-anchor="middle" x="131.87" y="-61.5" font-family="Helvetica,sans-Serif" font-size="10.00">phi_Inlet.h</text>
</a>
</g>
</g>
<!-- Node3&#45;&gt;Node4 -->
<g id="edge4" class="edge">
<title>Node3&#45;&gt;Node4</title>
<path fill="none" stroke="midnightblue" d="M119.21,-110.22C121.25,-103.02 124.27,-92.35 126.85,-83.23"/>
<polygon fill="midnightblue" stroke="midnightblue" points="130.24,-84.12 129.59,-73.55 123.5,-82.22 130.24,-84.12"/>
</g>
<!-- Node5 -->
<g id="node5" class="node">
<title>Node5</title>
<g id="a_node5"><a xlink:href="phi___outlet_8h.html" target="_top" xlink:title=" ">
<polygon fill="white" stroke="black" points="180.91,-55.5 180.91,-73.5 250.83,-73.5 250.83,-55.5 180.91,-55.5"/>
<text text-anchor="middle" x="215.87" y="-61.5" font-family="Helvetica,sans-Serif" font-size="10.00">phi_Outlet.h</text>
</a>
</g>
</g>
<!-- Node3&#45;&gt;Node5 -->
<g id="edge6" class="edge">
<title>Node3&#45;&gt;Node5</title>
<path fill="none" stroke="midnightblue" d="M131.91,-110.45C147.82,-101.93 173.18,-88.35 191.87,-78.35"/>
<polygon fill="midnightblue" stroke="midnightblue" points="193.53,-81.43 200.69,-73.63 190.22,-75.26 193.53,-81.43"/>
</g>
<!-- Node4&#45;&gt;Node2 -->
<g id="edge5" class="edge">
<title>Node4&#45;&gt;Node2</title>
<path fill="none" stroke="midnightblue" d="M127.18,-55.22C122.97,-47.79 116.67,-36.65 111.4,-27.34"/>
<polygon fill="midnightblue" stroke="midnightblue" points="114.4,-25.53 106.43,-18.55 108.31,-28.98 114.4,-25.53"/>
</g>
<!-- Node5&#45;&gt;Node2 -->
<g id="edge7" class="edge">
<title>Node5&#45;&gt;Node2</title>
<path fill="none" stroke="midnightblue" d="M198.55,-55.45C179.97,-46.81 150.22,-32.98 128.63,-22.94"/>
<polygon fill="midnightblue" stroke="midnightblue" points="129.89,-19.67 119.35,-18.63 126.94,-26.01 129.89,-19.67"/>
</g>
</g>
</svg>
