<?xml version="1.0" encoding="UTF-8" standalone="no"?>
<!DOCTYPE svg PUBLIC "-//W3C//DTD SVG 1.1//EN"
 "http://www.w3.org/Graphics/SVG/1.1/DTD/svg11.dtd">
<!-- Generated by graphviz version 2.42.3 (20191010.1750)
 -->
<!-- Title: Source/src/Main.cpp Pages: 1 -->
<svg width="525pt" height="367pt"
 viewBox="0.00 0.00 524.76 367.00" xmlns="http://www.w3.org/2000/svg" xmlns:xlink="http://www.w3.org/1999/xlink">
<g id="graph0" class="graph" transform="scale(1 1) rotate(0) translate(4 363)">
<title>Source/src/Main.cpp</title>
<polygon fill="white" stroke="transparent" points="-4,4 -4,-363 520.76,-363 520.76,4 -4,4"/>
<!-- Node1 -->
<g id="node1" class="node">
<title>Node1</title>
<g id="a_node1"><a xlink:title=" ">
<polygon fill="#bfbfbf" stroke="black" points="0,-340.5 0,-358.5 107.15,-358.5 107.15,-340.5 0,-340.5"/>
<text text-anchor="middle" x="53.57" y="-346.5" font-family="Helvetica,sans-Serif" font-size="10.00">Source/src/Main.cpp</text>
</a>
</g>
</g>
<!-- Node2 -->
<g id="node2" class="node">
<title>Node2</title>
<g id="a_node2"><a xlink:title=" ">
<polygon fill="white" stroke="#bfbfbf" points="210.72,-0.5 210.72,-18.5 288.43,-18.5 288.43,-0.5 210.72,-0.5"/>
<text text-anchor="middle" x="249.57" y="-6.5" font-family="Helvetica,sans-Serif" font-size="10.00">JuceHeader.h</text>
</a>
</g>
</g>
<!-- Node1&#45;&gt;Node2 -->
<g id="edge1" class="edge">
<title>Node1&#45;&gt;Node2</title>
<path fill="none" stroke="midnightblue" d="M48.61,-340.44C38.31,-322.94 15.57,-279.86 15.57,-240.5 15.57,-240.5 15.57,-240.5 15.57,-118.5 15.57,-37.75 131.88,-17.18 200.5,-12.07"/>
<polygon fill="midnightblue" stroke="midnightblue" points="200.92,-15.55 210.67,-11.4 200.46,-8.56 200.92,-15.55"/>
</g>
<!-- Node3 -->
<g id="node3" class="node">
<title>Node3</title>
<g id="a_node3"><a xlink:href="_main_component_8h.html" target="_top" xlink:title=" ">
<polygon fill="white" stroke="black" points="43.72,-285.5 43.72,-303.5 141.43,-303.5 141.43,-285.5 43.72,-285.5"/>
<text text-anchor="middle" x="92.57" y="-291.5" font-family="Helvetica,sans-Serif" font-size="10.00">MainComponent.h</text>
</a>
</g>
</g>
<!-- Node1&#45;&gt;Node3 -->
<g id="edge2" class="edge">
<title>Node1&#45;&gt;Node3</title>
<path fill="none" stroke="midnightblue" d="M59.67,-340.22C65.25,-332.63 73.68,-321.18 80.61,-311.76"/>
<polygon fill="midnightblue" stroke="midnightblue" points="83.54,-313.68 86.65,-303.55 77.9,-309.53 83.54,-313.68"/>
</g>
<!-- Node3&#45;&gt;Node2 -->
<g id="edge3" class="edge">
<title>Node3&#45;&gt;Node2</title>
<path fill="none" stroke="midnightblue" d="M87.63,-285.33C77.14,-267.17 53.57,-221.8 53.57,-180.5 53.57,-180.5 53.57,-180.5 53.57,-118.5 53.57,-51.61 142.22,-25.84 200.28,-16.14"/>
<polygon fill="midnightblue" stroke="midnightblue" points="201.04,-19.56 210.38,-14.56 199.96,-12.65 201.04,-19.56"/>
</g>
<!-- Node4 -->
<g id="node4" class="node">
<title>Node4</title>
<g id="a_node4"><a xlink:href="_main_patcher_8h.html" target="_top" xlink:title=" ">
<polygon fill="white" stroke="black" points="297.61,-230.5 297.61,-248.5 377.54,-248.5 377.54,-230.5 297.61,-230.5"/>
<text text-anchor="middle" x="337.57" y="-236.5" font-family="Helvetica,sans-Serif" font-size="10.00">MainPatcher.h</text>
</a>
</g>
</g>
<!-- Node3&#45;&gt;Node4 -->
<g id="edge4" class="edge">
<title>Node3&#45;&gt;Node4</title>
<path fill="none" stroke="midnightblue" d="M129.78,-285.45C172.81,-276.14 243.7,-260.81 290.52,-250.68"/>
<polygon fill="midnightblue" stroke="midnightblue" points="291.38,-254.07 300.42,-248.54 289.9,-247.23 291.38,-254.07"/>
</g>
<!-- Node4&#45;&gt;Node2 -->
<g id="edge5" class="edge">
<title>Node4&#45;&gt;Node2</title>
<path fill="none" stroke="midnightblue" d="M377.61,-233.98C423.99,-227.83 496.17,-215.1 512.57,-194 520.49,-183.82 514.76,-177.7 512.57,-165 503.78,-113.88 512.81,-88.93 473.57,-55 447.9,-32.8 356.37,-20.39 298.56,-14.6"/>
<polygon fill="midnightblue" stroke="midnightblue" points="298.82,-11.11 288.53,-13.63 298.15,-18.08 298.82,-11.11"/>
</g>
<!-- Node5 -->
<g id="node5" class="node">
<title>Node5</title>
<g id="a_node5"><a xlink:href="_module_box_8h.html" target="_top" xlink:title=" ">
<polygon fill="white" stroke="black" points="407.83,-170.5 407.83,-188.5 503.32,-188.5 503.32,-170.5 407.83,-170.5"/>
<text text-anchor="middle" x="455.57" y="-176.5" font-family="Helvetica,sans-Serif" font-size="10.00">../lib/ModuleBox.h</text>
</a>
</g>
</g>
<!-- Node4&#45;&gt;Node5 -->
<g id="edge6" class="edge">
<title>Node4&#45;&gt;Node5</title>
<path fill="none" stroke="midnightblue" d="M353.98,-230.44C373.6,-220.79 406.66,-204.54 429.72,-193.21"/>
<polygon fill="midnightblue" stroke="midnightblue" points="431.49,-196.24 438.93,-188.68 428.41,-189.95 431.49,-196.24"/>
</g>
<!-- Node9 -->
<g id="node9" class="node">
<title>Node9</title>
<g id="a_node9"><a xlink:href="_connections_8h.html" target="_top" xlink:title=" ">
<polygon fill="white" stroke="black" points="359.05,-110.5 359.05,-128.5 460.1,-128.5 460.1,-110.5 359.05,-110.5"/>
<text text-anchor="middle" x="409.57" y="-116.5" font-family="Helvetica,sans-Serif" font-size="10.00">../lib/Connections.h</text>
</a>
</g>
</g>
<!-- Node4&#45;&gt;Node9 -->
<g id="edge14" class="edge">
<title>Node4&#45;&gt;Node9</title>
<path fill="none" stroke="midnightblue" d="M342.52,-230.39C354.19,-211.27 383.59,-163.08 399.31,-137.33"/>
<polygon fill="midnightblue" stroke="midnightblue" points="402.37,-139.03 404.59,-128.67 396.39,-135.38 402.37,-139.03"/>
</g>
<!-- Node10 -->
<g id="node10" class="node">
<title>Node10</title>
<g id="a_node10"><a xlink:href="module___impulse_8h.html" target="_top" xlink:title=" ">
<polygon fill="white" stroke="black" points="113.33,-165.5 113.33,-193.5 223.82,-193.5 223.82,-165.5 113.33,-165.5"/>
<text text-anchor="start" x="121.33" y="-181.5" font-family="Helvetica,sans-Serif" font-size="10.00">../lib/modules/module</text>
<text text-anchor="middle" x="168.57" y="-171.5" font-family="Helvetica,sans-Serif" font-size="10.00">_Impulse.h</text>
</a>
</g>
</g>
<!-- Node4&#45;&gt;Node10 -->
<g id="edge18" class="edge">
<title>Node4&#45;&gt;Node10</title>
<path fill="none" stroke="midnightblue" d="M314.08,-230.44C288.84,-221.78 248.07,-207.78 216.09,-196.81"/>
<polygon fill="midnightblue" stroke="midnightblue" points="217.08,-193.45 206.48,-193.51 214.8,-200.07 217.08,-193.45"/>
</g>
<!-- Node12 -->
<g id="node12" class="node">
<title>Node12</title>
<g id="a_node12"><a xlink:href="module___gain_8h.html" target="_top" xlink:title=" ">
<polygon fill="white" stroke="black" points="241.33,-165.5 241.33,-193.5 351.82,-193.5 351.82,-165.5 241.33,-165.5"/>
<text text-anchor="start" x="249.33" y="-181.5" font-family="Helvetica,sans-Serif" font-size="10.00">../lib/modules/module</text>
<text text-anchor="middle" x="296.57" y="-171.5" font-family="Helvetica,sans-Serif" font-size="10.00">_Gain.h</text>
</a>
</g>
</g>
<!-- Node4&#45;&gt;Node12 -->
<g id="edge23" class="edge">
<title>Node4&#45;&gt;Node12</title>
<path fill="none" stroke="midnightblue" d="M331.87,-230.44C326.7,-223.12 318.83,-211.99 311.84,-202.09"/>
<polygon fill="midnightblue" stroke="midnightblue" points="314.64,-199.99 306.01,-193.84 308.92,-204.03 314.64,-199.99"/>
</g>
<!-- Node5&#45;&gt;Node2 -->
<g id="edge7" class="edge">
<title>Node5&#45;&gt;Node2</title>
<path fill="none" stroke="midnightblue" d="M458.67,-170.24C462.13,-160.54 467.51,-143.86 469.57,-129 474.21,-95.57 477.42,-77.84 452.57,-55 430.47,-34.68 351.33,-21.98 298.64,-15.57"/>
<polygon fill="midnightblue" stroke="midnightblue" points="298.82,-12.07 288.48,-14.37 298,-19.02 298.82,-12.07"/>
</g>
<!-- Node6 -->
<g id="node6" class="node">
<title>Node6</title>
<g id="a_node6"><a xlink:href="_module_8h.html" target="_top" xlink:title=" ">
<polygon fill="white" stroke="black" points="284,-110.5 284,-128.5 341.14,-128.5 341.14,-110.5 284,-110.5"/>
<text text-anchor="middle" x="312.57" y="-116.5" font-family="Helvetica,sans-Serif" font-size="10.00">Module.h</text>
</a>
</g>
</g>
<!-- Node5&#45;&gt;Node6 -->
<g id="edge8" class="edge">
<title>Node5&#45;&gt;Node6</title>
<path fill="none" stroke="midnightblue" d="M435.69,-170.44C411.39,-160.58 370.05,-143.81 342.05,-132.45"/>
<polygon fill="midnightblue" stroke="midnightblue" points="343.33,-129.2 332.75,-128.68 340.7,-135.69 343.33,-129.2"/>
</g>
<!-- Node6&#45;&gt;Node2 -->
<g id="edge9" class="edge">
<title>Node6&#45;&gt;Node2</title>
<path fill="none" stroke="midnightblue" d="M302.02,-110.42C292.04,-102.26 277.33,-88.77 268.57,-74 260.31,-60.07 255.39,-42.26 252.64,-29.05"/>
<polygon fill="midnightblue" stroke="midnightblue" points="256.01,-28.03 250.74,-18.83 249.12,-29.31 256.01,-28.03"/>
</g>
<!-- Node7 -->
<g id="node7" class="node">
<title>Node7</title>
<g id="a_node7"><a xlink:href="phi___inlet_8h.html" target="_top" xlink:title=" ">
<polygon fill="white" stroke="black" points="365.5,-55.5 365.5,-73.5 427.65,-73.5 427.65,-55.5 365.5,-55.5"/>
<text text-anchor="middle" x="396.57" y="-61.5" font-family="Helvetica,sans-Serif" font-size="10.00">phi_Inlet.h</text>
</a>
</g>
</g>
<!-- Node6&#45;&gt;Node7 -->
<g id="edge10" class="edge">
<title>Node6&#45;&gt;Node7</title>
<path fill="none" stroke="midnightblue" d="M325.33,-110.45C338.53,-102.12 359.38,-88.97 375.12,-79.04"/>
<polygon fill="midnightblue" stroke="midnightblue" points="377.11,-81.92 383.7,-73.63 373.37,-76 377.11,-81.92"/>
</g>
<!-- Node8 -->
<g id="node8" class="node">
<title>Node8</title>
<g id="a_node8"><a xlink:href="phi___outlet_8h.html" target="_top" xlink:title=" ">
<polygon fill="white" stroke="black" points="277.61,-55.5 277.61,-73.5 347.54,-73.5 347.54,-55.5 277.61,-55.5"/>
<text text-anchor="middle" x="312.57" y="-61.5" font-family="Helvetica,sans-Serif" font-size="10.00">phi_Outlet.h</text>
</a>
</g>
</g>
<!-- Node6&#45;&gt;Node8 -->
<g id="edge12" class="edge">
<title>Node6&#45;&gt;Node8</title>
<path fill="none" stroke="midnightblue" d="M312.57,-110.22C312.57,-103.18 312.57,-92.81 312.57,-83.83"/>
<polygon fill="midnightblue" stroke="midnightblue" points="316.07,-83.55 312.57,-73.55 309.07,-83.55 316.07,-83.55"/>
</g>
<!-- Node7&#45;&gt;Node2 -->
<g id="edge11" class="edge">
<title>Node7&#45;&gt;Node2</title>
<path fill="none" stroke="midnightblue" d="M374.25,-55.45C349.64,-46.58 309.84,-32.23 281.84,-22.13"/>
<polygon fill="midnightblue" stroke="midnightblue" points="282.7,-18.72 272.11,-18.63 280.33,-25.31 282.7,-18.72"/>
</g>
<!-- Node8&#45;&gt;Node2 -->
<g id="edge13" class="edge">
<title>Node8&#45;&gt;Node2</title>
<path fill="none" stroke="midnightblue" d="M303.01,-55.45C293.48,-47.43 278.63,-34.95 267.01,-25.17"/>
<polygon fill="midnightblue" stroke="midnightblue" points="269.14,-22.38 259.23,-18.63 264.63,-27.74 269.14,-22.38"/>
</g>
<!-- Node9&#45;&gt;Node2 -->
<g id="edge15" class="edge">
<title>Node9&#45;&gt;Node2</title>
<path fill="none" stroke="midnightblue" d="M418.02,-110.36C430.31,-97.53 450.24,-72.3 436.57,-55 419.68,-33.61 348.18,-21.4 298.66,-15.36"/>
<polygon fill="midnightblue" stroke="midnightblue" points="298.79,-11.85 288.45,-14.16 297.98,-18.8 298.79,-11.85"/>
</g>
<!-- Node9&#45;&gt;Node7 -->
<g id="edge16" class="edge">
<title>Node9&#45;&gt;Node7</title>
<path fill="none" stroke="midnightblue" d="M407.54,-110.22C405.8,-103.1 403.22,-92.58 401,-83.53"/>
<polygon fill="midnightblue" stroke="midnightblue" points="404.33,-82.43 398.55,-73.55 397.53,-84.1 404.33,-82.43"/>
</g>
<!-- Node9&#45;&gt;Node8 -->
<g id="edge17" class="edge">
<title>Node9&#45;&gt;Node8</title>
<path fill="none" stroke="midnightblue" d="M394.84,-110.45C379.32,-101.97 354.63,-88.48 336.34,-78.49"/>
<polygon fill="midnightblue" stroke="midnightblue" points="337.9,-75.35 327.44,-73.63 334.54,-81.49 337.9,-75.35"/>
</g>
<!-- Node10&#45;&gt;Node2 -->
<g id="edge19" class="edge">
<title>Node10&#45;&gt;Node2</title>
<path fill="none" stroke="midnightblue" d="M144.33,-165.5C123.89,-152.67 99.59,-131.86 110.57,-110 132.65,-66.08 184.36,-37.34 218.1,-22.52"/>
<polygon fill="midnightblue" stroke="midnightblue" points="219.68,-25.65 227.53,-18.54 216.95,-19.21 219.68,-25.65"/>
</g>
<!-- Node10&#45;&gt;Node6 -->
<g id="edge20" class="edge">
<title>Node10&#45;&gt;Node6</title>
<path fill="none" stroke="midnightblue" d="M200.89,-165.48C225.52,-155.56 259.17,-142.01 283.08,-132.38"/>
<polygon fill="midnightblue" stroke="midnightblue" points="284.39,-135.63 292.36,-128.64 281.77,-129.13 284.39,-135.63"/>
</g>
<!-- Node11 -->
<g id="node11" class="node">
<title>Node11</title>
<g id="a_node11"><a xlink:href="ui___dial_8h.html" target="_top" xlink:title=" ">
<polygon fill="white" stroke="black" points="119.72,-110.5 119.72,-128.5 227.43,-128.5 227.43,-110.5 119.72,-110.5"/>
<text text-anchor="middle" x="173.57" y="-116.5" font-family="Helvetica,sans-Serif" font-size="10.00">../UIobjects/ui_Dial.h</text>
</a>
</g>
</g>
<!-- Node10&#45;&gt;Node11 -->
<g id="edge21" class="edge">
<title>Node10&#45;&gt;Node11</title>
<path fill="none" stroke="midnightblue" d="M169.71,-165.34C170.38,-157.53 171.25,-147.51 171.99,-138.93"/>
<polygon fill="midnightblue" stroke="midnightblue" points="175.49,-139.04 172.86,-128.77 168.51,-138.43 175.49,-139.04"/>
</g>
<!-- Node11&#45;&gt;Node2 -->
<g id="edge22" class="edge">
<title>Node11&#45;&gt;Node2</title>
<path fill="none" stroke="midnightblue" d="M175.24,-110.47C178.17,-97.79 185.11,-72.75 197.57,-55 205.9,-43.15 218.08,-32.5 228.56,-24.59"/>
<polygon fill="midnightblue" stroke="midnightblue" points="230.78,-27.31 236.84,-18.62 226.68,-21.62 230.78,-27.31"/>
</g>
<!-- Node12&#45;&gt;Node2 -->
<g id="edge24" class="edge">
<title>Node12&#45;&gt;Node2</title>
<path fill="none" stroke="midnightblue" d="M290.22,-165.21C285.61,-155.33 279.37,-141.46 274.57,-129 265.34,-104.99 262.01,-99.14 256.57,-74 253.34,-59.06 251.56,-41.8 250.61,-29.05"/>
<polygon fill="midnightblue" stroke="midnightblue" points="254.08,-28.56 249.94,-18.81 247.1,-29.01 254.08,-28.56"/>
</g>
<!-- Node12&#45;&gt;Node6 -->
<g id="edge25" class="edge">
<title>Node12&#45;&gt;Node6</title>
<path fill="none" stroke="midnightblue" d="M300.2,-165.34C302.38,-157.44 305.18,-147.29 307.57,-138.64"/>
<polygon fill="midnightblue" stroke="midnightblue" points="311.01,-139.34 310.29,-128.77 304.26,-137.48 311.01,-139.34"/>
</g>
<!-- Node12&#45;&gt;Node11 -->
<g id="edge26" class="edge">
<title>Node12&#45;&gt;Node11</title>
<path fill="none" stroke="midnightblue" d="M268.97,-165.48C248.4,-155.78 220.46,-142.61 200.14,-133.03"/>
<polygon fill="midnightblue" stroke="midnightblue" points="201.38,-129.74 190.84,-128.64 198.4,-136.07 201.38,-129.74"/>
</g>
</g>
</svg>
