<?xml version="1.0" encoding="UTF-8" standalone="no"?>
<!DOCTYPE svg PUBLIC "-//W3C//DTD SVG 1.1//EN"
 "http://www.w3.org/Graphics/SVG/1.1/DTD/svg11.dtd">
<!-- Generated by graphviz version 2.42.3 (20191010.1750)
 -->
<!-- Title: Source/src/MainComponent.h Pages: 1 -->
<svg width="473pt" height="312pt"
 viewBox="0.00 0.00 473.20 312.00" xmlns="http://www.w3.org/2000/svg" xmlns:xlink="http://www.w3.org/1999/xlink">
<g id="graph0" class="graph" transform="scale(1 1) rotate(0) translate(4 308)">
<title>Source/src/MainComponent.h</title>
<polygon fill="white" stroke="transparent" points="-4,4 -4,-308 469.2,-308 469.2,4 -4,4"/>
<!-- Node1 -->
<g id="node1" class="node">
<title>Node1</title>
<g id="a_node1"><a xlink:title=" ">
<polygon fill="#bfbfbf" stroke="black" points="46.86,-285.5 46.86,-303.5 195.14,-303.5 195.14,-285.5 46.86,-285.5"/>
<text text-anchor="middle" x="121" y="-291.5" font-family="Helvetica,sans-Serif" font-size="10.00">Source/src/MainComponent.h</text>
</a>
</g>
</g>
<!-- Node2 -->
<g id="node2" class="node">
<title>Node2</title>
<g id="a_node2"><a xlink:title=" ">
<polygon fill="white" stroke="#bfbfbf" points="190.14,-0.5 190.14,-18.5 267.86,-18.5 267.86,-0.5 190.14,-0.5"/>
<text text-anchor="middle" x="229" y="-6.5" font-family="Helvetica,sans-Serif" font-size="10.00">JuceHeader.h</text>
</a>
</g>
</g>
<!-- Node1&#45;&gt;Node2 -->
<g id="edge1" class="edge">
<title>Node1&#45;&gt;Node2</title>
<path fill="none" stroke="midnightblue" d="M100.47,-285.49C65.95,-270.53 0,-234.82 0,-180.5 0,-180.5 0,-180.5 0,-118.5 0,-39.58 112.63,-18.24 179.91,-12.53"/>
<polygon fill="midnightblue" stroke="midnightblue" points="180.19,-16.02 189.89,-11.77 179.66,-9.04 180.19,-16.02"/>
</g>
<!-- Node3 -->
<g id="node3" class="node">
<title>Node3</title>
<g id="a_node3"><a xlink:href="_main_patcher_8h.html" target="_top" xlink:title=" ">
<polygon fill="white" stroke="black" points="246.03,-230.5 246.03,-248.5 325.97,-248.5 325.97,-230.5 246.03,-230.5"/>
<text text-anchor="middle" x="286" y="-236.5" font-family="Helvetica,sans-Serif" font-size="10.00">MainPatcher.h</text>
</a>
</g>
</g>
<!-- Node1&#45;&gt;Node3 -->
<g id="edge2" class="edge">
<title>Node1&#45;&gt;Node3</title>
<path fill="none" stroke="midnightblue" d="M146.06,-285.45C174.13,-276.44 219.8,-261.77 251.29,-251.65"/>
<polygon fill="midnightblue" stroke="midnightblue" points="252.52,-254.93 260.98,-248.54 250.38,-248.26 252.52,-254.93"/>
</g>
<!-- Node3&#45;&gt;Node2 -->
<g id="edge3" class="edge">
<title>Node3&#45;&gt;Node2</title>
<path fill="none" stroke="midnightblue" d="M326.03,-233.98C372.42,-227.83 444.6,-215.1 461,-194 468.91,-183.82 463.24,-177.69 461,-165 451.97,-113.77 459.94,-89.49 421,-55 400.09,-36.48 327.77,-23.48 278.11,-16.5"/>
<polygon fill="midnightblue" stroke="midnightblue" points="278.58,-13.03 268.19,-15.14 277.63,-19.96 278.58,-13.03"/>
</g>
<!-- Node4 -->
<g id="node4" class="node">
<title>Node4</title>
<g id="a_node4"><a xlink:href="_module_box_8h.html" target="_top" xlink:title=" ">
<polygon fill="white" stroke="black" points="356.26,-170.5 356.26,-188.5 451.74,-188.5 451.74,-170.5 356.26,-170.5"/>
<text text-anchor="middle" x="404" y="-176.5" font-family="Helvetica,sans-Serif" font-size="10.00">../lib/ModuleBox.h</text>
</a>
</g>
</g>
<!-- Node3&#45;&gt;Node4 -->
<g id="edge4" class="edge">
<title>Node3&#45;&gt;Node4</title>
<path fill="none" stroke="midnightblue" d="M302.41,-230.44C322.02,-220.79 355.09,-204.54 378.15,-193.21"/>
<polygon fill="midnightblue" stroke="midnightblue" points="379.92,-196.24 387.35,-188.68 376.83,-189.95 379.92,-196.24"/>
</g>
<!-- Node8 -->
<g id="node8" class="node">
<title>Node8</title>
<g id="a_node8"><a xlink:href="_connections_8h.html" target="_top" xlink:title=" ">
<polygon fill="white" stroke="black" points="305.48,-110.5 305.48,-128.5 406.52,-128.5 406.52,-110.5 305.48,-110.5"/>
<text text-anchor="middle" x="356" y="-116.5" font-family="Helvetica,sans-Serif" font-size="10.00">../lib/Connections.h</text>
</a>
</g>
</g>
<!-- Node3&#45;&gt;Node8 -->
<g id="edge12" class="edge">
<title>Node3&#45;&gt;Node8</title>
<path fill="none" stroke="midnightblue" d="M290.81,-230.39C302.15,-211.27 330.74,-163.08 346.02,-137.33"/>
<polygon fill="midnightblue" stroke="midnightblue" points="349.06,-139.05 351.15,-128.67 343.04,-135.48 349.06,-139.05"/>
</g>
<!-- Node9 -->
<g id="node9" class="node">
<title>Node9</title>
<g id="a_node9"><a xlink:href="module___impulse_8h.html" target="_top" xlink:title=" ">
<polygon fill="white" stroke="black" points="61.75,-165.5 61.75,-193.5 172.25,-193.5 172.25,-165.5 61.75,-165.5"/>
<text text-anchor="start" x="69.75" y="-181.5" font-family="Helvetica,sans-Serif" font-size="10.00">../lib/modules/module</text>
<text text-anchor="middle" x="117" y="-171.5" font-family="Helvetica,sans-Serif" font-size="10.00">_Impulse.h</text>
</a>
</g>
</g>
<!-- Node3&#45;&gt;Node9 -->
<g id="edge16" class="edge">
<title>Node3&#45;&gt;Node9</title>
<path fill="none" stroke="midnightblue" d="M262.5,-230.44C237.27,-221.78 196.49,-207.78 164.52,-196.81"/>
<polygon fill="midnightblue" stroke="midnightblue" points="165.5,-193.45 154.91,-193.51 163.23,-200.07 165.5,-193.45"/>
</g>
<!-- Node11 -->
<g id="node11" class="node">
<title>Node11</title>
<g id="a_node11"><a xlink:href="module___gain_8h.html" target="_top" xlink:title=" ">
<polygon fill="white" stroke="black" points="189.75,-165.5 189.75,-193.5 300.25,-193.5 300.25,-165.5 189.75,-165.5"/>
<text text-anchor="start" x="197.75" y="-181.5" font-family="Helvetica,sans-Serif" font-size="10.00">../lib/modules/module</text>
<text text-anchor="middle" x="245" y="-171.5" font-family="Helvetica,sans-Serif" font-size="10.00">_Gain.h</text>
</a>
</g>
</g>
<!-- Node3&#45;&gt;Node11 -->
<g id="edge21" class="edge">
<title>Node3&#45;&gt;Node11</title>
<path fill="none" stroke="midnightblue" d="M280.3,-230.44C275.13,-223.12 267.26,-211.99 260.26,-202.09"/>
<polygon fill="midnightblue" stroke="midnightblue" points="263.06,-199.99 254.43,-193.84 257.35,-204.03 263.06,-199.99"/>
</g>
<!-- Node4&#45;&gt;Node2 -->
<g id="edge5" class="edge">
<title>Node4&#45;&gt;Node2</title>
<path fill="none" stroke="midnightblue" d="M407.07,-170.41C414.89,-148.28 432.75,-86.34 401,-55 368.69,-23.11 316.69,-13.18 278.31,-10.5"/>
<polygon fill="midnightblue" stroke="midnightblue" points="278.06,-6.98 267.88,-9.92 277.67,-13.97 278.06,-6.98"/>
</g>
<!-- Node5 -->
<g id="node5" class="node">
<title>Node5</title>
<g id="a_node5"><a xlink:href="_module_8h.html" target="_top" xlink:title=" ">
<polygon fill="white" stroke="black" points="230.43,-110.5 230.43,-128.5 287.57,-128.5 287.57,-110.5 230.43,-110.5"/>
<text text-anchor="middle" x="259" y="-116.5" font-family="Helvetica,sans-Serif" font-size="10.00">Module.h</text>
</a>
</g>
</g>
<!-- Node4&#45;&gt;Node5 -->
<g id="edge6" class="edge">
<title>Node4&#45;&gt;Node5</title>
<path fill="none" stroke="midnightblue" d="M383.84,-170.44C359.2,-160.58 317.28,-143.81 288.89,-132.45"/>
<polygon fill="midnightblue" stroke="midnightblue" points="290.04,-129.15 279.46,-128.68 287.44,-135.65 290.04,-129.15"/>
</g>
<!-- Node5&#45;&gt;Node2 -->
<g id="edge7" class="edge">
<title>Node5&#45;&gt;Node2</title>
<path fill="none" stroke="midnightblue" d="M247.58,-110.48C237.38,-102.56 223.12,-89.4 217,-74 211.05,-59.03 215.55,-40.87 220.65,-27.81"/>
<polygon fill="midnightblue" stroke="midnightblue" points="223.88,-29.16 224.68,-18.59 217.47,-26.35 223.88,-29.16"/>
</g>
<!-- Node6 -->
<g id="node6" class="node">
<title>Node6</title>
<g id="a_node6"><a xlink:href="phi___inlet_8h.html" target="_top" xlink:title=" ">
<polygon fill="white" stroke="black" points="313.93,-55.5 313.93,-73.5 376.07,-73.5 376.07,-55.5 313.93,-55.5"/>
<text text-anchor="middle" x="345" y="-61.5" font-family="Helvetica,sans-Serif" font-size="10.00">phi_Inlet.h</text>
</a>
</g>
</g>
<!-- Node5&#45;&gt;Node6 -->
<g id="edge8" class="edge">
<title>Node5&#45;&gt;Node6</title>
<path fill="none" stroke="midnightblue" d="M272.06,-110.45C285.57,-102.12 306.92,-88.97 323.03,-79.04"/>
<polygon fill="midnightblue" stroke="midnightblue" points="325.14,-81.85 331.82,-73.63 321.47,-75.89 325.14,-81.85"/>
</g>
<!-- Node7 -->
<g id="node7" class="node">
<title>Node7</title>
<g id="a_node7"><a xlink:href="phi___outlet_8h.html" target="_top" xlink:title=" ">
<polygon fill="white" stroke="black" points="226.04,-55.5 226.04,-73.5 295.96,-73.5 295.96,-55.5 226.04,-55.5"/>
<text text-anchor="middle" x="261" y="-61.5" font-family="Helvetica,sans-Serif" font-size="10.00">phi_Outlet.h</text>
</a>
</g>
</g>
<!-- Node5&#45;&gt;Node7 -->
<g id="edge10" class="edge">
<title>Node5&#45;&gt;Node7</title>
<path fill="none" stroke="midnightblue" d="M259.31,-110.22C259.58,-103.18 259.97,-92.81 260.31,-83.83"/>
<polygon fill="midnightblue" stroke="midnightblue" points="263.82,-83.67 260.7,-73.55 256.82,-83.41 263.82,-83.67"/>
</g>
<!-- Node6&#45;&gt;Node2 -->
<g id="edge9" class="edge">
<title>Node6&#45;&gt;Node2</title>
<path fill="none" stroke="midnightblue" d="M327.38,-55.45C308.39,-46.77 277.93,-32.86 255.93,-22.8"/>
<polygon fill="midnightblue" stroke="midnightblue" points="257.33,-19.6 246.78,-18.63 254.42,-25.96 257.33,-19.6"/>
</g>
<!-- Node7&#45;&gt;Node2 -->
<g id="edge11" class="edge">
<title>Node7&#45;&gt;Node2</title>
<path fill="none" stroke="midnightblue" d="M256,-55.22C251.51,-47.79 244.79,-36.65 239.17,-27.34"/>
<polygon fill="midnightblue" stroke="midnightblue" points="242.03,-25.3 233.86,-18.55 236.03,-28.92 242.03,-25.3"/>
</g>
<!-- Node8&#45;&gt;Node2 -->
<g id="edge13" class="edge">
<title>Node8&#45;&gt;Node2</title>
<path fill="none" stroke="midnightblue" d="M364.78,-110.48C377.57,-97.82 398.43,-72.8 385,-55 372.02,-37.8 318.81,-25.26 278.11,-17.96"/>
<polygon fill="midnightblue" stroke="midnightblue" points="278.52,-14.48 268.07,-16.21 277.32,-21.37 278.52,-14.48"/>
</g>
<!-- Node8&#45;&gt;Node6 -->
<g id="edge14" class="edge">
<title>Node8&#45;&gt;Node6</title>
<path fill="none" stroke="midnightblue" d="M354.28,-110.22C352.8,-103.1 350.62,-92.58 348.74,-83.53"/>
<polygon fill="midnightblue" stroke="midnightblue" points="352.13,-82.63 346.67,-73.55 345.28,-84.05 352.13,-82.63"/>
</g>
<!-- Node8&#45;&gt;Node7 -->
<g id="edge15" class="edge">
<title>Node8&#45;&gt;Node7</title>
<path fill="none" stroke="midnightblue" d="M341.57,-110.45C326.51,-102.05 302.63,-88.72 284.77,-78.76"/>
<polygon fill="midnightblue" stroke="midnightblue" points="286,-75.44 275.56,-73.63 282.59,-81.55 286,-75.44"/>
</g>
<!-- Node9&#45;&gt;Node2 -->
<g id="edge17" class="edge">
<title>Node9&#45;&gt;Node2</title>
<path fill="none" stroke="midnightblue" d="M91.65,-165.41C70.68,-152.68 45.99,-132.07 57,-110 81.44,-60.98 141.73,-34.49 183.99,-21.44"/>
<polygon fill="midnightblue" stroke="midnightblue" points="185.18,-24.74 193.78,-18.56 183.2,-18.03 185.18,-24.74"/>
</g>
<!-- Node9&#45;&gt;Node5 -->
<g id="edge18" class="edge">
<title>Node9&#45;&gt;Node5</title>
<path fill="none" stroke="midnightblue" d="M148.87,-165.48C173.05,-155.61 206.04,-142.13 229.6,-132.51"/>
<polygon fill="midnightblue" stroke="midnightblue" points="231.13,-135.66 239.06,-128.64 228.48,-129.18 231.13,-135.66"/>
</g>
<!-- Node10 -->
<g id="node10" class="node">
<title>Node10</title>
<g id="a_node10"><a xlink:href="ui___dial_8h.html" target="_top" xlink:title=" ">
<polygon fill="white" stroke="black" points="66.15,-110.5 66.15,-128.5 173.85,-128.5 173.85,-110.5 66.15,-110.5"/>
<text text-anchor="middle" x="120" y="-116.5" font-family="Helvetica,sans-Serif" font-size="10.00">../UIobjects/ui_Dial.h</text>
</a>
</g>
</g>
<!-- Node9&#45;&gt;Node10 -->
<g id="edge19" class="edge">
<title>Node9&#45;&gt;Node10</title>
<path fill="none" stroke="midnightblue" d="M117.68,-165.34C118.08,-157.53 118.6,-147.51 119.05,-138.93"/>
<polygon fill="midnightblue" stroke="midnightblue" points="122.55,-138.94 119.57,-128.77 115.56,-138.58 122.55,-138.94"/>
</g>
<!-- Node10&#45;&gt;Node2 -->
<g id="edge20" class="edge">
<title>Node10&#45;&gt;Node2</title>
<path fill="none" stroke="midnightblue" d="M121.53,-110.12C124.31,-96.96 131.32,-71.28 146,-55 159.18,-40.38 178.31,-29.67 194.89,-22.43"/>
<polygon fill="midnightblue" stroke="midnightblue" points="196.38,-25.6 204.29,-18.56 193.71,-19.13 196.38,-25.6"/>
</g>
<!-- Node11&#45;&gt;Node2 -->
<g id="edge22" class="edge">
<title>Node11&#45;&gt;Node2</title>
<path fill="none" stroke="midnightblue" d="M237.19,-165.32C224.86,-142.9 203.06,-95.82 211,-55 212.81,-45.68 216.58,-35.85 220.2,-27.8"/>
<polygon fill="midnightblue" stroke="midnightblue" points="223.37,-29.26 224.54,-18.73 217.06,-26.23 223.37,-29.26"/>
</g>
<!-- Node11&#45;&gt;Node5 -->
<g id="edge23" class="edge">
<title>Node11&#45;&gt;Node5</title>
<path fill="none" stroke="midnightblue" d="M248.18,-165.34C250.08,-157.44 252.53,-147.29 254.62,-138.64"/>
<polygon fill="midnightblue" stroke="midnightblue" points="258.06,-139.31 257,-128.77 251.25,-137.67 258.06,-139.31"/>
</g>
<!-- Node11&#45;&gt;Node10 -->
<g id="edge24" class="edge">
<title>Node11&#45;&gt;Node10</title>
<path fill="none" stroke="midnightblue" d="M216.95,-165.48C195.94,-155.74 167.39,-142.49 146.72,-132.9"/>
<polygon fill="midnightblue" stroke="midnightblue" points="148.09,-129.68 137.55,-128.64 145.15,-136.03 148.09,-129.68"/>
</g>
</g>
</svg>
