<?xml version="1.0" encoding="UTF-8" standalone="no"?>
<!DOCTYPE svg PUBLIC "-//W3C//DTD SVG 1.1//EN"
 "http://www.w3.org/Graphics/SVG/1.1/DTD/svg11.dtd">
<!-- Generated by graphviz version 2.42.3 (20191010.1750)
 -->
<!-- Title: Source/src/MainPatcher.cpp Pages: 1 -->
<svg width="509pt" height="302pt"
 viewBox="0.00 0.00 509.03 302.00" xmlns="http://www.w3.org/2000/svg" xmlns:xlink="http://www.w3.org/1999/xlink">
<g id="graph0" class="graph" transform="scale(1 1) rotate(0) translate(4 298)">
<title>Source/src/MainPatcher.cpp</title>
<polygon fill="white" stroke="transparent" points="-4,4 -4,-298 505.03,-298 505.03,4 -4,4"/>
<!-- Node1 -->
<g id="node1" class="node">
<title>Node1</title>
<g id="a_node1"><a xlink:title=" ">
<polygon fill="#bfbfbf" stroke="black" points="0,-275.5 0,-293.5 141.06,-293.5 141.06,-275.5 0,-275.5"/>
<text text-anchor="middle" x="70.53" y="-281.5" font-family="Helvetica,sans-Serif" font-size="10.00">Source/src/MainPatcher.cpp</text>
</a>
</g>
</g>
<!-- Node2 -->
<g id="node2" class="node">
<title>Node2</title>
<g id="a_node2"><a xlink:title=" ">
<polygon fill="white" stroke="#bfbfbf" points="293.67,-0.5 293.67,-18.5 371.39,-18.5 371.39,-0.5 293.67,-0.5"/>
<text text-anchor="middle" x="332.53" y="-6.5" font-family="Helvetica,sans-Serif" font-size="10.00">JuceHeader.h</text>
</a>
</g>
</g>
<!-- Node1&#45;&gt;Node2 -->
<g id="edge1" class="edge">
<title>Node1&#45;&gt;Node2</title>
<path fill="none" stroke="midnightblue" d="M61.08,-275.32C42.83,-258.58 4.53,-218.35 4.53,-175.5 4.53,-175.5 4.53,-175.5 4.53,-118.5 4.53,-83.39 21.51,-73.21 51.53,-55 89.59,-31.91 213.36,-19.27 283.28,-13.82"/>
<polygon fill="midnightblue" stroke="midnightblue" points="283.89,-17.28 293.6,-13.03 283.36,-10.3 283.89,-17.28"/>
</g>
<!-- Node3 -->
<g id="node3" class="node">
<title>Node3</title>
<g id="a_node3"><a xlink:href="_main_patcher_8h.html" target="_top" xlink:title=" ">
<polygon fill="white" stroke="black" points="250.57,-220.5 250.57,-238.5 330.5,-238.5 330.5,-220.5 250.57,-220.5"/>
<text text-anchor="middle" x="290.53" y="-226.5" font-family="Helvetica,sans-Serif" font-size="10.00">MainPatcher.h</text>
</a>
</g>
</g>
<!-- Node1&#45;&gt;Node3 -->
<g id="edge2" class="edge">
<title>Node1&#45;&gt;Node3</title>
<path fill="none" stroke="midnightblue" d="M103.95,-275.45C142.26,-266.22 205.17,-251.06 247.22,-240.93"/>
<polygon fill="midnightblue" stroke="midnightblue" points="248.26,-244.28 257.17,-238.54 246.62,-237.48 248.26,-244.28"/>
</g>
<!-- Node3&#45;&gt;Node2 -->
<g id="edge3" class="edge">
<title>Node3&#45;&gt;Node2</title>
<path fill="none" stroke="midnightblue" d="M310.25,-220.41C330.12,-212.03 361.51,-198.2 387.53,-184 448.78,-150.58 484.25,-142.08 499.53,-74 510.96,-23.07 435.2,-11.66 381.94,-9.82"/>
<polygon fill="midnightblue" stroke="midnightblue" points="381.71,-6.31 371.62,-9.57 381.54,-13.31 381.71,-6.31"/>
</g>
<!-- Node4 -->
<g id="node4" class="node">
<title>Node4</title>
<g id="a_node4"><a xlink:href="_module_box_8h.html" target="_top" xlink:title=" ">
<polygon fill="white" stroke="black" points="282.79,-165.5 282.79,-183.5 378.28,-183.5 378.28,-165.5 282.79,-165.5"/>
<text text-anchor="middle" x="330.53" y="-171.5" font-family="Helvetica,sans-Serif" font-size="10.00">../lib/ModuleBox.h</text>
</a>
</g>
</g>
<!-- Node3&#45;&gt;Node4 -->
<g id="edge4" class="edge">
<title>Node3&#45;&gt;Node4</title>
<path fill="none" stroke="midnightblue" d="M296.78,-220.22C302.51,-212.63 311.15,-201.18 318.26,-191.76"/>
<polygon fill="midnightblue" stroke="midnightblue" points="321.23,-193.64 324.46,-183.55 315.64,-189.42 321.23,-193.64"/>
</g>
<!-- Node9 -->
<g id="node9" class="node">
<title>Node9</title>
<g id="a_node9"><a xlink:href="_connections_8h.html" target="_top" xlink:title=" ">
<polygon fill="white" stroke="black" points="148.01,-110.5 148.01,-128.5 249.06,-128.5 249.06,-110.5 148.01,-110.5"/>
<text text-anchor="middle" x="198.53" y="-116.5" font-family="Helvetica,sans-Serif" font-size="10.00">../lib/Connections.h</text>
</a>
</g>
</g>
<!-- Node3&#45;&gt;Node9 -->
<g id="edge14" class="edge">
<title>Node3&#45;&gt;Node9</title>
<path fill="none" stroke="midnightblue" d="M283.62,-220.38C268.43,-202.56 231.94,-159.72 212.04,-136.36"/>
<polygon fill="midnightblue" stroke="midnightblue" points="214.68,-134.05 205.53,-128.71 209.35,-138.59 214.68,-134.05"/>
</g>
<!-- Node4&#45;&gt;Node2 -->
<g id="edge5" class="edge">
<title>Node4&#45;&gt;Node2</title>
<path fill="none" stroke="midnightblue" d="M358.96,-165.43C412.94,-148.67 521.56,-107.29 482.53,-55 459.56,-24.23 416.21,-13.87 382,-10.77"/>
<polygon fill="midnightblue" stroke="midnightblue" points="381.94,-7.25 371.71,-10.02 381.43,-14.23 381.94,-7.25"/>
</g>
<!-- Node5 -->
<g id="node5" class="node">
<title>Node5</title>
<g id="a_node5"><a xlink:href="phi___impulse_8h.html" target="_top" xlink:title=" ">
<polygon fill="white" stroke="black" points="271.11,-110.5 271.11,-128.5 389.95,-128.5 389.95,-110.5 271.11,-110.5"/>
<text text-anchor="middle" x="330.53" y="-116.5" font-family="Helvetica,sans-Serif" font-size="10.00">modules/phi_Impulse.h</text>
</a>
</g>
</g>
<!-- Node4&#45;&gt;Node5 -->
<g id="edge6" class="edge">
<title>Node4&#45;&gt;Node5</title>
<path fill="none" stroke="midnightblue" d="M330.53,-165.22C330.53,-158.18 330.53,-147.81 330.53,-138.83"/>
<polygon fill="midnightblue" stroke="midnightblue" points="334.03,-138.55 330.53,-128.55 327.03,-138.55 334.03,-138.55"/>
</g>
<!-- Node5&#45;&gt;Node2 -->
<g id="edge7" class="edge">
<title>Node5&#45;&gt;Node2</title>
<path fill="none" stroke="midnightblue" d="M390.08,-114.6C418.06,-109.42 449.03,-98.14 466.53,-74 491.36,-39.75 429.11,-23.31 381.34,-15.92"/>
<polygon fill="midnightblue" stroke="midnightblue" points="381.8,-12.45 371.4,-14.48 380.8,-19.38 381.8,-12.45"/>
</g>
<!-- Node6 -->
<g id="node6" class="node">
<title>Node6</title>
<g id="a_node6"><a xlink:href="phi___dial_8h.html" target="_top" xlink:title=" ">
<polygon fill="white" stroke="black" points="343.9,-55.5 343.9,-73.5 457.17,-73.5 457.17,-55.5 343.9,-55.5"/>
<text text-anchor="middle" x="400.53" y="-61.5" font-family="Helvetica,sans-Serif" font-size="10.00">../UIobjects/phi_Dial.h</text>
</a>
</g>
</g>
<!-- Node5&#45;&gt;Node6 -->
<g id="edge8" class="edge">
<title>Node5&#45;&gt;Node6</title>
<path fill="none" stroke="midnightblue" d="M341.16,-110.45C351.85,-102.36 368.56,-89.7 381.54,-79.88"/>
<polygon fill="midnightblue" stroke="midnightblue" points="383.94,-82.45 389.8,-73.63 379.71,-76.87 383.94,-82.45"/>
</g>
<!-- Node7 -->
<g id="node7" class="node">
<title>Node7</title>
<g id="a_node7"><a xlink:href="phi___inlet_8h.html" target="_top" xlink:title=" ">
<polygon fill="white" stroke="black" points="70.06,-55.5 70.06,-73.5 185,-73.5 185,-55.5 70.06,-55.5"/>
<text text-anchor="middle" x="127.53" y="-61.5" font-family="Helvetica,sans-Serif" font-size="10.00">../UIobjects/phi_Inlet.h</text>
</a>
</g>
</g>
<!-- Node5&#45;&gt;Node7 -->
<g id="edge10" class="edge">
<title>Node5&#45;&gt;Node7</title>
<path fill="none" stroke="midnightblue" d="M299.7,-110.45C264.57,-101.28 207.03,-86.26 168.24,-76.13"/>
<polygon fill="midnightblue" stroke="midnightblue" points="168.88,-72.68 158.32,-73.54 167.11,-79.45 168.88,-72.68"/>
</g>
<!-- Node8 -->
<g id="node8" class="node">
<title>Node8</title>
<g id="a_node8"><a xlink:href="phi___outlet_8h.html" target="_top" xlink:title=" ">
<polygon fill="white" stroke="black" points="203.17,-55.5 203.17,-73.5 325.89,-73.5 325.89,-55.5 203.17,-55.5"/>
<text text-anchor="middle" x="264.53" y="-61.5" font-family="Helvetica,sans-Serif" font-size="10.00">../UIobjects/phi_Outlet.h</text>
</a>
</g>
</g>
<!-- Node5&#45;&gt;Node8 -->
<g id="edge12" class="edge">
<title>Node5&#45;&gt;Node8</title>
<path fill="none" stroke="midnightblue" d="M320.51,-110.45C310.53,-102.43 294.98,-89.95 282.8,-80.17"/>
<polygon fill="midnightblue" stroke="midnightblue" points="284.64,-77.16 274.65,-73.63 280.26,-82.62 284.64,-77.16"/>
</g>
<!-- Node6&#45;&gt;Node2 -->
<g id="edge9" class="edge">
<title>Node6&#45;&gt;Node2</title>
<path fill="none" stroke="midnightblue" d="M390.2,-55.45C379.82,-47.36 363.59,-34.7 350.98,-24.88"/>
<polygon fill="midnightblue" stroke="midnightblue" points="353,-22.01 342.96,-18.63 348.69,-27.53 353,-22.01"/>
</g>
<!-- Node7&#45;&gt;Node2 -->
<g id="edge11" class="edge">
<title>Node7&#45;&gt;Node2</title>
<path fill="none" stroke="midnightblue" d="M158.67,-55.45C194.22,-46.26 252.5,-31.19 291.67,-21.06"/>
<polygon fill="midnightblue" stroke="midnightblue" points="292.63,-24.43 301.44,-18.54 290.88,-17.65 292.63,-24.43"/>
</g>
<!-- Node8&#45;&gt;Node2 -->
<g id="edge13" class="edge">
<title>Node8&#45;&gt;Node2</title>
<path fill="none" stroke="midnightblue" d="M274.86,-55.45C285.24,-47.36 301.48,-34.7 314.08,-24.88"/>
<polygon fill="midnightblue" stroke="midnightblue" points="316.37,-27.53 322.11,-18.63 312.07,-22.01 316.37,-27.53"/>
</g>
<!-- Node9&#45;&gt;Node2 -->
<g id="edge15" class="edge">
<title>Node9&#45;&gt;Node2</title>
<path fill="none" stroke="midnightblue" d="M147.84,-112.56C98.15,-104.72 33.62,-87.87 61.53,-55 89.42,-22.16 212.99,-13.51 283.25,-11.26"/>
<polygon fill="midnightblue" stroke="midnightblue" points="283.73,-14.75 293.63,-10.96 283.53,-7.75 283.73,-14.75"/>
</g>
<!-- Node9&#45;&gt;Node7 -->
<g id="edge16" class="edge">
<title>Node9&#45;&gt;Node7</title>
<path fill="none" stroke="midnightblue" d="M187.75,-110.45C176.91,-102.36 159.96,-89.7 146.8,-79.88"/>
<polygon fill="midnightblue" stroke="midnightblue" points="148.52,-76.8 138.42,-73.63 144.34,-82.41 148.52,-76.8"/>
</g>
<!-- Node9&#45;&gt;Node8 -->
<g id="edge17" class="edge">
<title>Node9&#45;&gt;Node8</title>
<path fill="none" stroke="midnightblue" d="M208.56,-110.45C218.54,-102.43 234.09,-89.95 246.27,-80.17"/>
<polygon fill="midnightblue" stroke="midnightblue" points="248.81,-82.62 254.41,-73.63 244.42,-77.16 248.81,-82.62"/>
</g>
</g>
</svg>
