<?xml version="1.0" encoding="UTF-8" standalone="no"?>
<!DOCTYPE svg PUBLIC "-//W3C//DTD SVG 1.1//EN"
 "http://www.w3.org/Graphics/SVG/1.1/DTD/svg11.dtd">
<!-- Generated by graphviz version 2.42.3 (20191010.1750)
 -->
<!-- Title: Source/lib/ModuleBox.cpp Pages: 1 -->
<svg width="296pt" height="247pt"
 viewBox="0.00 0.00 296.05 247.00" xmlns="http://www.w3.org/2000/svg" xmlns:xlink="http://www.w3.org/1999/xlink">
<g id="graph0" class="graph" transform="scale(1 1) rotate(0) translate(4 243)">
<title>Source/lib/ModuleBox.cpp</title>
<polygon fill="white" stroke="transparent" points="-4,4 -4,-243 292.05,-243 292.05,4 -4,4"/>
<!-- Node1 -->
<g id="node1" class="node">
<title>Node1</title>
<g id="a_node1"><a xlink:title=" ">
<polygon fill="#bfbfbf" stroke="black" points="0,-220.5 0,-238.5 132.18,-238.5 132.18,-220.5 0,-220.5"/>
<text text-anchor="middle" x="66.09" y="-226.5" font-family="Helvetica,sans-Serif" font-size="10.00">Source/lib/ModuleBox.cpp</text>
</a>
</g>
</g>
<!-- Node2 -->
<g id="node2" class="node">
<title>Node2</title>
<g id="a_node2"><a xlink:title=" ">
<polygon fill="white" stroke="#bfbfbf" points="71.23,-0.5 71.23,-18.5 148.95,-18.5 148.95,-0.5 71.23,-0.5"/>
<text text-anchor="middle" x="110.09" y="-6.5" font-family="Helvetica,sans-Serif" font-size="10.00">JuceHeader.h</text>
</a>
</g>
</g>
<!-- Node1&#45;&gt;Node2 -->
<g id="edge1" class="edge">
<title>Node1&#45;&gt;Node2</title>
<path fill="none" stroke="midnightblue" d="M62.39,-220.31C57.4,-208.23 49.53,-184.94 53.09,-165 62.36,-113.09 87.86,-55.78 101.39,-27.8"/>
<polygon fill="midnightblue" stroke="midnightblue" points="104.65,-29.1 105.93,-18.58 98.37,-26.01 104.65,-29.1"/>
</g>
<!-- Node3 -->
<g id="node3" class="node">
<title>Node3</title>
<g id="a_node3"><a xlink:href="_module_box_8h.html" target="_top" xlink:title=" ">
<polygon fill="white" stroke="black" points="61.9,-165.5 61.9,-183.5 136.27,-183.5 136.27,-165.5 61.9,-165.5"/>
<text text-anchor="middle" x="99.09" y="-171.5" font-family="Helvetica,sans-Serif" font-size="10.00">ModuleBox.h</text>
</a>
</g>
</g>
<!-- Node1&#45;&gt;Node3 -->
<g id="edge2" class="edge">
<title>Node1&#45;&gt;Node3</title>
<path fill="none" stroke="midnightblue" d="M71.24,-220.22C75.92,-212.71 82.96,-201.41 88.78,-192.05"/>
<polygon fill="midnightblue" stroke="midnightblue" points="91.76,-193.89 94.08,-183.55 85.82,-190.19 91.76,-193.89"/>
</g>
<!-- Node3&#45;&gt;Node2 -->
<g id="edge3" class="edge">
<title>Node3&#45;&gt;Node2</title>
<path fill="none" stroke="midnightblue" d="M99.65,-165.19C101.35,-140.01 106.47,-64.11 108.85,-28.86"/>
<polygon fill="midnightblue" stroke="midnightblue" points="112.36,-28.81 109.54,-18.6 105.38,-28.34 112.36,-28.81"/>
</g>
<!-- Node4 -->
<g id="node4" class="node">
<title>Node4</title>
<g id="a_node4"><a xlink:href="_module_8h.html" target="_top" xlink:title=" ">
<polygon fill="white" stroke="black" points="120.52,-110.5 120.52,-128.5 177.66,-128.5 177.66,-110.5 120.52,-110.5"/>
<text text-anchor="middle" x="149.09" y="-116.5" font-family="Helvetica,sans-Serif" font-size="10.00">Module.h</text>
</a>
</g>
</g>
<!-- Node3&#45;&gt;Node4 -->
<g id="edge4" class="edge">
<title>Node3&#45;&gt;Node4</title>
<path fill="none" stroke="midnightblue" d="M106.9,-165.22C114.28,-157.39 125.54,-145.46 134.57,-135.89"/>
<polygon fill="midnightblue" stroke="midnightblue" points="137.18,-138.23 141.49,-128.55 132.09,-133.42 137.18,-138.23"/>
</g>
<!-- Node4&#45;&gt;Node2 -->
<g id="edge5" class="edge">
<title>Node4&#45;&gt;Node2</title>
<path fill="none" stroke="midnightblue" d="M145.07,-110.43C140.78,-101.62 133.94,-87.02 129.09,-74 123.5,-58.99 118.37,-41.52 114.85,-28.71"/>
<polygon fill="midnightblue" stroke="midnightblue" points="118.17,-27.59 112.21,-18.83 111.41,-29.4 118.17,-27.59"/>
</g>
<!-- Node5 -->
<g id="node5" class="node">
<title>Node5</title>
<g id="a_node5"><a xlink:href="phi___inlet_8h.html" target="_top" xlink:title=" ">
<polygon fill="white" stroke="black" points="138.01,-55.5 138.01,-73.5 200.16,-73.5 200.16,-55.5 138.01,-55.5"/>
<text text-anchor="middle" x="169.09" y="-61.5" font-family="Helvetica,sans-Serif" font-size="10.00">phi_Inlet.h</text>
</a>
</g>
</g>
<!-- Node4&#45;&gt;Node5 -->
<g id="edge6" class="edge">
<title>Node4&#45;&gt;Node5</title>
<path fill="none" stroke="midnightblue" d="M152.21,-110.22C154.96,-102.94 159.05,-92.11 162.51,-82.93"/>
<polygon fill="midnightblue" stroke="midnightblue" points="165.79,-84.14 166.05,-73.55 159.25,-81.67 165.79,-84.14"/>
</g>
<!-- Node6 -->
<g id="node6" class="node">
<title>Node6</title>
<g id="a_node6"><a xlink:href="phi___outlet_8h.html" target="_top" xlink:title=" ">
<polygon fill="white" stroke="black" points="218.13,-55.5 218.13,-73.5 288.05,-73.5 288.05,-55.5 218.13,-55.5"/>
<text text-anchor="middle" x="253.09" y="-61.5" font-family="Helvetica,sans-Serif" font-size="10.00">phi_Outlet.h</text>
</a>
</g>
</g>
<!-- Node4&#45;&gt;Node6 -->
<g id="edge8" class="edge">
<title>Node4&#45;&gt;Node6</title>
<path fill="none" stroke="midnightblue" d="M164.88,-110.45C181.68,-101.89 208.49,-88.23 228.14,-78.21"/>
<polygon fill="midnightblue" stroke="midnightblue" points="229.82,-81.28 237.14,-73.63 226.65,-75.05 229.82,-81.28"/>
</g>
<!-- Node5&#45;&gt;Node2 -->
<g id="edge7" class="edge">
<title>Node5&#45;&gt;Node2</title>
<path fill="none" stroke="midnightblue" d="M160.13,-55.45C151.29,-47.51 137.57,-35.19 126.73,-25.45"/>
<polygon fill="midnightblue" stroke="midnightblue" points="128.91,-22.7 119.13,-18.63 124.23,-27.91 128.91,-22.7"/>
</g>
<!-- Node6&#45;&gt;Node2 -->
<g id="edge9" class="edge">
<title>Node6&#45;&gt;Node2</title>
<path fill="none" stroke="midnightblue" d="M231.37,-55.45C207.43,-46.58 168.72,-32.23 141.48,-22.13"/>
<polygon fill="midnightblue" stroke="midnightblue" points="142.6,-18.82 132.01,-18.63 140.17,-25.38 142.6,-18.82"/>
</g>
</g>
</svg>
