<?xml version="1.0" encoding="UTF-8" standalone="no"?>
<!DOCTYPE svg PUBLIC "-//W3C//DTD SVG 1.1//EN"
 "http://www.w3.org/Graphics/SVG/1.1/DTD/svg11.dtd">
<!-- Generated by graphviz version 2.42.3 (20191010.1750)
 -->
<!-- Title: Source/lib/ModuleBox.h Pages: 1 -->
<svg width="376pt" height="192pt"
 viewBox="0.00 0.00 375.62 192.00" xmlns="http://www.w3.org/2000/svg" xmlns:xlink="http://www.w3.org/1999/xlink">
<g id="graph0" class="graph" transform="scale(1 1) rotate(0) translate(4 188)">
<title>Source/lib/ModuleBox.h</title>
<polygon fill="white" stroke="transparent" points="-4,4 -4,-188 371.62,-188 371.62,4 -4,4"/>
<!-- Node1 -->
<g id="node1" class="node">
<title>Node1</title>
<g id="a_node1"><a xlink:title=" ">
<polygon fill="#bfbfbf" stroke="black" points="79.28,-165.5 79.28,-183.5 200.9,-183.5 200.9,-165.5 79.28,-165.5"/>
<text text-anchor="middle" x="140.09" y="-171.5" font-family="Helvetica,sans-Serif" font-size="10.00">Source/lib/ModuleBox.h</text>
</a>
</g>
</g>
<!-- Node2 -->
<g id="node2" class="node">
<title>Node2</title>
<g id="a_node2"><a xlink:href="_module_box_8cpp.html" target="_top" xlink:title=" ">
<polygon fill="white" stroke="black" points="0,-110.5 0,-128.5 132.18,-128.5 132.18,-110.5 0,-110.5"/>
<text text-anchor="middle" x="66.09" y="-116.5" font-family="Helvetica,sans-Serif" font-size="10.00">Source/lib/ModuleBox.cpp</text>
</a>
</g>
</g>
<!-- Node1&#45;&gt;Node2 -->
<g id="edge1" class="edge">
<title>Node1&#45;&gt;Node2</title>
<path fill="none" stroke="midnightblue" d="M120.53,-159.49C106.79,-149.65 88.88,-136.83 77.43,-128.63"/>
<polygon fill="midnightblue" stroke="midnightblue" points="118.68,-162.47 128.85,-165.45 122.76,-156.78 118.68,-162.47"/>
</g>
<!-- Node3 -->
<g id="node3" class="node">
<title>Node3</title>
<g id="a_node3"><a xlink:href="_main_patcher_8h.html" target="_top" xlink:title=" ">
<polygon fill="white" stroke="black" points="149.84,-110.5 149.84,-128.5 280.34,-128.5 280.34,-110.5 149.84,-110.5"/>
<text text-anchor="middle" x="215.09" y="-116.5" font-family="Helvetica,sans-Serif" font-size="10.00">Source/src/MainPatcher.h</text>
</a>
</g>
</g>
<!-- Node1&#45;&gt;Node3 -->
<g id="edge2" class="edge">
<title>Node1&#45;&gt;Node3</title>
<path fill="none" stroke="midnightblue" d="M159.91,-159.49C173.84,-149.65 191.99,-136.83 203.59,-128.63"/>
<polygon fill="midnightblue" stroke="midnightblue" points="157.63,-156.82 151.48,-165.45 161.67,-162.54 157.63,-156.82"/>
</g>
<!-- Node4 -->
<g id="node4" class="node">
<title>Node4</title>
<g id="a_node4"><a xlink:href="_main_component_8h.html" target="_top" xlink:title=" ">
<polygon fill="white" stroke="black" points="59.95,-55.5 59.95,-73.5 208.23,-73.5 208.23,-55.5 59.95,-55.5"/>
<text text-anchor="middle" x="134.09" y="-61.5" font-family="Helvetica,sans-Serif" font-size="10.00">Source/src/MainComponent.h</text>
</a>
</g>
</g>
<!-- Node3&#45;&gt;Node4 -->
<g id="edge3" class="edge">
<title>Node3&#45;&gt;Node4</title>
<path fill="none" stroke="midnightblue" d="M194.11,-104.77C179.01,-94.89 159.16,-81.9 146.51,-73.63"/>
<polygon fill="midnightblue" stroke="midnightblue" points="192.5,-107.9 202.79,-110.45 196.33,-102.05 192.5,-107.9"/>
</g>
<!-- Node7 -->
<g id="node7" class="node">
<title>Node7</title>
<g id="a_node7"><a xlink:href="_main_patcher_8cpp.html" target="_top" xlink:title=" ">
<polygon fill="white" stroke="black" points="226.56,-55.5 226.56,-73.5 367.62,-73.5 367.62,-55.5 226.56,-55.5"/>
<text text-anchor="middle" x="297.09" y="-61.5" font-family="Helvetica,sans-Serif" font-size="10.00">Source/src/MainPatcher.cpp</text>
</a>
</g>
</g>
<!-- Node3&#45;&gt;Node7 -->
<g id="edge6" class="edge">
<title>Node3&#45;&gt;Node7</title>
<path fill="none" stroke="midnightblue" d="M236.33,-104.77C251.61,-94.89 271.71,-81.9 284.52,-73.63"/>
<polygon fill="midnightblue" stroke="midnightblue" points="234.04,-102.08 227.54,-110.45 237.84,-107.96 234.04,-102.08"/>
</g>
<!-- Node5 -->
<g id="node5" class="node">
<title>Node5</title>
<g id="a_node5"><a xlink:href="_main_8cpp.html" target="_top" xlink:title=" ">
<polygon fill="white" stroke="black" points="5.51,-0.5 5.51,-18.5 112.66,-18.5 112.66,-0.5 5.51,-0.5"/>
<text text-anchor="middle" x="59.09" y="-6.5" font-family="Helvetica,sans-Serif" font-size="10.00">Source/src/Main.cpp</text>
</a>
</g>
</g>
<!-- Node4&#45;&gt;Node5 -->
<g id="edge4" class="edge">
<title>Node4&#45;&gt;Node5</title>
<path fill="none" stroke="midnightblue" d="M114.27,-49.49C100.34,-39.65 82.19,-26.83 70.59,-18.63"/>
<polygon fill="midnightblue" stroke="midnightblue" points="112.51,-52.54 122.7,-55.45 116.55,-46.82 112.51,-52.54"/>
</g>
<!-- Node6 -->
<g id="node6" class="node">
<title>Node6</title>
<g id="a_node6"><a xlink:href="_main_component_8cpp.html" target="_top" xlink:title=" ">
<polygon fill="white" stroke="black" points="130.67,-0.5 130.67,-18.5 289.51,-18.5 289.51,-0.5 130.67,-0.5"/>
<text text-anchor="middle" x="210.09" y="-6.5" font-family="Helvetica,sans-Serif" font-size="10.00">Source/src/MainComponent.cpp</text>
</a>
</g>
</g>
<!-- Node4&#45;&gt;Node6 -->
<g id="edge5" class="edge">
<title>Node4&#45;&gt;Node6</title>
<path fill="none" stroke="midnightblue" d="M154.18,-49.49C168.29,-39.65 186.68,-26.83 198.44,-18.63"/>
<polygon fill="midnightblue" stroke="midnightblue" points="151.83,-46.86 145.63,-55.45 155.84,-52.6 151.83,-46.86"/>
</g>
</g>
</svg>
