<?xml version="1.0" encoding="UTF-8" standalone="no"?>
<!DOCTYPE svg PUBLIC "-//W3C//DTD SVG 1.1//EN"
 "http://www.w3.org/Graphics/SVG/1.1/DTD/svg11.dtd">
<!-- Generated by graphviz version 2.42.3 (20191010.1750)
 -->
<!-- Title: MainComponent Pages: 1 -->
<svg width="327pt" height="82pt"
 viewBox="0.00 0.00 327.32 82.00" xmlns="http://www.w3.org/2000/svg" xmlns:xlink="http://www.w3.org/1999/xlink">
<g id="graph0" class="graph" transform="scale(1 1) rotate(0) translate(4 78)">
<title>MainComponent</title>
<polygon fill="white" stroke="transparent" points="-4,4 -4,-78 323.32,-78 323.32,4 -4,4"/>
<!-- Node1 -->
<g id="node1" class="node">
<title>Node1</title>
<g id="a_node1"><a xlink:title=" ">
<polygon fill="#bfbfbf" stroke="black" points="144.85,-0.5 144.85,-18.5 234.22,-18.5 234.22,-0.5 144.85,-0.5"/>
<text text-anchor="middle" x="189.53" y="-6.5" font-family="Helvetica,sans-Serif" font-size="10.00">MainComponent</text>
</a>
</g>
</g>
<!-- Node2 -->
<g id="node2" class="node">
<title>Node2</title>
<g id="a_node2"><a xlink:title=" ">
<polygon fill="white" stroke="#bfbfbf" points="0,-55.5 0,-73.5 111.07,-73.5 111.07,-55.5 0,-55.5"/>
<text text-anchor="middle" x="55.53" y="-61.5" font-family="Helvetica,sans-Serif" font-size="10.00">AudioAppComponent</text>
</a>
</g>
</g>
<!-- Node2&#45;&gt;Node1 -->
<g id="edge1" class="edge">
<title>Node2&#45;&gt;Node1</title>
<path fill="none" stroke="midnightblue" d="M85.4,-51.69C110.83,-41.63 146.68,-27.45 168.99,-18.63"/>
<polygon fill="midnightblue" stroke="midnightblue" points="83.9,-48.52 75.89,-55.45 86.47,-55.03 83.9,-48.52"/>
</g>
<!-- Node3 -->
<g id="node3" class="node">
<title>Node3</title>
<g id="a_node3"><a xlink:title=" ">
<polygon fill="white" stroke="#bfbfbf" points="129.28,-55.5 129.28,-73.5 249.79,-73.5 249.79,-55.5 129.28,-55.5"/>
<text text-anchor="middle" x="189.53" y="-61.5" font-family="Helvetica,sans-Serif" font-size="10.00">DragAndDropContainer</text>
</a>
</g>
</g>
<!-- Node3&#45;&gt;Node1 -->
<g id="edge2" class="edge">
<title>Node3&#45;&gt;Node1</title>
<path fill="none" stroke="midnightblue" d="M189.53,-45.17C189.53,-36.09 189.53,-25.59 189.53,-18.55"/>
<polygon fill="midnightblue" stroke="midnightblue" points="186.03,-45.22 189.53,-55.22 193.03,-45.22 186.03,-45.22"/>
</g>
<!-- Node4 -->
<g id="node4" class="node">
<title>Node4</title>
<g id="a_node4"><a xlink:title=" ">
<polygon fill="white" stroke="#bfbfbf" points="267.75,-55.5 267.75,-73.5 319.32,-73.5 319.32,-55.5 267.75,-55.5"/>
<text text-anchor="middle" x="293.53" y="-61.5" font-family="Helvetica,sans-Serif" font-size="10.00">Listener</text>
</a>
</g>
</g>
<!-- Node4&#45;&gt;Node1 -->
<g id="edge3" class="edge">
<title>Node4&#45;&gt;Node1</title>
<path fill="none" stroke="midnightblue" d="M268.76,-50.88C249.15,-40.88 222.34,-27.22 205.48,-18.63"/>
<polygon fill="midnightblue" stroke="midnightblue" points="267.24,-54.03 277.74,-55.45 270.42,-47.79 267.24,-54.03"/>
</g>
</g>
</svg>
