<?xml version="1.0" encoding="UTF-8" standalone="no"?>
<!DOCTYPE svg PUBLIC "-//W3C//DTD SVG 1.1//EN"
 "http://www.w3.org/Graphics/SVG/1.1/DTD/svg11.dtd">
<!-- Generated by graphviz version 2.42.3 (20191010.1750)
 -->
<!-- Title: phi_Inlet Pages: 1 -->
<svg width="453pt" height="82pt"
 viewBox="0.00 0.00 453.10 82.00" xmlns="http://www.w3.org/2000/svg" xmlns:xlink="http://www.w3.org/1999/xlink">
<g id="graph0" class="graph" transform="scale(1 1) rotate(0) translate(4 78)">
<title>phi_Inlet</title>
<polygon fill="white" stroke="transparent" points="-4,4 -4,-78 449.1,-78 449.1,4 -4,4"/>
<!-- Node1 -->
<g id="node1" class="node">
<title>Node1</title>
<g id="a_node1"><a xlink:title=" ">
<polygon fill="#bfbfbf" stroke="black" points="166.95,-0.5 166.95,-18.5 220.75,-18.5 220.75,-0.5 166.95,-0.5"/>
<text text-anchor="middle" x="193.85" y="-6.5" font-family="Helvetica,sans-Serif" font-size="10.00">phi_Inlet</text>
</a>
</g>
</g>
<!-- Node2 -->
<g id="node2" class="node">
<title>Node2</title>
<g id="a_node2"><a xlink:title=" ">
<polygon fill="white" stroke="#bfbfbf" points="0,-55.5 0,-73.5 67.7,-73.5 67.7,-55.5 0,-55.5"/>
<text text-anchor="middle" x="33.85" y="-61.5" font-family="Helvetica,sans-Serif" font-size="10.00">Component</text>
</a>
</g>
</g>
<!-- Node2&#45;&gt;Node1 -->
<g id="edge1" class="edge">
<title>Node2&#45;&gt;Node1</title>
<path fill="none" stroke="midnightblue" d="M67.94,-52.21C98.48,-42.09 142.5,-27.51 169.58,-18.54"/>
<polygon fill="midnightblue" stroke="midnightblue" points="66.54,-48.98 58.15,-55.45 68.74,-55.63 66.54,-48.98"/>
</g>
<!-- Node3 -->
<g id="node3" class="node">
<title>Node3</title>
<g id="a_node3"><a xlink:title=" ">
<polygon fill="white" stroke="#bfbfbf" points="86,-55.5 86,-73.5 183.7,-73.5 183.7,-55.5 86,-55.5"/>
<text text-anchor="middle" x="134.85" y="-61.5" font-family="Helvetica,sans-Serif" font-size="10.00">ActionBroadcaster</text>
</a>
</g>
</g>
<!-- Node3&#45;&gt;Node1 -->
<g id="edge2" class="edge">
<title>Node3&#45;&gt;Node1</title>
<path fill="none" stroke="midnightblue" d="M151.39,-48.64C162.21,-38.92 175.94,-26.59 184.8,-18.63"/>
<polygon fill="midnightblue" stroke="midnightblue" points="148.91,-46.16 143.81,-55.45 153.59,-51.37 148.91,-46.16"/>
</g>
<!-- Node4 -->
<g id="node4" class="node">
<title>Node4</title>
<g id="a_node4"><a xlink:title=" ">
<polygon fill="white" stroke="#bfbfbf" points="201.38,-55.5 201.38,-73.5 306.32,-73.5 306.32,-55.5 201.38,-55.5"/>
<text text-anchor="middle" x="253.85" y="-61.5" font-family="Helvetica,sans-Serif" font-size="10.00">DragAndDropTarget</text>
</a>
</g>
</g>
<!-- Node4&#45;&gt;Node1 -->
<g id="edge3" class="edge">
<title>Node4&#45;&gt;Node1</title>
<path fill="none" stroke="midnightblue" d="M237.03,-48.64C226.02,-38.92 212.07,-26.59 203.05,-18.63"/>
<polygon fill="midnightblue" stroke="midnightblue" points="234.93,-51.45 244.74,-55.45 239.56,-46.21 234.93,-51.45"/>
</g>
<!-- Node5 -->
<g id="node5" class="node">
<title>Node5</title>
<g id="a_node5"><a xlink:title=" ">
<polygon fill="white" stroke="#bfbfbf" points="324.6,-55.5 324.6,-73.5 445.1,-73.5 445.1,-55.5 324.6,-55.5"/>
<text text-anchor="middle" x="384.85" y="-61.5" font-family="Helvetica,sans-Serif" font-size="10.00">DragAndDropContainer</text>
</a>
</g>
</g>
<!-- Node5&#45;&gt;Node1 -->
<g id="edge4" class="edge">
<title>Node5&#45;&gt;Node1</title>
<path fill="none" stroke="midnightblue" d="M345.86,-52.68C308.66,-42.36 253.6,-27.08 220.96,-18.02"/>
<polygon fill="midnightblue" stroke="midnightblue" points="345.27,-56.15 355.84,-55.45 347.14,-49.4 345.27,-56.15"/>
</g>
</g>
</svg>
