<?xml version="1.0" encoding="UTF-8" standalone="no"?>
<!DOCTYPE svg PUBLIC "-//W3C//DTD SVG 1.1//EN"
 "http://www.w3.org/Graphics/SVG/1.1/DTD/svg11.dtd">
<!-- Generated by graphviz version 2.42.3 (20191010.1750)
 -->
<!-- Title: ModuleBox Pages: 1 -->
<svg width="263pt" height="212pt"
 viewBox="0.00 0.00 263.33 212.00" xmlns="http://www.w3.org/2000/svg" xmlns:xlink="http://www.w3.org/1999/xlink">
<g id="graph0" class="graph" transform="scale(1 1) rotate(0) translate(4 208)">
<title>ModuleBox</title>
<polygon fill="white" stroke="transparent" points="-4,4 -4,-208 259.33,-208 259.33,4 -4,4"/>
<!-- Node1 -->
<g id="node1" class="node">
<title>Node1</title>
<g id="a_node1"><a xlink:title=" ">
<polygon fill="#bfbfbf" stroke="black" points="189.3,-92.5 189.3,-110.5 255.33,-110.5 255.33,-92.5 189.3,-92.5"/>
<text text-anchor="middle" x="222.32" y="-98.5" font-family="Helvetica,sans-Serif" font-size="10.00">ModuleBox</text>
</a>
</g>
</g>
<!-- Node2 -->
<g id="node2" class="node">
<title>Node2</title>
<g id="a_node2"><a xlink:title=" ">
<polygon fill="white" stroke="#bfbfbf" points="42.8,-185.5 42.8,-203.5 110.5,-203.5 110.5,-185.5 42.8,-185.5"/>
<text text-anchor="middle" x="76.65" y="-191.5" font-family="Helvetica,sans-Serif" font-size="10.00">Component</text>
</a>
</g>
</g>
<!-- Node2&#45;&gt;Node1 -->
<g id="edge1" class="edge">
<title>Node2&#45;&gt;Node1</title>
<path fill="none" stroke="midnightblue" d="M120.61,-188.95C131.77,-186.28 143.43,-182.34 153.3,-176.5 181.9,-159.59 205.35,-126.77 215.66,-110.75"/>
<polygon fill="midnightblue" stroke="midnightblue" points="119.62,-185.58 110.55,-191.06 121.06,-192.43 119.62,-185.58"/>
</g>
<!-- Node3 -->
<g id="node3" class="node">
<title>Node3</title>
<g id="a_node3"><a xlink:title=" ">
<polygon fill="white" stroke="#bfbfbf" points="33.35,-148.5 33.35,-166.5 119.96,-166.5 119.96,-148.5 33.35,-148.5"/>
<text text-anchor="middle" x="76.65" y="-154.5" font-family="Helvetica,sans-Serif" font-size="10.00">ChangeListener</text>
</a>
</g>
</g>
<!-- Node3&#45;&gt;Node1 -->
<g id="edge2" class="edge">
<title>Node3&#45;&gt;Node1</title>
<path fill="none" stroke="midnightblue" d="M130.18,-146.99C138.04,-144.85 145.96,-142.36 153.3,-139.5 173.22,-131.74 194.46,-119.08 207.8,-110.53"/>
<polygon fill="midnightblue" stroke="midnightblue" points="129.12,-143.65 120.3,-149.52 130.86,-150.43 129.12,-143.65"/>
</g>
<!-- Node4 -->
<g id="node4" class="node">
<title>Node4</title>
<g id="a_node4"><a xlink:title=" ">
<polygon fill="white" stroke="#bfbfbf" points="33.63,-111.5 33.63,-129.5 119.67,-129.5 119.67,-111.5 33.63,-111.5"/>
<text text-anchor="middle" x="76.65" y="-117.5" font-family="Helvetica,sans-Serif" font-size="10.00">Button::Listener</text>
</a>
</g>
</g>
<!-- Node4&#45;&gt;Node1 -->
<g id="edge3" class="edge">
<title>Node4&#45;&gt;Node1</title>
<path fill="none" stroke="midnightblue" d="M130.05,-113.57C149.73,-110.97 171.51,-108.09 188.86,-105.79"/>
<polygon fill="midnightblue" stroke="midnightblue" points="129.43,-110.12 119.98,-114.9 130.35,-117.06 129.43,-110.12"/>
</g>
<!-- Node5 -->
<g id="node5" class="node">
<title>Node5</title>
<g id="a_node5"><a xlink:title=" ">
<polygon fill="white" stroke="#bfbfbf" points="24.74,-74.5 24.74,-92.5 128.57,-92.5 128.57,-74.5 24.74,-74.5"/>
<text text-anchor="middle" x="76.65" y="-80.5" font-family="Helvetica,sans-Serif" font-size="10.00">ComponentDragger</text>
</a>
</g>
</g>
<!-- Node5&#45;&gt;Node1 -->
<g id="edge4" class="edge">
<title>Node5&#45;&gt;Node1</title>
<path fill="none" stroke="midnightblue" d="M138.79,-91.16C156.14,-93.33 174.34,-95.61 189.23,-97.48"/>
<polygon fill="midnightblue" stroke="midnightblue" points="139.07,-87.67 128.71,-89.9 138.2,-94.61 139.07,-87.67"/>
</g>
<!-- Node6 -->
<g id="node6" class="node">
<title>Node6</title>
<g id="a_node6"><a xlink:title=" ">
<polygon fill="white" stroke="#bfbfbf" points="0,-37.5 0,-55.5 153.3,-55.5 153.3,-37.5 0,-37.5"/>
<text text-anchor="middle" x="76.65" y="-43.5" font-family="Helvetica,sans-Serif" font-size="10.00">ComponentBoundsConstrainer</text>
</a>
</g>
</g>
<!-- Node6&#45;&gt;Node1 -->
<g id="edge5" class="edge">
<title>Node6&#45;&gt;Node1</title>
<path fill="none" stroke="midnightblue" d="M131.22,-58.24C138.72,-60.38 146.27,-62.8 153.3,-65.5 172.51,-72.87 193.22,-84.4 206.68,-92.42"/>
<polygon fill="midnightblue" stroke="midnightblue" points="131.98,-54.82 121.42,-55.59 130.16,-61.58 131.98,-54.82"/>
</g>
<!-- Node7 -->
<g id="node7" class="node">
<title>Node7</title>
<g id="a_node7"><a xlink:title=" ">
<polygon fill="white" stroke="#bfbfbf" points="27.8,-0.5 27.8,-18.5 125.51,-18.5 125.51,-0.5 27.8,-0.5"/>
<text text-anchor="middle" x="76.65" y="-6.5" font-family="Helvetica,sans-Serif" font-size="10.00">ActionBroadcaster</text>
</a>
</g>
</g>
<!-- Node7&#45;&gt;Node1 -->
<g id="edge6" class="edge">
<title>Node7&#45;&gt;Node1</title>
<path fill="none" stroke="midnightblue" d="M135.53,-20.31C141.74,-22.55 147.79,-25.25 153.3,-28.5 181.35,-45.06 204.88,-76.67 215.41,-92.29"/>
<polygon fill="midnightblue" stroke="midnightblue" points="136.3,-16.88 125.71,-17.15 134.16,-23.54 136.3,-16.88"/>
</g>
</g>
</svg>
