<?xml version="1.0" encoding="UTF-8" standalone="no"?>
<!DOCTYPE svg PUBLIC "-//W3C//DTD SVG 1.1//EN"
 "http://www.w3.org/Graphics/SVG/1.1/DTD/svg11.dtd">
<!-- Generated by graphviz version 2.42.3 (20191010.1750)
 -->
<!-- Title: module_Impulse Pages: 1 -->
<svg width="136pt" height="137pt"
 viewBox="0.00 0.00 135.64 137.00" xmlns="http://www.w3.org/2000/svg" xmlns:xlink="http://www.w3.org/1999/xlink">
<g id="graph0" class="graph" transform="scale(1 1) rotate(0) translate(4 133)">
<title>module_Impulse</title>
<polygon fill="white" stroke="transparent" points="-4,4 -4,-133 131.64,-133 131.64,4 -4,4"/>
<!-- Node1 -->
<g id="node1" class="node">
<title>Node1</title>
<g id="a_node1"><a xlink:title=" ">
<polygon fill="#bfbfbf" stroke="black" points="23.16,-0.5 23.16,-18.5 112.54,-18.5 112.54,-0.5 23.16,-0.5"/>
<text text-anchor="middle" x="67.85" y="-6.5" font-family="Helvetica,sans-Serif" font-size="10.00">module_Impulse</text>
</a>
</g>
</g>
<!-- Node2 -->
<g id="node2" class="node">
<title>Node2</title>
<g id="a_node2"><a xlink:href="class_module.html" target="_top" xlink:title=" ">
<polygon fill="white" stroke="black" points="9.45,-55.5 9.45,-73.5 58.25,-73.5 58.25,-55.5 9.45,-55.5"/>
<text text-anchor="middle" x="33.85" y="-61.5" font-family="Helvetica,sans-Serif" font-size="10.00">Module</text>
</a>
</g>
</g>
<!-- Node2&#45;&gt;Node1 -->
<g id="edge1" class="edge">
<title>Node2&#45;&gt;Node1</title>
<path fill="none" stroke="midnightblue" d="M44.65,-46.66C50.68,-37.26 57.92,-25.98 62.69,-18.55"/>
<polygon fill="midnightblue" stroke="midnightblue" points="41.62,-44.91 39.16,-55.22 47.51,-48.69 41.62,-44.91"/>
</g>
<!-- Node3 -->
<g id="node3" class="node">
<title>Node3</title>
<g id="a_node3"><a xlink:title=" ">
<polygon fill="white" stroke="#bfbfbf" points="0,-110.5 0,-128.5 67.7,-128.5 67.7,-110.5 0,-110.5"/>
<text text-anchor="middle" x="33.85" y="-116.5" font-family="Helvetica,sans-Serif" font-size="10.00">Component</text>
</a>
</g>
</g>
<!-- Node3&#45;&gt;Node2 -->
<g id="edge2" class="edge">
<title>Node3&#45;&gt;Node2</title>
<path fill="none" stroke="midnightblue" d="M33.85,-100.17C33.85,-91.09 33.85,-80.59 33.85,-73.55"/>
<polygon fill="midnightblue" stroke="midnightblue" points="30.35,-100.22 33.85,-110.22 37.35,-100.22 30.35,-100.22"/>
</g>
<!-- Node4 -->
<g id="node4" class="node">
<title>Node4</title>
<g id="a_node4"><a xlink:title=" ">
<polygon fill="white" stroke="#bfbfbf" points="76.06,-55.5 76.06,-73.5 127.64,-73.5 127.64,-55.5 76.06,-55.5"/>
<text text-anchor="middle" x="101.85" y="-61.5" font-family="Helvetica,sans-Serif" font-size="10.00">Listener</text>
</a>
</g>
</g>
<!-- Node4&#45;&gt;Node1 -->
<g id="edge3" class="edge">
<title>Node4&#45;&gt;Node1</title>
<path fill="none" stroke="midnightblue" d="M91.05,-46.66C85.02,-37.26 77.78,-25.98 73.01,-18.55"/>
<polygon fill="midnightblue" stroke="midnightblue" points="88.19,-48.69 96.54,-55.22 94.08,-44.91 88.19,-48.69"/>
</g>
</g>
</svg>
