<?xml version="1.0" encoding="UTF-8" standalone="no"?>
<!DOCTYPE svg PUBLIC "-//W3C//DTD SVG 1.1//EN"
 "http://www.w3.org/Graphics/SVG/1.1/DTD/svg11.dtd">
<!-- Generated by graphviz version 2.42.3 (20191010.1750)
 -->
<!-- Title: phi_Outlet Pages: 1 -->
<svg width="314pt" height="82pt"
 viewBox="0.00 0.00 314.32 82.00" xmlns="http://www.w3.org/2000/svg" xmlns:xlink="http://www.w3.org/1999/xlink">
<g id="graph0" class="graph" transform="scale(1 1) rotate(0) translate(4 78)">
<title>phi_Outlet</title>
<polygon fill="white" stroke="transparent" points="-4,4 -4,-78 310.32,-78 310.32,4 -4,4"/>
<!-- Node1 -->
<g id="node1" class="node">
<title>Node1</title>
<g id="a_node1"><a xlink:title=" ">
<polygon fill="#bfbfbf" stroke="black" points="104.06,-0.5 104.06,-18.5 165.64,-18.5 165.64,-0.5 104.06,-0.5"/>
<text text-anchor="middle" x="134.85" y="-6.5" font-family="Helvetica,sans-Serif" font-size="10.00">phi_Outlet</text>
</a>
</g>
</g>
<!-- Node2 -->
<g id="node2" class="node">
<title>Node2</title>
<g id="a_node2"><a xlink:title=" ">
<polygon fill="white" stroke="#bfbfbf" points="0,-55.5 0,-73.5 67.7,-73.5 67.7,-55.5 0,-55.5"/>
<text text-anchor="middle" x="33.85" y="-61.5" font-family="Helvetica,sans-Serif" font-size="10.00">Component</text>
</a>
</g>
</g>
<!-- Node2&#45;&gt;Node1 -->
<g id="edge1" class="edge">
<title>Node2&#45;&gt;Node1</title>
<path fill="none" stroke="midnightblue" d="M58.17,-50.74C77.19,-40.76 103.07,-27.18 119.37,-18.63"/>
<polygon fill="midnightblue" stroke="midnightblue" points="56.42,-47.7 49.19,-55.45 59.67,-53.9 56.42,-47.7"/>
</g>
<!-- Node3 -->
<g id="node3" class="node">
<title>Node3</title>
<g id="a_node3"><a xlink:title=" ">
<polygon fill="white" stroke="#bfbfbf" points="86,-55.5 86,-73.5 183.7,-73.5 183.7,-55.5 86,-55.5"/>
<text text-anchor="middle" x="134.85" y="-61.5" font-family="Helvetica,sans-Serif" font-size="10.00">ActionBroadcaster</text>
</a>
</g>
</g>
<!-- Node3&#45;&gt;Node1 -->
<g id="edge2" class="edge">
<title>Node3&#45;&gt;Node1</title>
<path fill="none" stroke="midnightblue" d="M134.85,-45.17C134.85,-36.09 134.85,-25.59 134.85,-18.55"/>
<polygon fill="midnightblue" stroke="midnightblue" points="131.35,-45.22 134.85,-55.22 138.35,-45.22 131.35,-45.22"/>
</g>
<!-- Node4 -->
<g id="node4" class="node">
<title>Node4</title>
<g id="a_node4"><a xlink:title=" ">
<polygon fill="white" stroke="#bfbfbf" points="201.38,-55.5 201.38,-73.5 306.32,-73.5 306.32,-55.5 201.38,-55.5"/>
<text text-anchor="middle" x="253.85" y="-61.5" font-family="Helvetica,sans-Serif" font-size="10.00">DragAndDropTarget</text>
</a>
</g>
</g>
<!-- Node4&#45;&gt;Node1 -->
<g id="edge3" class="edge">
<title>Node4&#45;&gt;Node1</title>
<path fill="none" stroke="midnightblue" d="M226.42,-51.28C203.9,-41.25 172.64,-27.33 153.09,-18.63"/>
<polygon fill="midnightblue" stroke="midnightblue" points="225.22,-54.58 235.78,-55.45 228.07,-48.18 225.22,-54.58"/>
</g>
</g>
</svg>
