<?xml version="1.0" encoding="UTF-8" standalone="no"?>
<!DOCTYPE svg PUBLIC "-//W3C//DTD SVG 1.1//EN"
 "http://www.w3.org/Graphics/SVG/1.1/DTD/svg11.dtd">
<!-- Generated by graphviz version 2.42.3 (20191010.1750)
 -->
<!-- Title: Connections Pages: 1 -->
<svg width="174pt" height="82pt"
 viewBox="0.00 0.00 173.53 82.00" xmlns="http://www.w3.org/2000/svg" xmlns:xlink="http://www.w3.org/1999/xlink">
<g id="graph0" class="graph" transform="scale(1 1) rotate(0) translate(4 78)">
<title>Connections</title>
<polygon fill="white" stroke="transparent" points="-4,4 -4,-78 169.53,-78 169.53,4 -4,4"/>
<!-- Node1 -->
<g id="node1" class="node">
<title>Node1</title>
<g id="a_node1"><a xlink:title=" ">
<polygon fill="#bfbfbf" stroke="black" points="44.05,-0.5 44.05,-18.5 115.65,-18.5 115.65,-0.5 44.05,-0.5"/>
<text text-anchor="middle" x="79.85" y="-6.5" font-family="Helvetica,sans-Serif" font-size="10.00">Connections</text>
</a>
</g>
</g>
<!-- Node2 -->
<g id="node2" class="node">
<title>Node2</title>
<g id="a_node2"><a xlink:title=" ">
<polygon fill="white" stroke="#bfbfbf" points="0,-55.5 0,-73.5 67.7,-73.5 67.7,-55.5 0,-55.5"/>
<text text-anchor="middle" x="33.85" y="-61.5" font-family="Helvetica,sans-Serif" font-size="10.00">Component</text>
</a>
</g>
</g>
<!-- Node2&#45;&gt;Node1 -->
<g id="edge1" class="edge">
<title>Node2&#45;&gt;Node1</title>
<path fill="none" stroke="midnightblue" d="M47.71,-47.53C56.01,-37.97 66.21,-26.21 72.86,-18.55"/>
<polygon fill="midnightblue" stroke="midnightblue" points="44.95,-45.37 41.04,-55.22 50.24,-49.96 44.95,-45.37"/>
</g>
<!-- Node3 -->
<g id="node3" class="node">
<title>Node3</title>
<g id="a_node3"><a xlink:title=" ">
<polygon fill="white" stroke="#bfbfbf" points="86.17,-55.5 86.17,-73.5 165.53,-73.5 165.53,-55.5 86.17,-55.5"/>
<text text-anchor="middle" x="125.85" y="-61.5" font-family="Helvetica,sans-Serif" font-size="10.00">ActionListener</text>
</a>
</g>
</g>
<!-- Node3&#45;&gt;Node1 -->
<g id="edge2" class="edge">
<title>Node3&#45;&gt;Node1</title>
<path fill="none" stroke="midnightblue" d="M111.99,-47.53C103.69,-37.97 93.49,-26.21 86.84,-18.55"/>
<polygon fill="midnightblue" stroke="midnightblue" points="109.46,-49.96 118.66,-55.22 114.75,-45.37 109.46,-49.96"/>
</g>
</g>
</svg>
