<?xml version="1.0" encoding="UTF-8" standalone="no"?>
<!DOCTYPE svg PUBLIC "-//W3C//DTD SVG 1.1//EN"
 "http://www.w3.org/Graphics/SVG/1.1/DTD/svg11.dtd">
<!-- Generated by graphviz version 2.42.3 (20191010.1750)
 -->
<!-- Title: Source/src Pages: 1 -->
<svg width="94pt" height="150pt"
 viewBox="0.00 0.00 94.00 150.00" xmlns="http://www.w3.org/2000/svg" xmlns:xlink="http://www.w3.org/1999/xlink">
<g id="graph0" class="graph" transform="scale(1 1) rotate(0) translate(4 146)">
<title>Source/src</title>
<polygon fill="white" stroke="transparent" points="-4,4 -4,-146 90,-146 90,4 -4,4"/>
<g id="clust1" class="cluster">
<title>clusterdir_74389ed8173ad57b461b9d623a1f3867</title>
<g id="a_clust1"><a xlink:href="dir_74389ed8173ad57b461b9d623a1f3867.html" target="_top" xlink:title="Source">
<polygon fill="#ddddee" stroke="black" points="8,-64 8,-134 78,-134 78,-64 8,-64"/>
<text text-anchor="middle" x="43" y="-122" font-family="Helvetica,sans-Serif" font-size="10.00">Source</text>
</a>
</g>
</g>
<!-- dir_d1eb22c2ecfd8b50f59e9cbaf8260105 -->
<g id="node1" class="node">
<title>dir_d1eb22c2ecfd8b50f59e9cbaf8260105</title>
<g id="a_node1"><a xlink:href="dir_d1eb22c2ecfd8b50f59e9cbaf8260105.html" target="_top" xlink:title="src">
<polygon fill="#eeeeff" stroke="black" points="70,-108 16,-108 16,-72 70,-72 70,-108"/>
<text text-anchor="middle" x="43" y="-87" font-family="Helvetica,sans-Serif" font-size="10.00">src</text>
</a>
</g>
</g>
<!-- dir_9e985f2bac74fac21e961b4ee2414d07 -->
<g id="node2" class="node">
<title>dir_9e985f2bac74fac21e961b4ee2414d07</title>
<g id="a_node2"><a xlink:href="dir_9e985f2bac74fac21e961b4ee2414d07.html" target="_top" xlink:title="lib">
<polygon fill="white" stroke="red" points="70,-36 16,-36 16,0 70,0 70,-36"/>
<text text-anchor="middle" x="43" y="-15" font-family="Helvetica,sans-Serif" font-size="10.00">lib</text>
</a>
</g>
</g>
<!-- dir_d1eb22c2ecfd8b50f59e9cbaf8260105&#45;&gt;dir_9e985f2bac74fac21e961b4ee2414d07 -->
<g id="edge1" class="edge">
<title>dir_d1eb22c2ecfd8b50f59e9cbaf8260105&#45;&gt;dir_9e985f2bac74fac21e961b4ee2414d07</title>
<path fill="none" stroke="black" d="M43,-71.7C43,-63.98 43,-54.71 43,-46.11"/>
<polygon fill="black" stroke="black" points="46.5,-46.1 43,-36.1 39.5,-46.1 46.5,-46.1"/>
<g id="a_edge1&#45;headlabel"><a xlink:href="dir_000004_000001.html" target="_top" xlink:title="2">
<text text-anchor="middle" x="49.34" y="-46.7" font-family="Helvetica,sans-Serif" font-size="10.00">2</text>
</a>
</g>
</g>
</g>
</svg>
