<?xml version="1.0" encoding="UTF-8" standalone="no"?>
<!DOCTYPE svg PUBLIC "-//W3C//DTD SVG 1.1//EN"
 "http://www.w3.org/Graphics/SVG/1.1/DTD/svg11.dtd">
<!-- Generated by graphviz version 2.42.3 (20191010.1750)
 -->
<!-- Title: Source/lib Pages: 1 -->
<svg width="182pt" height="182pt"
 viewBox="0.00 0.00 182.00 182.00" xmlns="http://www.w3.org/2000/svg" xmlns:xlink="http://www.w3.org/1999/xlink">
<g id="graph0" class="graph" transform="scale(1 1) rotate(0) translate(4 178)">
<title>Source/lib</title>
<polygon fill="white" stroke="transparent" points="-4,4 -4,-178 178,-178 178,4 -4,4"/>
<g id="clust1" class="cluster">
<title>clusterdir_74389ed8173ad57b461b9d623a1f3867</title>
<g id="a_clust1"><a xlink:href="dir_74389ed8173ad57b461b9d623a1f3867.html" target="_top" xlink:title="Source">
<polygon fill="#ddddee" stroke="black" points="8,-8 8,-166 166,-166 166,-8 8,-8"/>
<text text-anchor="middle" x="87" y="-154" font-family="Helvetica,sans-Serif" font-size="10.00">Source</text>
</a>
</g>
</g>
<g id="clust2" class="cluster">
<title>clusterdir_9e985f2bac74fac21e961b4ee2414d07</title>
<g id="a_clust2"><a xlink:href="dir_9e985f2bac74fac21e961b4ee2414d07.html" target="_top">
<polygon fill="#eeeeff" stroke="black" points="16,-16 16,-140 158,-140 158,-16 16,-16"/>
</a>
</g>
</g>
<!-- dir_9e985f2bac74fac21e961b4ee2414d07 -->
<g id="node1" class="node">
<title>dir_9e985f2bac74fac21e961b4ee2414d07</title>
<text text-anchor="middle" x="123" y="-111" font-family="Helvetica,sans-Serif" font-size="10.00">lib</text>
</g>
<!-- dir_f3dc7f9e3421f1398be0bfb454e547b1 -->
<g id="node2" class="node">
<title>dir_f3dc7f9e3421f1398be0bfb454e547b1</title>
<g id="a_node2"><a xlink:href="dir_f3dc7f9e3421f1398be0bfb454e547b1.html" target="_top" xlink:title="modules">
<polygon fill="white" stroke="black" points="78,-132 24,-132 24,-96 78,-96 78,-132"/>
<text text-anchor="middle" x="51" y="-111" font-family="Helvetica,sans-Serif" font-size="10.00">modules</text>
</a>
</g>
</g>
<!-- dir_872e085836852c7c62eda57310c8b0e7 -->
<g id="node3" class="node">
<title>dir_872e085836852c7c62eda57310c8b0e7</title>
<g id="a_node3"><a xlink:href="dir_872e085836852c7c62eda57310c8b0e7.html" target="_top" xlink:title="UIobjects">
<polygon fill="white" stroke="black" points="81.69,-60 24.31,-60 24.31,-24 81.69,-24 81.69,-60"/>
<text text-anchor="middle" x="53" y="-39" font-family="Helvetica,sans-Serif" font-size="10.00">UIobjects</text>
</a>
</g>
</g>
<!-- dir_f3dc7f9e3421f1398be0bfb454e547b1&#45;&gt;dir_872e085836852c7c62eda57310c8b0e7 -->
<g id="edge1" class="edge">
<title>dir_f3dc7f9e3421f1398be0bfb454e547b1&#45;&gt;dir_872e085836852c7c62eda57310c8b0e7</title>
<path fill="none" stroke="black" d="M51.49,-95.7C51.71,-87.98 51.98,-78.71 52.23,-70.11"/>
<polygon fill="black" stroke="black" points="55.72,-70.2 52.51,-60.1 48.73,-70 55.72,-70.2"/>
<g id="a_edge1&#45;headlabel"><a xlink:href="dir_000002_000003.html" target="_top" xlink:title="2">
<text text-anchor="middle" x="58.46" y="-70.87" font-family="Helvetica,sans-Serif" font-size="10.00">2</text>
</a>
</g>
</g>
</g>
</svg>
