<?xml version="1.0" encoding="UTF-8" standalone="no"?>
<!DOCTYPE svg PUBLIC "-//W3C//DTD SVG 1.1//EN"
 "http://www.w3.org/Graphics/SVG/1.1/DTD/svg11.dtd">
<!-- Generated by graphviz version 2.42.3 (20191010.1750)
 -->
<!-- Title: Source/lib Pages: 1 -->
<svg width="130pt" height="254pt"
 viewBox="0.00 0.00 130.00 254.00" xmlns="http://www.w3.org/2000/svg" xmlns:xlink="http://www.w3.org/1999/xlink">
<g id="graph0" class="graph" transform="scale(1 1) rotate(0) translate(4 250)">
<title>Source/lib</title>
<polygon fill="white" stroke="transparent" points="-4,4 -4,-250 126,-250 126,4 -4,4"/>
<g id="clust1" class="cluster">
<title>clusterdir_74389ed8173ad57b461b9d623a1f3867</title>
<g id="a_clust1"><a xlink:href="dir_74389ed8173ad57b461b9d623a1f3867.html" target="_top" xlink:title="Source">
<polygon fill="#ddddee" stroke="black" points="8,-8 8,-238 114,-238 114,-8 8,-8"/>
<text text-anchor="middle" x="61" y="-226" font-family="Helvetica,sans-Serif" font-size="10.00">Source</text>
</a>
</g>
</g>
<g id="clust2" class="cluster">
<title>clusterdir_9e985f2bac74fac21e961b4ee2414d07</title>
<g id="a_clust2"><a xlink:href="dir_9e985f2bac74fac21e961b4ee2414d07.html" target="_top">
<polygon fill="#eeeeff" stroke="black" points="16,-16 16,-212 106,-212 106,-16 16,-16"/>
</a>
</g>
</g>
<!-- dir_9e985f2bac74fac21e961b4ee2414d07 -->
<g id="node1" class="node">
<title>dir_9e985f2bac74fac21e961b4ee2414d07</title>
<text text-anchor="middle" x="61" y="-183" font-family="Helvetica,sans-Serif" font-size="10.00">lib</text>
</g>
<!-- dir_f3dc7f9e3421f1398be0bfb454e547b1 -->
<g id="node2" class="node">
<title>dir_f3dc7f9e3421f1398be0bfb454e547b1</title>
<g id="a_node2"><a xlink:href="dir_f3dc7f9e3421f1398be0bfb454e547b1.html" target="_top" xlink:title="modules">
<polygon fill="white" stroke="black" points="78,-132 24,-132 24,-96 78,-96 78,-132"/>
<text text-anchor="middle" x="51" y="-111" font-family="Helvetica,sans-Serif" font-size="10.00">modules</text>
</a>
</g>
</g>
<!-- dir_9e985f2bac74fac21e961b4ee2414d07&#45;&gt;dir_f3dc7f9e3421f1398be0bfb454e547b1 -->
<g id="edge1" class="edge">
<title>dir_9e985f2bac74fac21e961b4ee2414d07&#45;&gt;dir_f3dc7f9e3421f1398be0bfb454e547b1</title>
<path fill="none" stroke="black" d="M58.53,-167.7C57.43,-159.98 56.1,-150.71 54.87,-142.11"/>
<polygon fill="black" stroke="black" points="58.32,-141.51 53.44,-132.1 51.39,-142.5 58.32,-141.51"/>
<g id="a_edge1&#45;headlabel"><a xlink:href="dir_000001_000002.html" target="_top" xlink:title="1">
<text text-anchor="middle" x="61.64" y="-141.67" font-family="Helvetica,sans-Serif" font-size="10.00">1</text>
</a>
</g>
</g>
<!-- dir_872e085836852c7c62eda57310c8b0e7 -->
<g id="node3" class="node">
<title>dir_872e085836852c7c62eda57310c8b0e7</title>
<g id="a_node3"><a xlink:href="dir_872e085836852c7c62eda57310c8b0e7.html" target="_top" xlink:title="UIobjects">
<polygon fill="white" stroke="black" points="89.69,-60 32.31,-60 32.31,-24 89.69,-24 89.69,-60"/>
<text text-anchor="middle" x="61" y="-39" font-family="Helvetica,sans-Serif" font-size="10.00">UIobjects</text>
</a>
</g>
</g>
<!-- dir_9e985f2bac74fac21e961b4ee2414d07&#45;&gt;dir_872e085836852c7c62eda57310c8b0e7 -->
<g id="edge2" class="edge">
<title>dir_9e985f2bac74fac21e961b4ee2414d07&#45;&gt;dir_872e085836852c7c62eda57310c8b0e7</title>
<path fill="none" stroke="black" d="M72.05,-167.61C77.74,-157.62 84.08,-144.58 87,-132 90.62,-116.41 90.62,-111.59 87,-96 84.9,-86.96 81.03,-77.68 76.91,-69.47"/>
<polygon fill="black" stroke="black" points="79.86,-67.55 72.05,-60.39 73.69,-70.86 79.86,-67.55"/>
<g id="a_edge2&#45;headlabel"><a xlink:href="dir_000001_000003.html" target="_top" xlink:title="5">
<text text-anchor="middle" x="84.06" y="-66.38" font-family="Helvetica,sans-Serif" font-size="10.00">5</text>
</a>
</g>
</g>
<!-- dir_f3dc7f9e3421f1398be0bfb454e547b1&#45;&gt;dir_872e085836852c7c62eda57310c8b0e7 -->
<g id="edge3" class="edge">
<title>dir_f3dc7f9e3421f1398be0bfb454e547b1&#45;&gt;dir_872e085836852c7c62eda57310c8b0e7</title>
<path fill="none" stroke="black" d="M53.47,-95.7C54.57,-87.98 55.9,-78.71 57.13,-70.11"/>
<polygon fill="black" stroke="black" points="60.61,-70.5 58.56,-60.1 53.68,-69.51 60.61,-70.5"/>
<g id="a_edge3&#45;headlabel"><a xlink:href="dir_000002_000003.html" target="_top" xlink:title="3">
<text text-anchor="middle" x="62.91" y="-71.46" font-family="Helvetica,sans-Serif" font-size="10.00">3</text>
</a>
</g>
</g>
</g>
</svg>
