<?xml version="1.0" encoding="UTF-8" standalone="no"?>
<!DOCTYPE svg PUBLIC "-//W3C//DTD SVG 1.1//EN"
 "http://www.w3.org/Graphics/SVG/1.1/DTD/svg11.dtd">
<!-- Generated by graphviz version 2.42.3 (20191010.1750)
 -->
<!-- Title: Graphical Class Hierarchy Pages: 1 -->
<svg width="412pt" height="360pt"
 viewBox="0.00 0.00 412.05 360.00" xmlns="http://www.w3.org/2000/svg" xmlns:xlink="http://www.w3.org/1999/xlink">
<g id="graph0" class="graph" transform="scale(1 1) rotate(0) translate(4 356)">
<title>Graphical Class Hierarchy</title>
<polygon fill="white" stroke="transparent" points="-4,4 -4,-356 408.05,-356 408.05,4 -4,4"/>
<!-- Node27 -->
<g id="node1" class="node">
<title>Node27</title>
<g id="a_node1"><a xlink:title=" ">
<polygon fill="white" stroke="#bfbfbf" points="27.8,-222.5 27.8,-240.5 125.51,-240.5 125.51,-222.5 27.8,-222.5"/>
<text text-anchor="middle" x="76.65" y="-228.5" font-family="Helvetica,sans-Serif" font-size="10.00">ActionBroadcaster</text>
</a>
</g>
</g>
<!-- Node5 -->
<g id="node2" class="node">
<title>Node5</title>
<g id="a_node2"><a xlink:href="class_module_box.html" target="_top" xlink:title=" ">
<polygon fill="white" stroke="black" points="200.98,-259.5 200.98,-277.5 267.01,-277.5 267.01,-259.5 200.98,-259.5"/>
<text text-anchor="middle" x="233.99" y="-265.5" font-family="Helvetica,sans-Serif" font-size="10.00">ModuleBox</text>
</a>
</g>
</g>
<!-- Node27&#45;&gt;Node5 -->
<g id="edge1" class="edge">
<title>Node27&#45;&gt;Node5</title>
<path fill="none" stroke="midnightblue" d="M125.48,-242.89C149.96,-248.72 179.12,-255.67 200.89,-260.85"/>
<polygon fill="midnightblue" stroke="midnightblue" points="126.19,-239.46 115.65,-240.55 124.57,-246.27 126.19,-239.46"/>
</g>
<!-- Node12 -->
<g id="node3" class="node">
<title>Node12</title>
<g id="a_node3"><a xlink:href="classphi___inlet.html" target="_top" xlink:title=" ">
<polygon fill="white" stroke="black" points="207.09,-148.5 207.09,-166.5 260.9,-166.5 260.9,-148.5 207.09,-148.5"/>
<text text-anchor="middle" x="233.99" y="-154.5" font-family="Helvetica,sans-Serif" font-size="10.00">phi_Inlet</text>
</a>
</g>
</g>
<!-- Node27&#45;&gt;Node12 -->
<g id="edge2" class="edge">
<title>Node27&#45;&gt;Node12</title>
<path fill="none" stroke="midnightblue" d="M135.46,-221.4C141.68,-219.25 147.76,-216.65 153.3,-213.5 173.26,-202.17 170.43,-189.54 189.3,-176.5 194.88,-172.64 201.37,-169.31 207.61,-166.56"/>
<polygon fill="midnightblue" stroke="midnightblue" points="134.15,-218.13 125.62,-224.41 136.2,-224.83 134.15,-218.13"/>
</g>
<!-- Node13 -->
<g id="node4" class="node">
<title>Node13</title>
<g id="a_node4"><a xlink:href="classphi___outlet.html" target="_top" xlink:title=" ">
<polygon fill="white" stroke="black" points="203.2,-111.5 203.2,-129.5 264.78,-129.5 264.78,-111.5 203.2,-111.5"/>
<text text-anchor="middle" x="233.99" y="-117.5" font-family="Helvetica,sans-Serif" font-size="10.00">phi_Outlet</text>
</a>
</g>
</g>
<!-- Node27&#45;&gt;Node13 -->
<g id="edge3" class="edge">
<title>Node27&#45;&gt;Node13</title>
<path fill="none" stroke="midnightblue" d="M135.39,-223.55C141.85,-221.03 148,-217.76 153.3,-213.5 181.84,-190.62 162.9,-164.81 189.3,-139.5 193.48,-135.49 198.65,-132.26 203.94,-129.67"/>
<polygon fill="midnightblue" stroke="midnightblue" points="134.18,-220.27 125.78,-226.73 136.38,-226.91 134.18,-220.27"/>
</g>
<!-- Node26 -->
<g id="node5" class="node">
<title>Node26</title>
<g id="a_node5"><a xlink:title=" ">
<polygon fill="white" stroke="#bfbfbf" points="36.97,-37.5 36.97,-55.5 116.34,-55.5 116.34,-37.5 36.97,-37.5"/>
<text text-anchor="middle" x="76.65" y="-43.5" font-family="Helvetica,sans-Serif" font-size="10.00">ActionListener</text>
</a>
</g>
</g>
<!-- Node20 -->
<g id="node6" class="node">
<title>Node20</title>
<g id="a_node6"><a xlink:href="class_connections.html" target="_top" xlink:title=" ">
<polygon fill="white" stroke="black" points="198.2,-74.5 198.2,-92.5 269.79,-92.5 269.79,-74.5 198.2,-74.5"/>
<text text-anchor="middle" x="233.99" y="-80.5" font-family="Helvetica,sans-Serif" font-size="10.00">Connections</text>
</a>
</g>
</g>
<!-- Node26&#45;&gt;Node20 -->
<g id="edge4" class="edge">
<title>Node26&#45;&gt;Node20</title>
<path fill="none" stroke="midnightblue" d="M125.41,-57.87C148.86,-63.46 176.6,-70.07 198.04,-75.17"/>
<polygon fill="midnightblue" stroke="midnightblue" points="126.19,-54.46 115.65,-55.55 124.57,-61.27 126.19,-54.46"/>
</g>
<!-- Node24 -->
<g id="node7" class="node">
<title>Node24</title>
<g id="a_node7"><a xlink:title=" ">
<polygon fill="white" stroke="#bfbfbf" points="21.12,-0.5 21.12,-18.5 132.19,-18.5 132.19,-0.5 21.12,-0.5"/>
<text text-anchor="middle" x="76.65" y="-6.5" font-family="Helvetica,sans-Serif" font-size="10.00">AudioAppComponent</text>
</a>
</g>
</g>
<!-- Node0 -->
<g id="node8" class="node">
<title>Node0</title>
<g id="a_node8"><a xlink:href="class_main_component.html" target="_top" xlink:title=" ">
<polygon fill="white" stroke="black" points="189.3,-37.5 189.3,-55.5 278.68,-55.5 278.68,-37.5 189.3,-37.5"/>
<text text-anchor="middle" x="233.99" y="-43.5" font-family="Helvetica,sans-Serif" font-size="10.00">MainComponent</text>
</a>
</g>
</g>
<!-- Node24&#45;&gt;Node0 -->
<g id="edge5" class="edge">
<title>Node24&#45;&gt;Node0</title>
<path fill="none" stroke="midnightblue" d="M125.62,-20.92C147.97,-26.25 174.18,-32.49 195.11,-37.48"/>
<polygon fill="midnightblue" stroke="midnightblue" points="126.19,-17.46 115.65,-18.55 124.57,-24.27 126.19,-17.46"/>
</g>
<!-- Node23 -->
<g id="node9" class="node">
<title>Node23</title>
<g id="a_node9"><a xlink:title=" ">
<polygon fill="white" stroke="#bfbfbf" points="33.35,-333.5 33.35,-351.5 119.96,-351.5 119.96,-333.5 33.35,-333.5"/>
<text text-anchor="middle" x="76.65" y="-339.5" font-family="Helvetica,sans-Serif" font-size="10.00">ChangeListener</text>
</a>
</g>
</g>
<!-- Node23&#45;&gt;Node5 -->
<g id="edge6" class="edge">
<title>Node23&#45;&gt;Node5</title>
<path fill="none" stroke="midnightblue" d="M129.91,-332.82C137.91,-330.56 145.95,-327.81 153.3,-324.5 180.44,-312.28 207.93,-290.39 222.46,-277.91"/>
<polygon fill="midnightblue" stroke="midnightblue" points="129,-329.44 120.21,-335.35 130.77,-336.21 129,-329.44"/>
</g>
<!-- Node19 -->
<g id="node10" class="node">
<title>Node19</title>
<g id="a_node10"><a xlink:title=" ">
<polygon fill="white" stroke="#bfbfbf" points="42.8,-185.5 42.8,-203.5 110.5,-203.5 110.5,-185.5 42.8,-185.5"/>
<text text-anchor="middle" x="76.65" y="-191.5" font-family="Helvetica,sans-Serif" font-size="10.00">Component</text>
</a>
</g>
</g>
<!-- Node19&#45;&gt;Node5 -->
<g id="edge12" class="edge">
<title>Node19&#45;&gt;Node5</title>
<path fill="none" stroke="midnightblue" d="M120.78,-200.99C131.85,-203.8 143.42,-207.81 153.3,-213.5 173.19,-224.95 170.3,-237.64 189.3,-250.5 194.47,-253.99 200.42,-257 206.23,-259.5"/>
<polygon fill="midnightblue" stroke="midnightblue" points="121.34,-197.53 110.81,-198.74 119.79,-204.36 121.34,-197.53"/>
</g>
<!-- Node19&#45;&gt;Node12 -->
<g id="edge13" class="edge">
<title>Node19&#45;&gt;Node12</title>
<path fill="none" stroke="midnightblue" d="M120.73,-184.25C131.38,-181.72 142.75,-179.01 153.3,-176.5 171.15,-172.25 191.25,-167.46 206.79,-163.75"/>
<polygon fill="midnightblue" stroke="midnightblue" points="119.71,-180.9 110.8,-186.62 121.33,-187.71 119.71,-180.9"/>
</g>
<!-- Node19&#45;&gt;Node13 -->
<g id="edge14" class="edge">
<title>Node19&#45;&gt;Node13</title>
<path fill="none" stroke="midnightblue" d="M120.77,-188.65C131.85,-185.98 143.42,-182.11 153.3,-176.5 173.26,-165.17 170.43,-152.54 189.3,-139.5 194.88,-135.64 201.37,-132.31 207.61,-129.56"/>
<polygon fill="midnightblue" stroke="midnightblue" points="119.85,-185.26 110.8,-190.77 121.31,-192.11 119.85,-185.26"/>
</g>
<!-- Node19&#45;&gt;Node20 -->
<g id="edge7" class="edge">
<title>Node19&#45;&gt;Node20</title>
<path fill="none" stroke="midnightblue" d="M120.59,-191.04C132.15,-188.4 144.02,-183.95 153.3,-176.5 181.84,-153.62 162.9,-127.81 189.3,-102.5 193.48,-98.49 198.65,-95.26 203.94,-92.67"/>
<polygon fill="midnightblue" stroke="midnightblue" points="119.76,-187.63 110.58,-192.92 121.05,-194.51 119.76,-187.63"/>
</g>
<!-- Node21 -->
<g id="node11" class="node">
<title>Node21</title>
<g id="a_node11"><a xlink:href="class_main_patcher.html" target="_top" xlink:title=" ">
<polygon fill="white" stroke="black" points="197.92,-222.5 197.92,-240.5 270.06,-240.5 270.06,-222.5 197.92,-222.5"/>
<text text-anchor="middle" x="233.99" y="-228.5" font-family="Helvetica,sans-Serif" font-size="10.00">MainPatcher</text>
</a>
</g>
</g>
<!-- Node19&#45;&gt;Node21 -->
<g id="edge8" class="edge">
<title>Node19&#45;&gt;Node21</title>
<path fill="none" stroke="midnightblue" d="M120.6,-204.73C144.85,-210.51 174.79,-217.64 197.66,-223.09"/>
<polygon fill="midnightblue" stroke="midnightblue" points="121.13,-201.26 110.6,-202.35 119.51,-208.07 121.13,-201.26"/>
</g>
<!-- Node22 -->
<g id="node12" class="node">
<title>Node22</title>
<g id="a_node12"><a xlink:href="class_module.html" target="_top" xlink:title=" ">
<polygon fill="white" stroke="black" points="209.59,-185.5 209.59,-203.5 258.39,-203.5 258.39,-185.5 209.59,-185.5"/>
<text text-anchor="middle" x="233.99" y="-191.5" font-family="Helvetica,sans-Serif" font-size="10.00">Module</text>
</a>
</g>
</g>
<!-- Node19&#45;&gt;Node22 -->
<g id="edge9" class="edge">
<title>Node19&#45;&gt;Node22</title>
<path fill="none" stroke="midnightblue" d="M120.73,-194.5C149.31,-194.5 185.73,-194.5 209.21,-194.5"/>
<polygon fill="midnightblue" stroke="midnightblue" points="120.6,-191 110.6,-194.5 120.6,-198 120.6,-191"/>
</g>
<!-- Node7 -->
<g id="node13" class="node">
<title>Node7</title>
<g id="a_node13"><a xlink:href="classmodule___gain.html" target="_top" xlink:title=" ">
<polygon fill="white" stroke="black" points="321.62,-148.5 321.62,-166.5 397.11,-166.5 397.11,-148.5 321.62,-148.5"/>
<text text-anchor="middle" x="359.37" y="-154.5" font-family="Helvetica,sans-Serif" font-size="10.00">module_Gain</text>
</a>
</g>
</g>
<!-- Node22&#45;&gt;Node7 -->
<g id="edge10" class="edge">
<title>Node22&#45;&gt;Node7</title>
<path fill="none" stroke="midnightblue" d="M268.3,-184.51C286.88,-178.94 309.85,-172.05 327.94,-166.62"/>
<polygon fill="midnightblue" stroke="midnightblue" points="267.06,-181.23 258.49,-187.45 269.07,-187.93 267.06,-181.23"/>
</g>
<!-- Node8 -->
<g id="node14" class="node">
<title>Node8</title>
<g id="a_node14"><a xlink:href="classmodule___impulse.html" target="_top" xlink:title=" ">
<polygon fill="white" stroke="black" points="314.68,-74.5 314.68,-92.5 404.05,-92.5 404.05,-74.5 314.68,-74.5"/>
<text text-anchor="middle" x="359.37" y="-80.5" font-family="Helvetica,sans-Serif" font-size="10.00">module_Impulse</text>
</a>
</g>
</g>
<!-- Node22&#45;&gt;Node8 -->
<g id="edge11" class="edge">
<title>Node22&#45;&gt;Node8</title>
<path fill="none" stroke="midnightblue" d="M268.05,-182.87C271.78,-180.99 275.41,-178.87 278.68,-176.5 295.99,-163.97 335.24,-113.78 351.31,-92.8"/>
<polygon fill="midnightblue" stroke="midnightblue" points="266.41,-179.77 258.73,-187.07 269.29,-186.16 266.41,-179.77"/>
</g>
<!-- Node18 -->
<g id="node15" class="node">
<title>Node18</title>
<g id="a_node15"><a xlink:title=" ">
<polygon fill="white" stroke="#bfbfbf" points="0,-296.5 0,-314.5 153.3,-314.5 153.3,-296.5 0,-296.5"/>
<text text-anchor="middle" x="76.65" y="-302.5" font-family="Helvetica,sans-Serif" font-size="10.00">ComponentBoundsConstrainer</text>
</a>
</g>
</g>
<!-- Node18&#45;&gt;Node5 -->
<g id="edge15" class="edge">
<title>Node18&#45;&gt;Node5</title>
<path fill="none" stroke="midnightblue" d="M125.56,-294.11C134.77,-291.91 144.34,-289.64 153.3,-287.5 168.94,-283.78 186.3,-279.64 200.81,-276.18"/>
<polygon fill="midnightblue" stroke="midnightblue" points="124.67,-290.72 115.75,-296.44 126.29,-297.53 124.67,-290.72"/>
</g>
<!-- Node17 -->
<g id="node16" class="node">
<title>Node17</title>
<g id="a_node16"><a xlink:title=" ">
<polygon fill="white" stroke="#bfbfbf" points="24.74,-259.5 24.74,-277.5 128.57,-277.5 128.57,-259.5 24.74,-259.5"/>
<text text-anchor="middle" x="76.65" y="-265.5" font-family="Helvetica,sans-Serif" font-size="10.00">ComponentDragger</text>
</a>
</g>
</g>
<!-- Node17&#45;&gt;Node5 -->
<g id="edge16" class="edge">
<title>Node17&#45;&gt;Node5</title>
<path fill="none" stroke="midnightblue" d="M139.13,-268.5C160.2,-268.5 182.94,-268.5 200.76,-268.5"/>
<polygon fill="midnightblue" stroke="midnightblue" points="138.95,-265 128.95,-268.5 138.95,-272 138.95,-265"/>
</g>
<!-- Node14 -->
<g id="node17" class="node">
<title>Node14</title>
<g id="a_node17"><a xlink:title=" ">
<polygon fill="white" stroke="#bfbfbf" points="16.4,-74.5 16.4,-92.5 136.9,-92.5 136.9,-74.5 16.4,-74.5"/>
<text text-anchor="middle" x="76.65" y="-80.5" font-family="Helvetica,sans-Serif" font-size="10.00">DragAndDropContainer</text>
</a>
</g>
</g>
<!-- Node14&#45;&gt;Node12 -->
<g id="edge18" class="edge">
<title>Node14&#45;&gt;Node12</title>
<path fill="none" stroke="midnightblue" d="M139.79,-96.05C144.49,-97.92 149.05,-100.05 153.3,-102.5 173.19,-113.95 170.3,-126.64 189.3,-139.5 194.6,-143.09 200.73,-146.16 206.69,-148.7"/>
<polygon fill="midnightblue" stroke="midnightblue" points="140.6,-92.63 130.01,-92.6 138.27,-99.23 140.6,-92.63"/>
</g>
<!-- Node14&#45;&gt;Node13 -->
<g id="edge19" class="edge">
<title>Node14&#45;&gt;Node13</title>
<path fill="none" stroke="midnightblue" d="M125.45,-94.89C150.81,-100.92 181.17,-108.16 203.16,-113.39"/>
<polygon fill="midnightblue" stroke="midnightblue" points="126.19,-91.46 115.65,-92.55 124.57,-98.27 126.19,-91.46"/>
</g>
<!-- Node14&#45;&gt;Node0 -->
<g id="edge17" class="edge">
<title>Node14&#45;&gt;Node0</title>
<path fill="none" stroke="midnightblue" d="M125.56,-72.11C134.77,-69.91 144.34,-67.64 153.3,-65.5 166.86,-62.27 181.72,-58.73 194.89,-55.59"/>
<polygon fill="midnightblue" stroke="midnightblue" points="124.67,-68.72 115.75,-74.44 126.29,-75.53 124.67,-68.72"/>
</g>
<!-- Node11 -->
<g id="node18" class="node">
<title>Node11</title>
<g id="a_node18"><a xlink:title=" ">
<polygon fill="white" stroke="#bfbfbf" points="24.18,-111.5 24.18,-129.5 129.12,-129.5 129.12,-111.5 24.18,-111.5"/>
<text text-anchor="middle" x="76.65" y="-117.5" font-family="Helvetica,sans-Serif" font-size="10.00">DragAndDropTarget</text>
</a>
</g>
</g>
<!-- Node11&#45;&gt;Node12 -->
<g id="edge20" class="edge">
<title>Node11&#45;&gt;Node12</title>
<path fill="none" stroke="midnightblue" d="M125.64,-131.93C152.49,-138.32 184.91,-146.05 207.05,-151.32"/>
<polygon fill="midnightblue" stroke="midnightblue" points="126.19,-128.46 115.65,-129.55 124.57,-135.27 126.19,-128.46"/>
</g>
<!-- Node11&#45;&gt;Node13 -->
<g id="edge21" class="edge">
<title>Node11&#45;&gt;Node13</title>
<path fill="none" stroke="midnightblue" d="M139.56,-120.5C161.31,-120.5 184.79,-120.5 202.77,-120.5"/>
<polygon fill="midnightblue" stroke="midnightblue" points="139.38,-117 129.38,-120.5 139.38,-124 139.38,-117"/>
</g>
<!-- Node6 -->
<g id="node19" class="node">
<title>Node6</title>
<g id="a_node19"><a xlink:title=" ">
<polygon fill="white" stroke="#bfbfbf" points="208.2,-0.5 208.2,-18.5 259.78,-18.5 259.78,-0.5 208.2,-0.5"/>
<text text-anchor="middle" x="233.99" y="-6.5" font-family="Helvetica,sans-Serif" font-size="10.00">Listener</text>
</a>
</g>
</g>
<!-- Node6&#45;&gt;Node7 -->
<g id="edge22" class="edge">
<title>Node6&#45;&gt;Node7</title>
<path fill="none" stroke="midnightblue" d="M268.94,-21.29C272.47,-23.36 275.8,-25.75 278.68,-28.5 305.08,-53.81 295.19,-71.55 314.68,-102.5 325.47,-119.63 340.63,-137.67 349.96,-148.24"/>
<polygon fill="midnightblue" stroke="midnightblue" points="270.46,-18.14 259.95,-16.8 267.34,-24.4 270.46,-18.14"/>
</g>
<!-- Node6&#45;&gt;Node8 -->
<g id="edge23" class="edge">
<title>Node6&#45;&gt;Node8</title>
<path fill="none" stroke="midnightblue" d="M267.49,-22.79C271.32,-24.6 275.12,-26.52 278.68,-28.5 304.1,-42.62 331.55,-62.78 346.68,-74.36"/>
<polygon fill="midnightblue" stroke="midnightblue" points="268.62,-19.46 258.07,-18.55 265.75,-25.85 268.62,-19.46"/>
</g>
<!-- Node3 -->
<g id="node20" class="node">
<title>Node3</title>
<g id="a_node20"><a xlink:title=" ">
<polygon fill="white" stroke="#bfbfbf" points="50.86,-148.5 50.86,-166.5 102.44,-166.5 102.44,-148.5 50.86,-148.5"/>
<text text-anchor="middle" x="76.65" y="-154.5" font-family="Helvetica,sans-Serif" font-size="10.00">Listener</text>
</a>
</g>
</g>
<!-- Node3&#45;&gt;Node5 -->
<g id="edge25" class="edge">
<title>Node3&#45;&gt;Node5</title>
<path fill="none" stroke="midnightblue" d="M112.74,-159.94C126.61,-162.42 141.91,-167.25 153.3,-176.5 181.7,-199.56 162.65,-225.45 189.3,-250.5 193.13,-254.1 197.77,-257.02 202.59,-259.38"/>
<polygon fill="midnightblue" stroke="midnightblue" points="112.91,-156.43 102.51,-158.46 111.91,-163.35 112.91,-156.43"/>
</g>
<!-- Node3&#45;&gt;Node0 -->
<g id="edge24" class="edge">
<title>Node3&#45;&gt;Node0</title>
<path fill="none" stroke="midnightblue" d="M112.72,-155.58C126.58,-153.28 141.89,-148.65 153.3,-139.5 181.84,-116.62 162.9,-90.81 189.3,-65.5 193.48,-61.49 198.65,-58.26 203.94,-55.67"/>
<polygon fill="midnightblue" stroke="midnightblue" points="111.96,-152.15 102.49,-156.91 112.86,-159.09 111.96,-152.15"/>
</g>
</g>
</svg>
