<?xml version="1.0" encoding="UTF-8" standalone="no"?>
<!DOCTYPE svg PUBLIC "-//W3C//DTD SVG 1.1//EN"
 "http://www.w3.org/Graphics/SVG/1.1/DTD/svg11.dtd">
<!-- Generated by graphviz version 2.42.3 (20191010.1750)
 -->
<!-- Title: Graphical Class Hierarchy Pages: 1 -->
<svg width="287pt" height="397pt"
 viewBox="0.00 0.00 286.68 397.00" xmlns="http://www.w3.org/2000/svg" xmlns:xlink="http://www.w3.org/1999/xlink">
<g id="graph0" class="graph" transform="scale(1 1) rotate(0) translate(4 393)">
<title>Graphical Class Hierarchy</title>
<polygon fill="white" stroke="transparent" points="-4,4 -4,-393 282.68,-393 282.68,4 -4,4"/>
<!-- Node24 -->
<g id="node1" class="node">
<title>Node24</title>
<g id="a_node1"><a xlink:title=" ">
<polygon fill="white" stroke="#bfbfbf" points="27.8,-222.5 27.8,-240.5 125.51,-240.5 125.51,-222.5 27.8,-222.5"/>
<text text-anchor="middle" x="76.65" y="-228.5" font-family="Helvetica,sans-Serif" font-size="10.00">ActionBroadcaster</text>
</a>
</g>
</g>
<!-- Node6 -->
<g id="node2" class="node">
<title>Node6</title>
<g id="a_node2"><a xlink:href="class_module_box.html" target="_top" xlink:title=" ">
<polygon fill="white" stroke="black" points="200.98,-277.5 200.98,-295.5 267.01,-295.5 267.01,-277.5 200.98,-277.5"/>
<text text-anchor="middle" x="233.99" y="-283.5" font-family="Helvetica,sans-Serif" font-size="10.00">ModuleBox</text>
</a>
</g>
</g>
<!-- Node24&#45;&gt;Node6 -->
<g id="edge1" class="edge">
<title>Node24&#45;&gt;Node6</title>
<path fill="none" stroke="midnightblue" d="M129.12,-243.11C137.28,-245.33 145.58,-247.81 153.3,-250.5 175.24,-258.14 199.42,-269.51 215.32,-277.42"/>
<polygon fill="midnightblue" stroke="midnightblue" points="129.83,-239.68 119.27,-240.54 128.06,-246.45 129.83,-239.68"/>
</g>
<!-- Node10 -->
<g id="node3" class="node">
<title>Node10</title>
<g id="a_node3"><a xlink:href="classphi___inlet.html" target="_top" xlink:title=" ">
<polygon fill="white" stroke="black" points="207.09,-185.5 207.09,-203.5 260.9,-203.5 260.9,-185.5 207.09,-185.5"/>
<text text-anchor="middle" x="233.99" y="-191.5" font-family="Helvetica,sans-Serif" font-size="10.00">phi_Inlet</text>
</a>
</g>
</g>
<!-- Node24&#45;&gt;Node10 -->
<g id="edge2" class="edge">
<title>Node24&#45;&gt;Node10</title>
<path fill="none" stroke="midnightblue" d="M125.56,-220.11C134.77,-217.91 144.34,-215.64 153.3,-213.5 171.15,-209.25 191.25,-204.46 206.79,-200.75"/>
<polygon fill="midnightblue" stroke="midnightblue" points="124.67,-216.72 115.75,-222.44 126.29,-223.53 124.67,-216.72"/>
</g>
<!-- Node11 -->
<g id="node4" class="node">
<title>Node11</title>
<g id="a_node4"><a xlink:href="classphi___outlet.html" target="_top" xlink:title=" ">
<polygon fill="white" stroke="black" points="203.2,-148.5 203.2,-166.5 264.78,-166.5 264.78,-148.5 203.2,-148.5"/>
<text text-anchor="middle" x="233.99" y="-154.5" font-family="Helvetica,sans-Serif" font-size="10.00">phi_Outlet</text>
</a>
</g>
</g>
<!-- Node24&#45;&gt;Node11 -->
<g id="edge3" class="edge">
<title>Node24&#45;&gt;Node11</title>
<path fill="none" stroke="midnightblue" d="M135.46,-221.4C141.68,-219.25 147.76,-216.65 153.3,-213.5 173.26,-202.17 170.43,-189.54 189.3,-176.5 194.88,-172.64 201.37,-169.31 207.61,-166.56"/>
<polygon fill="midnightblue" stroke="midnightblue" points="134.15,-218.13 125.62,-224.41 136.2,-224.83 134.15,-218.13"/>
</g>
<!-- Node23 -->
<g id="node5" class="node">
<title>Node23</title>
<g id="a_node5"><a xlink:title=" ">
<polygon fill="white" stroke="#bfbfbf" points="36.97,-74.5 36.97,-92.5 116.34,-92.5 116.34,-74.5 36.97,-74.5"/>
<text text-anchor="middle" x="76.65" y="-80.5" font-family="Helvetica,sans-Serif" font-size="10.00">ActionListener</text>
</a>
</g>
</g>
<!-- Node19 -->
<g id="node6" class="node">
<title>Node19</title>
<g id="a_node6"><a xlink:href="class_connections.html" target="_top" xlink:title=" ">
<polygon fill="white" stroke="black" points="198.2,-74.5 198.2,-92.5 269.79,-92.5 269.79,-74.5 198.2,-74.5"/>
<text text-anchor="middle" x="233.99" y="-80.5" font-family="Helvetica,sans-Serif" font-size="10.00">Connections</text>
</a>
</g>
</g>
<!-- Node23&#45;&gt;Node19 -->
<g id="edge4" class="edge">
<title>Node23&#45;&gt;Node19</title>
<path fill="none" stroke="midnightblue" d="M126.48,-83.5C149.73,-83.5 177,-83.5 198.13,-83.5"/>
<polygon fill="midnightblue" stroke="midnightblue" points="126.45,-80 116.45,-83.5 126.45,-87 126.45,-80"/>
</g>
<!-- Node22 -->
<g id="node7" class="node">
<title>Node22</title>
<g id="a_node7"><a xlink:title=" ">
<polygon fill="white" stroke="#bfbfbf" points="21.12,-0.5 21.12,-18.5 132.19,-18.5 132.19,-0.5 21.12,-0.5"/>
<text text-anchor="middle" x="76.65" y="-6.5" font-family="Helvetica,sans-Serif" font-size="10.00">AudioAppComponent</text>
</a>
</g>
</g>
<!-- Node13 -->
<g id="node8" class="node">
<title>Node13</title>
<g id="a_node8"><a xlink:href="class_main_component.html" target="_top" xlink:title=" ">
<polygon fill="white" stroke="black" points="189.3,-0.5 189.3,-18.5 278.68,-18.5 278.68,-0.5 189.3,-0.5"/>
<text text-anchor="middle" x="233.99" y="-6.5" font-family="Helvetica,sans-Serif" font-size="10.00">MainComponent</text>
</a>
</g>
</g>
<!-- Node22&#45;&gt;Node13 -->
<g id="edge5" class="edge">
<title>Node22&#45;&gt;Node13</title>
<path fill="none" stroke="midnightblue" d="M142.56,-9.5C158.19,-9.5 174.52,-9.5 188.94,-9.5"/>
<polygon fill="midnightblue" stroke="midnightblue" points="142.42,-6 132.42,-9.5 142.42,-13 142.42,-6"/>
</g>
<!-- Node21 -->
<g id="node9" class="node">
<title>Node21</title>
<g id="a_node9"><a xlink:title=" ">
<polygon fill="white" stroke="#bfbfbf" points="33.35,-333.5 33.35,-351.5 119.96,-351.5 119.96,-333.5 33.35,-333.5"/>
<text text-anchor="middle" x="76.65" y="-339.5" font-family="Helvetica,sans-Serif" font-size="10.00">ChangeListener</text>
</a>
</g>
</g>
<!-- Node21&#45;&gt;Node6 -->
<g id="edge6" class="edge">
<title>Node21&#45;&gt;Node6</title>
<path fill="none" stroke="midnightblue" d="M130.02,-331.57C137.9,-329.48 145.87,-327.12 153.3,-324.5 176,-316.49 200.83,-304.01 216.64,-295.56"/>
<polygon fill="midnightblue" stroke="midnightblue" points="128.97,-328.22 120.13,-334.06 130.68,-335.01 128.97,-328.22"/>
</g>
<!-- Node18 -->
<g id="node10" class="node">
<title>Node18</title>
<g id="a_node10"><a xlink:title=" ">
<polygon fill="white" stroke="#bfbfbf" points="42.8,-148.5 42.8,-166.5 110.5,-166.5 110.5,-148.5 42.8,-148.5"/>
<text text-anchor="middle" x="76.65" y="-154.5" font-family="Helvetica,sans-Serif" font-size="10.00">Component</text>
</a>
</g>
</g>
<!-- Node18&#45;&gt;Node6 -->
<g id="edge9" class="edge">
<title>Node18&#45;&gt;Node6</title>
<path fill="none" stroke="midnightblue" d="M120.42,-162.81C131.79,-165.62 143.59,-169.93 153.3,-176.5 173.52,-190.18 213.14,-253.66 227.57,-277.46"/>
<polygon fill="midnightblue" stroke="midnightblue" points="121.12,-159.38 110.61,-160.7 119.65,-166.23 121.12,-159.38"/>
</g>
<!-- Node18&#45;&gt;Node10 -->
<g id="edge11" class="edge">
<title>Node18&#45;&gt;Node10</title>
<path fill="none" stroke="midnightblue" d="M120.41,-167.69C148.07,-174.27 183.19,-182.64 206.78,-188.26"/>
<polygon fill="midnightblue" stroke="midnightblue" points="121.13,-164.26 110.6,-165.35 119.51,-171.07 121.13,-164.26"/>
</g>
<!-- Node18&#45;&gt;Node11 -->
<g id="edge12" class="edge">
<title>Node18&#45;&gt;Node11</title>
<path fill="none" stroke="midnightblue" d="M120.63,-157.5C146.81,-157.5 179.6,-157.5 202.99,-157.5"/>
<polygon fill="midnightblue" stroke="midnightblue" points="120.6,-154 110.6,-157.5 120.6,-161 120.6,-154"/>
</g>
<!-- Node18&#45;&gt;Node19 -->
<g id="edge7" class="edge">
<title>Node18&#45;&gt;Node19</title>
<path fill="none" stroke="midnightblue" d="M120.77,-151.65C131.85,-148.98 143.42,-145.11 153.3,-139.5 173.26,-128.17 170.43,-115.54 189.3,-102.5 194.88,-98.64 201.37,-95.31 207.61,-92.56"/>
<polygon fill="midnightblue" stroke="midnightblue" points="119.85,-148.26 110.8,-153.77 121.31,-155.11 119.85,-148.26"/>
</g>
<!-- Node20 -->
<g id="node11" class="node">
<title>Node20</title>
<g id="a_node11"><a xlink:href="class_main_patcher.html" target="_top" xlink:title=" ">
<polygon fill="white" stroke="black" points="197.92,-111.5 197.92,-129.5 270.06,-129.5 270.06,-111.5 197.92,-111.5"/>
<text text-anchor="middle" x="233.99" y="-117.5" font-family="Helvetica,sans-Serif" font-size="10.00">MainPatcher</text>
</a>
</g>
</g>
<!-- Node18&#45;&gt;Node20 -->
<g id="edge8" class="edge">
<title>Node18&#45;&gt;Node20</title>
<path fill="none" stroke="midnightblue" d="M120.73,-147.25C131.38,-144.72 142.75,-142.01 153.3,-139.5 167.83,-136.04 183.85,-132.22 197.69,-128.92"/>
<polygon fill="midnightblue" stroke="midnightblue" points="119.71,-143.9 110.8,-149.62 121.33,-150.71 119.71,-143.9"/>
</g>
<!-- Node0 -->
<g id="node12" class="node">
<title>Node0</title>
<g id="a_node12"><a xlink:href="classphi___impulse.html" target="_top" xlink:title=" ">
<polygon fill="white" stroke="black" points="199.03,-37.5 199.03,-55.5 268.95,-55.5 268.95,-37.5 199.03,-37.5"/>
<text text-anchor="middle" x="233.99" y="-43.5" font-family="Helvetica,sans-Serif" font-size="10.00">phi_Impulse</text>
</a>
</g>
</g>
<!-- Node18&#45;&gt;Node0 -->
<g id="edge10" class="edge">
<title>Node18&#45;&gt;Node0</title>
<path fill="none" stroke="midnightblue" d="M120.59,-154.04C132.15,-151.4 144.02,-146.95 153.3,-139.5 181.84,-116.62 162.9,-90.81 189.3,-65.5 193.48,-61.49 198.65,-58.26 203.94,-55.67"/>
<polygon fill="midnightblue" stroke="midnightblue" points="119.76,-150.63 110.58,-155.92 121.05,-157.51 119.76,-150.63"/>
</g>
<!-- Node17 -->
<g id="node13" class="node">
<title>Node17</title>
<g id="a_node13"><a xlink:title=" ">
<polygon fill="white" stroke="#bfbfbf" points="0,-296.5 0,-314.5 153.3,-314.5 153.3,-296.5 0,-296.5"/>
<text text-anchor="middle" x="76.65" y="-302.5" font-family="Helvetica,sans-Serif" font-size="10.00">ComponentBoundsConstrainer</text>
</a>
</g>
</g>
<!-- Node17&#45;&gt;Node6 -->
<g id="edge13" class="edge">
<title>Node17&#45;&gt;Node6</title>
<path fill="none" stroke="midnightblue" d="M161.76,-295.21C175.56,-293.52 189.09,-291.87 200.59,-290.46"/>
<polygon fill="midnightblue" stroke="midnightblue" points="161.18,-291.76 151.68,-296.45 162.03,-298.71 161.18,-291.76"/>
</g>
<!-- Node16 -->
<g id="node14" class="node">
<title>Node16</title>
<g id="a_node14"><a xlink:title=" ">
<polygon fill="white" stroke="#bfbfbf" points="24.74,-259.5 24.74,-277.5 128.57,-277.5 128.57,-259.5 24.74,-259.5"/>
<text text-anchor="middle" x="76.65" y="-265.5" font-family="Helvetica,sans-Serif" font-size="10.00">ComponentDragger</text>
</a>
</g>
</g>
<!-- Node16&#45;&gt;Node6 -->
<g id="edge14" class="edge">
<title>Node16&#45;&gt;Node6</title>
<path fill="none" stroke="midnightblue" d="M139.13,-275.62C160.2,-278.07 182.94,-280.7 200.76,-282.77"/>
<polygon fill="midnightblue" stroke="midnightblue" points="139.28,-272.12 128.95,-274.44 138.48,-279.07 139.28,-272.12"/>
</g>
<!-- Node12 -->
<g id="node15" class="node">
<title>Node12</title>
<g id="a_node15"><a xlink:title=" ">
<polygon fill="white" stroke="#bfbfbf" points="16.4,-111.5 16.4,-129.5 136.9,-129.5 136.9,-111.5 16.4,-111.5"/>
<text text-anchor="middle" x="76.65" y="-117.5" font-family="Helvetica,sans-Serif" font-size="10.00">DragAndDropContainer</text>
</a>
</g>
</g>
<!-- Node12&#45;&gt;Node10 -->
<g id="edge16" class="edge">
<title>Node12&#45;&gt;Node10</title>
<path fill="none" stroke="midnightblue" d="M139.79,-133.05C144.49,-134.92 149.05,-137.05 153.3,-139.5 173.19,-150.95 170.3,-163.64 189.3,-176.5 194.6,-180.09 200.73,-183.16 206.69,-185.7"/>
<polygon fill="midnightblue" stroke="midnightblue" points="140.6,-129.63 130.01,-129.6 138.27,-136.23 140.6,-129.63"/>
</g>
<!-- Node12&#45;&gt;Node11 -->
<g id="edge17" class="edge">
<title>Node12&#45;&gt;Node11</title>
<path fill="none" stroke="midnightblue" d="M125.45,-131.89C150.81,-137.92 181.17,-145.16 203.16,-150.39"/>
<polygon fill="midnightblue" stroke="midnightblue" points="126.19,-128.46 115.65,-129.55 124.57,-135.27 126.19,-128.46"/>
</g>
<!-- Node12&#45;&gt;Node13 -->
<g id="edge15" class="edge">
<title>Node12&#45;&gt;Node13</title>
<path fill="none" stroke="midnightblue" d="M146.08,-107.46C148.62,-105.97 151.04,-104.33 153.3,-102.5 182.09,-79.3 162.43,-52.89 189.3,-27.5 193.12,-23.89 197.76,-20.97 202.57,-18.6"/>
<polygon fill="midnightblue" stroke="midnightblue" points="144.51,-104.33 137.09,-111.9 147.61,-110.61 144.51,-104.33"/>
</g>
<!-- Node9 -->
<g id="node16" class="node">
<title>Node9</title>
<g id="a_node16"><a xlink:title=" ">
<polygon fill="white" stroke="#bfbfbf" points="24.18,-185.5 24.18,-203.5 129.12,-203.5 129.12,-185.5 24.18,-185.5"/>
<text text-anchor="middle" x="76.65" y="-191.5" font-family="Helvetica,sans-Serif" font-size="10.00">DragAndDropTarget</text>
</a>
</g>
</g>
<!-- Node9&#45;&gt;Node10 -->
<g id="edge18" class="edge">
<title>Node9&#45;&gt;Node10</title>
<path fill="none" stroke="midnightblue" d="M139.6,-194.5C162.99,-194.5 188.36,-194.5 206.75,-194.5"/>
<polygon fill="midnightblue" stroke="midnightblue" points="139.38,-191 129.38,-194.5 139.38,-198 139.38,-191"/>
</g>
<!-- Node9&#45;&gt;Node11 -->
<g id="edge19" class="edge">
<title>Node9&#45;&gt;Node11</title>
<path fill="none" stroke="midnightblue" d="M125.56,-183.11C134.77,-180.91 144.34,-178.64 153.3,-176.5 169.77,-172.58 188.15,-168.2 203.1,-164.63"/>
<polygon fill="midnightblue" stroke="midnightblue" points="124.67,-179.72 115.75,-185.44 126.29,-186.53 124.67,-179.72"/>
</g>
<!-- Node5 -->
<g id="node17" class="node">
<title>Node5</title>
<g id="a_node17"><a xlink:title=" ">
<polygon fill="white" stroke="#bfbfbf" points="50.86,-370.5 50.86,-388.5 102.44,-388.5 102.44,-370.5 50.86,-370.5"/>
<text text-anchor="middle" x="76.65" y="-376.5" font-family="Helvetica,sans-Serif" font-size="10.00">Listener</text>
</a>
</g>
</g>
<!-- Node5&#45;&gt;Node6 -->
<g id="edge20" class="edge">
<title>Node5&#45;&gt;Node6</title>
<path fill="none" stroke="midnightblue" d="M112.86,-375.06C126.1,-372.39 140.93,-368.17 153.3,-361.5 184.91,-344.46 213.28,-311.7 225.97,-295.72"/>
<polygon fill="midnightblue" stroke="midnightblue" points="111.9,-371.67 102.66,-376.87 113.12,-378.56 111.9,-371.67"/>
</g>
<!-- Node3 -->
<g id="node18" class="node">
<title>Node3</title>
<g id="a_node18"><a xlink:title=" ">
<polygon fill="white" stroke="#bfbfbf" points="50.86,-37.5 50.86,-55.5 102.44,-55.5 102.44,-37.5 50.86,-37.5"/>
<text text-anchor="middle" x="76.65" y="-43.5" font-family="Helvetica,sans-Serif" font-size="10.00">Listener</text>
</a>
</g>
</g>
<!-- Node3&#45;&gt;Node0 -->
<g id="edge21" class="edge">
<title>Node3&#45;&gt;Node0</title>
<path fill="none" stroke="midnightblue" d="M112.69,-46.5C138.45,-46.5 173.28,-46.5 198.83,-46.5"/>
<polygon fill="midnightblue" stroke="midnightblue" points="112.61,-43 102.61,-46.5 112.61,-50 112.61,-43"/>
</g>
</g>
</svg>
