<?xml version="1.0" encoding="UTF-8" standalone="no"?>
<!DOCTYPE svg PUBLIC "-//W3C//DTD SVG 1.1//EN"
 "http://www.w3.org/Graphics/SVG/1.1/DTD/svg11.dtd">
<!-- Generated by graphviz version 2.42.3 (20191010.1750)
 -->
<!-- Title: Graphical Class Hierarchy Pages: 1 -->
<svg width="412pt" height="360pt"
 viewBox="0.00 0.00 412.05 360.00" xmlns="http://www.w3.org/2000/svg" xmlns:xlink="http://www.w3.org/1999/xlink">
<g id="graph0" class="graph" transform="scale(1 1) rotate(0) translate(4 356)">
<title>Graphical Class Hierarchy</title>
<polygon fill="white" stroke="transparent" points="-4,4 -4,-356 408.05,-356 408.05,4 -4,4"/>
<!-- Node27 -->
<g id="node1" class="node">
<title>Node27</title>
<g id="a_node1"><a xlink:title=" ">
<polygon fill="white" stroke="#bfbfbf" points="27.8,-222.5 27.8,-240.5 125.51,-240.5 125.51,-222.5 27.8,-222.5"/>
<text text-anchor="middle" x="76.65" y="-228.5" font-family="Helvetica,sans-Serif" font-size="10.00">ActionBroadcaster</text>
</a>
</g>
</g>
<!-- Node5 -->
<g id="node2" class="node">
<title>Node5</title>
<g id="a_node2"><a xlink:href="class_module_box.html" target="_top" xlink:title=" ">
<polygon fill="white" stroke="black" points="200.98,-259.5 200.98,-277.5 267.01,-277.5 267.01,-259.5 200.98,-259.5"/>
<text text-anchor="middle" x="233.99" y="-265.5" font-family="Helvetica,sans-Serif" font-size="10.00">ModuleBox</text>
</a>
</g>
</g>
<!-- Node27&#45;&gt;Node5 -->
<g id="edge1" class="edge">
<title>Node27&#45;&gt;Node5</title>
<path fill="none" stroke="midnightblue" d="M125.48,-242.89C149.96,-248.72 179.12,-255.67 200.89,-260.85"/>
<polygon fill="midnightblue" stroke="midnightblue" points="126.19,-239.46 115.65,-240.55 124.57,-246.27 126.19,-239.46"/>
</g>
<!-- Node12 -->
<g id="node3" class="node">
<title>Node12</title>
<g id="a_node3"><a xlink:href="classphi___inlet.html" target="_top" xlink:title=" ">
<polygon fill="white" stroke="black" points="207.09,-185.5 207.09,-203.5 260.9,-203.5 260.9,-185.5 207.09,-185.5"/>
<text text-anchor="middle" x="233.99" y="-191.5" font-family="Helvetica,sans-Serif" font-size="10.00">phi_Inlet</text>
</a>
</g>
</g>
<!-- Node27&#45;&gt;Node12 -->
<g id="edge2" class="edge">
<title>Node27&#45;&gt;Node12</title>
<path fill="none" stroke="midnightblue" d="M125.56,-220.11C134.77,-217.91 144.34,-215.64 153.3,-213.5 171.15,-209.25 191.25,-204.46 206.79,-200.75"/>
<polygon fill="midnightblue" stroke="midnightblue" points="124.67,-216.72 115.75,-222.44 126.29,-223.53 124.67,-216.72"/>
</g>
<!-- Node13 -->
<g id="node4" class="node">
<title>Node13</title>
<g id="a_node4"><a xlink:href="classphi___outlet.html" target="_top" xlink:title=" ">
<polygon fill="white" stroke="black" points="203.2,-222.5 203.2,-240.5 264.78,-240.5 264.78,-222.5 203.2,-222.5"/>
<text text-anchor="middle" x="233.99" y="-228.5" font-family="Helvetica,sans-Serif" font-size="10.00">phi_Outlet</text>
</a>
</g>
</g>
<!-- Node27&#45;&gt;Node13 -->
<g id="edge3" class="edge">
<title>Node27&#45;&gt;Node13</title>
<path fill="none" stroke="midnightblue" d="M135.54,-231.5C158.52,-231.5 183.97,-231.5 203.1,-231.5"/>
<polygon fill="midnightblue" stroke="midnightblue" points="135.53,-228 125.53,-231.5 135.53,-235 135.53,-228"/>
</g>
<!-- Node26 -->
<g id="node5" class="node">
<title>Node26</title>
<g id="a_node5"><a xlink:title=" ">
<polygon fill="white" stroke="#bfbfbf" points="36.97,-111.5 36.97,-129.5 116.34,-129.5 116.34,-111.5 36.97,-111.5"/>
<text text-anchor="middle" x="76.65" y="-117.5" font-family="Helvetica,sans-Serif" font-size="10.00">ActionListener</text>
</a>
</g>
</g>
<!-- Node21 -->
<g id="node6" class="node">
<title>Node21</title>
<g id="a_node6"><a xlink:href="class_connections.html" target="_top" xlink:title=" ">
<polygon fill="white" stroke="black" points="198.2,-111.5 198.2,-129.5 269.79,-129.5 269.79,-111.5 198.2,-111.5"/>
<text text-anchor="middle" x="233.99" y="-117.5" font-family="Helvetica,sans-Serif" font-size="10.00">Connections</text>
</a>
</g>
</g>
<!-- Node26&#45;&gt;Node21 -->
<g id="edge4" class="edge">
<title>Node26&#45;&gt;Node21</title>
<path fill="none" stroke="midnightblue" d="M126.48,-120.5C149.73,-120.5 177,-120.5 198.13,-120.5"/>
<polygon fill="midnightblue" stroke="midnightblue" points="126.45,-117 116.45,-120.5 126.45,-124 126.45,-117"/>
</g>
<!-- Node24 -->
<g id="node7" class="node">
<title>Node24</title>
<g id="a_node7"><a xlink:title=" ">
<polygon fill="white" stroke="#bfbfbf" points="21.12,-0.5 21.12,-18.5 132.19,-18.5 132.19,-0.5 21.12,-0.5"/>
<text text-anchor="middle" x="76.65" y="-6.5" font-family="Helvetica,sans-Serif" font-size="10.00">AudioAppComponent</text>
</a>
</g>
</g>
<!-- Node0 -->
<g id="node8" class="node">
<title>Node0</title>
<g id="a_node8"><a xlink:href="class_main_component.html" target="_top" xlink:title=" ">
<polygon fill="white" stroke="black" points="189.3,-0.5 189.3,-18.5 278.68,-18.5 278.68,-0.5 189.3,-0.5"/>
<text text-anchor="middle" x="233.99" y="-6.5" font-family="Helvetica,sans-Serif" font-size="10.00">MainComponent</text>
</a>
</g>
</g>
<!-- Node24&#45;&gt;Node0 -->
<g id="edge5" class="edge">
<title>Node24&#45;&gt;Node0</title>
<path fill="none" stroke="midnightblue" d="M142.56,-9.5C158.19,-9.5 174.52,-9.5 188.94,-9.5"/>
<polygon fill="midnightblue" stroke="midnightblue" points="142.42,-6 132.42,-9.5 142.42,-13 142.42,-6"/>
</g>
<!-- Node23 -->
<g id="node9" class="node">
<title>Node23</title>
<g id="a_node9"><a xlink:title=" ">
<polygon fill="white" stroke="#bfbfbf" points="33.35,-333.5 33.35,-351.5 119.96,-351.5 119.96,-333.5 33.35,-333.5"/>
<text text-anchor="middle" x="76.65" y="-339.5" font-family="Helvetica,sans-Serif" font-size="10.00">ChangeListener</text>
</a>
</g>
</g>
<!-- Node23&#45;&gt;Node5 -->
<g id="edge6" class="edge">
<title>Node23&#45;&gt;Node5</title>
<path fill="none" stroke="midnightblue" d="M129.91,-332.82C137.91,-330.56 145.95,-327.81 153.3,-324.5 180.44,-312.28 207.93,-290.39 222.46,-277.91"/>
<polygon fill="midnightblue" stroke="midnightblue" points="129,-329.44 120.21,-335.35 130.77,-336.21 129,-329.44"/>
</g>
<!-- Node20 -->
<g id="node10" class="node">
<title>Node20</title>
<g id="a_node10"><a xlink:title=" ">
<polygon fill="white" stroke="#bfbfbf" points="42.8,-148.5 42.8,-166.5 110.5,-166.5 110.5,-148.5 42.8,-148.5"/>
<text text-anchor="middle" x="76.65" y="-154.5" font-family="Helvetica,sans-Serif" font-size="10.00">Component</text>
</a>
</g>
</g>
<!-- Node20&#45;&gt;Node5 -->
<g id="edge12" class="edge">
<title>Node20&#45;&gt;Node5</title>
<path fill="none" stroke="midnightblue" d="M120.61,-161.59C132.18,-164.38 144.04,-168.97 153.3,-176.5 181.7,-199.56 162.65,-225.45 189.3,-250.5 193.13,-254.1 197.77,-257.02 202.59,-259.38"/>
<polygon fill="midnightblue" stroke="midnightblue" points="121.09,-158.11 110.6,-159.57 119.71,-164.97 121.09,-158.11"/>
</g>
<!-- Node20&#45;&gt;Node12 -->
<g id="edge13" class="edge">
<title>Node20&#45;&gt;Node12</title>
<path fill="none" stroke="midnightblue" d="M120.41,-167.69C148.07,-174.27 183.19,-182.64 206.78,-188.26"/>
<polygon fill="midnightblue" stroke="midnightblue" points="121.13,-164.26 110.6,-165.35 119.51,-171.07 121.13,-164.26"/>
</g>
<!-- Node20&#45;&gt;Node13 -->
<g id="edge14" class="edge">
<title>Node20&#45;&gt;Node13</title>
<path fill="none" stroke="midnightblue" d="M120.78,-163.99C131.85,-166.8 143.42,-170.81 153.3,-176.5 173.19,-187.95 170.3,-200.64 189.3,-213.5 194.47,-216.99 200.42,-220 206.23,-222.5"/>
<polygon fill="midnightblue" stroke="midnightblue" points="121.34,-160.53 110.81,-161.74 119.79,-167.36 121.34,-160.53"/>
</g>
<!-- Node20&#45;&gt;Node21 -->
<g id="edge7" class="edge">
<title>Node20&#45;&gt;Node21</title>
<path fill="none" stroke="midnightblue" d="M120.73,-147.25C131.38,-144.72 142.75,-142.01 153.3,-139.5 167.97,-136.01 184.15,-132.15 198.08,-128.83"/>
<polygon fill="midnightblue" stroke="midnightblue" points="119.71,-143.9 110.8,-149.62 121.33,-150.71 119.71,-143.9"/>
</g>
<!-- Node15 -->
<g id="node11" class="node">
<title>Node15</title>
<g id="a_node11"><a xlink:href="class_main_patcher.html" target="_top" xlink:title=" ">
<polygon fill="white" stroke="black" points="197.92,-74.5 197.92,-92.5 270.06,-92.5 270.06,-74.5 197.92,-74.5"/>
<text text-anchor="middle" x="233.99" y="-80.5" font-family="Helvetica,sans-Serif" font-size="10.00">MainPatcher</text>
</a>
</g>
</g>
<!-- Node20&#45;&gt;Node15 -->
<g id="edge8" class="edge">
<title>Node20&#45;&gt;Node15</title>
<path fill="none" stroke="midnightblue" d="M120.77,-151.65C131.85,-148.98 143.42,-145.11 153.3,-139.5 173.26,-128.17 170.43,-115.54 189.3,-102.5 194.88,-98.64 201.37,-95.31 207.61,-92.56"/>
<polygon fill="midnightblue" stroke="midnightblue" points="119.85,-148.26 110.8,-153.77 121.31,-155.11 119.85,-148.26"/>
</g>
<!-- Node22 -->
<g id="node12" class="node">
<title>Node22</title>
<g id="a_node12"><a xlink:href="class_module.html" target="_top" xlink:title=" ">
<polygon fill="white" stroke="black" points="209.59,-148.5 209.59,-166.5 258.39,-166.5 258.39,-148.5 209.59,-148.5"/>
<text text-anchor="middle" x="233.99" y="-154.5" font-family="Helvetica,sans-Serif" font-size="10.00">Module</text>
</a>
</g>
</g>
<!-- Node20&#45;&gt;Node22 -->
<g id="edge9" class="edge">
<title>Node20&#45;&gt;Node22</title>
<path fill="none" stroke="midnightblue" d="M120.73,-157.5C149.31,-157.5 185.73,-157.5 209.21,-157.5"/>
<polygon fill="midnightblue" stroke="midnightblue" points="120.6,-154 110.6,-157.5 120.6,-161 120.6,-154"/>
</g>
<!-- Node7 -->
<g id="node13" class="node">
<title>Node7</title>
<g id="a_node13"><a xlink:href="classmodule___gain.html" target="_top" xlink:title=" ">
<polygon fill="white" stroke="black" points="321.62,-129.5 321.62,-147.5 397.11,-147.5 397.11,-129.5 321.62,-129.5"/>
<text text-anchor="middle" x="359.37" y="-135.5" font-family="Helvetica,sans-Serif" font-size="10.00">module_Gain</text>
</a>
</g>
</g>
<!-- Node22&#45;&gt;Node7 -->
<g id="edge10" class="edge">
<title>Node22&#45;&gt;Node7</title>
<path fill="none" stroke="midnightblue" d="M268.67,-152.31C284.99,-149.8 304.63,-146.78 321.37,-144.2"/>
<polygon fill="midnightblue" stroke="midnightblue" points="267.84,-148.9 258.49,-153.88 268.9,-155.82 267.84,-148.9"/>
</g>
<!-- Node8 -->
<g id="node14" class="node">
<title>Node8</title>
<g id="a_node14"><a xlink:href="classmodule___impulse.html" target="_top" xlink:title=" ">
<polygon fill="white" stroke="black" points="314.68,-55.5 314.68,-73.5 404.05,-73.5 404.05,-55.5 314.68,-55.5"/>
<text text-anchor="middle" x="359.37" y="-61.5" font-family="Helvetica,sans-Serif" font-size="10.00">module_Impulse</text>
</a>
</g>
</g>
<!-- Node22&#45;&gt;Node8 -->
<g id="edge11" class="edge">
<title>Node22&#45;&gt;Node8</title>
<path fill="none" stroke="midnightblue" d="M267.81,-145.52C271.58,-143.7 275.29,-141.69 278.68,-139.5 308.37,-120.34 336.98,-89.43 350.41,-73.96"/>
<polygon fill="midnightblue" stroke="midnightblue" points="266.19,-142.42 258.45,-149.66 269.01,-148.82 266.19,-142.42"/>
</g>
<!-- Node19 -->
<g id="node15" class="node">
<title>Node19</title>
<g id="a_node15"><a xlink:title=" ">
<polygon fill="white" stroke="#bfbfbf" points="0,-296.5 0,-314.5 153.3,-314.5 153.3,-296.5 0,-296.5"/>
<text text-anchor="middle" x="76.65" y="-302.5" font-family="Helvetica,sans-Serif" font-size="10.00">ComponentBoundsConstrainer</text>
</a>
</g>
</g>
<!-- Node19&#45;&gt;Node5 -->
<g id="edge15" class="edge">
<title>Node19&#45;&gt;Node5</title>
<path fill="none" stroke="midnightblue" d="M125.56,-294.11C134.77,-291.91 144.34,-289.64 153.3,-287.5 168.94,-283.78 186.3,-279.64 200.81,-276.18"/>
<polygon fill="midnightblue" stroke="midnightblue" points="124.67,-290.72 115.75,-296.44 126.29,-297.53 124.67,-290.72"/>
</g>
<!-- Node18 -->
<g id="node16" class="node">
<title>Node18</title>
<g id="a_node16"><a xlink:title=" ">
<polygon fill="white" stroke="#bfbfbf" points="24.74,-259.5 24.74,-277.5 128.57,-277.5 128.57,-259.5 24.74,-259.5"/>
<text text-anchor="middle" x="76.65" y="-265.5" font-family="Helvetica,sans-Serif" font-size="10.00">ComponentDragger</text>
</a>
</g>
</g>
<!-- Node18&#45;&gt;Node5 -->
<g id="edge16" class="edge">
<title>Node18&#45;&gt;Node5</title>
<path fill="none" stroke="midnightblue" d="M139.13,-268.5C160.2,-268.5 182.94,-268.5 200.76,-268.5"/>
<polygon fill="midnightblue" stroke="midnightblue" points="138.95,-265 128.95,-268.5 138.95,-272 138.95,-265"/>
</g>
<!-- Node14 -->
<g id="node17" class="node">
<title>Node14</title>
<g id="a_node17"><a xlink:title=" ">
<polygon fill="white" stroke="#bfbfbf" points="16.4,-37.5 16.4,-55.5 136.9,-55.5 136.9,-37.5 16.4,-37.5"/>
<text text-anchor="middle" x="76.65" y="-43.5" font-family="Helvetica,sans-Serif" font-size="10.00">DragAndDropContainer</text>
</a>
</g>
</g>
<!-- Node14&#45;&gt;Node15 -->
<g id="edge17" class="edge">
<title>Node14&#45;&gt;Node15</title>
<path fill="none" stroke="midnightblue" d="M125.69,-57.94C148.98,-63.49 176.46,-70.03 197.78,-75.11"/>
<polygon fill="midnightblue" stroke="midnightblue" points="126.19,-54.46 115.65,-55.55 124.57,-61.27 126.19,-54.46"/>
</g>
<!-- Node11 -->
<g id="node18" class="node">
<title>Node11</title>
<g id="a_node18"><a xlink:title=" ">
<polygon fill="white" stroke="#bfbfbf" points="24.18,-185.5 24.18,-203.5 129.12,-203.5 129.12,-185.5 24.18,-185.5"/>
<text text-anchor="middle" x="76.65" y="-191.5" font-family="Helvetica,sans-Serif" font-size="10.00">DragAndDropTarget</text>
</a>
</g>
</g>
<!-- Node11&#45;&gt;Node12 -->
<g id="edge18" class="edge">
<title>Node11&#45;&gt;Node12</title>
<path fill="none" stroke="midnightblue" d="M139.6,-194.5C162.99,-194.5 188.36,-194.5 206.75,-194.5"/>
<polygon fill="midnightblue" stroke="midnightblue" points="139.38,-191 129.38,-194.5 139.38,-198 139.38,-191"/>
</g>
<!-- Node11&#45;&gt;Node13 -->
<g id="edge19" class="edge">
<title>Node11&#45;&gt;Node13</title>
<path fill="none" stroke="midnightblue" d="M125.45,-205.89C150.81,-211.92 181.17,-219.16 203.16,-224.39"/>
<polygon fill="midnightblue" stroke="midnightblue" points="126.19,-202.46 115.65,-203.55 124.57,-209.27 126.19,-202.46"/>
</g>
<!-- Node6 -->
<g id="node19" class="node">
<title>Node6</title>
<g id="a_node19"><a xlink:title=" ">
<polygon fill="white" stroke="#bfbfbf" points="208.2,-37.5 208.2,-55.5 259.78,-55.5 259.78,-37.5 208.2,-37.5"/>
<text text-anchor="middle" x="233.99" y="-43.5" font-family="Helvetica,sans-Serif" font-size="10.00">Listener</text>
</a>
</g>
</g>
<!-- Node6&#45;&gt;Node7 -->
<g id="edge20" class="edge">
<title>Node6&#45;&gt;Node7</title>
<path fill="none" stroke="midnightblue" d="M268.83,-59.86C272.24,-61.6 275.58,-63.49 278.68,-65.5 307.95,-84.51 336.75,-114.43 350.31,-129.37"/>
<polygon fill="midnightblue" stroke="midnightblue" points="270.3,-56.68 259.76,-55.58 267.31,-63.01 270.3,-56.68"/>
</g>
<!-- Node6&#45;&gt;Node8 -->
<g id="edge21" class="edge">
<title>Node6&#45;&gt;Node8</title>
<path fill="none" stroke="midnightblue" d="M270.04,-51.61C283.85,-53.63 299.88,-55.97 314.46,-58.09"/>
<polygon fill="midnightblue" stroke="midnightblue" points="270.36,-48.12 259.96,-50.14 269.35,-55.05 270.36,-48.12"/>
</g>
<!-- Node3 -->
<g id="node20" class="node">
<title>Node3</title>
<g id="a_node20"><a xlink:title=" ">
<polygon fill="white" stroke="#bfbfbf" points="50.86,-74.5 50.86,-92.5 102.44,-92.5 102.44,-74.5 50.86,-74.5"/>
<text text-anchor="middle" x="76.65" y="-80.5" font-family="Helvetica,sans-Serif" font-size="10.00">Listener</text>
</a>
</g>
</g>
<!-- Node3&#45;&gt;Node5 -->
<g id="edge23" class="edge">
<title>Node3&#45;&gt;Node5</title>
<path fill="none" stroke="midnightblue" d="M112.76,-84.61C127.07,-86.84 142.71,-91.83 153.3,-102.5 200.99,-150.55 145.21,-199.13 189.3,-250.5 192.4,-254.11 196.34,-257.01 200.58,-259.33"/>
<polygon fill="midnightblue" stroke="midnightblue" points="113,-81.12 102.66,-83.43 112.19,-88.07 113,-81.12"/>
</g>
<!-- Node3&#45;&gt;Node0 -->
<g id="edge22" class="edge">
<title>Node3&#45;&gt;Node0</title>
<path fill="none" stroke="midnightblue" d="M112.32,-79.48C125.75,-76.86 140.86,-72.56 153.3,-65.5 173.26,-54.17 170.43,-41.54 189.3,-28.5 194.88,-24.64 201.37,-21.31 207.61,-18.56"/>
<polygon fill="midnightblue" stroke="midnightblue" points="111.72,-76.03 102.45,-81.17 112.9,-82.93 111.72,-76.03"/>
</g>
</g>
</svg>
