<?xml version="1.0" encoding="UTF-8" standalone="no"?>
<!DOCTYPE svg PUBLIC "-//W3C//DTD SVG 1.1//EN"
 "http://www.w3.org/Graphics/SVG/1.1/DTD/svg11.dtd">
<!-- Generated by graphviz version 2.42.3 (20191010.1750)
 -->
<!-- Title: Source/lib/modules/module_Impulse.h Pages: 1 -->
<svg width="370pt" height="212pt"
 viewBox="0.00 0.00 370.11 212.00" xmlns="http://www.w3.org/2000/svg" xmlns:xlink="http://www.w3.org/1999/xlink">
<g id="graph0" class="graph" transform="scale(1 1) rotate(0) translate(4 208)">
<title>Source/lib/modules/module_Impulse.h</title>
<polygon fill="white" stroke="transparent" points="-4,4 -4,-208 366.11,-208 366.11,4 -4,4"/>
<!-- Node1 -->
<g id="node1" class="node">
<title>Node1</title>
<g id="a_node1"><a xlink:title=" ">
<polygon fill="#bfbfbf" stroke="black" points="89.05,-175.5 89.05,-203.5 190.1,-203.5 190.1,-175.5 89.05,-175.5"/>
<text text-anchor="start" x="97.05" y="-191.5" font-family="Helvetica,sans-Serif" font-size="10.00">Source/lib/modules</text>
<text text-anchor="middle" x="139.57" y="-181.5" font-family="Helvetica,sans-Serif" font-size="10.00">/module_Impulse.h</text>
</a>
</g>
</g>
<!-- Node2 -->
<g id="node2" class="node">
<title>Node2</title>
<g id="a_node2"><a xlink:href="module___impulse_8cpp.html" target="_top" xlink:title=" ">
<polygon fill="white" stroke="black" points="15.05,-110.5 15.05,-138.5 126.1,-138.5 126.1,-110.5 15.05,-110.5"/>
<text text-anchor="start" x="23.05" y="-126.5" font-family="Helvetica,sans-Serif" font-size="10.00">Source/lib/modules</text>
<text text-anchor="middle" x="70.57" y="-116.5" font-family="Helvetica,sans-Serif" font-size="10.00">/module_Impulse.cpp</text>
</a>
</g>
</g>
<!-- Node1&#45;&gt;Node2 -->
<g id="edge1" class="edge">
<title>Node1&#45;&gt;Node2</title>
<path fill="none" stroke="midnightblue" d="M117.85,-168.67C107.08,-158.83 94.38,-147.23 84.85,-138.54"/>
<polygon fill="midnightblue" stroke="midnightblue" points="115.53,-171.29 125.28,-175.45 120.25,-166.12 115.53,-171.29"/>
</g>
<!-- Node3 -->
<g id="node3" class="node">
<title>Node3</title>
<g id="a_node3"><a xlink:href="_main_patcher_8h.html" target="_top" xlink:title=" ">
<polygon fill="white" stroke="black" points="144.32,-115.5 144.32,-133.5 274.82,-133.5 274.82,-115.5 144.32,-115.5"/>
<text text-anchor="middle" x="209.57" y="-121.5" font-family="Helvetica,sans-Serif" font-size="10.00">Source/src/MainPatcher.h</text>
</a>
</g>
</g>
<!-- Node1&#45;&gt;Node3 -->
<g id="edge2" class="edge">
<title>Node1&#45;&gt;Node3</title>
<path fill="none" stroke="midnightblue" d="M161.78,-168.52C174.84,-156.76 190.67,-142.51 200.43,-133.73"/>
<polygon fill="midnightblue" stroke="midnightblue" points="159.17,-166.16 154.08,-175.45 163.85,-171.36 159.17,-166.16"/>
</g>
<!-- Node4 -->
<g id="node4" class="node">
<title>Node4</title>
<g id="a_node4"><a xlink:href="_main_component_8h.html" target="_top" xlink:title=" ">
<polygon fill="white" stroke="black" points="54.43,-55.5 54.43,-73.5 202.72,-73.5 202.72,-55.5 54.43,-55.5"/>
<text text-anchor="middle" x="128.57" y="-61.5" font-family="Helvetica,sans-Serif" font-size="10.00">Source/src/MainComponent.h</text>
</a>
</g>
</g>
<!-- Node3&#45;&gt;Node4 -->
<g id="edge3" class="edge">
<title>Node3&#45;&gt;Node4</title>
<path fill="none" stroke="midnightblue" d="M189.87,-109.39C174.24,-98.2 152.94,-82.95 140,-73.68"/>
<polygon fill="midnightblue" stroke="midnightblue" points="188.14,-112.46 198.31,-115.44 192.22,-106.77 188.14,-112.46"/>
</g>
<!-- Node7 -->
<g id="node7" class="node">
<title>Node7</title>
<g id="a_node7"><a xlink:href="_main_patcher_8cpp.html" target="_top" xlink:title=" ">
<polygon fill="white" stroke="black" points="221.04,-55.5 221.04,-73.5 362.11,-73.5 362.11,-55.5 221.04,-55.5"/>
<text text-anchor="middle" x="291.57" y="-61.5" font-family="Helvetica,sans-Serif" font-size="10.00">Source/src/MainPatcher.cpp</text>
</a>
</g>
</g>
<!-- Node3&#45;&gt;Node7 -->
<g id="edge6" class="edge">
<title>Node3&#45;&gt;Node7</title>
<path fill="none" stroke="midnightblue" d="M229.52,-109.39C245.34,-98.2 266.91,-82.95 280,-73.68"/>
<polygon fill="midnightblue" stroke="midnightblue" points="227.12,-106.8 220.98,-115.44 231.16,-112.52 227.12,-106.8"/>
</g>
<!-- Node5 -->
<g id="node5" class="node">
<title>Node5</title>
<g id="a_node5"><a xlink:href="_main_8cpp.html" target="_top" xlink:title=" ">
<polygon fill="white" stroke="black" points="0,-0.5 0,-18.5 107.15,-18.5 107.15,-0.5 0,-0.5"/>
<text text-anchor="middle" x="53.57" y="-6.5" font-family="Helvetica,sans-Serif" font-size="10.00">Source/src/Main.cpp</text>
</a>
</g>
</g>
<!-- Node4&#45;&gt;Node5 -->
<g id="edge4" class="edge">
<title>Node4&#45;&gt;Node5</title>
<path fill="none" stroke="midnightblue" d="M108.75,-49.49C94.82,-39.65 76.68,-26.83 65.07,-18.63"/>
<polygon fill="midnightblue" stroke="midnightblue" points="107,-52.54 117.18,-55.45 111.04,-46.82 107,-52.54"/>
</g>
<!-- Node6 -->
<g id="node6" class="node">
<title>Node6</title>
<g id="a_node6"><a xlink:href="_main_component_8cpp.html" target="_top" xlink:title=" ">
<polygon fill="white" stroke="black" points="125.15,-0.5 125.15,-18.5 284,-18.5 284,-0.5 125.15,-0.5"/>
<text text-anchor="middle" x="204.57" y="-6.5" font-family="Helvetica,sans-Serif" font-size="10.00">Source/src/MainComponent.cpp</text>
</a>
</g>
</g>
<!-- Node4&#45;&gt;Node6 -->
<g id="edge5" class="edge">
<title>Node4&#45;&gt;Node6</title>
<path fill="none" stroke="midnightblue" d="M148.66,-49.49C162.78,-39.65 181.16,-26.83 192.92,-18.63"/>
<polygon fill="midnightblue" stroke="midnightblue" points="146.32,-46.86 140.12,-55.45 150.32,-52.6 146.32,-46.86"/>
</g>
</g>
</svg>
