<?xml version="1.0" encoding="UTF-8" standalone="no"?>
<!DOCTYPE svg PUBLIC "-//W3C//DTD SVG 1.1//EN"
 "http://www.w3.org/Graphics/SVG/1.1/DTD/svg11.dtd">
<!-- Generated by graphviz version 2.42.3 (20191010.1750)
 -->
<!-- Title: Source/lib/modules/module_Gain.cpp Pages: 1 -->
<svg width="329pt" height="257pt"
 viewBox="0.00 0.00 329.38 257.00" xmlns="http://www.w3.org/2000/svg" xmlns:xlink="http://www.w3.org/1999/xlink">
<g id="graph0" class="graph" transform="scale(1 1) rotate(0) translate(4 253)">
<title>Source/lib/modules/module_Gain.cpp</title>
<polygon fill="white" stroke="transparent" points="-4,4 -4,-253 325.38,-253 325.38,4 -4,4"/>
<!-- Node1 -->
<g id="node1" class="node">
<title>Node1</title>
<g id="a_node1"><a xlink:title=" ">
<polygon fill="#bfbfbf" stroke="black" points="0,-220.5 0,-248.5 101.04,-248.5 101.04,-220.5 0,-220.5"/>
<text text-anchor="start" x="8" y="-236.5" font-family="Helvetica,sans-Serif" font-size="10.00">Source/lib/modules</text>
<text text-anchor="middle" x="50.52" y="-226.5" font-family="Helvetica,sans-Serif" font-size="10.00">/module_Gain.cpp</text>
</a>
</g>
</g>
<!-- Node2 -->
<g id="node2" class="node">
<title>Node2</title>
<g id="a_node2"><a xlink:title=" ">
<polygon fill="white" stroke="#bfbfbf" points="81.67,-0.5 81.67,-18.5 159.38,-18.5 159.38,-0.5 81.67,-0.5"/>
<text text-anchor="middle" x="120.52" y="-6.5" font-family="Helvetica,sans-Serif" font-size="10.00">JuceHeader.h</text>
</a>
</g>
</g>
<!-- Node1&#45;&gt;Node2 -->
<g id="edge1" class="edge">
<title>Node1&#45;&gt;Node2</title>
<path fill="none" stroke="midnightblue" d="M48.47,-220.49C46.67,-206.61 44.85,-184.04 48.52,-165 58.48,-113.3 68.63,-101.92 92.52,-55 97.35,-45.53 103.57,-35.47 108.93,-27.31"/>
<polygon fill="midnightblue" stroke="midnightblue" points="112,-29.01 114.68,-18.76 106.2,-25.11 112,-29.01"/>
</g>
<!-- Node3 -->
<g id="node3" class="node">
<title>Node3</title>
<g id="a_node3"><a xlink:href="module___gain_8h.html" target="_top" xlink:title=" ">
<polygon fill="white" stroke="black" points="57.61,-165.5 57.61,-183.5 141.43,-183.5 141.43,-165.5 57.61,-165.5"/>
<text text-anchor="middle" x="99.52" y="-171.5" font-family="Helvetica,sans-Serif" font-size="10.00">module_Gain.h</text>
</a>
</g>
</g>
<!-- Node1&#45;&gt;Node3 -->
<g id="edge2" class="edge">
<title>Node1&#45;&gt;Node3</title>
<path fill="none" stroke="midnightblue" d="M61.64,-220.34C68.83,-211.83 78.24,-200.69 85.88,-191.65"/>
<polygon fill="midnightblue" stroke="midnightblue" points="88.75,-193.67 92.53,-183.77 83.41,-189.15 88.75,-193.67"/>
</g>
<!-- Node3&#45;&gt;Node2 -->
<g id="edge3" class="edge">
<title>Node3&#45;&gt;Node2</title>
<path fill="none" stroke="midnightblue" d="M97.37,-165.37C95.14,-156.51 91.81,-141.86 90.52,-129 86.85,-92.36 101.94,-50.95 112.04,-28.07"/>
<polygon fill="midnightblue" stroke="midnightblue" points="115.36,-29.23 116.37,-18.68 109.01,-26.29 115.36,-29.23"/>
</g>
<!-- Node4 -->
<g id="node4" class="node">
<title>Node4</title>
<g id="a_node4"><a xlink:href="_module_8h.html" target="_top" xlink:title=" ">
<polygon fill="white" stroke="black" points="99.79,-110.5 99.79,-128.5 165.26,-128.5 165.26,-110.5 99.79,-110.5"/>
<text text-anchor="middle" x="132.52" y="-116.5" font-family="Helvetica,sans-Serif" font-size="10.00">../Module.h</text>
</a>
</g>
</g>
<!-- Node3&#45;&gt;Node4 -->
<g id="edge4" class="edge">
<title>Node3&#45;&gt;Node4</title>
<path fill="none" stroke="midnightblue" d="M104.68,-165.22C109.36,-157.71 116.39,-146.41 122.22,-137.05"/>
<polygon fill="midnightblue" stroke="midnightblue" points="125.2,-138.89 127.51,-128.55 119.25,-135.19 125.2,-138.89"/>
</g>
<!-- Node7 -->
<g id="node7" class="node">
<title>Node7</title>
<g id="a_node7"><a xlink:href="ui___dial_8h.html" target="_top" xlink:title=" ">
<polygon fill="white" stroke="black" points="213.67,-110.5 213.67,-128.5 321.38,-128.5 321.38,-110.5 213.67,-110.5"/>
<text text-anchor="middle" x="267.52" y="-116.5" font-family="Helvetica,sans-Serif" font-size="10.00">../UIobjects/ui_Dial.h</text>
</a>
</g>
</g>
<!-- Node3&#45;&gt;Node7 -->
<g id="edge10" class="edge">
<title>Node3&#45;&gt;Node7</title>
<path fill="none" stroke="midnightblue" d="M125.04,-165.45C153.61,-156.44 200.12,-141.77 232.18,-131.65"/>
<polygon fill="midnightblue" stroke="midnightblue" points="233.56,-134.88 242.04,-128.54 231.45,-128.21 233.56,-134.88"/>
</g>
<!-- Node4&#45;&gt;Node2 -->
<g id="edge5" class="edge">
<title>Node4&#45;&gt;Node2</title>
<path fill="none" stroke="midnightblue" d="M127.09,-110.41C121.67,-101.8 113.7,-87.6 110.52,-74 106.99,-58.87 110.25,-41.42 113.97,-28.64"/>
<polygon fill="midnightblue" stroke="midnightblue" points="117.41,-29.39 117.19,-18.79 110.76,-27.21 117.41,-29.39"/>
</g>
<!-- Node5 -->
<g id="node5" class="node">
<title>Node5</title>
<g id="a_node5"><a xlink:href="phi___inlet_8h.html" target="_top" xlink:title=" ">
<polygon fill="white" stroke="black" points="119.45,-55.5 119.45,-73.5 181.6,-73.5 181.6,-55.5 119.45,-55.5"/>
<text text-anchor="middle" x="150.52" y="-61.5" font-family="Helvetica,sans-Serif" font-size="10.00">phi_Inlet.h</text>
</a>
</g>
</g>
<!-- Node4&#45;&gt;Node5 -->
<g id="edge6" class="edge">
<title>Node4&#45;&gt;Node5</title>
<path fill="none" stroke="midnightblue" d="M135.33,-110.22C137.78,-103.02 141.4,-92.35 144.5,-83.23"/>
<polygon fill="midnightblue" stroke="midnightblue" points="147.89,-84.14 147.79,-73.55 141.26,-81.89 147.89,-84.14"/>
</g>
<!-- Node6 -->
<g id="node6" class="node">
<title>Node6</title>
<g id="a_node6"><a xlink:href="phi___outlet_8h.html" target="_top" xlink:title=" ">
<polygon fill="white" stroke="black" points="199.56,-55.5 199.56,-73.5 269.48,-73.5 269.48,-55.5 199.56,-55.5"/>
<text text-anchor="middle" x="234.52" y="-61.5" font-family="Helvetica,sans-Serif" font-size="10.00">phi_Outlet.h</text>
</a>
</g>
</g>
<!-- Node4&#45;&gt;Node6 -->
<g id="edge8" class="edge">
<title>Node4&#45;&gt;Node6</title>
<path fill="none" stroke="midnightblue" d="M148.01,-110.45C164.41,-101.93 190.54,-88.35 209.79,-78.35"/>
<polygon fill="midnightblue" stroke="midnightblue" points="211.62,-81.34 218.88,-73.63 208.4,-75.13 211.62,-81.34"/>
</g>
<!-- Node5&#45;&gt;Node2 -->
<g id="edge7" class="edge">
<title>Node5&#45;&gt;Node2</title>
<path fill="none" stroke="midnightblue" d="M145.83,-55.22C141.63,-47.79 135.32,-36.65 130.06,-27.34"/>
<polygon fill="midnightblue" stroke="midnightblue" points="133.05,-25.53 125.08,-18.55 126.96,-28.98 133.05,-25.53"/>
</g>
<!-- Node6&#45;&gt;Node2 -->
<g id="edge9" class="edge">
<title>Node6&#45;&gt;Node2</title>
<path fill="none" stroke="midnightblue" d="M217.21,-55.45C198.63,-46.81 168.88,-32.98 147.28,-22.94"/>
<polygon fill="midnightblue" stroke="midnightblue" points="148.54,-19.67 138,-18.63 145.59,-26.01 148.54,-19.67"/>
</g>
<!-- Node7&#45;&gt;Node2 -->
<g id="edge11" class="edge">
<title>Node7&#45;&gt;Node2</title>
<path fill="none" stroke="midnightblue" d="M272.59,-110.15C279.83,-97.04 290.95,-71.41 278.52,-55 265.29,-37.53 210.92,-24.99 169.62,-17.76"/>
<polygon fill="midnightblue" stroke="midnightblue" points="170.15,-14.3 159.7,-16.08 168.98,-21.2 170.15,-14.3"/>
</g>
</g>
</svg>
