<?xml version="1.0" encoding="UTF-8" standalone="no"?>
<!DOCTYPE svg PUBLIC "-//W3C//DTD SVG 1.1//EN"
 "http://www.w3.org/Graphics/SVG/1.1/DTD/svg11.dtd">
<!-- Generated by graphviz version 2.42.3 (20191010.1750)
 -->
<!-- Title: Source/lib/modules/module_Gain.h Pages: 1 -->
<svg width="241pt" height="202pt"
 viewBox="0.00 0.00 241.08 202.00" xmlns="http://www.w3.org/2000/svg" xmlns:xlink="http://www.w3.org/1999/xlink">
<g id="graph0" class="graph" transform="scale(1 1) rotate(0) translate(4 198)">
<title>Source/lib/modules/module_Gain.h</title>
<polygon fill="white" stroke="transparent" points="-4,4 -4,-198 237.08,-198 237.08,4 -4,4"/>
<!-- Node1 -->
<g id="node1" class="node">
<title>Node1</title>
<g id="a_node1"><a xlink:title=" ">
<polygon fill="#bfbfbf" stroke="black" points="2.71,-165.5 2.71,-193.5 103.75,-193.5 103.75,-165.5 2.71,-165.5"/>
<text text-anchor="start" x="10.71" y="-181.5" font-family="Helvetica,sans-Serif" font-size="10.00">Source/lib/modules</text>
<text text-anchor="middle" x="53.23" y="-171.5" font-family="Helvetica,sans-Serif" font-size="10.00">/module_Gain.h</text>
</a>
</g>
</g>
<!-- Node2 -->
<g id="node2" class="node">
<title>Node2</title>
<g id="a_node2"><a xlink:title=" ">
<polygon fill="white" stroke="#bfbfbf" points="14.37,-0.5 14.37,-18.5 92.09,-18.5 92.09,-0.5 14.37,-0.5"/>
<text text-anchor="middle" x="53.23" y="-6.5" font-family="Helvetica,sans-Serif" font-size="10.00">JuceHeader.h</text>
</a>
</g>
</g>
<!-- Node1&#45;&gt;Node2 -->
<g id="edge1" class="edge">
<title>Node1&#45;&gt;Node2</title>
<path fill="none" stroke="midnightblue" d="M37.93,-165.45C28.4,-156.32 16.9,-143.24 11.23,-129 -0.95,-98.42 -4.45,-85.38 8.23,-55 13.22,-43.05 23.16,-32.66 32.43,-24.94"/>
<polygon fill="midnightblue" stroke="midnightblue" points="34.83,-27.51 40.6,-18.63 30.54,-21.98 34.83,-27.51"/>
</g>
<!-- Node3 -->
<g id="node3" class="node">
<title>Node3</title>
<g id="a_node3"><a xlink:href="_module_8h.html" target="_top" xlink:title=" ">
<polygon fill="white" stroke="black" points="20.49,-110.5 20.49,-128.5 85.97,-128.5 85.97,-110.5 20.49,-110.5"/>
<text text-anchor="middle" x="53.23" y="-116.5" font-family="Helvetica,sans-Serif" font-size="10.00">../Module.h</text>
</a>
</g>
</g>
<!-- Node1&#45;&gt;Node3 -->
<g id="edge2" class="edge">
<title>Node1&#45;&gt;Node3</title>
<path fill="none" stroke="midnightblue" d="M53.23,-165.34C53.23,-157.53 53.23,-147.51 53.23,-138.93"/>
<polygon fill="midnightblue" stroke="midnightblue" points="56.73,-138.77 53.23,-128.77 49.73,-138.77 56.73,-138.77"/>
</g>
<!-- Node6 -->
<g id="node6" class="node">
<title>Node6</title>
<g id="a_node6"><a xlink:href="ui___dial_8h.html" target="_top" xlink:title=" ">
<polygon fill="white" stroke="black" points="125.37,-110.5 125.37,-128.5 233.08,-128.5 233.08,-110.5 125.37,-110.5"/>
<text text-anchor="middle" x="179.23" y="-116.5" font-family="Helvetica,sans-Serif" font-size="10.00">../UIobjects/ui_Dial.h</text>
</a>
</g>
</g>
<!-- Node1&#45;&gt;Node6 -->
<g id="edge8" class="edge">
<title>Node1&#45;&gt;Node6</title>
<path fill="none" stroke="midnightblue" d="M81.51,-165.48C102.68,-155.74 131.46,-142.49 152.3,-132.9"/>
<polygon fill="midnightblue" stroke="midnightblue" points="153.92,-136 161.54,-128.64 150.99,-129.65 153.92,-136"/>
</g>
<!-- Node3&#45;&gt;Node2 -->
<g id="edge3" class="edge">
<title>Node3&#45;&gt;Node2</title>
<path fill="none" stroke="midnightblue" d="M42.04,-110.44C27.51,-98.9 4.93,-76.66 13.23,-55 17.63,-43.53 26.49,-33.17 34.76,-25.33"/>
<polygon fill="midnightblue" stroke="midnightblue" points="37.16,-27.88 42.34,-18.64 32.53,-22.63 37.16,-27.88"/>
</g>
<!-- Node4 -->
<g id="node4" class="node">
<title>Node4</title>
<g id="a_node4"><a xlink:href="phi___inlet_8h.html" target="_top" xlink:title=" ">
<polygon fill="white" stroke="black" points="22.16,-55.5 22.16,-73.5 84.3,-73.5 84.3,-55.5 22.16,-55.5"/>
<text text-anchor="middle" x="53.23" y="-61.5" font-family="Helvetica,sans-Serif" font-size="10.00">phi_Inlet.h</text>
</a>
</g>
</g>
<!-- Node3&#45;&gt;Node4 -->
<g id="edge4" class="edge">
<title>Node3&#45;&gt;Node4</title>
<path fill="none" stroke="midnightblue" d="M53.23,-110.22C53.23,-103.18 53.23,-92.81 53.23,-83.83"/>
<polygon fill="midnightblue" stroke="midnightblue" points="56.73,-83.55 53.23,-73.55 49.73,-83.55 56.73,-83.55"/>
</g>
<!-- Node5 -->
<g id="node5" class="node">
<title>Node5</title>
<g id="a_node5"><a xlink:href="phi___outlet_8h.html" target="_top" xlink:title=" ">
<polygon fill="white" stroke="black" points="102.27,-55.5 102.27,-73.5 172.19,-73.5 172.19,-55.5 102.27,-55.5"/>
<text text-anchor="middle" x="137.23" y="-61.5" font-family="Helvetica,sans-Serif" font-size="10.00">phi_Outlet.h</text>
</a>
</g>
</g>
<!-- Node3&#45;&gt;Node5 -->
<g id="edge6" class="edge">
<title>Node3&#45;&gt;Node5</title>
<path fill="none" stroke="midnightblue" d="M65.99,-110.45C79.19,-102.12 100.03,-88.97 115.77,-79.04"/>
<polygon fill="midnightblue" stroke="midnightblue" points="117.76,-81.92 124.35,-73.63 114.03,-76 117.76,-81.92"/>
</g>
<!-- Node4&#45;&gt;Node2 -->
<g id="edge5" class="edge">
<title>Node4&#45;&gt;Node2</title>
<path fill="none" stroke="midnightblue" d="M53.23,-55.22C53.23,-48.18 53.23,-37.81 53.23,-28.83"/>
<polygon fill="midnightblue" stroke="midnightblue" points="56.73,-28.55 53.23,-18.55 49.73,-28.55 56.73,-28.55"/>
</g>
<!-- Node5&#45;&gt;Node2 -->
<g id="edge7" class="edge">
<title>Node5&#45;&gt;Node2</title>
<path fill="none" stroke="midnightblue" d="M124.47,-55.45C111.27,-47.12 90.43,-33.97 74.69,-24.04"/>
<polygon fill="midnightblue" stroke="midnightblue" points="76.43,-21 66.11,-18.63 72.7,-26.92 76.43,-21"/>
</g>
<!-- Node6&#45;&gt;Node2 -->
<g id="edge9" class="edge">
<title>Node6&#45;&gt;Node2</title>
<path fill="none" stroke="midnightblue" d="M182.41,-110.18C186.81,-97.11 192.99,-71.54 181.23,-55 163.38,-29.9 130.31,-18.83 102.26,-14.01"/>
<polygon fill="midnightblue" stroke="midnightblue" points="102.59,-10.52 92.18,-12.5 101.56,-17.45 102.59,-10.52"/>
</g>
</g>
</svg>
