<?xml version="1.0" encoding="UTF-8" standalone="no"?>
<!DOCTYPE svg PUBLIC "-//W3C//DTD SVG 1.1//EN"
 "http://www.w3.org/Graphics/SVG/1.1/DTD/svg11.dtd">
<!-- Generated by graphviz version 2.42.3 (20191010.1750)
 -->
<!-- Title: Source/lib/UIobjects/phi_Dial.h Pages: 1 -->
<svg width="386pt" height="332pt"
 viewBox="0.00 0.00 385.55 332.00" xmlns="http://www.w3.org/2000/svg" xmlns:xlink="http://www.w3.org/1999/xlink">
<g id="graph0" class="graph" transform="scale(1 1) rotate(0) translate(4 328)">
<title>Source/lib/UIobjects/phi_Dial.h</title>
<polygon fill="white" stroke="transparent" points="-4,4 -4,-328 381.55,-328 381.55,4 -4,4"/>
<!-- Node1 -->
<g id="node1" class="node">
<title>Node1</title>
<g id="a_node1"><a xlink:title=" ">
<polygon fill="#bfbfbf" stroke="black" points="211.62,-295.5 211.62,-323.5 316.55,-323.5 316.55,-295.5 211.62,-295.5"/>
<text text-anchor="start" x="219.62" y="-311.5" font-family="Helvetica,sans-Serif" font-size="10.00">Source/lib/UIobjects</text>
<text text-anchor="middle" x="264.09" y="-301.5" font-family="Helvetica,sans-Serif" font-size="10.00">/phi_Dial.h</text>
</a>
</g>
</g>
<!-- Node2 -->
<g id="node2" class="node">
<title>Node2</title>
<g id="a_node2"><a xlink:href="phi___impulse_8h.html" target="_top" xlink:title=" ">
<polygon fill="white" stroke="black" points="153.57,-230.5 153.57,-258.5 254.61,-258.5 254.61,-230.5 153.57,-230.5"/>
<text text-anchor="start" x="161.57" y="-246.5" font-family="Helvetica,sans-Serif" font-size="10.00">Source/lib/modules</text>
<text text-anchor="middle" x="204.09" y="-236.5" font-family="Helvetica,sans-Serif" font-size="10.00">/phi_Impulse.h</text>
</a>
</g>
</g>
<!-- Node1&#45;&gt;Node2 -->
<g id="edge1" class="edge">
<title>Node1&#45;&gt;Node2</title>
<path fill="none" stroke="midnightblue" d="M244.65,-288.09C235.41,-278.38 224.63,-267.06 216.5,-258.54"/>
<polygon fill="midnightblue" stroke="midnightblue" points="242.23,-290.62 251.66,-295.45 247.29,-285.79 242.23,-290.62"/>
</g>
<!-- Node11 -->
<g id="node11" class="node">
<title>Node11</title>
<g id="a_node11"><a xlink:href="phi___dial_8cpp.html" target="_top" xlink:title=" ">
<polygon fill="white" stroke="black" points="272.62,-230.5 272.62,-258.5 377.55,-258.5 377.55,-230.5 272.62,-230.5"/>
<text text-anchor="start" x="280.62" y="-246.5" font-family="Helvetica,sans-Serif" font-size="10.00">Source/lib/UIobjects</text>
<text text-anchor="middle" x="325.09" y="-236.5" font-family="Helvetica,sans-Serif" font-size="10.00">/phi_Dial.cpp</text>
</a>
</g>
</g>
<!-- Node1&#45;&gt;Node11 -->
<g id="edge10" class="edge">
<title>Node1&#45;&gt;Node11</title>
<path fill="none" stroke="midnightblue" d="M283.85,-288.09C293.25,-278.38 304.21,-267.06 312.47,-258.54"/>
<polygon fill="midnightblue" stroke="midnightblue" points="281.17,-285.83 276.73,-295.45 286.2,-290.7 281.17,-285.83"/>
</g>
<!-- Node3 -->
<g id="node3" class="node">
<title>Node3</title>
<g id="a_node3"><a xlink:href="_module_box_8h.html" target="_top" xlink:title=" ">
<polygon fill="white" stroke="black" points="79.28,-170.5 79.28,-188.5 200.9,-188.5 200.9,-170.5 79.28,-170.5"/>
<text text-anchor="middle" x="140.09" y="-176.5" font-family="Helvetica,sans-Serif" font-size="10.00">Source/lib/ModuleBox.h</text>
</a>
</g>
</g>
<!-- Node2&#45;&gt;Node3 -->
<g id="edge2" class="edge">
<title>Node2&#45;&gt;Node3</title>
<path fill="none" stroke="midnightblue" d="M183.45,-223.18C171.57,-211.49 157.29,-197.43 148.45,-188.73"/>
<polygon fill="midnightblue" stroke="midnightblue" points="181.25,-225.93 190.83,-230.45 186.16,-220.94 181.25,-225.93"/>
</g>
<!-- Node10 -->
<g id="node10" class="node">
<title>Node10</title>
<g id="a_node10"><a xlink:href="phi___impulse_8cpp.html" target="_top" xlink:title=" ">
<polygon fill="white" stroke="black" points="218.57,-165.5 218.57,-193.5 319.61,-193.5 319.61,-165.5 218.57,-165.5"/>
<text text-anchor="start" x="226.57" y="-181.5" font-family="Helvetica,sans-Serif" font-size="10.00">Source/lib/modules</text>
<text text-anchor="middle" x="269.09" y="-171.5" font-family="Helvetica,sans-Serif" font-size="10.00">/phi_Impulse.cpp</text>
</a>
</g>
</g>
<!-- Node2&#45;&gt;Node10 -->
<g id="edge9" class="edge">
<title>Node2&#45;&gt;Node10</title>
<path fill="none" stroke="midnightblue" d="M224.85,-223.38C234.93,-213.61 246.75,-202.15 255.64,-193.54"/>
<polygon fill="midnightblue" stroke="midnightblue" points="222.3,-220.97 217.56,-230.45 227.17,-226 222.3,-220.97"/>
</g>
<!-- Node4 -->
<g id="node4" class="node">
<title>Node4</title>
<g id="a_node4"><a xlink:href="_module_box_8cpp.html" target="_top" xlink:title=" ">
<polygon fill="white" stroke="black" points="0,-110.5 0,-128.5 132.18,-128.5 132.18,-110.5 0,-110.5"/>
<text text-anchor="middle" x="66.09" y="-116.5" font-family="Helvetica,sans-Serif" font-size="10.00">Source/lib/ModuleBox.cpp</text>
</a>
</g>
</g>
<!-- Node3&#45;&gt;Node4 -->
<g id="edge3" class="edge">
<title>Node3&#45;&gt;Node4</title>
<path fill="none" stroke="midnightblue" d="M121.74,-164.12C107.59,-153.03 88.51,-138.08 76.77,-128.87"/>
<polygon fill="midnightblue" stroke="midnightblue" points="119.77,-167.02 129.8,-170.44 124.09,-161.51 119.77,-167.02"/>
</g>
<!-- Node5 -->
<g id="node5" class="node">
<title>Node5</title>
<g id="a_node5"><a xlink:href="_main_patcher_8h.html" target="_top" xlink:title=" ">
<polygon fill="white" stroke="black" points="149.84,-110.5 149.84,-128.5 280.34,-128.5 280.34,-110.5 149.84,-110.5"/>
<text text-anchor="middle" x="215.09" y="-116.5" font-family="Helvetica,sans-Serif" font-size="10.00">Source/src/MainPatcher.h</text>
</a>
</g>
</g>
<!-- Node3&#45;&gt;Node5 -->
<g id="edge4" class="edge">
<title>Node3&#45;&gt;Node5</title>
<path fill="none" stroke="midnightblue" d="M158.69,-164.12C173.03,-153.03 192.36,-138.08 204.26,-128.87"/>
<polygon fill="midnightblue" stroke="midnightblue" points="156.29,-161.55 150.52,-170.44 160.57,-167.09 156.29,-161.55"/>
</g>
<!-- Node6 -->
<g id="node6" class="node">
<title>Node6</title>
<g id="a_node6"><a xlink:href="_main_component_8h.html" target="_top" xlink:title=" ">
<polygon fill="white" stroke="black" points="59.95,-55.5 59.95,-73.5 208.23,-73.5 208.23,-55.5 59.95,-55.5"/>
<text text-anchor="middle" x="134.09" y="-61.5" font-family="Helvetica,sans-Serif" font-size="10.00">Source/src/MainComponent.h</text>
</a>
</g>
</g>
<!-- Node5&#45;&gt;Node6 -->
<g id="edge5" class="edge">
<title>Node5&#45;&gt;Node6</title>
<path fill="none" stroke="midnightblue" d="M194.11,-104.77C179.01,-94.89 159.16,-81.9 146.51,-73.63"/>
<polygon fill="midnightblue" stroke="midnightblue" points="192.5,-107.9 202.79,-110.45 196.33,-102.05 192.5,-107.9"/>
</g>
<!-- Node9 -->
<g id="node9" class="node">
<title>Node9</title>
<g id="a_node9"><a xlink:href="_main_patcher_8cpp.html" target="_top" xlink:title=" ">
<polygon fill="white" stroke="black" points="226.56,-55.5 226.56,-73.5 367.62,-73.5 367.62,-55.5 226.56,-55.5"/>
<text text-anchor="middle" x="297.09" y="-61.5" font-family="Helvetica,sans-Serif" font-size="10.00">Source/src/MainPatcher.cpp</text>
</a>
</g>
</g>
<!-- Node5&#45;&gt;Node9 -->
<g id="edge8" class="edge">
<title>Node5&#45;&gt;Node9</title>
<path fill="none" stroke="midnightblue" d="M236.33,-104.77C251.61,-94.89 271.71,-81.9 284.52,-73.63"/>
<polygon fill="midnightblue" stroke="midnightblue" points="234.04,-102.08 227.54,-110.45 237.84,-107.96 234.04,-102.08"/>
</g>
<!-- Node7 -->
<g id="node7" class="node">
<title>Node7</title>
<g id="a_node7"><a xlink:href="_main_8cpp.html" target="_top" xlink:title=" ">
<polygon fill="white" stroke="black" points="5.51,-0.5 5.51,-18.5 112.66,-18.5 112.66,-0.5 5.51,-0.5"/>
<text text-anchor="middle" x="59.09" y="-6.5" font-family="Helvetica,sans-Serif" font-size="10.00">Source/src/Main.cpp</text>
</a>
</g>
</g>
<!-- Node6&#45;&gt;Node7 -->
<g id="edge6" class="edge">
<title>Node6&#45;&gt;Node7</title>
<path fill="none" stroke="midnightblue" d="M114.27,-49.49C100.34,-39.65 82.19,-26.83 70.59,-18.63"/>
<polygon fill="midnightblue" stroke="midnightblue" points="112.51,-52.54 122.7,-55.45 116.55,-46.82 112.51,-52.54"/>
</g>
<!-- Node8 -->
<g id="node8" class="node">
<title>Node8</title>
<g id="a_node8"><a xlink:href="_main_component_8cpp.html" target="_top" xlink:title=" ">
<polygon fill="white" stroke="black" points="130.67,-0.5 130.67,-18.5 289.51,-18.5 289.51,-0.5 130.67,-0.5"/>
<text text-anchor="middle" x="210.09" y="-6.5" font-family="Helvetica,sans-Serif" font-size="10.00">Source/src/MainComponent.cpp</text>
</a>
</g>
</g>
<!-- Node6&#45;&gt;Node8 -->
<g id="edge7" class="edge">
<title>Node6&#45;&gt;Node8</title>
<path fill="none" stroke="midnightblue" d="M154.18,-49.49C168.29,-39.65 186.68,-26.83 198.44,-18.63"/>
<polygon fill="midnightblue" stroke="midnightblue" points="151.83,-46.86 145.63,-55.45 155.84,-52.6 151.83,-46.86"/>
</g>
</g>
</svg>
