<?xml version="1.0" encoding="UTF-8" standalone="no"?>
<!DOCTYPE svg PUBLIC "-//W3C//DTD SVG 1.1//EN"
 "http://www.w3.org/Graphics/SVG/1.1/DTD/svg11.dtd">
<!-- Generated by graphviz version 2.42.3 (20191010.1750)
 -->
<!-- Title: Source/lib/modules/phi_Impulse.cpp Pages: 1 -->
<svg width="451pt" height="202pt"
 viewBox="0.00 0.00 450.88 202.00" xmlns="http://www.w3.org/2000/svg" xmlns:xlink="http://www.w3.org/1999/xlink">
<g id="graph0" class="graph" transform="scale(1 1) rotate(0) translate(4 198)">
<title>Source/lib/modules/phi_Impulse.cpp</title>
<polygon fill="white" stroke="transparent" points="-4,4 -4,-198 446.88,-198 446.88,4 -4,4"/>
<!-- Node1 -->
<g id="node1" class="node">
<title>Node1</title>
<g id="a_node1"><a xlink:title=" ">
<polygon fill="#bfbfbf" stroke="black" points="0,-165.5 0,-193.5 101.04,-193.5 101.04,-165.5 0,-165.5"/>
<text text-anchor="start" x="8" y="-181.5" font-family="Helvetica,sans-Serif" font-size="10.00">Source/lib/modules</text>
<text text-anchor="middle" x="50.52" y="-171.5" font-family="Helvetica,sans-Serif" font-size="10.00">/phi_Impulse.cpp</text>
</a>
</g>
</g>
<!-- Node2 -->
<g id="node2" class="node">
<title>Node2</title>
<g id="a_node2"><a xlink:title=" ">
<polygon fill="white" stroke="#bfbfbf" points="73.67,-0.5 73.67,-18.5 151.38,-18.5 151.38,-0.5 73.67,-0.5"/>
<text text-anchor="middle" x="112.52" y="-6.5" font-family="Helvetica,sans-Serif" font-size="10.00">JuceHeader.h</text>
</a>
</g>
</g>
<!-- Node1&#45;&gt;Node2 -->
<g id="edge1" class="edge">
<title>Node1&#45;&gt;Node2</title>
<path fill="none" stroke="midnightblue" d="M44.9,-165.22C35.77,-141.44 20.62,-90.7 40.52,-55 48.74,-40.26 64.07,-29.79 78.49,-22.72"/>
<polygon fill="midnightblue" stroke="midnightblue" points="80.06,-25.86 87.74,-18.56 77.18,-19.47 80.06,-25.86"/>
</g>
<!-- Node3 -->
<g id="node3" class="node">
<title>Node3</title>
<g id="a_node3"><a xlink:href="phi___impulse_8h.html" target="_top" xlink:title=" ">
<polygon fill="white" stroke="black" points="73.39,-110.5 73.39,-128.5 151.65,-128.5 151.65,-110.5 73.39,-110.5"/>
<text text-anchor="middle" x="112.52" y="-116.5" font-family="Helvetica,sans-Serif" font-size="10.00">phi_Impulse.h</text>
</a>
</g>
</g>
<!-- Node1&#45;&gt;Node3 -->
<g id="edge2" class="edge">
<title>Node1&#45;&gt;Node3</title>
<path fill="none" stroke="midnightblue" d="M64.59,-165.34C73.97,-156.57 86.33,-145 96.15,-135.82"/>
<polygon fill="midnightblue" stroke="midnightblue" points="98.77,-138.16 103.68,-128.77 93.99,-133.05 98.77,-138.16"/>
</g>
<!-- Node3&#45;&gt;Node2 -->
<g id="edge3" class="edge">
<title>Node3&#45;&gt;Node2</title>
<path fill="none" stroke="midnightblue" d="M92.13,-110.46C68.29,-99.75 33.61,-79.29 46.52,-55 54.11,-40.72 68.55,-30.2 81.99,-22.99"/>
<polygon fill="midnightblue" stroke="midnightblue" points="83.63,-26.08 91.04,-18.51 80.53,-19.81 83.63,-26.08"/>
</g>
<!-- Node4 -->
<g id="node4" class="node">
<title>Node4</title>
<g id="a_node4"><a xlink:href="phi___dial_8h.html" target="_top" xlink:title=" ">
<polygon fill="white" stroke="black" points="55.89,-55.5 55.89,-73.5 169.16,-73.5 169.16,-55.5 55.89,-55.5"/>
<text text-anchor="middle" x="112.52" y="-61.5" font-family="Helvetica,sans-Serif" font-size="10.00">../UIobjects/phi_Dial.h</text>
</a>
</g>
</g>
<!-- Node3&#45;&gt;Node4 -->
<g id="edge4" class="edge">
<title>Node3&#45;&gt;Node4</title>
<path fill="none" stroke="midnightblue" d="M112.52,-110.22C112.52,-103.18 112.52,-92.81 112.52,-83.83"/>
<polygon fill="midnightblue" stroke="midnightblue" points="116.02,-83.55 112.52,-73.55 109.02,-83.55 116.02,-83.55"/>
</g>
<!-- Node5 -->
<g id="node5" class="node">
<title>Node5</title>
<g id="a_node5"><a xlink:href="phi___inlet_8h.html" target="_top" xlink:title=" ">
<polygon fill="white" stroke="black" points="187.05,-55.5 187.05,-73.5 301.99,-73.5 301.99,-55.5 187.05,-55.5"/>
<text text-anchor="middle" x="244.52" y="-61.5" font-family="Helvetica,sans-Serif" font-size="10.00">../UIobjects/phi_Inlet.h</text>
</a>
</g>
</g>
<!-- Node3&#45;&gt;Node5 -->
<g id="edge6" class="edge">
<title>Node3&#45;&gt;Node5</title>
<path fill="none" stroke="midnightblue" d="M132.57,-110.45C154.47,-101.66 189.78,-87.48 214.88,-77.4"/>
<polygon fill="midnightblue" stroke="midnightblue" points="216.31,-80.6 224.29,-73.63 213.7,-74.1 216.31,-80.6"/>
</g>
<!-- Node6 -->
<g id="node6" class="node">
<title>Node6</title>
<g id="a_node6"><a xlink:href="phi___outlet_8h.html" target="_top" xlink:title=" ">
<polygon fill="white" stroke="black" points="320.16,-55.5 320.16,-73.5 442.88,-73.5 442.88,-55.5 320.16,-55.5"/>
<text text-anchor="middle" x="381.52" y="-61.5" font-family="Helvetica,sans-Serif" font-size="10.00">../UIobjects/phi_Outlet.h</text>
</a>
</g>
</g>
<!-- Node3&#45;&gt;Node6 -->
<g id="edge8" class="edge">
<title>Node3&#45;&gt;Node6</title>
<path fill="none" stroke="midnightblue" d="M151.92,-110.74C199.26,-101.41 278.77,-85.74 330.69,-75.51"/>
<polygon fill="midnightblue" stroke="midnightblue" points="331.56,-78.91 340.69,-73.54 330.2,-72.04 331.56,-78.91"/>
</g>
<!-- Node4&#45;&gt;Node2 -->
<g id="edge5" class="edge">
<title>Node4&#45;&gt;Node2</title>
<path fill="none" stroke="midnightblue" d="M112.52,-55.22C112.52,-48.18 112.52,-37.81 112.52,-28.83"/>
<polygon fill="midnightblue" stroke="midnightblue" points="116.02,-28.55 112.52,-18.55 109.02,-28.55 116.02,-28.55"/>
</g>
<!-- Node5&#45;&gt;Node2 -->
<g id="edge7" class="edge">
<title>Node5&#45;&gt;Node2</title>
<path fill="none" stroke="midnightblue" d="M224.47,-55.45C202.57,-46.66 167.27,-32.48 142.16,-22.4"/>
<polygon fill="midnightblue" stroke="midnightblue" points="143.34,-19.1 132.76,-18.63 140.73,-25.6 143.34,-19.1"/>
</g>
<!-- Node6&#45;&gt;Node2 -->
<g id="edge9" class="edge">
<title>Node6&#45;&gt;Node2</title>
<path fill="none" stroke="midnightblue" d="M340.67,-55.45C292.58,-45.98 212.78,-30.25 161.44,-20.14"/>
<polygon fill="midnightblue" stroke="midnightblue" points="162.06,-16.69 151.57,-18.19 160.71,-23.56 162.06,-16.69"/>
</g>
</g>
</svg>
