<?xml version="1.0" encoding="UTF-8" standalone="no"?>
<!DOCTYPE svg PUBLIC "-//W3C//DTD SVG 1.1//EN"
 "http://www.w3.org/Graphics/SVG/1.1/DTD/svg11.dtd">
<!-- Generated by graphviz version 2.42.3 (20191010.1750)
 -->
<!-- Title: Source/lib/UIobjects/phi_Outlet.h Pages: 1 -->
<svg width="512pt" height="332pt"
 viewBox="0.00 0.00 512.04 332.00" xmlns="http://www.w3.org/2000/svg" xmlns:xlink="http://www.w3.org/1999/xlink">
<g id="graph0" class="graph" transform="scale(1 1) rotate(0) translate(4 328)">
<title>Source/lib/UIobjects/phi_Outlet.h</title>
<polygon fill="white" stroke="transparent" points="-4,4 -4,-328 508.04,-328 508.04,4 -4,4"/>
<!-- Node1 -->
<g id="node1" class="node">
<title>Node1</title>
<g id="a_node1"><a xlink:title=" ">
<polygon fill="#bfbfbf" stroke="black" points="278.11,-295.5 278.11,-323.5 383.04,-323.5 383.04,-295.5 278.11,-295.5"/>
<text text-anchor="start" x="286.11" y="-311.5" font-family="Helvetica,sans-Serif" font-size="10.00">Source/lib/UIobjects</text>
<text text-anchor="middle" x="330.57" y="-301.5" font-family="Helvetica,sans-Serif" font-size="10.00">/phi_Outlet.h</text>
</a>
</g>
</g>
<!-- Node2 -->
<g id="node2" class="node">
<title>Node2</title>
<g id="a_node2"><a xlink:href="_connections_8h.html" target="_top" xlink:title=" ">
<polygon fill="white" stroke="black" points="134.99,-235.5 134.99,-253.5 262.16,-253.5 262.16,-235.5 134.99,-235.5"/>
<text text-anchor="middle" x="198.57" y="-241.5" font-family="Helvetica,sans-Serif" font-size="10.00">Source/lib/Connections.h</text>
</a>
</g>
</g>
<!-- Node1&#45;&gt;Node2 -->
<g id="edge1" class="edge">
<title>Node1&#45;&gt;Node2</title>
<path fill="none" stroke="midnightblue" d="M294.13,-291.11C268.42,-278.84 235.17,-262.97 215.44,-253.55"/>
<polygon fill="midnightblue" stroke="midnightblue" points="292.69,-294.3 303.22,-295.45 295.71,-287.98 292.69,-294.3"/>
</g>
<!-- Node9 -->
<g id="node9" class="node">
<title>Node9</title>
<g id="a_node9"><a xlink:href="phi___impulse_8h.html" target="_top" xlink:title=" ">
<polygon fill="white" stroke="black" points="280.05,-230.5 280.05,-258.5 381.1,-258.5 381.1,-230.5 280.05,-230.5"/>
<text text-anchor="start" x="288.05" y="-246.5" font-family="Helvetica,sans-Serif" font-size="10.00">Source/lib/modules</text>
<text text-anchor="middle" x="330.57" y="-236.5" font-family="Helvetica,sans-Serif" font-size="10.00">/phi_Impulse.h</text>
</a>
</g>
</g>
<!-- Node1&#45;&gt;Node9 -->
<g id="edge8" class="edge">
<title>Node1&#45;&gt;Node9</title>
<path fill="none" stroke="midnightblue" d="M330.57,-285.16C330.57,-276.17 330.57,-266.22 330.57,-258.54"/>
<polygon fill="midnightblue" stroke="midnightblue" points="327.07,-285.45 330.57,-295.45 334.07,-285.45 327.07,-285.45"/>
</g>
<!-- Node13 -->
<g id="node13" class="node">
<title>Node13</title>
<g id="a_node13"><a xlink:href="phi___outlet_8cpp.html" target="_top" xlink:title=" ">
<polygon fill="white" stroke="black" points="399.11,-230.5 399.11,-258.5 504.04,-258.5 504.04,-230.5 399.11,-230.5"/>
<text text-anchor="start" x="407.11" y="-246.5" font-family="Helvetica,sans-Serif" font-size="10.00">Source/lib/UIobjects</text>
<text text-anchor="middle" x="451.57" y="-236.5" font-family="Helvetica,sans-Serif" font-size="10.00">/phi_Outlet.cpp</text>
</a>
</g>
</g>
<!-- Node1&#45;&gt;Node13 -->
<g id="edge13" class="edge">
<title>Node1&#45;&gt;Node13</title>
<path fill="none" stroke="midnightblue" d="M364.6,-290.78C384.28,-280.54 408.61,-267.87 426.53,-258.54"/>
<polygon fill="midnightblue" stroke="midnightblue" points="362.9,-287.72 355.65,-295.45 366.13,-293.93 362.9,-287.72"/>
</g>
<!-- Node3 -->
<g id="node3" class="node">
<title>Node3</title>
<g id="a_node3"><a xlink:href="_connections_8cpp.html" target="_top" xlink:title=" ">
<polygon fill="white" stroke="black" points="43.7,-170.5 43.7,-188.5 181.44,-188.5 181.44,-170.5 43.7,-170.5"/>
<text text-anchor="middle" x="112.57" y="-176.5" font-family="Helvetica,sans-Serif" font-size="10.00">Source/lib/Connections.cpp</text>
</a>
</g>
</g>
<!-- Node2&#45;&gt;Node3 -->
<g id="edge2" class="edge">
<title>Node2&#45;&gt;Node3</title>
<path fill="none" stroke="midnightblue" d="M179.1,-229.24C161.93,-216.66 137.53,-198.78 123.55,-188.54"/>
<polygon fill="midnightblue" stroke="midnightblue" points="177.2,-232.18 187.33,-235.26 181.33,-226.53 177.2,-232.18"/>
</g>
<!-- Node4 -->
<g id="node4" class="node">
<title>Node4</title>
<g id="a_node4"><a xlink:href="_main_patcher_8h.html" target="_top" xlink:title=" ">
<polygon fill="white" stroke="black" points="144.32,-110.5 144.32,-128.5 274.82,-128.5 274.82,-110.5 144.32,-110.5"/>
<text text-anchor="middle" x="209.57" y="-116.5" font-family="Helvetica,sans-Serif" font-size="10.00">Source/src/MainPatcher.h</text>
</a>
</g>
</g>
<!-- Node2&#45;&gt;Node4 -->
<g id="edge3" class="edge">
<title>Node2&#45;&gt;Node4</title>
<path fill="none" stroke="midnightblue" d="M200.19,-225.38C202.61,-198.32 207.08,-148.41 208.83,-128.76"/>
<polygon fill="midnightblue" stroke="midnightblue" points="196.7,-225.16 199.3,-235.43 203.67,-225.78 196.7,-225.16"/>
</g>
<!-- Node5 -->
<g id="node5" class="node">
<title>Node5</title>
<g id="a_node5"><a xlink:href="_main_component_8h.html" target="_top" xlink:title=" ">
<polygon fill="white" stroke="black" points="54.43,-55.5 54.43,-73.5 202.72,-73.5 202.72,-55.5 54.43,-55.5"/>
<text text-anchor="middle" x="128.57" y="-61.5" font-family="Helvetica,sans-Serif" font-size="10.00">Source/src/MainComponent.h</text>
</a>
</g>
</g>
<!-- Node4&#45;&gt;Node5 -->
<g id="edge4" class="edge">
<title>Node4&#45;&gt;Node5</title>
<path fill="none" stroke="midnightblue" d="M188.59,-104.77C173.5,-94.89 153.64,-81.9 140.99,-73.63"/>
<polygon fill="midnightblue" stroke="midnightblue" points="186.99,-107.9 197.27,-110.45 190.82,-102.05 186.99,-107.9"/>
</g>
<!-- Node8 -->
<g id="node8" class="node">
<title>Node8</title>
<g id="a_node8"><a xlink:href="_main_patcher_8cpp.html" target="_top" xlink:title=" ">
<polygon fill="white" stroke="black" points="221.04,-55.5 221.04,-73.5 362.11,-73.5 362.11,-55.5 221.04,-55.5"/>
<text text-anchor="middle" x="291.57" y="-61.5" font-family="Helvetica,sans-Serif" font-size="10.00">Source/src/MainPatcher.cpp</text>
</a>
</g>
</g>
<!-- Node4&#45;&gt;Node8 -->
<g id="edge7" class="edge">
<title>Node4&#45;&gt;Node8</title>
<path fill="none" stroke="midnightblue" d="M230.81,-104.77C246.1,-94.89 266.19,-81.9 279,-73.63"/>
<polygon fill="midnightblue" stroke="midnightblue" points="228.53,-102.08 222.03,-110.45 232.33,-107.96 228.53,-102.08"/>
</g>
<!-- Node6 -->
<g id="node6" class="node">
<title>Node6</title>
<g id="a_node6"><a xlink:href="_main_8cpp.html" target="_top" xlink:title=" ">
<polygon fill="white" stroke="black" points="0,-0.5 0,-18.5 107.15,-18.5 107.15,-0.5 0,-0.5"/>
<text text-anchor="middle" x="53.57" y="-6.5" font-family="Helvetica,sans-Serif" font-size="10.00">Source/src/Main.cpp</text>
</a>
</g>
</g>
<!-- Node5&#45;&gt;Node6 -->
<g id="edge5" class="edge">
<title>Node5&#45;&gt;Node6</title>
<path fill="none" stroke="midnightblue" d="M108.75,-49.49C94.82,-39.65 76.68,-26.83 65.07,-18.63"/>
<polygon fill="midnightblue" stroke="midnightblue" points="107,-52.54 117.18,-55.45 111.04,-46.82 107,-52.54"/>
</g>
<!-- Node7 -->
<g id="node7" class="node">
<title>Node7</title>
<g id="a_node7"><a xlink:href="_main_component_8cpp.html" target="_top" xlink:title=" ">
<polygon fill="white" stroke="black" points="125.15,-0.5 125.15,-18.5 284,-18.5 284,-0.5 125.15,-0.5"/>
<text text-anchor="middle" x="204.57" y="-6.5" font-family="Helvetica,sans-Serif" font-size="10.00">Source/src/MainComponent.cpp</text>
</a>
</g>
</g>
<!-- Node5&#45;&gt;Node7 -->
<g id="edge6" class="edge">
<title>Node5&#45;&gt;Node7</title>
<path fill="none" stroke="midnightblue" d="M148.66,-49.49C162.78,-39.65 181.16,-26.83 192.92,-18.63"/>
<polygon fill="midnightblue" stroke="midnightblue" points="146.32,-46.86 140.12,-55.45 150.32,-52.6 146.32,-46.86"/>
</g>
<!-- Node10 -->
<g id="node10" class="node">
<title>Node10</title>
<g id="a_node10"><a xlink:href="_module_box_8h.html" target="_top" xlink:title=" ">
<polygon fill="white" stroke="black" points="258.77,-170.5 258.77,-188.5 380.38,-188.5 380.38,-170.5 258.77,-170.5"/>
<text text-anchor="middle" x="319.57" y="-176.5" font-family="Helvetica,sans-Serif" font-size="10.00">Source/lib/ModuleBox.h</text>
</a>
</g>
</g>
<!-- Node9&#45;&gt;Node10 -->
<g id="edge9" class="edge">
<title>Node9&#45;&gt;Node10</title>
<path fill="none" stroke="midnightblue" d="M326.55,-220.47C324.62,-209.38 322.41,-196.77 321.01,-188.73"/>
<polygon fill="midnightblue" stroke="midnightblue" points="323.13,-221.2 328.29,-230.45 330.02,-219.99 323.13,-221.2"/>
</g>
<!-- Node12 -->
<g id="node12" class="node">
<title>Node12</title>
<g id="a_node12"><a xlink:href="phi___impulse_8cpp.html" target="_top" xlink:title=" ">
<polygon fill="white" stroke="black" points="398.05,-165.5 398.05,-193.5 499.1,-193.5 499.1,-165.5 398.05,-165.5"/>
<text text-anchor="start" x="406.05" y="-181.5" font-family="Helvetica,sans-Serif" font-size="10.00">Source/lib/modules</text>
<text text-anchor="middle" x="448.57" y="-171.5" font-family="Helvetica,sans-Serif" font-size="10.00">/phi_Impulse.cpp</text>
</a>
</g>
</g>
<!-- Node9&#45;&gt;Node12 -->
<g id="edge12" class="edge">
<title>Node9&#45;&gt;Node12</title>
<path fill="none" stroke="midnightblue" d="M364.02,-225.64C383.16,-215.42 406.76,-202.82 424.16,-193.54"/>
<polygon fill="midnightblue" stroke="midnightblue" points="362.2,-222.65 355.02,-230.45 365.49,-228.82 362.2,-222.65"/>
</g>
<!-- Node10&#45;&gt;Node4 -->
<g id="edge11" class="edge">
<title>Node10&#45;&gt;Node4</title>
<path fill="none" stroke="midnightblue" d="M295.16,-165.63C273.77,-154.35 243.32,-138.29 225.09,-128.68"/>
<polygon fill="midnightblue" stroke="midnightblue" points="293.8,-168.87 304.28,-170.44 297.07,-162.68 293.8,-168.87"/>
</g>
<!-- Node11 -->
<g id="node11" class="node">
<title>Node11</title>
<g id="a_node11"><a xlink:href="_module_box_8cpp.html" target="_top" xlink:title=" ">
<polygon fill="white" stroke="black" points="292.49,-110.5 292.49,-128.5 424.66,-128.5 424.66,-110.5 292.49,-110.5"/>
<text text-anchor="middle" x="358.57" y="-116.5" font-family="Helvetica,sans-Serif" font-size="10.00">Source/lib/ModuleBox.cpp</text>
</a>
</g>
</g>
<!-- Node10&#45;&gt;Node11 -->
<g id="edge10" class="edge">
<title>Node10&#45;&gt;Node11</title>
<path fill="none" stroke="midnightblue" d="M330.76,-161.87C338.01,-151.08 347.16,-137.47 352.94,-128.87"/>
<polygon fill="midnightblue" stroke="midnightblue" points="327.67,-160.18 325,-170.44 333.48,-164.09 327.67,-160.18"/>
</g>
</g>
</svg>
