<?xml version="1.0" encoding="UTF-8" standalone="no"?>
<!DOCTYPE svg PUBLIC "-//W3C//DTD SVG 1.1//EN"
 "http://www.w3.org/Graphics/SVG/1.1/DTD/svg11.dtd">
<!-- Generated by graphviz version 2.42.3 (20191010.1750)
 -->
<!-- Title: Source/lib/UIobjects/phi_Dial.cpp Pages: 1 -->
<svg width="120pt" height="147pt"
 viewBox="0.00 0.00 119.70 147.00" xmlns="http://www.w3.org/2000/svg" xmlns:xlink="http://www.w3.org/1999/xlink">
<g id="graph0" class="graph" transform="scale(1 1) rotate(0) translate(4 143)">
<title>Source/lib/UIobjects/phi_Dial.cpp</title>
<polygon fill="white" stroke="transparent" points="-4,4 -4,-143 115.7,-143 115.7,4 -4,4"/>
<!-- Node1 -->
<g id="node1" class="node">
<title>Node1</title>
<g id="a_node1"><a xlink:title=" ">
<polygon fill="#bfbfbf" stroke="black" points="0,-110.5 0,-138.5 104.93,-138.5 104.93,-110.5 0,-110.5"/>
<text text-anchor="start" x="8" y="-126.5" font-family="Helvetica,sans-Serif" font-size="10.00">Source/lib/UIobjects</text>
<text text-anchor="middle" x="52.47" y="-116.5" font-family="Helvetica,sans-Serif" font-size="10.00">/phi_Dial.cpp</text>
</a>
</g>
</g>
<!-- Node2 -->
<g id="node2" class="node">
<title>Node2</title>
<g id="a_node2"><a xlink:title=" ">
<polygon fill="white" stroke="#bfbfbf" points="13.61,-0.5 13.61,-18.5 91.32,-18.5 91.32,-0.5 13.61,-0.5"/>
<text text-anchor="middle" x="52.47" y="-6.5" font-family="Helvetica,sans-Serif" font-size="10.00">JuceHeader.h</text>
</a>
</g>
</g>
<!-- Node1&#45;&gt;Node2 -->
<g id="edge1" class="edge">
<title>Node1&#45;&gt;Node2</title>
<path fill="none" stroke="midnightblue" d="M48.54,-110.4C44.89,-96.64 40.32,-74.35 42.47,-55 43.45,-46.13 45.51,-36.44 47.5,-28.37"/>
<polygon fill="midnightblue" stroke="midnightblue" points="50.91,-29.17 50.07,-18.61 44.14,-27.39 50.91,-29.17"/>
</g>
<!-- Node3 -->
<g id="node3" class="node">
<title>Node3</title>
<g id="a_node3"><a xlink:href="phi___dial_8h.html" target="_top" xlink:title=" ">
<polygon fill="white" stroke="black" points="51.23,-55.5 51.23,-73.5 111.7,-73.5 111.7,-55.5 51.23,-55.5"/>
<text text-anchor="middle" x="81.47" y="-61.5" font-family="Helvetica,sans-Serif" font-size="10.00">phi_Dial.h</text>
</a>
</g>
</g>
<!-- Node1&#45;&gt;Node3 -->
<g id="edge2" class="edge">
<title>Node1&#45;&gt;Node3</title>
<path fill="none" stroke="midnightblue" d="M59.05,-110.34C63.13,-102.18 68.41,-91.61 72.83,-82.78"/>
<polygon fill="midnightblue" stroke="midnightblue" points="75.99,-84.28 77.33,-73.77 69.73,-81.15 75.99,-84.28"/>
</g>
<!-- Node3&#45;&gt;Node2 -->
<g id="edge3" class="edge">
<title>Node3&#45;&gt;Node2</title>
<path fill="none" stroke="midnightblue" d="M76.93,-55.22C72.87,-47.79 66.77,-36.65 61.68,-27.34"/>
<polygon fill="midnightblue" stroke="midnightblue" points="64.74,-25.64 56.87,-18.55 58.6,-29 64.74,-25.64"/>
</g>
</g>
</svg>
