<?xml version="1.0" encoding="UTF-8" standalone="no"?>
<!DOCTYPE svg PUBLIC "-//W3C//DTD SVG 1.1//EN"
 "http://www.w3.org/Graphics/SVG/1.1/DTD/svg11.dtd">
<!-- Generated by graphviz version 2.42.3 (20191010.1750)
 -->
<!-- Title: Source/lib/modules/phi_Impulse.h Pages: 1 -->
<svg width="410pt" height="147pt"
 viewBox="0.00 0.00 410.39 147.00" xmlns="http://www.w3.org/2000/svg" xmlns:xlink="http://www.w3.org/1999/xlink">
<g id="graph0" class="graph" transform="scale(1 1) rotate(0) translate(4 143)">
<title>Source/lib/modules/phi_Impulse.h</title>
<polygon fill="white" stroke="transparent" points="-4,4 -4,-143 406.39,-143 406.39,4 -4,4"/>
<!-- Node1 -->
<g id="node1" class="node">
<title>Node1</title>
<g id="a_node1"><a xlink:title=" ">
<polygon fill="#bfbfbf" stroke="black" points="87.51,-110.5 87.51,-138.5 188.55,-138.5 188.55,-110.5 87.51,-110.5"/>
<text text-anchor="start" x="95.51" y="-126.5" font-family="Helvetica,sans-Serif" font-size="10.00">Source/lib/modules</text>
<text text-anchor="middle" x="138.03" y="-116.5" font-family="Helvetica,sans-Serif" font-size="10.00">/phi_Impulse.h</text>
</a>
</g>
</g>
<!-- Node2 -->
<g id="node2" class="node">
<title>Node2</title>
<g id="a_node2"><a xlink:title=" ">
<polygon fill="white" stroke="#bfbfbf" points="99.18,-0.5 99.18,-18.5 176.89,-18.5 176.89,-0.5 99.18,-0.5"/>
<text text-anchor="middle" x="138.03" y="-6.5" font-family="Helvetica,sans-Serif" font-size="10.00">JuceHeader.h</text>
</a>
</g>
</g>
<!-- Node1&#45;&gt;Node2 -->
<g id="edge1" class="edge">
<title>Node1&#45;&gt;Node2</title>
<path fill="none" stroke="midnightblue" d="M87.41,-116.23C40.61,-107.27 -18.29,-88.87 6.03,-55 24.83,-28.82 59.84,-17.84 89.08,-13.32"/>
<polygon fill="midnightblue" stroke="midnightblue" points="89.69,-16.77 99.14,-11.98 88.77,-9.84 89.69,-16.77"/>
</g>
<!-- Node3 -->
<g id="node3" class="node">
<title>Node3</title>
<g id="a_node3"><a xlink:href="phi___dial_8h.html" target="_top" xlink:title=" ">
<polygon fill="white" stroke="black" points="15.4,-55.5 15.4,-73.5 128.67,-73.5 128.67,-55.5 15.4,-55.5"/>
<text text-anchor="middle" x="72.03" y="-61.5" font-family="Helvetica,sans-Serif" font-size="10.00">../UIobjects/phi_Dial.h</text>
</a>
</g>
</g>
<!-- Node1&#45;&gt;Node3 -->
<g id="edge2" class="edge">
<title>Node1&#45;&gt;Node3</title>
<path fill="none" stroke="midnightblue" d="M123.06,-110.34C112.97,-101.48 99.65,-89.77 89.15,-80.54"/>
<polygon fill="midnightblue" stroke="midnightblue" points="91.27,-77.74 81.44,-73.77 86.65,-83 91.27,-77.74"/>
</g>
<!-- Node4 -->
<g id="node4" class="node">
<title>Node4</title>
<g id="a_node4"><a xlink:href="phi___inlet_8h.html" target="_top" xlink:title=" ">
<polygon fill="white" stroke="black" points="146.56,-55.5 146.56,-73.5 261.5,-73.5 261.5,-55.5 146.56,-55.5"/>
<text text-anchor="middle" x="204.03" y="-61.5" font-family="Helvetica,sans-Serif" font-size="10.00">../UIobjects/phi_Inlet.h</text>
</a>
</g>
</g>
<!-- Node1&#45;&gt;Node4 -->
<g id="edge4" class="edge">
<title>Node1&#45;&gt;Node4</title>
<path fill="none" stroke="midnightblue" d="M153.01,-110.34C163.09,-101.48 176.41,-89.77 186.92,-80.54"/>
<polygon fill="midnightblue" stroke="midnightblue" points="189.42,-83 194.62,-73.77 184.8,-77.74 189.42,-83"/>
</g>
<!-- Node5 -->
<g id="node5" class="node">
<title>Node5</title>
<g id="a_node5"><a xlink:href="phi___outlet_8h.html" target="_top" xlink:title=" ">
<polygon fill="white" stroke="black" points="279.67,-55.5 279.67,-73.5 402.39,-73.5 402.39,-55.5 279.67,-55.5"/>
<text text-anchor="middle" x="341.03" y="-61.5" font-family="Helvetica,sans-Serif" font-size="10.00">../UIobjects/phi_Outlet.h</text>
</a>
</g>
</g>
<!-- Node1&#45;&gt;Node5 -->
<g id="edge6" class="edge">
<title>Node1&#45;&gt;Node5</title>
<path fill="none" stroke="midnightblue" d="M183.59,-110.48C219.5,-100.22 269,-86.08 302.86,-76.41"/>
<polygon fill="midnightblue" stroke="midnightblue" points="304.17,-79.67 312.83,-73.56 302.25,-72.94 304.17,-79.67"/>
</g>
<!-- Node3&#45;&gt;Node2 -->
<g id="edge3" class="edge">
<title>Node3&#45;&gt;Node2</title>
<path fill="none" stroke="midnightblue" d="M82.06,-55.45C92.04,-47.43 107.59,-34.95 119.77,-25.17"/>
<polygon fill="midnightblue" stroke="midnightblue" points="122.31,-27.62 127.91,-18.63 117.93,-22.16 122.31,-27.62"/>
</g>
<!-- Node4&#45;&gt;Node2 -->
<g id="edge5" class="edge">
<title>Node4&#45;&gt;Node2</title>
<path fill="none" stroke="midnightblue" d="M194.01,-55.45C184.03,-47.43 168.48,-34.95 156.3,-25.17"/>
<polygon fill="midnightblue" stroke="midnightblue" points="158.14,-22.16 148.15,-18.63 153.76,-27.62 158.14,-22.16"/>
</g>
<!-- Node5&#45;&gt;Node2 -->
<g id="edge7" class="edge">
<title>Node5&#45;&gt;Node2</title>
<path fill="none" stroke="midnightblue" d="M310.2,-55.45C275.07,-46.28 217.53,-31.26 178.74,-21.13"/>
<polygon fill="midnightblue" stroke="midnightblue" points="179.38,-17.68 168.82,-18.54 177.61,-24.45 179.38,-17.68"/>
</g>
</g>
</svg>
